$MeshFormat
4.1 0 8
$EndMeshFormat
$Entities
20 30 12 1
1 5.64 9.354759354815 17.449948933049 0 
2 5.64 9.969799110315 17.915099846816 0 
3 5.64 1.439356543202 20.42815061436 0 
4 5.64 5.656861997937 23.617824937916 0 
5 16.246288692278 4.726997326757 13.95 0 
6 52.152 7.12880515584 15.766472994467 0 
7 70.23999999999999 0 10.375 0 
8 52.152 -7.12880515584 4.983527005533 0 
9 16.328969213402 -9.316907449779 3.32867823789 0 
10 18.8 -4.604671964794e-15 10.375 0 
11 18.196029684325 4.726997326757 13.95 0 
12 52.152 2.815868043461 21.469198085568 0 
13 7.685863538058 0 19.339573810472 0 
14 70.23999999999999 -4.312937112379 16.0777250911 0 
15 52.152 -11.44174226821 10.686252096633 0 
16 12.712049074776 -13.85076923208 8.86431931341 0 
17 17.397009342039 -7.126293984464 13.95 0 
18 15.346085300395 -7.126293984464 13.95 0 
19 1.5 0 22.95 0 
20 18.8 -4.604671964794e-15 -13.95 0 
1 5.639999899999999 9.354759254816251 17.44994883304734 5.6400001 9.969799210316548 17.91509994681395 0 2 1 -2 
2 5.639999899999999 1.439356443202088 17.44994883304992 5.6400001 9.354759454815463 20.4281507143606 0 2 1 -3 
3 5.639999899999999 1.439356443204788 20.42815051435631 5.6400001 5.656862097939642 23.61782503791251 0 2 3 -4 
4 5.639999899999999 5.656861897937191 17.915099746816 5.6400001 9.969799210314999 23.61782503791615 0 2 2 -4 
5 5.639999900000041 4.726997226754151 13.94999990000316 16.24628879227773 9.354759454812877 17.44994903305208 0 2 5 -1 
6 5.639999899999999 7.128805055839883 15.76647289446756 52.15200010000003 9.969799210314999 17.915099946816 0 2 2 -6 
7 52.1519999 -1.000000877660057e-07 10.37499990000649 70.24000010000189 7.128805255840001 15.766473094467 0 2 6 -7 
8 52.1519998999981 -7.128805255840089 4.983526905539495 70.24000009999999 9.999999983634211e-08 10.3750001 0 2 7 -8 
9 16.32896911340198 -9.316907549779218 3.328678137890468 52.1520001 -7.12880505584 4.983527105533001 0 2 8 -9 
10 16.32896911340248 -9.316907549779899 3.328678137890826 18.8000001 1.000000011686097e-07 10.3750001 0 2 10 -9 
11 18.19602958432491 -9.999999894816369e-08 10.3749999 18.8000001 4.726997426757164 13.95000009999976 0 2 11 -10 
12 16.246288592278 4.726997226757 13.9499999 18.196029784325 4.726997426757 13.9500001 0 2 11 -5 
13 5.639999899999999 2.815867943461882 21.46919798556755 52.15200010000005 5.656862097937 23.617825037916 0 2 4 -12 
14 52.1519999 2.815867943461349 15.766472894467 52.1520001 7.128805255840001 21.46919818556826 0 2 6 -12 
15 5.639999899999928 -1.00001630642943e-07 19.33957371047352 7.685863638057637 1.439356643200768 20.42815071436148 0 2 13 -3 
16 52.1519999 -4.312937212379183 16.07772499110742 70.24000010000213 2.815868143461 21.469198185568 0 2 12 -14 
17 52.15199990000094 -11.44174236821796 10.68625199664035 70.24000009999999 -4.312937012379 16.0777251911 0 2 14 -15 
18 12.71204897477575 -13.85076933207647 8.864319213410571 52.1520001 -11.44174216821 10.686252196633 0 2 15 -16 
19 12.712048974778 -13.85076933208448 8.86431921341304 17.39700944203898 -7.126293884464456 13.9500001000006 0 2 17 -16 
20 15.346085200395 -7.126294084464 13.9499999 17.397009442039 -7.126293884463999 13.9500001 0 2 17 -18 
21 7.685863438057637 -7.126294084466207 13.94999990000204 15.3460854003943 9.999836914076354e-08 19.33957391047353 0 2 18 -13 
22 -16.9200001 -16.9200001 13.9499999 16.24628879227778 16.9200001 13.9500001 0 2 5 -18 
23 1.4999999 -1e-07 19.33957371047198 7.685863638057994 1e-07 22.9500001 0 2 13 -19 
24 -1.5000001 -1.5000001 22.9499999 1.5000001 1.5000001 22.9500001 0 2 19 -19 
25 -18.8000001 -18.8000001 13.9499999 18.19602978432489 18.8000001 13.9500001 0 2 11 -17 
26 18.7999999 -1.00000004604672e-07 -13.9500001 18.8000001 9.999999539532803e-08 10.3750001 0 2 20 -10 
27 -18.8000001 -18.8000001 -13.9500001 18.8000001 18.8000001 -13.9499999 0 2 20 -20 
28 12.71204897477979 -13.85076933208027 3.328678137893586 16.32896931340366 -9.316907349775441 8.86431941341324 0 2 9 -16 
29 52.1519999 -11.44174236821489 4.983526905533 52.1520001 -7.12880505584 10.6862521966293 0 2 8 -15 
30 70.2399999 -4.31293721237817 10.3749999 70.24000009999999 9.999999983634211e-08 16.07772519110063 0 2 7 -14 
1 5.639999899999999 1.439356443202088 17.44994883304734 5.6400001 9.969799210316548 23.61782503791615 0 4 -1 2 3 -4 
2 5.639999899999999 -9.316907549779899 3.328678137890469 70.24000010000189 9.969799210316548 17.915099946816 0 9 5 1 6 7 8 9 -10 -11 12 
3 5.639999899999999 2.815867943461349 15.766472894467 52.15200010000005 9.969799210314999 23.61782503791615 0 4 4 13 -14 -6 
4 5.639999899999928 -13.85076933208448 8.864319213410571 70.24000010000213 5.656862097939642 23.617825037916 0 9 15 3 13 16 17 18 -19 20 21 
5 -16.9200001 -16.9200001 13.9499999 16.9200001 16.9200001 22.9500001 0 8 -5 22 21 23 -24 -23 15 -2 
6 -18.8000001 -18.8000001 13.9499999 18.196029784325 18.8000001 13.9500001 0 4 -12 25 20 -22 
7 -18.8000001 -18.8000001 -13.9500001 18.8000001 18.8000001 13.95000010000222 0 8 -25 11 -26 27 26 10 28 -19 
8 12.71204897477575 -13.85076933208027 3.328678137890468 52.1520001 -7.12880505584 10.686252196633 0 4 -9 29 18 -28 
9 52.1519998999981 -11.44174236821796 4.983526905533 70.24000009999999 1.000000002804313e-07 16.07772519110063 0 4 30 17 -29 -8 
10 52.1519999 -4.312937212379183 10.3749999 70.24000010000213 7.128805255840001 21.46919818556826 0 4 14 16 -30 -7 
11 -1.5000001 -1.5000001 22.9499999 1.5000001 1.5000001 22.9500001 0 1 24 
12 -18.8000001 -18.8000001 -13.9500001 18.8000001 18.8000001 -13.9499999 0 1 27 
1 -18.80000010000001 -18.8000001 -13.9500001 70.24000010000213 18.8000001 23.61782503791615 0 12 1 2 3 -4 5 6 7 8 9 10 11 -12 
$EndEntities
$Nodes
63 444 1 444
0 1 0 1
1
5.64 9.354759354815 17.449948933049
0 2 0 1
2
5.64 9.969799110315 17.915099846816
0 3 0 1
3
5.64 1.439356543202 20.42815061436
0 4 0 1
4
5.64 5.656861997937 23.617824937916
0 5 0 1
5
16.246288692278 4.726997326757 13.95
0 6 0 1
6
52.152 7.12880515584 15.766472994467
0 7 0 1
7
70.23999999999999 0 10.375
0 8 0 1
8
52.152 -7.12880515584 4.983527005533
0 9 0 1
9
16.328969213402 -9.316907449779 3.32867823789
0 10 0 1
10
18.8 -4.604671964794e-15 10.375
0 11 0 1
11
18.196029684325 4.726997326757 13.95
0 12 0 1
12
52.152 2.815868043461 21.469198085568
0 13 0 1
13
7.685863538058 0 19.339573810472
0 14 0 1
14
70.23999999999999 -4.312937112379 16.0777250911
0 15 0 1
15
52.152 -11.44174226821 10.686252096633
0 16 0 1
16
12.712049074776 -13.85076923208 8.86431931341
0 17 0 1
17
17.397009342039 -7.126293984464 13.95
0 18 0 1
18
15.346085300395 -7.126293984464 13.95
0 19 0 1
19
1.5 0 22.95
0 20 0 1
20
18.8 -4.604671964794e-15 -13.95
1 1 0 0
1 2 0 1
21
5.64 4.995348231405445 19.42813466359968
1 3 0 1
22
5.64 3.363770741668608 21.88357364169011
1 4 0 0
1 5 0 1
23
11.31973844624699 7.363324825223664 15.94383882738696
1 6 0 5
24
25
26
27
28
13.39199999999999 9.49630011790248 17.55699537142459
21.144 9.022801125489961 17.19889089603318
28.89599999999997 8.549302133077445 16.84078642064178
36.64799999999994 8.075803140664927 16.48268194525037
44.39999999999998 7.602304148252405 16.12457746985896
1 7 0 2
29
30
58.18133333333395 4.752536770559978 13.96931532964684
64.21066666666792 2.376268385279945 12.17215766482667
1 8 0 2
31
32
64.21066666666604 -2.376268385280023 8.577842335179836
58.18133333333207 -4.752536770560055 6.780684670359667
1 9 0 4
33
34
35
36
44.98040775338556 -7.566852331119331 4.652234528856665
37.80881550677114 -8.004899506398662 4.320942052180332
30.63722326015671 -8.442946681677991 3.989649575503998
23.46563101354229 -8.880993856957321 3.658357098827664
1 10 0 1
37
18.18636708978894 -4.764037371331609 6.771986834305376
1 11 0 0
1 12 0 0
1 13 0 5
38
39
40
41
42
13.392 5.183363005524481 23.25972046252459
21.14400000000001 4.709864013111961 22.90161598713319
28.89599999999998 4.236365020699443 22.54351151174178
36.64799999999995 3.762866028286926 22.18540703635038
44.4 3.289367035874404 21.82730256095897
1 14 0 0
1 15 0 1
43
6.63564661162332 0.7756235131831453 19.92617326631405
1 16 0 2
44
45
58.18133333333403 0.439599658180946 19.67204042074781
64.21066666666809 -1.936668727099119 17.87488275592762
1 17 0 2
46
47
64.21066666666698 -6.689205497658655 14.28056742628011
58.18133333333397 -9.06547388293831 12.48340976146023
1 18 0 5
48
49
50
51
52
45.57291926509069 -11.84359831813004 10.38233075309167
38.99383853018138 -12.24545436805009 10.07840940955033
32.41475779527208 -12.64731041797013 9.774488066009003
25.83567706036279 -13.04916646789017 9.47056672246767
19.2565963254535 -13.45102251781021 9.166645378926338
1 19 0 1
53
15.47478519095297 -10.67572120720075 11.26558927493965
1 20 0 0
1 21 0 1
54
11.51942562256595 -3.320435552045792 16.82834812575316
1 22 0 14
55
56
57
58
59
60
61
62
63
64
65
66
67
68
13.42700760467308 10.29572079963571 13.95
8.780524277023964 14.46336037788566 13.95
2.93915120922466 16.66276658209294 13.95
-3.30219360443524 16.59463519932954 13.95
-9.094162374770018 14.26823782747251 13.95
-13.64856024682631 10.0001601581551 13.95
-16.34560608701939 4.371219697978436 13.95
-16.81827484063878 -1.852574258899364 13.95
-15.00224380594477 -7.824262315834758 13.95
-11.14464593111772 -12.73119268057872 13.95
-5.770438949526393 -15.90561015270363 13.95
0.3890330207392979 -16.91552698879862 13.95
6.495563782667645 -15.62350956556485 13.95
11.71815159591464 -12.20538091069521 13.95
1 23 0 2
69
70
4.911559069853544 0 20.95881766350961
2.936654501975045 0 22.11148569923635
1 24 0 6
71
72
73
74
75
76
0.9352347027881014 1.172747223702044 22.95
-0.3337814009344706 1.462391868272736 22.95
-1.351453301853628 0.6508256086763385 22.95
-1.351453301853629 -0.6508256086763364 22.95
-0.3337814009344732 -1.462391868272735 22.95
0.9352347027880991 -1.172747223702046 22.95
1 25 0 14
77
78
79
80
81
82
83
84
85
86
87
88
89
90
15.18892452282297 11.07865388212787 13.95
10.05946873531352 15.88228852411547 13.95
3.524401922769633 18.46668868765534 13.95
-3.503130081490286 18.47073576315134 13.95
-10.04116921150061 15.89386425215757 13.95
-15.17615431159235 11.09614078455826 13.95
-18.19057316914352 4.747951956163392 13.95
-18.66322060008995 -2.263668887531541 13.95
-16.52805351037036 -8.958986949333843 13.95
-12.08341910703601 -14.40246446562938 13.95
-5.950366799748439 -17.83348353374773 13.95
1.014131123286628 -18.77262736179413 13.95
7.836924357413223 -17.08866924649732 13.95
13.56466301470408 -13.01690889948606 13.95
1 26 0 3
91
92
93
18.8 -4.604671964794e-15 -7.868749999999983
18.8 -4.604671964794e-15 -1.787499999999966
18.8 -4.604671964794e-15 4.293750000000031
1 27 0 15
94
95
96
97
98
99
100
101
102
103
104
105
106
107
108
17.36893521121219 7.194448528463696 -13.95
13.29360748630708 13.29360748630711 -13.95
7.194448528463658 17.3689352112122 -13.95
-4.894209487988856e-14 18.8 -13.95
-7.194448528463741 17.36893521121217 -13.95
-13.29360748630712 13.29360748630707 -13.95
-17.3689352112122 7.194448528463659 -13.95
-18.8 -2.274429545314651e-14 -13.95
-17.36893521121218 -7.194448528463724 -13.95
-13.29360748630706 -13.29360748630713 -13.95
-7.194448528463653 -17.36893521121221 -13.95
2.994200460712918e-14 -18.8 -13.95
7.194448528463723 -17.36893521121218 -13.95
13.2936074863071 -13.29360748630708 -13.95
17.36893521121219 -7.194448528463684 -13.95
1 28 0 1
109
14.76054456614703 -11.64329524278867 6.205589431589974
1 29 0 0
1 30 0 0
2 1 0 1
110
5.64 6.668107887229299 20.05891640461272
2 2 0 16
111
112
113
114
115
116
117
118
119
120
121
122
123
124
125
126
34.08665588768197 -2.840890935127561 8.226451060572582
48.19909292643549 -2.588112357466716 8.417625997360076
22.837399684259 2.340498022156556 12.1451047516668
23.43360576105756 -2.49760985660805 8.486072501177263
40.00986958528667 2.484530622471345 12.25403575173542
17.04294171160586 6.868635040543157 15.56970788167035
28.289345474795 0.1253583822514459 10.46980779987162
52.66960857651394 1.707101164534479 11.66607047060614
58.49924267517142 -0.1308935652795486 10.27600597408305
41.38973310568212 -2.883604646753723 8.19414693418792
46.31023499771291 2.266427225128949 12.0890854478532
32.46813094176935 3.505746289225719 13.02637509451038
53.64555635304841 -2.514897682390223 8.472997821227388
22.49921429717372 6.024768006673509 14.93149625650038
26.9980180795994 4.109134566677072 13.48271406463802
28.59158812992899 -4.479378620651578 6.987272556579981
2 3 0 6
127
128
129
130
131
132
40.52399999999993 5.68258508826935 19.15499225310444
17.26799999999999 7.1030820655071 20.22930567927879
9.515999999999977 7.576581057919672 20.58741015467026
32.77199999999993 6.156084080681934 19.5130967284959
25.01999999999997 6.629583073094516 19.87120120388735
48.27599999999997 5.209086095856771 18.79688777771298
2 4 0 25
133
134
135
136
137
138
139
140
141
142
143
144
145
146
147
148
149
150
151
152
153
154
155
156
157
28.27838918334454 -8.569343120890236 12.85863050979089
48.58255459140404 -7.014634947416706 14.03444706646757
7.015713919883407 2.091021788564186 20.92100116855365
39.58596583798924 -1.62544052850872 18.11026279382952
16.78092731639462 -2.845098434923975 17.18784276394017
25.12437851365267 -0.7384521641536086 18.7810868251062
22.92031277798506 -9.483943918945718 12.16692335892368
32.52034321832903 -0.8539621239485489 18.69372732863909
9.731384878254111 1.182134324352349 20.23361497813535
34.98590549108943 -6.718247256380245 14.25860331666418
13.97169343479268 0.1504395672382586 19.45335036156683
52.5864883136594 -2.53689516627971 17.42093506529737
8.283819759627502 3.495430371609037 21.98314703776433
18.54276827025392 0.5458205255718944 19.75237463180316
58.51894053308653 -4.414049830977511 16.00125414263055
42.34612668284426 -6.830312532115685 14.17384901428995
24.57162520387567 -5.50850602503187 15.17352342410521
46.44787941447601 -1.698193253900923 18.05524033976447
18.85206910648872 -9.638681873509986 12.04989596302567
21.07012978745919 -6.75098300075134 14.23384546764569
20.84766840019211 -3.459653437322602 16.72305846606493
53.81112356182471 -6.747431673984093 14.23653131498498
29.12378611693564 -4.433536130653171 15.98651676993391
16.37154732121699 -5.323402325924716 15.31351625222936
18.86531789946446 -5.367090714575551 15.2804749834005
2 5 0 81
158
159
160
161
162
163
164
165
166
167
168
169
170
171
172
173
174
175
176
177
178
179
180
181
182
183
184
185
186
187
188
189
190
191
192
193
194
195
196
197
198
199
200
201
202
203
204
205
206
207
208
209
210
211
212
213
214
215
216
217
218
219
220
221
222
223
224
225
226
227
228
229
230
231
232
233
234
235
236
237
238
3.832521765074711 -1.70078036613052 21.37823601233445
2.079080579864517 7.546211052627614 19.25697666696974
-8.81352122574045 -8.518706678629911 16.67129841596902
0.2138641499129803 -2.56283069484934 22.32447167754801
-1.471820527705236 -1.845604565900154 22.44769444961094
-2.614807710417876 -0.8123137161852009 22.22738618927467
-3.123601423771734 -2.106125570541455 21.62666529048386
-12.29910226018001 1.341642707637474 16.60443844050685
0.5275275697264101 2.45117628646269 22.3620820339844
-0.8655775435831559 2.575059092316218 22.23989658505063
3.204586321642113 -12.267275939079 16.42532885221329
2.403856852763703 -2.092891317870706 21.96520915208261
-0.624608460635304 -2.763930445371553 22.17161794068942
-1.910463171576404 -3.859868534742528 21.31179473519727
1.421479594754487 -3.351919001237635 21.70046250602267
1.808490588512883 2.073960492070062 22.21942546364648
-3.79354939525373 -3.851627340495038 20.67016791914712
-4.804826407754325 -2.061177985676558 20.77396668580896
-4.415465661742499 0.4392356561298305 21.23564665993692
-2.485309645038252 -5.789931302267735 20.14797721520031
-9.077341117624609 8.198355680187579 16.6864412513752
7.366035214781046 -5.156385642439973 18.57753841894592
2.938491963883525 -3.312663081685125 21.24096571779867
1.68861772357478 -5.08716515665614 20.69702295770572
9.719214067810665 -8.158471085679139 16.41915509203583
-6.265433966611694 -0.1100722848737421 20.16805402121089
-5.905151280672253 2.236084986237911 20.14007401880273
-4.056146982267538 2.34632918199293 21.09052964120512
1.324593223570043 3.44242030961921 21.67268336555554
3.096225962775241 2.600743898270388 21.4654242158155
-5.891153567722466 -3.823796512767624 19.72626878735887
1.826073641005155 11.26598452871161 17.16419253259703
-1.311604525402175 9.486456313465506 18.23597346570316
-2.032668104648572 12.96250638833025 16.16736698670091
-4.616012163045704 4.28291007814578 20.1502558186932
-7.116713280682371 3.930054380348395 19.08049250891995
-2.220379544071514 4.646334439404087 20.81987596469379
-8.506116130360621 -1.881412746701695 18.74083628589075
5.711851033207741 -1.957152598411889 20.30144671468293
-0.1210979720692125 -3.858938048567524 21.57207917583601
-0.3157703733702847 -5.757229840241172 20.46018504008565
1.433487332663951 -7.29777072781222 19.48469248782501
2.946504283098959 4.403203996079664 20.73319748587501
3.868027211042966 1.325168041679952 21.43906867642675
3.973692315882906 -5.085943339002251 20.05842763556915
5.526100194240961 -7.295581972580132 18.4837183547226
0.364220943755142 5.222512093746558 20.7699238275932
-0.6567913461821092 7.227358559083994 19.58980132984601
-2.825230625543214 6.770862482881931 19.54339201298052
6.781719119466544 -10.75151889618153 16.40621642110473
-11.87860997008451 -4.387178289593179 16.43469628065613
-12.19799737765577 5.318060284818251 16.05882819487172
-2.835391119761199 0.8350579997435453 22.10031019554212
-1.06843985350666 -7.37244116106189 19.47755260352434
-3.767307295534148 -7.843230897523753 18.74703226907709
-0.3471226117351143 -10.24685431137134 17.84140144477947
-5.54151704344675 -10.67612499869327 16.80488238870505
-1.936727328188713 -13.66157623407674 15.77207801968153
4.206998836118429 3.188753825703869 20.74440501191688
-5.334775410676031 6.335042094362048 18.99159678428327
-8.799826140786383 1.540060209916903 18.61133874823025
-0.5377282441957784 3.697146166651935 21.64491465100809
-5.134138325466547 9.277378865838658 17.63681289000556
-6.775329142569714 12.30080331399401 15.62899588997722
8.960648803871486 10.84788334398579 15.6133224925801
-8.037866336715753 -5.103069121052751 18.26850797052564
-3.74512328949805 -1.00736597366064 21.56192299461053
1.903570212184394 0.9031084355154541 22.59575649330652
5.351698422020605 12.99775791499308 15.6213617461048
-4.627683985260524 -5.31013436110889 19.71440741532565
-1.783912116852681 1.652122525219004 22.40636388115101
2.486722479340423 -1.020673145508812 22.25659107950815
-9.58139862745697 4.831686286025094 17.56241913730441
-6.359911343736324 -6.794792089720752 18.39346602353716
2.759994413923243 1.354324115847304 22.03110585733744
-2.048257520509317 -0.09200839912862208 22.62879980380892
3.12756542326257 -9.180966303390541 18.16455513073087
-2.174068862914833 2.790661477565376 21.76075966378824
4.536900431588051 -3.238929266298004 20.57193542363361
5.950269616197748 -4.245510832760477 19.55919012254139
7.342165551361319 -2.303118976531399 19.33428952310615
2 6 0 0
2 7 0 65
239
240
241
242
243
244
245
246
247
248
249
250
251
252
253
254
255
256
257
258
259
260
261
262
263
264
265
266
267
268
269
270
271
272
273
274
275
276
277
278
279
280
281
282
283
284
285
286
287
288
289
290
291
292
293
294
295
296
297
298
299
300
301
302
303
12.11108249720732 -14.37921001814212 4.927606308334326
-3.43230128206676 -18.48402845456376 7.881350532316109
-14.43361751925194 -12.04618965930487 7.869271402085293
-18.76173405436505 1.198889183068628 7.928060856252085
-12.83681770202066 13.73521427881957 7.887923133261534
12.85064461312365 13.72227871117607 7.873000964550521
0.007076595873387432 18.79999866813269 7.886623316672932
3.981031452517354 -18.37366018446155 -7.706695486681498
-10.1908500650302 -15.79830924346255 -7.592147535882638
-18.43876327158073 -3.667698053903246 -7.607639629455202
-15.58099846518657 10.5200991833658 -7.635702977880218
-3.662744802568923 18.43974784294119 -7.624105997343599
10.4447203807685 15.63162871128787 -7.60763962945519
18.06233507521609 -5.214599853355814 -4.828124999999975
18.00157607425168 5.420632697658948 8.036374493158519
18.00149108770737 5.420914924548464 -4.665382171837152
9.155270216400838 -16.42014090270494 7.472826618585426
8.309605430079495 -16.86388026512266 2.882734769634919
11.41850295178308 -14.93511936142866 -0.2957787981655642
18.15585795384461 -4.879018544729807 1.707874507522279
-3.363189567088464 -18.49672824949935 -7.780431152086568
-6.922539464456923 -17.47908599907434 -1.575999727098786
-12.99039431432266 -13.5900572316092 -1.168626482139658
3.708682911907742 -18.4305635035645 6.749269286144131
3.32245142979925 -18.50408918311369 0.8166318208269487
10.44472038076854 -15.63162871128784 -7.607639629455223
15.39478207719625 -10.79076849884368 -7.841593091587224
17.94927040259986 5.591394460628996 1.564003523931154
15.62510795135926 10.45447279915967 -2.388129690105172
-15.51648057019275 -10.61502853104178 -7.56653991194305
-17.47560722021442 -6.931316778563055 -1.132802740425461
-18.79904490377594 0.1895012026761676 -1.478275974073755
-18.41098889975693 3.804666573173932 -7.685439926315554
16.68088435200497 -8.671107036303715 -1.397517344811369
3.69393624290601 18.43352475880143 -7.622520863563227
7.194992056529822 17.36871006455208 -1.333219996829373
0.06334747939383195 18.79989327354957 -1.389778639778877
-7.105404774018321 17.40555149937392 -1.383469168188608
-10.39858371439382 15.66235795577229 -7.630633612253662
-13.29146678463999 13.29574784330735 -1.352207693995199
-17.16229108563425 7.674357607771429 -1.461013038699079
-9.156284874471485 -16.4195751253656 7.8587236245572
-16.99417251475231 8.03978236887275 7.941567682742789
6.993991080266004 17.45061857841032 7.64414308381847
-17.83648187659875 -5.94137309599089 7.91776049443261
-6.895834941707149 17.48963865998182 7.924872496651293
15.49559440619941 10.6454945398775 -8.407919003118195
6.681496726351259 -17.57263786389959 -2.604244698180663
14.19444349032983 -12.3271153965489 2.52923188615754
14.40269307487325 -12.08314661795503 -3.277684073441574
-3.538874302176942 -18.46392072863702 2.184130917895775
15.8943674568062 10.04037265981797 3.776023397446576
11.974683825957 14.49299649031779 0.9834742681643505
0.04848981600955096 -18.79993746632534 -3.539300565380968
-3.50313008149029 18.47073576315134 3.275794498862442
2.087805344776192 18.68371132410057 3.280949625918495
-10.06143408327257 15.88104354845616 3.363987921342943
-14.9958575240879 11.33861795446237 3.4085776278129
18.10292482523817 -5.071894396749168 -9.483642292113725
-18.41483195211571 -3.786022210095759 2.867919890328626
-18.42911351043867 3.715881486184259 2.83470643291038
-15.58325967316698 -10.51674940077245 2.591699249077458
18.23592485977016 4.570672216295637 -9.783230199729246
-10.49113030292768 -15.60051874031734 2.541523416801663
16.07735900836346 9.744666608776019 9.028875288830676
2 8 0 2
304
305
19.92948363578181 -11.26827710704818 6.36596737393811
48.86245963254585 -9.486201736987734 7.682928879310579
2 9 0 3
306
307
308
61.19600000000189 -5.720871134112914 10.5306260483173
66.91143634596753 -3.468315180385332 12.2342207360031
55.48056365403602 -7.973427087840713 8.827031360631615
2 10 0 3
309
310
311
66.91143634596452 -0.8446219320007131 14.21850435509817
55.48056365403139 3.660489975455479 17.62569373046992
61.19599999999824 1.407934021727108 15.92209904278417
2 11 0 1
312
-6.344131569286608e-17 6.344131569286608e-17 22.95
2 12 0 25
313
314
315
316
317
318
319
320
321
322
323
324
325
326
327
328
329
330
331
332
333
334
335
336
337
11.85389241373698 -2.357885802680188 -13.95
-11.92163525846864 2.685932752989182 -13.95
-2.46180730599398 -12.57643953399906 -13.95
1.244373982616205 11.21995739110893 -13.95
7.306548540491269 -10.97512820231875 -13.95
-6.578136028965108 10.74747425386539 -13.95
-10.28081638396174 -7.107456217057707 -13.95
10.04924474954782 6.714690668870539 -13.95
-13.98261947623212 -2.781315942186268 -13.95
-6.118078220667948 -1.241234979430291 -13.95
-3.881155758629348 -7.463651763715939 -13.95
1.376662895082656 -3.136019263055194 -13.95
0.7774545237431663 3.77358650094096 -13.95
6.92235013319243 1.308485145347014 -13.95
-5.047613348501569 5.015165963304083 -13.95
2.759063075705671 -13.75580516161824 -13.95
13.98261947623212 2.781315942186247 -13.95
-3.132052643703173 14.53409171404662 -13.95
7.488774441345678 11.35525058194512 -13.95
11.85389241373698 -7.920517687052682 -13.95
-7.920517687052654 -11.85389241373699 -13.95
-10.84198546669093 7.787325796985876 -13.95
7.004406989647423 -4.680195121775033 -13.95
5.29643956608906 6.874394057642514 -13.95
2.017286406050615 -8.764539841080369 -13.95
3 1 0 107
338
339
340
341
342
343
344
345
346
347
348
349
350
351
352
353
354
355
356
357
358
359
360
361
362
363
364
365
366
367
368
369
370
371
372
373
374
375
376
377
378
379
380
381
382
383
384
385
386
387
388
389
390
391
392
393
394
395
396
397
398
399
400
401
402
403
404
405
406
407
408
409
410
411
412
413
414
415
416
417
418
419
420
421
422
423
424
425
426
427
428
429
430
431
432
433
434
435
436
437
438
439
440
441
442
443
444
2.114355738662057 -0.04047520287456145 12.38463357599029
0.2078183119910639 -0.1883292884837222 17.33093468679346
4.990931374152553 -2.806410772051191 -0.2424171913781346
-6.165939369722841 7.58881452501978 0.8634425575861117
-0.4545711414731148 0.7675398960497121 21.35921257650028
-6.673594024458618 -7.143781280351848 1.042680300198991
6.037655757270922 9.304475265419995 10.1899040579707
3.568072049548876 -11.50951842996284 9.50798197333453
-3.767586210235846 -4.799620882582179 16.35322708169914
-5.634734759702246 1.928940610715605 16.16734914133685
10.00610919937892 -1.386199720142639 7.989181650383311
4.662365094337352 -1.911739694981905 17.62372917349813
-9.970192703509703 7.462511100811513 7.916923417958062
-0.1859099290303135 6.292141973881906 15.12959566912019
-8.980667519612515 -4.228640277628037 10.38041600182219
6.518410780180549 7.525532640741297 -6.144513626966091
1.426433191526676 -10.99484248038511 -7.037897494930638
-11.28120271054006 -1.631100973607275 -6.847721746847479
2.244848742014533 -0.8756970109733271 20.25998298511762
-5.9758642738163 -10.08293708232249 9.68106296548059
11.13526537870674 5.674489347444775 2.372452490029987
3.813022534814092 1.832699500603389 18.44459119944146
-2.390969525548783 11.69370588889483 9.326844988040301
0.4958869427021584 -3.785522140053455 18.86293871591062
12.19797663934574 1.311186858480335 -6.996307425363981
-0.8689153773664559 -0.2315888421916754 -6.987186601167173
1.796761370043649 1.678344899110694 20.48518754864018
9.234703653827689 -6.70925416180663 -7.04307224733779
1.587064996846415 3.626139212650962 4.43740215835166
9.205611861041241 -9.570386201044753 2.314866299246248
-9.354039765663609 7.424789367447169 -7.153039275399087
1.522132025183906 -7.014943168387362 14.91355019758559
-3.090613804555803 -0.4615612221437809 19.28484965742859
-7.081556178337809 -9.26631972847218 -7.32826741621446
11.07571235147747 -8.404741267743347 8.410507116649404
-0.8226084046612625 3.596005173656914 18.79572017218238
-12.49065545928156 -0.4469773787664961 2.852448262978081
13.39943452105267 -2.220155050816638 0.799782901298199
3.038586507294956 12.51905450920465 3.262911385801906
7.764259673139653 1.787277302957376 15.67129213325466
-4.681318679345005 1.744509484750354 8.671452292157442
-0.1565776235977718 -1.42415024028691 21.13067625489098
-1.362144972678224 11.5475530579156 -5.742015965936317
-0.5770241441657945 -12.93608674367228 2.642917321132287
-7.072656361348588 6.515031143794641 13.34669632719253
1.245104939503722 -5.044206758493539 7.710172016599719
11.69004709946306 5.793357691449045 9.147812065742544
7.089103085830832 -4.573091716791876 13.92987701353402
-12.66220574006793 1.657494745648246 9.736668030766468
8.741461459159995 6.145000830708781 18.72010229559048
8.378362513676382 -12.87992639549456 -10.58472979018097
31.37452546206577 3.7246776826157 17.76996849859317
37.67780809590494 2.934208286489494 17.77608441319982
-4.470169217829468 14.40076258470929 -10.13364515734135
49.66136326625828 -7.065509837695031 9.500935866283095
-4.722633302435357 -14.5349791127333 -10.67517343529473
-13.73900875425673 7.566528495753962 -10.84671748592477
-13.37694899953053 -7.173852921656579 -10.53255847269373
60.84695746336886 -1.801587653075928 13.46047860068694
64.46861850082819 -2.136825968089603 13.23058297689093
24.41951847759005 3.961554028741579 18.18916036250345
14.68083252170441 4.731043531116756 19.29371568204427
18.5487396827806 -8.541061529576664 7.256251945854403
12.44527140474305 8.108577398745709 -10.69156555537295
14.95996508895304 2.263703409611155 11.05924869432043
14.72393761323096 -3.079523582485785 -11.26693226710466
48.87798008569778 2.519604520714356 16.72632731269812
24.89587519255664 -8.21566475208539 8.161064091025603
37.49412579514344 -7.540653354284024 9.474129765417707
31.65408053436255 -7.648230927604985 9.072918186955073
4.245734295078377 -15.94008596711183 10.31973690939711
-6.062198428754848 15.16235646117693 10.83094961899257
11.35360532887107 11.27349438662502 10.94568141102051
-15.09259726006568 6.655286016536972 10.66821568239688
-12.78919674069479 -9.905015421412614 11.02474151800501
10.04837091424749 -12.99790599480451 10.52781975703261
1.515356618527879 -15.60788853834172 -10.55592034679426
-15.00205631772498 1.71938997991175 -10.53172860486461
1.070026275292187 15.26154547033182 -10.36141288558482
-10.14145129820901 -12.10786300826644 -10.58156417688552
13.47842387261429 -8.544577815950134 -10.8282986476375
18.60795812927226 5.494619789179196 18.15422199412079
55.63344758144995 0.237716814445841 15.21903565821458
42.62168904625913 3.257677175354706 16.59081538238248
55.56040086510592 -5.505332690272717 10.17342787435956
7.16115745598319 2.951668984612505 19.40012382506839
6.025603323945943 13.3033305015101 -9.146576468907188
14.13425654739682 -9.247398910817141 11.54834639838258
-10.2113285948433 11.73785510635639 -10.73019404216982
15.82096459583025 1.746343460713323 -11.01904219017735
-1.07422041385471 16.63508539940838 10.59130527451636
-16.69149550485573 1.285591260749861 10.7936960202833
-10.90617454038831 11.89634386022481 10.43549288941251
-2.297272296882304 -15.51411235016137 9.768791719316255
-15.57926815175805 -3.714339917987683 10.47704556738792
-8.710300785709492 -14.15049058239321 10.66270522300251
14.98362666035419 7.122458986525564 10.75486991790378
-15.73708684276174 -3.05932648965806 -10.85830185671264
58.64004726093404 -4.597852435406769 12.87577705495179
43.48189633964279 -7.299419358749011 9.343105320634175
3.003772412963316 14.72953476078371 9.645256004453866
7.538369348055575 6.397959718726166 20.56918781412402
59.74600180012147 -3.324421279312097 10.17732371351621
16.92753917335513 -11.16448494281075 8.653261316304391
8.495701471086301 4.857388754170712 20.8559000490438
6.810673082911471 14.96708576631827 10.89825928690746
20.93349721541324 -10.6806667492263 9.060137715064041
$EndNodes
$Elements
63 2269 1 2269
0 1 15 1
1 1 
0 2 15 1
2 2 
0 3 15 1
3 3 
0 4 15 1
4 4 
0 5 15 1
5 5 
0 6 15 1
6 6 
0 7 15 1
7 7 
0 8 15 1
8 8 
0 9 15 1
9 9 
0 10 15 1
10 10 
0 11 15 1
11 11 
0 12 15 1
12 12 
0 13 15 1
13 13 
0 14 15 1
14 14 
0 15 15 1
15 15 
0 16 15 1
16 16 
0 17 15 1
17 17 
0 18 15 1
18 18 
0 19 15 1
19 19 
0 20 15 1
20 20 
1 1 1 1
21 1 2 
1 2 1 2
22 1 21 
23 21 3 
1 3 1 2
24 3 22 
25 22 4 
1 4 1 1
26 2 4 
1 5 1 2
27 5 23 
28 23 1 
1 6 1 6
29 2 24 
30 24 25 
31 25 26 
32 26 27 
33 27 28 
34 28 6 
1 7 1 3
35 6 29 
36 29 30 
37 30 7 
1 8 1 3
38 7 31 
39 31 32 
40 32 8 
1 9 1 5
41 8 33 
42 33 34 
43 34 35 
44 35 36 
45 36 9 
1 10 1 2
46 10 37 
47 37 9 
1 11 1 1
48 11 10 
1 12 1 1
49 11 5 
1 13 1 6
50 4 38 
51 38 39 
52 39 40 
53 40 41 
54 41 42 
55 42 12 
1 14 1 1
56 6 12 
1 15 1 2
57 13 43 
58 43 3 
1 16 1 3
59 12 44 
60 44 45 
61 45 14 
1 17 1 3
62 14 46 
63 46 47 
64 47 15 
1 18 1 6
65 15 48 
66 48 49 
67 49 50 
68 50 51 
69 51 52 
70 52 16 
1 19 1 2
71 17 53 
72 53 16 
1 20 1 1
73 17 18 
1 21 1 2
74 18 54 
75 54 13 
1 22 1 15
76 5 55 
77 55 56 
78 56 57 
79 57 58 
80 58 59 
81 59 60 
82 60 61 
83 61 62 
84 62 63 
85 63 64 
86 64 65 
87 65 66 
88 66 67 
89 67 68 
90 68 18 
1 23 1 3
91 13 69 
92 69 70 
93 70 19 
1 24 1 7
94 19 71 
95 71 72 
96 72 73 
97 73 74 
98 74 75 
99 75 76 
100 76 19 
1 25 1 15
101 11 77 
102 77 78 
103 78 79 
104 79 80 
105 80 81 
106 81 82 
107 82 83 
108 83 84 
109 84 85 
110 85 86 
111 86 87 
112 87 88 
113 88 89 
114 89 90 
115 90 17 
1 26 1 4
116 20 91 
117 91 92 
118 92 93 
119 93 10 
1 27 1 16
120 20 94 
121 94 95 
122 95 96 
123 96 97 
124 97 98 
125 98 99 
126 99 100 
127 100 101 
128 101 102 
129 102 103 
130 103 104 
131 104 105 
132 105 106 
133 106 107 
134 107 108 
135 108 20 
1 28 1 2
136 9 109 
137 109 16 
1 29 1 1
138 8 15 
1 30 1 1
139 7 14 
2 1 2 6
140 1 110 2 
141 21 110 1 
142 2 110 4 
143 21 3 22 
144 4 110 22 
145 22 110 21 
2 2 2 54
146 23 1 2 
147 2 24 23 
148 5 116 11 
149 23 116 5 
150 6 121 28 
151 29 118 6 
152 118 121 6 
153 30 7 31 
154 8 123 32 
155 33 112 8 
156 112 123 8 
157 37 36 9 
158 11 113 10 
159 10 114 37 
160 113 114 10 
161 11 124 113 
162 116 124 11 
163 24 116 23 
164 25 116 24 
165 26 124 25 
166 25 124 116 
167 27 122 26 
168 122 125 26 
169 26 125 124 
170 28 115 27 
171 115 122 27 
172 28 121 115 
173 30 119 29 
174 29 119 118 
175 31 119 30 
176 32 119 31 
177 32 123 119 
178 34 120 33 
179 33 120 112 
180 35 111 34 
181 111 120 34 
182 36 126 35 
183 35 126 111 
184 37 114 36 
185 114 126 36 
186 115 120 111 
187 111 122 115 
188 117 122 111 
189 111 126 117 
190 112 121 118 
191 118 123 112 
192 120 121 112 
193 113 117 114 
194 113 125 117 
195 124 125 113 
196 117 126 114 
197 115 121 120 
198 117 125 122 
199 119 123 118 
2 3 2 24
200 4 129 2 
201 2 129 24 
202 38 129 4 
203 6 132 12 
204 28 132 6 
205 12 132 42 
206 24 128 25 
207 38 128 24 
208 24 129 38 
209 25 131 26 
210 25 128 39 
211 39 131 25 
212 26 130 27 
213 40 130 26 
214 26 131 40 
215 27 127 28 
216 41 127 27 
217 27 130 41 
218 28 127 42 
219 42 132 28 
220 39 128 38 
221 40 131 39 
222 41 130 40 
223 42 127 41 
2 4 2 75
224 22 3 135 
225 3 43 135 
226 4 22 145 
227 38 4 145 
228 44 12 144 
229 12 42 150 
230 144 12 150 
231 13 54 141 
232 43 13 141 
233 45 46 14 
234 15 47 154 
235 48 15 134 
236 134 15 154 
237 52 53 16 
238 18 17 156 
239 17 53 151 
240 17 151 152 
241 17 152 157 
242 156 17 157 
243 54 18 156 
244 45 44 147 
245 44 144 147 
246 46 45 147 
247 47 46 147 
248 47 147 154 
249 49 48 148 
250 48 134 148 
251 50 49 142 
252 142 49 148 
253 51 50 133 
254 133 50 142 
255 52 51 139 
256 51 133 139 
257 53 52 151 
258 52 139 151 
259 22 135 145 
260 54 137 143 
261 137 54 156 
262 141 54 143 
263 39 38 146 
264 38 141 143 
265 141 38 145 
266 38 143 146 
267 40 39 138 
268 138 39 146 
269 41 40 140 
270 40 138 140 
271 42 41 136 
272 136 41 140 
273 42 136 150 
274 135 43 141 
275 139 133 149 
276 133 142 155 
277 149 133 155 
278 134 144 150 
279 144 134 154 
280 148 134 150 
281 135 141 145 
282 136 140 142 
283 136 142 148 
284 136 148 150 
285 143 137 146 
286 146 137 153 
287 153 137 157 
288 137 156 157 
289 140 138 155 
290 138 146 153 
291 149 138 153 
292 138 149 155 
293 139 149 152 
294 151 139 152 
295 142 140 155 
296 147 144 154 
297 152 149 153 
298 152 153 157 
2 5 2 196
299 1 159 21 
300 23 222 1 
301 1 189 159 
302 1 226 189 
303 222 226 1 
304 21 216 3 
305 3 69 43 
306 3 201 69 
307 3 216 201 
308 55 23 5 
309 13 238 54 
310 43 69 13 
311 69 196 13 
312 196 238 13 
313 54 182 18 
314 18 182 68 
315 70 225 19 
316 19 229 70 
317 19 225 71 
318 76 229 19 
319 159 200 21 
320 200 216 21 
321 55 222 23 
322 179 182 54 
323 54 238 179 
324 56 222 55 
325 57 226 56 
326 56 226 222 
327 58 191 57 
328 57 191 189 
329 189 226 57 
330 59 221 58 
331 58 221 191 
332 60 221 59 
333 61 209 60 
334 60 209 178 
335 178 221 60 
336 62 165 61 
337 165 209 61 
338 63 208 62 
339 62 208 165 
340 64 160 63 
341 160 208 63 
342 65 214 64 
343 64 214 160 
344 66 215 65 
345 65 215 214 
346 67 168 66 
347 168 215 66 
348 68 207 67 
349 67 207 168 
350 182 207 68 
351 70 158 69 
352 69 201 70 
353 158 196 69 
354 70 229 158 
355 201 232 70 
356 70 232 225 
357 71 166 72 
358 71 173 166 
359 71 225 173 
360 72 228 73 
361 166 167 72 
362 167 228 72 
363 73 233 74 
364 73 228 210 
365 210 233 73 
366 74 162 75 
367 74 164 162 
368 163 164 74 
369 74 233 163 
370 75 161 76 
371 75 170 161 
372 162 170 75 
373 161 172 76 
374 76 172 169 
375 169 229 76 
376 169 180 158 
377 158 229 169 
378 180 236 158 
379 158 236 196 
380 189 190 159 
381 190 205 159 
382 159 204 200 
383 159 205 204 
384 160 223 208 
385 214 231 160 
386 160 231 223 
387 170 197 161 
388 161 197 172 
389 164 171 162 
390 162 171 170 
391 163 224 164 
392 210 224 163 
393 163 233 210 
394 164 174 171 
395 164 175 174 
396 164 224 175 
397 165 208 195 
398 195 218 165 
399 165 230 209 
400 218 230 165 
401 166 219 167 
402 173 186 166 
403 186 219 166 
404 219 235 167 
405 167 235 228 
406 207 234 168 
407 213 215 168 
408 168 234 213 
409 172 180 169 
410 171 197 170 
411 174 177 171 
412 177 198 171 
413 171 198 197 
414 172 181 180 
415 172 197 181 
416 173 187 186 
417 173 232 187 
418 225 232 173 
419 175 188 174 
420 174 227 177 
421 188 227 174 
422 176 183 175 
423 175 224 176 
424 183 195 175 
425 175 195 188 
426 176 184 183 
427 176 185 184 
428 176 210 185 
429 176 224 210 
430 177 211 198 
431 177 212 211 
432 177 227 212 
433 209 230 178 
434 217 220 178 
435 178 230 217 
436 220 221 178 
437 179 203 182 
438 179 237 203 
439 179 238 237 
440 181 202 180 
441 202 236 180 
442 197 198 181 
443 198 199 181 
444 199 202 181 
445 203 207 182 
446 184 218 183 
447 183 218 195 
448 185 192 184 
449 192 193 184 
450 193 218 184 
451 185 194 192 
452 185 235 194 
453 210 235 185 
454 187 200 186 
455 200 204 186 
456 204 219 186 
457 187 216 200 
458 201 216 187 
459 187 232 201 
460 195 223 188 
461 223 231 188 
462 188 231 227 
463 189 191 190 
464 191 220 190 
465 190 206 205 
466 190 220 206 
467 191 221 220 
468 192 217 193 
469 194 206 192 
470 206 217 192 
471 217 230 193 
472 193 230 218 
473 204 205 194 
474 194 219 204 
475 205 206 194 
476 194 235 219 
477 208 223 195 
478 236 237 196 
479 237 238 196 
480 198 211 199 
481 199 203 202 
482 199 234 203 
483 211 213 199 
484 213 234 199 
485 203 237 202 
486 202 237 236 
487 203 234 207 
488 206 220 217 
489 228 235 210 
490 212 213 211 
491 212 214 213 
492 212 231 214 
493 227 231 212 
494 214 215 213 
2 6 2 30
495 5 11 77 
496 5 77 55 
497 90 17 18 
498 68 90 18 
499 55 78 56 
500 55 77 78 
501 56 79 57 
502 56 78 79 
503 57 80 58 
504 57 79 80 
505 58 81 59 
506 58 80 81 
507 59 82 60 
508 59 81 82 
509 60 82 61 
510 61 83 62 
511 82 83 61 
512 62 84 63 
513 62 83 84 
514 63 85 64 
515 63 84 85 
516 64 86 65 
517 85 86 64 
518 66 65 87 
519 65 86 87 
520 66 88 67 
521 66 87 88 
522 67 89 68 
523 67 88 89 
524 68 89 90 
2 7 2 174
525 9 258 37 
526 109 287 9 
527 9 272 258 
528 9 287 272 
529 10 253 11 
530 37 93 10 
531 93 253 10 
532 11 303 77 
533 253 303 11 
534 53 90 16 
535 16 90 89 
536 89 255 16 
537 16 239 109 
538 16 255 239 
539 90 53 17 
540 91 297 20 
541 20 301 91 
542 94 301 20 
543 20 297 108 
544 37 258 93 
545 77 244 78 
546 77 303 244 
547 78 282 79 
548 244 282 78 
549 79 245 80 
550 79 282 245 
551 80 284 81 
552 245 284 80 
553 81 243 82 
554 81 284 243 
555 82 281 83 
556 243 281 82 
557 83 242 84 
558 83 281 242 
559 84 283 85 
560 242 283 84 
561 85 241 86 
562 85 283 241 
563 86 280 87 
564 241 280 86 
565 87 240 88 
566 87 280 240 
567 88 262 89 
568 240 262 88 
569 89 262 255 
570 92 252 91 
571 91 254 92 
572 252 297 91 
573 91 301 254 
574 93 258 92 
575 92 266 93 
576 92 258 252 
577 254 266 92 
578 93 266 253 
579 95 285 94 
580 285 301 94 
581 96 251 95 
582 251 285 95 
583 97 273 96 
584 96 273 251 
585 98 250 97 
586 250 273 97 
587 99 277 98 
588 98 277 250 
589 100 249 99 
590 249 277 99 
591 101 271 100 
592 100 271 249 
593 102 248 101 
594 248 271 101 
595 103 268 102 
596 102 268 248 
597 104 247 103 
598 247 268 103 
599 105 259 104 
600 104 259 247 
601 106 246 105 
602 246 259 105 
603 107 264 106 
604 106 264 246 
605 108 265 107 
606 107 265 264 
607 108 297 265 
608 239 287 109 
609 255 256 239 
610 256 257 239 
611 257 287 239 
612 240 289 262 
613 280 289 240 
614 241 302 280 
615 283 300 241 
616 300 302 241 
617 281 299 242 
618 242 298 283 
619 242 299 298 
620 243 296 281 
621 284 295 243 
622 295 296 243 
623 244 291 282 
624 290 291 244 
625 244 303 290 
626 282 294 245 
627 245 293 284 
628 245 294 293 
629 246 292 259 
630 264 286 246 
631 286 292 246 
632 259 260 247 
633 260 261 247 
634 261 268 247 
635 268 269 248 
636 269 270 248 
637 270 271 248 
638 271 279 249 
639 249 278 277 
640 249 279 278 
641 250 275 273 
642 250 276 275 
643 250 277 276 
644 267 285 251 
645 251 291 267 
646 273 274 251 
647 274 291 251 
648 258 272 252 
649 252 272 265 
650 265 297 252 
651 266 290 253 
652 290 303 253 
653 254 267 266 
654 254 285 267 
655 254 301 285 
656 255 262 256 
657 256 286 257 
658 262 263 256 
659 263 286 256 
660 257 286 264 
661 264 288 257 
662 257 288 287 
663 259 292 260 
664 260 302 261 
665 260 292 289 
666 289 302 260 
667 261 269 268 
668 261 300 269 
669 261 302 300 
670 262 289 263 
671 263 292 286 
672 289 292 263 
673 265 288 264 
674 272 288 265 
675 267 290 266 
676 267 291 290 
677 269 298 270 
678 269 300 298 
679 270 279 271 
680 270 299 279 
681 298 299 270 
682 287 288 272 
683 273 275 274 
684 275 294 274 
685 282 291 274 
686 274 294 282 
687 276 293 275 
688 293 294 275 
689 277 278 276 
690 278 295 276 
691 276 295 293 
692 279 296 278 
693 278 296 295 
694 279 299 296 
695 280 302 289 
696 296 299 281 
697 298 300 283 
698 293 295 284 
2 8 2 16
699 15 305 8 
700 8 305 33 
701 36 304 9 
702 9 304 109 
703 48 305 15 
704 52 16 109 
705 49 33 48 
706 33 305 48 
707 50 34 49 
708 34 33 49 
709 51 35 50 
710 35 34 50 
711 52 304 51 
712 36 35 51 
713 51 304 36 
714 109 304 52 
2 9 2 12
715 14 307 7 
716 7 307 31 
717 8 308 15 
718 32 308 8 
719 46 307 14 
720 15 308 47 
721 47 306 46 
722 306 307 46 
723 47 308 306 
724 31 306 32 
725 31 307 306 
726 306 308 32 
2 10 2 12
727 12 310 6 
728 6 310 29 
729 7 309 14 
730 30 309 7 
731 44 310 12 
732 14 309 45 
733 45 311 44 
734 44 311 310 
735 309 311 45 
736 29 311 30 
737 310 311 29 
738 30 311 309 
2 11 2 7
739 71 312 19 
740 19 312 76 
741 72 312 71 
742 73 312 72 
743 74 312 73 
744 75 312 74 
745 76 312 75 
2 12 2 64
746 94 20 329 
747 20 108 313 
748 20 313 329 
749 95 94 320 
750 320 94 329 
751 96 95 331 
752 95 320 331 
753 97 96 316 
754 316 96 331 
755 98 97 330 
756 97 316 330 
757 99 98 318 
758 318 98 330 
759 100 99 334 
760 99 318 334 
761 101 100 314 
762 314 100 334 
763 102 101 321 
764 101 314 321 
765 103 102 319 
766 319 102 321 
767 104 103 333 
768 103 319 333 
769 105 104 315 
770 315 104 333 
771 106 105 328 
772 105 315 328 
773 107 106 317 
774 317 106 328 
775 108 107 332 
776 107 317 332 
777 313 108 332 
778 313 326 329 
779 326 313 335 
780 313 332 335 
781 321 314 322 
782 322 314 327 
783 327 314 334 
784 323 315 333 
785 315 323 337 
786 328 315 337 
787 318 316 327 
788 316 318 330 
789 316 325 327 
790 325 316 336 
791 316 331 336 
792 317 328 337 
793 332 317 335 
794 335 317 337 
795 318 327 334 
796 319 321 322 
797 319 322 323 
798 319 323 333 
799 326 320 329 
800 320 326 336 
801 331 320 336 
802 323 322 324 
803 324 322 325 
804 325 322 327 
805 323 324 337 
806 324 325 326 
807 324 326 335 
808 324 335 337 
809 326 325 336 
3 1 4 1460
810 180 356 236 361 
811 326 362 353 363 
812 338 351 366 378 
813 343 352 241 357 
814 54 10 18 348 
815 351 21 359 377 
816 54 18 10 156 
817 195 346 352 347 
818 340 363 362 365 
819 353 362 340 363 
820 300 352 343 374 
821 338 351 359 377 
822 402 377 384 348 
823 295 350 341 360 
824 326 362 363 365 
825 340 366 343 383 
826 383 385 338 369 
827 381 340 383 367 
828 419 146 398 39 
829 380 363 341 368 
830 233 163 210 342 
831 360 366 351 378 
832 269 343 261 371 
833 360 378 351 382 
834 269 355 343 371 
835 71 225 19 342 
836 353 363 340 366 
837 269 261 343 300 
838 380 363 368 327 
839 302 343 241 357 
840 174 227 188 346 
841 398 146 419 124 
842 383 385 369 345 
843 312 71 19 342 
844 269 343 355 374 
845 276 341 380 293 
846 269 300 343 374 
847 381 340 367 354 
848 402 377 348 54 
849 215 345 357 369 
850 353 326 320 362 
851 244 358 344 376 
852 241 343 300 352 
853 340 343 366 363 
854 341 279 355 374 
855 12 420 6 310 
856 343 363 341 366 
857 388 328 354 317 
858 285 353 401 362 
859 174 177 227 346 
860 341 343 366 378 
861 341 363 353 366 
862 202 180 236 361 
863 167 235 219 342 
864 12 44 420 310 
865 351 360 344 366 
866 370 346 195 347 
867 278 341 279 368 
868 10 54 156 137 
869 351 378 347 382 
870 293 341 380 376 
871 325 380 363 353 
872 283 352 300 374 
873 259 414 393 354 
874 381 340 354 343 
875 413 207 372 345 
876 19 342 225 356 
877 165 382 347 386 
878 143 402 137 54 
879 168 67 66 345 
880 325 326 353 363 
881 215 345 369 168 
882 338 351 344 366 
883 372 367 255 345 
884 398 146 138 39 
885 380 363 353 341 
886 163 342 74 379 
887 338 344 351 377 
888 160 223 231 346 
889 372 383 385 348 
890 286 365 354 367 
891 336 320 331 353 
892 372 255 367 239 
893 296 341 295 350 
894 37 18 348 372 
895 174 346 188 370 
896 378 346 352 383 
897 70 19 225 356 
898 302 343 357 381 
899 402 93 348 384 
900 177 346 174 361 
901 254 375 358 362 
902 207 345 168 369 
903 312 19 379 342 
904 369 202 349 361 
905 341 355 279 368 
906 340 354 343 363 
907 328 317 337 354 
908 215 345 168 66 
909 300 241 302 343 
910 376 438 360 344 
911 383 385 348 338 
912 336 325 326 353 
913 10 37 18 348 
914 381 340 343 383 
915 228 210 235 342 
916 341 350 296 374 
917 405 444 400 304 
918 276 341 293 295 
919 259 414 354 246 
920 192 347 217 373 
921 343 366 378 383 
922 388 354 264 365 
923 346 338 369 383 
924 296 279 341 374 
925 173 225 342 364 
926 23 410 384 344 
927 338 348 344 377 
928 378 346 383 338 
929 353 320 326 336 
930 219 166 167 342 
931 413 207 345 67 
932 438 189 360 344 
933 431 215 345 357 
934 325 380 353 316 
935 339 351 347 373 
936 348 93 358 384 
937 254 375 362 92 
938 402 93 384 253 
939 401 331 320 353 
940 110 2 4 439 
941 165 382 386 209 
942 343 260 261 371 
943 113 398 146 138 
944 343 355 341 363 
945 293 341 376 360 
946 280 302 241 357 
947 372 383 348 367 
948 143 402 54 377 
949 298 283 300 374 
950 171 177 174 361 
951 296 279 278 341 
952 341 368 276 380 
953 343 260 354 381 
954 246 264 388 354 
955 174 361 346 370 
956 71 166 173 342 
957 362 365 252 375 
958 344 348 338 366 
959 340 348 366 383 
960 349 369 338 385 
961 254 375 92 266 
962 257 365 286 367 
963 402 377 5 384 
964 293 341 360 295 
965 21 1 387 377 
966 160 412 352 357 
967 185 184 192 370 
968 324 354 363 323 
969 244 344 358 384 
970 277 380 368 391 
971 192 370 347 373 
972 264 354 286 365 
973 195 223 208 352 
974 369 211 361 346 
975 217 351 347 382 
976 349 338 377 385 
977 19 229 76 379 
978 284 350 295 360 
979 193 192 184 347 
980 348 367 340 375 
981 335 324 337 365 
982 438 189 344 226 
983 328 337 315 354 
984 285 267 353 362 
985 267 358 353 362 
986 259 354 393 371 
987 19 356 229 379 
988 184 347 192 370 
989 70 229 19 356 
990 185 370 192 373 
991 259 260 354 371 
992 368 391 380 318 
993 254 375 266 358 
994 337 354 317 365 
995 158 196 236 356 
996 341 374 343 378 
997 72 71 312 342 
998 346 369 357 383 
999 174 171 361 370 
1000 1 344 23 377 
1001 160 223 346 352 
1002 255 239 256 367 
1003 370 195 346 188 
1004 279 355 271 368 
1005 271 355 415 368 
1006 226 56 222 344 
1007 369 202 361 199 
1008 259 260 292 354 
1009 343 354 260 371 
1010 296 278 295 341 
1011 302 260 343 381 
1012 369 202 199 203 
1013 345 367 381 383 
1014 67 168 207 345 
1015 235 342 210 370 
1016 343 341 355 374 
1017 346 357 352 383 
1018 228 235 167 342 
1019 351 217 373 206 
1020 325 380 316 327 
1021 251 401 285 353 
1022 165 382 209 230 
1023 340 358 353 366 
1024 338 359 349 377 
1025 255 256 345 367 
1026 244 291 358 376 
1027 351 347 378 338 
1028 343 261 260 302 
1029 315 337 323 354 
1030 399 419 5 116 
1031 353 358 340 362 
1032 152 10 157 153 
1033 341 366 360 378 
1034 342 370 235 373 
1035 369 211 346 213 
1036 257 264 286 365 
1037 206 192 217 373 
1038 252 365 272 375 
1039 165 218 195 347 
1040 318 316 391 380 
1041 193 217 192 347 
1042 345 367 256 381 
1043 165 347 352 386 
1044 338 366 348 383 
1045 350 378 360 382 
1046 188 227 231 346 
1047 341 363 355 368 
1048 369 339 361 349 
1049 92 362 252 375 
1050 365 367 272 375 
1051 395 355 268 371 
1052 369 339 349 338 
1053 66 67 408 345 
1054 292 354 260 381 
1055 348 377 338 385 
1056 438 189 226 57 
1057 206 351 205 373 
1058 271 394 368 415 
1059 10 93 37 348 
1060 241 300 283 352 
1061 302 357 280 381 
1062 1 222 23 344 
1063 165 230 218 347 
1064 174 164 171 370 
1065 323 354 363 371 
1066 348 372 367 375 
1067 424 316 331 353 
1068 189 344 351 360 
1069 236 356 349 361 
1070 431 381 357 345 
1071 21 423 359 377 
1072 339 349 338 359 
1073 72 228 167 342 
1074 354 363 340 365 
1075 338 347 339 351 
1076 348 358 340 366 
1077 261 300 302 343 
1078 416 250 391 380 
1079 355 363 327 368 
1080 269 298 300 374 
1081 369 211 213 199 
1082 217 347 351 373 
1083 315 354 323 371 
1084 5 419 399 146 
1085 361 370 171 379 
1086 339 359 351 373 
1087 206 190 205 351 
1088 214 369 357 346 
1089 339 338 351 359 
1090 378 386 382 350 
1091 226 443 56 344 
1092 432 374 386 352 
1093 219 186 166 364 
1094 274 424 251 353 
1095 93 37 348 375 
1096 72 166 71 342 
1097 378 346 338 347 
1098 378 382 386 347 
1099 5 419 11 116 
1100 244 344 282 376 
1101 382 430 360 350 
1102 325 380 327 363 
1103 11 419 5 146 
1104 286 256 367 381 
1105 347 378 352 386 
1106 299 350 374 296 
1107 340 365 362 375 
1108 344 23 377 384 
1109 160 412 357 64 
1110 393 333 371 315 
1111 299 350 296 281 
1112 382 430 350 60 
1113 271 394 415 100 
1114 11 419 124 116 
1115 214 369 346 213 
1116 213 168 215 369 
1117 360 366 341 376 
1118 276 341 295 278 
1119 286 367 354 381 
1120 277 391 368 426 
1121 324 354 323 337 
1122 23 410 344 222 
1123 279 270 355 374 
1124 327 380 316 318 
1125 219 166 342 364 
1126 143 402 377 5 
1127 171 370 164 379 
1128 353 366 358 376 
1129 72 312 73 342 
1130 235 370 185 373 
1131 274 424 353 380 
1132 269 268 355 371 
1133 165 382 230 347 
1134 1 226 222 344 
1135 219 342 235 373 
1136 341 360 350 378 
1137 426 391 368 318 
1138 252 362 297 365 
1139 369 339 338 346 
1140 160 352 346 357 
1141 291 353 358 376 
1142 160 412 64 63 
1143 284 350 360 430 
1144 143 402 5 137 
1145 72 167 166 342 
1146 37 372 348 375 
1147 183 195 347 370 
1148 350 382 209 386 
1149 376 438 344 282 
1150 296 295 243 350 
1151 9 367 372 375 
1152 351 217 206 220 
1153 19 342 356 379 
1154 341 366 353 376 
1155 344 366 360 376 
1156 180 158 236 356 
1157 277 380 391 250 
1158 297 362 403 365 
1159 340 358 348 375 
1160 344 358 348 366 
1161 434 410 77 303 
1162 277 391 426 98 
1163 194 235 185 373 
1164 335 337 317 365 
1165 225 356 342 364 
1166 109 367 239 372 
1167 220 351 382 191 
1168 185 235 210 370 
1169 72 73 228 342 
1170 173 342 225 71 
1171 249 279 271 368 
1172 286 263 256 381 
1173 254 358 267 362 
1174 312 379 19 76 
1175 351 359 159 373 
1176 331 316 336 353 
1177 340 362 358 375 
1178 295 293 284 360 
1179 347 230 217 382 
1180 69 349 196 356 
1181 231 223 188 346 
1182 340 367 365 375 
1183 124 419 11 146 
1184 220 351 191 190 
1185 377 423 387 21 
1186 288 365 257 367 
1187 270 271 279 355 
1188 202 236 349 361 
1189 338 346 339 347 
1190 387 423 377 141 
1191 218 230 193 347 
1192 314 355 327 368 
1193 416 250 97 391 
1194 54 377 348 385 
1195 23 410 222 55 
1196 264 246 286 354 
1197 444 441 400 304 
1198 109 287 239 367 
1199 250 416 273 380 
1200 354 343 363 371 
1201 160 412 63 352 
1202 248 415 355 435 
1203 208 165 352 386 
1204 255 256 262 345 
1205 257 288 264 365 
1206 381 280 431 357 
1207 212 213 214 346 
1208 369 202 203 349 
1209 378 346 347 352 
1210 356 201 359 364 
1211 369 339 346 361 
1212 75 74 312 379 
1213 339 347 346 370 
1214 433 412 64 357 
1215 196 349 236 356 
1216 431 215 357 65 
1217 387 423 442 21 
1218 359 201 69 3 
1219 210 342 163 370 
1220 432 208 352 386 
1221 1 189 226 344 
1222 70 356 225 364 
1223 211 346 177 361 
1224 431 381 345 262 
1225 248 415 435 101 
1226 200 159 359 373 
1227 181 202 199 361 
1228 442 423 387 141 
1229 174 188 175 370 
1230 376 438 282 245 
1231 202 181 180 361 
1232 262 345 256 381 
1233 211 177 198 361 
1234 444 405 51 304 
1235 244 358 290 384 
1236 252 91 297 362 
1237 430 284 409 360 
1238 411 209 386 350 
1239 269 261 268 371 
1240 254 266 267 358 
1241 163 74 342 233 
1242 297 418 365 403 
1243 432 208 386 62 
1244 251 285 267 353 
1245 358 366 344 376 
1246 247 259 393 371 
1247 348 358 93 375 
1248 372 383 367 345 
1249 5 143 23 377 
1250 74 233 73 342 
1251 430 221 382 360 
1252 347 217 230 193 
1253 327 355 322 363 
1254 355 363 343 371 
1255 185 192 194 373 
1256 432 208 62 63 
1257 163 370 342 379 
1258 267 291 353 358 
1259 189 344 1 351 
1260 160 231 214 346 
1261 412 283 352 241 
1262 401 301 285 362 
1263 159 205 351 373 
1264 376 438 245 360 
1265 212 211 213 346 
1266 432 374 352 283 
1267 292 246 259 354 
1268 297 91 403 362 
1269 184 183 347 370 
1270 207 182 372 385 
1271 269 355 270 374 
1272 347 370 339 373 
1273 160 208 223 352 
1274 248 269 268 355 
1275 214 369 213 215 
1276 327 380 318 368 
1277 266 253 290 358 
1278 205 190 159 351 
1279 354 365 340 367 
1280 369 211 199 361 
1281 75 312 76 379 
1282 316 325 336 353 
1283 443 57 438 226 
1284 410 56 443 344 
1285 9 372 37 375 
1286 189 351 191 360 
1287 218 193 184 347 
1288 268 417 395 371 
1289 139 152 37 151 
1290 252 92 91 362 
1291 253 290 358 384 
1292 269 270 298 374 
1293 57 189 191 360 
1294 212 214 231 346 
1295 432 208 63 352 
1296 341 276 368 278 
1297 345 381 357 383 
1298 401 329 362 320 
1299 141 23 143 377 
1300 322 355 319 371 
1301 218 184 183 347 
1302 428 79 80 57 
1303 297 418 403 108 
1304 199 203 234 369 
1305 74 73 312 342 
1306 411 209 350 60 
1307 232 70 225 364 
1308 348 358 344 384 
1309 9 272 367 375 
1310 214 160 346 357 
1311 9 367 109 372 
1312 299 350 281 386 
1313 258 252 272 375 
1314 274 424 380 273 
1315 326 325 324 363 
1316 224 210 163 370 
1317 283 242 374 298 
1318 192 206 194 373 
1319 268 417 371 247 
1320 191 360 351 382 
1321 220 351 190 206 
1322 177 212 227 346 
1323 322 363 355 371 
1324 37 400 53 372 
1325 109 9 287 367 
1326 244 282 291 376 
1327 265 388 418 107 
1328 299 350 386 374 
1329 207 182 68 372 
1330 416 316 424 380 
1331 24 399 116 419 
1332 137 157 10 153 
1333 290 244 291 358 
1334 345 357 369 383 
1335 437 134 392 112 
1336 411 209 60 61 
1337 344 377 348 384 
1338 158 69 196 356 
1339 323 363 322 371 
1340 272 365 288 367 
1341 37 425 18 372 
1342 164 370 163 379 
1343 178 230 209 382 
1344 258 92 252 375 
1345 327 314 322 355 
1346 156 157 10 137 
1347 154 119 123 118 
1348 186 364 219 373 
1349 353 376 274 380 
1350 160 63 208 352 
1351 275 273 274 380 
1352 346 361 339 370 
1353 173 342 166 364 
1354 296 299 279 374 
1355 416 96 97 273 
1356 436 420 147 396 
1357 426 249 394 368 
1358 119 420 396 29 
1359 10 11 137 153 
1360 434 402 384 253 
1361 229 169 76 379 
1362 189 190 191 351 
1363 357 381 343 383 
1364 219 364 342 373 
1365 202 237 203 349 
1366 119 123 422 154 
1367 302 280 289 381 
1368 431 215 65 66 
1369 26 389 130 40 
1370 293 245 360 376 
1371 254 285 301 362 
1372 257 286 256 367 
1373 390 27 41 127 
1374 255 16 239 372 
1375 74 342 312 379 
1376 416 97 250 273 
1377 409 221 430 360 
1378 41 27 389 130 
1379 276 278 277 368 
1380 177 211 212 346 
1381 279 299 270 374 
1382 343 352 357 383 
1383 436 420 396 119 
1384 285 254 267 362 
1385 259 247 260 371 
1386 224 163 164 370 
1387 234 213 199 369 
1388 12 404 144 150 
1389 23 5 377 384 
1390 271 270 248 355 
1391 112 392 123 134 
1392 277 380 250 276 
1393 322 321 319 355 
1394 275 274 376 380 
1395 353 341 376 380 
1396 229 356 169 379 
1397 437 134 112 148 
1398 159 21 200 359 
1399 420 154 147 144 
1400 154 436 422 119 
1401 411 209 61 386 
1402 259 414 246 105 
1403 173 232 225 364 
1404 292 286 246 354 
1405 236 196 237 349 
1406 51 52 444 304 
1407 427 313 403 362 
1408 69 349 356 359 
1409 289 280 240 381 
1410 265 388 107 264 
1411 43 349 69 359 
1412 134 123 112 118 
1413 214 369 215 357 
1414 317 332 335 365 
1415 10 152 114 153 
1416 436 420 119 154 
1417 219 235 194 373 
1418 351 217 220 382 
1419 420 154 144 118 
1420 251 267 291 353 
1421 202 236 237 349 
1422 426 334 368 394 
1423 291 274 353 376 
1424 18 372 182 385 
1425 180 172 356 361 
1426 9 258 272 375 
1427 10 18 17 156 
1428 157 10 17 156 
1429 211 198 199 361 
1430 149 114 152 153 
1431 201 187 216 364 
1432 302 289 260 381 
1433 227 212 231 346 
1434 352 343 374 378 
1435 65 433 64 357 
1436 259 414 105 393 
1437 160 214 64 357 
1438 70 232 201 364 
1439 323 322 319 371 
1440 65 64 214 357 
1441 315 323 333 371 
1442 11 10 113 153 
1443 180 181 172 361 
1444 186 200 364 373 
1445 278 279 249 368 
1446 198 177 171 361 
1447 426 249 368 277 
1448 248 270 269 355 
1449 200 204 159 373 
1450 15 422 308 8 
1451 8 308 32 422 
1452 245 282 79 438 
1453 46 306 397 307 
1454 218 183 195 347 
1455 356 201 364 70 
1456 322 314 321 355 
1457 268 417 247 103 
1458 119 420 29 118 
1459 430 281 350 411 
1460 343 378 352 383 
1461 97 316 391 330 
1462 396 44 420 147 
1463 293 294 245 376 
1464 91 92 254 362 
1465 265 252 297 365 
1466 399 5 143 23 
1467 57 58 428 360 
1468 26 389 40 398 
1469 359 364 200 373 
1470 268 417 103 395 
1471 142 140 136 122 
1472 421 390 27 115 
1473 170 171 162 379 
1474 180 172 169 356 
1475 45 46 396 397 
1476 396 397 306 31 
1477 57 191 58 360 
1478 275 376 293 380 
1479 396 44 147 45 
1480 93 266 92 375 
1481 444 441 151 400 
1482 38 442 387 141 
1483 18 182 54 385 
1484 26 389 125 122 
1485 282 443 79 438 
1486 287 272 288 367 
1487 119 440 31 396 
1488 110 21 1 387 
1489 281 242 299 386 
1490 334 314 327 368 
1491 170 75 161 379 
1492 265 272 252 365 
1493 243 281 296 350 
1494 274 424 273 251 
1495 274 251 291 353 
1496 287 9 272 367 
1497 335 332 313 365 
1498 356 361 172 379 
1499 438 189 57 360 
1500 203 369 349 385 
1501 75 76 161 379 
1502 42 404 12 150 
1503 443 79 78 282 
1504 37 152 17 151 
1505 142 155 140 122 
1506 24 399 128 38 
1507 203 237 179 349 
1508 144 121 150 404 
1509 390 140 41 389 
1510 159 204 205 373 
1511 247 261 260 371 
1512 46 45 396 147 
1513 134 15 392 154 
1514 9 37 258 375 
1515 31 30 119 396 
1516 392 33 305 48 
1517 426 334 394 99 
1518 341 350 374 378 
1519 288 272 265 365 
1520 154 436 147 47 
1521 301 427 91 362 
1522 186 219 204 373 
1523 159 190 189 351 
1524 422 32 123 119 
1525 37 9 400 372 
1526 250 273 275 380 
1527 125 149 138 113 
1528 242 374 299 386 
1529 11 146 137 153 
1530 113 114 149 153 
1531 409 221 360 58 
1532 323 324 322 363 
1533 147 144 44 420 
1534 75 162 74 379 
1535 139 37 400 151 
1536 244 290 303 384 
1537 134 112 148 121 
1538 159 189 1 351 
1539 420 154 118 119 
1540 257 256 239 367 
1541 390 140 389 122 
1542 40 131 26 398 
1543 401 301 94 285 
1544 184 185 176 370 
1545 122 136 142 115 
1546 136 421 115 390 
1547 154 436 47 422 
1548 126 155 149 133 
1549 265 264 288 365 
1550 207 234 203 369 
1551 402 11 5 137 
1552 436 420 154 147 
1553 275 294 293 376 
1554 68 18 425 372 
1555 176 185 210 370 
1556 200 359 216 364 
1557 139 152 114 37 
1558 114 113 10 153 
1559 416 96 316 97 
1560 267 266 290 358 
1561 169 356 172 379 
1562 401 329 320 94 
1563 153 149 113 138 
1564 171 197 198 361 
1565 319 333 323 371 
1566 316 353 424 380 
1567 423 3 21 359 
1568 248 395 102 435 
1569 180 169 158 356 
1570 245 284 293 360 
1571 294 282 245 376 
1572 114 152 10 37 
1573 186 204 200 373 
1574 207 369 203 385 
1575 43 69 3 359 
1576 42 28 404 421 
1577 68 182 18 372 
1578 261 247 268 371 
1579 17 18 10 37 
1580 263 262 256 381 
1581 381 431 280 240 
1582 248 415 101 271 
1583 374 378 350 386 
1584 421 115 28 121 
1585 298 299 242 374 
1586 403 297 20 91 
1587 244 443 410 78 
1588 141 143 54 377 
1589 197 361 171 379 
1590 400 37 53 151 
1591 421 42 28 127 
1592 138 140 155 125 
1593 349 356 339 361 
1594 389 138 40 398 
1595 338 378 366 383 
1596 248 395 435 355 
1597 248 415 271 355 
1598 155 111 117 122 
1599 434 23 410 384 
1600 277 278 249 368 
1601 8 112 392 123 
1602 352 378 374 386 
1603 162 171 164 379 
1604 168 213 234 369 
1605 292 260 289 381 
1606 146 11 113 153 
1607 210 224 176 370 
1608 186 173 166 364 
1609 407 155 126 133 
1610 409 428 58 360 
1611 70 158 229 356 
1612 125 149 113 117 
1613 184 176 183 370 
1614 37 17 53 151 
1615 198 181 199 361 
1616 142 111 155 122 
1617 403 427 362 91 
1618 229 158 169 356 
1619 339 370 361 379 
1620 120 148 406 437 
1621 125 149 117 155 
1622 442 423 141 145 
1623 65 214 215 357 
1624 148 150 134 121 
1625 125 149 155 138 
1626 36 405 37 400 
1627 301 91 254 362 
1628 253 303 290 384 
1629 277 391 98 250 
1630 257 239 287 367 
1631 113 146 153 138 
1632 239 16 109 372 
1633 273 251 424 96 
1634 421 28 404 121 
1635 325 327 322 363 
1636 150 421 404 121 
1637 122 142 111 115 
1638 149 114 113 117 
1639 322 324 325 363 
1640 329 320 326 362 
1641 432 374 283 242 
1642 359 201 3 216 
1643 114 152 139 149 
1644 409 221 58 59 
1645 339 370 342 373 
1646 244 443 78 282 
1647 267 290 291 358 
1648 67 89 413 68 
1649 221 360 191 382 
1650 437 134 48 392 
1651 390 122 115 136 
1652 203 349 179 385 
1653 170 197 171 379 
1654 287 288 257 367 
1655 178 217 230 382 
1656 112 120 148 121 
1657 174 175 164 370 
1658 114 405 36 126 
1659 359 201 216 364 
1660 270 299 298 374 
1661 98 391 426 318 
1662 405 139 51 133 
1663 294 274 282 376 
1664 172 181 197 361 
1665 405 149 126 114 
1666 291 282 274 376 
1667 326 313 329 362 
1668 170 162 75 379 
1669 234 207 168 369 
1670 356 359 339 364 
1671 208 62 165 386 
1672 344 438 226 443 
1673 437 134 148 48 
1674 349 377 238 385 
1675 69 158 70 356 
1676 197 172 361 379 
1677 150 115 421 121 
1678 221 191 220 382 
1679 126 114 149 117 
1680 148 136 150 115 
1681 342 364 339 373 
1682 36 405 114 37 
1683 275 274 294 376 
1684 339 356 349 359 
1685 197 181 198 361 
1686 339 364 359 373 
1687 429 411 61 386 
1688 200 216 187 364 
1689 205 204 194 373 
1690 5 146 143 137 
1691 18 17 425 37 
1692 26 389 122 27 
1693 148 49 142 406 
1694 434 410 303 384 
1695 115 150 148 121 
1696 399 5 23 116 
1697 437 120 112 33 
1698 194 206 205 373 
1699 113 398 138 125 
1700 93 92 258 375 
1701 342 356 339 364 
1702 405 149 114 139 
1703 413 207 67 68 
1704 406 148 49 437 
1705 111 142 120 115 
1706 179 349 238 385 
1707 297 418 108 265 
1708 42 404 150 421 
1709 297 418 265 365 
1710 101 415 100 271 
1711 407 155 133 142 
1712 120 406 111 34 
1713 216 200 21 359 
1714 129 38 4 442 
1715 275 293 276 380 
1716 237 238 179 349 
1717 124 11 113 146 
1718 42 404 132 12 
1719 148 120 115 121 
1720 399 39 146 419 
1721 339 342 370 379 
1722 431 215 66 345 
1723 438 428 245 360 
1724 437 48 49 33 
1725 6 404 121 118 
1726 93 258 37 375 
1727 187 201 232 364 
1728 142 407 50 133 
1729 106 264 107 388 
1730 416 96 273 424 
1731 275 276 250 380 
1732 393 104 105 259 
1733 102 268 103 395 
1734 13 141 54 377 
1735 191 221 58 360 
1736 339 356 342 379 
1737 95 401 94 285 
1738 232 173 187 364 
1739 146 5 11 137 
1740 197 170 161 379 
1741 238 349 13 377 
1742 339 361 356 379 
1743 173 186 187 364 
1744 53 16 413 372 
1745 98 99 426 277 
1746 113 398 125 124 
1747 100 394 99 249 
1748 186 200 187 364 
1749 50 407 406 34 
1750 197 161 172 379 
1751 318 334 327 368 
1752 238 377 54 385 
1753 240 262 289 381 
1754 41 42 390 127 
1755 196 238 237 349 
1756 24 399 23 116 
1757 131 39 398 40 
1758 34 437 406 49 
1759 178 220 217 382 
1760 194 204 219 373 
1761 414 105 106 246 
1762 207 203 182 385 
1763 116 124 25 419 
1764 216 21 3 359 
1765 16 53 441 372 
1766 179 238 54 385 
1767 13 238 196 349 
1768 66 88 408 67 
1769 263 289 262 381 
1770 406 49 50 34 
1771 148 48 49 437 
1772 263 292 289 381 
1773 108 297 20 403 
1774 98 391 97 250 
1775 116 25 24 419 
1776 104 417 103 247 
1777 434 23 384 5 
1778 27 28 421 115 
1779 61 62 429 386 
1780 108 107 265 418 
1781 404 28 6 121 
1782 51 405 407 35 
1783 40 41 389 130 
1784 434 402 253 11 
1785 434 23 5 55 
1786 425 17 18 90 
1787 42 404 28 132 
1788 165 61 209 386 
1789 20 427 91 301 
1790 54 238 13 377 
1791 311 397 396 30 
1792 309 30 7 397 
1793 51 36 405 35 
1794 124 25 419 398 
1795 80 409 428 58 
1796 431 381 262 240 
1797 34 50 407 35 
1798 409 221 59 430 
1799 399 39 419 128 
1800 428 79 245 80 
1801 77 410 55 78 
1802 88 408 67 89 
1803 399 39 128 38 
1804 165 62 61 386 
1805 429 411 83 61 
1806 432 242 283 84 
1807 78 410 55 56 
1808 405 36 51 304 
1809 224 164 175 370 
1810 81 82 430 59 
1811 175 176 224 370 
1812 65 66 87 431 
1813 81 409 80 58 
1814 428 80 58 57 
1815 345 431 408 66 
1816 409 81 59 58 
1817 392 48 15 134 
1818 411 83 61 82 
1819 53 52 441 151 
1820 428 79 57 438 
1821 220 178 221 382 
1822 34 437 49 33 
1823 61 83 429 62 
1824 66 88 87 431 
1825 430 281 411 82 
1826 84 429 83 62 
1827 2 23 24 387 
1828 182 203 179 385 
1829 412 86 64 85 
1830 148 120 112 437 
1831 407 50 51 35 
1832 82 60 430 59 
1833 46 396 306 436 
1834 412 283 241 85 
1835 85 64 412 63 
1836 62 84 432 63 
1837 85 432 84 63 
1838 119 30 29 396 
1839 60 411 61 82 
1840 444 441 52 151 
1841 65 87 86 433 
1842 413 408 67 345 
1843 183 176 175 370 
1844 392 112 8 33 
1845 397 307 306 31 
1846 397 14 46 307 
1847 251 95 424 96 
1848 64 65 86 433 
1849 435 102 248 101 
1850 124 26 25 398 
1851 444 52 139 151 
1852 436 47 46 147 
1853 444 441 304 52 
1854 397 30 7 31 
1855 46 45 14 397 
1856 442 22 4 439 
1857 56 78 410 443 
1858 32 119 440 31 
1859 433 86 64 412 
1860 12 44 144 420 
1861 2 23 387 1 
1862 413 89 16 90 
1863 5 77 11 434 
1864 443 57 226 56 
1865 56 79 78 443 
1866 182 179 54 385 
1867 420 6 29 118 
1868 434 402 11 5 
1869 9 36 37 400 
1870 77 5 55 434 
1871 8 422 32 123 
1872 15 47 422 154 
1873 434 402 5 384 
1874 431 280 240 87 
1875 52 16 53 441 
1876 397 7 14 307 
1877 442 22 439 21 
1878 51 52 139 444 
1879 301 20 427 94 
1880 22 439 21 110 
1881 434 23 55 410 
1882 68 425 18 90 
1883 21 22 3 423 
1884 22 439 110 4 
1885 442 423 145 22 
1886 110 1 2 387 
1887 16 53 413 90 
1888 135 423 22 145 
1889 76 172 379 169 
1890 379 172 76 161 
1891 367 383 348 340 
1892 372 383 345 385 
1893 365 324 326 335 
1894 365 326 324 363 
1895 377 351 1 344 
1896 351 21 377 1 
1897 195 346 188 223 
1898 195 346 223 352 
1899 251 401 95 285 
1900 401 424 353 251 
1901 352 195 165 208 
1902 352 165 195 347 
1903 384 93 358 253 
1904 423 22 3 135 
1905 266 358 93 253 
1906 266 93 358 375 
1907 410 222 55 56 
1908 410 222 56 344 
1909 365 326 313 335 
1910 365 313 326 362 
1911 306 47 46 436 
1912 351 21 1 159 
1913 351 21 159 359 
1914 324 354 337 365 
1915 324 354 365 363 
1916 393 247 104 259 
1917 393 333 315 104 
1918 248 395 355 268 
1919 248 395 268 102 
1920 277 380 276 368 
1921 408 431 345 262 
1922 385 345 207 369 
1923 385 207 345 372 
1924 385 18 348 54 
1925 385 348 18 372 
1926 388 328 317 106 
1927 106 388 246 264 
1928 377 43 349 13 
1929 377 349 43 359 
1930 141 423 135 145 
1931 377 141 43 13 
1932 195 175 370 183 
1933 370 175 195 188 
1934 271 394 100 249 
1935 271 394 249 368 
1936 356 201 70 69 
1937 356 201 69 359 
1938 265 388 264 365 
1939 265 388 365 418 
1940 381 286 292 354 
1941 381 292 286 263 
1942 178 382 60 221 
1943 430 221 59 60 
1944 430 221 60 382 
1945 154 123 392 134 
1946 154 118 134 144 
1947 134 118 154 123 
1948 121 118 134 112 
1949 17 10 152 37 
1950 17 152 10 157 
1951 122 155 125 117 
1952 122 125 155 140 
1953 126 155 111 117 
1954 126 155 117 149 
1955 148 115 142 136 
1956 142 115 148 120 
1957 436 440 119 396 
1958 405 139 400 444 
1959 144 121 404 118 
1960 144 121 118 134 
1961 35 407 111 126 
1962 442 22 145 4 
1963 210 73 342 228 
1964 342 73 210 233 
1965 8 392 305 15 
1966 118 404 420 6 
1967 420 404 118 144 
1968 141 38 442 145 
1969 442 38 4 145 
1970 144 121 134 150 
1971 420 404 12 6 
1972 12 404 132 6 
1973 13 69 349 196 
1974 13 349 69 43 
1975 164 74 379 163 
1976 164 379 74 162 
1977 413 207 68 372 
1978 413 408 345 255 
1979 255 413 89 16 
1980 255 413 16 372 
1981 382 60 209 178 
1982 382 209 60 350 
1983 387 1 23 377 
1984 23 141 387 377 
1985 442 423 22 21 
1986 443 57 56 79 
1987 317 354 388 365 
1988 388 414 106 246 
1989 388 107 317 332 
1990 106 388 107 317 
1991 388 414 246 354 
1992 365 332 388 317 
1993 389 138 398 125 
1994 390 140 122 136 
1995 390 122 389 27 
1996 125 389 140 122 
1997 40 41 140 389 
1998 41 27 390 389 
1999 390 122 27 115 
2000 136 421 390 42 
2001 136 421 42 150 
2002 41 42 136 390 
2003 318 391 316 330 
2004 9 36 400 304 
2005 425 413 90 68 
2006 68 89 413 90 
2007 98 330 97 391 
2008 98 391 318 330 
2009 392 33 48 437 
2010 443 57 79 438 
2011 392 33 437 112 
2012 12 404 420 144 
2013 305 48 15 392 
2014 425 413 68 372 
2015 414 315 393 354 
2016 393 354 315 371 
2017 393 417 104 247 
2018 414 315 354 328 
2019 315 104 105 393 
2020 393 417 247 371 
2021 334 394 314 368 
2022 426 249 277 99 
2023 426 249 99 394 
2024 100 334 99 394 
2025 394 314 100 334 
2026 319 355 395 371 
2027 417 319 395 371 
2028 417 319 371 333 
2029 319 102 395 321 
2030 102 395 103 319 
2031 395 321 355 319 
2032 311 420 396 44 
2033 311 420 44 310 
2034 396 397 31 30 
2035 311 397 30 309 
2036 311 397 309 45 
2037 396 30 29 311 
2038 344 438 443 282 
2039 311 397 45 396 
2040 436 422 306 47 
2041 397 45 14 309 
2042 441 400 304 109 
2043 131 25 398 39 
2044 113 398 124 146 
2045 36 405 400 304 
2046 398 39 138 40 
2047 441 400 53 151 
2048 408 431 88 66 
2049 399 5 146 143 
2050 38 399 146 143 
2051 400 441 53 372 
2052 400 9 109 372 
2053 400 109 441 372 
2054 304 400 9 109 
2055 401 353 320 362 
2056 401 424 251 95 
2057 401 427 94 301 
2058 401 427 301 362 
2059 95 320 94 401 
2060 401 331 95 320 
2061 348 402 54 10 
2062 139 400 444 151 
2063 54 10 402 137 
2064 402 93 253 10 
2065 402 93 10 348 
2066 10 11 402 137 
2067 402 11 10 253 
2068 403 362 313 365 
2069 332 403 313 365 
2070 403 427 91 20 
2071 427 313 362 329 
2072 403 108 332 313 
2073 108 403 20 313 
2074 154 392 422 15 
2075 434 11 253 303 
2076 422 392 154 123 
2077 132 28 6 404 
2078 405 149 139 133 
2079 52 16 441 109 
2080 405 126 407 35 
2081 405 36 126 35 
2082 148 406 142 120 
2083 304 52 441 109 
2084 34 437 33 120 
2085 34 437 120 406 
2086 407 155 142 111 
2087 407 111 406 34 
2088 34 407 111 35 
2089 16 441 109 372 
2090 88 431 408 262 
2091 262 408 255 345 
2092 24 399 387 23 
2093 88 262 408 89 
2094 408 262 255 89 
2095 409 430 59 81 
2096 428 284 360 409 
2097 428 284 409 80 
2098 81 284 80 409 
2099 284 350 430 243 
2100 410 244 303 384 
2101 77 244 410 78 
2102 436 306 440 396 
2103 77 410 244 303 
2104 436 422 440 306 
2105 281 350 411 386 
2106 430 281 82 243 
2107 242 281 411 386 
2108 242 281 83 411 
2109 281 83 411 82 
2110 430 281 243 350 
2111 241 352 412 357 
2112 412 432 85 63 
2113 433 241 412 357 
2114 241 86 412 85 
2115 412 432 63 352 
2116 433 241 357 280 
2117 390 140 136 41 
2118 414 315 328 105 
2119 414 315 105 393 
2120 328 105 106 414 
2121 388 328 106 414 
2122 388 328 414 354 
2123 415 355 314 368 
2124 415 394 368 314 
2125 415 394 314 100 
2126 314 415 321 355 
2127 314 101 321 415 
2128 101 314 100 415 
2129 316 416 391 380 
2130 316 416 97 391 
2131 416 424 273 380 
2132 416 96 424 316 
2133 417 319 333 103 
2134 417 319 103 395 
2135 104 333 103 417 
2136 393 333 104 417 
2137 393 333 417 371 
2138 418 403 332 365 
2139 418 388 332 107 
2140 418 403 108 332 
2141 108 107 418 332 
2142 418 388 365 332 
2143 24 399 419 128 
2144 399 39 38 146 
2145 436 422 119 440 
2146 419 25 24 128 
2147 419 39 25 128 
2148 422 32 440 306 
2149 311 420 310 29 
2150 32 440 306 31 
2151 310 6 29 420 
2152 440 306 31 396 
2153 311 420 29 396 
2154 26 389 27 130 
2155 396 311 44 45 
2156 26 389 398 125 
2157 398 124 26 125 
2158 321 102 435 101 
2159 389 138 125 140 
2160 389 138 140 40 
2161 439 387 2 129 
2162 127 390 27 421 
2163 421 42 127 390 
2164 136 421 150 115 
2165 27 28 127 421 
2166 396 46 306 397 
2167 435 395 321 355 
2168 46 396 436 147 
2169 435 395 102 321 
2170 435 415 321 101 
2171 387 442 129 439 
2172 4 439 129 442 
2173 305 392 8 33 
2174 387 442 439 21 
2175 422 32 119 440 
2176 422 32 306 308 
2177 422 47 308 306 
2178 15 47 308 422 
2179 439 2 4 129 
2180 423 43 359 377 
2181 43 141 423 135 
2182 43 3 423 359 
2183 135 3 423 43 
2184 377 43 141 423 
2185 405 139 37 400 
2186 405 149 133 126 
2187 25 39 419 398 
2188 405 139 114 37 
2189 139 405 51 444 
2190 422 392 8 15 
2191 8 392 422 123 
2192 24 387 38 129 
2193 2 387 24 129 
2194 435 415 355 321 
2195 387 442 38 129 
2196 141 399 387 38 
2197 110 387 2 439 
2198 424 316 96 331 
2199 424 95 331 96 
2200 401 331 353 424 
2201 401 331 424 95 
2202 37 53 425 372 
2203 425 413 372 53 
2204 425 17 53 37 
2205 53 17 425 90 
2206 425 413 53 90 
2207 120 142 111 406 
2208 141 399 143 23 
2209 50 407 142 406 
2210 142 49 50 406 
2211 110 21 387 439 
2212 407 111 142 406 
2213 387 399 24 38 
2214 98 99 318 426 
2215 387 399 141 23 
2216 426 334 99 318 
2217 426 334 318 368 
2218 51 405 133 407 
2219 133 50 51 407 
2220 407 155 111 126 
2221 401 329 427 362 
2222 405 126 133 407 
2223 401 329 94 427 
2224 427 20 329 94 
2225 427 313 329 20 
2226 309 7 14 397 
2227 427 313 20 403 
2228 57 428 438 360 
2229 428 284 80 245 
2230 428 284 245 360 
2231 428 79 438 245 
2232 242 411 429 386 
2233 397 307 31 7 
2234 242 411 83 429 
2235 143 399 141 38 
2236 284 350 243 295 
2237 430 411 350 60 
2238 430 284 243 81 
2239 81 82 243 430 
2240 430 411 60 82 
2241 430 284 81 409 
2242 398 26 25 131 
2243 431 433 87 65 
2244 431 433 65 357 
2245 431 88 240 262 
2246 431 88 87 240 
2247 432 374 242 386 
2248 432 429 84 62 
2249 432 429 62 386 
2250 85 283 84 432 
2251 412 283 85 432 
2252 412 283 432 352 
2253 431 280 433 357 
2254 431 280 87 433 
2255 413 408 255 89 
2256 255 413 372 345 
2257 413 408 89 67 
2258 433 241 280 86 
2259 433 87 86 280 
2260 432 242 429 386 
2261 433 241 86 412 
2262 244 410 344 384 
2263 244 443 282 344 
2264 244 443 344 410 
2265 432 242 84 429 
2266 84 242 83 429 
2267 434 410 55 77 
2268 253 434 303 384 
2269 434 77 11 303 
$EndElements
