ISO-10303-21;
HEADER;
FILE_DESCRIPTION(('Open CASCADE Model'),'2;1');
FILE_NAME('Open CASCADE Shape Model','2026-05-03T01:08:31',('Author'),(
    'Open CASCADE'),'Open CASCADE STEP processor 7.9','Open CASCADE 7.9'
  ,'Unknown');
FILE_SCHEMA(('AUTOMOTIVE_DESIGN { 1 0 10303 214 1 1 1 1 }'));
ENDSEC;
DATA;
#1 = APPLICATION_PROTOCOL_DEFINITION('international standard',
  'automotive_design',2000,#2);
#2 = APPLICATION_CONTEXT(
  'core data for automotive mechanical design processes');
#3 = SHAPE_DEFINITION_REPRESENTATION(#4,#10);
#4 = PRODUCT_DEFINITION_SHAPE('','',#5);
#5 = PRODUCT_DEFINITION('design','',#6,#9);
#6 = PRODUCT_DEFINITION_FORMATION('','',#7);
#7 = PRODUCT('Open CASCADE STEP translator 7.9 1',
  'Open CASCADE STEP translator 7.9 1','',(#8));
#8 = PRODUCT_CONTEXT('',#2,'mechanical');
#9 = PRODUCT_DEFINITION_CONTEXT('part definition',#2,'design');
#10 = ADVANCED_BREP_SHAPE_REPRESENTATION('',(#11,#15),#1542);
#11 = AXIS2_PLACEMENT_3D('',#12,#13,#14);
#12 = CARTESIAN_POINT('',(0.,0.,0.));
#13 = DIRECTION('',(0.,0.,1.));
#14 = DIRECTION('',(1.,0.,-0.));
#15 = MANIFOLD_SOLID_BREP('',#16);
#16 = CLOSED_SHELL('',(#17,#147,#348,#397,#566,#813,#861,#1078,#1105,
    #1132,#1139,#1164,#1299,#1348,#1446,#1450,#1477,#1481,#1508,#1535));
#17 = ADVANCED_FACE('',(#18),#32,.T.);
#18 = FACE_BOUND('',#19,.T.);
#19 = EDGE_LOOP('',(#20,#55,#93,#121));
#20 = ORIENTED_EDGE('',*,*,#21,.F.);
#21 = EDGE_CURVE('',#22,#24,#26,.T.);
#22 = VERTEX_POINT('',#23);
#23 = CARTESIAN_POINT('',(-5.64,-9.354759354815,17.449948933049));
#24 = VERTEX_POINT('',#25);
#25 = CARTESIAN_POINT('',(-5.64,-9.969799110315,17.915099846816));
#26 = SURFACE_CURVE('',#27,(#31,#43),.PCURVE_S1.);
#27 = LINE('',#28,#29);
#28 = CARTESIAN_POINT('',(-5.64,9.969799110315,2.834900153184));
#29 = VECTOR('',#30,1.);
#30 = DIRECTION('',(-7.105427357601E-17,-0.797583928825,0.603207987745)
  );
#31 = PCURVE('',#32,#37);
#32 = PLANE('',#33);
#33 = AXIS2_PLACEMENT_3D('',#34,#35,#36);
#34 = CARTESIAN_POINT('',(-5.64,9.969799110315,2.834900153184));
#35 = DIRECTION('',(1.,-1.012317299855E-16,-1.605835390839E-17));
#36 = DIRECTION('',(-7.105427357601E-17,-0.797583928825,0.603207987745)
  );
#37 = DEFINITIONAL_REPRESENTATION('',(#38),#42);
#38 = LINE('',#39,#40);
#39 = CARTESIAN_POINT('',(0.,-0.));
#40 = VECTOR('',#41,1.);
#41 = DIRECTION('',(1.,-8.93036204381E-18));
#42 = ( GEOMETRIC_REPRESENTATION_CONTEXT(2) 
PARAMETRIC_REPRESENTATION_CONTEXT() REPRESENTATION_CONTEXT('2D SPACE',''
  ) );
#43 = PCURVE('',#44,#49);
#44 = PLANE('',#45);
#45 = AXIS2_PLACEMENT_3D('',#46,#47,#48);
#46 = CARTESIAN_POINT('',(-33.4466887866,3.762138931426E-15,10.375));
#47 = DIRECTION('',(-0.,-0.603207987745,-0.797583928825));
#48 = DIRECTION('',(0.,-0.797583928825,0.603207987745));
#49 = DEFINITIONAL_REPRESENTATION('',(#50),#54);
#50 = LINE('',#51,#52);
#51 = CARTESIAN_POINT('',(-12.5,-27.8066887866));
#52 = VECTOR('',#53,1.);
#53 = DIRECTION('',(1.,7.105427357601E-17));
#54 = ( GEOMETRIC_REPRESENTATION_CONTEXT(2) 
PARAMETRIC_REPRESENTATION_CONTEXT() REPRESENTATION_CONTEXT('2D SPACE',''
  ) );
#55 = ORIENTED_EDGE('',*,*,#56,.T.);
#56 = EDGE_CURVE('',#22,#57,#59,.T.);
#57 = VERTEX_POINT('',#58);
#58 = CARTESIAN_POINT('',(-5.64,-1.439356543202,20.42815061436));
#59 = SURFACE_CURVE('',#60,(#65,#72),.PCURVE_S1.);
#60 = HYPERBOLA('',#61,3.291828793774,5.64);
#61 = AXIS2_PLACEMENT_3D('',#62,#63,#64);
#62 = CARTESIAN_POINT('',(-5.64,5.709469571181E-16,23.825486381323));
#63 = DIRECTION('',(1.,-1.012317299855E-16,-1.605835390839E-17));
#64 = DIRECTION('',(-1.605835390839E-17,1.625614946866E-33,-1.));
#65 = PCURVE('',#32,#66);
#66 = DEFINITIONAL_REPRESENTATION('',(#67),#71);
#67 = ( BOUNDED_CURVE() B_SPLINE_CURVE(2,(#68,#69,#70),.UNSPECIFIED.,.F.
,.F.) B_SPLINE_CURVE_WITH_KNOTS((3,3),(-1.342986234223,-6.7941161701E-02
),.PIECEWISE_BEZIER_KNOTS.) CURVE() GEOMETRIC_REPRESENTATION_ITEM() 
RATIONAL_B_SPLINE_CURVE((1.,1.210194311741,1.)) REPRESENTATION_ITEM('') 
  );
#68 = CARTESIAN_POINT('',(24.579499753323,0.715));
#69 = CARTESIAN_POINT('',(21.392398577667,-5.843939183565));
#70 = CARTESIAN_POINT('',(18.929058633016,-7.865));
#71 = ( GEOMETRIC_REPRESENTATION_CONTEXT(2) 
PARAMETRIC_REPRESENTATION_CONTEXT() REPRESENTATION_CONTEXT('2D SPACE',''
  ) );
#72 = PCURVE('',#73,#78);
#73 = CONICAL_SURFACE('',#74,16.92,1.042479981905);
#74 = AXIS2_PLACEMENT_3D('',#75,#76,#77);
#75 = CARTESIAN_POINT('',(0.,0.,13.95));
#76 = DIRECTION('',(-0.,-0.,-1.));
#77 = DIRECTION('',(1.,0.,0.));
#78 = DEFINITIONAL_REPRESENTATION('',(#79),#92);
#79 = B_SPLINE_CURVE_WITH_KNOTS('',6,(#80,#81,#82,#83,#84,#85,#86,#87,
    #88,#89,#90,#91),.UNSPECIFIED.,.F.,.F.,(7,5,7),(-1.342986234223,
    -0.705463697962,-6.7941161701E-02),.UNSPECIFIED.);
#80 = CARTESIAN_POINT('',(-4.201658434685,-3.141178230062));
#81 = CARTESIAN_POINT('',(-4.149720037194,-3.765411310308));
#82 = CARTESIAN_POINT('',(-4.092003882285,-4.298409314491));
#83 = CARTESIAN_POINT('',(-4.027962119656,-4.752856229767));
#84 = CARTESIAN_POINT('',(-3.957118372619,-5.138353121728));
#85 = CARTESIAN_POINT('',(-3.879283580602,-5.462247780586));
#86 = CARTESIAN_POINT('',(-3.71053742074,-5.997711453148));
#87 = CARTESIAN_POINT('',(-3.61962496391,-6.209280726477));
#88 = CARTESIAN_POINT('',(-3.522624643208,-6.370127691796));
#89 = CARTESIAN_POINT('',(-3.420582570364,-6.483792925032));
#90 = CARTESIAN_POINT('',(-3.315490599192,-6.552275110897));
#91 = CARTESIAN_POINT('',(-3.209481606112,-6.576057121328));
#92 = ( GEOMETRIC_REPRESENTATION_CONTEXT(2) 
PARAMETRIC_REPRESENTATION_CONTEXT() REPRESENTATION_CONTEXT('2D SPACE',''
  ) );
#93 = ORIENTED_EDGE('',*,*,#94,.T.);
#94 = EDGE_CURVE('',#57,#95,#97,.T.);
#95 = VERTEX_POINT('',#96);
#96 = CARTESIAN_POINT('',(-5.64,-5.656861997937,23.617824937916));
#97 = SURFACE_CURVE('',#98,(#102,#109),.PCURVE_S1.);
#98 = LINE('',#99,#100);
#99 = CARTESIAN_POINT('',(-5.64,14.282736222694,8.537625244284));
#100 = VECTOR('',#101,1.);
#101 = DIRECTION('',(-7.105427357601E-17,-0.797583928825,0.603207987745)
  );
#102 = PCURVE('',#32,#103);
#103 = DEFINITIONAL_REPRESENTATION('',(#104),#108);
#104 = LINE('',#105,#106);
#105 = CARTESIAN_POINT('',(6.786252456444E-17,-7.15));
#106 = VECTOR('',#107,1.);
#107 = DIRECTION('',(1.,-8.93036204381E-18));
#108 = ( GEOMETRIC_REPRESENTATION_CONTEXT(2) 
PARAMETRIC_REPRESENTATION_CONTEXT() REPRESENTATION_CONTEXT('2D SPACE',''
  ) );
#109 = PCURVE('',#110,#115);
#110 = PLANE('',#111);
#111 = AXIS2_PLACEMENT_3D('',#112,#113,#114);
#112 = CARTESIAN_POINT('',(-33.4466887866,4.312937112379,16.0777250911)
  );
#113 = DIRECTION('',(-0.,-0.603207987745,-0.797583928825));
#114 = DIRECTION('',(0.,-0.797583928825,0.603207987745));
#115 = DEFINITIONAL_REPRESENTATION('',(#116),#120);
#116 = LINE('',#117,#118);
#117 = CARTESIAN_POINT('',(-12.5,-27.8066887866));
#118 = VECTOR('',#119,1.);
#119 = DIRECTION('',(1.,7.105427357601E-17));
#120 = ( GEOMETRIC_REPRESENTATION_CONTEXT(2) 
PARAMETRIC_REPRESENTATION_CONTEXT() REPRESENTATION_CONTEXT('2D SPACE',''
  ) );
#121 = ORIENTED_EDGE('',*,*,#122,.F.);
#122 = EDGE_CURVE('',#24,#95,#123,.T.);
#123 = SURFACE_CURVE('',#124,(#128,#135),.PCURVE_S1.);
#124 = LINE('',#125,#126);
#125 = CARTESIAN_POINT('',(-5.64,-9.969799110315,17.915099846816));
#126 = VECTOR('',#127,1.);
#127 = DIRECTION('',(7.387167314124E-17,0.603207987745,0.797583928825));
#128 = PCURVE('',#32,#129);
#129 = DEFINITIONAL_REPRESENTATION('',(#130),#134);
#130 = LINE('',#131,#132);
#131 = CARTESIAN_POINT('',(25.,-7.875951291609E-16));
#132 = VECTOR('',#133,1.);
#133 = DIRECTION('',(-1.020919404187E-16,-1.));
#134 = ( GEOMETRIC_REPRESENTATION_CONTEXT(2) 
PARAMETRIC_REPRESENTATION_CONTEXT() REPRESENTATION_CONTEXT('2D SPACE',''
  ) );
#135 = PCURVE('',#136,#141);
#136 = PLANE('',#137);
#137 = AXIS2_PLACEMENT_3D('',#138,#139,#140);
#138 = CARTESIAN_POINT('',(-5.64,-9.969799110315,17.915099846816));
#139 = DIRECTION('',(-7.635879778443E-02,-0.795255306761,0.60144686471)
  );
#140 = DIRECTION('',(-0.997080404983,6.090254993727E-02,
    -4.606023675819E-02));
#141 = DEFINITIONAL_REPRESENTATION('',(#142),#146);
#142 = LINE('',#143,#144);
#143 = CARTESIAN_POINT('',(0.,-0.));
#144 = VECTOR('',#145,1.);
#145 = DIRECTION('',(2.33167829896E-17,-1.));
#146 = ( GEOMETRIC_REPRESENTATION_CONTEXT(2) 
PARAMETRIC_REPRESENTATION_CONTEXT() REPRESENTATION_CONTEXT('2D SPACE',''
  ) );
#147 = ADVANCED_FACE('',(#148),#44,.T.);
#148 = FACE_BOUND('',#149,.T.);
#149 = EDGE_LOOP('',(#150,#183,#184,#207,#235,#263,#291,#324));
#150 = ORIENTED_EDGE('',*,*,#151,.T.);
#151 = EDGE_CURVE('',#152,#22,#154,.T.);
#152 = VERTEX_POINT('',#153);
#153 = CARTESIAN_POINT('',(-16.24628869227,-4.726997326757,13.95));
#154 = SURFACE_CURVE('',#155,(#160,#167),.PCURVE_S1.);
#155 = HYPERBOLA('',#156,42.549851619102,27.965793653382);
#156 = AXIS2_PLACEMENT_3D('',#157,#158,#159);
#157 = CARTESIAN_POINT('',(0.,-43.97511644081,43.633119353284));
#158 = DIRECTION('',(0.,-0.603207987745,-0.797583928825));
#159 = DIRECTION('',(0.,0.797583928825,-0.603207987745));
#160 = PCURVE('',#44,#161);
#161 = DEFINITIONAL_REPRESENTATION('',(#162),#166);
#162 = ( BOUNDED_CURVE() B_SPLINE_CURVE(2,(#163,#164,#165),
.UNSPECIFIED.,.F.,.F.) B_SPLINE_CURVE_WITH_KNOTS((3,3),(-0.552407594246,
2.931733517384E-02),.PIECEWISE_BEZIER_KNOTS.) CURVE() 
GEOMETRIC_REPRESENTATION_ITEM() RATIONAL_B_SPLINE_CURVE((1.,
1.042599550818,1.)) REPRESENTATION_ITEM('') );
#163 = CARTESIAN_POINT('',(5.92664565561,-17.20040009433));
#164 = CARTESIAN_POINT('',(12.920259675836,-26.35097005668));
#165 = CARTESIAN_POINT('',(12.567270534426,-34.2666887866));
#166 = ( GEOMETRIC_REPRESENTATION_CONTEXT(2) 
PARAMETRIC_REPRESENTATION_CONTEXT() REPRESENTATION_CONTEXT('2D SPACE',''
  ) );
#167 = PCURVE('',#73,#168);
#168 = DEFINITIONAL_REPRESENTATION('',(#169),#182);
#169 = B_SPLINE_CURVE_WITH_KNOTS('',6,(#170,#171,#172,#173,#174,#175,
    #176,#177,#178,#179,#180,#181),.UNSPECIFIED.,.F.,.F.,(7,5,7),(
    -0.552407594246,-0.261545129536,2.931733517384E-02),.UNSPECIFIED.);
#170 = CARTESIAN_POINT('',(-3.424734079528,9.027324732409E-16));
#171 = CARTESIAN_POINT('',(-3.504858189748,-0.722817370364));
#172 = CARTESIAN_POINT('',(-3.592020800741,-1.361927725079));
#173 = CARTESIAN_POINT('',(-3.686741141554,-1.920386916486));
#174 = CARTESIAN_POINT('',(-3.789402789154,-2.400665757496));
#175 = CARTESIAN_POINT('',(-3.899897072659,-2.804681100713));
#176 = CARTESIAN_POINT('',(-4.134635882458,-3.462972734398));
#177 = CARTESIAN_POINT('',(-4.258880672721,-3.717248685831));
#178 = CARTESIAN_POINT('',(-4.389058656919,-3.898047069538));
#179 = CARTESIAN_POINT('',(-4.523406807665,-4.006232369713));
#180 = CARTESIAN_POINT('',(-4.659212892048,-4.042160779299));
#181 = CARTESIAN_POINT('',(-4.794015342813,-4.005677970522));
#182 = ( GEOMETRIC_REPRESENTATION_CONTEXT(2) 
PARAMETRIC_REPRESENTATION_CONTEXT() REPRESENTATION_CONTEXT('2D SPACE',''
  ) );
#183 = ORIENTED_EDGE('',*,*,#21,.T.);
#184 = ORIENTED_EDGE('',*,*,#185,.T.);
#185 = EDGE_CURVE('',#24,#186,#188,.T.);
#186 = VERTEX_POINT('',#187);
#187 = CARTESIAN_POINT('',(-52.152,-7.12880515584,15.766472994467));
#188 = SURFACE_CURVE('',#189,(#193,#200),.PCURVE_S1.);
#189 = LINE('',#190,#191);
#190 = CARTESIAN_POINT('',(-5.64,-9.969799110315,17.915099846816));
#191 = VECTOR('',#192,1.);
#192 = DIRECTION('',(-0.997080404983,6.090254993727E-02,
    -4.606023675819E-02));
#193 = PCURVE('',#44,#194);
#194 = DEFINITIONAL_REPRESENTATION('',(#195),#199);
#195 = LINE('',#196,#197);
#196 = CARTESIAN_POINT('',(12.5,-27.8066887866));
#197 = VECTOR('',#198,1.);
#198 = DIRECTION('',(-7.635879778443E-02,0.997080404983));
#199 = ( GEOMETRIC_REPRESENTATION_CONTEXT(2) 
PARAMETRIC_REPRESENTATION_CONTEXT() REPRESENTATION_CONTEXT('2D SPACE',''
  ) );
#200 = PCURVE('',#136,#201);
#201 = DEFINITIONAL_REPRESENTATION('',(#202),#206);
#202 = LINE('',#203,#204);
#203 = CARTESIAN_POINT('',(0.,-0.));
#204 = VECTOR('',#205,1.);
#205 = DIRECTION('',(1.,-1.314816507632E-17));
#206 = ( GEOMETRIC_REPRESENTATION_CONTEXT(2) 
PARAMETRIC_REPRESENTATION_CONTEXT() REPRESENTATION_CONTEXT('2D SPACE',''
  ) );
#207 = ORIENTED_EDGE('',*,*,#208,.T.);
#208 = EDGE_CURVE('',#186,#209,#211,.T.);
#209 = VERTEX_POINT('',#210);
#210 = CARTESIAN_POINT('',(-70.24,8.601919117211E-15,10.375));
#211 = SURFACE_CURVE('',#212,(#216,#223),.PCURVE_S1.);
#212 = LINE('',#213,#214);
#213 = CARTESIAN_POINT('',(-52.152,-7.12880515584,15.766472994467));
#214 = VECTOR('',#215,1.);
#215 = DIRECTION('',(-0.896518841362,0.353334151847,-0.267224520247));
#216 = PCURVE('',#44,#217);
#217 = DEFINITIONAL_REPRESENTATION('',(#218),#222);
#218 = LINE('',#219,#220);
#219 = CARTESIAN_POINT('',(8.938,18.705311213392));
#220 = VECTOR('',#221,1.);
#221 = DIRECTION('',(-0.443005606153,0.896518841362));
#222 = ( GEOMETRIC_REPRESENTATION_CONTEXT(2) 
PARAMETRIC_REPRESENTATION_CONTEXT() REPRESENTATION_CONTEXT('2D SPACE',''
  ) );
#223 = PCURVE('',#224,#229);
#224 = PLANE('',#225);
#225 = AXIS2_PLACEMENT_3D('',#226,#227,#228);
#226 = CARTESIAN_POINT('',(-52.152,-7.12880515584,15.766472994467));
#227 = DIRECTION('',(-0.443005606153,-0.715049019759,0.540787326274));
#228 = DIRECTION('',(-0.896518841362,0.353334151847,-0.267224520247));
#229 = DEFINITIONAL_REPRESENTATION('',(#230),#234);
#230 = LINE('',#231,#232);
#231 = CARTESIAN_POINT('',(0.,-0.));
#232 = VECTOR('',#233,1.);
#233 = DIRECTION('',(1.,-4.108830745367E-17));
#234 = ( GEOMETRIC_REPRESENTATION_CONTEXT(2) 
PARAMETRIC_REPRESENTATION_CONTEXT() REPRESENTATION_CONTEXT('2D SPACE',''
  ) );
#235 = ORIENTED_EDGE('',*,*,#236,.T.);
#236 = EDGE_CURVE('',#209,#237,#239,.T.);
#237 = VERTEX_POINT('',#238);
#238 = CARTESIAN_POINT('',(-52.152,7.12880515584,4.983527005533));
#239 = SURFACE_CURVE('',#240,(#244,#251),.PCURVE_S1.);
#240 = LINE('',#241,#242);
#241 = CARTESIAN_POINT('',(-70.24,8.601919117211E-15,10.375));
#242 = VECTOR('',#243,1.);
#243 = DIRECTION('',(0.896518841362,0.353334151847,-0.267224520247));
#244 = PCURVE('',#44,#245);
#245 = DEFINITIONAL_REPRESENTATION('',(#246),#250);
#246 = LINE('',#247,#248);
#247 = CARTESIAN_POINT('',(-2.845464599372E-15,36.793311213392));
#248 = VECTOR('',#249,1.);
#249 = DIRECTION('',(-0.443005606153,-0.896518841362));
#250 = ( GEOMETRIC_REPRESENTATION_CONTEXT(2) 
PARAMETRIC_REPRESENTATION_CONTEXT() REPRESENTATION_CONTEXT('2D SPACE',''
  ) );
#251 = PCURVE('',#252,#257);
#252 = PLANE('',#253);
#253 = AXIS2_PLACEMENT_3D('',#254,#255,#256);
#254 = CARTESIAN_POINT('',(-70.24,8.601919117211E-15,10.375));
#255 = DIRECTION('',(-0.443005606153,0.715049019759,-0.540787326274));
#256 = DIRECTION('',(0.896518841362,0.353334151847,-0.267224520247));
#257 = DEFINITIONAL_REPRESENTATION('',(#258),#262);
#258 = LINE('',#259,#260);
#259 = CARTESIAN_POINT('',(0.,-0.));
#260 = VECTOR('',#261,1.);
#261 = DIRECTION('',(1.,1.442284377759E-17));
#262 = ( GEOMETRIC_REPRESENTATION_CONTEXT(2) 
PARAMETRIC_REPRESENTATION_CONTEXT() REPRESENTATION_CONTEXT('2D SPACE',''
  ) );
#263 = ORIENTED_EDGE('',*,*,#264,.T.);
#264 = EDGE_CURVE('',#237,#265,#267,.T.);
#265 = VERTEX_POINT('',#266);
#266 = CARTESIAN_POINT('',(-31.1860805768,8.409421993028,4.015004098394)
  );
#267 = SURFACE_CURVE('',#268,(#272,#279),.PCURVE_S1.);
#268 = LINE('',#269,#270);
#269 = CARTESIAN_POINT('',(-52.152,7.12880515584,4.983527005533));
#270 = VECTOR('',#271,1.);
#271 = DIRECTION('',(0.997080404983,6.090254993727E-02,
    -4.606023675819E-02));
#272 = PCURVE('',#44,#273);
#273 = DEFINITIONAL_REPRESENTATION('',(#274),#278);
#274 = LINE('',#275,#276);
#275 = CARTESIAN_POINT('',(-8.938,18.705311213392));
#276 = VECTOR('',#277,1.);
#277 = DIRECTION('',(-7.635879778443E-02,-0.997080404983));
#278 = ( GEOMETRIC_REPRESENTATION_CONTEXT(2) 
PARAMETRIC_REPRESENTATION_CONTEXT() REPRESENTATION_CONTEXT('2D SPACE',''
  ) );
#279 = PCURVE('',#280,#285);
#280 = PLANE('',#281);
#281 = AXIS2_PLACEMENT_3D('',#282,#283,#284);
#282 = CARTESIAN_POINT('',(-52.152,7.12880515584,4.983527005533));
#283 = DIRECTION('',(-7.635879778443E-02,0.795255306761,-0.60144686471)
  );
#284 = DIRECTION('',(0.997080404983,6.090254993727E-02,
    -4.606023675819E-02));
#285 = DEFINITIONAL_REPRESENTATION('',(#286),#290);
#286 = LINE('',#287,#288);
#287 = CARTESIAN_POINT('',(0.,-0.));
#288 = VECTOR('',#289,1.);
#289 = DIRECTION('',(1.,-3.567832503219E-18));
#290 = ( GEOMETRIC_REPRESENTATION_CONTEXT(2) 
PARAMETRIC_REPRESENTATION_CONTEXT() REPRESENTATION_CONTEXT('2D SPACE',''
  ) );
#291 = ORIENTED_EDGE('',*,*,#292,.F.);
#292 = EDGE_CURVE('',#293,#265,#295,.T.);
#293 = VERTEX_POINT('',#294);
#294 = CARTESIAN_POINT('',(-31.95223773498,-4.726997326757,13.95));
#295 = SURFACE_CURVE('',#296,(#301,#308),.PCURVE_S1.);
#296 = ELLIPSE('',#297,40.497305465489,32.3);
#297 = AXIS2_PLACEMENT_3D('',#298,#299,#300);
#298 = CARTESIAN_POINT('',(0.,0.,10.375));
#299 = DIRECTION('',(-0.,-0.603207987745,-0.797583928825));
#300 = DIRECTION('',(0.,-0.797583928825,0.603207987745));
#301 = PCURVE('',#44,#302);
#302 = DEFINITIONAL_REPRESENTATION('',(#303),#307);
#303 = ELLIPSE('',#304,40.497305465489,32.3);
#304 = AXIS2_PLACEMENT_2D('',#305,#306);
#305 = CARTESIAN_POINT('',(6.21515945355E-15,-33.4466887866));
#306 = DIRECTION('',(1.,0.));
#307 = ( GEOMETRIC_REPRESENTATION_CONTEXT(2) 
PARAMETRIC_REPRESENTATION_CONTEXT() REPRESENTATION_CONTEXT('2D SPACE',''
  ) );
#308 = PCURVE('',#309,#314);
#309 = CYLINDRICAL_SURFACE('',#310,32.3);
#310 = AXIS2_PLACEMENT_3D('',#311,#312,#313);
#311 = CARTESIAN_POINT('',(0.,0.,-13.95));
#312 = DIRECTION('',(0.,0.,1.));
#313 = DIRECTION('',(1.,0.,0.));
#314 = DEFINITIONAL_REPRESENTATION('',(#315),#323);
#315 = B_SPLINE_CURVE_WITH_KNOTS('',6,(#316,#317,#318,#319,#320,#321,
    #322),.UNSPECIFIED.,.F.,.F.,(7,7),(1.423922142762,1.950230571761),
  .PIECEWISE_BEZIER_KNOTS.);
#316 = CARTESIAN_POINT('',(3.288466837623,27.9000006));
#317 = CARTESIAN_POINT('',(3.200748766123,25.78026818196));
#318 = CARTESIAN_POINT('',(3.113030694623,23.627526836711));
#319 = CARTESIAN_POINT('',(3.025312623123,21.471132634339));
#320 = CARTESIAN_POINT('',(2.937594551624,19.341214158343));
#321 = CARTESIAN_POINT('',(2.849876480124,17.267275088255));
#322 = CARTESIAN_POINT('',(2.762158408624,15.276880183821));
#323 = ( GEOMETRIC_REPRESENTATION_CONTEXT(2) 
PARAMETRIC_REPRESENTATION_CONTEXT() REPRESENTATION_CONTEXT('2D SPACE',''
  ) );
#324 = ORIENTED_EDGE('',*,*,#325,.T.);
#325 = EDGE_CURVE('',#293,#152,#326,.T.);
#326 = SURFACE_CURVE('',#327,(#331,#337),.PCURVE_S1.);
#327 = LINE('',#328,#329);
#328 = CARTESIAN_POINT('',(-16.7233443933,-4.726997326757,13.95));
#329 = VECTOR('',#330,1.);
#330 = DIRECTION('',(1.,0.,0.));
#331 = PCURVE('',#44,#332);
#332 = DEFINITIONAL_REPRESENTATION('',(#333),#336);
#333 = B_SPLINE_CURVE_WITH_KNOTS('',1,(#334,#335),.UNSPECIFIED.,.F.,.F.,
  (2,2),(-15.57665560669,11.083344393304),.PIECEWISE_BEZIER_KNOTS.);
#334 = CARTESIAN_POINT('',(5.92664565561,-1.146688786608));
#335 = CARTESIAN_POINT('',(5.92664565561,-27.8066887866));
#336 = ( GEOMETRIC_REPRESENTATION_CONTEXT(2) 
PARAMETRIC_REPRESENTATION_CONTEXT() REPRESENTATION_CONTEXT('2D SPACE',''
  ) );
#337 = PCURVE('',#338,#343);
#338 = PLANE('',#339);
#339 = AXIS2_PLACEMENT_3D('',#340,#341,#342);
#340 = CARTESIAN_POINT('',(0.,0.,13.95));
#341 = DIRECTION('',(0.,0.,1.));
#342 = DIRECTION('',(1.,0.,0.));
#343 = DEFINITIONAL_REPRESENTATION('',(#344),#347);
#344 = B_SPLINE_CURVE_WITH_KNOTS('',1,(#345,#346),.UNSPECIFIED.,.F.,.F.,
  (2,2),(-15.57665560669,11.083344393304),.PIECEWISE_BEZIER_KNOTS.);
#345 = CARTESIAN_POINT('',(-32.3,-4.726997326757));
#346 = CARTESIAN_POINT('',(-5.64,-4.726997326757));
#347 = ( GEOMETRIC_REPRESENTATION_CONTEXT(2) 
PARAMETRIC_REPRESENTATION_CONTEXT() REPRESENTATION_CONTEXT('2D SPACE',''
  ) );
#348 = ADVANCED_FACE('',(#349),#136,.T.);
#349 = FACE_BOUND('',#350,.T.);
#350 = EDGE_LOOP('',(#351,#352,#375,#396));
#351 = ORIENTED_EDGE('',*,*,#122,.T.);
#352 = ORIENTED_EDGE('',*,*,#353,.T.);
#353 = EDGE_CURVE('',#95,#354,#356,.T.);
#354 = VERTEX_POINT('',#355);
#355 = CARTESIAN_POINT('',(-52.152,-2.815868043461,21.469198085568));
#356 = SURFACE_CURVE('',#357,(#361,#368),.PCURVE_S1.);
#357 = LINE('',#358,#359);
#358 = CARTESIAN_POINT('',(-5.64,-5.656861997937,23.617824937916));
#359 = VECTOR('',#360,1.);
#360 = DIRECTION('',(-0.997080404983,6.090254993727E-02,
    -4.606023675819E-02));
#361 = PCURVE('',#136,#362);
#362 = DEFINITIONAL_REPRESENTATION('',(#363),#367);
#363 = LINE('',#364,#365);
#364 = CARTESIAN_POINT('',(-1.490895162522E-16,-7.15));
#365 = VECTOR('',#366,1.);
#366 = DIRECTION('',(1.,-1.314816507632E-17));
#367 = ( GEOMETRIC_REPRESENTATION_CONTEXT(2) 
PARAMETRIC_REPRESENTATION_CONTEXT() REPRESENTATION_CONTEXT('2D SPACE',''
  ) );
#368 = PCURVE('',#110,#369);
#369 = DEFINITIONAL_REPRESENTATION('',(#370),#374);
#370 = LINE('',#371,#372);
#371 = CARTESIAN_POINT('',(12.5,-27.8066887866));
#372 = VECTOR('',#373,1.);
#373 = DIRECTION('',(-7.635879778443E-02,0.997080404983));
#374 = ( GEOMETRIC_REPRESENTATION_CONTEXT(2) 
PARAMETRIC_REPRESENTATION_CONTEXT() REPRESENTATION_CONTEXT('2D SPACE',''
  ) );
#375 = ORIENTED_EDGE('',*,*,#376,.F.);
#376 = EDGE_CURVE('',#186,#354,#377,.T.);
#377 = SURFACE_CURVE('',#378,(#382,#389),.PCURVE_S1.);
#378 = LINE('',#379,#380);
#379 = CARTESIAN_POINT('',(-52.152,-7.12880515584,15.766472994467));
#380 = VECTOR('',#381,1.);
#381 = DIRECTION('',(7.387167314124E-17,0.603207987745,0.797583928825));
#382 = PCURVE('',#136,#383);
#383 = DEFINITIONAL_REPRESENTATION('',(#384),#388);
#384 = LINE('',#385,#386);
#385 = CARTESIAN_POINT('',(46.648193834274,-7.672705610087E-16));
#386 = VECTOR('',#387,1.);
#387 = DIRECTION('',(2.33167829896E-17,-1.));
#388 = ( GEOMETRIC_REPRESENTATION_CONTEXT(2) 
PARAMETRIC_REPRESENTATION_CONTEXT() REPRESENTATION_CONTEXT('2D SPACE',''
  ) );
#389 = PCURVE('',#224,#390);
#390 = DEFINITIONAL_REPRESENTATION('',(#391),#395);
#391 = LINE('',#392,#393);
#392 = CARTESIAN_POINT('',(0.,-0.));
#393 = VECTOR('',#394,1.);
#394 = DIRECTION('',(-1.633514967426E-17,-1.));
#395 = ( GEOMETRIC_REPRESENTATION_CONTEXT(2) 
PARAMETRIC_REPRESENTATION_CONTEXT() REPRESENTATION_CONTEXT('2D SPACE',''
  ) );
#396 = ORIENTED_EDGE('',*,*,#185,.F.);
#397 = ADVANCED_FACE('',(#398),#110,.F.);
#398 = FACE_BOUND('',#399,.F.);
#399 = EDGE_LOOP('',(#400,#444,#445,#446,#469,#492,#515,#542));
#400 = ORIENTED_EDGE('',*,*,#401,.T.);
#401 = EDGE_CURVE('',#402,#57,#404,.T.);
#402 = VERTEX_POINT('',#403);
#403 = CARTESIAN_POINT('',(-15.34608530039,7.126293984464,13.95));
#404 = SURFACE_CURVE('',#405,(#410,#417),.PCURVE_S1.);
#405 = HYPERBOLA('',#406,14.190930264873,9.32695679152);
#406 = AXIS2_PLACEMENT_3D('',#407,#408,#409);
#407 = CARTESIAN_POINT('',(0.,-14.66627466501,30.431590222379));
#408 = DIRECTION('',(0.,-0.603207987745,-0.797583928825));
#409 = DIRECTION('',(0.,0.797583928825,-0.603207987745));
#410 = PCURVE('',#110,#411);
#411 = DEFINITIONAL_REPRESENTATION('',(#412),#416);
#412 = ( BOUNDED_CURVE() B_SPLINE_CURVE(2,(#413,#414,#415),
.UNSPECIFIED.,.F.,.F.) B_SPLINE_CURVE_WITH_KNOTS((3,3),(-1.272775207477,
8.780434171364E-02),.PIECEWISE_BEZIER_KNOTS.) CURVE() 
GEOMETRIC_REPRESENTATION_ITEM() RATIONAL_B_SPLINE_CURVE((1.,
1.240460001816,1.)) REPRESENTATION_ITEM('') );
#413 = CARTESIAN_POINT('',(-3.527348997903,-18.10060348621));
#414 = CARTESIAN_POINT('',(10.288442305527,-28.72656852323));
#415 = CARTESIAN_POINT('',(9.550211763532,-34.2666887866));
#416 = ( GEOMETRIC_REPRESENTATION_CONTEXT(2) 
PARAMETRIC_REPRESENTATION_CONTEXT() REPRESENTATION_CONTEXT('2D SPACE',''
  ) );
#417 = PCURVE('',#73,#418);
#418 = DEFINITIONAL_REPRESENTATION('',(#419),#443);
#419 = B_SPLINE_CURVE_WITH_KNOTS('',8,(#420,#421,#422,#423,#424,#425,
    #426,#427,#428,#429,#430,#431,#432,#433,#434,#435,#436,#437,#438,
    #439,#440,#441,#442),.UNSPECIFIED.,.F.,.F.,(9,7,7,9),(
    -1.272775207477,-0.592485432882,-0.252340545584,8.780434171364E-02),
  .UNSPECIFIED.);
#420 = CARTESIAN_POINT('',(-2.706851367465,-3.352146583968E-15));
#421 = CARTESIAN_POINT('',(-2.753726613722,-1.197676557278));
#422 = CARTESIAN_POINT('',(-2.807098634437,-2.259146257925));
#423 = CARTESIAN_POINT('',(-2.868209174231,-3.197606187939));
#424 = CARTESIAN_POINT('',(-2.938605884002,-4.024152258015));
#425 = CARTESIAN_POINT('',(-3.020300240488,-4.748084513002));
#426 = CARTESIAN_POINT('',(-3.115738488987,-5.377131658212));
#427 = CARTESIAN_POINT('',(-3.228240935083,-5.917617415751));
#428 = CARTESIAN_POINT('',(-3.42658191001,-6.603056760161));
#429 = CARTESIAN_POINT('',(-3.497626500413,-6.810654993105));
#430 = CARTESIAN_POINT('',(-3.573936026119,-6.998001076683));
#431 = CARTESIAN_POINT('',(-3.655796772185,-7.165643879165));
#432 = CARTESIAN_POINT('',(-3.743416810151,-7.314055375149));
#433 = CARTESIAN_POINT('',(-3.836825388822,-7.443633515923));
#434 = CARTESIAN_POINT('',(-3.935766970658,-7.554704381726));
#435 = CARTESIAN_POINT('',(-4.143542375775,-7.740342947664));
#436 = CARTESIAN_POINT('',(-4.252377151888,-7.814910647794));
#437 = CARTESIAN_POINT('',(-4.365568924108,-7.871482456594));
#438 = CARTESIAN_POINT('',(-4.482222129173,-7.910243677364));
#439 = CARTESIAN_POINT('',(-4.601049815023,-7.931310700848));
#440 = CARTESIAN_POINT('',(-4.720530715922,-7.934731810973));
#441 = CARTESIAN_POINT('',(-4.839160271484,-7.920487329887));
#442 = CARTESIAN_POINT('',(-4.955646555353,-7.888489111522));
#443 = ( GEOMETRIC_REPRESENTATION_CONTEXT(2) 
PARAMETRIC_REPRESENTATION_CONTEXT() REPRESENTATION_CONTEXT('2D SPACE',''
  ) );
#444 = ORIENTED_EDGE('',*,*,#94,.T.);
#445 = ORIENTED_EDGE('',*,*,#353,.T.);
#446 = ORIENTED_EDGE('',*,*,#447,.T.);
#447 = EDGE_CURVE('',#354,#448,#450,.T.);
#448 = VERTEX_POINT('',#449);
#449 = CARTESIAN_POINT('',(-70.24,4.312937112379,16.0777250911));
#450 = SURFACE_CURVE('',#451,(#455,#462),.PCURVE_S1.);
#451 = LINE('',#452,#453);
#452 = CARTESIAN_POINT('',(-52.152,-2.815868043461,21.469198085568));
#453 = VECTOR('',#454,1.);
#454 = DIRECTION('',(-0.896518841362,0.353334151847,-0.267224520247));
#455 = PCURVE('',#110,#456);
#456 = DEFINITIONAL_REPRESENTATION('',(#457),#461);
#457 = LINE('',#458,#459);
#458 = CARTESIAN_POINT('',(8.938,18.705311213392));
#459 = VECTOR('',#460,1.);
#460 = DIRECTION('',(-0.443005606153,0.896518841362));
#461 = ( GEOMETRIC_REPRESENTATION_CONTEXT(2) 
PARAMETRIC_REPRESENTATION_CONTEXT() REPRESENTATION_CONTEXT('2D SPACE',''
  ) );
#462 = PCURVE('',#224,#463);
#463 = DEFINITIONAL_REPRESENTATION('',(#464),#468);
#464 = LINE('',#465,#466);
#465 = CARTESIAN_POINT('',(2.57267524161E-16,-7.15));
#466 = VECTOR('',#467,1.);
#467 = DIRECTION('',(1.,-4.108830745367E-17));
#468 = ( GEOMETRIC_REPRESENTATION_CONTEXT(2) 
PARAMETRIC_REPRESENTATION_CONTEXT() REPRESENTATION_CONTEXT('2D SPACE',''
  ) );
#469 = ORIENTED_EDGE('',*,*,#470,.T.);
#470 = EDGE_CURVE('',#448,#471,#473,.T.);
#471 = VERTEX_POINT('',#472);
#472 = CARTESIAN_POINT('',(-52.152,11.441742268219,10.686252096633));
#473 = SURFACE_CURVE('',#474,(#478,#485),.PCURVE_S1.);
#474 = LINE('',#475,#476);
#475 = CARTESIAN_POINT('',(-70.24,4.312937112379,16.0777250911));
#476 = VECTOR('',#477,1.);
#477 = DIRECTION('',(0.896518841362,0.353334151847,-0.267224520247));
#478 = PCURVE('',#110,#479);
#479 = DEFINITIONAL_REPRESENTATION('',(#480),#484);
#480 = LINE('',#481,#482);
#481 = CARTESIAN_POINT('',(-2.845464599372E-15,36.793311213392));
#482 = VECTOR('',#483,1.);
#483 = DIRECTION('',(-0.443005606153,-0.896518841362));
#484 = ( GEOMETRIC_REPRESENTATION_CONTEXT(2) 
PARAMETRIC_REPRESENTATION_CONTEXT() REPRESENTATION_CONTEXT('2D SPACE',''
  ) );
#485 = PCURVE('',#252,#486);
#486 = DEFINITIONAL_REPRESENTATION('',(#487),#491);
#487 = LINE('',#488,#489);
#488 = CARTESIAN_POINT('',(-4.088662906141E-16,-7.15));
#489 = VECTOR('',#490,1.);
#490 = DIRECTION('',(1.,1.442284377759E-17));
#491 = ( GEOMETRIC_REPRESENTATION_CONTEXT(2) 
PARAMETRIC_REPRESENTATION_CONTEXT() REPRESENTATION_CONTEXT('2D SPACE',''
  ) );
#492 = ORIENTED_EDGE('',*,*,#493,.T.);
#493 = EDGE_CURVE('',#471,#494,#496,.T.);
#494 = VERTEX_POINT('',#495);
#495 = CARTESIAN_POINT('',(-29.64849169014,12.816276389796,
    9.646700105177));
#496 = SURFACE_CURVE('',#497,(#501,#508),.PCURVE_S1.);
#497 = LINE('',#498,#499);
#498 = CARTESIAN_POINT('',(-52.152,11.441742268219,10.686252096633));
#499 = VECTOR('',#500,1.);
#500 = DIRECTION('',(0.997080404983,6.090254993727E-02,
    -4.606023675819E-02));
#501 = PCURVE('',#110,#502);
#502 = DEFINITIONAL_REPRESENTATION('',(#503),#507);
#503 = LINE('',#504,#505);
#504 = CARTESIAN_POINT('',(-8.938,18.705311213392));
#505 = VECTOR('',#506,1.);
#506 = DIRECTION('',(-7.635879778443E-02,-0.997080404983));
#507 = ( GEOMETRIC_REPRESENTATION_CONTEXT(2) 
PARAMETRIC_REPRESENTATION_CONTEXT() REPRESENTATION_CONTEXT('2D SPACE',''
  ) );
#508 = PCURVE('',#280,#509);
#509 = DEFINITIONAL_REPRESENTATION('',(#510),#514);
#510 = LINE('',#511,#512);
#511 = CARTESIAN_POINT('',(-7.854589195904E-16,-7.15));
#512 = VECTOR('',#513,1.);
#513 = DIRECTION('',(1.,-3.567832503219E-18));
#514 = ( GEOMETRIC_REPRESENTATION_CONTEXT(2) 
PARAMETRIC_REPRESENTATION_CONTEXT() REPRESENTATION_CONTEXT('2D SPACE',''
  ) );
#515 = ORIENTED_EDGE('',*,*,#516,.F.);
#516 = EDGE_CURVE('',#517,#494,#519,.T.);
#517 = VERTEX_POINT('',#518);
#518 = CARTESIAN_POINT('',(-31.50406218326,7.126293984464,13.95));
#519 = SURFACE_CURVE('',#520,(#525,#532),.PCURVE_S1.);
#520 = ELLIPSE('',#521,40.497305465489,32.3);
#521 = AXIS2_PLACEMENT_3D('',#522,#523,#524);
#522 = CARTESIAN_POINT('',(0.,0.,19.339573810472));
#523 = DIRECTION('',(-0.,-0.603207987745,-0.797583928825));
#524 = DIRECTION('',(0.,-0.797583928825,0.603207987745));
#525 = PCURVE('',#110,#526);
#526 = DEFINITIONAL_REPRESENTATION('',(#527),#531);
#527 = ELLIPSE('',#528,40.497305465489,32.3);
#528 = AXIS2_PLACEMENT_2D('',#529,#530);
#529 = CARTESIAN_POINT('',(5.407502529209,-33.4466887866));
#530 = DIRECTION('',(1.,0.));
#531 = ( GEOMETRIC_REPRESENTATION_CONTEXT(2) 
PARAMETRIC_REPRESENTATION_CONTEXT() REPRESENTATION_CONTEXT('2D SPACE',''
  ) );
#532 = PCURVE('',#309,#533);
#533 = DEFINITIONAL_REPRESENTATION('',(#534),#541);
#534 = B_SPLINE_CURVE_WITH_KNOTS('',5,(#535,#536,#537,#538,#539,#540),
  .UNSPECIFIED.,.F.,.F.,(6,6),(1.793254895633,2.098930343168),
  .PIECEWISE_BEZIER_KNOTS.);
#535 = CARTESIAN_POINT('',(2.919134084752,27.9000006));
#536 = CARTESIAN_POINT('',(2.857998995245,26.443375462984));
#537 = CARTESIAN_POINT('',(2.796863905738,25.011929520589));
#538 = CARTESIAN_POINT('',(2.735728816231,23.617006082788));
#539 = CARTESIAN_POINT('',(2.674593726724,22.26955048386));
#540 = CARTESIAN_POINT('',(2.613458637216,20.979605274921));
#541 = ( GEOMETRIC_REPRESENTATION_CONTEXT(2) 
PARAMETRIC_REPRESENTATION_CONTEXT() REPRESENTATION_CONTEXT('2D SPACE',''
  ) );
#542 = ORIENTED_EDGE('',*,*,#543,.T.);
#543 = EDGE_CURVE('',#517,#402,#544,.T.);
#544 = SURFACE_CURVE('',#545,(#549,#555),.PCURVE_S1.);
#545 = LINE('',#546,#547);
#546 = CARTESIAN_POINT('',(-16.7233443933,7.126293984464,13.95));
#547 = VECTOR('',#548,1.);
#548 = DIRECTION('',(1.,0.,0.));
#549 = PCURVE('',#110,#550);
#550 = DEFINITIONAL_REPRESENTATION('',(#551),#554);
#551 = B_SPLINE_CURVE_WITH_KNOTS('',1,(#552,#553),.UNSPECIFIED.,.F.,.F.,
  (2,2),(-15.57665560669,11.083344393304),.PIECEWISE_BEZIER_KNOTS.);
#552 = CARTESIAN_POINT('',(-3.527348997903,-1.146688786608));
#553 = CARTESIAN_POINT('',(-3.527348997903,-27.8066887866));
#554 = ( GEOMETRIC_REPRESENTATION_CONTEXT(2) 
PARAMETRIC_REPRESENTATION_CONTEXT() REPRESENTATION_CONTEXT('2D SPACE',''
  ) );
#555 = PCURVE('',#556,#561);
#556 = PLANE('',#557);
#557 = AXIS2_PLACEMENT_3D('',#558,#559,#560);
#558 = CARTESIAN_POINT('',(0.,0.,13.95));
#559 = DIRECTION('',(0.,0.,1.));
#560 = DIRECTION('',(1.,0.,0.));
#561 = DEFINITIONAL_REPRESENTATION('',(#562),#565);
#562 = B_SPLINE_CURVE_WITH_KNOTS('',1,(#563,#564),.UNSPECIFIED.,.F.,.F.,
  (2,2),(-15.57665560669,11.083344393304),.PIECEWISE_BEZIER_KNOTS.);
#563 = CARTESIAN_POINT('',(-32.3,7.126293984464));
#564 = CARTESIAN_POINT('',(-5.64,7.126293984464));
#565 = ( GEOMETRIC_REPRESENTATION_CONTEXT(2) 
PARAMETRIC_REPRESENTATION_CONTEXT() REPRESENTATION_CONTEXT('2D SPACE',''
  ) );
#566 = ADVANCED_FACE('',(#567),#73,.T.);
#567 = FACE_BOUND('',#568,.T.);
#568 = EDGE_LOOP('',(#569,#609,#631,#632,#633,#634,#658,#692,#712,#739,
    #740,#777));
#569 = ORIENTED_EDGE('',*,*,#570,.F.);
#570 = EDGE_CURVE('',#571,#573,#575,.T.);
#571 = VERTEX_POINT('',#572);
#572 = CARTESIAN_POINT('',(16.246288692278,4.726997326757,13.95));
#573 = VERTEX_POINT('',#574);
#574 = CARTESIAN_POINT('',(5.64,9.354759354815,17.449948933049));
#575 = SURFACE_CURVE('',#576,(#581,#597),.PCURVE_S1.);
#576 = HYPERBOLA('',#577,42.549851619102,27.965793653382);
#577 = AXIS2_PLACEMENT_3D('',#578,#579,#580);
#578 = CARTESIAN_POINT('',(0.,43.975116440819,43.633119353284));
#579 = DIRECTION('',(-0.,0.603207987745,-0.797583928825));
#580 = DIRECTION('',(0.,-0.797583928825,-0.603207987745));
#581 = PCURVE('',#73,#582);
#582 = DEFINITIONAL_REPRESENTATION('',(#583),#596);
#583 = B_SPLINE_CURVE_WITH_KNOTS('',6,(#584,#585,#586,#587,#588,#589,
    #590,#591,#592,#593,#594,#595),.UNSPECIFIED.,.F.,.F.,(7,5,7),(
    -0.552407594246,-0.261545129536,2.931733517384E-02),.UNSPECIFIED.);
#584 = CARTESIAN_POINT('',(-0.283141425938,3.093363274972E-15));
#585 = CARTESIAN_POINT('',(-0.363265536158,-0.722817370364));
#586 = CARTESIAN_POINT('',(-0.450428147151,-1.361927725079));
#587 = CARTESIAN_POINT('',(-0.545148487964,-1.920386916486));
#588 = CARTESIAN_POINT('',(-0.647810135564,-2.400665757496));
#589 = CARTESIAN_POINT('',(-0.758304419069,-2.804681100713));
#590 = CARTESIAN_POINT('',(-0.993043228868,-3.462972734398));
#591 = CARTESIAN_POINT('',(-1.117288019132,-3.717248685831));
#592 = CARTESIAN_POINT('',(-1.247466003329,-3.898047069538));
#593 = CARTESIAN_POINT('',(-1.381814154075,-4.006232369713));
#594 = CARTESIAN_POINT('',(-1.517620238458,-4.042160779299));
#595 = CARTESIAN_POINT('',(-1.652422689223,-4.005677970522));
#596 = ( GEOMETRIC_REPRESENTATION_CONTEXT(2) 
PARAMETRIC_REPRESENTATION_CONTEXT() REPRESENTATION_CONTEXT('2D SPACE',''
  ) );
#597 = PCURVE('',#598,#603);
#598 = PLANE('',#599);
#599 = AXIS2_PLACEMENT_3D('',#600,#601,#602);
#600 = CARTESIAN_POINT('',(33.446688786608,-3.582989458501E-16,10.375));
#601 = DIRECTION('',(-0.,0.603207987745,-0.797583928825));
#602 = DIRECTION('',(0.,-0.797583928825,-0.603207987745));
#603 = DEFINITIONAL_REPRESENTATION('',(#604),#608);
#604 = ( BOUNDED_CURVE() B_SPLINE_CURVE(2,(#605,#606,#607),
.UNSPECIFIED.,.F.,.F.) B_SPLINE_CURVE_WITH_KNOTS((3,3),(-0.552407594246,
2.931733517384E-02),.PIECEWISE_BEZIER_KNOTS.) CURVE() 
GEOMETRIC_REPRESENTATION_ITEM() RATIONAL_B_SPLINE_CURVE((1.,
1.042599550818,1.)) REPRESENTATION_ITEM('') );
#605 = CARTESIAN_POINT('',(-5.92664565561,17.20040009433));
#606 = CARTESIAN_POINT('',(-12.92025967583,26.350970056687));
#607 = CARTESIAN_POINT('',(-12.56727053442,34.266688786608));
#608 = ( GEOMETRIC_REPRESENTATION_CONTEXT(2) 
PARAMETRIC_REPRESENTATION_CONTEXT() REPRESENTATION_CONTEXT('2D SPACE',''
  ) );
#609 = ORIENTED_EDGE('',*,*,#610,.T.);
#610 = EDGE_CURVE('',#571,#402,#611,.T.);
#611 = SURFACE_CURVE('',#612,(#617,#624),.PCURVE_S1.);
#612 = CIRCLE('',#613,16.92);
#613 = AXIS2_PLACEMENT_3D('',#614,#615,#616);
#614 = CARTESIAN_POINT('',(0.,0.,13.95));
#615 = DIRECTION('',(0.,0.,1.));
#616 = DIRECTION('',(1.,0.,0.));
#617 = PCURVE('',#73,#618);
#618 = DEFINITIONAL_REPRESENTATION('',(#619),#623);
#619 = LINE('',#620,#621);
#620 = CARTESIAN_POINT('',(-0.,-0.));
#621 = VECTOR('',#622,1.);
#622 = DIRECTION('',(-1.,-0.));
#623 = ( GEOMETRIC_REPRESENTATION_CONTEXT(2) 
PARAMETRIC_REPRESENTATION_CONTEXT() REPRESENTATION_CONTEXT('2D SPACE',''
  ) );
#624 = PCURVE('',#556,#625);
#625 = DEFINITIONAL_REPRESENTATION('',(#626),#630);
#626 = CIRCLE('',#627,16.92);
#627 = AXIS2_PLACEMENT_2D('',#628,#629);
#628 = CARTESIAN_POINT('',(0.,0.));
#629 = DIRECTION('',(1.,0.));
#630 = ( GEOMETRIC_REPRESENTATION_CONTEXT(2) 
PARAMETRIC_REPRESENTATION_CONTEXT() REPRESENTATION_CONTEXT('2D SPACE',''
  ) );
#631 = ORIENTED_EDGE('',*,*,#401,.T.);
#632 = ORIENTED_EDGE('',*,*,#56,.F.);
#633 = ORIENTED_EDGE('',*,*,#151,.F.);
#634 = ORIENTED_EDGE('',*,*,#635,.T.);
#635 = EDGE_CURVE('',#152,#636,#638,.T.);
#636 = VERTEX_POINT('',#637);
#637 = CARTESIAN_POINT('',(15.346085300395,-7.126293984464,13.95));
#638 = SURFACE_CURVE('',#639,(#644,#651),.PCURVE_S1.);
#639 = CIRCLE('',#640,16.92);
#640 = AXIS2_PLACEMENT_3D('',#641,#642,#643);
#641 = CARTESIAN_POINT('',(0.,0.,13.95));
#642 = DIRECTION('',(0.,0.,1.));
#643 = DIRECTION('',(1.,0.,0.));
#644 = PCURVE('',#73,#645);
#645 = DEFINITIONAL_REPRESENTATION('',(#646),#650);
#646 = LINE('',#647,#648);
#647 = CARTESIAN_POINT('',(-0.,-0.));
#648 = VECTOR('',#649,1.);
#649 = DIRECTION('',(-1.,-0.));
#650 = ( GEOMETRIC_REPRESENTATION_CONTEXT(2) 
PARAMETRIC_REPRESENTATION_CONTEXT() REPRESENTATION_CONTEXT('2D SPACE',''
  ) );
#651 = PCURVE('',#338,#652);
#652 = DEFINITIONAL_REPRESENTATION('',(#653),#657);
#653 = CIRCLE('',#654,16.92);
#654 = AXIS2_PLACEMENT_2D('',#655,#656);
#655 = CARTESIAN_POINT('',(0.,0.));
#656 = DIRECTION('',(1.,0.));
#657 = ( GEOMETRIC_REPRESENTATION_CONTEXT(2) 
PARAMETRIC_REPRESENTATION_CONTEXT() REPRESENTATION_CONTEXT('2D SPACE',''
  ) );
#658 = ORIENTED_EDGE('',*,*,#659,.T.);
#659 = EDGE_CURVE('',#636,#660,#662,.T.);
#660 = VERTEX_POINT('',#661);
#661 = CARTESIAN_POINT('',(7.685863538058,0.,19.339573810472));
#662 = SURFACE_CURVE('',#663,(#668,#680),.PCURVE_S1.);
#663 = HYPERBOLA('',#664,14.190930264873,9.32695679152);
#664 = AXIS2_PLACEMENT_3D('',#665,#666,#667);
#665 = CARTESIAN_POINT('',(0.,14.666274665013,30.431590222379));
#666 = DIRECTION('',(-0.,0.603207987745,-0.797583928825));
#667 = DIRECTION('',(0.,-0.797583928825,-0.603207987745));
#668 = PCURVE('',#73,#669);
#669 = DEFINITIONAL_REPRESENTATION('',(#670),#679);
#670 = B_SPLINE_CURVE_WITH_KNOTS('',7,(#671,#672,#673,#674,#675,#676,
    #677,#678),.UNSPECIFIED.,.F.,.F.,(8,8),(-1.272775207477,
    -0.751336931081),.PIECEWISE_BEZIER_KNOTS.);
#671 = CARTESIAN_POINT('',(-5.848444021055,-3.996095748213E-15));
#672 = CARTESIAN_POINT('',(-5.88950643471,-1.049156946314));
#673 = CARTESIAN_POINT('',(-5.935658710659,-1.991616053148));
#674 = CARTESIAN_POINT('',(-5.987790659127,-2.836886082325));
#675 = CARTESIAN_POINT('',(-6.047027123913,-3.593025364125));
#676 = CARTESIAN_POINT('',(-6.114745861572,-4.266856789847));
#677 = CARTESIAN_POINT('',(-6.192788693238,-4.864118819083));
#678 = CARTESIAN_POINT('',(-6.28318530718,-5.389573810472));
#679 = ( GEOMETRIC_REPRESENTATION_CONTEXT(2) 
PARAMETRIC_REPRESENTATION_CONTEXT() REPRESENTATION_CONTEXT('2D SPACE',''
  ) );
#680 = PCURVE('',#681,#686);
#681 = PLANE('',#682);
#682 = AXIS2_PLACEMENT_3D('',#683,#684,#685);
#683 = CARTESIAN_POINT('',(33.446688786608,-4.312937112379,16.0777250911
    ));
#684 = DIRECTION('',(-0.,0.603207987745,-0.797583928825));
#685 = DIRECTION('',(0.,-0.797583928825,-0.603207987745));
#686 = DEFINITIONAL_REPRESENTATION('',(#687),#691);
#687 = ( BOUNDED_CURVE() B_SPLINE_CURVE(2,(#688,#689,#690),
.UNSPECIFIED.,.F.,.F.) B_SPLINE_CURVE_WITH_KNOTS((3,3),(-1.272775207477,
-0.751336931081),.PIECEWISE_BEZIER_KNOTS.) CURVE() 
GEOMETRIC_REPRESENTATION_ITEM() RATIONAL_B_SPLINE_CURVE((1.,
1.034180193279,1.)) REPRESENTATION_ITEM('') );
#688 = CARTESIAN_POINT('',(3.527348997903,18.100603486213));
#689 = CARTESIAN_POINT('',(-2.425902923728,22.679352932156));
#690 = CARTESIAN_POINT('',(-5.407502529209,25.76082524855));
#691 = ( GEOMETRIC_REPRESENTATION_CONTEXT(2) 
PARAMETRIC_REPRESENTATION_CONTEXT() REPRESENTATION_CONTEXT('2D SPACE',''
  ) );
#692 = ORIENTED_EDGE('',*,*,#693,.T.);
#693 = EDGE_CURVE('',#660,#694,#696,.T.);
#694 = VERTEX_POINT('',#695);
#695 = CARTESIAN_POINT('',(1.5,0.,22.95));
#696 = SEAM_CURVE('',#697,(#700,#706),.PCURVE_S1.);
#697 = B_SPLINE_CURVE_WITH_KNOTS('',1,(#698,#699),.UNSPECIFIED.,.F.,.F.,
  (2,2),(0.,1.),.PIECEWISE_BEZIER_KNOTS.);
#698 = CARTESIAN_POINT('',(16.92,0.,13.95));
#699 = CARTESIAN_POINT('',(1.5,0.,22.95));
#700 = PCURVE('',#73,#701);
#701 = DEFINITIONAL_REPRESENTATION('',(#702),#705);
#702 = B_SPLINE_CURVE_WITH_KNOTS('',1,(#703,#704),.UNSPECIFIED.,.F.,.F.,
  (2,2),(0.,1.),.PIECEWISE_BEZIER_KNOTS.);
#703 = CARTESIAN_POINT('',(0.,0.));
#704 = CARTESIAN_POINT('',(0.,-9.));
#705 = ( GEOMETRIC_REPRESENTATION_CONTEXT(2) 
PARAMETRIC_REPRESENTATION_CONTEXT() REPRESENTATION_CONTEXT('2D SPACE',''
  ) );
#706 = PCURVE('',#73,#707);
#707 = DEFINITIONAL_REPRESENTATION('',(#708),#711);
#708 = B_SPLINE_CURVE_WITH_KNOTS('',1,(#709,#710),.UNSPECIFIED.,.F.,.F.,
  (2,2),(0.,1.),.PIECEWISE_BEZIER_KNOTS.);
#709 = CARTESIAN_POINT('',(-6.28318530718,0.));
#710 = CARTESIAN_POINT('',(-6.28318530718,-9.));
#711 = ( GEOMETRIC_REPRESENTATION_CONTEXT(2) 
PARAMETRIC_REPRESENTATION_CONTEXT() REPRESENTATION_CONTEXT('2D SPACE',''
  ) );
#712 = ORIENTED_EDGE('',*,*,#713,.F.);
#713 = EDGE_CURVE('',#694,#694,#714,.T.);
#714 = SURFACE_CURVE('',#715,(#720,#727),.PCURVE_S1.);
#715 = CIRCLE('',#716,1.5);
#716 = AXIS2_PLACEMENT_3D('',#717,#718,#719);
#717 = CARTESIAN_POINT('',(0.,0.,22.95));
#718 = DIRECTION('',(0.,0.,1.));
#719 = DIRECTION('',(1.,0.,0.));
#720 = PCURVE('',#73,#721);
#721 = DEFINITIONAL_REPRESENTATION('',(#722),#726);
#722 = LINE('',#723,#724);
#723 = CARTESIAN_POINT('',(-0.,-9.));
#724 = VECTOR('',#725,1.);
#725 = DIRECTION('',(-1.,-0.));
#726 = ( GEOMETRIC_REPRESENTATION_CONTEXT(2) 
PARAMETRIC_REPRESENTATION_CONTEXT() REPRESENTATION_CONTEXT('2D SPACE',''
  ) );
#727 = PCURVE('',#728,#733);
#728 = PLANE('',#729);
#729 = AXIS2_PLACEMENT_3D('',#730,#731,#732);
#730 = CARTESIAN_POINT('',(0.,0.,22.95));
#731 = DIRECTION('',(0.,0.,1.));
#732 = DIRECTION('',(1.,0.,0.));
#733 = DEFINITIONAL_REPRESENTATION('',(#734),#738);
#734 = CIRCLE('',#735,1.5);
#735 = AXIS2_PLACEMENT_2D('',#736,#737);
#736 = CARTESIAN_POINT('',(0.,0.));
#737 = DIRECTION('',(1.,0.));
#738 = ( GEOMETRIC_REPRESENTATION_CONTEXT(2) 
PARAMETRIC_REPRESENTATION_CONTEXT() REPRESENTATION_CONTEXT('2D SPACE',''
  ) );
#739 = ORIENTED_EDGE('',*,*,#693,.F.);
#740 = ORIENTED_EDGE('',*,*,#741,.T.);
#741 = EDGE_CURVE('',#660,#742,#744,.T.);
#742 = VERTEX_POINT('',#743);
#743 = CARTESIAN_POINT('',(5.64,1.439356543202,20.42815061436));
#744 = SURFACE_CURVE('',#745,(#750,#770),.PCURVE_S1.);
#745 = HYPERBOLA('',#746,14.190930264873,9.32695679152);
#746 = AXIS2_PLACEMENT_3D('',#747,#748,#749);
#747 = CARTESIAN_POINT('',(0.,14.666274665013,30.431590222379));
#748 = DIRECTION('',(-0.,0.603207987745,-0.797583928825));
#749 = DIRECTION('',(0.,-0.797583928825,-0.603207987745));
#750 = PCURVE('',#73,#751);
#751 = DEFINITIONAL_REPRESENTATION('',(#752),#769);
#752 = B_SPLINE_CURVE_WITH_KNOTS('',8,(#753,#754,#755,#756,#757,#758,
    #759,#760,#761,#762,#763,#764,#765,#766,#767,#768),.UNSPECIFIED.,.F.
  ,.F.,(9,7,9),(-0.751336931081,-0.331766294683,8.780434171364E-02),
  .UNSPECIFIED.);
#753 = CARTESIAN_POINT('',(-4.622400152187E-16,-5.389573810472));
#754 = CARTESIAN_POINT('',(-6.364472217872E-02,-5.759526129328));
#755 = CARTESIAN_POINT('',(-0.133287457518,-6.094609997864));
#756 = CARTESIAN_POINT('',(-0.209591530867,-6.396376038717));
#757 = CARTESIAN_POINT('',(-0.293241890641,-6.666170274319));
#758 = CARTESIAN_POINT('',(-0.384935502867,-6.905147753565));
#759 = CARTESIAN_POINT('',(-0.485243433254,-7.114283232018));
#760 = CARTESIAN_POINT('',(-0.59437793465,-7.294379182365));
#761 = CARTESIAN_POINT('',(-0.829417779942,-7.597763641285));
#762 = CARTESIAN_POINT('',(-0.955323835577,-7.721052149597));
#763 = CARTESIAN_POINT('',(-1.089181245157,-7.816572742096));
#764 = CARTESIAN_POINT('',(-1.229918434728,-7.884794551834));
#765 = CARTESIAN_POINT('',(-1.375641717518,-7.926025635024));
#766 = CARTESIAN_POINT('',(-1.523418799057,-7.940416123762));
#767 = CARTESIAN_POINT('',(-1.6703674138,-7.927959094297));
#768 = CARTESIAN_POINT('',(-1.814053901763,-7.888489111522));
#769 = ( GEOMETRIC_REPRESENTATION_CONTEXT(2) 
PARAMETRIC_REPRESENTATION_CONTEXT() REPRESENTATION_CONTEXT('2D SPACE',''
  ) );
#770 = PCURVE('',#681,#771);
#771 = DEFINITIONAL_REPRESENTATION('',(#772),#776);
#772 = ( BOUNDED_CURVE() B_SPLINE_CURVE(2,(#773,#774,#775),
.UNSPECIFIED.,.F.,.F.) B_SPLINE_CURVE_WITH_KNOTS((3,3),(-0.751336931081,
8.780434171364E-02),.PIECEWISE_BEZIER_KNOTS.) CURVE() 
GEOMETRIC_REPRESENTATION_ITEM() RATIONAL_B_SPLINE_CURVE((1.,
1.089318606684,1.)) REPRESENTATION_ITEM('') );
#773 = CARTESIAN_POINT('',(-5.407502529209,25.76082524855));
#774 = CARTESIAN_POINT('',(-10.04498151147,30.553642860763));
#775 = CARTESIAN_POINT('',(-9.550211763532,34.266688786608));
#776 = ( GEOMETRIC_REPRESENTATION_CONTEXT(2) 
PARAMETRIC_REPRESENTATION_CONTEXT() REPRESENTATION_CONTEXT('2D SPACE',''
  ) );
#777 = ORIENTED_EDGE('',*,*,#778,.F.);
#778 = EDGE_CURVE('',#573,#742,#779,.T.);
#779 = SURFACE_CURVE('',#780,(#785,#801),.PCURVE_S1.);
#780 = HYPERBOLA('',#781,3.291828793774,5.64);
#781 = AXIS2_PLACEMENT_3D('',#782,#783,#784);
#782 = CARTESIAN_POINT('',(5.64,0.,23.825486381323));
#783 = DIRECTION('',(-1.,0.,0.));
#784 = DIRECTION('',(-0.,0.,-1.));
#785 = PCURVE('',#73,#786);
#786 = DEFINITIONAL_REPRESENTATION('',(#787),#800);
#787 = B_SPLINE_CURVE_WITH_KNOTS('',6,(#788,#789,#790,#791,#792,#793,
    #794,#795,#796,#797,#798,#799),.UNSPECIFIED.,.F.,.F.,(7,5,7),(
    -1.342986234223,-0.705463697962,-6.7941161701E-02),.UNSPECIFIED.);
#788 = CARTESIAN_POINT('',(-1.060065781095,-3.141178230062));
#789 = CARTESIAN_POINT('',(-1.008127383604,-3.765411310308));
#790 = CARTESIAN_POINT('',(-0.950411228695,-4.298409314491));
#791 = CARTESIAN_POINT('',(-0.886369466067,-4.752856229768));
#792 = CARTESIAN_POINT('',(-0.815525719029,-5.138353121727));
#793 = CARTESIAN_POINT('',(-0.737690927012,-5.462247780586));
#794 = CARTESIAN_POINT('',(-0.568944767151,-5.997711453148));
#795 = CARTESIAN_POINT('',(-0.47803231032,-6.209280726477));
#796 = CARTESIAN_POINT('',(-0.381031989618,-6.370127691796));
#797 = CARTESIAN_POINT('',(-0.278989916774,-6.483792925032));
#798 = CARTESIAN_POINT('',(-0.173897945602,-6.552275110897));
#799 = CARTESIAN_POINT('',(-6.78889525223E-02,-6.576057121328));
#800 = ( GEOMETRIC_REPRESENTATION_CONTEXT(2) 
PARAMETRIC_REPRESENTATION_CONTEXT() REPRESENTATION_CONTEXT('2D SPACE',''
  ) );
#801 = PCURVE('',#802,#807);
#802 = PLANE('',#803);
#803 = AXIS2_PLACEMENT_3D('',#804,#805,#806);
#804 = CARTESIAN_POINT('',(5.64,-9.969799110315,2.834900153184));
#805 = DIRECTION('',(-1.,0.,0.));
#806 = DIRECTION('',(0.,0.797583928825,0.603207987745));
#807 = DEFINITIONAL_REPRESENTATION('',(#808),#812);
#808 = ( BOUNDED_CURVE() B_SPLINE_CURVE(2,(#809,#810,#811),
.UNSPECIFIED.,.F.,.F.) B_SPLINE_CURVE_WITH_KNOTS((3,3),(-1.342986234223,
-6.7941161701E-02),.PIECEWISE_BEZIER_KNOTS.) CURVE() 
GEOMETRIC_REPRESENTATION_ITEM() RATIONAL_B_SPLINE_CURVE((1.,
1.210194311741,1.)) REPRESENTATION_ITEM('') );
#809 = CARTESIAN_POINT('',(24.579499753323,0.715));
#810 = CARTESIAN_POINT('',(21.392398577667,-5.843939183565));
#811 = CARTESIAN_POINT('',(18.929058633016,-7.865));
#812 = ( GEOMETRIC_REPRESENTATION_CONTEXT(2) 
PARAMETRIC_REPRESENTATION_CONTEXT() REPRESENTATION_CONTEXT('2D SPACE',''
  ) );
#813 = ADVANCED_FACE('',(#814),#338,.T.);
#814 = FACE_BOUND('',#815,.T.);
#815 = EDGE_LOOP('',(#816,#817,#841,#860));
#816 = ORIENTED_EDGE('',*,*,#325,.F.);
#817 = ORIENTED_EDGE('',*,*,#818,.T.);
#818 = EDGE_CURVE('',#293,#819,#821,.T.);
#819 = VERTEX_POINT('',#820);
#820 = CARTESIAN_POINT('',(31.504062183264,-7.126293984464,13.95));
#821 = SURFACE_CURVE('',#822,(#827,#834),.PCURVE_S1.);
#822 = CIRCLE('',#823,32.3);
#823 = AXIS2_PLACEMENT_3D('',#824,#825,#826);
#824 = CARTESIAN_POINT('',(0.,0.,13.95));
#825 = DIRECTION('',(0.,0.,1.));
#826 = DIRECTION('',(1.,0.,0.));
#827 = PCURVE('',#338,#828);
#828 = DEFINITIONAL_REPRESENTATION('',(#829),#833);
#829 = CIRCLE('',#830,32.3);
#830 = AXIS2_PLACEMENT_2D('',#831,#832);
#831 = CARTESIAN_POINT('',(0.,0.));
#832 = DIRECTION('',(1.,0.));
#833 = ( GEOMETRIC_REPRESENTATION_CONTEXT(2) 
PARAMETRIC_REPRESENTATION_CONTEXT() REPRESENTATION_CONTEXT('2D SPACE',''
  ) );
#834 = PCURVE('',#309,#835);
#835 = DEFINITIONAL_REPRESENTATION('',(#836),#840);
#836 = LINE('',#837,#838);
#837 = CARTESIAN_POINT('',(0.,27.9));
#838 = VECTOR('',#839,1.);
#839 = DIRECTION('',(1.,0.));
#840 = ( GEOMETRIC_REPRESENTATION_CONTEXT(2) 
PARAMETRIC_REPRESENTATION_CONTEXT() REPRESENTATION_CONTEXT('2D SPACE',''
  ) );
#841 = ORIENTED_EDGE('',*,*,#842,.T.);
#842 = EDGE_CURVE('',#819,#636,#843,.T.);
#843 = SURFACE_CURVE('',#844,(#848,#854),.PCURVE_S1.);
#844 = LINE('',#845,#846);
#845 = CARTESIAN_POINT('',(16.723344393304,-7.126293984464,13.95));
#846 = VECTOR('',#847,1.);
#847 = DIRECTION('',(-1.,0.,0.));
#848 = PCURVE('',#338,#849);
#849 = DEFINITIONAL_REPRESENTATION('',(#850),#853);
#850 = B_SPLINE_CURVE_WITH_KNOTS('',1,(#851,#852),.UNSPECIFIED.,.F.,.F.,
  (2,2),(-15.57665560669,11.083344393304),.PIECEWISE_BEZIER_KNOTS.);
#851 = CARTESIAN_POINT('',(32.3,-7.126293984464));
#852 = CARTESIAN_POINT('',(5.64,-7.126293984464));
#853 = ( GEOMETRIC_REPRESENTATION_CONTEXT(2) 
PARAMETRIC_REPRESENTATION_CONTEXT() REPRESENTATION_CONTEXT('2D SPACE',''
  ) );
#854 = PCURVE('',#681,#855);
#855 = DEFINITIONAL_REPRESENTATION('',(#856),#859);
#856 = B_SPLINE_CURVE_WITH_KNOTS('',1,(#857,#858),.UNSPECIFIED.,.F.,.F.,
  (2,2),(-15.57665560669,11.083344393304),.PIECEWISE_BEZIER_KNOTS.);
#857 = CARTESIAN_POINT('',(3.527348997903,1.146688786608));
#858 = CARTESIAN_POINT('',(3.527348997903,27.806688786608));
#859 = ( GEOMETRIC_REPRESENTATION_CONTEXT(2) 
PARAMETRIC_REPRESENTATION_CONTEXT() REPRESENTATION_CONTEXT('2D SPACE',''
  ) );
#860 = ORIENTED_EDGE('',*,*,#635,.F.);
#861 = ADVANCED_FACE('',(#862),#309,.T.);
#862 = FACE_BOUND('',#863,.T.);
#863 = EDGE_LOOP('',(#864,#888,#915,#938,#965,#966,#993,#1025,#1050,
    #1051,#1052,#1077));
#864 = ORIENTED_EDGE('',*,*,#865,.F.);
#865 = EDGE_CURVE('',#866,#517,#868,.T.);
#866 = VERTEX_POINT('',#867);
#867 = CARTESIAN_POINT('',(31.952237734982,4.726997326757,13.95));
#868 = SURFACE_CURVE('',#869,(#874,#881),.PCURVE_S1.);
#869 = CIRCLE('',#870,32.3);
#870 = AXIS2_PLACEMENT_3D('',#871,#872,#873);
#871 = CARTESIAN_POINT('',(0.,0.,13.95));
#872 = DIRECTION('',(0.,0.,1.));
#873 = DIRECTION('',(1.,0.,0.));
#874 = PCURVE('',#309,#875);
#875 = DEFINITIONAL_REPRESENTATION('',(#876),#880);
#876 = LINE('',#877,#878);
#877 = CARTESIAN_POINT('',(0.,27.9));
#878 = VECTOR('',#879,1.);
#879 = DIRECTION('',(1.,0.));
#880 = ( GEOMETRIC_REPRESENTATION_CONTEXT(2) 
PARAMETRIC_REPRESENTATION_CONTEXT() REPRESENTATION_CONTEXT('2D SPACE',''
  ) );
#881 = PCURVE('',#556,#882);
#882 = DEFINITIONAL_REPRESENTATION('',(#883),#887);
#883 = CIRCLE('',#884,32.3);
#884 = AXIS2_PLACEMENT_2D('',#885,#886);
#885 = CARTESIAN_POINT('',(0.,0.));
#886 = DIRECTION('',(1.,0.));
#887 = ( GEOMETRIC_REPRESENTATION_CONTEXT(2) 
PARAMETRIC_REPRESENTATION_CONTEXT() REPRESENTATION_CONTEXT('2D SPACE',''
  ) );
#888 = ORIENTED_EDGE('',*,*,#889,.T.);
#889 = EDGE_CURVE('',#866,#890,#892,.T.);
#890 = VERTEX_POINT('',#891);
#891 = CARTESIAN_POINT('',(32.3,-7.911218322492E-15,10.375));
#892 = SURFACE_CURVE('',#893,(#898,#908),.PCURVE_S1.);
#893 = ELLIPSE('',#894,40.497305465489,32.3);
#894 = AXIS2_PLACEMENT_3D('',#895,#896,#897);
#895 = CARTESIAN_POINT('',(0.,0.,10.375));
#896 = DIRECTION('',(-0.,0.603207987745,-0.797583928825));
#897 = DIRECTION('',(0.,0.797583928825,0.603207987745));
#898 = PCURVE('',#309,#899);
#899 = DEFINITIONAL_REPRESENTATION('',(#900),#907);
#900 = B_SPLINE_CURVE_WITH_KNOTS('',5,(#901,#902,#903,#904,#905,#906),
  .UNSPECIFIED.,.F.,.F.,(6,6),(1.423922142762,1.570796326795),
  .PIECEWISE_BEZIER_KNOTS.);
#901 = CARTESIAN_POINT('',(0.146874184033,27.9000006));
#902 = CARTESIAN_POINT('',(0.117499347226,27.190149222867));
#903 = CARTESIAN_POINT('',(8.812451041983E-02,26.476441846058));
#904 = CARTESIAN_POINT('',(5.874967361322E-02,25.760154543075));
#905 = CARTESIAN_POINT('',(2.937483680661E-02,25.042577271295));
#906 = CARTESIAN_POINT('',(6.123233995737E-17,24.325));
#907 = ( GEOMETRIC_REPRESENTATION_CONTEXT(2) 
PARAMETRIC_REPRESENTATION_CONTEXT() REPRESENTATION_CONTEXT('2D SPACE',''
  ) );
#908 = PCURVE('',#598,#909);
#909 = DEFINITIONAL_REPRESENTATION('',(#910),#914);
#910 = ELLIPSE('',#911,40.497305465489,32.3);
#911 = AXIS2_PLACEMENT_2D('',#912,#913);
#912 = CARTESIAN_POINT('',(7.857391536871E-16,33.446688786608));
#913 = DIRECTION('',(-1.,0.));
#914 = ( GEOMETRIC_REPRESENTATION_CONTEXT(2) 
PARAMETRIC_REPRESENTATION_CONTEXT() REPRESENTATION_CONTEXT('2D SPACE',''
  ) );
#915 = ORIENTED_EDGE('',*,*,#916,.F.);
#916 = EDGE_CURVE('',#917,#890,#919,.T.);
#917 = VERTEX_POINT('',#918);
#918 = CARTESIAN_POINT('',(32.3,-7.911218322492E-15,-13.95));
#919 = SEAM_CURVE('',#920,(#924,#931),.PCURVE_S1.);
#920 = LINE('',#921,#922);
#921 = CARTESIAN_POINT('',(32.3,-7.911218322492E-15,-13.95));
#922 = VECTOR('',#923,1.);
#923 = DIRECTION('',(0.,0.,1.));
#924 = PCURVE('',#309,#925);
#925 = DEFINITIONAL_REPRESENTATION('',(#926),#930);
#926 = LINE('',#927,#928);
#927 = CARTESIAN_POINT('',(6.28318530718,-0.));
#928 = VECTOR('',#929,1.);
#929 = DIRECTION('',(0.,1.));
#930 = ( GEOMETRIC_REPRESENTATION_CONTEXT(2) 
PARAMETRIC_REPRESENTATION_CONTEXT() REPRESENTATION_CONTEXT('2D SPACE',''
  ) );
#931 = PCURVE('',#309,#932);
#932 = DEFINITIONAL_REPRESENTATION('',(#933),#937);
#933 = LINE('',#934,#935);
#934 = CARTESIAN_POINT('',(0.,-0.));
#935 = VECTOR('',#936,1.);
#936 = DIRECTION('',(0.,1.));
#937 = ( GEOMETRIC_REPRESENTATION_CONTEXT(2) 
PARAMETRIC_REPRESENTATION_CONTEXT() REPRESENTATION_CONTEXT('2D SPACE',''
  ) );
#938 = ORIENTED_EDGE('',*,*,#939,.T.);
#939 = EDGE_CURVE('',#917,#917,#940,.T.);
#940 = SURFACE_CURVE('',#941,(#946,#953),.PCURVE_S1.);
#941 = CIRCLE('',#942,32.3);
#942 = AXIS2_PLACEMENT_3D('',#943,#944,#945);
#943 = CARTESIAN_POINT('',(0.,0.,-13.95));
#944 = DIRECTION('',(0.,0.,1.));
#945 = DIRECTION('',(1.,0.,0.));
#946 = PCURVE('',#309,#947);
#947 = DEFINITIONAL_REPRESENTATION('',(#948),#952);
#948 = LINE('',#949,#950);
#949 = CARTESIAN_POINT('',(0.,0.));
#950 = VECTOR('',#951,1.);
#951 = DIRECTION('',(1.,0.));
#952 = ( GEOMETRIC_REPRESENTATION_CONTEXT(2) 
PARAMETRIC_REPRESENTATION_CONTEXT() REPRESENTATION_CONTEXT('2D SPACE',''
  ) );
#953 = PCURVE('',#954,#959);
#954 = PLANE('',#955);
#955 = AXIS2_PLACEMENT_3D('',#956,#957,#958);
#956 = CARTESIAN_POINT('',(0.,0.,-13.95));
#957 = DIRECTION('',(0.,0.,1.));
#958 = DIRECTION('',(1.,0.,0.));
#959 = DEFINITIONAL_REPRESENTATION('',(#960),#964);
#960 = CIRCLE('',#961,32.3);
#961 = AXIS2_PLACEMENT_2D('',#962,#963);
#962 = CARTESIAN_POINT('',(0.,0.));
#963 = DIRECTION('',(1.,0.));
#964 = ( GEOMETRIC_REPRESENTATION_CONTEXT(2) 
PARAMETRIC_REPRESENTATION_CONTEXT() REPRESENTATION_CONTEXT('2D SPACE',''
  ) );
#965 = ORIENTED_EDGE('',*,*,#916,.T.);
#966 = ORIENTED_EDGE('',*,*,#967,.T.);
#967 = EDGE_CURVE('',#890,#968,#970,.T.);
#968 = VERTEX_POINT('',#969);
#969 = CARTESIAN_POINT('',(31.186080576808,-8.409421993028,
    4.015004098394));
#970 = SURFACE_CURVE('',#971,(#976,#986),.PCURVE_S1.);
#971 = ELLIPSE('',#972,40.497305465489,32.3);
#972 = AXIS2_PLACEMENT_3D('',#973,#974,#975);
#973 = CARTESIAN_POINT('',(0.,0.,10.375));
#974 = DIRECTION('',(-0.,0.603207987745,-0.797583928825));
#975 = DIRECTION('',(0.,0.797583928825,0.603207987745));
#976 = PCURVE('',#309,#977);
#977 = DEFINITIONAL_REPRESENTATION('',(#978),#985);
#978 = B_SPLINE_CURVE_WITH_KNOTS('',5,(#979,#980,#981,#982,#983,#984),
  .UNSPECIFIED.,.F.,.F.,(6,6),(1.570796326795,1.950230571761),
  .PIECEWISE_BEZIER_KNOTS.);
#979 = CARTESIAN_POINT('',(6.28318530718,24.325));
#980 = CARTESIAN_POINT('',(6.207298458186,22.471213427971));
#981 = CARTESIAN_POINT('',(6.131411609193,20.617426485157));
#982 = CARTESIAN_POINT('',(6.0555247602,18.785882313784));
#983 = CARTESIAN_POINT('',(5.979637911207,16.998814956975));
#984 = CARTESIAN_POINT('',(5.903751062214,15.276880183821));
#985 = ( GEOMETRIC_REPRESENTATION_CONTEXT(2) 
PARAMETRIC_REPRESENTATION_CONTEXT() REPRESENTATION_CONTEXT('2D SPACE',''
  ) );
#986 = PCURVE('',#598,#987);
#987 = DEFINITIONAL_REPRESENTATION('',(#988),#992);
#988 = ELLIPSE('',#989,40.497305465489,32.3);
#989 = AXIS2_PLACEMENT_2D('',#990,#991);
#990 = CARTESIAN_POINT('',(7.857391536871E-16,33.446688786608));
#991 = DIRECTION('',(-1.,0.));
#992 = ( GEOMETRIC_REPRESENTATION_CONTEXT(2) 
PARAMETRIC_REPRESENTATION_CONTEXT() REPRESENTATION_CONTEXT('2D SPACE',''
  ) );
#993 = ORIENTED_EDGE('',*,*,#994,.T.);
#994 = EDGE_CURVE('',#968,#995,#997,.T.);
#995 = VERTEX_POINT('',#996);
#996 = CARTESIAN_POINT('',(29.648491690141,-12.81627638979,
    9.646700105177));
#997 = SURFACE_CURVE('',#998,(#1003,#1013),.PCURVE_S1.);
#998 = ELLIPSE('',#999,53.703829706676,32.3);
#999 = AXIS2_PLACEMENT_3D('',#1000,#1001,#1002);
#1000 = CARTESIAN_POINT('',(0.,0.,-11.06358325374));
#1001 = DIRECTION('',(7.635879778443E-02,-0.795255306761,-0.60144686471)
  );
#1002 = DIRECTION('',(5.748532164119E-02,-0.598693384685,0.798912804335)
  );
#1003 = PCURVE('',#309,#1004);
#1004 = DEFINITIONAL_REPRESENTATION('',(#1005),#1012);
#1005 = B_SPLINE_CURVE_WITH_KNOTS('',5,(#1006,#1007,#1008,#1009,#1010,
    #1011),.UNSPECIFIED.,.F.,.F.,(6,6),(5.057473273422,5.231128207899),
  .PIECEWISE_BEZIER_KNOTS.);
#1006 = CARTESIAN_POINT('',(6.033825525106,17.400039421323));
#1007 = CARTESIAN_POINT('',(5.999094538211,18.802313966373));
#1008 = CARTESIAN_POINT('',(5.964363551315,20.182704859486));
#1009 = CARTESIAN_POINT('',(5.92963256442,21.537688085292));
#1010 = CARTESIAN_POINT('',(5.894901577525,22.86385003438));
#1011 = CARTESIAN_POINT('',(5.860170590629,24.157938759288));
#1012 = ( GEOMETRIC_REPRESENTATION_CONTEXT(2) 
PARAMETRIC_REPRESENTATION_CONTEXT() REPRESENTATION_CONTEXT('2D SPACE',''
  ) );
#1013 = PCURVE('',#1014,#1019);
#1014 = PLANE('',#1015);
#1015 = AXIS2_PLACEMENT_3D('',#1016,#1017,#1018);
#1016 = CARTESIAN_POINT('',(52.152,-7.12880515584,4.983527005533));
#1017 = DIRECTION('',(7.635879778443E-02,-0.795255306761,-0.60144686471)
  );
#1018 = DIRECTION('',(-0.997080404983,-6.090254993727E-02,
    -4.606023675819E-02));
#1019 = DEFINITIONAL_REPRESENTATION('',(#1020),#1024);
#1020 = ELLIPSE('',#1021,53.703829706676,32.3);
#1021 = AXIS2_PLACEMENT_2D('',#1022,#1023);
#1022 = CARTESIAN_POINT('',(52.3047085665,17.099069459971));
#1023 = DIRECTION('',(-5.765364694152E-02,-0.998336645122));
#1024 = ( GEOMETRIC_REPRESENTATION_CONTEXT(2) 
PARAMETRIC_REPRESENTATION_CONTEXT() REPRESENTATION_CONTEXT('2D SPACE',''
  ) );
#1025 = ORIENTED_EDGE('',*,*,#1026,.F.);
#1026 = EDGE_CURVE('',#819,#995,#1027,.T.);
#1027 = SURFACE_CURVE('',#1028,(#1033,#1043),.PCURVE_S1.);
#1028 = ELLIPSE('',#1029,40.497305465489,32.3);
#1029 = AXIS2_PLACEMENT_3D('',#1030,#1031,#1032);
#1030 = CARTESIAN_POINT('',(0.,0.,19.339573810472));
#1031 = DIRECTION('',(-0.,0.603207987745,-0.797583928825));
#1032 = DIRECTION('',(0.,0.797583928825,0.603207987745));
#1033 = PCURVE('',#309,#1034);
#1034 = DEFINITIONAL_REPRESENTATION('',(#1035),#1042);
#1035 = B_SPLINE_CURVE_WITH_KNOTS('',5,(#1036,#1037,#1038,#1039,#1040,
    #1041),.UNSPECIFIED.,.F.,.F.,(6,6),(1.793254895633,2.098930343168),
  .PIECEWISE_BEZIER_KNOTS.);
#1036 = CARTESIAN_POINT('',(6.060726738342,27.9000006));
#1037 = CARTESIAN_POINT('',(5.999591648835,26.443375462984));
#1038 = CARTESIAN_POINT('',(5.938456559327,25.011929520589));
#1039 = CARTESIAN_POINT('',(5.87732146982,23.617006082788));
#1040 = CARTESIAN_POINT('',(5.816186380313,22.26955048386));
#1041 = CARTESIAN_POINT('',(5.755051290806,20.979605274921));
#1042 = ( GEOMETRIC_REPRESENTATION_CONTEXT(2) 
PARAMETRIC_REPRESENTATION_CONTEXT() REPRESENTATION_CONTEXT('2D SPACE',''
  ) );
#1043 = PCURVE('',#681,#1044);
#1044 = DEFINITIONAL_REPRESENTATION('',(#1045),#1049);
#1045 = ELLIPSE('',#1046,40.497305465489,32.3);
#1046 = AXIS2_PLACEMENT_2D('',#1047,#1048);
#1047 = CARTESIAN_POINT('',(-5.407502529209,33.446688786608));
#1048 = DIRECTION('',(-1.,0.));
#1049 = ( GEOMETRIC_REPRESENTATION_CONTEXT(2) 
PARAMETRIC_REPRESENTATION_CONTEXT() REPRESENTATION_CONTEXT('2D SPACE',''
  ) );
#1050 = ORIENTED_EDGE('',*,*,#818,.F.);
#1051 = ORIENTED_EDGE('',*,*,#292,.T.);
#1052 = ORIENTED_EDGE('',*,*,#1053,.T.);
#1053 = EDGE_CURVE('',#265,#494,#1054,.T.);
#1054 = SURFACE_CURVE('',#1055,(#1060,#1070),.PCURVE_S1.);
#1055 = ELLIPSE('',#1056,53.703829706676,32.3);
#1056 = AXIS2_PLACEMENT_3D('',#1057,#1058,#1059);
#1057 = CARTESIAN_POINT('',(0.,0.,-11.06358325374));
#1058 = DIRECTION('',(-7.635879778443E-02,0.795255306761,-0.60144686471)
  );
#1059 = DIRECTION('',(-5.748532164119E-02,0.598693384685,0.798912804335)
  );
#1060 = PCURVE('',#309,#1061);
#1061 = DEFINITIONAL_REPRESENTATION('',(#1062),#1069);
#1062 = B_SPLINE_CURVE_WITH_KNOTS('',5,(#1063,#1064,#1065,#1066,#1067,
    #1068),.UNSPECIFIED.,.F.,.F.,(6,6),(5.057473273422,5.231128207899),
  .PIECEWISE_BEZIER_KNOTS.);
#1063 = CARTESIAN_POINT('',(2.892232871516,17.400039421323));
#1064 = CARTESIAN_POINT('',(2.857501884621,18.802313966373));
#1065 = CARTESIAN_POINT('',(2.822770897726,20.182704859486));
#1066 = CARTESIAN_POINT('',(2.78803991083,21.537688085292));
#1067 = CARTESIAN_POINT('',(2.753308923935,22.86385003438));
#1068 = CARTESIAN_POINT('',(2.718577937039,24.157938759288));
#1069 = ( GEOMETRIC_REPRESENTATION_CONTEXT(2) 
PARAMETRIC_REPRESENTATION_CONTEXT() REPRESENTATION_CONTEXT('2D SPACE',''
  ) );
#1070 = PCURVE('',#280,#1071);
#1071 = DEFINITIONAL_REPRESENTATION('',(#1072),#1076);
#1072 = ELLIPSE('',#1073,53.703829706676,32.3);
#1073 = AXIS2_PLACEMENT_2D('',#1074,#1075);
#1074 = CARTESIAN_POINT('',(52.3047085665,17.099069459971));
#1075 = DIRECTION('',(-5.765364694152E-02,-0.998336645122));
#1076 = ( GEOMETRIC_REPRESENTATION_CONTEXT(2) 
PARAMETRIC_REPRESENTATION_CONTEXT() REPRESENTATION_CONTEXT('2D SPACE',''
  ) );
#1077 = ORIENTED_EDGE('',*,*,#516,.F.);
#1078 = ADVANCED_FACE('',(#1079),#280,.T.);
#1079 = FACE_BOUND('',#1080,.T.);
#1080 = EDGE_LOOP('',(#1081,#1082,#1103,#1104));
#1081 = ORIENTED_EDGE('',*,*,#264,.F.);
#1082 = ORIENTED_EDGE('',*,*,#1083,.T.);
#1083 = EDGE_CURVE('',#237,#471,#1084,.T.);
#1084 = SURFACE_CURVE('',#1085,(#1089,#1096),.PCURVE_S1.);
#1085 = LINE('',#1086,#1087);
#1086 = CARTESIAN_POINT('',(-52.152,7.12880515584,4.983527005533));
#1087 = VECTOR('',#1088,1.);
#1088 = DIRECTION('',(7.387167314124E-17,0.603207987745,0.797583928825)
  );
#1089 = PCURVE('',#280,#1090);
#1090 = DEFINITIONAL_REPRESENTATION('',(#1091),#1095);
#1091 = LINE('',#1092,#1093);
#1092 = CARTESIAN_POINT('',(-1.318262226409E-17,1.244153150788E-15));
#1093 = VECTOR('',#1094,1.);
#1094 = DIRECTION('',(-3.624035055318E-17,-1.));
#1095 = ( GEOMETRIC_REPRESENTATION_CONTEXT(2) 
PARAMETRIC_REPRESENTATION_CONTEXT() REPRESENTATION_CONTEXT('2D SPACE',''
  ) );
#1096 = PCURVE('',#252,#1097);
#1097 = DEFINITIONAL_REPRESENTATION('',(#1098),#1102);
#1098 = LINE('',#1099,#1100);
#1099 = CARTESIAN_POINT('',(20.175816910351,-7.862741448268E-16));
#1100 = VECTOR('',#1101,1.);
#1101 = DIRECTION('',(-7.184630090552E-17,-1.));
#1102 = ( GEOMETRIC_REPRESENTATION_CONTEXT(2) 
PARAMETRIC_REPRESENTATION_CONTEXT() REPRESENTATION_CONTEXT('2D SPACE',''
  ) );
#1103 = ORIENTED_EDGE('',*,*,#493,.T.);
#1104 = ORIENTED_EDGE('',*,*,#1053,.F.);
#1105 = ADVANCED_FACE('',(#1106),#252,.T.);
#1106 = FACE_BOUND('',#1107,.T.);
#1107 = EDGE_LOOP('',(#1108,#1129,#1130,#1131));
#1108 = ORIENTED_EDGE('',*,*,#1109,.T.);
#1109 = EDGE_CURVE('',#209,#448,#1110,.T.);
#1110 = SURFACE_CURVE('',#1111,(#1115,#1122),.PCURVE_S1.);
#1111 = LINE('',#1112,#1113);
#1112 = CARTESIAN_POINT('',(-70.24,8.601919117211E-15,10.375));
#1113 = VECTOR('',#1114,1.);
#1114 = DIRECTION('',(7.387167314124E-17,0.603207987745,0.797583928825)
  );
#1115 = PCURVE('',#252,#1116);
#1116 = DEFINITIONAL_REPRESENTATION('',(#1117),#1121);
#1117 = LINE('',#1118,#1119);
#1118 = CARTESIAN_POINT('',(0.,-0.));
#1119 = VECTOR('',#1120,1.);
#1120 = DIRECTION('',(-7.184630090552E-17,-1.));
#1121 = ( GEOMETRIC_REPRESENTATION_CONTEXT(2) 
PARAMETRIC_REPRESENTATION_CONTEXT() REPRESENTATION_CONTEXT('2D SPACE',''
  ) );
#1122 = PCURVE('',#224,#1123);
#1123 = DEFINITIONAL_REPRESENTATION('',(#1124),#1128);
#1124 = LINE('',#1125,#1126);
#1125 = CARTESIAN_POINT('',(20.175816910351,-7.862741448268E-16));
#1126 = VECTOR('',#1127,1.);
#1127 = DIRECTION('',(-1.633514967426E-17,-1.));
#1128 = ( GEOMETRIC_REPRESENTATION_CONTEXT(2) 
PARAMETRIC_REPRESENTATION_CONTEXT() REPRESENTATION_CONTEXT('2D SPACE',''
  ) );
#1129 = ORIENTED_EDGE('',*,*,#470,.T.);
#1130 = ORIENTED_EDGE('',*,*,#1083,.F.);
#1131 = ORIENTED_EDGE('',*,*,#236,.F.);
#1132 = ADVANCED_FACE('',(#1133),#224,.T.);
#1133 = FACE_BOUND('',#1134,.T.);
#1134 = EDGE_LOOP('',(#1135,#1136,#1137,#1138));
#1135 = ORIENTED_EDGE('',*,*,#376,.T.);
#1136 = ORIENTED_EDGE('',*,*,#447,.T.);
#1137 = ORIENTED_EDGE('',*,*,#1109,.F.);
#1138 = ORIENTED_EDGE('',*,*,#208,.F.);
#1139 = ADVANCED_FACE('',(#1140),#556,.T.);
#1140 = FACE_BOUND('',#1141,.T.);
#1141 = EDGE_LOOP('',(#1142,#1161,#1162,#1163));
#1142 = ORIENTED_EDGE('',*,*,#1143,.F.);
#1143 = EDGE_CURVE('',#866,#571,#1144,.T.);
#1144 = SURFACE_CURVE('',#1145,(#1149,#1155),.PCURVE_S1.);
#1145 = LINE('',#1146,#1147);
#1146 = CARTESIAN_POINT('',(16.723344393304,4.726997326757,13.95));
#1147 = VECTOR('',#1148,1.);
#1148 = DIRECTION('',(-1.,0.,0.));
#1149 = PCURVE('',#556,#1150);
#1150 = DEFINITIONAL_REPRESENTATION('',(#1151),#1154);
#1151 = B_SPLINE_CURVE_WITH_KNOTS('',1,(#1152,#1153),.UNSPECIFIED.,.F.,
  .F.,(2,2),(-15.57665560669,11.083344393304),.PIECEWISE_BEZIER_KNOTS.);
#1152 = CARTESIAN_POINT('',(32.3,4.726997326757));
#1153 = CARTESIAN_POINT('',(5.64,4.726997326757));
#1154 = ( GEOMETRIC_REPRESENTATION_CONTEXT(2) 
PARAMETRIC_REPRESENTATION_CONTEXT() REPRESENTATION_CONTEXT('2D SPACE',''
  ) );
#1155 = PCURVE('',#598,#1156);
#1156 = DEFINITIONAL_REPRESENTATION('',(#1157),#1160);
#1157 = B_SPLINE_CURVE_WITH_KNOTS('',1,(#1158,#1159),.UNSPECIFIED.,.F.,
  .F.,(2,2),(-15.57665560669,11.083344393304),.PIECEWISE_BEZIER_KNOTS.);
#1158 = CARTESIAN_POINT('',(-5.92664565561,1.146688786608));
#1159 = CARTESIAN_POINT('',(-5.92664565561,27.806688786608));
#1160 = ( GEOMETRIC_REPRESENTATION_CONTEXT(2) 
PARAMETRIC_REPRESENTATION_CONTEXT() REPRESENTATION_CONTEXT('2D SPACE',''
  ) );
#1161 = ORIENTED_EDGE('',*,*,#865,.T.);
#1162 = ORIENTED_EDGE('',*,*,#543,.T.);
#1163 = ORIENTED_EDGE('',*,*,#610,.F.);
#1164 = ADVANCED_FACE('',(#1165),#598,.T.);
#1165 = FACE_BOUND('',#1166,.T.);
#1166 = EDGE_LOOP('',(#1167,#1168,#1191,#1219,#1247,#1275,#1296,#1297,
    #1298));
#1167 = ORIENTED_EDGE('',*,*,#570,.T.);
#1168 = ORIENTED_EDGE('',*,*,#1169,.T.);
#1169 = EDGE_CURVE('',#573,#1170,#1172,.T.);
#1170 = VERTEX_POINT('',#1171);
#1171 = CARTESIAN_POINT('',(5.64,9.969799110315,17.915099846816));
#1172 = SURFACE_CURVE('',#1173,(#1177,#1184),.PCURVE_S1.);
#1173 = LINE('',#1174,#1175);
#1174 = CARTESIAN_POINT('',(5.64,-9.969799110315,2.834900153184));
#1175 = VECTOR('',#1176,1.);
#1176 = DIRECTION('',(0.,0.797583928825,0.603207987745));
#1177 = PCURVE('',#598,#1178);
#1178 = DEFINITIONAL_REPRESENTATION('',(#1179),#1183);
#1179 = LINE('',#1180,#1181);
#1180 = CARTESIAN_POINT('',(12.5,27.806688786608));
#1181 = VECTOR('',#1182,1.);
#1182 = DIRECTION('',(-1.,0.));
#1183 = ( GEOMETRIC_REPRESENTATION_CONTEXT(2) 
PARAMETRIC_REPRESENTATION_CONTEXT() REPRESENTATION_CONTEXT('2D SPACE',''
  ) );
#1184 = PCURVE('',#802,#1185);
#1185 = DEFINITIONAL_REPRESENTATION('',(#1186),#1190);
#1186 = LINE('',#1187,#1188);
#1187 = CARTESIAN_POINT('',(0.,0.));
#1188 = VECTOR('',#1189,1.);
#1189 = DIRECTION('',(1.,-8.93036204381E-18));
#1190 = ( GEOMETRIC_REPRESENTATION_CONTEXT(2) 
PARAMETRIC_REPRESENTATION_CONTEXT() REPRESENTATION_CONTEXT('2D SPACE',''
  ) );
#1191 = ORIENTED_EDGE('',*,*,#1192,.T.);
#1192 = EDGE_CURVE('',#1170,#1193,#1195,.T.);
#1193 = VERTEX_POINT('',#1194);
#1194 = CARTESIAN_POINT('',(52.152,7.12880515584,15.766472994467));
#1195 = SURFACE_CURVE('',#1196,(#1200,#1207),.PCURVE_S1.);
#1196 = LINE('',#1197,#1198);
#1197 = CARTESIAN_POINT('',(5.64,9.969799110315,17.915099846816));
#1198 = VECTOR('',#1199,1.);
#1199 = DIRECTION('',(0.997080404983,-6.090254993727E-02,
    -4.606023675819E-02));
#1200 = PCURVE('',#598,#1201);
#1201 = DEFINITIONAL_REPRESENTATION('',(#1202),#1206);
#1202 = LINE('',#1203,#1204);
#1203 = CARTESIAN_POINT('',(-12.5,27.806688786608));
#1204 = VECTOR('',#1205,1.);
#1205 = DIRECTION('',(7.635879778443E-02,-0.997080404983));
#1206 = ( GEOMETRIC_REPRESENTATION_CONTEXT(2) 
PARAMETRIC_REPRESENTATION_CONTEXT() REPRESENTATION_CONTEXT('2D SPACE',''
  ) );
#1207 = PCURVE('',#1208,#1213);
#1208 = PLANE('',#1209);
#1209 = AXIS2_PLACEMENT_3D('',#1210,#1211,#1212);
#1210 = CARTESIAN_POINT('',(5.64,9.969799110315,17.915099846816));
#1211 = DIRECTION('',(7.635879778443E-02,0.795255306761,0.60144686471));
#1212 = DIRECTION('',(0.997080404983,-6.090254993727E-02,
    -4.606023675819E-02));
#1213 = DEFINITIONAL_REPRESENTATION('',(#1214),#1218);
#1214 = LINE('',#1215,#1216);
#1215 = CARTESIAN_POINT('',(0.,0.));
#1216 = VECTOR('',#1217,1.);
#1217 = DIRECTION('',(1.,-6.209271172414E-18));
#1218 = ( GEOMETRIC_REPRESENTATION_CONTEXT(2) 
PARAMETRIC_REPRESENTATION_CONTEXT() REPRESENTATION_CONTEXT('2D SPACE',''
  ) );
#1219 = ORIENTED_EDGE('',*,*,#1220,.T.);
#1220 = EDGE_CURVE('',#1193,#1221,#1223,.T.);
#1221 = VERTEX_POINT('',#1222);
#1222 = CARTESIAN_POINT('',(70.24,0.,10.375));
#1223 = SURFACE_CURVE('',#1224,(#1228,#1235),.PCURVE_S1.);
#1224 = LINE('',#1225,#1226);
#1225 = CARTESIAN_POINT('',(52.152,7.12880515584,15.766472994467));
#1226 = VECTOR('',#1227,1.);
#1227 = DIRECTION('',(0.896518841362,-0.353334151847,-0.267224520247));
#1228 = PCURVE('',#598,#1229);
#1229 = DEFINITIONAL_REPRESENTATION('',(#1230),#1234);
#1230 = LINE('',#1231,#1232);
#1231 = CARTESIAN_POINT('',(-8.938,-18.70531121339));
#1232 = VECTOR('',#1233,1.);
#1233 = DIRECTION('',(0.443005606153,-0.896518841362));
#1234 = ( GEOMETRIC_REPRESENTATION_CONTEXT(2) 
PARAMETRIC_REPRESENTATION_CONTEXT() REPRESENTATION_CONTEXT('2D SPACE',''
  ) );
#1235 = PCURVE('',#1236,#1241);
#1236 = PLANE('',#1237);
#1237 = AXIS2_PLACEMENT_3D('',#1238,#1239,#1240);
#1238 = CARTESIAN_POINT('',(52.152,7.12880515584,15.766472994467));
#1239 = DIRECTION('',(0.443005606153,0.715049019759,0.540787326274));
#1240 = DIRECTION('',(0.896518841362,-0.353334151847,-0.267224520247));
#1241 = DEFINITIONAL_REPRESENTATION('',(#1242),#1246);
#1242 = LINE('',#1243,#1244);
#1243 = CARTESIAN_POINT('',(0.,0.));
#1244 = VECTOR('',#1245,1.);
#1245 = DIRECTION('',(1.,-6.88438830693E-17));
#1246 = ( GEOMETRIC_REPRESENTATION_CONTEXT(2) 
PARAMETRIC_REPRESENTATION_CONTEXT() REPRESENTATION_CONTEXT('2D SPACE',''
  ) );
#1247 = ORIENTED_EDGE('',*,*,#1248,.T.);
#1248 = EDGE_CURVE('',#1221,#1249,#1251,.T.);
#1249 = VERTEX_POINT('',#1250);
#1250 = CARTESIAN_POINT('',(52.152,-7.12880515584,4.983527005533));
#1251 = SURFACE_CURVE('',#1252,(#1256,#1263),.PCURVE_S1.);
#1252 = LINE('',#1253,#1254);
#1253 = CARTESIAN_POINT('',(70.24,0.,10.375));
#1254 = VECTOR('',#1255,1.);
#1255 = DIRECTION('',(-0.896518841362,-0.353334151847,-0.267224520247));
#1256 = PCURVE('',#598,#1257);
#1257 = DEFINITIONAL_REPRESENTATION('',(#1258),#1262);
#1258 = LINE('',#1259,#1260);
#1259 = CARTESIAN_POINT('',(-8.634241571903E-16,-36.79331121339));
#1260 = VECTOR('',#1261,1.);
#1261 = DIRECTION('',(0.443005606153,0.896518841362));
#1262 = ( GEOMETRIC_REPRESENTATION_CONTEXT(2) 
PARAMETRIC_REPRESENTATION_CONTEXT() REPRESENTATION_CONTEXT('2D SPACE',''
  ) );
#1263 = PCURVE('',#1264,#1269);
#1264 = PLANE('',#1265);
#1265 = AXIS2_PLACEMENT_3D('',#1266,#1267,#1268);
#1266 = CARTESIAN_POINT('',(70.24,0.,10.375));
#1267 = DIRECTION('',(0.443005606153,-0.715049019759,-0.540787326274));
#1268 = DIRECTION('',(-0.896518841362,-0.353334151847,-0.267224520247));
#1269 = DEFINITIONAL_REPRESENTATION('',(#1270),#1274);
#1270 = LINE('',#1271,#1272);
#1271 = CARTESIAN_POINT('',(-0.,0.));
#1272 = VECTOR('',#1273,1.);
#1273 = DIRECTION('',(1.,-6.88438830693E-17));
#1274 = ( GEOMETRIC_REPRESENTATION_CONTEXT(2) 
PARAMETRIC_REPRESENTATION_CONTEXT() REPRESENTATION_CONTEXT('2D SPACE',''
  ) );
#1275 = ORIENTED_EDGE('',*,*,#1276,.T.);
#1276 = EDGE_CURVE('',#1249,#968,#1277,.T.);
#1277 = SURFACE_CURVE('',#1278,(#1282,#1289),.PCURVE_S1.);
#1278 = LINE('',#1279,#1280);
#1279 = CARTESIAN_POINT('',(52.152,-7.12880515584,4.983527005533));
#1280 = VECTOR('',#1281,1.);
#1281 = DIRECTION('',(-0.997080404983,-6.090254993727E-02,
    -4.606023675819E-02));
#1282 = PCURVE('',#598,#1283);
#1283 = DEFINITIONAL_REPRESENTATION('',(#1284),#1288);
#1284 = LINE('',#1285,#1286);
#1285 = CARTESIAN_POINT('',(8.938,-18.70531121339));
#1286 = VECTOR('',#1287,1.);
#1287 = DIRECTION('',(7.635879778443E-02,0.997080404983));
#1288 = ( GEOMETRIC_REPRESENTATION_CONTEXT(2) 
PARAMETRIC_REPRESENTATION_CONTEXT() REPRESENTATION_CONTEXT('2D SPACE',''
  ) );
#1289 = PCURVE('',#1014,#1290);
#1290 = DEFINITIONAL_REPRESENTATION('',(#1291),#1295);
#1291 = LINE('',#1292,#1293);
#1292 = CARTESIAN_POINT('',(-0.,0.));
#1293 = VECTOR('',#1294,1.);
#1294 = DIRECTION('',(1.,-9.102182764799E-18));
#1295 = ( GEOMETRIC_REPRESENTATION_CONTEXT(2) 
PARAMETRIC_REPRESENTATION_CONTEXT() REPRESENTATION_CONTEXT('2D SPACE',''
  ) );
#1296 = ORIENTED_EDGE('',*,*,#967,.F.);
#1297 = ORIENTED_EDGE('',*,*,#889,.F.);
#1298 = ORIENTED_EDGE('',*,*,#1143,.T.);
#1299 = ADVANCED_FACE('',(#1300),#802,.T.);
#1300 = FACE_BOUND('',#1301,.T.);
#1301 = EDGE_LOOP('',(#1302,#1303,#1304,#1327));
#1302 = ORIENTED_EDGE('',*,*,#1169,.F.);
#1303 = ORIENTED_EDGE('',*,*,#778,.T.);
#1304 = ORIENTED_EDGE('',*,*,#1305,.T.);
#1305 = EDGE_CURVE('',#742,#1306,#1308,.T.);
#1306 = VERTEX_POINT('',#1307);
#1307 = CARTESIAN_POINT('',(5.64,5.656861997937,23.617824937916));
#1308 = SURFACE_CURVE('',#1309,(#1313,#1320),.PCURVE_S1.);
#1309 = LINE('',#1310,#1311);
#1310 = CARTESIAN_POINT('',(5.64,-14.28273622269,8.537625244284));
#1311 = VECTOR('',#1312,1.);
#1312 = DIRECTION('',(0.,0.797583928825,0.603207987745));
#1313 = PCURVE('',#802,#1314);
#1314 = DEFINITIONAL_REPRESENTATION('',(#1315),#1319);
#1315 = LINE('',#1316,#1317);
#1316 = CARTESIAN_POINT('',(6.786252456444E-17,-7.15));
#1317 = VECTOR('',#1318,1.);
#1318 = DIRECTION('',(1.,-8.93036204381E-18));
#1319 = ( GEOMETRIC_REPRESENTATION_CONTEXT(2) 
PARAMETRIC_REPRESENTATION_CONTEXT() REPRESENTATION_CONTEXT('2D SPACE',''
  ) );
#1320 = PCURVE('',#681,#1321);
#1321 = DEFINITIONAL_REPRESENTATION('',(#1322),#1326);
#1322 = LINE('',#1323,#1324);
#1323 = CARTESIAN_POINT('',(12.5,27.806688786608));
#1324 = VECTOR('',#1325,1.);
#1325 = DIRECTION('',(-1.,0.));
#1326 = ( GEOMETRIC_REPRESENTATION_CONTEXT(2) 
PARAMETRIC_REPRESENTATION_CONTEXT() REPRESENTATION_CONTEXT('2D SPACE',''
  ) );
#1327 = ORIENTED_EDGE('',*,*,#1328,.F.);
#1328 = EDGE_CURVE('',#1170,#1306,#1329,.T.);
#1329 = SURFACE_CURVE('',#1330,(#1334,#1341),.PCURVE_S1.);
#1330 = LINE('',#1331,#1332);
#1331 = CARTESIAN_POINT('',(5.64,9.969799110315,17.915099846816));
#1332 = VECTOR('',#1333,1.);
#1333 = DIRECTION('',(0.,-0.603207987745,0.797583928825));
#1334 = PCURVE('',#802,#1335);
#1335 = DEFINITIONAL_REPRESENTATION('',(#1336),#1340);
#1336 = LINE('',#1337,#1338);
#1337 = CARTESIAN_POINT('',(25.,-7.875951291609E-16));
#1338 = VECTOR('',#1339,1.);
#1339 = DIRECTION('',(-1.020919404187E-16,-1.));
#1340 = ( GEOMETRIC_REPRESENTATION_CONTEXT(2) 
PARAMETRIC_REPRESENTATION_CONTEXT() REPRESENTATION_CONTEXT('2D SPACE',''
  ) );
#1341 = PCURVE('',#1208,#1342);
#1342 = DEFINITIONAL_REPRESENTATION('',(#1343),#1347);
#1343 = LINE('',#1344,#1345);
#1344 = CARTESIAN_POINT('',(0.,0.));
#1345 = VECTOR('',#1346,1.);
#1346 = DIRECTION('',(2.885113325118E-17,-1.));
#1347 = ( GEOMETRIC_REPRESENTATION_CONTEXT(2) 
PARAMETRIC_REPRESENTATION_CONTEXT() REPRESENTATION_CONTEXT('2D SPACE',''
  ) );
#1348 = ADVANCED_FACE('',(#1349),#681,.F.);
#1349 = FACE_BOUND('',#1350,.F.);
#1350 = EDGE_LOOP('',(#1351,#1352,#1353,#1376,#1399,#1422,#1443,#1444,
    #1445));
#1351 = ORIENTED_EDGE('',*,*,#741,.T.);
#1352 = ORIENTED_EDGE('',*,*,#1305,.T.);
#1353 = ORIENTED_EDGE('',*,*,#1354,.T.);
#1354 = EDGE_CURVE('',#1306,#1355,#1357,.T.);
#1355 = VERTEX_POINT('',#1356);
#1356 = CARTESIAN_POINT('',(52.152,2.815868043461,21.469198085568));
#1357 = SURFACE_CURVE('',#1358,(#1362,#1369),.PCURVE_S1.);
#1358 = LINE('',#1359,#1360);
#1359 = CARTESIAN_POINT('',(5.64,5.656861997937,23.617824937916));
#1360 = VECTOR('',#1361,1.);
#1361 = DIRECTION('',(0.997080404983,-6.090254993727E-02,
    -4.606023675819E-02));
#1362 = PCURVE('',#681,#1363);
#1363 = DEFINITIONAL_REPRESENTATION('',(#1364),#1368);
#1364 = LINE('',#1365,#1366);
#1365 = CARTESIAN_POINT('',(-12.5,27.806688786608));
#1366 = VECTOR('',#1367,1.);
#1367 = DIRECTION('',(7.635879778443E-02,-0.997080404983));
#1368 = ( GEOMETRIC_REPRESENTATION_CONTEXT(2) 
PARAMETRIC_REPRESENTATION_CONTEXT() REPRESENTATION_CONTEXT('2D SPACE',''
  ) );
#1369 = PCURVE('',#1208,#1370);
#1370 = DEFINITIONAL_REPRESENTATION('',(#1371),#1375);
#1371 = LINE('',#1372,#1373);
#1372 = CARTESIAN_POINT('',(2.235479955056E-16,-7.15));
#1373 = VECTOR('',#1374,1.);
#1374 = DIRECTION('',(1.,-6.209271172414E-18));
#1375 = ( GEOMETRIC_REPRESENTATION_CONTEXT(2) 
PARAMETRIC_REPRESENTATION_CONTEXT() REPRESENTATION_CONTEXT('2D SPACE',''
  ) );
#1376 = ORIENTED_EDGE('',*,*,#1377,.T.);
#1377 = EDGE_CURVE('',#1355,#1378,#1380,.T.);
#1378 = VERTEX_POINT('',#1379);
#1379 = CARTESIAN_POINT('',(70.24,-4.312937112379,16.0777250911));
#1380 = SURFACE_CURVE('',#1381,(#1385,#1392),.PCURVE_S1.);
#1381 = LINE('',#1382,#1383);
#1382 = CARTESIAN_POINT('',(52.152,2.815868043461,21.469198085568));
#1383 = VECTOR('',#1384,1.);
#1384 = DIRECTION('',(0.896518841362,-0.353334151847,-0.267224520247));
#1385 = PCURVE('',#681,#1386);
#1386 = DEFINITIONAL_REPRESENTATION('',(#1387),#1391);
#1387 = LINE('',#1388,#1389);
#1388 = CARTESIAN_POINT('',(-8.938,-18.70531121339));
#1389 = VECTOR('',#1390,1.);
#1390 = DIRECTION('',(0.443005606153,-0.896518841362));
#1391 = ( GEOMETRIC_REPRESENTATION_CONTEXT(2) 
PARAMETRIC_REPRESENTATION_CONTEXT() REPRESENTATION_CONTEXT('2D SPACE',''
  ) );
#1392 = PCURVE('',#1236,#1393);
#1393 = DEFINITIONAL_REPRESENTATION('',(#1394),#1398);
#1394 = LINE('',#1395,#1396);
#1395 = CARTESIAN_POINT('',(-2.813419157264E-16,-7.15));
#1396 = VECTOR('',#1397,1.);
#1397 = DIRECTION('',(1.,-6.88438830693E-17));
#1398 = ( GEOMETRIC_REPRESENTATION_CONTEXT(2) 
PARAMETRIC_REPRESENTATION_CONTEXT() REPRESENTATION_CONTEXT('2D SPACE',''
  ) );
#1399 = ORIENTED_EDGE('',*,*,#1400,.T.);
#1400 = EDGE_CURVE('',#1378,#1401,#1403,.T.);
#1401 = VERTEX_POINT('',#1402);
#1402 = CARTESIAN_POINT('',(52.152,-11.44174226821,10.686252096633));
#1403 = SURFACE_CURVE('',#1404,(#1408,#1415),.PCURVE_S1.);
#1404 = LINE('',#1405,#1406);
#1405 = CARTESIAN_POINT('',(70.24,-4.312937112379,16.0777250911));
#1406 = VECTOR('',#1407,1.);
#1407 = DIRECTION('',(-0.896518841362,-0.353334151847,-0.267224520247));
#1408 = PCURVE('',#681,#1409);
#1409 = DEFINITIONAL_REPRESENTATION('',(#1410),#1414);
#1410 = LINE('',#1411,#1412);
#1411 = CARTESIAN_POINT('',(-8.634241571903E-16,-36.79331121339));
#1412 = VECTOR('',#1413,1.);
#1413 = DIRECTION('',(0.443005606153,0.896518841362));
#1414 = ( GEOMETRIC_REPRESENTATION_CONTEXT(2) 
PARAMETRIC_REPRESENTATION_CONTEXT() REPRESENTATION_CONTEXT('2D SPACE',''
  ) );
#1415 = PCURVE('',#1264,#1416);
#1416 = DEFINITIONAL_REPRESENTATION('',(#1417),#1421);
#1417 = LINE('',#1418,#1419);
#1418 = CARTESIAN_POINT('',(-5.929731080137E-17,-7.15));
#1419 = VECTOR('',#1420,1.);
#1420 = DIRECTION('',(1.,-6.88438830693E-17));
#1421 = ( GEOMETRIC_REPRESENTATION_CONTEXT(2) 
PARAMETRIC_REPRESENTATION_CONTEXT() REPRESENTATION_CONTEXT('2D SPACE',''
  ) );
#1422 = ORIENTED_EDGE('',*,*,#1423,.T.);
#1423 = EDGE_CURVE('',#1401,#995,#1424,.T.);
#1424 = SURFACE_CURVE('',#1425,(#1429,#1436),.PCURVE_S1.);
#1425 = LINE('',#1426,#1427);
#1426 = CARTESIAN_POINT('',(52.152,-11.44174226821,10.686252096633));
#1427 = VECTOR('',#1428,1.);
#1428 = DIRECTION('',(-0.997080404983,-6.090254993727E-02,
    -4.606023675819E-02));
#1429 = PCURVE('',#681,#1430);
#1430 = DEFINITIONAL_REPRESENTATION('',(#1431),#1435);
#1431 = LINE('',#1432,#1433);
#1432 = CARTESIAN_POINT('',(8.938,-18.70531121339));
#1433 = VECTOR('',#1434,1.);
#1434 = DIRECTION('',(7.635879778443E-02,0.997080404983));
#1435 = ( GEOMETRIC_REPRESENTATION_CONTEXT(2) 
PARAMETRIC_REPRESENTATION_CONTEXT() REPRESENTATION_CONTEXT('2D SPACE',''
  ) );
#1436 = PCURVE('',#1014,#1437);
#1437 = DEFINITIONAL_REPRESENTATION('',(#1438),#1442);
#1438 = LINE('',#1439,#1440);
#1439 = CARTESIAN_POINT('',(1.130872186073E-16,-7.15));
#1440 = VECTOR('',#1441,1.);
#1441 = DIRECTION('',(1.,-9.102182764799E-18));
#1442 = ( GEOMETRIC_REPRESENTATION_CONTEXT(2) 
PARAMETRIC_REPRESENTATION_CONTEXT() REPRESENTATION_CONTEXT('2D SPACE',''
  ) );
#1443 = ORIENTED_EDGE('',*,*,#1026,.F.);
#1444 = ORIENTED_EDGE('',*,*,#842,.T.);
#1445 = ORIENTED_EDGE('',*,*,#659,.T.);
#1446 = ADVANCED_FACE('',(#1447),#728,.T.);
#1447 = FACE_BOUND('',#1448,.T.);
#1448 = EDGE_LOOP('',(#1449));
#1449 = ORIENTED_EDGE('',*,*,#713,.T.);
#1450 = ADVANCED_FACE('',(#1451),#1014,.T.);
#1451 = FACE_BOUND('',#1452,.T.);
#1452 = EDGE_LOOP('',(#1453,#1454,#1475,#1476));
#1453 = ORIENTED_EDGE('',*,*,#1276,.F.);
#1454 = ORIENTED_EDGE('',*,*,#1455,.T.);
#1455 = EDGE_CURVE('',#1249,#1401,#1456,.T.);
#1456 = SURFACE_CURVE('',#1457,(#1461,#1468),.PCURVE_S1.);
#1457 = LINE('',#1458,#1459);
#1458 = CARTESIAN_POINT('',(52.152,-7.12880515584,4.983527005533));
#1459 = VECTOR('',#1460,1.);
#1460 = DIRECTION('',(0.,-0.603207987745,0.797583928825));
#1461 = PCURVE('',#1014,#1462);
#1462 = DEFINITIONAL_REPRESENTATION('',(#1463),#1467);
#1463 = LINE('',#1464,#1465);
#1464 = CARTESIAN_POINT('',(-0.,0.));
#1465 = VECTOR('',#1466,1.);
#1466 = DIRECTION('',(1.092736313184E-17,-1.));
#1467 = ( GEOMETRIC_REPRESENTATION_CONTEXT(2) 
PARAMETRIC_REPRESENTATION_CONTEXT() REPRESENTATION_CONTEXT('2D SPACE',''
  ) );
#1468 = PCURVE('',#1264,#1469);
#1469 = DEFINITIONAL_REPRESENTATION('',(#1470),#1474);
#1470 = LINE('',#1471,#1472);
#1471 = CARTESIAN_POINT('',(20.175816910351,-1.674452564527E-15));
#1472 = VECTOR('',#1473,1.);
#1473 = DIRECTION('',(-3.285437615127E-17,-1.));
#1474 = ( GEOMETRIC_REPRESENTATION_CONTEXT(2) 
PARAMETRIC_REPRESENTATION_CONTEXT() REPRESENTATION_CONTEXT('2D SPACE',''
  ) );
#1475 = ORIENTED_EDGE('',*,*,#1423,.T.);
#1476 = ORIENTED_EDGE('',*,*,#994,.F.);
#1477 = ADVANCED_FACE('',(#1478),#954,.F.);
#1478 = FACE_BOUND('',#1479,.T.);
#1479 = EDGE_LOOP('',(#1480));
#1480 = ORIENTED_EDGE('',*,*,#939,.F.);
#1481 = ADVANCED_FACE('',(#1482),#1264,.T.);
#1482 = FACE_BOUND('',#1483,.T.);
#1483 = EDGE_LOOP('',(#1484,#1505,#1506,#1507));
#1484 = ORIENTED_EDGE('',*,*,#1485,.T.);
#1485 = EDGE_CURVE('',#1221,#1378,#1486,.T.);
#1486 = SURFACE_CURVE('',#1487,(#1491,#1498),.PCURVE_S1.);
#1487 = LINE('',#1488,#1489);
#1488 = CARTESIAN_POINT('',(70.24,0.,10.375));
#1489 = VECTOR('',#1490,1.);
#1490 = DIRECTION('',(0.,-0.603207987745,0.797583928825));
#1491 = PCURVE('',#1264,#1492);
#1492 = DEFINITIONAL_REPRESENTATION('',(#1493),#1497);
#1493 = LINE('',#1494,#1495);
#1494 = CARTESIAN_POINT('',(-0.,0.));
#1495 = VECTOR('',#1496,1.);
#1496 = DIRECTION('',(-3.285437615127E-17,-1.));
#1497 = ( GEOMETRIC_REPRESENTATION_CONTEXT(2) 
PARAMETRIC_REPRESENTATION_CONTEXT() REPRESENTATION_CONTEXT('2D SPACE',''
  ) );
#1498 = PCURVE('',#1236,#1499);
#1499 = DEFINITIONAL_REPRESENTATION('',(#1500),#1504);
#1500 = LINE('',#1501,#1502);
#1501 = CARTESIAN_POINT('',(20.175816910351,-1.674452564527E-15));
#1502 = VECTOR('',#1503,1.);
#1503 = DIRECTION('',(-3.285437615127E-17,-1.));
#1504 = ( GEOMETRIC_REPRESENTATION_CONTEXT(2) 
PARAMETRIC_REPRESENTATION_CONTEXT() REPRESENTATION_CONTEXT('2D SPACE',''
  ) );
#1505 = ORIENTED_EDGE('',*,*,#1400,.T.);
#1506 = ORIENTED_EDGE('',*,*,#1455,.F.);
#1507 = ORIENTED_EDGE('',*,*,#1248,.F.);
#1508 = ADVANCED_FACE('',(#1509),#1236,.T.);
#1509 = FACE_BOUND('',#1510,.T.);
#1510 = EDGE_LOOP('',(#1511,#1532,#1533,#1534));
#1511 = ORIENTED_EDGE('',*,*,#1512,.T.);
#1512 = EDGE_CURVE('',#1193,#1355,#1513,.T.);
#1513 = SURFACE_CURVE('',#1514,(#1518,#1525),.PCURVE_S1.);
#1514 = LINE('',#1515,#1516);
#1515 = CARTESIAN_POINT('',(52.152,7.12880515584,15.766472994467));
#1516 = VECTOR('',#1517,1.);
#1517 = DIRECTION('',(0.,-0.603207987745,0.797583928825));
#1518 = PCURVE('',#1236,#1519);
#1519 = DEFINITIONAL_REPRESENTATION('',(#1520),#1524);
#1520 = LINE('',#1521,#1522);
#1521 = CARTESIAN_POINT('',(0.,0.));
#1522 = VECTOR('',#1523,1.);
#1523 = DIRECTION('',(-3.285437615127E-17,-1.));
#1524 = ( GEOMETRIC_REPRESENTATION_CONTEXT(2) 
PARAMETRIC_REPRESENTATION_CONTEXT() REPRESENTATION_CONTEXT('2D SPACE',''
  ) );
#1525 = PCURVE('',#1208,#1526);
#1526 = DEFINITIONAL_REPRESENTATION('',(#1527),#1531);
#1527 = LINE('',#1528,#1529);
#1528 = CARTESIAN_POINT('',(46.648193834274,-1.011367462336E-16));
#1529 = VECTOR('',#1530,1.);
#1530 = DIRECTION('',(2.885113325118E-17,-1.));
#1531 = ( GEOMETRIC_REPRESENTATION_CONTEXT(2) 
PARAMETRIC_REPRESENTATION_CONTEXT() REPRESENTATION_CONTEXT('2D SPACE',''
  ) );
#1532 = ORIENTED_EDGE('',*,*,#1377,.T.);
#1533 = ORIENTED_EDGE('',*,*,#1485,.F.);
#1534 = ORIENTED_EDGE('',*,*,#1220,.F.);
#1535 = ADVANCED_FACE('',(#1536),#1208,.T.);
#1536 = FACE_BOUND('',#1537,.T.);
#1537 = EDGE_LOOP('',(#1538,#1539,#1540,#1541));
#1538 = ORIENTED_EDGE('',*,*,#1328,.T.);
#1539 = ORIENTED_EDGE('',*,*,#1354,.T.);
#1540 = ORIENTED_EDGE('',*,*,#1512,.F.);
#1541 = ORIENTED_EDGE('',*,*,#1192,.F.);
#1542 = ( GEOMETRIC_REPRESENTATION_CONTEXT(3) 
GLOBAL_UNCERTAINTY_ASSIGNED_CONTEXT((#1546)) 
GLOBAL_UNIT_ASSIGNED_CONTEXT((#1543,#1544,#1545)) REPRESENTATION_CONTEXT
('Context #1','3D Context with UNIT and UNCERTAINTY') );
#1543 = ( LENGTH_UNIT() NAMED_UNIT(*) SI_UNIT(.MILLI.,.METRE.) );
#1544 = ( NAMED_UNIT(*) PLANE_ANGLE_UNIT() SI_UNIT($,.RADIAN.) );
#1545 = ( NAMED_UNIT(*) SI_UNIT($,.STERADIAN.) SOLID_ANGLE_UNIT() );
#1546 = UNCERTAINTY_MEASURE_WITH_UNIT(LENGTH_MEASURE(2.E-07),#1543,
  'distance_accuracy_value','confusion accuracy');
#1547 = PRODUCT_RELATED_PRODUCT_CATEGORY('part',$,(#7));
ENDSEC;
END-ISO-10303-21;
