ISO-10303-21;
HEADER;
FILE_DESCRIPTION(('Open CASCADE Model'),'2;1');
FILE_NAME('Open CASCADE Shape Model','2026-04-20T01:11:08',('Author'),(
    'Open CASCADE'),'Open CASCADE STEP processor 7.9','Open CASCADE 7.9'
  ,'Unknown');
FILE_SCHEMA(('AUTOMOTIVE_DESIGN { 1 0 10303 214 1 1 1 1 }'));
ENDSEC;
DATA;
#1 = APPLICATION_PROTOCOL_DEFINITION('international standard',
  'automotive_design',2000,#2);
#2 = APPLICATION_CONTEXT(
  'core data for automotive mechanical design processes');
#3 = SHAPE_DEFINITION_REPRESENTATION(#4,#10);
#4 = PRODUCT_DEFINITION_SHAPE('','',#5);
#5 = PRODUCT_DEFINITION('design','',#6,#9);
#6 = PRODUCT_DEFINITION_FORMATION('','',#7);
#7 = PRODUCT('Open CASCADE STEP translator 7.9 502',
  'Open CASCADE STEP translator 7.9 502','',(#8));
#8 = PRODUCT_CONTEXT('',#2,'mechanical');
#9 = PRODUCT_DEFINITION_CONTEXT('part definition',#2,'design');
#10 = ADVANCED_BREP_SHAPE_REPRESENTATION('',(#11,#15),#1548);
#11 = AXIS2_PLACEMENT_3D('',#12,#13,#14);
#12 = CARTESIAN_POINT('',(0.,0.,0.));
#13 = DIRECTION('',(0.,0.,1.));
#14 = DIRECTION('',(1.,0.,-0.));
#15 = MANIFOLD_SOLID_BREP('',#16);
#16 = CLOSED_SHELL('',(#17,#147,#349,#398,#568,#815,#863,#1084,#1111,
    #1138,#1145,#1170,#1305,#1354,#1452,#1456,#1483,#1487,#1514,#1541));
#17 = ADVANCED_FACE('',(#18),#32,.T.);
#18 = FACE_BOUND('',#19,.T.);
#19 = EDGE_LOOP('',(#20,#55,#93,#121));
#20 = ORIENTED_EDGE('',*,*,#21,.F.);
#21 = EDGE_CURVE('',#22,#24,#26,.T.);
#22 = VERTEX_POINT('',#23);
#23 = CARTESIAN_POINT('',(-5.64,-9.354759354815,17.449948933049));
#24 = VERTEX_POINT('',#25);
#25 = CARTESIAN_POINT('',(-5.64,-9.969799110315,17.915099846816));
#26 = SURFACE_CURVE('',#27,(#31,#43),.PCURVE_S1.);
#27 = LINE('',#28,#29);
#28 = CARTESIAN_POINT('',(-5.64,9.969799110315,2.834900153184));
#29 = VECTOR('',#30,1.);
#30 = DIRECTION('',(-7.105427357601E-17,-0.797583928825,0.603207987745)
  );
#31 = PCURVE('',#32,#37);
#32 = PLANE('',#33);
#33 = AXIS2_PLACEMENT_3D('',#34,#35,#36);
#34 = CARTESIAN_POINT('',(-5.64,9.969799110315,2.834900153184));
#35 = DIRECTION('',(1.,-1.012317299855E-16,-1.605835390839E-17));
#36 = DIRECTION('',(-7.105427357601E-17,-0.797583928825,0.603207987745)
  );
#37 = DEFINITIONAL_REPRESENTATION('',(#38),#42);
#38 = LINE('',#39,#40);
#39 = CARTESIAN_POINT('',(0.,-0.));
#40 = VECTOR('',#41,1.);
#41 = DIRECTION('',(1.,-8.93036204381E-18));
#42 = ( GEOMETRIC_REPRESENTATION_CONTEXT(2) 
PARAMETRIC_REPRESENTATION_CONTEXT() REPRESENTATION_CONTEXT('2D SPACE',''
  ) );
#43 = PCURVE('',#44,#49);
#44 = PLANE('',#45);
#45 = AXIS2_PLACEMENT_3D('',#46,#47,#48);
#46 = CARTESIAN_POINT('',(-33.4466887866,3.762138931426E-15,10.375));
#47 = DIRECTION('',(-0.,-0.603207987745,-0.797583928825));
#48 = DIRECTION('',(0.,-0.797583928825,0.603207987745));
#49 = DEFINITIONAL_REPRESENTATION('',(#50),#54);
#50 = LINE('',#51,#52);
#51 = CARTESIAN_POINT('',(-12.5,-27.8066887866));
#52 = VECTOR('',#53,1.);
#53 = DIRECTION('',(1.,7.105427357601E-17));
#54 = ( GEOMETRIC_REPRESENTATION_CONTEXT(2) 
PARAMETRIC_REPRESENTATION_CONTEXT() REPRESENTATION_CONTEXT('2D SPACE',''
  ) );
#55 = ORIENTED_EDGE('',*,*,#56,.T.);
#56 = EDGE_CURVE('',#22,#57,#59,.T.);
#57 = VERTEX_POINT('',#58);
#58 = CARTESIAN_POINT('',(-5.64,-1.439356543202,20.42815061436));
#59 = SURFACE_CURVE('',#60,(#65,#72),.PCURVE_S1.);
#60 = HYPERBOLA('',#61,3.291828793774,5.64);
#61 = AXIS2_PLACEMENT_3D('',#62,#63,#64);
#62 = CARTESIAN_POINT('',(-5.64,5.709469571181E-16,23.825486381323));
#63 = DIRECTION('',(1.,-1.012317299855E-16,-1.605835390839E-17));
#64 = DIRECTION('',(-1.605835390839E-17,1.625614946866E-33,-1.));
#65 = PCURVE('',#32,#66);
#66 = DEFINITIONAL_REPRESENTATION('',(#67),#71);
#67 = ( BOUNDED_CURVE() B_SPLINE_CURVE(2,(#68,#69,#70),.UNSPECIFIED.,.F.
,.F.) B_SPLINE_CURVE_WITH_KNOTS((3,3),(-1.342986234223,-6.7941161701E-02
),.PIECEWISE_BEZIER_KNOTS.) CURVE() GEOMETRIC_REPRESENTATION_ITEM() 
RATIONAL_B_SPLINE_CURVE((1.,1.210194311741,1.)) REPRESENTATION_ITEM('') 
  );
#68 = CARTESIAN_POINT('',(24.579499753323,0.715));
#69 = CARTESIAN_POINT('',(21.392398577667,-5.843939183565));
#70 = CARTESIAN_POINT('',(18.929058633016,-7.865));
#71 = ( GEOMETRIC_REPRESENTATION_CONTEXT(2) 
PARAMETRIC_REPRESENTATION_CONTEXT() REPRESENTATION_CONTEXT('2D SPACE',''
  ) );
#72 = PCURVE('',#73,#78);
#73 = CONICAL_SURFACE('',#74,16.92,1.042479981905);
#74 = AXIS2_PLACEMENT_3D('',#75,#76,#77);
#75 = CARTESIAN_POINT('',(0.,0.,13.95));
#76 = DIRECTION('',(-0.,-0.,-1.));
#77 = DIRECTION('',(1.,0.,0.));
#78 = DEFINITIONAL_REPRESENTATION('',(#79),#92);
#79 = B_SPLINE_CURVE_WITH_KNOTS('',6,(#80,#81,#82,#83,#84,#85,#86,#87,
    #88,#89,#90,#91),.UNSPECIFIED.,.F.,.F.,(7,5,7),(-1.342986234223,
    -0.705463697962,-6.7941161701E-02),.UNSPECIFIED.);
#80 = CARTESIAN_POINT('',(-4.201658434685,-3.141178230062));
#81 = CARTESIAN_POINT('',(-4.149720037194,-3.765411310308));
#82 = CARTESIAN_POINT('',(-4.092003882285,-4.298409314491));
#83 = CARTESIAN_POINT('',(-4.027962119656,-4.752856229767));
#84 = CARTESIAN_POINT('',(-3.957118372619,-5.138353121728));
#85 = CARTESIAN_POINT('',(-3.879283580602,-5.462247780586));
#86 = CARTESIAN_POINT('',(-3.71053742074,-5.997711453148));
#87 = CARTESIAN_POINT('',(-3.61962496391,-6.209280726477));
#88 = CARTESIAN_POINT('',(-3.522624643208,-6.370127691796));
#89 = CARTESIAN_POINT('',(-3.420582570364,-6.483792925032));
#90 = CARTESIAN_POINT('',(-3.315490599192,-6.552275110897));
#91 = CARTESIAN_POINT('',(-3.209481606112,-6.576057121328));
#92 = ( GEOMETRIC_REPRESENTATION_CONTEXT(2) 
PARAMETRIC_REPRESENTATION_CONTEXT() REPRESENTATION_CONTEXT('2D SPACE',''
  ) );
#93 = ORIENTED_EDGE('',*,*,#94,.T.);
#94 = EDGE_CURVE('',#57,#95,#97,.T.);
#95 = VERTEX_POINT('',#96);
#96 = CARTESIAN_POINT('',(-5.64,-5.656861997937,23.617824937916));
#97 = SURFACE_CURVE('',#98,(#102,#109),.PCURVE_S1.);
#98 = LINE('',#99,#100);
#99 = CARTESIAN_POINT('',(-5.64,14.282736222694,8.537625244284));
#100 = VECTOR('',#101,1.);
#101 = DIRECTION('',(-7.105427357601E-17,-0.797583928825,0.603207987745)
  );
#102 = PCURVE('',#32,#103);
#103 = DEFINITIONAL_REPRESENTATION('',(#104),#108);
#104 = LINE('',#105,#106);
#105 = CARTESIAN_POINT('',(6.786252456444E-17,-7.15));
#106 = VECTOR('',#107,1.);
#107 = DIRECTION('',(1.,-8.93036204381E-18));
#108 = ( GEOMETRIC_REPRESENTATION_CONTEXT(2) 
PARAMETRIC_REPRESENTATION_CONTEXT() REPRESENTATION_CONTEXT('2D SPACE',''
  ) );
#109 = PCURVE('',#110,#115);
#110 = PLANE('',#111);
#111 = AXIS2_PLACEMENT_3D('',#112,#113,#114);
#112 = CARTESIAN_POINT('',(-33.4466887866,4.312937112379,16.0777250911)
  );
#113 = DIRECTION('',(-0.,-0.603207987745,-0.797583928825));
#114 = DIRECTION('',(0.,-0.797583928825,0.603207987745));
#115 = DEFINITIONAL_REPRESENTATION('',(#116),#120);
#116 = LINE('',#117,#118);
#117 = CARTESIAN_POINT('',(-12.5,-27.8066887866));
#118 = VECTOR('',#119,1.);
#119 = DIRECTION('',(1.,7.105427357601E-17));
#120 = ( GEOMETRIC_REPRESENTATION_CONTEXT(2) 
PARAMETRIC_REPRESENTATION_CONTEXT() REPRESENTATION_CONTEXT('2D SPACE',''
  ) );
#121 = ORIENTED_EDGE('',*,*,#122,.F.);
#122 = EDGE_CURVE('',#24,#95,#123,.T.);
#123 = SURFACE_CURVE('',#124,(#128,#135),.PCURVE_S1.);
#124 = LINE('',#125,#126);
#125 = CARTESIAN_POINT('',(-5.64,-9.969799110315,17.915099846816));
#126 = VECTOR('',#127,1.);
#127 = DIRECTION('',(7.387167314124E-17,0.603207987745,0.797583928825));
#128 = PCURVE('',#32,#129);
#129 = DEFINITIONAL_REPRESENTATION('',(#130),#134);
#130 = LINE('',#131,#132);
#131 = CARTESIAN_POINT('',(25.,-7.875951291609E-16));
#132 = VECTOR('',#133,1.);
#133 = DIRECTION('',(-1.020919404187E-16,-1.));
#134 = ( GEOMETRIC_REPRESENTATION_CONTEXT(2) 
PARAMETRIC_REPRESENTATION_CONTEXT() REPRESENTATION_CONTEXT('2D SPACE',''
  ) );
#135 = PCURVE('',#136,#141);
#136 = PLANE('',#137);
#137 = AXIS2_PLACEMENT_3D('',#138,#139,#140);
#138 = CARTESIAN_POINT('',(-5.64,-9.969799110315,17.915099846816));
#139 = DIRECTION('',(-7.635879778443E-02,-0.795255306761,0.60144686471)
  );
#140 = DIRECTION('',(-0.997080404983,6.090254993727E-02,
    -4.606023675819E-02));
#141 = DEFINITIONAL_REPRESENTATION('',(#142),#146);
#142 = LINE('',#143,#144);
#143 = CARTESIAN_POINT('',(0.,-0.));
#144 = VECTOR('',#145,1.);
#145 = DIRECTION('',(2.33167829896E-17,-1.));
#146 = ( GEOMETRIC_REPRESENTATION_CONTEXT(2) 
PARAMETRIC_REPRESENTATION_CONTEXT() REPRESENTATION_CONTEXT('2D SPACE',''
  ) );
#147 = ADVANCED_FACE('',(#148),#44,.T.);
#148 = FACE_BOUND('',#149,.T.);
#149 = EDGE_LOOP('',(#150,#183,#184,#207,#235,#263,#291,#325));
#150 = ORIENTED_EDGE('',*,*,#151,.T.);
#151 = EDGE_CURVE('',#152,#22,#154,.T.);
#152 = VERTEX_POINT('',#153);
#153 = CARTESIAN_POINT('',(-16.24628869227,-4.726997326757,13.95));
#154 = SURFACE_CURVE('',#155,(#160,#167),.PCURVE_S1.);
#155 = HYPERBOLA('',#156,42.549851619102,27.965793653382);
#156 = AXIS2_PLACEMENT_3D('',#157,#158,#159);
#157 = CARTESIAN_POINT('',(0.,-43.97511644081,43.633119353284));
#158 = DIRECTION('',(0.,-0.603207987745,-0.797583928825));
#159 = DIRECTION('',(0.,0.797583928825,-0.603207987745));
#160 = PCURVE('',#44,#161);
#161 = DEFINITIONAL_REPRESENTATION('',(#162),#166);
#162 = ( BOUNDED_CURVE() B_SPLINE_CURVE(2,(#163,#164,#165),
.UNSPECIFIED.,.F.,.F.) B_SPLINE_CURVE_WITH_KNOTS((3,3),(-0.552407594246,
2.931733517384E-02),.PIECEWISE_BEZIER_KNOTS.) CURVE() 
GEOMETRIC_REPRESENTATION_ITEM() RATIONAL_B_SPLINE_CURVE((1.,
1.042599550818,1.)) REPRESENTATION_ITEM('') );
#163 = CARTESIAN_POINT('',(5.92664565561,-17.20040009433));
#164 = CARTESIAN_POINT('',(12.920259675836,-26.35097005668));
#165 = CARTESIAN_POINT('',(12.567270534426,-34.2666887866));
#166 = ( GEOMETRIC_REPRESENTATION_CONTEXT(2) 
PARAMETRIC_REPRESENTATION_CONTEXT() REPRESENTATION_CONTEXT('2D SPACE',''
  ) );
#167 = PCURVE('',#73,#168);
#168 = DEFINITIONAL_REPRESENTATION('',(#169),#182);
#169 = B_SPLINE_CURVE_WITH_KNOTS('',6,(#170,#171,#172,#173,#174,#175,
    #176,#177,#178,#179,#180,#181),.UNSPECIFIED.,.F.,.F.,(7,5,7),(
    -0.552407594246,-0.261545129536,2.931733517384E-02),.UNSPECIFIED.);
#170 = CARTESIAN_POINT('',(-3.424734079528,9.027324732409E-16));
#171 = CARTESIAN_POINT('',(-3.504858189748,-0.722817370364));
#172 = CARTESIAN_POINT('',(-3.592020800741,-1.361927725079));
#173 = CARTESIAN_POINT('',(-3.686741141554,-1.920386916486));
#174 = CARTESIAN_POINT('',(-3.789402789154,-2.400665757496));
#175 = CARTESIAN_POINT('',(-3.899897072659,-2.804681100713));
#176 = CARTESIAN_POINT('',(-4.134635882458,-3.462972734398));
#177 = CARTESIAN_POINT('',(-4.258880672721,-3.717248685831));
#178 = CARTESIAN_POINT('',(-4.389058656919,-3.898047069538));
#179 = CARTESIAN_POINT('',(-4.523406807665,-4.006232369713));
#180 = CARTESIAN_POINT('',(-4.659212892048,-4.042160779299));
#181 = CARTESIAN_POINT('',(-4.794015342813,-4.005677970522));
#182 = ( GEOMETRIC_REPRESENTATION_CONTEXT(2) 
PARAMETRIC_REPRESENTATION_CONTEXT() REPRESENTATION_CONTEXT('2D SPACE',''
  ) );
#183 = ORIENTED_EDGE('',*,*,#21,.T.);
#184 = ORIENTED_EDGE('',*,*,#185,.T.);
#185 = EDGE_CURVE('',#24,#186,#188,.T.);
#186 = VERTEX_POINT('',#187);
#187 = CARTESIAN_POINT('',(-52.152,-7.12880515584,15.766472994467));
#188 = SURFACE_CURVE('',#189,(#193,#200),.PCURVE_S1.);
#189 = LINE('',#190,#191);
#190 = CARTESIAN_POINT('',(-5.64,-9.969799110315,17.915099846816));
#191 = VECTOR('',#192,1.);
#192 = DIRECTION('',(-0.997080404983,6.090254993727E-02,
    -4.606023675819E-02));
#193 = PCURVE('',#44,#194);
#194 = DEFINITIONAL_REPRESENTATION('',(#195),#199);
#195 = LINE('',#196,#197);
#196 = CARTESIAN_POINT('',(12.5,-27.8066887866));
#197 = VECTOR('',#198,1.);
#198 = DIRECTION('',(-7.635879778443E-02,0.997080404983));
#199 = ( GEOMETRIC_REPRESENTATION_CONTEXT(2) 
PARAMETRIC_REPRESENTATION_CONTEXT() REPRESENTATION_CONTEXT('2D SPACE',''
  ) );
#200 = PCURVE('',#136,#201);
#201 = DEFINITIONAL_REPRESENTATION('',(#202),#206);
#202 = LINE('',#203,#204);
#203 = CARTESIAN_POINT('',(0.,-0.));
#204 = VECTOR('',#205,1.);
#205 = DIRECTION('',(1.,-1.314816507632E-17));
#206 = ( GEOMETRIC_REPRESENTATION_CONTEXT(2) 
PARAMETRIC_REPRESENTATION_CONTEXT() REPRESENTATION_CONTEXT('2D SPACE',''
  ) );
#207 = ORIENTED_EDGE('',*,*,#208,.T.);
#208 = EDGE_CURVE('',#186,#209,#211,.T.);
#209 = VERTEX_POINT('',#210);
#210 = CARTESIAN_POINT('',(-70.24,8.601919117211E-15,10.375));
#211 = SURFACE_CURVE('',#212,(#216,#223),.PCURVE_S1.);
#212 = LINE('',#213,#214);
#213 = CARTESIAN_POINT('',(-52.152,-7.12880515584,15.766472994467));
#214 = VECTOR('',#215,1.);
#215 = DIRECTION('',(-0.896518841362,0.353334151847,-0.267224520247));
#216 = PCURVE('',#44,#217);
#217 = DEFINITIONAL_REPRESENTATION('',(#218),#222);
#218 = LINE('',#219,#220);
#219 = CARTESIAN_POINT('',(8.938,18.705311213392));
#220 = VECTOR('',#221,1.);
#221 = DIRECTION('',(-0.443005606153,0.896518841362));
#222 = ( GEOMETRIC_REPRESENTATION_CONTEXT(2) 
PARAMETRIC_REPRESENTATION_CONTEXT() REPRESENTATION_CONTEXT('2D SPACE',''
  ) );
#223 = PCURVE('',#224,#229);
#224 = PLANE('',#225);
#225 = AXIS2_PLACEMENT_3D('',#226,#227,#228);
#226 = CARTESIAN_POINT('',(-52.152,-7.12880515584,15.766472994467));
#227 = DIRECTION('',(-0.443005606153,-0.715049019759,0.540787326274));
#228 = DIRECTION('',(-0.896518841362,0.353334151847,-0.267224520247));
#229 = DEFINITIONAL_REPRESENTATION('',(#230),#234);
#230 = LINE('',#231,#232);
#231 = CARTESIAN_POINT('',(0.,-0.));
#232 = VECTOR('',#233,1.);
#233 = DIRECTION('',(1.,-4.108830745367E-17));
#234 = ( GEOMETRIC_REPRESENTATION_CONTEXT(2) 
PARAMETRIC_REPRESENTATION_CONTEXT() REPRESENTATION_CONTEXT('2D SPACE',''
  ) );
#235 = ORIENTED_EDGE('',*,*,#236,.T.);
#236 = EDGE_CURVE('',#209,#237,#239,.T.);
#237 = VERTEX_POINT('',#238);
#238 = CARTESIAN_POINT('',(-52.152,7.12880515584,4.983527005533));
#239 = SURFACE_CURVE('',#240,(#244,#251),.PCURVE_S1.);
#240 = LINE('',#241,#242);
#241 = CARTESIAN_POINT('',(-70.24,8.601919117211E-15,10.375));
#242 = VECTOR('',#243,1.);
#243 = DIRECTION('',(0.896518841362,0.353334151847,-0.267224520247));
#244 = PCURVE('',#44,#245);
#245 = DEFINITIONAL_REPRESENTATION('',(#246),#250);
#246 = LINE('',#247,#248);
#247 = CARTESIAN_POINT('',(-2.845464599372E-15,36.793311213392));
#248 = VECTOR('',#249,1.);
#249 = DIRECTION('',(-0.443005606153,-0.896518841362));
#250 = ( GEOMETRIC_REPRESENTATION_CONTEXT(2) 
PARAMETRIC_REPRESENTATION_CONTEXT() REPRESENTATION_CONTEXT('2D SPACE',''
  ) );
#251 = PCURVE('',#252,#257);
#252 = PLANE('',#253);
#253 = AXIS2_PLACEMENT_3D('',#254,#255,#256);
#254 = CARTESIAN_POINT('',(-70.24,8.601919117211E-15,10.375));
#255 = DIRECTION('',(-0.443005606153,0.715049019759,-0.540787326274));
#256 = DIRECTION('',(0.896518841362,0.353334151847,-0.267224520247));
#257 = DEFINITIONAL_REPRESENTATION('',(#258),#262);
#258 = LINE('',#259,#260);
#259 = CARTESIAN_POINT('',(0.,-0.));
#260 = VECTOR('',#261,1.);
#261 = DIRECTION('',(1.,1.442284377759E-17));
#262 = ( GEOMETRIC_REPRESENTATION_CONTEXT(2) 
PARAMETRIC_REPRESENTATION_CONTEXT() REPRESENTATION_CONTEXT('2D SPACE',''
  ) );
#263 = ORIENTED_EDGE('',*,*,#264,.T.);
#264 = EDGE_CURVE('',#237,#265,#267,.T.);
#265 = VERTEX_POINT('',#266);
#266 = CARTESIAN_POINT('',(-16.3289692134,9.316907449779,3.32867823789)
  );
#267 = SURFACE_CURVE('',#268,(#272,#279),.PCURVE_S1.);
#268 = LINE('',#269,#270);
#269 = CARTESIAN_POINT('',(-52.152,7.12880515584,4.983527005533));
#270 = VECTOR('',#271,1.);
#271 = DIRECTION('',(0.997080404983,6.090254993727E-02,
    -4.606023675819E-02));
#272 = PCURVE('',#44,#273);
#273 = DEFINITIONAL_REPRESENTATION('',(#274),#278);
#274 = LINE('',#275,#276);
#275 = CARTESIAN_POINT('',(-8.938,18.705311213392));
#276 = VECTOR('',#277,1.);
#277 = DIRECTION('',(-7.635879778443E-02,-0.997080404983));
#278 = ( GEOMETRIC_REPRESENTATION_CONTEXT(2) 
PARAMETRIC_REPRESENTATION_CONTEXT() REPRESENTATION_CONTEXT('2D SPACE',''
  ) );
#279 = PCURVE('',#280,#285);
#280 = PLANE('',#281);
#281 = AXIS2_PLACEMENT_3D('',#282,#283,#284);
#282 = CARTESIAN_POINT('',(-52.152,7.12880515584,4.983527005533));
#283 = DIRECTION('',(-7.635879778443E-02,0.795255306761,-0.60144686471)
  );
#284 = DIRECTION('',(0.997080404983,6.090254993727E-02,
    -4.606023675819E-02));
#285 = DEFINITIONAL_REPRESENTATION('',(#286),#290);
#286 = LINE('',#287,#288);
#287 = CARTESIAN_POINT('',(0.,-0.));
#288 = VECTOR('',#289,1.);
#289 = DIRECTION('',(1.,-3.567832503219E-18));
#290 = ( GEOMETRIC_REPRESENTATION_CONTEXT(2) 
PARAMETRIC_REPRESENTATION_CONTEXT() REPRESENTATION_CONTEXT('2D SPACE',''
  ) );
#291 = ORIENTED_EDGE('',*,*,#292,.F.);
#292 = EDGE_CURVE('',#293,#265,#295,.T.);
#293 = VERTEX_POINT('',#294);
#294 = CARTESIAN_POINT('',(-18.19602968432,-4.726997326757,13.95));
#295 = SURFACE_CURVE('',#296,(#301,#308),.PCURVE_S1.);
#296 = ELLIPSE('',#297,23.57118708208,18.8);
#297 = AXIS2_PLACEMENT_3D('',#298,#299,#300);
#298 = CARTESIAN_POINT('',(0.,0.,10.375));
#299 = DIRECTION('',(-0.,-0.603207987745,-0.797583928825));
#300 = DIRECTION('',(0.,-0.797583928825,0.603207987745));
#301 = PCURVE('',#44,#302);
#302 = DEFINITIONAL_REPRESENTATION('',(#303),#307);
#303 = ELLIPSE('',#304,23.57118708208,18.8);
#304 = AXIS2_PLACEMENT_2D('',#305,#306);
#305 = CARTESIAN_POINT('',(6.21515945355E-15,-33.4466887866));
#306 = DIRECTION('',(1.,0.));
#307 = ( GEOMETRIC_REPRESENTATION_CONTEXT(2) 
PARAMETRIC_REPRESENTATION_CONTEXT() REPRESENTATION_CONTEXT('2D SPACE',''
  ) );
#308 = PCURVE('',#309,#314);
#309 = CYLINDRICAL_SURFACE('',#310,18.8);
#310 = AXIS2_PLACEMENT_3D('',#311,#312,#313);
#311 = CARTESIAN_POINT('',(0.,0.,-13.95));
#312 = DIRECTION('',(0.,0.,1.));
#313 = DIRECTION('',(1.,0.,0.));
#314 = DEFINITIONAL_REPRESENTATION('',(#315),#324);
#315 = B_SPLINE_CURVE_WITH_KNOTS('',7,(#316,#317,#318,#319,#320,#321,
    #322,#323),.UNSPECIFIED.,.F.,.F.,(8,8),(1.316632620065,
    2.260579779392),.PIECEWISE_BEZIER_KNOTS.);
#316 = CARTESIAN_POINT('',(3.395756360319,27.9000006));
#317 = CARTESIAN_POINT('',(3.26090676613,26.044261300514));
#318 = CARTESIAN_POINT('',(3.12605717194,24.112677893098));
#319 = CARTESIAN_POINT('',(2.991207577751,22.160367613524));
#320 = CARTESIAN_POINT('',(2.856357983561,20.245828745048));
#321 = CARTESIAN_POINT('',(2.721508389371,18.426841176332));
#322 = CARTESIAN_POINT('',(2.586658795182,16.755882034763));
#323 = CARTESIAN_POINT('',(2.451809200992,15.276880183821));
#324 = ( GEOMETRIC_REPRESENTATION_CONTEXT(2) 
PARAMETRIC_REPRESENTATION_CONTEXT() REPRESENTATION_CONTEXT('2D SPACE',''
  ) );
#325 = ORIENTED_EDGE('',*,*,#326,.T.);
#326 = EDGE_CURVE('',#293,#152,#327,.T.);
#327 = SURFACE_CURVE('',#328,(#332,#338),.PCURVE_S1.);
#328 = LINE('',#329,#330);
#329 = CARTESIAN_POINT('',(-16.7233443933,-4.726997326757,13.95));
#330 = VECTOR('',#331,1.);
#331 = DIRECTION('',(1.,0.,0.));
#332 = PCURVE('',#44,#333);
#333 = DEFINITIONAL_REPRESENTATION('',(#334),#337);
#334 = B_SPLINE_CURVE_WITH_KNOTS('',1,(#335,#336),.UNSPECIFIED.,.F.,.F.,
  (2,2),(-2.076655606696,11.083344393304),.PIECEWISE_BEZIER_KNOTS.);
#335 = CARTESIAN_POINT('',(5.92664565561,-14.6466887866));
#336 = CARTESIAN_POINT('',(5.92664565561,-27.8066887866));
#337 = ( GEOMETRIC_REPRESENTATION_CONTEXT(2) 
PARAMETRIC_REPRESENTATION_CONTEXT() REPRESENTATION_CONTEXT('2D SPACE',''
  ) );
#338 = PCURVE('',#339,#344);
#339 = PLANE('',#340);
#340 = AXIS2_PLACEMENT_3D('',#341,#342,#343);
#341 = CARTESIAN_POINT('',(0.,0.,13.95));
#342 = DIRECTION('',(0.,0.,1.));
#343 = DIRECTION('',(1.,0.,0.));
#344 = DEFINITIONAL_REPRESENTATION('',(#345),#348);
#345 = B_SPLINE_CURVE_WITH_KNOTS('',1,(#346,#347),.UNSPECIFIED.,.F.,.F.,
  (2,2),(-2.076655606696,11.083344393304),.PIECEWISE_BEZIER_KNOTS.);
#346 = CARTESIAN_POINT('',(-18.8,-4.726997326757));
#347 = CARTESIAN_POINT('',(-5.64,-4.726997326757));
#348 = ( GEOMETRIC_REPRESENTATION_CONTEXT(2) 
PARAMETRIC_REPRESENTATION_CONTEXT() REPRESENTATION_CONTEXT('2D SPACE',''
  ) );
#349 = ADVANCED_FACE('',(#350),#136,.T.);
#350 = FACE_BOUND('',#351,.T.);
#351 = EDGE_LOOP('',(#352,#353,#376,#397));
#352 = ORIENTED_EDGE('',*,*,#122,.T.);
#353 = ORIENTED_EDGE('',*,*,#354,.T.);
#354 = EDGE_CURVE('',#95,#355,#357,.T.);
#355 = VERTEX_POINT('',#356);
#356 = CARTESIAN_POINT('',(-52.152,-2.815868043461,21.469198085568));
#357 = SURFACE_CURVE('',#358,(#362,#369),.PCURVE_S1.);
#358 = LINE('',#359,#360);
#359 = CARTESIAN_POINT('',(-5.64,-5.656861997937,23.617824937916));
#360 = VECTOR('',#361,1.);
#361 = DIRECTION('',(-0.997080404983,6.090254993727E-02,
    -4.606023675819E-02));
#362 = PCURVE('',#136,#363);
#363 = DEFINITIONAL_REPRESENTATION('',(#364),#368);
#364 = LINE('',#365,#366);
#365 = CARTESIAN_POINT('',(-1.490895162522E-16,-7.15));
#366 = VECTOR('',#367,1.);
#367 = DIRECTION('',(1.,-1.314816507632E-17));
#368 = ( GEOMETRIC_REPRESENTATION_CONTEXT(2) 
PARAMETRIC_REPRESENTATION_CONTEXT() REPRESENTATION_CONTEXT('2D SPACE',''
  ) );
#369 = PCURVE('',#110,#370);
#370 = DEFINITIONAL_REPRESENTATION('',(#371),#375);
#371 = LINE('',#372,#373);
#372 = CARTESIAN_POINT('',(12.5,-27.8066887866));
#373 = VECTOR('',#374,1.);
#374 = DIRECTION('',(-7.635879778443E-02,0.997080404983));
#375 = ( GEOMETRIC_REPRESENTATION_CONTEXT(2) 
PARAMETRIC_REPRESENTATION_CONTEXT() REPRESENTATION_CONTEXT('2D SPACE',''
  ) );
#376 = ORIENTED_EDGE('',*,*,#377,.F.);
#377 = EDGE_CURVE('',#186,#355,#378,.T.);
#378 = SURFACE_CURVE('',#379,(#383,#390),.PCURVE_S1.);
#379 = LINE('',#380,#381);
#380 = CARTESIAN_POINT('',(-52.152,-7.12880515584,15.766472994467));
#381 = VECTOR('',#382,1.);
#382 = DIRECTION('',(7.387167314124E-17,0.603207987745,0.797583928825));
#383 = PCURVE('',#136,#384);
#384 = DEFINITIONAL_REPRESENTATION('',(#385),#389);
#385 = LINE('',#386,#387);
#386 = CARTESIAN_POINT('',(46.648193834274,-7.672705610087E-16));
#387 = VECTOR('',#388,1.);
#388 = DIRECTION('',(2.33167829896E-17,-1.));
#389 = ( GEOMETRIC_REPRESENTATION_CONTEXT(2) 
PARAMETRIC_REPRESENTATION_CONTEXT() REPRESENTATION_CONTEXT('2D SPACE',''
  ) );
#390 = PCURVE('',#224,#391);
#391 = DEFINITIONAL_REPRESENTATION('',(#392),#396);
#392 = LINE('',#393,#394);
#393 = CARTESIAN_POINT('',(0.,-0.));
#394 = VECTOR('',#395,1.);
#395 = DIRECTION('',(-1.633514967426E-17,-1.));
#396 = ( GEOMETRIC_REPRESENTATION_CONTEXT(2) 
PARAMETRIC_REPRESENTATION_CONTEXT() REPRESENTATION_CONTEXT('2D SPACE',''
  ) );
#397 = ORIENTED_EDGE('',*,*,#185,.F.);
#398 = ADVANCED_FACE('',(#399),#110,.F.);
#399 = FACE_BOUND('',#400,.F.);
#400 = EDGE_LOOP('',(#401,#445,#446,#447,#470,#493,#516,#544));
#401 = ORIENTED_EDGE('',*,*,#402,.T.);
#402 = EDGE_CURVE('',#403,#57,#405,.T.);
#403 = VERTEX_POINT('',#404);
#404 = CARTESIAN_POINT('',(-15.34608530039,7.126293984464,13.95));
#405 = SURFACE_CURVE('',#406,(#411,#418),.PCURVE_S1.);
#406 = HYPERBOLA('',#407,14.190930264873,9.32695679152);
#407 = AXIS2_PLACEMENT_3D('',#408,#409,#410);
#408 = CARTESIAN_POINT('',(0.,-14.66627466501,30.431590222379));
#409 = DIRECTION('',(0.,-0.603207987745,-0.797583928825));
#410 = DIRECTION('',(0.,0.797583928825,-0.603207987745));
#411 = PCURVE('',#110,#412);
#412 = DEFINITIONAL_REPRESENTATION('',(#413),#417);
#413 = ( BOUNDED_CURVE() B_SPLINE_CURVE(2,(#414,#415,#416),
.UNSPECIFIED.,.F.,.F.) B_SPLINE_CURVE_WITH_KNOTS((3,3),(-1.272775207477,
8.780434171364E-02),.PIECEWISE_BEZIER_KNOTS.) CURVE() 
GEOMETRIC_REPRESENTATION_ITEM() RATIONAL_B_SPLINE_CURVE((1.,
1.240460001816,1.)) REPRESENTATION_ITEM('') );
#414 = CARTESIAN_POINT('',(-3.527348997903,-18.10060348621));
#415 = CARTESIAN_POINT('',(10.288442305527,-28.72656852323));
#416 = CARTESIAN_POINT('',(9.550211763532,-34.2666887866));
#417 = ( GEOMETRIC_REPRESENTATION_CONTEXT(2) 
PARAMETRIC_REPRESENTATION_CONTEXT() REPRESENTATION_CONTEXT('2D SPACE',''
  ) );
#418 = PCURVE('',#73,#419);
#419 = DEFINITIONAL_REPRESENTATION('',(#420),#444);
#420 = B_SPLINE_CURVE_WITH_KNOTS('',8,(#421,#422,#423,#424,#425,#426,
    #427,#428,#429,#430,#431,#432,#433,#434,#435,#436,#437,#438,#439,
    #440,#441,#442,#443),.UNSPECIFIED.,.F.,.F.,(9,7,7,9),(
    -1.272775207477,-0.592485432882,-0.252340545584,8.780434171364E-02),
  .UNSPECIFIED.);
#421 = CARTESIAN_POINT('',(-2.706851367465,-3.352146583968E-15));
#422 = CARTESIAN_POINT('',(-2.753726613722,-1.197676557278));
#423 = CARTESIAN_POINT('',(-2.807098634437,-2.259146257925));
#424 = CARTESIAN_POINT('',(-2.868209174231,-3.197606187939));
#425 = CARTESIAN_POINT('',(-2.938605884002,-4.024152258015));
#426 = CARTESIAN_POINT('',(-3.020300240488,-4.748084513002));
#427 = CARTESIAN_POINT('',(-3.115738488987,-5.377131658212));
#428 = CARTESIAN_POINT('',(-3.228240935083,-5.917617415751));
#429 = CARTESIAN_POINT('',(-3.42658191001,-6.603056760161));
#430 = CARTESIAN_POINT('',(-3.497626500413,-6.810654993105));
#431 = CARTESIAN_POINT('',(-3.573936026119,-6.998001076683));
#432 = CARTESIAN_POINT('',(-3.655796772185,-7.165643879165));
#433 = CARTESIAN_POINT('',(-3.743416810151,-7.314055375149));
#434 = CARTESIAN_POINT('',(-3.836825388822,-7.443633515923));
#435 = CARTESIAN_POINT('',(-3.935766970658,-7.554704381726));
#436 = CARTESIAN_POINT('',(-4.143542375775,-7.740342947664));
#437 = CARTESIAN_POINT('',(-4.252377151888,-7.814910647794));
#438 = CARTESIAN_POINT('',(-4.365568924108,-7.871482456594));
#439 = CARTESIAN_POINT('',(-4.482222129173,-7.910243677364));
#440 = CARTESIAN_POINT('',(-4.601049815023,-7.931310700848));
#441 = CARTESIAN_POINT('',(-4.720530715922,-7.934731810973));
#442 = CARTESIAN_POINT('',(-4.839160271484,-7.920487329887));
#443 = CARTESIAN_POINT('',(-4.955646555353,-7.888489111522));
#444 = ( GEOMETRIC_REPRESENTATION_CONTEXT(2) 
PARAMETRIC_REPRESENTATION_CONTEXT() REPRESENTATION_CONTEXT('2D SPACE',''
  ) );
#445 = ORIENTED_EDGE('',*,*,#94,.T.);
#446 = ORIENTED_EDGE('',*,*,#354,.T.);
#447 = ORIENTED_EDGE('',*,*,#448,.T.);
#448 = EDGE_CURVE('',#355,#449,#451,.T.);
#449 = VERTEX_POINT('',#450);
#450 = CARTESIAN_POINT('',(-70.24,4.312937112379,16.0777250911));
#451 = SURFACE_CURVE('',#452,(#456,#463),.PCURVE_S1.);
#452 = LINE('',#453,#454);
#453 = CARTESIAN_POINT('',(-52.152,-2.815868043461,21.469198085568));
#454 = VECTOR('',#455,1.);
#455 = DIRECTION('',(-0.896518841362,0.353334151847,-0.267224520247));
#456 = PCURVE('',#110,#457);
#457 = DEFINITIONAL_REPRESENTATION('',(#458),#462);
#458 = LINE('',#459,#460);
#459 = CARTESIAN_POINT('',(8.938,18.705311213392));
#460 = VECTOR('',#461,1.);
#461 = DIRECTION('',(-0.443005606153,0.896518841362));
#462 = ( GEOMETRIC_REPRESENTATION_CONTEXT(2) 
PARAMETRIC_REPRESENTATION_CONTEXT() REPRESENTATION_CONTEXT('2D SPACE',''
  ) );
#463 = PCURVE('',#224,#464);
#464 = DEFINITIONAL_REPRESENTATION('',(#465),#469);
#465 = LINE('',#466,#467);
#466 = CARTESIAN_POINT('',(2.57267524161E-16,-7.15));
#467 = VECTOR('',#468,1.);
#468 = DIRECTION('',(1.,-4.108830745367E-17));
#469 = ( GEOMETRIC_REPRESENTATION_CONTEXT(2) 
PARAMETRIC_REPRESENTATION_CONTEXT() REPRESENTATION_CONTEXT('2D SPACE',''
  ) );
#470 = ORIENTED_EDGE('',*,*,#471,.T.);
#471 = EDGE_CURVE('',#449,#472,#474,.T.);
#472 = VERTEX_POINT('',#473);
#473 = CARTESIAN_POINT('',(-52.152,11.441742268219,10.686252096633));
#474 = SURFACE_CURVE('',#475,(#479,#486),.PCURVE_S1.);
#475 = LINE('',#476,#477);
#476 = CARTESIAN_POINT('',(-70.24,4.312937112379,16.0777250911));
#477 = VECTOR('',#478,1.);
#478 = DIRECTION('',(0.896518841362,0.353334151847,-0.267224520247));
#479 = PCURVE('',#110,#480);
#480 = DEFINITIONAL_REPRESENTATION('',(#481),#485);
#481 = LINE('',#482,#483);
#482 = CARTESIAN_POINT('',(-2.845464599372E-15,36.793311213392));
#483 = VECTOR('',#484,1.);
#484 = DIRECTION('',(-0.443005606153,-0.896518841362));
#485 = ( GEOMETRIC_REPRESENTATION_CONTEXT(2) 
PARAMETRIC_REPRESENTATION_CONTEXT() REPRESENTATION_CONTEXT('2D SPACE',''
  ) );
#486 = PCURVE('',#252,#487);
#487 = DEFINITIONAL_REPRESENTATION('',(#488),#492);
#488 = LINE('',#489,#490);
#489 = CARTESIAN_POINT('',(-4.088662906141E-16,-7.15));
#490 = VECTOR('',#491,1.);
#491 = DIRECTION('',(1.,1.442284377759E-17));
#492 = ( GEOMETRIC_REPRESENTATION_CONTEXT(2) 
PARAMETRIC_REPRESENTATION_CONTEXT() REPRESENTATION_CONTEXT('2D SPACE',''
  ) );
#493 = ORIENTED_EDGE('',*,*,#494,.T.);
#494 = EDGE_CURVE('',#472,#495,#497,.T.);
#495 = VERTEX_POINT('',#496);
#496 = CARTESIAN_POINT('',(-12.71204907477,13.850769232085,8.86431931341
    ));
#497 = SURFACE_CURVE('',#498,(#502,#509),.PCURVE_S1.);
#498 = LINE('',#499,#500);
#499 = CARTESIAN_POINT('',(-52.152,11.441742268219,10.686252096633));
#500 = VECTOR('',#501,1.);
#501 = DIRECTION('',(0.997080404983,6.090254993727E-02,
    -4.606023675819E-02));
#502 = PCURVE('',#110,#503);
#503 = DEFINITIONAL_REPRESENTATION('',(#504),#508);
#504 = LINE('',#505,#506);
#505 = CARTESIAN_POINT('',(-8.938,18.705311213392));
#506 = VECTOR('',#507,1.);
#507 = DIRECTION('',(-7.635879778443E-02,-0.997080404983));
#508 = ( GEOMETRIC_REPRESENTATION_CONTEXT(2) 
PARAMETRIC_REPRESENTATION_CONTEXT() REPRESENTATION_CONTEXT('2D SPACE',''
  ) );
#509 = PCURVE('',#280,#510);
#510 = DEFINITIONAL_REPRESENTATION('',(#511),#515);
#511 = LINE('',#512,#513);
#512 = CARTESIAN_POINT('',(-7.854589195904E-16,-7.15));
#513 = VECTOR('',#514,1.);
#514 = DIRECTION('',(1.,-3.567832503219E-18));
#515 = ( GEOMETRIC_REPRESENTATION_CONTEXT(2) 
PARAMETRIC_REPRESENTATION_CONTEXT() REPRESENTATION_CONTEXT('2D SPACE',''
  ) );
#516 = ORIENTED_EDGE('',*,*,#517,.F.);
#517 = EDGE_CURVE('',#518,#495,#520,.T.);
#518 = VERTEX_POINT('',#519);
#519 = CARTESIAN_POINT('',(-17.39700934203,7.126293984464,13.95));
#520 = SURFACE_CURVE('',#521,(#526,#533),.PCURVE_S1.);
#521 = ELLIPSE('',#522,23.57118708208,18.8);
#522 = AXIS2_PLACEMENT_3D('',#523,#524,#525);
#523 = CARTESIAN_POINT('',(0.,0.,19.339573810472));
#524 = DIRECTION('',(-0.,-0.603207987745,-0.797583928825));
#525 = DIRECTION('',(0.,-0.797583928825,0.603207987745));
#526 = PCURVE('',#110,#527);
#527 = DEFINITIONAL_REPRESENTATION('',(#528),#532);
#528 = ELLIPSE('',#529,23.57118708208,18.8);
#529 = AXIS2_PLACEMENT_2D('',#530,#531);
#530 = CARTESIAN_POINT('',(5.407502529209,-33.4466887866));
#531 = DIRECTION('',(1.,0.));
#532 = ( GEOMETRIC_REPRESENTATION_CONTEXT(2) 
PARAMETRIC_REPRESENTATION_CONTEXT() REPRESENTATION_CONTEXT('2D SPACE',''
  ) );
#533 = PCURVE('',#309,#534);
#534 = DEFINITIONAL_REPRESENTATION('',(#535),#543);
#535 = B_SPLINE_CURVE_WITH_KNOTS('',6,(#536,#537,#538,#539,#540,#541,
    #542),.UNSPECIFIED.,.F.,.F.,(7,7),(1.959574603219,2.617506684977),
  .PIECEWISE_BEZIER_KNOTS.);
#536 = CARTESIAN_POINT('',(2.752814377166,27.9000006));
#537 = CARTESIAN_POINT('',(2.643159030206,26.457237229885));
#538 = CARTESIAN_POINT('',(2.533503683246,25.092241513579));
#539 = CARTESIAN_POINT('',(2.423848336287,23.836235277653));
#540 = CARTESIAN_POINT('',(2.314192989327,22.717658261304));
#541 = CARTESIAN_POINT('',(2.204537642367,21.759820869893));
#542 = CARTESIAN_POINT('',(2.094882295407,20.979605274921));
#543 = ( GEOMETRIC_REPRESENTATION_CONTEXT(2) 
PARAMETRIC_REPRESENTATION_CONTEXT() REPRESENTATION_CONTEXT('2D SPACE',''
  ) );
#544 = ORIENTED_EDGE('',*,*,#545,.T.);
#545 = EDGE_CURVE('',#518,#403,#546,.T.);
#546 = SURFACE_CURVE('',#547,(#551,#557),.PCURVE_S1.);
#547 = LINE('',#548,#549);
#548 = CARTESIAN_POINT('',(-16.7233443933,7.126293984464,13.95));
#549 = VECTOR('',#550,1.);
#550 = DIRECTION('',(1.,0.,0.));
#551 = PCURVE('',#110,#552);
#552 = DEFINITIONAL_REPRESENTATION('',(#553),#556);
#553 = B_SPLINE_CURVE_WITH_KNOTS('',1,(#554,#555),.UNSPECIFIED.,.F.,.F.,
  (2,2),(-2.076655606696,11.083344393304),.PIECEWISE_BEZIER_KNOTS.);
#554 = CARTESIAN_POINT('',(-3.527348997903,-14.6466887866));
#555 = CARTESIAN_POINT('',(-3.527348997903,-27.8066887866));
#556 = ( GEOMETRIC_REPRESENTATION_CONTEXT(2) 
PARAMETRIC_REPRESENTATION_CONTEXT() REPRESENTATION_CONTEXT('2D SPACE',''
  ) );
#557 = PCURVE('',#558,#563);
#558 = PLANE('',#559);
#559 = AXIS2_PLACEMENT_3D('',#560,#561,#562);
#560 = CARTESIAN_POINT('',(0.,0.,13.95));
#561 = DIRECTION('',(0.,0.,1.));
#562 = DIRECTION('',(1.,0.,0.));
#563 = DEFINITIONAL_REPRESENTATION('',(#564),#567);
#564 = B_SPLINE_CURVE_WITH_KNOTS('',1,(#565,#566),.UNSPECIFIED.,.F.,.F.,
  (2,2),(-2.076655606696,11.083344393304),.PIECEWISE_BEZIER_KNOTS.);
#565 = CARTESIAN_POINT('',(-18.8,7.126293984464));
#566 = CARTESIAN_POINT('',(-5.64,7.126293984464));
#567 = ( GEOMETRIC_REPRESENTATION_CONTEXT(2) 
PARAMETRIC_REPRESENTATION_CONTEXT() REPRESENTATION_CONTEXT('2D SPACE',''
  ) );
#568 = ADVANCED_FACE('',(#569),#73,.T.);
#569 = FACE_BOUND('',#570,.T.);
#570 = EDGE_LOOP('',(#571,#611,#633,#634,#635,#636,#660,#694,#714,#741,
    #742,#779));
#571 = ORIENTED_EDGE('',*,*,#572,.F.);
#572 = EDGE_CURVE('',#573,#575,#577,.T.);
#573 = VERTEX_POINT('',#574);
#574 = CARTESIAN_POINT('',(16.246288692278,4.726997326757,13.95));
#575 = VERTEX_POINT('',#576);
#576 = CARTESIAN_POINT('',(5.64,9.354759354815,17.449948933049));
#577 = SURFACE_CURVE('',#578,(#583,#599),.PCURVE_S1.);
#578 = HYPERBOLA('',#579,42.549851619102,27.965793653382);
#579 = AXIS2_PLACEMENT_3D('',#580,#581,#582);
#580 = CARTESIAN_POINT('',(0.,43.975116440819,43.633119353284));
#581 = DIRECTION('',(-0.,0.603207987745,-0.797583928825));
#582 = DIRECTION('',(0.,-0.797583928825,-0.603207987745));
#583 = PCURVE('',#73,#584);
#584 = DEFINITIONAL_REPRESENTATION('',(#585),#598);
#585 = B_SPLINE_CURVE_WITH_KNOTS('',6,(#586,#587,#588,#589,#590,#591,
    #592,#593,#594,#595,#596,#597),.UNSPECIFIED.,.F.,.F.,(7,5,7),(
    -0.552407594246,-0.261545129536,2.931733517384E-02),.UNSPECIFIED.);
#586 = CARTESIAN_POINT('',(-0.283141425938,3.093363274972E-15));
#587 = CARTESIAN_POINT('',(-0.363265536158,-0.722817370364));
#588 = CARTESIAN_POINT('',(-0.450428147151,-1.361927725079));
#589 = CARTESIAN_POINT('',(-0.545148487964,-1.920386916486));
#590 = CARTESIAN_POINT('',(-0.647810135564,-2.400665757496));
#591 = CARTESIAN_POINT('',(-0.758304419069,-2.804681100713));
#592 = CARTESIAN_POINT('',(-0.993043228868,-3.462972734398));
#593 = CARTESIAN_POINT('',(-1.117288019132,-3.717248685831));
#594 = CARTESIAN_POINT('',(-1.247466003329,-3.898047069538));
#595 = CARTESIAN_POINT('',(-1.381814154075,-4.006232369713));
#596 = CARTESIAN_POINT('',(-1.517620238458,-4.042160779299));
#597 = CARTESIAN_POINT('',(-1.652422689223,-4.005677970522));
#598 = ( GEOMETRIC_REPRESENTATION_CONTEXT(2) 
PARAMETRIC_REPRESENTATION_CONTEXT() REPRESENTATION_CONTEXT('2D SPACE',''
  ) );
#599 = PCURVE('',#600,#605);
#600 = PLANE('',#601);
#601 = AXIS2_PLACEMENT_3D('',#602,#603,#604);
#602 = CARTESIAN_POINT('',(33.446688786608,-3.582989458501E-16,10.375));
#603 = DIRECTION('',(-0.,0.603207987745,-0.797583928825));
#604 = DIRECTION('',(0.,-0.797583928825,-0.603207987745));
#605 = DEFINITIONAL_REPRESENTATION('',(#606),#610);
#606 = ( BOUNDED_CURVE() B_SPLINE_CURVE(2,(#607,#608,#609),
.UNSPECIFIED.,.F.,.F.) B_SPLINE_CURVE_WITH_KNOTS((3,3),(-0.552407594246,
2.931733517384E-02),.PIECEWISE_BEZIER_KNOTS.) CURVE() 
GEOMETRIC_REPRESENTATION_ITEM() RATIONAL_B_SPLINE_CURVE((1.,
1.042599550818,1.)) REPRESENTATION_ITEM('') );
#607 = CARTESIAN_POINT('',(-5.92664565561,17.20040009433));
#608 = CARTESIAN_POINT('',(-12.92025967583,26.350970056687));
#609 = CARTESIAN_POINT('',(-12.56727053442,34.266688786608));
#610 = ( GEOMETRIC_REPRESENTATION_CONTEXT(2) 
PARAMETRIC_REPRESENTATION_CONTEXT() REPRESENTATION_CONTEXT('2D SPACE',''
  ) );
#611 = ORIENTED_EDGE('',*,*,#612,.T.);
#612 = EDGE_CURVE('',#573,#403,#613,.T.);
#613 = SURFACE_CURVE('',#614,(#619,#626),.PCURVE_S1.);
#614 = CIRCLE('',#615,16.92);
#615 = AXIS2_PLACEMENT_3D('',#616,#617,#618);
#616 = CARTESIAN_POINT('',(0.,0.,13.95));
#617 = DIRECTION('',(0.,0.,1.));
#618 = DIRECTION('',(1.,0.,0.));
#619 = PCURVE('',#73,#620);
#620 = DEFINITIONAL_REPRESENTATION('',(#621),#625);
#621 = LINE('',#622,#623);
#622 = CARTESIAN_POINT('',(-0.,-0.));
#623 = VECTOR('',#624,1.);
#624 = DIRECTION('',(-1.,-0.));
#625 = ( GEOMETRIC_REPRESENTATION_CONTEXT(2) 
PARAMETRIC_REPRESENTATION_CONTEXT() REPRESENTATION_CONTEXT('2D SPACE',''
  ) );
#626 = PCURVE('',#558,#627);
#627 = DEFINITIONAL_REPRESENTATION('',(#628),#632);
#628 = CIRCLE('',#629,16.92);
#629 = AXIS2_PLACEMENT_2D('',#630,#631);
#630 = CARTESIAN_POINT('',(0.,0.));
#631 = DIRECTION('',(1.,0.));
#632 = ( GEOMETRIC_REPRESENTATION_CONTEXT(2) 
PARAMETRIC_REPRESENTATION_CONTEXT() REPRESENTATION_CONTEXT('2D SPACE',''
  ) );
#633 = ORIENTED_EDGE('',*,*,#402,.T.);
#634 = ORIENTED_EDGE('',*,*,#56,.F.);
#635 = ORIENTED_EDGE('',*,*,#151,.F.);
#636 = ORIENTED_EDGE('',*,*,#637,.T.);
#637 = EDGE_CURVE('',#152,#638,#640,.T.);
#638 = VERTEX_POINT('',#639);
#639 = CARTESIAN_POINT('',(15.346085300395,-7.126293984464,13.95));
#640 = SURFACE_CURVE('',#641,(#646,#653),.PCURVE_S1.);
#641 = CIRCLE('',#642,16.92);
#642 = AXIS2_PLACEMENT_3D('',#643,#644,#645);
#643 = CARTESIAN_POINT('',(0.,0.,13.95));
#644 = DIRECTION('',(0.,0.,1.));
#645 = DIRECTION('',(1.,0.,0.));
#646 = PCURVE('',#73,#647);
#647 = DEFINITIONAL_REPRESENTATION('',(#648),#652);
#648 = LINE('',#649,#650);
#649 = CARTESIAN_POINT('',(-0.,-0.));
#650 = VECTOR('',#651,1.);
#651 = DIRECTION('',(-1.,-0.));
#652 = ( GEOMETRIC_REPRESENTATION_CONTEXT(2) 
PARAMETRIC_REPRESENTATION_CONTEXT() REPRESENTATION_CONTEXT('2D SPACE',''
  ) );
#653 = PCURVE('',#339,#654);
#654 = DEFINITIONAL_REPRESENTATION('',(#655),#659);
#655 = CIRCLE('',#656,16.92);
#656 = AXIS2_PLACEMENT_2D('',#657,#658);
#657 = CARTESIAN_POINT('',(0.,0.));
#658 = DIRECTION('',(1.,0.));
#659 = ( GEOMETRIC_REPRESENTATION_CONTEXT(2) 
PARAMETRIC_REPRESENTATION_CONTEXT() REPRESENTATION_CONTEXT('2D SPACE',''
  ) );
#660 = ORIENTED_EDGE('',*,*,#661,.T.);
#661 = EDGE_CURVE('',#638,#662,#664,.T.);
#662 = VERTEX_POINT('',#663);
#663 = CARTESIAN_POINT('',(7.685863538058,0.,19.339573810472));
#664 = SURFACE_CURVE('',#665,(#670,#682),.PCURVE_S1.);
#665 = HYPERBOLA('',#666,14.190930264873,9.32695679152);
#666 = AXIS2_PLACEMENT_3D('',#667,#668,#669);
#667 = CARTESIAN_POINT('',(0.,14.666274665013,30.431590222379));
#668 = DIRECTION('',(-0.,0.603207987745,-0.797583928825));
#669 = DIRECTION('',(0.,-0.797583928825,-0.603207987745));
#670 = PCURVE('',#73,#671);
#671 = DEFINITIONAL_REPRESENTATION('',(#672),#681);
#672 = B_SPLINE_CURVE_WITH_KNOTS('',7,(#673,#674,#675,#676,#677,#678,
    #679,#680),.UNSPECIFIED.,.F.,.F.,(8,8),(-1.272775207477,
    -0.751336931081),.PIECEWISE_BEZIER_KNOTS.);
#673 = CARTESIAN_POINT('',(-5.848444021055,-3.996095748213E-15));
#674 = CARTESIAN_POINT('',(-5.88950643471,-1.049156946314));
#675 = CARTESIAN_POINT('',(-5.935658710659,-1.991616053148));
#676 = CARTESIAN_POINT('',(-5.987790659127,-2.836886082325));
#677 = CARTESIAN_POINT('',(-6.047027123913,-3.593025364125));
#678 = CARTESIAN_POINT('',(-6.114745861572,-4.266856789847));
#679 = CARTESIAN_POINT('',(-6.192788693238,-4.864118819083));
#680 = CARTESIAN_POINT('',(-6.28318530718,-5.389573810472));
#681 = ( GEOMETRIC_REPRESENTATION_CONTEXT(2) 
PARAMETRIC_REPRESENTATION_CONTEXT() REPRESENTATION_CONTEXT('2D SPACE',''
  ) );
#682 = PCURVE('',#683,#688);
#683 = PLANE('',#684);
#684 = AXIS2_PLACEMENT_3D('',#685,#686,#687);
#685 = CARTESIAN_POINT('',(33.446688786608,-4.312937112379,16.0777250911
    ));
#686 = DIRECTION('',(-0.,0.603207987745,-0.797583928825));
#687 = DIRECTION('',(0.,-0.797583928825,-0.603207987745));
#688 = DEFINITIONAL_REPRESENTATION('',(#689),#693);
#689 = ( BOUNDED_CURVE() B_SPLINE_CURVE(2,(#690,#691,#692),
.UNSPECIFIED.,.F.,.F.) B_SPLINE_CURVE_WITH_KNOTS((3,3),(-1.272775207477,
-0.751336931081),.PIECEWISE_BEZIER_KNOTS.) CURVE() 
GEOMETRIC_REPRESENTATION_ITEM() RATIONAL_B_SPLINE_CURVE((1.,
1.034180193279,1.)) REPRESENTATION_ITEM('') );
#690 = CARTESIAN_POINT('',(3.527348997903,18.100603486213));
#691 = CARTESIAN_POINT('',(-2.425902923728,22.679352932156));
#692 = CARTESIAN_POINT('',(-5.407502529209,25.76082524855));
#693 = ( GEOMETRIC_REPRESENTATION_CONTEXT(2) 
PARAMETRIC_REPRESENTATION_CONTEXT() REPRESENTATION_CONTEXT('2D SPACE',''
  ) );
#694 = ORIENTED_EDGE('',*,*,#695,.T.);
#695 = EDGE_CURVE('',#662,#696,#698,.T.);
#696 = VERTEX_POINT('',#697);
#697 = CARTESIAN_POINT('',(1.5,0.,22.95));
#698 = SEAM_CURVE('',#699,(#702,#708),.PCURVE_S1.);
#699 = B_SPLINE_CURVE_WITH_KNOTS('',1,(#700,#701),.UNSPECIFIED.,.F.,.F.,
  (2,2),(0.,1.),.PIECEWISE_BEZIER_KNOTS.);
#700 = CARTESIAN_POINT('',(16.92,0.,13.95));
#701 = CARTESIAN_POINT('',(1.5,0.,22.95));
#702 = PCURVE('',#73,#703);
#703 = DEFINITIONAL_REPRESENTATION('',(#704),#707);
#704 = B_SPLINE_CURVE_WITH_KNOTS('',1,(#705,#706),.UNSPECIFIED.,.F.,.F.,
  (2,2),(0.,1.),.PIECEWISE_BEZIER_KNOTS.);
#705 = CARTESIAN_POINT('',(0.,0.));
#706 = CARTESIAN_POINT('',(0.,-9.));
#707 = ( GEOMETRIC_REPRESENTATION_CONTEXT(2) 
PARAMETRIC_REPRESENTATION_CONTEXT() REPRESENTATION_CONTEXT('2D SPACE',''
  ) );
#708 = PCURVE('',#73,#709);
#709 = DEFINITIONAL_REPRESENTATION('',(#710),#713);
#710 = B_SPLINE_CURVE_WITH_KNOTS('',1,(#711,#712),.UNSPECIFIED.,.F.,.F.,
  (2,2),(0.,1.),.PIECEWISE_BEZIER_KNOTS.);
#711 = CARTESIAN_POINT('',(-6.28318530718,0.));
#712 = CARTESIAN_POINT('',(-6.28318530718,-9.));
#713 = ( GEOMETRIC_REPRESENTATION_CONTEXT(2) 
PARAMETRIC_REPRESENTATION_CONTEXT() REPRESENTATION_CONTEXT('2D SPACE',''
  ) );
#714 = ORIENTED_EDGE('',*,*,#715,.F.);
#715 = EDGE_CURVE('',#696,#696,#716,.T.);
#716 = SURFACE_CURVE('',#717,(#722,#729),.PCURVE_S1.);
#717 = CIRCLE('',#718,1.5);
#718 = AXIS2_PLACEMENT_3D('',#719,#720,#721);
#719 = CARTESIAN_POINT('',(0.,0.,22.95));
#720 = DIRECTION('',(0.,0.,1.));
#721 = DIRECTION('',(1.,0.,0.));
#722 = PCURVE('',#73,#723);
#723 = DEFINITIONAL_REPRESENTATION('',(#724),#728);
#724 = LINE('',#725,#726);
#725 = CARTESIAN_POINT('',(-0.,-9.));
#726 = VECTOR('',#727,1.);
#727 = DIRECTION('',(-1.,-0.));
#728 = ( GEOMETRIC_REPRESENTATION_CONTEXT(2) 
PARAMETRIC_REPRESENTATION_CONTEXT() REPRESENTATION_CONTEXT('2D SPACE',''
  ) );
#729 = PCURVE('',#730,#735);
#730 = PLANE('',#731);
#731 = AXIS2_PLACEMENT_3D('',#732,#733,#734);
#732 = CARTESIAN_POINT('',(0.,0.,22.95));
#733 = DIRECTION('',(0.,0.,1.));
#734 = DIRECTION('',(1.,0.,0.));
#735 = DEFINITIONAL_REPRESENTATION('',(#736),#740);
#736 = CIRCLE('',#737,1.5);
#737 = AXIS2_PLACEMENT_2D('',#738,#739);
#738 = CARTESIAN_POINT('',(0.,0.));
#739 = DIRECTION('',(1.,0.));
#740 = ( GEOMETRIC_REPRESENTATION_CONTEXT(2) 
PARAMETRIC_REPRESENTATION_CONTEXT() REPRESENTATION_CONTEXT('2D SPACE',''
  ) );
#741 = ORIENTED_EDGE('',*,*,#695,.F.);
#742 = ORIENTED_EDGE('',*,*,#743,.T.);
#743 = EDGE_CURVE('',#662,#744,#746,.T.);
#744 = VERTEX_POINT('',#745);
#745 = CARTESIAN_POINT('',(5.64,1.439356543202,20.42815061436));
#746 = SURFACE_CURVE('',#747,(#752,#772),.PCURVE_S1.);
#747 = HYPERBOLA('',#748,14.190930264873,9.32695679152);
#748 = AXIS2_PLACEMENT_3D('',#749,#750,#751);
#749 = CARTESIAN_POINT('',(0.,14.666274665013,30.431590222379));
#750 = DIRECTION('',(-0.,0.603207987745,-0.797583928825));
#751 = DIRECTION('',(0.,-0.797583928825,-0.603207987745));
#752 = PCURVE('',#73,#753);
#753 = DEFINITIONAL_REPRESENTATION('',(#754),#771);
#754 = B_SPLINE_CURVE_WITH_KNOTS('',8,(#755,#756,#757,#758,#759,#760,
    #761,#762,#763,#764,#765,#766,#767,#768,#769,#770),.UNSPECIFIED.,.F.
  ,.F.,(9,7,9),(-0.751336931081,-0.331766294683,8.780434171364E-02),
  .UNSPECIFIED.);
#755 = CARTESIAN_POINT('',(-4.622400152187E-16,-5.389573810472));
#756 = CARTESIAN_POINT('',(-6.364472217872E-02,-5.759526129328));
#757 = CARTESIAN_POINT('',(-0.133287457518,-6.094609997864));
#758 = CARTESIAN_POINT('',(-0.209591530867,-6.396376038717));
#759 = CARTESIAN_POINT('',(-0.293241890641,-6.666170274319));
#760 = CARTESIAN_POINT('',(-0.384935502867,-6.905147753565));
#761 = CARTESIAN_POINT('',(-0.485243433254,-7.114283232018));
#762 = CARTESIAN_POINT('',(-0.59437793465,-7.294379182365));
#763 = CARTESIAN_POINT('',(-0.829417779942,-7.597763641285));
#764 = CARTESIAN_POINT('',(-0.955323835577,-7.721052149597));
#765 = CARTESIAN_POINT('',(-1.089181245157,-7.816572742096));
#766 = CARTESIAN_POINT('',(-1.229918434728,-7.884794551834));
#767 = CARTESIAN_POINT('',(-1.375641717518,-7.926025635024));
#768 = CARTESIAN_POINT('',(-1.523418799057,-7.940416123762));
#769 = CARTESIAN_POINT('',(-1.6703674138,-7.927959094297));
#770 = CARTESIAN_POINT('',(-1.814053901763,-7.888489111522));
#771 = ( GEOMETRIC_REPRESENTATION_CONTEXT(2) 
PARAMETRIC_REPRESENTATION_CONTEXT() REPRESENTATION_CONTEXT('2D SPACE',''
  ) );
#772 = PCURVE('',#683,#773);
#773 = DEFINITIONAL_REPRESENTATION('',(#774),#778);
#774 = ( BOUNDED_CURVE() B_SPLINE_CURVE(2,(#775,#776,#777),
.UNSPECIFIED.,.F.,.F.) B_SPLINE_CURVE_WITH_KNOTS((3,3),(-0.751336931081,
8.780434171364E-02),.PIECEWISE_BEZIER_KNOTS.) CURVE() 
GEOMETRIC_REPRESENTATION_ITEM() RATIONAL_B_SPLINE_CURVE((1.,
1.089318606684,1.)) REPRESENTATION_ITEM('') );
#775 = CARTESIAN_POINT('',(-5.407502529209,25.76082524855));
#776 = CARTESIAN_POINT('',(-10.04498151147,30.553642860763));
#777 = CARTESIAN_POINT('',(-9.550211763532,34.266688786608));
#778 = ( GEOMETRIC_REPRESENTATION_CONTEXT(2) 
PARAMETRIC_REPRESENTATION_CONTEXT() REPRESENTATION_CONTEXT('2D SPACE',''
  ) );
#779 = ORIENTED_EDGE('',*,*,#780,.F.);
#780 = EDGE_CURVE('',#575,#744,#781,.T.);
#781 = SURFACE_CURVE('',#782,(#787,#803),.PCURVE_S1.);
#782 = HYPERBOLA('',#783,3.291828793774,5.64);
#783 = AXIS2_PLACEMENT_3D('',#784,#785,#786);
#784 = CARTESIAN_POINT('',(5.64,0.,23.825486381323));
#785 = DIRECTION('',(-1.,0.,0.));
#786 = DIRECTION('',(-0.,0.,-1.));
#787 = PCURVE('',#73,#788);
#788 = DEFINITIONAL_REPRESENTATION('',(#789),#802);
#789 = B_SPLINE_CURVE_WITH_KNOTS('',6,(#790,#791,#792,#793,#794,#795,
    #796,#797,#798,#799,#800,#801),.UNSPECIFIED.,.F.,.F.,(7,5,7),(
    -1.342986234223,-0.705463697962,-6.7941161701E-02),.UNSPECIFIED.);
#790 = CARTESIAN_POINT('',(-1.060065781095,-3.141178230062));
#791 = CARTESIAN_POINT('',(-1.008127383604,-3.765411310308));
#792 = CARTESIAN_POINT('',(-0.950411228695,-4.298409314491));
#793 = CARTESIAN_POINT('',(-0.886369466067,-4.752856229768));
#794 = CARTESIAN_POINT('',(-0.815525719029,-5.138353121727));
#795 = CARTESIAN_POINT('',(-0.737690927012,-5.462247780586));
#796 = CARTESIAN_POINT('',(-0.568944767151,-5.997711453148));
#797 = CARTESIAN_POINT('',(-0.47803231032,-6.209280726477));
#798 = CARTESIAN_POINT('',(-0.381031989618,-6.370127691796));
#799 = CARTESIAN_POINT('',(-0.278989916774,-6.483792925032));
#800 = CARTESIAN_POINT('',(-0.173897945602,-6.552275110897));
#801 = CARTESIAN_POINT('',(-6.78889525223E-02,-6.576057121328));
#802 = ( GEOMETRIC_REPRESENTATION_CONTEXT(2) 
PARAMETRIC_REPRESENTATION_CONTEXT() REPRESENTATION_CONTEXT('2D SPACE',''
  ) );
#803 = PCURVE('',#804,#809);
#804 = PLANE('',#805);
#805 = AXIS2_PLACEMENT_3D('',#806,#807,#808);
#806 = CARTESIAN_POINT('',(5.64,-9.969799110315,2.834900153184));
#807 = DIRECTION('',(-1.,0.,0.));
#808 = DIRECTION('',(0.,0.797583928825,0.603207987745));
#809 = DEFINITIONAL_REPRESENTATION('',(#810),#814);
#810 = ( BOUNDED_CURVE() B_SPLINE_CURVE(2,(#811,#812,#813),
.UNSPECIFIED.,.F.,.F.) B_SPLINE_CURVE_WITH_KNOTS((3,3),(-1.342986234223,
-6.7941161701E-02),.PIECEWISE_BEZIER_KNOTS.) CURVE() 
GEOMETRIC_REPRESENTATION_ITEM() RATIONAL_B_SPLINE_CURVE((1.,
1.210194311741,1.)) REPRESENTATION_ITEM('') );
#811 = CARTESIAN_POINT('',(24.579499753323,0.715));
#812 = CARTESIAN_POINT('',(21.392398577667,-5.843939183565));
#813 = CARTESIAN_POINT('',(18.929058633016,-7.865));
#814 = ( GEOMETRIC_REPRESENTATION_CONTEXT(2) 
PARAMETRIC_REPRESENTATION_CONTEXT() REPRESENTATION_CONTEXT('2D SPACE',''
  ) );
#815 = ADVANCED_FACE('',(#816),#339,.T.);
#816 = FACE_BOUND('',#817,.T.);
#817 = EDGE_LOOP('',(#818,#819,#843,#862));
#818 = ORIENTED_EDGE('',*,*,#326,.F.);
#819 = ORIENTED_EDGE('',*,*,#820,.T.);
#820 = EDGE_CURVE('',#293,#821,#823,.T.);
#821 = VERTEX_POINT('',#822);
#822 = CARTESIAN_POINT('',(17.397009342039,-7.126293984464,13.95));
#823 = SURFACE_CURVE('',#824,(#829,#836),.PCURVE_S1.);
#824 = CIRCLE('',#825,18.8);
#825 = AXIS2_PLACEMENT_3D('',#826,#827,#828);
#826 = CARTESIAN_POINT('',(0.,0.,13.95));
#827 = DIRECTION('',(0.,0.,1.));
#828 = DIRECTION('',(1.,0.,0.));
#829 = PCURVE('',#339,#830);
#830 = DEFINITIONAL_REPRESENTATION('',(#831),#835);
#831 = CIRCLE('',#832,18.8);
#832 = AXIS2_PLACEMENT_2D('',#833,#834);
#833 = CARTESIAN_POINT('',(0.,0.));
#834 = DIRECTION('',(1.,0.));
#835 = ( GEOMETRIC_REPRESENTATION_CONTEXT(2) 
PARAMETRIC_REPRESENTATION_CONTEXT() REPRESENTATION_CONTEXT('2D SPACE',''
  ) );
#836 = PCURVE('',#309,#837);
#837 = DEFINITIONAL_REPRESENTATION('',(#838),#842);
#838 = LINE('',#839,#840);
#839 = CARTESIAN_POINT('',(0.,27.9));
#840 = VECTOR('',#841,1.);
#841 = DIRECTION('',(1.,0.));
#842 = ( GEOMETRIC_REPRESENTATION_CONTEXT(2) 
PARAMETRIC_REPRESENTATION_CONTEXT() REPRESENTATION_CONTEXT('2D SPACE',''
  ) );
#843 = ORIENTED_EDGE('',*,*,#844,.T.);
#844 = EDGE_CURVE('',#821,#638,#845,.T.);
#845 = SURFACE_CURVE('',#846,(#850,#856),.PCURVE_S1.);
#846 = LINE('',#847,#848);
#847 = CARTESIAN_POINT('',(16.723344393304,-7.126293984464,13.95));
#848 = VECTOR('',#849,1.);
#849 = DIRECTION('',(-1.,0.,0.));
#850 = PCURVE('',#339,#851);
#851 = DEFINITIONAL_REPRESENTATION('',(#852),#855);
#852 = B_SPLINE_CURVE_WITH_KNOTS('',1,(#853,#854),.UNSPECIFIED.,.F.,.F.,
  (2,2),(-2.076655606696,11.083344393304),.PIECEWISE_BEZIER_KNOTS.);
#853 = CARTESIAN_POINT('',(18.8,-7.126293984464));
#854 = CARTESIAN_POINT('',(5.64,-7.126293984464));
#855 = ( GEOMETRIC_REPRESENTATION_CONTEXT(2) 
PARAMETRIC_REPRESENTATION_CONTEXT() REPRESENTATION_CONTEXT('2D SPACE',''
  ) );
#856 = PCURVE('',#683,#857);
#857 = DEFINITIONAL_REPRESENTATION('',(#858),#861);
#858 = B_SPLINE_CURVE_WITH_KNOTS('',1,(#859,#860),.UNSPECIFIED.,.F.,.F.,
  (2,2),(-2.076655606696,11.083344393304),.PIECEWISE_BEZIER_KNOTS.);
#859 = CARTESIAN_POINT('',(3.527348997903,14.646688786608));
#860 = CARTESIAN_POINT('',(3.527348997903,27.806688786608));
#861 = ( GEOMETRIC_REPRESENTATION_CONTEXT(2) 
PARAMETRIC_REPRESENTATION_CONTEXT() REPRESENTATION_CONTEXT('2D SPACE',''
  ) );
#862 = ORIENTED_EDGE('',*,*,#637,.F.);
#863 = ADVANCED_FACE('',(#864),#309,.T.);
#864 = FACE_BOUND('',#865,.T.);
#865 = EDGE_LOOP('',(#866,#890,#917,#940,#967,#968,#996,#1029,#1055,
    #1056,#1057,#1083));
#866 = ORIENTED_EDGE('',*,*,#867,.F.);
#867 = EDGE_CURVE('',#868,#518,#870,.T.);
#868 = VERTEX_POINT('',#869);
#869 = CARTESIAN_POINT('',(18.196029684325,4.726997326757,13.95));
#870 = SURFACE_CURVE('',#871,(#876,#883),.PCURVE_S1.);
#871 = CIRCLE('',#872,18.8);
#872 = AXIS2_PLACEMENT_3D('',#873,#874,#875);
#873 = CARTESIAN_POINT('',(0.,0.,13.95));
#874 = DIRECTION('',(0.,0.,1.));
#875 = DIRECTION('',(1.,0.,0.));
#876 = PCURVE('',#309,#877);
#877 = DEFINITIONAL_REPRESENTATION('',(#878),#882);
#878 = LINE('',#879,#880);
#879 = CARTESIAN_POINT('',(0.,27.9));
#880 = VECTOR('',#881,1.);
#881 = DIRECTION('',(1.,0.));
#882 = ( GEOMETRIC_REPRESENTATION_CONTEXT(2) 
PARAMETRIC_REPRESENTATION_CONTEXT() REPRESENTATION_CONTEXT('2D SPACE',''
  ) );
#883 = PCURVE('',#558,#884);
#884 = DEFINITIONAL_REPRESENTATION('',(#885),#889);
#885 = CIRCLE('',#886,18.8);
#886 = AXIS2_PLACEMENT_2D('',#887,#888);
#887 = CARTESIAN_POINT('',(0.,0.));
#888 = DIRECTION('',(1.,0.));
#889 = ( GEOMETRIC_REPRESENTATION_CONTEXT(2) 
PARAMETRIC_REPRESENTATION_CONTEXT() REPRESENTATION_CONTEXT('2D SPACE',''
  ) );
#890 = ORIENTED_EDGE('',*,*,#891,.T.);
#891 = EDGE_CURVE('',#868,#892,#894,.T.);
#892 = VERTEX_POINT('',#893);
#893 = CARTESIAN_POINT('',(18.8,-4.604671964794E-15,10.375));
#894 = SURFACE_CURVE('',#895,(#900,#910),.PCURVE_S1.);
#895 = ELLIPSE('',#896,23.57118708208,18.8);
#896 = AXIS2_PLACEMENT_3D('',#897,#898,#899);
#897 = CARTESIAN_POINT('',(0.,0.,10.375));
#898 = DIRECTION('',(-0.,0.603207987745,-0.797583928825));
#899 = DIRECTION('',(0.,0.797583928825,0.603207987745));
#900 = PCURVE('',#309,#901);
#901 = DEFINITIONAL_REPRESENTATION('',(#902),#909);
#902 = B_SPLINE_CURVE_WITH_KNOTS('',5,(#903,#904,#905,#906,#907,#908),
  .UNSPECIFIED.,.F.,.F.,(6,6),(1.316632620065,1.570796326795),
  .PIECEWISE_BEZIER_KNOTS.);
#903 = CARTESIAN_POINT('',(0.25416370673,27.9000006));
#904 = CARTESIAN_POINT('',(0.203330965384,27.20046333863));
#905 = CARTESIAN_POINT('',(0.152498224038,26.489378986549));
#906 = CARTESIAN_POINT('',(0.101665482692,25.770513225699));
#907 = CARTESIAN_POINT('',(5.083274134592E-02,25.047756606297));
#908 = CARTESIAN_POINT('',(6.123233995737E-17,24.325));
#909 = ( GEOMETRIC_REPRESENTATION_CONTEXT(2) 
PARAMETRIC_REPRESENTATION_CONTEXT() REPRESENTATION_CONTEXT('2D SPACE',''
  ) );
#910 = PCURVE('',#600,#911);
#911 = DEFINITIONAL_REPRESENTATION('',(#912),#916);
#912 = ELLIPSE('',#913,23.57118708208,18.8);
#913 = AXIS2_PLACEMENT_2D('',#914,#915);
#914 = CARTESIAN_POINT('',(7.857391536871E-16,33.446688786608));
#915 = DIRECTION('',(-1.,0.));
#916 = ( GEOMETRIC_REPRESENTATION_CONTEXT(2) 
PARAMETRIC_REPRESENTATION_CONTEXT() REPRESENTATION_CONTEXT('2D SPACE',''
  ) );
#917 = ORIENTED_EDGE('',*,*,#918,.F.);
#918 = EDGE_CURVE('',#919,#892,#921,.T.);
#919 = VERTEX_POINT('',#920);
#920 = CARTESIAN_POINT('',(18.8,-4.604671964794E-15,-13.95));
#921 = SEAM_CURVE('',#922,(#926,#933),.PCURVE_S1.);
#922 = LINE('',#923,#924);
#923 = CARTESIAN_POINT('',(18.8,-4.604671964794E-15,-13.95));
#924 = VECTOR('',#925,1.);
#925 = DIRECTION('',(0.,0.,1.));
#926 = PCURVE('',#309,#927);
#927 = DEFINITIONAL_REPRESENTATION('',(#928),#932);
#928 = LINE('',#929,#930);
#929 = CARTESIAN_POINT('',(6.28318530718,-0.));
#930 = VECTOR('',#931,1.);
#931 = DIRECTION('',(0.,1.));
#932 = ( GEOMETRIC_REPRESENTATION_CONTEXT(2) 
PARAMETRIC_REPRESENTATION_CONTEXT() REPRESENTATION_CONTEXT('2D SPACE',''
  ) );
#933 = PCURVE('',#309,#934);
#934 = DEFINITIONAL_REPRESENTATION('',(#935),#939);
#935 = LINE('',#936,#937);
#936 = CARTESIAN_POINT('',(0.,-0.));
#937 = VECTOR('',#938,1.);
#938 = DIRECTION('',(0.,1.));
#939 = ( GEOMETRIC_REPRESENTATION_CONTEXT(2) 
PARAMETRIC_REPRESENTATION_CONTEXT() REPRESENTATION_CONTEXT('2D SPACE',''
  ) );
#940 = ORIENTED_EDGE('',*,*,#941,.T.);
#941 = EDGE_CURVE('',#919,#919,#942,.T.);
#942 = SURFACE_CURVE('',#943,(#948,#955),.PCURVE_S1.);
#943 = CIRCLE('',#944,18.8);
#944 = AXIS2_PLACEMENT_3D('',#945,#946,#947);
#945 = CARTESIAN_POINT('',(0.,0.,-13.95));
#946 = DIRECTION('',(0.,0.,1.));
#947 = DIRECTION('',(1.,0.,0.));
#948 = PCURVE('',#309,#949);
#949 = DEFINITIONAL_REPRESENTATION('',(#950),#954);
#950 = LINE('',#951,#952);
#951 = CARTESIAN_POINT('',(0.,0.));
#952 = VECTOR('',#953,1.);
#953 = DIRECTION('',(1.,0.));
#954 = ( GEOMETRIC_REPRESENTATION_CONTEXT(2) 
PARAMETRIC_REPRESENTATION_CONTEXT() REPRESENTATION_CONTEXT('2D SPACE',''
  ) );
#955 = PCURVE('',#956,#961);
#956 = PLANE('',#957);
#957 = AXIS2_PLACEMENT_3D('',#958,#959,#960);
#958 = CARTESIAN_POINT('',(0.,0.,-13.95));
#959 = DIRECTION('',(0.,0.,1.));
#960 = DIRECTION('',(1.,0.,0.));
#961 = DEFINITIONAL_REPRESENTATION('',(#962),#966);
#962 = CIRCLE('',#963,18.8);
#963 = AXIS2_PLACEMENT_2D('',#964,#965);
#964 = CARTESIAN_POINT('',(0.,0.));
#965 = DIRECTION('',(1.,0.));
#966 = ( GEOMETRIC_REPRESENTATION_CONTEXT(2) 
PARAMETRIC_REPRESENTATION_CONTEXT() REPRESENTATION_CONTEXT('2D SPACE',''
  ) );
#967 = ORIENTED_EDGE('',*,*,#918,.T.);
#968 = ORIENTED_EDGE('',*,*,#969,.T.);
#969 = EDGE_CURVE('',#892,#970,#972,.T.);
#970 = VERTEX_POINT('',#971);
#971 = CARTESIAN_POINT('',(16.328969213402,-9.316907449779,3.32867823789
    ));
#972 = SURFACE_CURVE('',#973,(#978,#989),.PCURVE_S1.);
#973 = ELLIPSE('',#974,23.57118708208,18.8);
#974 = AXIS2_PLACEMENT_3D('',#975,#976,#977);
#975 = CARTESIAN_POINT('',(0.,0.,10.375));
#976 = DIRECTION('',(-0.,0.603207987745,-0.797583928825));
#977 = DIRECTION('',(0.,0.797583928825,0.603207987745));
#978 = PCURVE('',#309,#979);
#979 = DEFINITIONAL_REPRESENTATION('',(#980),#988);
#980 = B_SPLINE_CURVE_WITH_KNOTS('',6,(#981,#982,#983,#984,#985,#986,
    #987),.UNSPECIFIED.,.F.,.F.,(7,7),(1.570796326795,2.260579779392),
  .PIECEWISE_BEZIER_KNOTS.);
#981 = CARTESIAN_POINT('',(6.28318530718,24.325));
#982 = CARTESIAN_POINT('',(6.168221398413,22.690405399228));
#983 = CARTESIAN_POINT('',(6.053257489647,21.055811948493));
#984 = CARTESIAN_POINT('',(5.938293580881,19.460098310011));
#985 = CARTESIAN_POINT('',(5.823329672115,17.942182316524));
#986 = CARTESIAN_POINT('',(5.708365763348,16.537780039535));
#987 = CARTESIAN_POINT('',(5.593401854582,15.276880183821));
#988 = ( GEOMETRIC_REPRESENTATION_CONTEXT(2) 
PARAMETRIC_REPRESENTATION_CONTEXT() REPRESENTATION_CONTEXT('2D SPACE',''
  ) );
#989 = PCURVE('',#600,#990);
#990 = DEFINITIONAL_REPRESENTATION('',(#991),#995);
#991 = ELLIPSE('',#992,23.57118708208,18.8);
#992 = AXIS2_PLACEMENT_2D('',#993,#994);
#993 = CARTESIAN_POINT('',(7.857391536871E-16,33.446688786608));
#994 = DIRECTION('',(-1.,0.));
#995 = ( GEOMETRIC_REPRESENTATION_CONTEXT(2) 
PARAMETRIC_REPRESENTATION_CONTEXT() REPRESENTATION_CONTEXT('2D SPACE',''
  ) );
#996 = ORIENTED_EDGE('',*,*,#997,.T.);
#997 = EDGE_CURVE('',#970,#998,#1000,.T.);
#998 = VERTEX_POINT('',#999);
#999 = CARTESIAN_POINT('',(12.712049074776,-13.85076923208,8.86431931341
    ));
#1000 = SURFACE_CURVE('',#1001,(#1006,#1017),.PCURVE_S1.);
#1001 = ELLIPSE('',#1002,31.257956609458,18.8);
#1002 = AXIS2_PLACEMENT_3D('',#1003,#1004,#1005);
#1003 = CARTESIAN_POINT('',(0.,0.,-11.06358325374));
#1004 = DIRECTION('',(7.635879778443E-02,-0.795255306761,-0.60144686471)
  );
#1005 = DIRECTION('',(5.748532164119E-02,-0.598693384685,0.798912804335)
  );
#1006 = PCURVE('',#309,#1007);
#1007 = DEFINITIONAL_REPRESENTATION('',(#1008),#1016);
#1008 = B_SPLINE_CURVE_WITH_KNOTS('',6,(#1009,#1010,#1011,#1012,#1013,
    #1014,#1015),.UNSPECIFIED.,.F.,.F.,(7,7),(5.299487120256,
    5.673563109679),.PIECEWISE_BEZIER_KNOTS.);
#1009 = CARTESIAN_POINT('',(5.791811678272,16.719802955036));
#1010 = CARTESIAN_POINT('',(5.729465680035,18.016026004377));
#1011 = CARTESIAN_POINT('',(5.667119681798,19.247724195683));
#1012 = CARTESIAN_POINT('',(5.604773683561,20.405828477185));
#1013 = CARTESIAN_POINT('',(5.542427685324,21.482021493244));
#1014 = CARTESIAN_POINT('',(5.480081687087,22.468952058559));
#1015 = CARTESIAN_POINT('',(5.417735688849,23.360383297684));
#1016 = ( GEOMETRIC_REPRESENTATION_CONTEXT(2) 
PARAMETRIC_REPRESENTATION_CONTEXT() REPRESENTATION_CONTEXT('2D SPACE',''
  ) );
#1017 = PCURVE('',#1018,#1023);
#1018 = PLANE('',#1019);
#1019 = AXIS2_PLACEMENT_3D('',#1020,#1021,#1022);
#1020 = CARTESIAN_POINT('',(52.152,-7.12880515584,4.983527005533));
#1021 = DIRECTION('',(7.635879778443E-02,-0.795255306761,-0.60144686471)
  );
#1022 = DIRECTION('',(-0.997080404983,-6.090254993727E-02,
    -4.606023675819E-02));
#1023 = DEFINITIONAL_REPRESENTATION('',(#1024),#1028);
#1024 = ELLIPSE('',#1025,31.257956609458,18.8);
#1025 = AXIS2_PLACEMENT_2D('',#1026,#1027);
#1026 = CARTESIAN_POINT('',(52.3047085665,17.099069459971));
#1027 = DIRECTION('',(-5.765364694152E-02,-0.998336645122));
#1028 = ( GEOMETRIC_REPRESENTATION_CONTEXT(2) 
PARAMETRIC_REPRESENTATION_CONTEXT() REPRESENTATION_CONTEXT('2D SPACE',''
  ) );
#1029 = ORIENTED_EDGE('',*,*,#1030,.F.);
#1030 = EDGE_CURVE('',#821,#998,#1031,.T.);
#1031 = SURFACE_CURVE('',#1032,(#1037,#1048),.PCURVE_S1.);
#1032 = ELLIPSE('',#1033,23.57118708208,18.8);
#1033 = AXIS2_PLACEMENT_3D('',#1034,#1035,#1036);
#1034 = CARTESIAN_POINT('',(0.,0.,19.339573810472));
#1035 = DIRECTION('',(-0.,0.603207987745,-0.797583928825));
#1036 = DIRECTION('',(0.,0.797583928825,0.603207987745));
#1037 = PCURVE('',#309,#1038);
#1038 = DEFINITIONAL_REPRESENTATION('',(#1039),#1047);
#1039 = B_SPLINE_CURVE_WITH_KNOTS('',6,(#1040,#1041,#1042,#1043,#1044,
    #1045,#1046),.UNSPECIFIED.,.F.,.F.,(7,7),(1.959574603219,
    2.617506684977),.PIECEWISE_BEZIER_KNOTS.);
#1040 = CARTESIAN_POINT('',(5.894407030756,27.9000006));
#1041 = CARTESIAN_POINT('',(5.784751683796,26.457237229885));
#1042 = CARTESIAN_POINT('',(5.675096336836,25.092241513579));
#1043 = CARTESIAN_POINT('',(5.565440989876,23.836235277653));
#1044 = CARTESIAN_POINT('',(5.455785642917,22.717658261304));
#1045 = CARTESIAN_POINT('',(5.346130295957,21.759820869893));
#1046 = CARTESIAN_POINT('',(5.236474948997,20.979605274921));
#1047 = ( GEOMETRIC_REPRESENTATION_CONTEXT(2) 
PARAMETRIC_REPRESENTATION_CONTEXT() REPRESENTATION_CONTEXT('2D SPACE',''
  ) );
#1048 = PCURVE('',#683,#1049);
#1049 = DEFINITIONAL_REPRESENTATION('',(#1050),#1054);
#1050 = ELLIPSE('',#1051,23.57118708208,18.8);
#1051 = AXIS2_PLACEMENT_2D('',#1052,#1053);
#1052 = CARTESIAN_POINT('',(-5.407502529209,33.446688786608));
#1053 = DIRECTION('',(-1.,0.));
#1054 = ( GEOMETRIC_REPRESENTATION_CONTEXT(2) 
PARAMETRIC_REPRESENTATION_CONTEXT() REPRESENTATION_CONTEXT('2D SPACE',''
  ) );
#1055 = ORIENTED_EDGE('',*,*,#820,.F.);
#1056 = ORIENTED_EDGE('',*,*,#292,.T.);
#1057 = ORIENTED_EDGE('',*,*,#1058,.T.);
#1058 = EDGE_CURVE('',#265,#495,#1059,.T.);
#1059 = SURFACE_CURVE('',#1060,(#1065,#1076),.PCURVE_S1.);
#1060 = ELLIPSE('',#1061,31.257956609458,18.8);
#1061 = AXIS2_PLACEMENT_3D('',#1062,#1063,#1064);
#1062 = CARTESIAN_POINT('',(0.,0.,-11.06358325374));
#1063 = DIRECTION('',(-7.635879778443E-02,0.795255306761,-0.60144686471)
  );
#1064 = DIRECTION('',(-5.748532164119E-02,0.598693384685,0.798912804335)
  );
#1065 = PCURVE('',#309,#1066);
#1066 = DEFINITIONAL_REPRESENTATION('',(#1067),#1075);
#1067 = B_SPLINE_CURVE_WITH_KNOTS('',6,(#1068,#1069,#1070,#1071,#1072,
    #1073,#1074),.UNSPECIFIED.,.F.,.F.,(7,7),(5.299487120256,
    5.673563109679),.PIECEWISE_BEZIER_KNOTS.);
#1068 = CARTESIAN_POINT('',(2.650219024683,16.719802955036));
#1069 = CARTESIAN_POINT('',(2.587873026445,18.016026004377));
#1070 = CARTESIAN_POINT('',(2.525527028208,19.247724195684));
#1071 = CARTESIAN_POINT('',(2.463181029971,20.405828477186));
#1072 = CARTESIAN_POINT('',(2.400835031734,21.482021493244));
#1073 = CARTESIAN_POINT('',(2.338489033497,22.468952058559));
#1074 = CARTESIAN_POINT('',(2.27614303526,23.360383297684));
#1075 = ( GEOMETRIC_REPRESENTATION_CONTEXT(2) 
PARAMETRIC_REPRESENTATION_CONTEXT() REPRESENTATION_CONTEXT('2D SPACE',''
  ) );
#1076 = PCURVE('',#280,#1077);
#1077 = DEFINITIONAL_REPRESENTATION('',(#1078),#1082);
#1078 = ELLIPSE('',#1079,31.257956609458,18.8);
#1079 = AXIS2_PLACEMENT_2D('',#1080,#1081);
#1080 = CARTESIAN_POINT('',(52.3047085665,17.099069459971));
#1081 = DIRECTION('',(-5.765364694152E-02,-0.998336645122));
#1082 = ( GEOMETRIC_REPRESENTATION_CONTEXT(2) 
PARAMETRIC_REPRESENTATION_CONTEXT() REPRESENTATION_CONTEXT('2D SPACE',''
  ) );
#1083 = ORIENTED_EDGE('',*,*,#517,.F.);
#1084 = ADVANCED_FACE('',(#1085),#280,.T.);
#1085 = FACE_BOUND('',#1086,.T.);
#1086 = EDGE_LOOP('',(#1087,#1088,#1109,#1110));
#1087 = ORIENTED_EDGE('',*,*,#264,.F.);
#1088 = ORIENTED_EDGE('',*,*,#1089,.T.);
#1089 = EDGE_CURVE('',#237,#472,#1090,.T.);
#1090 = SURFACE_CURVE('',#1091,(#1095,#1102),.PCURVE_S1.);
#1091 = LINE('',#1092,#1093);
#1092 = CARTESIAN_POINT('',(-52.152,7.12880515584,4.983527005533));
#1093 = VECTOR('',#1094,1.);
#1094 = DIRECTION('',(7.387167314124E-17,0.603207987745,0.797583928825)
  );
#1095 = PCURVE('',#280,#1096);
#1096 = DEFINITIONAL_REPRESENTATION('',(#1097),#1101);
#1097 = LINE('',#1098,#1099);
#1098 = CARTESIAN_POINT('',(-1.318262226409E-17,1.244153150788E-15));
#1099 = VECTOR('',#1100,1.);
#1100 = DIRECTION('',(-3.624035055318E-17,-1.));
#1101 = ( GEOMETRIC_REPRESENTATION_CONTEXT(2) 
PARAMETRIC_REPRESENTATION_CONTEXT() REPRESENTATION_CONTEXT('2D SPACE',''
  ) );
#1102 = PCURVE('',#252,#1103);
#1103 = DEFINITIONAL_REPRESENTATION('',(#1104),#1108);
#1104 = LINE('',#1105,#1106);
#1105 = CARTESIAN_POINT('',(20.175816910351,-7.862741448268E-16));
#1106 = VECTOR('',#1107,1.);
#1107 = DIRECTION('',(-7.184630090552E-17,-1.));
#1108 = ( GEOMETRIC_REPRESENTATION_CONTEXT(2) 
PARAMETRIC_REPRESENTATION_CONTEXT() REPRESENTATION_CONTEXT('2D SPACE',''
  ) );
#1109 = ORIENTED_EDGE('',*,*,#494,.T.);
#1110 = ORIENTED_EDGE('',*,*,#1058,.F.);
#1111 = ADVANCED_FACE('',(#1112),#252,.T.);
#1112 = FACE_BOUND('',#1113,.T.);
#1113 = EDGE_LOOP('',(#1114,#1135,#1136,#1137));
#1114 = ORIENTED_EDGE('',*,*,#1115,.T.);
#1115 = EDGE_CURVE('',#209,#449,#1116,.T.);
#1116 = SURFACE_CURVE('',#1117,(#1121,#1128),.PCURVE_S1.);
#1117 = LINE('',#1118,#1119);
#1118 = CARTESIAN_POINT('',(-70.24,8.601919117211E-15,10.375));
#1119 = VECTOR('',#1120,1.);
#1120 = DIRECTION('',(7.387167314124E-17,0.603207987745,0.797583928825)
  );
#1121 = PCURVE('',#252,#1122);
#1122 = DEFINITIONAL_REPRESENTATION('',(#1123),#1127);
#1123 = LINE('',#1124,#1125);
#1124 = CARTESIAN_POINT('',(0.,-0.));
#1125 = VECTOR('',#1126,1.);
#1126 = DIRECTION('',(-7.184630090552E-17,-1.));
#1127 = ( GEOMETRIC_REPRESENTATION_CONTEXT(2) 
PARAMETRIC_REPRESENTATION_CONTEXT() REPRESENTATION_CONTEXT('2D SPACE',''
  ) );
#1128 = PCURVE('',#224,#1129);
#1129 = DEFINITIONAL_REPRESENTATION('',(#1130),#1134);
#1130 = LINE('',#1131,#1132);
#1131 = CARTESIAN_POINT('',(20.175816910351,-7.862741448268E-16));
#1132 = VECTOR('',#1133,1.);
#1133 = DIRECTION('',(-1.633514967426E-17,-1.));
#1134 = ( GEOMETRIC_REPRESENTATION_CONTEXT(2) 
PARAMETRIC_REPRESENTATION_CONTEXT() REPRESENTATION_CONTEXT('2D SPACE',''
  ) );
#1135 = ORIENTED_EDGE('',*,*,#471,.T.);
#1136 = ORIENTED_EDGE('',*,*,#1089,.F.);
#1137 = ORIENTED_EDGE('',*,*,#236,.F.);
#1138 = ADVANCED_FACE('',(#1139),#224,.T.);
#1139 = FACE_BOUND('',#1140,.T.);
#1140 = EDGE_LOOP('',(#1141,#1142,#1143,#1144));
#1141 = ORIENTED_EDGE('',*,*,#377,.T.);
#1142 = ORIENTED_EDGE('',*,*,#448,.T.);
#1143 = ORIENTED_EDGE('',*,*,#1115,.F.);
#1144 = ORIENTED_EDGE('',*,*,#208,.F.);
#1145 = ADVANCED_FACE('',(#1146),#558,.T.);
#1146 = FACE_BOUND('',#1147,.T.);
#1147 = EDGE_LOOP('',(#1148,#1167,#1168,#1169));
#1148 = ORIENTED_EDGE('',*,*,#1149,.F.);
#1149 = EDGE_CURVE('',#868,#573,#1150,.T.);
#1150 = SURFACE_CURVE('',#1151,(#1155,#1161),.PCURVE_S1.);
#1151 = LINE('',#1152,#1153);
#1152 = CARTESIAN_POINT('',(16.723344393304,4.726997326757,13.95));
#1153 = VECTOR('',#1154,1.);
#1154 = DIRECTION('',(-1.,0.,0.));
#1155 = PCURVE('',#558,#1156);
#1156 = DEFINITIONAL_REPRESENTATION('',(#1157),#1160);
#1157 = B_SPLINE_CURVE_WITH_KNOTS('',1,(#1158,#1159),.UNSPECIFIED.,.F.,
  .F.,(2,2),(-2.076655606696,11.083344393304),.PIECEWISE_BEZIER_KNOTS.);
#1158 = CARTESIAN_POINT('',(18.8,4.726997326757));
#1159 = CARTESIAN_POINT('',(5.64,4.726997326757));
#1160 = ( GEOMETRIC_REPRESENTATION_CONTEXT(2) 
PARAMETRIC_REPRESENTATION_CONTEXT() REPRESENTATION_CONTEXT('2D SPACE',''
  ) );
#1161 = PCURVE('',#600,#1162);
#1162 = DEFINITIONAL_REPRESENTATION('',(#1163),#1166);
#1163 = B_SPLINE_CURVE_WITH_KNOTS('',1,(#1164,#1165),.UNSPECIFIED.,.F.,
  .F.,(2,2),(-2.076655606696,11.083344393304),.PIECEWISE_BEZIER_KNOTS.);
#1164 = CARTESIAN_POINT('',(-5.92664565561,14.646688786608));
#1165 = CARTESIAN_POINT('',(-5.92664565561,27.806688786608));
#1166 = ( GEOMETRIC_REPRESENTATION_CONTEXT(2) 
PARAMETRIC_REPRESENTATION_CONTEXT() REPRESENTATION_CONTEXT('2D SPACE',''
  ) );
#1167 = ORIENTED_EDGE('',*,*,#867,.T.);
#1168 = ORIENTED_EDGE('',*,*,#545,.T.);
#1169 = ORIENTED_EDGE('',*,*,#612,.F.);
#1170 = ADVANCED_FACE('',(#1171),#600,.T.);
#1171 = FACE_BOUND('',#1172,.T.);
#1172 = EDGE_LOOP('',(#1173,#1174,#1197,#1225,#1253,#1281,#1302,#1303,
    #1304));
#1173 = ORIENTED_EDGE('',*,*,#572,.T.);
#1174 = ORIENTED_EDGE('',*,*,#1175,.T.);
#1175 = EDGE_CURVE('',#575,#1176,#1178,.T.);
#1176 = VERTEX_POINT('',#1177);
#1177 = CARTESIAN_POINT('',(5.64,9.969799110315,17.915099846816));
#1178 = SURFACE_CURVE('',#1179,(#1183,#1190),.PCURVE_S1.);
#1179 = LINE('',#1180,#1181);
#1180 = CARTESIAN_POINT('',(5.64,-9.969799110315,2.834900153184));
#1181 = VECTOR('',#1182,1.);
#1182 = DIRECTION('',(0.,0.797583928825,0.603207987745));
#1183 = PCURVE('',#600,#1184);
#1184 = DEFINITIONAL_REPRESENTATION('',(#1185),#1189);
#1185 = LINE('',#1186,#1187);
#1186 = CARTESIAN_POINT('',(12.5,27.806688786608));
#1187 = VECTOR('',#1188,1.);
#1188 = DIRECTION('',(-1.,0.));
#1189 = ( GEOMETRIC_REPRESENTATION_CONTEXT(2) 
PARAMETRIC_REPRESENTATION_CONTEXT() REPRESENTATION_CONTEXT('2D SPACE',''
  ) );
#1190 = PCURVE('',#804,#1191);
#1191 = DEFINITIONAL_REPRESENTATION('',(#1192),#1196);
#1192 = LINE('',#1193,#1194);
#1193 = CARTESIAN_POINT('',(0.,0.));
#1194 = VECTOR('',#1195,1.);
#1195 = DIRECTION('',(1.,-8.93036204381E-18));
#1196 = ( GEOMETRIC_REPRESENTATION_CONTEXT(2) 
PARAMETRIC_REPRESENTATION_CONTEXT() REPRESENTATION_CONTEXT('2D SPACE',''
  ) );
#1197 = ORIENTED_EDGE('',*,*,#1198,.T.);
#1198 = EDGE_CURVE('',#1176,#1199,#1201,.T.);
#1199 = VERTEX_POINT('',#1200);
#1200 = CARTESIAN_POINT('',(52.152,7.12880515584,15.766472994467));
#1201 = SURFACE_CURVE('',#1202,(#1206,#1213),.PCURVE_S1.);
#1202 = LINE('',#1203,#1204);
#1203 = CARTESIAN_POINT('',(5.64,9.969799110315,17.915099846816));
#1204 = VECTOR('',#1205,1.);
#1205 = DIRECTION('',(0.997080404983,-6.090254993727E-02,
    -4.606023675819E-02));
#1206 = PCURVE('',#600,#1207);
#1207 = DEFINITIONAL_REPRESENTATION('',(#1208),#1212);
#1208 = LINE('',#1209,#1210);
#1209 = CARTESIAN_POINT('',(-12.5,27.806688786608));
#1210 = VECTOR('',#1211,1.);
#1211 = DIRECTION('',(7.635879778443E-02,-0.997080404983));
#1212 = ( GEOMETRIC_REPRESENTATION_CONTEXT(2) 
PARAMETRIC_REPRESENTATION_CONTEXT() REPRESENTATION_CONTEXT('2D SPACE',''
  ) );
#1213 = PCURVE('',#1214,#1219);
#1214 = PLANE('',#1215);
#1215 = AXIS2_PLACEMENT_3D('',#1216,#1217,#1218);
#1216 = CARTESIAN_POINT('',(5.64,9.969799110315,17.915099846816));
#1217 = DIRECTION('',(7.635879778443E-02,0.795255306761,0.60144686471));
#1218 = DIRECTION('',(0.997080404983,-6.090254993727E-02,
    -4.606023675819E-02));
#1219 = DEFINITIONAL_REPRESENTATION('',(#1220),#1224);
#1220 = LINE('',#1221,#1222);
#1221 = CARTESIAN_POINT('',(0.,0.));
#1222 = VECTOR('',#1223,1.);
#1223 = DIRECTION('',(1.,-6.209271172414E-18));
#1224 = ( GEOMETRIC_REPRESENTATION_CONTEXT(2) 
PARAMETRIC_REPRESENTATION_CONTEXT() REPRESENTATION_CONTEXT('2D SPACE',''
  ) );
#1225 = ORIENTED_EDGE('',*,*,#1226,.T.);
#1226 = EDGE_CURVE('',#1199,#1227,#1229,.T.);
#1227 = VERTEX_POINT('',#1228);
#1228 = CARTESIAN_POINT('',(70.24,0.,10.375));
#1229 = SURFACE_CURVE('',#1230,(#1234,#1241),.PCURVE_S1.);
#1230 = LINE('',#1231,#1232);
#1231 = CARTESIAN_POINT('',(52.152,7.12880515584,15.766472994467));
#1232 = VECTOR('',#1233,1.);
#1233 = DIRECTION('',(0.896518841362,-0.353334151847,-0.267224520247));
#1234 = PCURVE('',#600,#1235);
#1235 = DEFINITIONAL_REPRESENTATION('',(#1236),#1240);
#1236 = LINE('',#1237,#1238);
#1237 = CARTESIAN_POINT('',(-8.938,-18.70531121339));
#1238 = VECTOR('',#1239,1.);
#1239 = DIRECTION('',(0.443005606153,-0.896518841362));
#1240 = ( GEOMETRIC_REPRESENTATION_CONTEXT(2) 
PARAMETRIC_REPRESENTATION_CONTEXT() REPRESENTATION_CONTEXT('2D SPACE',''
  ) );
#1241 = PCURVE('',#1242,#1247);
#1242 = PLANE('',#1243);
#1243 = AXIS2_PLACEMENT_3D('',#1244,#1245,#1246);
#1244 = CARTESIAN_POINT('',(52.152,7.12880515584,15.766472994467));
#1245 = DIRECTION('',(0.443005606153,0.715049019759,0.540787326274));
#1246 = DIRECTION('',(0.896518841362,-0.353334151847,-0.267224520247));
#1247 = DEFINITIONAL_REPRESENTATION('',(#1248),#1252);
#1248 = LINE('',#1249,#1250);
#1249 = CARTESIAN_POINT('',(0.,0.));
#1250 = VECTOR('',#1251,1.);
#1251 = DIRECTION('',(1.,-6.88438830693E-17));
#1252 = ( GEOMETRIC_REPRESENTATION_CONTEXT(2) 
PARAMETRIC_REPRESENTATION_CONTEXT() REPRESENTATION_CONTEXT('2D SPACE',''
  ) );
#1253 = ORIENTED_EDGE('',*,*,#1254,.T.);
#1254 = EDGE_CURVE('',#1227,#1255,#1257,.T.);
#1255 = VERTEX_POINT('',#1256);
#1256 = CARTESIAN_POINT('',(52.152,-7.12880515584,4.983527005533));
#1257 = SURFACE_CURVE('',#1258,(#1262,#1269),.PCURVE_S1.);
#1258 = LINE('',#1259,#1260);
#1259 = CARTESIAN_POINT('',(70.24,0.,10.375));
#1260 = VECTOR('',#1261,1.);
#1261 = DIRECTION('',(-0.896518841362,-0.353334151847,-0.267224520247));
#1262 = PCURVE('',#600,#1263);
#1263 = DEFINITIONAL_REPRESENTATION('',(#1264),#1268);
#1264 = LINE('',#1265,#1266);
#1265 = CARTESIAN_POINT('',(-8.634241571903E-16,-36.79331121339));
#1266 = VECTOR('',#1267,1.);
#1267 = DIRECTION('',(0.443005606153,0.896518841362));
#1268 = ( GEOMETRIC_REPRESENTATION_CONTEXT(2) 
PARAMETRIC_REPRESENTATION_CONTEXT() REPRESENTATION_CONTEXT('2D SPACE',''
  ) );
#1269 = PCURVE('',#1270,#1275);
#1270 = PLANE('',#1271);
#1271 = AXIS2_PLACEMENT_3D('',#1272,#1273,#1274);
#1272 = CARTESIAN_POINT('',(70.24,0.,10.375));
#1273 = DIRECTION('',(0.443005606153,-0.715049019759,-0.540787326274));
#1274 = DIRECTION('',(-0.896518841362,-0.353334151847,-0.267224520247));
#1275 = DEFINITIONAL_REPRESENTATION('',(#1276),#1280);
#1276 = LINE('',#1277,#1278);
#1277 = CARTESIAN_POINT('',(-0.,0.));
#1278 = VECTOR('',#1279,1.);
#1279 = DIRECTION('',(1.,-6.88438830693E-17));
#1280 = ( GEOMETRIC_REPRESENTATION_CONTEXT(2) 
PARAMETRIC_REPRESENTATION_CONTEXT() REPRESENTATION_CONTEXT('2D SPACE',''
  ) );
#1281 = ORIENTED_EDGE('',*,*,#1282,.T.);
#1282 = EDGE_CURVE('',#1255,#970,#1283,.T.);
#1283 = SURFACE_CURVE('',#1284,(#1288,#1295),.PCURVE_S1.);
#1284 = LINE('',#1285,#1286);
#1285 = CARTESIAN_POINT('',(52.152,-7.12880515584,4.983527005533));
#1286 = VECTOR('',#1287,1.);
#1287 = DIRECTION('',(-0.997080404983,-6.090254993727E-02,
    -4.606023675819E-02));
#1288 = PCURVE('',#600,#1289);
#1289 = DEFINITIONAL_REPRESENTATION('',(#1290),#1294);
#1290 = LINE('',#1291,#1292);
#1291 = CARTESIAN_POINT('',(8.938,-18.70531121339));
#1292 = VECTOR('',#1293,1.);
#1293 = DIRECTION('',(7.635879778443E-02,0.997080404983));
#1294 = ( GEOMETRIC_REPRESENTATION_CONTEXT(2) 
PARAMETRIC_REPRESENTATION_CONTEXT() REPRESENTATION_CONTEXT('2D SPACE',''
  ) );
#1295 = PCURVE('',#1018,#1296);
#1296 = DEFINITIONAL_REPRESENTATION('',(#1297),#1301);
#1297 = LINE('',#1298,#1299);
#1298 = CARTESIAN_POINT('',(-0.,0.));
#1299 = VECTOR('',#1300,1.);
#1300 = DIRECTION('',(1.,-9.102182764799E-18));
#1301 = ( GEOMETRIC_REPRESENTATION_CONTEXT(2) 
PARAMETRIC_REPRESENTATION_CONTEXT() REPRESENTATION_CONTEXT('2D SPACE',''
  ) );
#1302 = ORIENTED_EDGE('',*,*,#969,.F.);
#1303 = ORIENTED_EDGE('',*,*,#891,.F.);
#1304 = ORIENTED_EDGE('',*,*,#1149,.T.);
#1305 = ADVANCED_FACE('',(#1306),#804,.T.);
#1306 = FACE_BOUND('',#1307,.T.);
#1307 = EDGE_LOOP('',(#1308,#1309,#1310,#1333));
#1308 = ORIENTED_EDGE('',*,*,#1175,.F.);
#1309 = ORIENTED_EDGE('',*,*,#780,.T.);
#1310 = ORIENTED_EDGE('',*,*,#1311,.T.);
#1311 = EDGE_CURVE('',#744,#1312,#1314,.T.);
#1312 = VERTEX_POINT('',#1313);
#1313 = CARTESIAN_POINT('',(5.64,5.656861997937,23.617824937916));
#1314 = SURFACE_CURVE('',#1315,(#1319,#1326),.PCURVE_S1.);
#1315 = LINE('',#1316,#1317);
#1316 = CARTESIAN_POINT('',(5.64,-14.28273622269,8.537625244284));
#1317 = VECTOR('',#1318,1.);
#1318 = DIRECTION('',(0.,0.797583928825,0.603207987745));
#1319 = PCURVE('',#804,#1320);
#1320 = DEFINITIONAL_REPRESENTATION('',(#1321),#1325);
#1321 = LINE('',#1322,#1323);
#1322 = CARTESIAN_POINT('',(6.786252456444E-17,-7.15));
#1323 = VECTOR('',#1324,1.);
#1324 = DIRECTION('',(1.,-8.93036204381E-18));
#1325 = ( GEOMETRIC_REPRESENTATION_CONTEXT(2) 
PARAMETRIC_REPRESENTATION_CONTEXT() REPRESENTATION_CONTEXT('2D SPACE',''
  ) );
#1326 = PCURVE('',#683,#1327);
#1327 = DEFINITIONAL_REPRESENTATION('',(#1328),#1332);
#1328 = LINE('',#1329,#1330);
#1329 = CARTESIAN_POINT('',(12.5,27.806688786608));
#1330 = VECTOR('',#1331,1.);
#1331 = DIRECTION('',(-1.,0.));
#1332 = ( GEOMETRIC_REPRESENTATION_CONTEXT(2) 
PARAMETRIC_REPRESENTATION_CONTEXT() REPRESENTATION_CONTEXT('2D SPACE',''
  ) );
#1333 = ORIENTED_EDGE('',*,*,#1334,.F.);
#1334 = EDGE_CURVE('',#1176,#1312,#1335,.T.);
#1335 = SURFACE_CURVE('',#1336,(#1340,#1347),.PCURVE_S1.);
#1336 = LINE('',#1337,#1338);
#1337 = CARTESIAN_POINT('',(5.64,9.969799110315,17.915099846816));
#1338 = VECTOR('',#1339,1.);
#1339 = DIRECTION('',(0.,-0.603207987745,0.797583928825));
#1340 = PCURVE('',#804,#1341);
#1341 = DEFINITIONAL_REPRESENTATION('',(#1342),#1346);
#1342 = LINE('',#1343,#1344);
#1343 = CARTESIAN_POINT('',(25.,-7.875951291609E-16));
#1344 = VECTOR('',#1345,1.);
#1345 = DIRECTION('',(-1.020919404187E-16,-1.));
#1346 = ( GEOMETRIC_REPRESENTATION_CONTEXT(2) 
PARAMETRIC_REPRESENTATION_CONTEXT() REPRESENTATION_CONTEXT('2D SPACE',''
  ) );
#1347 = PCURVE('',#1214,#1348);
#1348 = DEFINITIONAL_REPRESENTATION('',(#1349),#1353);
#1349 = LINE('',#1350,#1351);
#1350 = CARTESIAN_POINT('',(0.,0.));
#1351 = VECTOR('',#1352,1.);
#1352 = DIRECTION('',(2.885113325118E-17,-1.));
#1353 = ( GEOMETRIC_REPRESENTATION_CONTEXT(2) 
PARAMETRIC_REPRESENTATION_CONTEXT() REPRESENTATION_CONTEXT('2D SPACE',''
  ) );
#1354 = ADVANCED_FACE('',(#1355),#683,.F.);
#1355 = FACE_BOUND('',#1356,.F.);
#1356 = EDGE_LOOP('',(#1357,#1358,#1359,#1382,#1405,#1428,#1449,#1450,
    #1451));
#1357 = ORIENTED_EDGE('',*,*,#743,.T.);
#1358 = ORIENTED_EDGE('',*,*,#1311,.T.);
#1359 = ORIENTED_EDGE('',*,*,#1360,.T.);
#1360 = EDGE_CURVE('',#1312,#1361,#1363,.T.);
#1361 = VERTEX_POINT('',#1362);
#1362 = CARTESIAN_POINT('',(52.152,2.815868043461,21.469198085568));
#1363 = SURFACE_CURVE('',#1364,(#1368,#1375),.PCURVE_S1.);
#1364 = LINE('',#1365,#1366);
#1365 = CARTESIAN_POINT('',(5.64,5.656861997937,23.617824937916));
#1366 = VECTOR('',#1367,1.);
#1367 = DIRECTION('',(0.997080404983,-6.090254993727E-02,
    -4.606023675819E-02));
#1368 = PCURVE('',#683,#1369);
#1369 = DEFINITIONAL_REPRESENTATION('',(#1370),#1374);
#1370 = LINE('',#1371,#1372);
#1371 = CARTESIAN_POINT('',(-12.5,27.806688786608));
#1372 = VECTOR('',#1373,1.);
#1373 = DIRECTION('',(7.635879778443E-02,-0.997080404983));
#1374 = ( GEOMETRIC_REPRESENTATION_CONTEXT(2) 
PARAMETRIC_REPRESENTATION_CONTEXT() REPRESENTATION_CONTEXT('2D SPACE',''
  ) );
#1375 = PCURVE('',#1214,#1376);
#1376 = DEFINITIONAL_REPRESENTATION('',(#1377),#1381);
#1377 = LINE('',#1378,#1379);
#1378 = CARTESIAN_POINT('',(2.235479955056E-16,-7.15));
#1379 = VECTOR('',#1380,1.);
#1380 = DIRECTION('',(1.,-6.209271172414E-18));
#1381 = ( GEOMETRIC_REPRESENTATION_CONTEXT(2) 
PARAMETRIC_REPRESENTATION_CONTEXT() REPRESENTATION_CONTEXT('2D SPACE',''
  ) );
#1382 = ORIENTED_EDGE('',*,*,#1383,.T.);
#1383 = EDGE_CURVE('',#1361,#1384,#1386,.T.);
#1384 = VERTEX_POINT('',#1385);
#1385 = CARTESIAN_POINT('',(70.24,-4.312937112379,16.0777250911));
#1386 = SURFACE_CURVE('',#1387,(#1391,#1398),.PCURVE_S1.);
#1387 = LINE('',#1388,#1389);
#1388 = CARTESIAN_POINT('',(52.152,2.815868043461,21.469198085568));
#1389 = VECTOR('',#1390,1.);
#1390 = DIRECTION('',(0.896518841362,-0.353334151847,-0.267224520247));
#1391 = PCURVE('',#683,#1392);
#1392 = DEFINITIONAL_REPRESENTATION('',(#1393),#1397);
#1393 = LINE('',#1394,#1395);
#1394 = CARTESIAN_POINT('',(-8.938,-18.70531121339));
#1395 = VECTOR('',#1396,1.);
#1396 = DIRECTION('',(0.443005606153,-0.896518841362));
#1397 = ( GEOMETRIC_REPRESENTATION_CONTEXT(2) 
PARAMETRIC_REPRESENTATION_CONTEXT() REPRESENTATION_CONTEXT('2D SPACE',''
  ) );
#1398 = PCURVE('',#1242,#1399);
#1399 = DEFINITIONAL_REPRESENTATION('',(#1400),#1404);
#1400 = LINE('',#1401,#1402);
#1401 = CARTESIAN_POINT('',(-2.813419157264E-16,-7.15));
#1402 = VECTOR('',#1403,1.);
#1403 = DIRECTION('',(1.,-6.88438830693E-17));
#1404 = ( GEOMETRIC_REPRESENTATION_CONTEXT(2) 
PARAMETRIC_REPRESENTATION_CONTEXT() REPRESENTATION_CONTEXT('2D SPACE',''
  ) );
#1405 = ORIENTED_EDGE('',*,*,#1406,.T.);
#1406 = EDGE_CURVE('',#1384,#1407,#1409,.T.);
#1407 = VERTEX_POINT('',#1408);
#1408 = CARTESIAN_POINT('',(52.152,-11.44174226821,10.686252096633));
#1409 = SURFACE_CURVE('',#1410,(#1414,#1421),.PCURVE_S1.);
#1410 = LINE('',#1411,#1412);
#1411 = CARTESIAN_POINT('',(70.24,-4.312937112379,16.0777250911));
#1412 = VECTOR('',#1413,1.);
#1413 = DIRECTION('',(-0.896518841362,-0.353334151847,-0.267224520247));
#1414 = PCURVE('',#683,#1415);
#1415 = DEFINITIONAL_REPRESENTATION('',(#1416),#1420);
#1416 = LINE('',#1417,#1418);
#1417 = CARTESIAN_POINT('',(-8.634241571903E-16,-36.79331121339));
#1418 = VECTOR('',#1419,1.);
#1419 = DIRECTION('',(0.443005606153,0.896518841362));
#1420 = ( GEOMETRIC_REPRESENTATION_CONTEXT(2) 
PARAMETRIC_REPRESENTATION_CONTEXT() REPRESENTATION_CONTEXT('2D SPACE',''
  ) );
#1421 = PCURVE('',#1270,#1422);
#1422 = DEFINITIONAL_REPRESENTATION('',(#1423),#1427);
#1423 = LINE('',#1424,#1425);
#1424 = CARTESIAN_POINT('',(-5.929731080137E-17,-7.15));
#1425 = VECTOR('',#1426,1.);
#1426 = DIRECTION('',(1.,-6.88438830693E-17));
#1427 = ( GEOMETRIC_REPRESENTATION_CONTEXT(2) 
PARAMETRIC_REPRESENTATION_CONTEXT() REPRESENTATION_CONTEXT('2D SPACE',''
  ) );
#1428 = ORIENTED_EDGE('',*,*,#1429,.T.);
#1429 = EDGE_CURVE('',#1407,#998,#1430,.T.);
#1430 = SURFACE_CURVE('',#1431,(#1435,#1442),.PCURVE_S1.);
#1431 = LINE('',#1432,#1433);
#1432 = CARTESIAN_POINT('',(52.152,-11.44174226821,10.686252096633));
#1433 = VECTOR('',#1434,1.);
#1434 = DIRECTION('',(-0.997080404983,-6.090254993727E-02,
    -4.606023675819E-02));
#1435 = PCURVE('',#683,#1436);
#1436 = DEFINITIONAL_REPRESENTATION('',(#1437),#1441);
#1437 = LINE('',#1438,#1439);
#1438 = CARTESIAN_POINT('',(8.938,-18.70531121339));
#1439 = VECTOR('',#1440,1.);
#1440 = DIRECTION('',(7.635879778443E-02,0.997080404983));
#1441 = ( GEOMETRIC_REPRESENTATION_CONTEXT(2) 
PARAMETRIC_REPRESENTATION_CONTEXT() REPRESENTATION_CONTEXT('2D SPACE',''
  ) );
#1442 = PCURVE('',#1018,#1443);
#1443 = DEFINITIONAL_REPRESENTATION('',(#1444),#1448);
#1444 = LINE('',#1445,#1446);
#1445 = CARTESIAN_POINT('',(1.130872186073E-16,-7.15));
#1446 = VECTOR('',#1447,1.);
#1447 = DIRECTION('',(1.,-9.102182764799E-18));
#1448 = ( GEOMETRIC_REPRESENTATION_CONTEXT(2) 
PARAMETRIC_REPRESENTATION_CONTEXT() REPRESENTATION_CONTEXT('2D SPACE',''
  ) );
#1449 = ORIENTED_EDGE('',*,*,#1030,.F.);
#1450 = ORIENTED_EDGE('',*,*,#844,.T.);
#1451 = ORIENTED_EDGE('',*,*,#661,.T.);
#1452 = ADVANCED_FACE('',(#1453),#730,.T.);
#1453 = FACE_BOUND('',#1454,.T.);
#1454 = EDGE_LOOP('',(#1455));
#1455 = ORIENTED_EDGE('',*,*,#715,.T.);
#1456 = ADVANCED_FACE('',(#1457),#1018,.T.);
#1457 = FACE_BOUND('',#1458,.T.);
#1458 = EDGE_LOOP('',(#1459,#1460,#1481,#1482));
#1459 = ORIENTED_EDGE('',*,*,#1282,.F.);
#1460 = ORIENTED_EDGE('',*,*,#1461,.T.);
#1461 = EDGE_CURVE('',#1255,#1407,#1462,.T.);
#1462 = SURFACE_CURVE('',#1463,(#1467,#1474),.PCURVE_S1.);
#1463 = LINE('',#1464,#1465);
#1464 = CARTESIAN_POINT('',(52.152,-7.12880515584,4.983527005533));
#1465 = VECTOR('',#1466,1.);
#1466 = DIRECTION('',(0.,-0.603207987745,0.797583928825));
#1467 = PCURVE('',#1018,#1468);
#1468 = DEFINITIONAL_REPRESENTATION('',(#1469),#1473);
#1469 = LINE('',#1470,#1471);
#1470 = CARTESIAN_POINT('',(-0.,0.));
#1471 = VECTOR('',#1472,1.);
#1472 = DIRECTION('',(1.092736313184E-17,-1.));
#1473 = ( GEOMETRIC_REPRESENTATION_CONTEXT(2) 
PARAMETRIC_REPRESENTATION_CONTEXT() REPRESENTATION_CONTEXT('2D SPACE',''
  ) );
#1474 = PCURVE('',#1270,#1475);
#1475 = DEFINITIONAL_REPRESENTATION('',(#1476),#1480);
#1476 = LINE('',#1477,#1478);
#1477 = CARTESIAN_POINT('',(20.175816910351,-1.674452564527E-15));
#1478 = VECTOR('',#1479,1.);
#1479 = DIRECTION('',(-3.285437615127E-17,-1.));
#1480 = ( GEOMETRIC_REPRESENTATION_CONTEXT(2) 
PARAMETRIC_REPRESENTATION_CONTEXT() REPRESENTATION_CONTEXT('2D SPACE',''
  ) );
#1481 = ORIENTED_EDGE('',*,*,#1429,.T.);
#1482 = ORIENTED_EDGE('',*,*,#997,.F.);
#1483 = ADVANCED_FACE('',(#1484),#956,.F.);
#1484 = FACE_BOUND('',#1485,.T.);
#1485 = EDGE_LOOP('',(#1486));
#1486 = ORIENTED_EDGE('',*,*,#941,.F.);
#1487 = ADVANCED_FACE('',(#1488),#1270,.T.);
#1488 = FACE_BOUND('',#1489,.T.);
#1489 = EDGE_LOOP('',(#1490,#1511,#1512,#1513));
#1490 = ORIENTED_EDGE('',*,*,#1491,.T.);
#1491 = EDGE_CURVE('',#1227,#1384,#1492,.T.);
#1492 = SURFACE_CURVE('',#1493,(#1497,#1504),.PCURVE_S1.);
#1493 = LINE('',#1494,#1495);
#1494 = CARTESIAN_POINT('',(70.24,0.,10.375));
#1495 = VECTOR('',#1496,1.);
#1496 = DIRECTION('',(0.,-0.603207987745,0.797583928825));
#1497 = PCURVE('',#1270,#1498);
#1498 = DEFINITIONAL_REPRESENTATION('',(#1499),#1503);
#1499 = LINE('',#1500,#1501);
#1500 = CARTESIAN_POINT('',(-0.,0.));
#1501 = VECTOR('',#1502,1.);
#1502 = DIRECTION('',(-3.285437615127E-17,-1.));
#1503 = ( GEOMETRIC_REPRESENTATION_CONTEXT(2) 
PARAMETRIC_REPRESENTATION_CONTEXT() REPRESENTATION_CONTEXT('2D SPACE',''
  ) );
#1504 = PCURVE('',#1242,#1505);
#1505 = DEFINITIONAL_REPRESENTATION('',(#1506),#1510);
#1506 = LINE('',#1507,#1508);
#1507 = CARTESIAN_POINT('',(20.175816910351,-1.674452564527E-15));
#1508 = VECTOR('',#1509,1.);
#1509 = DIRECTION('',(-3.285437615127E-17,-1.));
#1510 = ( GEOMETRIC_REPRESENTATION_CONTEXT(2) 
PARAMETRIC_REPRESENTATION_CONTEXT() REPRESENTATION_CONTEXT('2D SPACE',''
  ) );
#1511 = ORIENTED_EDGE('',*,*,#1406,.T.);
#1512 = ORIENTED_EDGE('',*,*,#1461,.F.);
#1513 = ORIENTED_EDGE('',*,*,#1254,.F.);
#1514 = ADVANCED_FACE('',(#1515),#1242,.T.);
#1515 = FACE_BOUND('',#1516,.T.);
#1516 = EDGE_LOOP('',(#1517,#1538,#1539,#1540));
#1517 = ORIENTED_EDGE('',*,*,#1518,.T.);
#1518 = EDGE_CURVE('',#1199,#1361,#1519,.T.);
#1519 = SURFACE_CURVE('',#1520,(#1524,#1531),.PCURVE_S1.);
#1520 = LINE('',#1521,#1522);
#1521 = CARTESIAN_POINT('',(52.152,7.12880515584,15.766472994467));
#1522 = VECTOR('',#1523,1.);
#1523 = DIRECTION('',(0.,-0.603207987745,0.797583928825));
#1524 = PCURVE('',#1242,#1525);
#1525 = DEFINITIONAL_REPRESENTATION('',(#1526),#1530);
#1526 = LINE('',#1527,#1528);
#1527 = CARTESIAN_POINT('',(0.,0.));
#1528 = VECTOR('',#1529,1.);
#1529 = DIRECTION('',(-3.285437615127E-17,-1.));
#1530 = ( GEOMETRIC_REPRESENTATION_CONTEXT(2) 
PARAMETRIC_REPRESENTATION_CONTEXT() REPRESENTATION_CONTEXT('2D SPACE',''
  ) );
#1531 = PCURVE('',#1214,#1532);
#1532 = DEFINITIONAL_REPRESENTATION('',(#1533),#1537);
#1533 = LINE('',#1534,#1535);
#1534 = CARTESIAN_POINT('',(46.648193834274,-1.011367462336E-16));
#1535 = VECTOR('',#1536,1.);
#1536 = DIRECTION('',(2.885113325118E-17,-1.));
#1537 = ( GEOMETRIC_REPRESENTATION_CONTEXT(2) 
PARAMETRIC_REPRESENTATION_CONTEXT() REPRESENTATION_CONTEXT('2D SPACE',''
  ) );
#1538 = ORIENTED_EDGE('',*,*,#1383,.T.);
#1539 = ORIENTED_EDGE('',*,*,#1491,.F.);
#1540 = ORIENTED_EDGE('',*,*,#1226,.F.);
#1541 = ADVANCED_FACE('',(#1542),#1214,.T.);
#1542 = FACE_BOUND('',#1543,.T.);
#1543 = EDGE_LOOP('',(#1544,#1545,#1546,#1547));
#1544 = ORIENTED_EDGE('',*,*,#1334,.T.);
#1545 = ORIENTED_EDGE('',*,*,#1360,.T.);
#1546 = ORIENTED_EDGE('',*,*,#1518,.F.);
#1547 = ORIENTED_EDGE('',*,*,#1198,.F.);
#1548 = ( GEOMETRIC_REPRESENTATION_CONTEXT(3) 
GLOBAL_UNCERTAINTY_ASSIGNED_CONTEXT((#1552)) 
GLOBAL_UNIT_ASSIGNED_CONTEXT((#1549,#1550,#1551)) REPRESENTATION_CONTEXT
('Context #1','3D Context with UNIT and UNCERTAINTY') );
#1549 = ( LENGTH_UNIT() NAMED_UNIT(*) SI_UNIT(.MILLI.,.METRE.) );
#1550 = ( NAMED_UNIT(*) PLANE_ANGLE_UNIT() SI_UNIT($,.RADIAN.) );
#1551 = ( NAMED_UNIT(*) SI_UNIT($,.STERADIAN.) SOLID_ANGLE_UNIT() );
#1552 = UNCERTAINTY_MEASURE_WITH_UNIT(LENGTH_MEASURE(2.E-07),#1549,
  'distance_accuracy_value','confusion accuracy');
#1553 = PRODUCT_RELATED_PRODUCT_CATEGORY('part',$,(#7));
ENDSEC;
END-ISO-10303-21;
