ISO-10303-21;
HEADER;
FILE_DESCRIPTION(('Open CASCADE Model'),'2;1');
FILE_NAME('Open CASCADE Shape Model','2026-04-24T00:53:09',('Author'),(
    'Open CASCADE'),'Open CASCADE STEP processor 7.9','Open CASCADE 7.9'
  ,'Unknown');
FILE_SCHEMA(('AUTOMOTIVE_DESIGN { 1 0 10303 214 1 1 1 1 }'));
ENDSEC;
DATA;
#1 = APPLICATION_PROTOCOL_DEFINITION('international standard',
  'automotive_design',2000,#2);
#2 = APPLICATION_CONTEXT(
  'core data for automotive mechanical design processes');
#3 = SHAPE_DEFINITION_REPRESENTATION(#4,#10);
#4 = PRODUCT_DEFINITION_SHAPE('','',#5);
#5 = PRODUCT_DEFINITION('design','',#6,#9);
#6 = PRODUCT_DEFINITION_FORMATION('','',#7);
#7 = PRODUCT('Open CASCADE STEP translator 7.9 1',
  'Open CASCADE STEP translator 7.9 1','',(#8));
#8 = PRODUCT_CONTEXT('',#2,'mechanical');
#9 = PRODUCT_DEFINITION_CONTEXT('part definition',#2,'design');
#10 = ADVANCED_BREP_SHAPE_REPRESENTATION('',(#11,#15),#1566);
#11 = AXIS2_PLACEMENT_3D('',#12,#13,#14);
#12 = CARTESIAN_POINT('',(0.,0.,0.));
#13 = DIRECTION('',(0.,0.,1.));
#14 = DIRECTION('',(1.,0.,-0.));
#15 = MANIFOLD_SOLID_BREP('',#16);
#16 = CLOSED_SHELL('',(#17,#119,#525,#602,#739,#924,#996,#1022,#1145,
    #1149,#1197,#1299,#1327,#1354,#1467,#1494,#1501,#1528,#1555,#1562));
#17 = ADVANCED_FACE('',(#18),#33,.T.);
#18 = FACE_BOUND('',#19,.T.);
#19 = EDGE_LOOP('',(#20,#65,#93));
#20 = ORIENTED_EDGE('',*,*,#21,.T.);
#21 = EDGE_CURVE('',#22,#24,#26,.T.);
#22 = VERTEX_POINT('',#23);
#23 = CARTESIAN_POINT('',(-5.64,-9.265442145686,18.846426696853));
#24 = VERTEX_POINT('',#25);
#25 = CARTESIAN_POINT('',(-5.64,-2.142353211715,20.959822818977));
#26 = SURFACE_CURVE('',#27,(#32,#44),.PCURVE_S1.);
#27 = HYPERBOLA('',#28,2.476097560976,5.64);
#28 = AXIS2_PLACEMENT_3D('',#29,#30,#31);
#29 = CARTESIAN_POINT('',(-5.64,5.709469571181E-16,23.608536585366));
#30 = DIRECTION('',(1.,-1.012317299855E-16,-1.605835390839E-17));
#31 = DIRECTION('',(-1.605835390839E-17,1.625614946866E-33,-1.));
#32 = PCURVE('',#33,#38);
#33 = PLANE('',#34);
#34 = AXIS2_PLACEMENT_3D('',#35,#36,#37);
#35 = CARTESIAN_POINT('',(-5.64,9.969799110315,2.834900153184));
#36 = DIRECTION('',(1.,-1.012317299855E-16,-1.605835390839E-17));
#37 = DIRECTION('',(-7.105427357601E-17,-0.797583928825,0.603207987745)
  );
#38 = DEFINITIONAL_REPRESENTATION('',(#39),#43);
#39 = ( BOUNDED_CURVE() B_SPLINE_CURVE(2,(#40,#41,#42),.UNSPECIFIED.,.F.
,.F.) B_SPLINE_CURVE_WITH_KNOTS((3,3),(-1.447924249243,-0.197507365855),
.PIECEWISE_BEZIER_KNOTS.) CURVE() GEOMETRIC_REPRESENTATION_ITEM() 
RATIONAL_B_SPLINE_CURVE((1.,1.20189264386,1.)) REPRESENTATION_ITEM('') 
  );
#40 = CARTESIAN_POINT('',(26.169906508973,0.715));
#41 = CARTESIAN_POINT('',(22.233558525363,-5.722987505944));
#42 = CARTESIAN_POINT('',(19.853995754672,-7.865));
#43 = ( GEOMETRIC_REPRESENTATION_CONTEXT(2) 
PARAMETRIC_REPRESENTATION_CONTEXT() REPRESENTATION_CONTEXT('2D SPACE',''
  ) );
#44 = PCURVE('',#45,#50);
#45 = CONICAL_SURFACE('',#46,22.,1.157107113516);
#46 = AXIS2_PLACEMENT_3D('',#47,#48,#49);
#47 = CARTESIAN_POINT('',(0.,0.,13.95));
#48 = DIRECTION('',(-0.,-0.,-1.));
#49 = DIRECTION('',(1.,0.,0.));
#50 = DEFINITIONAL_REPRESENTATION('',(#51),#64);
#51 = B_SPLINE_CURVE_WITH_KNOTS('',6,(#52,#53,#54,#55,#56,#57,#58,#59,
    #60,#61,#62,#63),.UNSPECIFIED.,.F.,.F.,(7,5,7),(-1.447924249243,
    -0.822715807549,-0.197507365855),.UNSPECIFIED.);
#52 = CARTESIAN_POINT('',(-4.250655694266,-4.100524288834));
#53 = CARTESIAN_POINT('',(-4.204233909672,-4.619029082137));
#54 = CARTESIAN_POINT('',(-4.152615153942,-5.065115798118));
#55 = CARTESIAN_POINT('',(-4.095253359984,-5.448917095507));
#56 = CARTESIAN_POINT('',(-4.031630728988,-5.778212088406));
#57 = CARTESIAN_POINT('',(-3.961387844437,-6.059064312461));
#58 = CARTESIAN_POINT('',(-3.807919805754,-6.533146748569));
#59 = CARTESIAN_POINT('',(-3.724693302706,-6.726377164751));
#60 = CARTESIAN_POINT('',(-3.635109177298,-6.880429127476));
#61 = CARTESIAN_POINT('',(-3.539740428834,-6.998510054965));
#62 = CARTESIAN_POINT('',(-3.440029823523,-7.082695182035));
#63 = CARTESIAN_POINT('',(-3.337828302786,-7.133986581274));
#64 = ( GEOMETRIC_REPRESENTATION_CONTEXT(2) 
PARAMETRIC_REPRESENTATION_CONTEXT() REPRESENTATION_CONTEXT('2D SPACE',''
  ) );
#65 = ORIENTED_EDGE('',*,*,#66,.T.);
#66 = EDGE_CURVE('',#24,#67,#69,.T.);
#67 = VERTEX_POINT('',#68);
#68 = CARTESIAN_POINT('',(-5.64,-5.656861997937,23.617824937916));
#69 = SURFACE_CURVE('',#70,(#74,#81),.PCURVE_S1.);
#70 = LINE('',#71,#72);
#71 = CARTESIAN_POINT('',(-5.64,14.282736222694,8.537625244284));
#72 = VECTOR('',#73,1.);
#73 = DIRECTION('',(-7.105427357601E-17,-0.797583928825,0.603207987745)
  );
#74 = PCURVE('',#33,#75);
#75 = DEFINITIONAL_REPRESENTATION('',(#76),#80);
#76 = LINE('',#77,#78);
#77 = CARTESIAN_POINT('',(6.786252456444E-17,-7.15));
#78 = VECTOR('',#79,1.);
#79 = DIRECTION('',(1.,-8.93036204381E-18));
#80 = ( GEOMETRIC_REPRESENTATION_CONTEXT(2) 
PARAMETRIC_REPRESENTATION_CONTEXT() REPRESENTATION_CONTEXT('2D SPACE',''
  ) );
#81 = PCURVE('',#82,#87);
#82 = PLANE('',#83);
#83 = AXIS2_PLACEMENT_3D('',#84,#85,#86);
#84 = CARTESIAN_POINT('',(-33.4466887866,4.312937112379,16.0777250911));
#85 = DIRECTION('',(-0.,-0.603207987745,-0.797583928825));
#86 = DIRECTION('',(0.,-0.797583928825,0.603207987745));
#87 = DEFINITIONAL_REPRESENTATION('',(#88),#92);
#88 = LINE('',#89,#90);
#89 = CARTESIAN_POINT('',(-12.5,-27.8066887866));
#90 = VECTOR('',#91,1.);
#91 = DIRECTION('',(1.,7.105427357601E-17));
#92 = ( GEOMETRIC_REPRESENTATION_CONTEXT(2) 
PARAMETRIC_REPRESENTATION_CONTEXT() REPRESENTATION_CONTEXT('2D SPACE',''
  ) );
#93 = ORIENTED_EDGE('',*,*,#94,.F.);
#94 = EDGE_CURVE('',#22,#67,#95,.T.);
#95 = SURFACE_CURVE('',#96,(#100,#107),.PCURVE_S1.);
#96 = LINE('',#97,#98);
#97 = CARTESIAN_POINT('',(-5.64,-9.969799110315,17.915099846816));
#98 = VECTOR('',#99,1.);
#99 = DIRECTION('',(7.387167314124E-17,0.603207987745,0.797583928825));
#100 = PCURVE('',#33,#101);
#101 = DEFINITIONAL_REPRESENTATION('',(#102),#106);
#102 = LINE('',#103,#104);
#103 = CARTESIAN_POINT('',(25.,-7.875951291609E-16));
#104 = VECTOR('',#105,1.);
#105 = DIRECTION('',(-1.020919404187E-16,-1.));
#106 = ( GEOMETRIC_REPRESENTATION_CONTEXT(2) 
PARAMETRIC_REPRESENTATION_CONTEXT() REPRESENTATION_CONTEXT('2D SPACE',''
  ) );
#107 = PCURVE('',#108,#113);
#108 = PLANE('',#109);
#109 = AXIS2_PLACEMENT_3D('',#110,#111,#112);
#110 = CARTESIAN_POINT('',(-5.64,-9.969799110315,17.915099846816));
#111 = DIRECTION('',(-7.635879778443E-02,-0.795255306761,0.60144686471)
  );
#112 = DIRECTION('',(-0.997080404983,6.090254993727E-02,
    -4.606023675819E-02));
#113 = DEFINITIONAL_REPRESENTATION('',(#114),#118);
#114 = LINE('',#115,#116);
#115 = CARTESIAN_POINT('',(0.,-0.));
#116 = VECTOR('',#117,1.);
#117 = DIRECTION('',(2.33167829896E-17,-1.));
#118 = ( GEOMETRIC_REPRESENTATION_CONTEXT(2) 
PARAMETRIC_REPRESENTATION_CONTEXT() REPRESENTATION_CONTEXT('2D SPACE',''
  ) );
#119 = ADVANCED_FACE('',(#120),#45,.T.);
#120 = FACE_BOUND('',#121,.T.);
#121 = EDGE_LOOP('',(#122,#164,#193,#235,#236,#266,#306,#335,#369,#389,
    #416,#417,#454,#492));
#122 = ORIENTED_EDGE('',*,*,#123,.F.);
#123 = EDGE_CURVE('',#124,#126,#128,.T.);
#124 = VERTEX_POINT('',#125);
#125 = CARTESIAN_POINT('',(21.486169883738,4.726997326757,13.95));
#126 = VERTEX_POINT('',#127);
#127 = CARTESIAN_POINT('',(9.08002876386,9.759679121466,17.756187347356)
  );
#128 = SURFACE_CURVE('',#129,(#134,#152),.PCURVE_S1.);
#129 = HYPERBOLA('',#130,19.207727981562,21.489179448385);
#130 = AXIS2_PLACEMENT_3D('',#131,#132,#133);
#131 = CARTESIAN_POINT('',(0.,26.3909140412,30.334291528101));
#132 = DIRECTION('',(-0.,0.603207987745,-0.797583928825));
#133 = DIRECTION('',(0.,-0.797583928825,-0.603207987745));
#134 = PCURVE('',#45,#135);
#135 = DEFINITIONAL_REPRESENTATION('',(#136),#151);
#136 = B_SPLINE_CURVE_WITH_KNOTS('',7,(#137,#138,#139,#140,#141,#142,
    #143,#144,#145,#146,#147,#148,#149,#150),.UNSPECIFIED.,.F.,.F.,(8,6,
    8),(-0.881274553081,-0.421562533985,3.814948511012E-02),
  .UNSPECIFIED.);
#137 = CARTESIAN_POINT('',(-0.216552078577,-5.74104355078E-16));
#138 = CARTESIAN_POINT('',(-0.280700351778,-0.760799242745));
#139 = CARTESIAN_POINT('',(-0.350743497527,-1.439156187712));
#140 = CARTESIAN_POINT('',(-0.427216868507,-2.040430279886));
#141 = CARTESIAN_POINT('',(-0.510613583013,-2.569109860296));
#142 = CARTESIAN_POINT('',(-0.60132667671,-3.028906377583));
#143 = CARTESIAN_POINT('',(-0.699397372386,-3.422818578704));
#144 = CARTESIAN_POINT('',(-0.90923322886,-4.083528741669));
#145 = CARTESIAN_POINT('',(-1.020999460693,-4.350326703351));
#146 = CARTESIAN_POINT('',(-1.139099129519,-4.55589472583));
#147 = CARTESIAN_POINT('',(-1.262507426689,-4.701888433184));
#148 = CARTESIAN_POINT('',(-1.389414782538,-4.789332733808));
#149 = CARTESIAN_POINT('',(-1.517550643824,-4.818639546579));
#150 = CARTESIAN_POINT('',(-1.644802043594,-4.789604340099));
#151 = ( GEOMETRIC_REPRESENTATION_CONTEXT(2) 
PARAMETRIC_REPRESENTATION_CONTEXT() REPRESENTATION_CONTEXT('2D SPACE',''
  ) );
#152 = PCURVE('',#153,#158);
#153 = PLANE('',#154);
#154 = AXIS2_PLACEMENT_3D('',#155,#156,#157);
#155 = CARTESIAN_POINT('',(33.446688786608,-3.582989458501E-16,10.375));
#156 = DIRECTION('',(-0.,0.603207987745,-0.797583928825));
#157 = DIRECTION('',(0.,-0.797583928825,-0.603207987745));
#158 = DEFINITIONAL_REPRESENTATION('',(#159),#163);
#159 = ( BOUNDED_CURVE() B_SPLINE_CURVE(2,(#160,#161,#162),
.UNSPECIFIED.,.F.,.F.) B_SPLINE_CURVE_WITH_KNOTS((3,3),(-0.881274553081,
3.814948511012E-02),.PIECEWISE_BEZIER_KNOTS.) CURVE() 
GEOMETRIC_REPRESENTATION_ITEM() RATIONAL_B_SPLINE_CURVE((1.,
1.107541668468,1.)) REPRESENTATION_ITEM('') );
#160 = CARTESIAN_POINT('',(-5.92664565561,11.96051890287));
#161 = CARTESIAN_POINT('',(-14.18192103236,25.022853806473));
#162 = CARTESIAN_POINT('',(-13.86686600647,34.266688786608));
#163 = ( GEOMETRIC_REPRESENTATION_CONTEXT(2) 
PARAMETRIC_REPRESENTATION_CONTEXT() REPRESENTATION_CONTEXT('2D SPACE',''
  ) );
#164 = ORIENTED_EDGE('',*,*,#165,.T.);
#165 = EDGE_CURVE('',#124,#166,#168,.T.);
#166 = VERTEX_POINT('',#167);
#167 = CARTESIAN_POINT('',(-20.813839964,7.126293984464,13.95));
#168 = SURFACE_CURVE('',#169,(#174,#181),.PCURVE_S1.);
#169 = CIRCLE('',#170,22.);
#170 = AXIS2_PLACEMENT_3D('',#171,#172,#173);
#171 = CARTESIAN_POINT('',(0.,0.,13.95));
#172 = DIRECTION('',(0.,0.,1.));
#173 = DIRECTION('',(1.,0.,0.));
#174 = PCURVE('',#45,#175);
#175 = DEFINITIONAL_REPRESENTATION('',(#176),#180);
#176 = LINE('',#177,#178);
#177 = CARTESIAN_POINT('',(-0.,-0.));
#178 = VECTOR('',#179,1.);
#179 = DIRECTION('',(-1.,-0.));
#180 = ( GEOMETRIC_REPRESENTATION_CONTEXT(2) 
PARAMETRIC_REPRESENTATION_CONTEXT() REPRESENTATION_CONTEXT('2D SPACE',''
  ) );
#181 = PCURVE('',#182,#187);
#182 = PLANE('',#183);
#183 = AXIS2_PLACEMENT_3D('',#184,#185,#186);
#184 = CARTESIAN_POINT('',(0.,0.,13.95));
#185 = DIRECTION('',(0.,0.,1.));
#186 = DIRECTION('',(1.,0.,0.));
#187 = DEFINITIONAL_REPRESENTATION('',(#188),#192);
#188 = CIRCLE('',#189,22.);
#189 = AXIS2_PLACEMENT_2D('',#190,#191);
#190 = CARTESIAN_POINT('',(0.,0.));
#191 = DIRECTION('',(1.,0.));
#192 = ( GEOMETRIC_REPRESENTATION_CONTEXT(2) 
PARAMETRIC_REPRESENTATION_CONTEXT() REPRESENTATION_CONTEXT('2D SPACE',''
  ) );
#193 = ORIENTED_EDGE('',*,*,#194,.T.);
#194 = EDGE_CURVE('',#166,#24,#195,.T.);
#195 = SURFACE_CURVE('',#196,(#201,#228),.PCURVE_S1.);
#196 = HYPERBOLA('',#197,6.196157407707,6.932123286652);
#197 = AXIS2_PLACEMENT_3D('',#198,#199,#200);
#198 = CARTESIAN_POINT('',(0.,-8.513357628216,25.778175615596));
#199 = DIRECTION('',(0.,-0.603207987745,-0.797583928825));
#200 = DIRECTION('',(0.,0.797583928825,-0.603207987745));
#201 = PCURVE('',#45,#202);
#202 = DEFINITIONAL_REPRESENTATION('',(#203),#227);
#203 = B_SPLINE_CURVE_WITH_KNOTS('',8,(#204,#205,#206,#207,#208,#209,
    #210,#211,#212,#213,#214,#215,#216,#217,#218,#219,#220,#221,#222,
    #223,#224,#225,#226),.UNSPECIFIED.,.F.,.F.,(9,7,7,9),(
    -1.819243104694,-0.850613684172,-0.366298973912,0.118015736349),
  .UNSPECIFIED.);
#204 = CARTESIAN_POINT('',(-2.81172010235,1.594734319661E-15));
#205 = CARTESIAN_POINT('',(-2.849871571453,-1.358761171708));
#206 = CARTESIAN_POINT('',(-2.894156518491,-2.519349091367));
#207 = CARTESIAN_POINT('',(-2.945835922524,-3.512117232891));
#208 = CARTESIAN_POINT('',(-3.006487916658,-4.361221529441));
#209 = CARTESIAN_POINT('',(-3.07819647754,-5.08604313702));
#210 = CARTESIAN_POINT('',(-3.163501946973,-5.702131067415));
#211 = CARTESIAN_POINT('',(-3.265968018629,-6.221870533146));
#212 = CARTESIAN_POINT('',(-3.449990822071,-6.871468407072));
#213 = CARTESIAN_POINT('',(-3.516385332407,-7.066332479314));
#214 = CARTESIAN_POINT('',(-3.58821686424,-7.240737283476));
#215 = CARTESIAN_POINT('',(-3.665828928336,-7.395722694616));
#216 = CARTESIAN_POINT('',(-3.749496569646,-7.53217332969));
#217 = CARTESIAN_POINT('',(-3.839317439805,-7.650829466383));
#218 = CARTESIAN_POINT('',(-3.935089061706,-7.752295105131));
#219 = CARTESIAN_POINT('',(-4.137388687858,-7.921791994633));
#220 = CARTESIAN_POINT('',(-4.243917927042,-7.989823245333));
#221 = CARTESIAN_POINT('',(-4.355249808455,-8.041610601144));
#222 = CARTESIAN_POINT('',(-4.470470832507,-8.077496663384));
#223 = CARTESIAN_POINT('',(-4.588211118093,-8.097698860344));
#224 = CARTESIAN_POINT('',(-4.706812485167,-8.102312482465));
#225 = CARTESIAN_POINT('',(-4.824616245704,-8.091311300126));
#226 = CARTESIAN_POINT('',(-4.940202663108,-8.064545836311));
#227 = ( GEOMETRIC_REPRESENTATION_CONTEXT(2) 
PARAMETRIC_REPRESENTATION_CONTEXT() REPRESENTATION_CONTEXT('2D SPACE',''
  ) );
#228 = PCURVE('',#82,#229);
#229 = DEFINITIONAL_REPRESENTATION('',(#230),#234);
#230 = ( BOUNDED_CURVE() B_SPLINE_CURVE(2,(#231,#232,#233),
.UNSPECIFIED.,.F.,.F.) B_SPLINE_CURVE_WITH_KNOTS((3,3),(-1.819243104694,
0.118015736349),.PIECEWISE_BEZIER_KNOTS.) CURVE() 
GEOMETRIC_REPRESENTATION_ITEM() RATIONAL_B_SPLINE_CURVE((1.,
1.506967190553,1.)) REPRESENTATION_ITEM('') );
#231 = CARTESIAN_POINT('',(-3.527348997903,-12.6328488226));
#232 = CARTESIAN_POINT('',(10.390394561888,-29.04460178214));
#233 = CARTESIAN_POINT('',(9.842079126641,-34.2666887866));
#234 = ( GEOMETRIC_REPRESENTATION_CONTEXT(2) 
PARAMETRIC_REPRESENTATION_CONTEXT() REPRESENTATION_CONTEXT('2D SPACE',''
  ) );
#235 = ORIENTED_EDGE('',*,*,#21,.F.);
#236 = ORIENTED_EDGE('',*,*,#237,.F.);
#237 = EDGE_CURVE('',#238,#22,#240,.T.);
#238 = VERTEX_POINT('',#239);
#239 = CARTESIAN_POINT('',(-9.08002876386,-9.759679121466,
    17.756187347356));
#240 = SURFACE_CURVE('',#241,(#246,#259),.PCURVE_S1.);
#241 = HYPERBOLA('',#242,3.810714750956,6.544825274353);
#242 = AXIS2_PLACEMENT_3D('',#243,#244,#245);
#243 = CARTESIAN_POINT('',(-0.662791415577,-6.902785347681,
    22.602317953493));
#244 = DIRECTION('',(-7.635879778443E-02,-0.795255306761,0.60144686471)
  );
#245 = DIRECTION('',(-5.748532164119E-02,-0.598693384685,-0.798912804335
    ));
#246 = PCURVE('',#45,#247);
#247 = DEFINITIONAL_REPRESENTATION('',(#248),#258);
#248 = B_SPLINE_CURVE_WITH_KNOTS('',8,(#249,#250,#251,#252,#253,#254,
    #255,#256,#257),.UNSPECIFIED.,.F.,.F.,(9,9),(-1.196960592841,
    -1.641080289753E-02),.PIECEWISE_BEZIER_KNOTS.);
#249 = CARTESIAN_POINT('',(-3.890038629399,-3.153847978695));
#250 = CARTESIAN_POINT('',(-3.955224656918,-3.829523014876));
#251 = CARTESIAN_POINT('',(-4.028148638299,-4.368355105335));
#252 = CARTESIAN_POINT('',(-4.109130753697,-4.792765268463));
#253 = CARTESIAN_POINT('',(-4.198069450062,-5.118817790514));
#254 = CARTESIAN_POINT('',(-4.29428037886,-5.357780387853));
#255 = CARTESIAN_POINT('',(-4.395906671954,-5.51695468936));
#256 = CARTESIAN_POINT('',(-4.500356126319,-5.600106092905));
#257 = CARTESIAN_POINT('',(-4.605023813857,-5.607479181747));
#258 = ( GEOMETRIC_REPRESENTATION_CONTEXT(2) 
PARAMETRIC_REPRESENTATION_CONTEXT() REPRESENTATION_CONTEXT('2D SPACE',''
  ) );
#259 = PCURVE('',#108,#260);
#260 = DEFINITIONAL_REPRESENTATION('',(#261),#265);
#261 = ( BOUNDED_CURVE() B_SPLINE_CURVE(2,(#262,#263,#264),
.UNSPECIFIED.,.F.,.F.) B_SPLINE_CURVE_WITH_KNOTS((3,3),(-1.196960592841,
-1.641080289753E-02),.PIECEWISE_BEZIER_KNOTS.) CURVE() 
GEOMETRIC_REPRESENTATION_ITEM() RATIONAL_B_SPLINE_CURVE((1.,
1.179329657402,1.)) REPRESENTATION_ITEM('') );
#262 = CARTESIAN_POINT('',(5.231830662884,0.715));
#263 = CARTESIAN_POINT('',(-1.198844501537,-1.956753090508));
#264 = CARTESIAN_POINT('',(-4.664819383427,-1.789801170892));
#265 = ( GEOMETRIC_REPRESENTATION_CONTEXT(2) 
PARAMETRIC_REPRESENTATION_CONTEXT() REPRESENTATION_CONTEXT('2D SPACE',''
  ) );
#266 = ORIENTED_EDGE('',*,*,#267,.F.);
#267 = EDGE_CURVE('',#268,#238,#270,.T.);
#268 = VERTEX_POINT('',#269);
#269 = CARTESIAN_POINT('',(-21.48616988373,-4.726997326757,13.95));
#270 = SURFACE_CURVE('',#271,(#276,#294),.PCURVE_S1.);
#271 = HYPERBOLA('',#272,19.207727981562,21.489179448385);
#272 = AXIS2_PLACEMENT_3D('',#273,#274,#275);
#273 = CARTESIAN_POINT('',(0.,-26.3909140412,30.334291528101));
#274 = DIRECTION('',(0.,-0.603207987745,-0.797583928825));
#275 = DIRECTION('',(0.,0.797583928825,-0.603207987745));
#276 = PCURVE('',#45,#277);
#277 = DEFINITIONAL_REPRESENTATION('',(#278),#293);
#278 = B_SPLINE_CURVE_WITH_KNOTS('',7,(#279,#280,#281,#282,#283,#284,
    #285,#286,#287,#288,#289,#290,#291,#292),.UNSPECIFIED.,.F.,.F.,(8,6,
    8),(-0.881274553081,-0.421562533985,3.814948511012E-02),
  .UNSPECIFIED.);
#279 = CARTESIAN_POINT('',(-3.358144732167,-1.594734319661E-16));
#280 = CARTESIAN_POINT('',(-3.422293005368,-0.760799242745));
#281 = CARTESIAN_POINT('',(-3.492336151115,-1.439156187712));
#282 = CARTESIAN_POINT('',(-3.5688095221,-2.040430279884));
#283 = CARTESIAN_POINT('',(-3.652206236599,-2.569109860297));
#284 = CARTESIAN_POINT('',(-3.742919330301,-3.028906377582));
#285 = CARTESIAN_POINT('',(-3.840990025976,-3.422818578704));
#286 = CARTESIAN_POINT('',(-4.05082588245,-4.083528741669));
#287 = CARTESIAN_POINT('',(-4.162592114282,-4.35032670335));
#288 = CARTESIAN_POINT('',(-4.280691783111,-4.555894725832));
#289 = CARTESIAN_POINT('',(-4.404100080277,-4.701888433182));
#290 = CARTESIAN_POINT('',(-4.531007436129,-4.789332733809));
#291 = CARTESIAN_POINT('',(-4.659143297414,-4.818639546579));
#292 = CARTESIAN_POINT('',(-4.786394697184,-4.789604340099));
#293 = ( GEOMETRIC_REPRESENTATION_CONTEXT(2) 
PARAMETRIC_REPRESENTATION_CONTEXT() REPRESENTATION_CONTEXT('2D SPACE',''
  ) );
#294 = PCURVE('',#295,#300);
#295 = PLANE('',#296);
#296 = AXIS2_PLACEMENT_3D('',#297,#298,#299);
#297 = CARTESIAN_POINT('',(-33.4466887866,3.762138931426E-15,10.375));
#298 = DIRECTION('',(-0.,-0.603207987745,-0.797583928825));
#299 = DIRECTION('',(0.,-0.797583928825,0.603207987745));
#300 = DEFINITIONAL_REPRESENTATION('',(#301),#305);
#301 = ( BOUNDED_CURVE() B_SPLINE_CURVE(2,(#302,#303,#304),
.UNSPECIFIED.,.F.,.F.) B_SPLINE_CURVE_WITH_KNOTS((3,3),(-0.881274553081,
3.814948511012E-02),.PIECEWISE_BEZIER_KNOTS.) CURVE() 
GEOMETRIC_REPRESENTATION_ITEM() RATIONAL_B_SPLINE_CURVE((1.,
1.107541668468,1.)) REPRESENTATION_ITEM('') );
#302 = CARTESIAN_POINT('',(5.92664565561,-11.96051890287));
#303 = CARTESIAN_POINT('',(14.181921032361,-25.02285380647));
#304 = CARTESIAN_POINT('',(13.866866006474,-34.2666887866));
#305 = ( GEOMETRIC_REPRESENTATION_CONTEXT(2) 
PARAMETRIC_REPRESENTATION_CONTEXT() REPRESENTATION_CONTEXT('2D SPACE',''
  ) );
#306 = ORIENTED_EDGE('',*,*,#307,.T.);
#307 = EDGE_CURVE('',#268,#308,#310,.T.);
#308 = VERTEX_POINT('',#309);
#309 = CARTESIAN_POINT('',(20.813839964,-7.126293984464,13.95));
#310 = SURFACE_CURVE('',#311,(#316,#323),.PCURVE_S1.);
#311 = CIRCLE('',#312,22.);
#312 = AXIS2_PLACEMENT_3D('',#313,#314,#315);
#313 = CARTESIAN_POINT('',(0.,0.,13.95));
#314 = DIRECTION('',(0.,0.,1.));
#315 = DIRECTION('',(1.,0.,0.));
#316 = PCURVE('',#45,#317);
#317 = DEFINITIONAL_REPRESENTATION('',(#318),#322);
#318 = LINE('',#319,#320);
#319 = CARTESIAN_POINT('',(-0.,-0.));
#320 = VECTOR('',#321,1.);
#321 = DIRECTION('',(-1.,-0.));
#322 = ( GEOMETRIC_REPRESENTATION_CONTEXT(2) 
PARAMETRIC_REPRESENTATION_CONTEXT() REPRESENTATION_CONTEXT('2D SPACE',''
  ) );
#323 = PCURVE('',#324,#329);
#324 = PLANE('',#325);
#325 = AXIS2_PLACEMENT_3D('',#326,#327,#328);
#326 = CARTESIAN_POINT('',(0.,0.,13.95));
#327 = DIRECTION('',(0.,0.,1.));
#328 = DIRECTION('',(1.,0.,0.));
#329 = DEFINITIONAL_REPRESENTATION('',(#330),#334);
#330 = CIRCLE('',#331,22.);
#331 = AXIS2_PLACEMENT_2D('',#332,#333);
#332 = CARTESIAN_POINT('',(0.,0.));
#333 = DIRECTION('',(1.,0.));
#334 = ( GEOMETRIC_REPRESENTATION_CONTEXT(2) 
PARAMETRIC_REPRESENTATION_CONTEXT() REPRESENTATION_CONTEXT('2D SPACE',''
  ) );
#335 = ORIENTED_EDGE('',*,*,#336,.T.);
#336 = EDGE_CURVE('',#308,#337,#339,.T.);
#337 = VERTEX_POINT('',#338);
#338 = CARTESIAN_POINT('',(9.723748542814,0.,19.339573810472));
#339 = SURFACE_CURVE('',#340,(#345,#357),.PCURVE_S1.);
#340 = HYPERBOLA('',#341,6.196157407707,6.932123286652);
#341 = AXIS2_PLACEMENT_3D('',#342,#343,#344);
#342 = CARTESIAN_POINT('',(0.,8.513357628216,25.778175615596));
#343 = DIRECTION('',(-0.,0.603207987745,-0.797583928825));
#344 = DIRECTION('',(0.,-0.797583928825,-0.603207987745));
#345 = PCURVE('',#45,#346);
#346 = DEFINITIONAL_REPRESENTATION('',(#347),#356);
#347 = B_SPLINE_CURVE_WITH_KNOTS('',7,(#348,#349,#350,#351,#352,#353,
    #354,#355),.UNSPECIFIED.,.F.,.F.,(8,8),(-1.819243104694,
    -1.139555346131),.PIECEWISE_BEZIER_KNOTS.);
#348 = CARTESIAN_POINT('',(-5.95331275594,1.8817864972E-15));
#349 = CARTESIAN_POINT('',(-5.983908076322,-1.08964960847));
#350 = CARTESIAN_POINT('',(-6.018530534322,-2.049196214559));
#351 = CARTESIAN_POINT('',(-6.057873823766,-2.895419404715));
#352 = CARTESIAN_POINT('',(-6.102801181975,-3.642094172295));
#353 = CARTESIAN_POINT('',(-6.154371813321,-4.300634369812));
#354 = CARTESIAN_POINT('',(-6.213963335279,-4.880514510945));
#355 = CARTESIAN_POINT('',(-6.28318530718,-5.389573810472));
#356 = ( GEOMETRIC_REPRESENTATION_CONTEXT(2) 
PARAMETRIC_REPRESENTATION_CONTEXT() REPRESENTATION_CONTEXT('2D SPACE',''
  ) );
#357 = PCURVE('',#358,#363);
#358 = PLANE('',#359);
#359 = AXIS2_PLACEMENT_3D('',#360,#361,#362);
#360 = CARTESIAN_POINT('',(33.446688786608,-4.312937112379,16.0777250911
    ));
#361 = DIRECTION('',(-0.,0.603207987745,-0.797583928825));
#362 = DIRECTION('',(0.,-0.797583928825,-0.603207987745));
#363 = DEFINITIONAL_REPRESENTATION('',(#364),#368);
#364 = ( BOUNDED_CURVE() B_SPLINE_CURVE(2,(#365,#366,#367),
.UNSPECIFIED.,.F.,.F.) B_SPLINE_CURVE_WITH_KNOTS((3,3),(-1.819243104694,
-1.139555346131),.PIECEWISE_BEZIER_KNOTS.) CURVE() 
GEOMETRIC_REPRESENTATION_ITEM() RATIONAL_B_SPLINE_CURVE((1.,
1.058304859894,1.)) REPRESENTATION_ITEM('') );
#365 = CARTESIAN_POINT('',(3.527348997903,12.632848822608));
#366 = CARTESIAN_POINT('',(-2.562475997476,19.813948471526));
#367 = CARTESIAN_POINT('',(-5.407502529209,23.722940243794));
#368 = ( GEOMETRIC_REPRESENTATION_CONTEXT(2) 
PARAMETRIC_REPRESENTATION_CONTEXT() REPRESENTATION_CONTEXT('2D SPACE',''
  ) );
#369 = ORIENTED_EDGE('',*,*,#370,.T.);
#370 = EDGE_CURVE('',#337,#371,#373,.T.);
#371 = VERTEX_POINT('',#372);
#372 = CARTESIAN_POINT('',(1.5,0.,22.95));
#373 = SEAM_CURVE('',#374,(#377,#383),.PCURVE_S1.);
#374 = B_SPLINE_CURVE_WITH_KNOTS('',1,(#375,#376),.UNSPECIFIED.,.F.,.F.,
  (2,2),(0.,1.),.PIECEWISE_BEZIER_KNOTS.);
#375 = CARTESIAN_POINT('',(22.,0.,13.95));
#376 = CARTESIAN_POINT('',(1.5,0.,22.95));
#377 = PCURVE('',#45,#378);
#378 = DEFINITIONAL_REPRESENTATION('',(#379),#382);
#379 = B_SPLINE_CURVE_WITH_KNOTS('',1,(#380,#381),.UNSPECIFIED.,.F.,.F.,
  (2,2),(0.,1.),.PIECEWISE_BEZIER_KNOTS.);
#380 = CARTESIAN_POINT('',(0.,0.));
#381 = CARTESIAN_POINT('',(0.,-9.));
#382 = ( GEOMETRIC_REPRESENTATION_CONTEXT(2) 
PARAMETRIC_REPRESENTATION_CONTEXT() REPRESENTATION_CONTEXT('2D SPACE',''
  ) );
#383 = PCURVE('',#45,#384);
#384 = DEFINITIONAL_REPRESENTATION('',(#385),#388);
#385 = B_SPLINE_CURVE_WITH_KNOTS('',1,(#386,#387),.UNSPECIFIED.,.F.,.F.,
  (2,2),(0.,1.),.PIECEWISE_BEZIER_KNOTS.);
#386 = CARTESIAN_POINT('',(-6.28318530718,0.));
#387 = CARTESIAN_POINT('',(-6.28318530718,-9.));
#388 = ( GEOMETRIC_REPRESENTATION_CONTEXT(2) 
PARAMETRIC_REPRESENTATION_CONTEXT() REPRESENTATION_CONTEXT('2D SPACE',''
  ) );
#389 = ORIENTED_EDGE('',*,*,#390,.F.);
#390 = EDGE_CURVE('',#371,#371,#391,.T.);
#391 = SURFACE_CURVE('',#392,(#397,#404),.PCURVE_S1.);
#392 = CIRCLE('',#393,1.5);
#393 = AXIS2_PLACEMENT_3D('',#394,#395,#396);
#394 = CARTESIAN_POINT('',(0.,0.,22.95));
#395 = DIRECTION('',(0.,0.,1.));
#396 = DIRECTION('',(1.,0.,0.));
#397 = PCURVE('',#45,#398);
#398 = DEFINITIONAL_REPRESENTATION('',(#399),#403);
#399 = LINE('',#400,#401);
#400 = CARTESIAN_POINT('',(-0.,-9.));
#401 = VECTOR('',#402,1.);
#402 = DIRECTION('',(-1.,-0.));
#403 = ( GEOMETRIC_REPRESENTATION_CONTEXT(2) 
PARAMETRIC_REPRESENTATION_CONTEXT() REPRESENTATION_CONTEXT('2D SPACE',''
  ) );
#404 = PCURVE('',#405,#410);
#405 = PLANE('',#406);
#406 = AXIS2_PLACEMENT_3D('',#407,#408,#409);
#407 = CARTESIAN_POINT('',(0.,0.,22.95));
#408 = DIRECTION('',(0.,0.,1.));
#409 = DIRECTION('',(1.,0.,0.));
#410 = DEFINITIONAL_REPRESENTATION('',(#411),#415);
#411 = CIRCLE('',#412,1.5);
#412 = AXIS2_PLACEMENT_2D('',#413,#414);
#413 = CARTESIAN_POINT('',(0.,0.));
#414 = DIRECTION('',(1.,0.));
#415 = ( GEOMETRIC_REPRESENTATION_CONTEXT(2) 
PARAMETRIC_REPRESENTATION_CONTEXT() REPRESENTATION_CONTEXT('2D SPACE',''
  ) );
#416 = ORIENTED_EDGE('',*,*,#370,.F.);
#417 = ORIENTED_EDGE('',*,*,#418,.T.);
#418 = EDGE_CURVE('',#337,#419,#421,.T.);
#419 = VERTEX_POINT('',#420);
#420 = CARTESIAN_POINT('',(5.64,2.142353211715,20.959822818977));
#421 = SURFACE_CURVE('',#422,(#427,#447),.PCURVE_S1.);
#422 = HYPERBOLA('',#423,6.196157407707,6.932123286652);
#423 = AXIS2_PLACEMENT_3D('',#424,#425,#426);
#424 = CARTESIAN_POINT('',(0.,8.513357628216,25.778175615596));
#425 = DIRECTION('',(-0.,0.603207987745,-0.797583928825));
#426 = DIRECTION('',(0.,-0.797583928825,-0.603207987745));
#427 = PCURVE('',#45,#428);
#428 = DEFINITIONAL_REPRESENTATION('',(#429),#446);
#429 = B_SPLINE_CURVE_WITH_KNOTS('',8,(#430,#431,#432,#433,#434,#435,
    #436,#437,#438,#439,#440,#441,#442,#443,#444,#445),.UNSPECIFIED.,.F.
  ,.F.,(9,7,9),(-1.139555346131,-0.510769804891,0.118015736349),
  .UNSPECIFIED.);
#430 = CARTESIAN_POINT('',(-1.826823093562E-16,-5.389573810472));
#431 = CARTESIAN_POINT('',(-5.603316037981E-02,-5.801642415137));
#432 = CARTESIAN_POINT('',(-0.118247125323,-6.168253200398));
#433 = CARTESIAN_POINT('',(-0.187440938178,-6.493285191228));
#434 = CARTESIAN_POINT('',(-0.264482895352,-6.780018419806));
#435 = CARTESIAN_POINT('',(-0.350308526123,-7.031210314014));
#436 = CARTESIAN_POINT('',(-0.44580605859,-7.249153097142));
#437 = CARTESIAN_POINT('',(-0.551546900443,-7.435715532862));
#438 = CARTESIAN_POINT('',(-0.783090426049,-7.749029166227));
#439 = CARTESIAN_POINT('',(-0.908893561671,-7.875780360402));
#440 = CARTESIAN_POINT('',(-1.044526515201,-7.97410063674));
#441 = CARTESIAN_POINT('',(-1.18900565704,-8.045070573267));
#442 = CARTESIAN_POINT('',(-1.340315200106,-8.089405770792));
#443 = CARTESIAN_POINT('',(-1.494739552076,-8.10747302954));
#444 = CARTESIAN_POINT('',(-1.648544222774,-8.099295424326));
#445 = CARTESIAN_POINT('',(-1.798610009519,-8.064545836311));
#446 = ( GEOMETRIC_REPRESENTATION_CONTEXT(2) 
PARAMETRIC_REPRESENTATION_CONTEXT() REPRESENTATION_CONTEXT('2D SPACE',''
  ) );
#447 = PCURVE('',#358,#448);
#448 = DEFINITIONAL_REPRESENTATION('',(#449),#453);
#449 = ( BOUNDED_CURVE() B_SPLINE_CURVE(2,(#450,#451,#452),
.UNSPECIFIED.,.F.,.F.) B_SPLINE_CURVE_WITH_KNOTS((3,3),(-1.139555346131,
0.118015736349),.PIECEWISE_BEZIER_KNOTS.) CURVE() 
GEOMETRIC_REPRESENTATION_ITEM() RATIONAL_B_SPLINE_CURVE((1.,
1.204285343724,1.)) REPRESENTATION_ITEM('') );
#450 = CARTESIAN_POINT('',(-5.407502529209,23.722940243794));
#451 = CARTESIAN_POINT('',(-10.25048607933,30.377072512687));
#452 = CARTESIAN_POINT('',(-9.842079126641,34.266688786608));
#453 = ( GEOMETRIC_REPRESENTATION_CONTEXT(2) 
PARAMETRIC_REPRESENTATION_CONTEXT() REPRESENTATION_CONTEXT('2D SPACE',''
  ) );
#454 = ORIENTED_EDGE('',*,*,#455,.F.);
#455 = EDGE_CURVE('',#456,#419,#458,.T.);
#456 = VERTEX_POINT('',#457);
#457 = CARTESIAN_POINT('',(5.64,9.265442145686,18.846426696853));
#458 = SURFACE_CURVE('',#459,(#464,#480),.PCURVE_S1.);
#459 = HYPERBOLA('',#460,2.476097560976,5.64);
#460 = AXIS2_PLACEMENT_3D('',#461,#462,#463);
#461 = CARTESIAN_POINT('',(5.64,0.,23.608536585366));
#462 = DIRECTION('',(-1.,0.,0.));
#463 = DIRECTION('',(-0.,0.,-1.));
#464 = PCURVE('',#45,#465);
#465 = DEFINITIONAL_REPRESENTATION('',(#466),#479);
#466 = B_SPLINE_CURVE_WITH_KNOTS('',6,(#467,#468,#469,#470,#471,#472,
    #473,#474,#475,#476,#477,#478),.UNSPECIFIED.,.F.,.F.,(7,5,7),(
    -1.447924249243,-0.822715807549,-0.197507365855),.UNSPECIFIED.);
#467 = CARTESIAN_POINT('',(-1.109063040676,-4.100524288834));
#468 = CARTESIAN_POINT('',(-1.062641256083,-4.619029082137));
#469 = CARTESIAN_POINT('',(-1.011022500352,-5.065115798118));
#470 = CARTESIAN_POINT('',(-0.953660706394,-5.448917095507));
#471 = CARTESIAN_POINT('',(-0.890038075398,-5.778212088406));
#472 = CARTESIAN_POINT('',(-0.819795190847,-6.059064312461));
#473 = CARTESIAN_POINT('',(-0.666327152165,-6.533146748569));
#474 = CARTESIAN_POINT('',(-0.583100649116,-6.726377164751));
#475 = CARTESIAN_POINT('',(-0.493516523709,-6.880429127476));
#476 = CARTESIAN_POINT('',(-0.398147775245,-6.998510054965));
#477 = CARTESIAN_POINT('',(-0.298437169934,-7.082695182035));
#478 = CARTESIAN_POINT('',(-0.196235649196,-7.133986581274));
#479 = ( GEOMETRIC_REPRESENTATION_CONTEXT(2) 
PARAMETRIC_REPRESENTATION_CONTEXT() REPRESENTATION_CONTEXT('2D SPACE',''
  ) );
#480 = PCURVE('',#481,#486);
#481 = PLANE('',#482);
#482 = AXIS2_PLACEMENT_3D('',#483,#484,#485);
#483 = CARTESIAN_POINT('',(5.64,-9.969799110315,2.834900153184));
#484 = DIRECTION('',(-1.,0.,0.));
#485 = DIRECTION('',(0.,0.797583928825,0.603207987745));
#486 = DEFINITIONAL_REPRESENTATION('',(#487),#491);
#487 = ( BOUNDED_CURVE() B_SPLINE_CURVE(2,(#488,#489,#490),
.UNSPECIFIED.,.F.,.F.) B_SPLINE_CURVE_WITH_KNOTS((3,3),(-1.447924249243,
-0.197507365855),.PIECEWISE_BEZIER_KNOTS.) CURVE() 
GEOMETRIC_REPRESENTATION_ITEM() RATIONAL_B_SPLINE_CURVE((1.,
1.20189264386,1.)) REPRESENTATION_ITEM('') );
#488 = CARTESIAN_POINT('',(26.169906508973,0.715));
#489 = CARTESIAN_POINT('',(22.233558525363,-5.722987505944));
#490 = CARTESIAN_POINT('',(19.853995754672,-7.865));
#491 = ( GEOMETRIC_REPRESENTATION_CONTEXT(2) 
PARAMETRIC_REPRESENTATION_CONTEXT() REPRESENTATION_CONTEXT('2D SPACE',''
  ) );
#492 = ORIENTED_EDGE('',*,*,#493,.F.);
#493 = EDGE_CURVE('',#126,#456,#494,.T.);
#494 = SURFACE_CURVE('',#495,(#500,#513),.PCURVE_S1.);
#495 = HYPERBOLA('',#496,3.810714750956,6.544825274353);
#496 = AXIS2_PLACEMENT_3D('',#497,#498,#499);
#497 = CARTESIAN_POINT('',(0.662791415577,6.902785347681,22.602317953493
    ));
#498 = DIRECTION('',(7.635879778443E-02,0.795255306761,0.60144686471));
#499 = DIRECTION('',(5.748532164119E-02,0.598693384685,-0.798912804335)
  );
#500 = PCURVE('',#45,#501);
#501 = DEFINITIONAL_REPRESENTATION('',(#502),#512);
#502 = B_SPLINE_CURVE_WITH_KNOTS('',8,(#503,#504,#505,#506,#507,#508,
    #509,#510,#511),.UNSPECIFIED.,.F.,.F.,(9,9),(-1.196960592841,
    -1.641080289753E-02),.PIECEWISE_BEZIER_KNOTS.);
#503 = CARTESIAN_POINT('',(-0.748445975809,-3.153847978695));
#504 = CARTESIAN_POINT('',(-0.813632003329,-3.829523014876));
#505 = CARTESIAN_POINT('',(-0.886555984712,-4.368355105332));
#506 = CARTESIAN_POINT('',(-0.967538100102,-4.792765268463));
#507 = CARTESIAN_POINT('',(-1.056476796477,-5.118817790502));
#508 = CARTESIAN_POINT('',(-1.152687725271,-5.357780387859));
#509 = CARTESIAN_POINT('',(-1.254314018365,-5.516954689357));
#510 = CARTESIAN_POINT('',(-1.358763472729,-5.600106092905));
#511 = CARTESIAN_POINT('',(-1.463431160268,-5.607479181747));
#512 = ( GEOMETRIC_REPRESENTATION_CONTEXT(2) 
PARAMETRIC_REPRESENTATION_CONTEXT() REPRESENTATION_CONTEXT('2D SPACE',''
  ) );
#513 = PCURVE('',#514,#519);
#514 = PLANE('',#515);
#515 = AXIS2_PLACEMENT_3D('',#516,#517,#518);
#516 = CARTESIAN_POINT('',(5.64,9.969799110315,17.915099846816));
#517 = DIRECTION('',(7.635879778443E-02,0.795255306761,0.60144686471));
#518 = DIRECTION('',(0.997080404983,-6.090254993727E-02,
    -4.606023675819E-02));
#519 = DEFINITIONAL_REPRESENTATION('',(#520),#524);
#520 = ( BOUNDED_CURVE() B_SPLINE_CURVE(2,(#521,#522,#523),
.UNSPECIFIED.,.F.,.F.) B_SPLINE_CURVE_WITH_KNOTS((3,3),(-1.196960592841,
-1.641080289753E-02),.PIECEWISE_BEZIER_KNOTS.) CURVE() 
GEOMETRIC_REPRESENTATION_ITEM() RATIONAL_B_SPLINE_CURVE((1.,
1.179329657402,1.)) REPRESENTATION_ITEM('') );
#521 = CARTESIAN_POINT('',(5.231830662884,0.715));
#522 = CARTESIAN_POINT('',(-1.198844501537,-1.956753090508));
#523 = CARTESIAN_POINT('',(-4.664819383427,-1.789801170892));
#524 = ( GEOMETRIC_REPRESENTATION_CONTEXT(2) 
PARAMETRIC_REPRESENTATION_CONTEXT() REPRESENTATION_CONTEXT('2D SPACE',''
  ) );
#525 = ADVANCED_FACE('',(#526),#108,.T.);
#526 = FACE_BOUND('',#527,.T.);
#527 = EDGE_LOOP('',(#528,#529,#530,#553,#581));
#528 = ORIENTED_EDGE('',*,*,#237,.T.);
#529 = ORIENTED_EDGE('',*,*,#94,.T.);
#530 = ORIENTED_EDGE('',*,*,#531,.T.);
#531 = EDGE_CURVE('',#67,#532,#534,.T.);
#532 = VERTEX_POINT('',#533);
#533 = CARTESIAN_POINT('',(-52.152,-2.815868043461,21.469198085568));
#534 = SURFACE_CURVE('',#535,(#539,#546),.PCURVE_S1.);
#535 = LINE('',#536,#537);
#536 = CARTESIAN_POINT('',(-5.64,-5.656861997937,23.617824937916));
#537 = VECTOR('',#538,1.);
#538 = DIRECTION('',(-0.997080404983,6.090254993727E-02,
    -4.606023675819E-02));
#539 = PCURVE('',#108,#540);
#540 = DEFINITIONAL_REPRESENTATION('',(#541),#545);
#541 = LINE('',#542,#543);
#542 = CARTESIAN_POINT('',(-1.490895162522E-16,-7.15));
#543 = VECTOR('',#544,1.);
#544 = DIRECTION('',(1.,-1.314816507632E-17));
#545 = ( GEOMETRIC_REPRESENTATION_CONTEXT(2) 
PARAMETRIC_REPRESENTATION_CONTEXT() REPRESENTATION_CONTEXT('2D SPACE',''
  ) );
#546 = PCURVE('',#82,#547);
#547 = DEFINITIONAL_REPRESENTATION('',(#548),#552);
#548 = LINE('',#549,#550);
#549 = CARTESIAN_POINT('',(12.5,-27.8066887866));
#550 = VECTOR('',#551,1.);
#551 = DIRECTION('',(-7.635879778443E-02,0.997080404983));
#552 = ( GEOMETRIC_REPRESENTATION_CONTEXT(2) 
PARAMETRIC_REPRESENTATION_CONTEXT() REPRESENTATION_CONTEXT('2D SPACE',''
  ) );
#553 = ORIENTED_EDGE('',*,*,#554,.F.);
#554 = EDGE_CURVE('',#555,#532,#557,.T.);
#555 = VERTEX_POINT('',#556);
#556 = CARTESIAN_POINT('',(-52.152,-7.12880515584,15.766472994467));
#557 = SURFACE_CURVE('',#558,(#562,#569),.PCURVE_S1.);
#558 = LINE('',#559,#560);
#559 = CARTESIAN_POINT('',(-52.152,-7.12880515584,15.766472994467));
#560 = VECTOR('',#561,1.);
#561 = DIRECTION('',(7.387167314124E-17,0.603207987745,0.797583928825));
#562 = PCURVE('',#108,#563);
#563 = DEFINITIONAL_REPRESENTATION('',(#564),#568);
#564 = LINE('',#565,#566);
#565 = CARTESIAN_POINT('',(46.648193834274,-7.672705610087E-16));
#566 = VECTOR('',#567,1.);
#567 = DIRECTION('',(2.33167829896E-17,-1.));
#568 = ( GEOMETRIC_REPRESENTATION_CONTEXT(2) 
PARAMETRIC_REPRESENTATION_CONTEXT() REPRESENTATION_CONTEXT('2D SPACE',''
  ) );
#569 = PCURVE('',#570,#575);
#570 = PLANE('',#571);
#571 = AXIS2_PLACEMENT_3D('',#572,#573,#574);
#572 = CARTESIAN_POINT('',(-52.152,-7.12880515584,15.766472994467));
#573 = DIRECTION('',(-0.443005606153,-0.715049019759,0.540787326274));
#574 = DIRECTION('',(-0.896518841362,0.353334151847,-0.267224520247));
#575 = DEFINITIONAL_REPRESENTATION('',(#576),#580);
#576 = LINE('',#577,#578);
#577 = CARTESIAN_POINT('',(0.,-0.));
#578 = VECTOR('',#579,1.);
#579 = DIRECTION('',(-1.633514967426E-17,-1.));
#580 = ( GEOMETRIC_REPRESENTATION_CONTEXT(2) 
PARAMETRIC_REPRESENTATION_CONTEXT() REPRESENTATION_CONTEXT('2D SPACE',''
  ) );
#581 = ORIENTED_EDGE('',*,*,#582,.F.);
#582 = EDGE_CURVE('',#238,#555,#583,.T.);
#583 = SURFACE_CURVE('',#584,(#588,#595),.PCURVE_S1.);
#584 = LINE('',#585,#586);
#585 = CARTESIAN_POINT('',(-5.64,-9.969799110315,17.915099846816));
#586 = VECTOR('',#587,1.);
#587 = DIRECTION('',(-0.997080404983,6.090254993727E-02,
    -4.606023675819E-02));
#588 = PCURVE('',#108,#589);
#589 = DEFINITIONAL_REPRESENTATION('',(#590),#594);
#590 = LINE('',#591,#592);
#591 = CARTESIAN_POINT('',(0.,-0.));
#592 = VECTOR('',#593,1.);
#593 = DIRECTION('',(1.,-1.314816507632E-17));
#594 = ( GEOMETRIC_REPRESENTATION_CONTEXT(2) 
PARAMETRIC_REPRESENTATION_CONTEXT() REPRESENTATION_CONTEXT('2D SPACE',''
  ) );
#595 = PCURVE('',#295,#596);
#596 = DEFINITIONAL_REPRESENTATION('',(#597),#601);
#597 = LINE('',#598,#599);
#598 = CARTESIAN_POINT('',(12.5,-27.8066887866));
#599 = VECTOR('',#600,1.);
#600 = DIRECTION('',(-7.635879778443E-02,0.997080404983));
#601 = ( GEOMETRIC_REPRESENTATION_CONTEXT(2) 
PARAMETRIC_REPRESENTATION_CONTEXT() REPRESENTATION_CONTEXT('2D SPACE',''
  ) );
#602 = ADVANCED_FACE('',(#603),#82,.F.);
#603 = FACE_BOUND('',#604,.F.);
#604 = EDGE_LOOP('',(#605,#606,#607,#608,#631,#659,#687,#720));
#605 = ORIENTED_EDGE('',*,*,#194,.T.);
#606 = ORIENTED_EDGE('',*,*,#66,.T.);
#607 = ORIENTED_EDGE('',*,*,#531,.T.);
#608 = ORIENTED_EDGE('',*,*,#609,.T.);
#609 = EDGE_CURVE('',#532,#610,#612,.T.);
#610 = VERTEX_POINT('',#611);
#611 = CARTESIAN_POINT('',(-70.24,4.312937112379,16.0777250911));
#612 = SURFACE_CURVE('',#613,(#617,#624),.PCURVE_S1.);
#613 = LINE('',#614,#615);
#614 = CARTESIAN_POINT('',(-52.152,-2.815868043461,21.469198085568));
#615 = VECTOR('',#616,1.);
#616 = DIRECTION('',(-0.896518841362,0.353334151847,-0.267224520247));
#617 = PCURVE('',#82,#618);
#618 = DEFINITIONAL_REPRESENTATION('',(#619),#623);
#619 = LINE('',#620,#621);
#620 = CARTESIAN_POINT('',(8.938,18.705311213392));
#621 = VECTOR('',#622,1.);
#622 = DIRECTION('',(-0.443005606153,0.896518841362));
#623 = ( GEOMETRIC_REPRESENTATION_CONTEXT(2) 
PARAMETRIC_REPRESENTATION_CONTEXT() REPRESENTATION_CONTEXT('2D SPACE',''
  ) );
#624 = PCURVE('',#570,#625);
#625 = DEFINITIONAL_REPRESENTATION('',(#626),#630);
#626 = LINE('',#627,#628);
#627 = CARTESIAN_POINT('',(2.57267524161E-16,-7.15));
#628 = VECTOR('',#629,1.);
#629 = DIRECTION('',(1.,-4.108830745367E-17));
#630 = ( GEOMETRIC_REPRESENTATION_CONTEXT(2) 
PARAMETRIC_REPRESENTATION_CONTEXT() REPRESENTATION_CONTEXT('2D SPACE',''
  ) );
#631 = ORIENTED_EDGE('',*,*,#632,.T.);
#632 = EDGE_CURVE('',#610,#633,#635,.T.);
#633 = VERTEX_POINT('',#634);
#634 = CARTESIAN_POINT('',(-52.152,11.441742268219,10.686252096633));
#635 = SURFACE_CURVE('',#636,(#640,#647),.PCURVE_S1.);
#636 = LINE('',#637,#638);
#637 = CARTESIAN_POINT('',(-70.24,4.312937112379,16.0777250911));
#638 = VECTOR('',#639,1.);
#639 = DIRECTION('',(0.896518841362,0.353334151847,-0.267224520247));
#640 = PCURVE('',#82,#641);
#641 = DEFINITIONAL_REPRESENTATION('',(#642),#646);
#642 = LINE('',#643,#644);
#643 = CARTESIAN_POINT('',(-2.845464599372E-15,36.793311213392));
#644 = VECTOR('',#645,1.);
#645 = DIRECTION('',(-0.443005606153,-0.896518841362));
#646 = ( GEOMETRIC_REPRESENTATION_CONTEXT(2) 
PARAMETRIC_REPRESENTATION_CONTEXT() REPRESENTATION_CONTEXT('2D SPACE',''
  ) );
#647 = PCURVE('',#648,#653);
#648 = PLANE('',#649);
#649 = AXIS2_PLACEMENT_3D('',#650,#651,#652);
#650 = CARTESIAN_POINT('',(-70.24,8.601919117211E-15,10.375));
#651 = DIRECTION('',(-0.443005606153,0.715049019759,-0.540787326274));
#652 = DIRECTION('',(0.896518841362,0.353334151847,-0.267224520247));
#653 = DEFINITIONAL_REPRESENTATION('',(#654),#658);
#654 = LINE('',#655,#656);
#655 = CARTESIAN_POINT('',(-4.088662906141E-16,-7.15));
#656 = VECTOR('',#657,1.);
#657 = DIRECTION('',(1.,1.442284377759E-17));
#658 = ( GEOMETRIC_REPRESENTATION_CONTEXT(2) 
PARAMETRIC_REPRESENTATION_CONTEXT() REPRESENTATION_CONTEXT('2D SPACE',''
  ) );
#659 = ORIENTED_EDGE('',*,*,#660,.T.);
#660 = EDGE_CURVE('',#633,#661,#663,.T.);
#661 = VERTEX_POINT('',#662);
#662 = CARTESIAN_POINT('',(-12.71204907477,13.850769232085,8.86431931341
    ));
#663 = SURFACE_CURVE('',#664,(#668,#675),.PCURVE_S1.);
#664 = LINE('',#665,#666);
#665 = CARTESIAN_POINT('',(-52.152,11.441742268219,10.686252096633));
#666 = VECTOR('',#667,1.);
#667 = DIRECTION('',(0.997080404983,6.090254993727E-02,
    -4.606023675819E-02));
#668 = PCURVE('',#82,#669);
#669 = DEFINITIONAL_REPRESENTATION('',(#670),#674);
#670 = LINE('',#671,#672);
#671 = CARTESIAN_POINT('',(-8.938,18.705311213392));
#672 = VECTOR('',#673,1.);
#673 = DIRECTION('',(-7.635879778443E-02,-0.997080404983));
#674 = ( GEOMETRIC_REPRESENTATION_CONTEXT(2) 
PARAMETRIC_REPRESENTATION_CONTEXT() REPRESENTATION_CONTEXT('2D SPACE',''
  ) );
#675 = PCURVE('',#676,#681);
#676 = PLANE('',#677);
#677 = AXIS2_PLACEMENT_3D('',#678,#679,#680);
#678 = CARTESIAN_POINT('',(-52.152,7.12880515584,4.983527005533));
#679 = DIRECTION('',(-7.635879778443E-02,0.795255306761,-0.60144686471)
  );
#680 = DIRECTION('',(0.997080404983,6.090254993727E-02,
    -4.606023675819E-02));
#681 = DEFINITIONAL_REPRESENTATION('',(#682),#686);
#682 = LINE('',#683,#684);
#683 = CARTESIAN_POINT('',(-7.854589195904E-16,-7.15));
#684 = VECTOR('',#685,1.);
#685 = DIRECTION('',(1.,-3.567832503219E-18));
#686 = ( GEOMETRIC_REPRESENTATION_CONTEXT(2) 
PARAMETRIC_REPRESENTATION_CONTEXT() REPRESENTATION_CONTEXT('2D SPACE',''
  ) );
#687 = ORIENTED_EDGE('',*,*,#688,.F.);
#688 = EDGE_CURVE('',#689,#661,#691,.T.);
#689 = VERTEX_POINT('',#690);
#690 = CARTESIAN_POINT('',(-17.39700934203,7.126293984464,13.95));
#691 = SURFACE_CURVE('',#692,(#697,#704),.PCURVE_S1.);
#692 = ELLIPSE('',#693,23.57118708208,18.8);
#693 = AXIS2_PLACEMENT_3D('',#694,#695,#696);
#694 = CARTESIAN_POINT('',(0.,0.,19.339573810472));
#695 = DIRECTION('',(-0.,-0.603207987745,-0.797583928825));
#696 = DIRECTION('',(0.,-0.797583928825,0.603207987745));
#697 = PCURVE('',#82,#698);
#698 = DEFINITIONAL_REPRESENTATION('',(#699),#703);
#699 = ELLIPSE('',#700,23.57118708208,18.8);
#700 = AXIS2_PLACEMENT_2D('',#701,#702);
#701 = CARTESIAN_POINT('',(5.407502529209,-33.4466887866));
#702 = DIRECTION('',(1.,0.));
#703 = ( GEOMETRIC_REPRESENTATION_CONTEXT(2) 
PARAMETRIC_REPRESENTATION_CONTEXT() REPRESENTATION_CONTEXT('2D SPACE',''
  ) );
#704 = PCURVE('',#705,#710);
#705 = CYLINDRICAL_SURFACE('',#706,18.8);
#706 = AXIS2_PLACEMENT_3D('',#707,#708,#709);
#707 = CARTESIAN_POINT('',(0.,0.,-13.95));
#708 = DIRECTION('',(0.,0.,1.));
#709 = DIRECTION('',(1.,0.,0.));
#710 = DEFINITIONAL_REPRESENTATION('',(#711),#719);
#711 = B_SPLINE_CURVE_WITH_KNOTS('',6,(#712,#713,#714,#715,#716,#717,
    #718),.UNSPECIFIED.,.F.,.F.,(7,7),(1.959574603219,2.617506684977),
  .PIECEWISE_BEZIER_KNOTS.);
#712 = CARTESIAN_POINT('',(2.752814377166,27.9000006));
#713 = CARTESIAN_POINT('',(2.643159030206,26.457237229885));
#714 = CARTESIAN_POINT('',(2.533503683246,25.092241513579));
#715 = CARTESIAN_POINT('',(2.423848336287,23.836235277653));
#716 = CARTESIAN_POINT('',(2.314192989327,22.717658261304));
#717 = CARTESIAN_POINT('',(2.204537642367,21.759820869893));
#718 = CARTESIAN_POINT('',(2.094882295407,20.979605274921));
#719 = ( GEOMETRIC_REPRESENTATION_CONTEXT(2) 
PARAMETRIC_REPRESENTATION_CONTEXT() REPRESENTATION_CONTEXT('2D SPACE',''
  ) );
#720 = ORIENTED_EDGE('',*,*,#721,.F.);
#721 = EDGE_CURVE('',#166,#689,#722,.T.);
#722 = SURFACE_CURVE('',#723,(#727,#733),.PCURVE_S1.);
#723 = LINE('',#724,#725);
#724 = CARTESIAN_POINT('',(-16.7233443933,7.126293984464,13.95));
#725 = VECTOR('',#726,1.);
#726 = DIRECTION('',(1.,0.,0.));
#727 = PCURVE('',#82,#728);
#728 = DEFINITIONAL_REPRESENTATION('',(#729),#732);
#729 = B_SPLINE_CURVE_WITH_KNOTS('',1,(#730,#731),.UNSPECIFIED.,.F.,.F.,
  (2,2),(-5.276655606696,11.083344393304),.PIECEWISE_BEZIER_KNOTS.);
#730 = CARTESIAN_POINT('',(-3.527348997903,-11.4466887866));
#731 = CARTESIAN_POINT('',(-3.527348997903,-27.8066887866));
#732 = ( GEOMETRIC_REPRESENTATION_CONTEXT(2) 
PARAMETRIC_REPRESENTATION_CONTEXT() REPRESENTATION_CONTEXT('2D SPACE',''
  ) );
#733 = PCURVE('',#182,#734);
#734 = DEFINITIONAL_REPRESENTATION('',(#735),#738);
#735 = B_SPLINE_CURVE_WITH_KNOTS('',1,(#736,#737),.UNSPECIFIED.,.F.,.F.,
  (2,2),(-5.276655606696,11.083344393304),.PIECEWISE_BEZIER_KNOTS.);
#736 = CARTESIAN_POINT('',(-22.,7.126293984464));
#737 = CARTESIAN_POINT('',(-5.64,7.126293984464));
#738 = ( GEOMETRIC_REPRESENTATION_CONTEXT(2) 
PARAMETRIC_REPRESENTATION_CONTEXT() REPRESENTATION_CONTEXT('2D SPACE',''
  ) );
#739 = ADVANCED_FACE('',(#740),#153,.T.);
#740 = FACE_BOUND('',#741,.T.);
#741 = EDGE_LOOP('',(#742,#772,#800,#827,#846,#847,#870,#898));
#742 = ORIENTED_EDGE('',*,*,#743,.T.);
#743 = EDGE_CURVE('',#744,#746,#748,.T.);
#744 = VERTEX_POINT('',#745);
#745 = CARTESIAN_POINT('',(52.152,-7.12880515584,4.983527005533));
#746 = VERTEX_POINT('',#747);
#747 = CARTESIAN_POINT('',(16.328969213402,-9.316907449779,3.32867823789
    ));
#748 = SURFACE_CURVE('',#749,(#753,#760),.PCURVE_S1.);
#749 = LINE('',#750,#751);
#750 = CARTESIAN_POINT('',(52.152,-7.12880515584,4.983527005533));
#751 = VECTOR('',#752,1.);
#752 = DIRECTION('',(-0.997080404983,-6.090254993727E-02,
    -4.606023675819E-02));
#753 = PCURVE('',#153,#754);
#754 = DEFINITIONAL_REPRESENTATION('',(#755),#759);
#755 = LINE('',#756,#757);
#756 = CARTESIAN_POINT('',(8.938,-18.70531121339));
#757 = VECTOR('',#758,1.);
#758 = DIRECTION('',(7.635879778443E-02,0.997080404983));
#759 = ( GEOMETRIC_REPRESENTATION_CONTEXT(2) 
PARAMETRIC_REPRESENTATION_CONTEXT() REPRESENTATION_CONTEXT('2D SPACE',''
  ) );
#760 = PCURVE('',#761,#766);
#761 = PLANE('',#762);
#762 = AXIS2_PLACEMENT_3D('',#763,#764,#765);
#763 = CARTESIAN_POINT('',(52.152,-7.12880515584,4.983527005533));
#764 = DIRECTION('',(7.635879778443E-02,-0.795255306761,-0.60144686471)
  );
#765 = DIRECTION('',(-0.997080404983,-6.090254993727E-02,
    -4.606023675819E-02));
#766 = DEFINITIONAL_REPRESENTATION('',(#767),#771);
#767 = LINE('',#768,#769);
#768 = CARTESIAN_POINT('',(-0.,0.));
#769 = VECTOR('',#770,1.);
#770 = DIRECTION('',(1.,-9.102182764799E-18));
#771 = ( GEOMETRIC_REPRESENTATION_CONTEXT(2) 
PARAMETRIC_REPRESENTATION_CONTEXT() REPRESENTATION_CONTEXT('2D SPACE',''
  ) );
#772 = ORIENTED_EDGE('',*,*,#773,.F.);
#773 = EDGE_CURVE('',#774,#746,#776,.T.);
#774 = VERTEX_POINT('',#775);
#775 = CARTESIAN_POINT('',(18.8,-4.604671964794E-15,10.375));
#776 = SURFACE_CURVE('',#777,(#782,#789),.PCURVE_S1.);
#777 = ELLIPSE('',#778,23.57118708208,18.8);
#778 = AXIS2_PLACEMENT_3D('',#779,#780,#781);
#779 = CARTESIAN_POINT('',(0.,0.,10.375));
#780 = DIRECTION('',(-0.,0.603207987745,-0.797583928825));
#781 = DIRECTION('',(0.,0.797583928825,0.603207987745));
#782 = PCURVE('',#153,#783);
#783 = DEFINITIONAL_REPRESENTATION('',(#784),#788);
#784 = ELLIPSE('',#785,23.57118708208,18.8);
#785 = AXIS2_PLACEMENT_2D('',#786,#787);
#786 = CARTESIAN_POINT('',(7.857391536871E-16,33.446688786608));
#787 = DIRECTION('',(-1.,0.));
#788 = ( GEOMETRIC_REPRESENTATION_CONTEXT(2) 
PARAMETRIC_REPRESENTATION_CONTEXT() REPRESENTATION_CONTEXT('2D SPACE',''
  ) );
#789 = PCURVE('',#705,#790);
#790 = DEFINITIONAL_REPRESENTATION('',(#791),#799);
#791 = B_SPLINE_CURVE_WITH_KNOTS('',6,(#792,#793,#794,#795,#796,#797,
    #798),.UNSPECIFIED.,.F.,.F.,(7,7),(1.570796326795,2.260579779392),
  .PIECEWISE_BEZIER_KNOTS.);
#792 = CARTESIAN_POINT('',(6.28318530718,24.325));
#793 = CARTESIAN_POINT('',(6.168221398413,22.690405399228));
#794 = CARTESIAN_POINT('',(6.053257489647,21.055811948493));
#795 = CARTESIAN_POINT('',(5.938293580881,19.460098310011));
#796 = CARTESIAN_POINT('',(5.823329672115,17.942182316524));
#797 = CARTESIAN_POINT('',(5.708365763348,16.537780039535));
#798 = CARTESIAN_POINT('',(5.593401854582,15.276880183821));
#799 = ( GEOMETRIC_REPRESENTATION_CONTEXT(2) 
PARAMETRIC_REPRESENTATION_CONTEXT() REPRESENTATION_CONTEXT('2D SPACE',''
  ) );
#800 = ORIENTED_EDGE('',*,*,#801,.F.);
#801 = EDGE_CURVE('',#802,#774,#804,.T.);
#802 = VERTEX_POINT('',#803);
#803 = CARTESIAN_POINT('',(18.196029684325,4.726997326757,13.95));
#804 = SURFACE_CURVE('',#805,(#810,#817),.PCURVE_S1.);
#805 = ELLIPSE('',#806,23.57118708208,18.8);
#806 = AXIS2_PLACEMENT_3D('',#807,#808,#809);
#807 = CARTESIAN_POINT('',(0.,0.,10.375));
#808 = DIRECTION('',(-0.,0.603207987745,-0.797583928825));
#809 = DIRECTION('',(0.,0.797583928825,0.603207987745));
#810 = PCURVE('',#153,#811);
#811 = DEFINITIONAL_REPRESENTATION('',(#812),#816);
#812 = ELLIPSE('',#813,23.57118708208,18.8);
#813 = AXIS2_PLACEMENT_2D('',#814,#815);
#814 = CARTESIAN_POINT('',(7.857391536871E-16,33.446688786608));
#815 = DIRECTION('',(-1.,0.));
#816 = ( GEOMETRIC_REPRESENTATION_CONTEXT(2) 
PARAMETRIC_REPRESENTATION_CONTEXT() REPRESENTATION_CONTEXT('2D SPACE',''
  ) );
#817 = PCURVE('',#705,#818);
#818 = DEFINITIONAL_REPRESENTATION('',(#819),#826);
#819 = B_SPLINE_CURVE_WITH_KNOTS('',5,(#820,#821,#822,#823,#824,#825),
  .UNSPECIFIED.,.F.,.F.,(6,6),(1.316632620065,1.570796326795),
  .PIECEWISE_BEZIER_KNOTS.);
#820 = CARTESIAN_POINT('',(0.25416370673,27.9000006));
#821 = CARTESIAN_POINT('',(0.203330965384,27.20046333863));
#822 = CARTESIAN_POINT('',(0.152498224038,26.489378986549));
#823 = CARTESIAN_POINT('',(0.101665482692,25.770513225699));
#824 = CARTESIAN_POINT('',(5.083274134592E-02,25.047756606297));
#825 = CARTESIAN_POINT('',(6.123233995737E-17,24.325));
#826 = ( GEOMETRIC_REPRESENTATION_CONTEXT(2) 
PARAMETRIC_REPRESENTATION_CONTEXT() REPRESENTATION_CONTEXT('2D SPACE',''
  ) );
#827 = ORIENTED_EDGE('',*,*,#828,.F.);
#828 = EDGE_CURVE('',#124,#802,#829,.T.);
#829 = SURFACE_CURVE('',#830,(#834,#840),.PCURVE_S1.);
#830 = LINE('',#831,#832);
#831 = CARTESIAN_POINT('',(16.723344393304,4.726997326757,13.95));
#832 = VECTOR('',#833,1.);
#833 = DIRECTION('',(-1.,0.,0.));
#834 = PCURVE('',#153,#835);
#835 = DEFINITIONAL_REPRESENTATION('',(#836),#839);
#836 = B_SPLINE_CURVE_WITH_KNOTS('',1,(#837,#838),.UNSPECIFIED.,.F.,.F.,
  (2,2),(-5.276655606696,11.083344393304),.PIECEWISE_BEZIER_KNOTS.);
#837 = CARTESIAN_POINT('',(-5.92664565561,11.446688786608));
#838 = CARTESIAN_POINT('',(-5.92664565561,27.806688786608));
#839 = ( GEOMETRIC_REPRESENTATION_CONTEXT(2) 
PARAMETRIC_REPRESENTATION_CONTEXT() REPRESENTATION_CONTEXT('2D SPACE',''
  ) );
#840 = PCURVE('',#182,#841);
#841 = DEFINITIONAL_REPRESENTATION('',(#842),#845);
#842 = B_SPLINE_CURVE_WITH_KNOTS('',1,(#843,#844),.UNSPECIFIED.,.F.,.F.,
  (2,2),(-5.276655606696,11.083344393304),.PIECEWISE_BEZIER_KNOTS.);
#843 = CARTESIAN_POINT('',(22.,4.726997326757));
#844 = CARTESIAN_POINT('',(5.64,4.726997326757));
#845 = ( GEOMETRIC_REPRESENTATION_CONTEXT(2) 
PARAMETRIC_REPRESENTATION_CONTEXT() REPRESENTATION_CONTEXT('2D SPACE',''
  ) );
#846 = ORIENTED_EDGE('',*,*,#123,.T.);
#847 = ORIENTED_EDGE('',*,*,#848,.T.);
#848 = EDGE_CURVE('',#126,#849,#851,.T.);
#849 = VERTEX_POINT('',#850);
#850 = CARTESIAN_POINT('',(52.152,7.12880515584,15.766472994467));
#851 = SURFACE_CURVE('',#852,(#856,#863),.PCURVE_S1.);
#852 = LINE('',#853,#854);
#853 = CARTESIAN_POINT('',(5.64,9.969799110315,17.915099846816));
#854 = VECTOR('',#855,1.);
#855 = DIRECTION('',(0.997080404983,-6.090254993727E-02,
    -4.606023675819E-02));
#856 = PCURVE('',#153,#857);
#857 = DEFINITIONAL_REPRESENTATION('',(#858),#862);
#858 = LINE('',#859,#860);
#859 = CARTESIAN_POINT('',(-12.5,27.806688786608));
#860 = VECTOR('',#861,1.);
#861 = DIRECTION('',(7.635879778443E-02,-0.997080404983));
#862 = ( GEOMETRIC_REPRESENTATION_CONTEXT(2) 
PARAMETRIC_REPRESENTATION_CONTEXT() REPRESENTATION_CONTEXT('2D SPACE',''
  ) );
#863 = PCURVE('',#514,#864);
#864 = DEFINITIONAL_REPRESENTATION('',(#865),#869);
#865 = LINE('',#866,#867);
#866 = CARTESIAN_POINT('',(0.,0.));
#867 = VECTOR('',#868,1.);
#868 = DIRECTION('',(1.,-6.209271172414E-18));
#869 = ( GEOMETRIC_REPRESENTATION_CONTEXT(2) 
PARAMETRIC_REPRESENTATION_CONTEXT() REPRESENTATION_CONTEXT('2D SPACE',''
  ) );
#870 = ORIENTED_EDGE('',*,*,#871,.T.);
#871 = EDGE_CURVE('',#849,#872,#874,.T.);
#872 = VERTEX_POINT('',#873);
#873 = CARTESIAN_POINT('',(70.24,0.,10.375));
#874 = SURFACE_CURVE('',#875,(#879,#886),.PCURVE_S1.);
#875 = LINE('',#876,#877);
#876 = CARTESIAN_POINT('',(52.152,7.12880515584,15.766472994467));
#877 = VECTOR('',#878,1.);
#878 = DIRECTION('',(0.896518841362,-0.353334151847,-0.267224520247));
#879 = PCURVE('',#153,#880);
#880 = DEFINITIONAL_REPRESENTATION('',(#881),#885);
#881 = LINE('',#882,#883);
#882 = CARTESIAN_POINT('',(-8.938,-18.70531121339));
#883 = VECTOR('',#884,1.);
#884 = DIRECTION('',(0.443005606153,-0.896518841362));
#885 = ( GEOMETRIC_REPRESENTATION_CONTEXT(2) 
PARAMETRIC_REPRESENTATION_CONTEXT() REPRESENTATION_CONTEXT('2D SPACE',''
  ) );
#886 = PCURVE('',#887,#892);
#887 = PLANE('',#888);
#888 = AXIS2_PLACEMENT_3D('',#889,#890,#891);
#889 = CARTESIAN_POINT('',(52.152,7.12880515584,15.766472994467));
#890 = DIRECTION('',(0.443005606153,0.715049019759,0.540787326274));
#891 = DIRECTION('',(0.896518841362,-0.353334151847,-0.267224520247));
#892 = DEFINITIONAL_REPRESENTATION('',(#893),#897);
#893 = LINE('',#894,#895);
#894 = CARTESIAN_POINT('',(0.,0.));
#895 = VECTOR('',#896,1.);
#896 = DIRECTION('',(1.,-6.88438830693E-17));
#897 = ( GEOMETRIC_REPRESENTATION_CONTEXT(2) 
PARAMETRIC_REPRESENTATION_CONTEXT() REPRESENTATION_CONTEXT('2D SPACE',''
  ) );
#898 = ORIENTED_EDGE('',*,*,#899,.T.);
#899 = EDGE_CURVE('',#872,#744,#900,.T.);
#900 = SURFACE_CURVE('',#901,(#905,#912),.PCURVE_S1.);
#901 = LINE('',#902,#903);
#902 = CARTESIAN_POINT('',(70.24,0.,10.375));
#903 = VECTOR('',#904,1.);
#904 = DIRECTION('',(-0.896518841362,-0.353334151847,-0.267224520247));
#905 = PCURVE('',#153,#906);
#906 = DEFINITIONAL_REPRESENTATION('',(#907),#911);
#907 = LINE('',#908,#909);
#908 = CARTESIAN_POINT('',(-8.634241571903E-16,-36.79331121339));
#909 = VECTOR('',#910,1.);
#910 = DIRECTION('',(0.443005606153,0.896518841362));
#911 = ( GEOMETRIC_REPRESENTATION_CONTEXT(2) 
PARAMETRIC_REPRESENTATION_CONTEXT() REPRESENTATION_CONTEXT('2D SPACE',''
  ) );
#912 = PCURVE('',#913,#918);
#913 = PLANE('',#914);
#914 = AXIS2_PLACEMENT_3D('',#915,#916,#917);
#915 = CARTESIAN_POINT('',(70.24,0.,10.375));
#916 = DIRECTION('',(0.443005606153,-0.715049019759,-0.540787326274));
#917 = DIRECTION('',(-0.896518841362,-0.353334151847,-0.267224520247));
#918 = DEFINITIONAL_REPRESENTATION('',(#919),#923);
#919 = LINE('',#920,#921);
#920 = CARTESIAN_POINT('',(-0.,0.));
#921 = VECTOR('',#922,1.);
#922 = DIRECTION('',(1.,-6.88438830693E-17));
#923 = ( GEOMETRIC_REPRESENTATION_CONTEXT(2) 
PARAMETRIC_REPRESENTATION_CONTEXT() REPRESENTATION_CONTEXT('2D SPACE',''
  ) );
#924 = ADVANCED_FACE('',(#925),#514,.T.);
#925 = FACE_BOUND('',#926,.T.);
#926 = EDGE_LOOP('',(#927,#928,#951,#974,#995));
#927 = ORIENTED_EDGE('',*,*,#493,.T.);
#928 = ORIENTED_EDGE('',*,*,#929,.T.);
#929 = EDGE_CURVE('',#456,#930,#932,.T.);
#930 = VERTEX_POINT('',#931);
#931 = CARTESIAN_POINT('',(5.64,5.656861997937,23.617824937916));
#932 = SURFACE_CURVE('',#933,(#937,#944),.PCURVE_S1.);
#933 = LINE('',#934,#935);
#934 = CARTESIAN_POINT('',(5.64,9.969799110315,17.915099846816));
#935 = VECTOR('',#936,1.);
#936 = DIRECTION('',(0.,-0.603207987745,0.797583928825));
#937 = PCURVE('',#514,#938);
#938 = DEFINITIONAL_REPRESENTATION('',(#939),#943);
#939 = LINE('',#940,#941);
#940 = CARTESIAN_POINT('',(0.,0.));
#941 = VECTOR('',#942,1.);
#942 = DIRECTION('',(2.885113325118E-17,-1.));
#943 = ( GEOMETRIC_REPRESENTATION_CONTEXT(2) 
PARAMETRIC_REPRESENTATION_CONTEXT() REPRESENTATION_CONTEXT('2D SPACE',''
  ) );
#944 = PCURVE('',#481,#945);
#945 = DEFINITIONAL_REPRESENTATION('',(#946),#950);
#946 = LINE('',#947,#948);
#947 = CARTESIAN_POINT('',(25.,-7.875951291609E-16));
#948 = VECTOR('',#949,1.);
#949 = DIRECTION('',(-1.020919404187E-16,-1.));
#950 = ( GEOMETRIC_REPRESENTATION_CONTEXT(2) 
PARAMETRIC_REPRESENTATION_CONTEXT() REPRESENTATION_CONTEXT('2D SPACE',''
  ) );
#951 = ORIENTED_EDGE('',*,*,#952,.T.);
#952 = EDGE_CURVE('',#930,#953,#955,.T.);
#953 = VERTEX_POINT('',#954);
#954 = CARTESIAN_POINT('',(52.152,2.815868043461,21.469198085568));
#955 = SURFACE_CURVE('',#956,(#960,#967),.PCURVE_S1.);
#956 = LINE('',#957,#958);
#957 = CARTESIAN_POINT('',(5.64,5.656861997937,23.617824937916));
#958 = VECTOR('',#959,1.);
#959 = DIRECTION('',(0.997080404983,-6.090254993727E-02,
    -4.606023675819E-02));
#960 = PCURVE('',#514,#961);
#961 = DEFINITIONAL_REPRESENTATION('',(#962),#966);
#962 = LINE('',#963,#964);
#963 = CARTESIAN_POINT('',(2.235479955056E-16,-7.15));
#964 = VECTOR('',#965,1.);
#965 = DIRECTION('',(1.,-6.209271172414E-18));
#966 = ( GEOMETRIC_REPRESENTATION_CONTEXT(2) 
PARAMETRIC_REPRESENTATION_CONTEXT() REPRESENTATION_CONTEXT('2D SPACE',''
  ) );
#967 = PCURVE('',#358,#968);
#968 = DEFINITIONAL_REPRESENTATION('',(#969),#973);
#969 = LINE('',#970,#971);
#970 = CARTESIAN_POINT('',(-12.5,27.806688786608));
#971 = VECTOR('',#972,1.);
#972 = DIRECTION('',(7.635879778443E-02,-0.997080404983));
#973 = ( GEOMETRIC_REPRESENTATION_CONTEXT(2) 
PARAMETRIC_REPRESENTATION_CONTEXT() REPRESENTATION_CONTEXT('2D SPACE',''
  ) );
#974 = ORIENTED_EDGE('',*,*,#975,.F.);
#975 = EDGE_CURVE('',#849,#953,#976,.T.);
#976 = SURFACE_CURVE('',#977,(#981,#988),.PCURVE_S1.);
#977 = LINE('',#978,#979);
#978 = CARTESIAN_POINT('',(52.152,7.12880515584,15.766472994467));
#979 = VECTOR('',#980,1.);
#980 = DIRECTION('',(0.,-0.603207987745,0.797583928825));
#981 = PCURVE('',#514,#982);
#982 = DEFINITIONAL_REPRESENTATION('',(#983),#987);
#983 = LINE('',#984,#985);
#984 = CARTESIAN_POINT('',(46.648193834274,-1.011367462336E-16));
#985 = VECTOR('',#986,1.);
#986 = DIRECTION('',(2.885113325118E-17,-1.));
#987 = ( GEOMETRIC_REPRESENTATION_CONTEXT(2) 
PARAMETRIC_REPRESENTATION_CONTEXT() REPRESENTATION_CONTEXT('2D SPACE',''
  ) );
#988 = PCURVE('',#887,#989);
#989 = DEFINITIONAL_REPRESENTATION('',(#990),#994);
#990 = LINE('',#991,#992);
#991 = CARTESIAN_POINT('',(0.,0.));
#992 = VECTOR('',#993,1.);
#993 = DIRECTION('',(-3.285437615127E-17,-1.));
#994 = ( GEOMETRIC_REPRESENTATION_CONTEXT(2) 
PARAMETRIC_REPRESENTATION_CONTEXT() REPRESENTATION_CONTEXT('2D SPACE',''
  ) );
#995 = ORIENTED_EDGE('',*,*,#848,.F.);
#996 = ADVANCED_FACE('',(#997),#481,.T.);
#997 = FACE_BOUND('',#998,.T.);
#998 = EDGE_LOOP('',(#999,#1000,#1021));
#999 = ORIENTED_EDGE('',*,*,#455,.T.);
#1000 = ORIENTED_EDGE('',*,*,#1001,.T.);
#1001 = EDGE_CURVE('',#419,#930,#1002,.T.);
#1002 = SURFACE_CURVE('',#1003,(#1007,#1014),.PCURVE_S1.);
#1003 = LINE('',#1004,#1005);
#1004 = CARTESIAN_POINT('',(5.64,-14.28273622269,8.537625244284));
#1005 = VECTOR('',#1006,1.);
#1006 = DIRECTION('',(0.,0.797583928825,0.603207987745));
#1007 = PCURVE('',#481,#1008);
#1008 = DEFINITIONAL_REPRESENTATION('',(#1009),#1013);
#1009 = LINE('',#1010,#1011);
#1010 = CARTESIAN_POINT('',(6.786252456444E-17,-7.15));
#1011 = VECTOR('',#1012,1.);
#1012 = DIRECTION('',(1.,-8.93036204381E-18));
#1013 = ( GEOMETRIC_REPRESENTATION_CONTEXT(2) 
PARAMETRIC_REPRESENTATION_CONTEXT() REPRESENTATION_CONTEXT('2D SPACE',''
  ) );
#1014 = PCURVE('',#358,#1015);
#1015 = DEFINITIONAL_REPRESENTATION('',(#1016),#1020);
#1016 = LINE('',#1017,#1018);
#1017 = CARTESIAN_POINT('',(12.5,27.806688786608));
#1018 = VECTOR('',#1019,1.);
#1019 = DIRECTION('',(-1.,0.));
#1020 = ( GEOMETRIC_REPRESENTATION_CONTEXT(2) 
PARAMETRIC_REPRESENTATION_CONTEXT() REPRESENTATION_CONTEXT('2D SPACE',''
  ) );
#1021 = ORIENTED_EDGE('',*,*,#929,.F.);
#1022 = ADVANCED_FACE('',(#1023),#358,.F.);
#1023 = FACE_BOUND('',#1024,.F.);
#1024 = EDGE_LOOP('',(#1025,#1026,#1027,#1028,#1051,#1074,#1097,#1125,
    #1144));
#1025 = ORIENTED_EDGE('',*,*,#418,.T.);
#1026 = ORIENTED_EDGE('',*,*,#1001,.T.);
#1027 = ORIENTED_EDGE('',*,*,#952,.T.);
#1028 = ORIENTED_EDGE('',*,*,#1029,.T.);
#1029 = EDGE_CURVE('',#953,#1030,#1032,.T.);
#1030 = VERTEX_POINT('',#1031);
#1031 = CARTESIAN_POINT('',(70.24,-4.312937112379,16.0777250911));
#1032 = SURFACE_CURVE('',#1033,(#1037,#1044),.PCURVE_S1.);
#1033 = LINE('',#1034,#1035);
#1034 = CARTESIAN_POINT('',(52.152,2.815868043461,21.469198085568));
#1035 = VECTOR('',#1036,1.);
#1036 = DIRECTION('',(0.896518841362,-0.353334151847,-0.267224520247));
#1037 = PCURVE('',#358,#1038);
#1038 = DEFINITIONAL_REPRESENTATION('',(#1039),#1043);
#1039 = LINE('',#1040,#1041);
#1040 = CARTESIAN_POINT('',(-8.938,-18.70531121339));
#1041 = VECTOR('',#1042,1.);
#1042 = DIRECTION('',(0.443005606153,-0.896518841362));
#1043 = ( GEOMETRIC_REPRESENTATION_CONTEXT(2) 
PARAMETRIC_REPRESENTATION_CONTEXT() REPRESENTATION_CONTEXT('2D SPACE',''
  ) );
#1044 = PCURVE('',#887,#1045);
#1045 = DEFINITIONAL_REPRESENTATION('',(#1046),#1050);
#1046 = LINE('',#1047,#1048);
#1047 = CARTESIAN_POINT('',(-2.813419157264E-16,-7.15));
#1048 = VECTOR('',#1049,1.);
#1049 = DIRECTION('',(1.,-6.88438830693E-17));
#1050 = ( GEOMETRIC_REPRESENTATION_CONTEXT(2) 
PARAMETRIC_REPRESENTATION_CONTEXT() REPRESENTATION_CONTEXT('2D SPACE',''
  ) );
#1051 = ORIENTED_EDGE('',*,*,#1052,.T.);
#1052 = EDGE_CURVE('',#1030,#1053,#1055,.T.);
#1053 = VERTEX_POINT('',#1054);
#1054 = CARTESIAN_POINT('',(52.152,-11.44174226821,10.686252096633));
#1055 = SURFACE_CURVE('',#1056,(#1060,#1067),.PCURVE_S1.);
#1056 = LINE('',#1057,#1058);
#1057 = CARTESIAN_POINT('',(70.24,-4.312937112379,16.0777250911));
#1058 = VECTOR('',#1059,1.);
#1059 = DIRECTION('',(-0.896518841362,-0.353334151847,-0.267224520247));
#1060 = PCURVE('',#358,#1061);
#1061 = DEFINITIONAL_REPRESENTATION('',(#1062),#1066);
#1062 = LINE('',#1063,#1064);
#1063 = CARTESIAN_POINT('',(-8.634241571903E-16,-36.79331121339));
#1064 = VECTOR('',#1065,1.);
#1065 = DIRECTION('',(0.443005606153,0.896518841362));
#1066 = ( GEOMETRIC_REPRESENTATION_CONTEXT(2) 
PARAMETRIC_REPRESENTATION_CONTEXT() REPRESENTATION_CONTEXT('2D SPACE',''
  ) );
#1067 = PCURVE('',#913,#1068);
#1068 = DEFINITIONAL_REPRESENTATION('',(#1069),#1073);
#1069 = LINE('',#1070,#1071);
#1070 = CARTESIAN_POINT('',(-5.929731080137E-17,-7.15));
#1071 = VECTOR('',#1072,1.);
#1072 = DIRECTION('',(1.,-6.88438830693E-17));
#1073 = ( GEOMETRIC_REPRESENTATION_CONTEXT(2) 
PARAMETRIC_REPRESENTATION_CONTEXT() REPRESENTATION_CONTEXT('2D SPACE',''
  ) );
#1074 = ORIENTED_EDGE('',*,*,#1075,.T.);
#1075 = EDGE_CURVE('',#1053,#1076,#1078,.T.);
#1076 = VERTEX_POINT('',#1077);
#1077 = CARTESIAN_POINT('',(12.712049074776,-13.85076923208,
    8.86431931341));
#1078 = SURFACE_CURVE('',#1079,(#1083,#1090),.PCURVE_S1.);
#1079 = LINE('',#1080,#1081);
#1080 = CARTESIAN_POINT('',(52.152,-11.44174226821,10.686252096633));
#1081 = VECTOR('',#1082,1.);
#1082 = DIRECTION('',(-0.997080404983,-6.090254993727E-02,
    -4.606023675819E-02));
#1083 = PCURVE('',#358,#1084);
#1084 = DEFINITIONAL_REPRESENTATION('',(#1085),#1089);
#1085 = LINE('',#1086,#1087);
#1086 = CARTESIAN_POINT('',(8.938,-18.70531121339));
#1087 = VECTOR('',#1088,1.);
#1088 = DIRECTION('',(7.635879778443E-02,0.997080404983));
#1089 = ( GEOMETRIC_REPRESENTATION_CONTEXT(2) 
PARAMETRIC_REPRESENTATION_CONTEXT() REPRESENTATION_CONTEXT('2D SPACE',''
  ) );
#1090 = PCURVE('',#761,#1091);
#1091 = DEFINITIONAL_REPRESENTATION('',(#1092),#1096);
#1092 = LINE('',#1093,#1094);
#1093 = CARTESIAN_POINT('',(1.130872186073E-16,-7.15));
#1094 = VECTOR('',#1095,1.);
#1095 = DIRECTION('',(1.,-9.102182764799E-18));
#1096 = ( GEOMETRIC_REPRESENTATION_CONTEXT(2) 
PARAMETRIC_REPRESENTATION_CONTEXT() REPRESENTATION_CONTEXT('2D SPACE',''
  ) );
#1097 = ORIENTED_EDGE('',*,*,#1098,.F.);
#1098 = EDGE_CURVE('',#1099,#1076,#1101,.T.);
#1099 = VERTEX_POINT('',#1100);
#1100 = CARTESIAN_POINT('',(17.397009342039,-7.126293984464,13.95));
#1101 = SURFACE_CURVE('',#1102,(#1107,#1114),.PCURVE_S1.);
#1102 = ELLIPSE('',#1103,23.57118708208,18.8);
#1103 = AXIS2_PLACEMENT_3D('',#1104,#1105,#1106);
#1104 = CARTESIAN_POINT('',(0.,0.,19.339573810472));
#1105 = DIRECTION('',(-0.,0.603207987745,-0.797583928825));
#1106 = DIRECTION('',(0.,0.797583928825,0.603207987745));
#1107 = PCURVE('',#358,#1108);
#1108 = DEFINITIONAL_REPRESENTATION('',(#1109),#1113);
#1109 = ELLIPSE('',#1110,23.57118708208,18.8);
#1110 = AXIS2_PLACEMENT_2D('',#1111,#1112);
#1111 = CARTESIAN_POINT('',(-5.407502529209,33.446688786608));
#1112 = DIRECTION('',(-1.,0.));
#1113 = ( GEOMETRIC_REPRESENTATION_CONTEXT(2) 
PARAMETRIC_REPRESENTATION_CONTEXT() REPRESENTATION_CONTEXT('2D SPACE',''
  ) );
#1114 = PCURVE('',#705,#1115);
#1115 = DEFINITIONAL_REPRESENTATION('',(#1116),#1124);
#1116 = B_SPLINE_CURVE_WITH_KNOTS('',6,(#1117,#1118,#1119,#1120,#1121,
    #1122,#1123),.UNSPECIFIED.,.F.,.F.,(7,7),(1.959574603219,
    2.617506684977),.PIECEWISE_BEZIER_KNOTS.);
#1117 = CARTESIAN_POINT('',(5.894407030756,27.9000006));
#1118 = CARTESIAN_POINT('',(5.784751683796,26.457237229885));
#1119 = CARTESIAN_POINT('',(5.675096336836,25.092241513579));
#1120 = CARTESIAN_POINT('',(5.565440989876,23.836235277653));
#1121 = CARTESIAN_POINT('',(5.455785642917,22.717658261304));
#1122 = CARTESIAN_POINT('',(5.346130295957,21.759820869893));
#1123 = CARTESIAN_POINT('',(5.236474948997,20.979605274921));
#1124 = ( GEOMETRIC_REPRESENTATION_CONTEXT(2) 
PARAMETRIC_REPRESENTATION_CONTEXT() REPRESENTATION_CONTEXT('2D SPACE',''
  ) );
#1125 = ORIENTED_EDGE('',*,*,#1126,.F.);
#1126 = EDGE_CURVE('',#308,#1099,#1127,.T.);
#1127 = SURFACE_CURVE('',#1128,(#1132,#1138),.PCURVE_S1.);
#1128 = LINE('',#1129,#1130);
#1129 = CARTESIAN_POINT('',(16.723344393304,-7.126293984464,13.95));
#1130 = VECTOR('',#1131,1.);
#1131 = DIRECTION('',(-1.,0.,0.));
#1132 = PCURVE('',#358,#1133);
#1133 = DEFINITIONAL_REPRESENTATION('',(#1134),#1137);
#1134 = B_SPLINE_CURVE_WITH_KNOTS('',1,(#1135,#1136),.UNSPECIFIED.,.F.,
  .F.,(2,2),(-5.276655606696,11.083344393304),.PIECEWISE_BEZIER_KNOTS.);
#1135 = CARTESIAN_POINT('',(3.527348997903,11.446688786608));
#1136 = CARTESIAN_POINT('',(3.527348997903,27.806688786608));
#1137 = ( GEOMETRIC_REPRESENTATION_CONTEXT(2) 
PARAMETRIC_REPRESENTATION_CONTEXT() REPRESENTATION_CONTEXT('2D SPACE',''
  ) );
#1138 = PCURVE('',#324,#1139);
#1139 = DEFINITIONAL_REPRESENTATION('',(#1140),#1143);
#1140 = B_SPLINE_CURVE_WITH_KNOTS('',1,(#1141,#1142),.UNSPECIFIED.,.F.,
  .F.,(2,2),(-5.276655606696,11.083344393304),.PIECEWISE_BEZIER_KNOTS.);
#1141 = CARTESIAN_POINT('',(22.,-7.126293984464));
#1142 = CARTESIAN_POINT('',(5.64,-7.126293984464));
#1143 = ( GEOMETRIC_REPRESENTATION_CONTEXT(2) 
PARAMETRIC_REPRESENTATION_CONTEXT() REPRESENTATION_CONTEXT('2D SPACE',''
  ) );
#1144 = ORIENTED_EDGE('',*,*,#336,.T.);
#1145 = ADVANCED_FACE('',(#1146),#405,.T.);
#1146 = FACE_BOUND('',#1147,.T.);
#1147 = EDGE_LOOP('',(#1148));
#1148 = ORIENTED_EDGE('',*,*,#390,.T.);
#1149 = ADVANCED_FACE('',(#1150),#324,.F.);
#1150 = FACE_BOUND('',#1151,.F.);
#1151 = EDGE_LOOP('',(#1152,#1173,#1174,#1175));
#1152 = ORIENTED_EDGE('',*,*,#1153,.F.);
#1153 = EDGE_CURVE('',#268,#1154,#1156,.T.);
#1154 = VERTEX_POINT('',#1155);
#1155 = CARTESIAN_POINT('',(-18.19602968432,-4.726997326757,13.95));
#1156 = SURFACE_CURVE('',#1157,(#1161,#1167),.PCURVE_S1.);
#1157 = LINE('',#1158,#1159);
#1158 = CARTESIAN_POINT('',(-16.7233443933,-4.726997326757,13.95));
#1159 = VECTOR('',#1160,1.);
#1160 = DIRECTION('',(1.,0.,0.));
#1161 = PCURVE('',#324,#1162);
#1162 = DEFINITIONAL_REPRESENTATION('',(#1163),#1166);
#1163 = B_SPLINE_CURVE_WITH_KNOTS('',1,(#1164,#1165),.UNSPECIFIED.,.F.,
  .F.,(2,2),(-5.276655606696,11.083344393304),.PIECEWISE_BEZIER_KNOTS.);
#1164 = CARTESIAN_POINT('',(-22.,-4.726997326757));
#1165 = CARTESIAN_POINT('',(-5.64,-4.726997326757));
#1166 = ( GEOMETRIC_REPRESENTATION_CONTEXT(2) 
PARAMETRIC_REPRESENTATION_CONTEXT() REPRESENTATION_CONTEXT('2D SPACE',''
  ) );
#1167 = PCURVE('',#295,#1168);
#1168 = DEFINITIONAL_REPRESENTATION('',(#1169),#1172);
#1169 = B_SPLINE_CURVE_WITH_KNOTS('',1,(#1170,#1171),.UNSPECIFIED.,.F.,
  .F.,(2,2),(-5.276655606696,11.083344393304),.PIECEWISE_BEZIER_KNOTS.);
#1170 = CARTESIAN_POINT('',(5.92664565561,-11.4466887866));
#1171 = CARTESIAN_POINT('',(5.92664565561,-27.8066887866));
#1172 = ( GEOMETRIC_REPRESENTATION_CONTEXT(2) 
PARAMETRIC_REPRESENTATION_CONTEXT() REPRESENTATION_CONTEXT('2D SPACE',''
  ) );
#1173 = ORIENTED_EDGE('',*,*,#307,.T.);
#1174 = ORIENTED_EDGE('',*,*,#1126,.T.);
#1175 = ORIENTED_EDGE('',*,*,#1176,.F.);
#1176 = EDGE_CURVE('',#1154,#1099,#1177,.T.);
#1177 = SURFACE_CURVE('',#1178,(#1183,#1190),.PCURVE_S1.);
#1178 = CIRCLE('',#1179,18.8);
#1179 = AXIS2_PLACEMENT_3D('',#1180,#1181,#1182);
#1180 = CARTESIAN_POINT('',(0.,0.,13.95));
#1181 = DIRECTION('',(0.,0.,1.));
#1182 = DIRECTION('',(1.,0.,0.));
#1183 = PCURVE('',#324,#1184);
#1184 = DEFINITIONAL_REPRESENTATION('',(#1185),#1189);
#1185 = CIRCLE('',#1186,18.8);
#1186 = AXIS2_PLACEMENT_2D('',#1187,#1188);
#1187 = CARTESIAN_POINT('',(0.,0.));
#1188 = DIRECTION('',(1.,0.));
#1189 = ( GEOMETRIC_REPRESENTATION_CONTEXT(2) 
PARAMETRIC_REPRESENTATION_CONTEXT() REPRESENTATION_CONTEXT('2D SPACE',''
  ) );
#1190 = PCURVE('',#705,#1191);
#1191 = DEFINITIONAL_REPRESENTATION('',(#1192),#1196);
#1192 = LINE('',#1193,#1194);
#1193 = CARTESIAN_POINT('',(0.,27.9));
#1194 = VECTOR('',#1195,1.);
#1195 = DIRECTION('',(1.,0.));
#1196 = ( GEOMETRIC_REPRESENTATION_CONTEXT(2) 
PARAMETRIC_REPRESENTATION_CONTEXT() REPRESENTATION_CONTEXT('2D SPACE',''
  ) );
#1197 = ADVANCED_FACE('',(#1198),#295,.T.);
#1198 = FACE_BOUND('',#1199,.T.);
#1199 = EDGE_LOOP('',(#1200,#1225,#1252,#1253,#1254,#1255,#1278));
#1200 = ORIENTED_EDGE('',*,*,#1201,.T.);
#1201 = EDGE_CURVE('',#1202,#1204,#1206,.T.);
#1202 = VERTEX_POINT('',#1203);
#1203 = CARTESIAN_POINT('',(-52.152,7.12880515584,4.983527005533));
#1204 = VERTEX_POINT('',#1205);
#1205 = CARTESIAN_POINT('',(-16.3289692134,9.316907449779,3.32867823789)
  );
#1206 = SURFACE_CURVE('',#1207,(#1211,#1218),.PCURVE_S1.);
#1207 = LINE('',#1208,#1209);
#1208 = CARTESIAN_POINT('',(-52.152,7.12880515584,4.983527005533));
#1209 = VECTOR('',#1210,1.);
#1210 = DIRECTION('',(0.997080404983,6.090254993727E-02,
    -4.606023675819E-02));
#1211 = PCURVE('',#295,#1212);
#1212 = DEFINITIONAL_REPRESENTATION('',(#1213),#1217);
#1213 = LINE('',#1214,#1215);
#1214 = CARTESIAN_POINT('',(-8.938,18.705311213392));
#1215 = VECTOR('',#1216,1.);
#1216 = DIRECTION('',(-7.635879778443E-02,-0.997080404983));
#1217 = ( GEOMETRIC_REPRESENTATION_CONTEXT(2) 
PARAMETRIC_REPRESENTATION_CONTEXT() REPRESENTATION_CONTEXT('2D SPACE',''
  ) );
#1218 = PCURVE('',#676,#1219);
#1219 = DEFINITIONAL_REPRESENTATION('',(#1220),#1224);
#1220 = LINE('',#1221,#1222);
#1221 = CARTESIAN_POINT('',(0.,-0.));
#1222 = VECTOR('',#1223,1.);
#1223 = DIRECTION('',(1.,-3.567832503219E-18));
#1224 = ( GEOMETRIC_REPRESENTATION_CONTEXT(2) 
PARAMETRIC_REPRESENTATION_CONTEXT() REPRESENTATION_CONTEXT('2D SPACE',''
  ) );
#1225 = ORIENTED_EDGE('',*,*,#1226,.F.);
#1226 = EDGE_CURVE('',#1154,#1204,#1227,.T.);
#1227 = SURFACE_CURVE('',#1228,(#1233,#1240),.PCURVE_S1.);
#1228 = ELLIPSE('',#1229,23.57118708208,18.8);
#1229 = AXIS2_PLACEMENT_3D('',#1230,#1231,#1232);
#1230 = CARTESIAN_POINT('',(0.,0.,10.375));
#1231 = DIRECTION('',(-0.,-0.603207987745,-0.797583928825));
#1232 = DIRECTION('',(0.,-0.797583928825,0.603207987745));
#1233 = PCURVE('',#295,#1234);
#1234 = DEFINITIONAL_REPRESENTATION('',(#1235),#1239);
#1235 = ELLIPSE('',#1236,23.57118708208,18.8);
#1236 = AXIS2_PLACEMENT_2D('',#1237,#1238);
#1237 = CARTESIAN_POINT('',(6.21515945355E-15,-33.4466887866));
#1238 = DIRECTION('',(1.,0.));
#1239 = ( GEOMETRIC_REPRESENTATION_CONTEXT(2) 
PARAMETRIC_REPRESENTATION_CONTEXT() REPRESENTATION_CONTEXT('2D SPACE',''
  ) );
#1240 = PCURVE('',#705,#1241);
#1241 = DEFINITIONAL_REPRESENTATION('',(#1242),#1251);
#1242 = B_SPLINE_CURVE_WITH_KNOTS('',7,(#1243,#1244,#1245,#1246,#1247,
    #1248,#1249,#1250),.UNSPECIFIED.,.F.,.F.,(8,8),(1.316632620065,
    2.260579779392),.PIECEWISE_BEZIER_KNOTS.);
#1243 = CARTESIAN_POINT('',(3.395756360319,27.9000006));
#1244 = CARTESIAN_POINT('',(3.26090676613,26.044261300514));
#1245 = CARTESIAN_POINT('',(3.12605717194,24.112677893098));
#1246 = CARTESIAN_POINT('',(2.991207577751,22.160367613524));
#1247 = CARTESIAN_POINT('',(2.856357983561,20.245828745048));
#1248 = CARTESIAN_POINT('',(2.721508389371,18.426841176332));
#1249 = CARTESIAN_POINT('',(2.586658795182,16.755882034763));
#1250 = CARTESIAN_POINT('',(2.451809200992,15.276880183821));
#1251 = ( GEOMETRIC_REPRESENTATION_CONTEXT(2) 
PARAMETRIC_REPRESENTATION_CONTEXT() REPRESENTATION_CONTEXT('2D SPACE',''
  ) );
#1252 = ORIENTED_EDGE('',*,*,#1153,.F.);
#1253 = ORIENTED_EDGE('',*,*,#267,.T.);
#1254 = ORIENTED_EDGE('',*,*,#582,.T.);
#1255 = ORIENTED_EDGE('',*,*,#1256,.T.);
#1256 = EDGE_CURVE('',#555,#1257,#1259,.T.);
#1257 = VERTEX_POINT('',#1258);
#1258 = CARTESIAN_POINT('',(-70.24,8.601919117211E-15,10.375));
#1259 = SURFACE_CURVE('',#1260,(#1264,#1271),.PCURVE_S1.);
#1260 = LINE('',#1261,#1262);
#1261 = CARTESIAN_POINT('',(-52.152,-7.12880515584,15.766472994467));
#1262 = VECTOR('',#1263,1.);
#1263 = DIRECTION('',(-0.896518841362,0.353334151847,-0.267224520247));
#1264 = PCURVE('',#295,#1265);
#1265 = DEFINITIONAL_REPRESENTATION('',(#1266),#1270);
#1266 = LINE('',#1267,#1268);
#1267 = CARTESIAN_POINT('',(8.938,18.705311213392));
#1268 = VECTOR('',#1269,1.);
#1269 = DIRECTION('',(-0.443005606153,0.896518841362));
#1270 = ( GEOMETRIC_REPRESENTATION_CONTEXT(2) 
PARAMETRIC_REPRESENTATION_CONTEXT() REPRESENTATION_CONTEXT('2D SPACE',''
  ) );
#1271 = PCURVE('',#570,#1272);
#1272 = DEFINITIONAL_REPRESENTATION('',(#1273),#1277);
#1273 = LINE('',#1274,#1275);
#1274 = CARTESIAN_POINT('',(0.,-0.));
#1275 = VECTOR('',#1276,1.);
#1276 = DIRECTION('',(1.,-4.108830745367E-17));
#1277 = ( GEOMETRIC_REPRESENTATION_CONTEXT(2) 
PARAMETRIC_REPRESENTATION_CONTEXT() REPRESENTATION_CONTEXT('2D SPACE',''
  ) );
#1278 = ORIENTED_EDGE('',*,*,#1279,.T.);
#1279 = EDGE_CURVE('',#1257,#1202,#1280,.T.);
#1280 = SURFACE_CURVE('',#1281,(#1285,#1292),.PCURVE_S1.);
#1281 = LINE('',#1282,#1283);
#1282 = CARTESIAN_POINT('',(-70.24,8.601919117211E-15,10.375));
#1283 = VECTOR('',#1284,1.);
#1284 = DIRECTION('',(0.896518841362,0.353334151847,-0.267224520247));
#1285 = PCURVE('',#295,#1286);
#1286 = DEFINITIONAL_REPRESENTATION('',(#1287),#1291);
#1287 = LINE('',#1288,#1289);
#1288 = CARTESIAN_POINT('',(-2.845464599372E-15,36.793311213392));
#1289 = VECTOR('',#1290,1.);
#1290 = DIRECTION('',(-0.443005606153,-0.896518841362));
#1291 = ( GEOMETRIC_REPRESENTATION_CONTEXT(2) 
PARAMETRIC_REPRESENTATION_CONTEXT() REPRESENTATION_CONTEXT('2D SPACE',''
  ) );
#1292 = PCURVE('',#648,#1293);
#1293 = DEFINITIONAL_REPRESENTATION('',(#1294),#1298);
#1294 = LINE('',#1295,#1296);
#1295 = CARTESIAN_POINT('',(0.,-0.));
#1296 = VECTOR('',#1297,1.);
#1297 = DIRECTION('',(1.,1.442284377759E-17));
#1298 = ( GEOMETRIC_REPRESENTATION_CONTEXT(2) 
PARAMETRIC_REPRESENTATION_CONTEXT() REPRESENTATION_CONTEXT('2D SPACE',''
  ) );
#1299 = ADVANCED_FACE('',(#1300),#182,.F.);
#1300 = FACE_BOUND('',#1301,.F.);
#1301 = EDGE_LOOP('',(#1302,#1303,#1304,#1305));
#1302 = ORIENTED_EDGE('',*,*,#828,.F.);
#1303 = ORIENTED_EDGE('',*,*,#165,.T.);
#1304 = ORIENTED_EDGE('',*,*,#721,.T.);
#1305 = ORIENTED_EDGE('',*,*,#1306,.F.);
#1306 = EDGE_CURVE('',#802,#689,#1307,.T.);
#1307 = SURFACE_CURVE('',#1308,(#1313,#1320),.PCURVE_S1.);
#1308 = CIRCLE('',#1309,18.8);
#1309 = AXIS2_PLACEMENT_3D('',#1310,#1311,#1312);
#1310 = CARTESIAN_POINT('',(0.,0.,13.95));
#1311 = DIRECTION('',(0.,0.,1.));
#1312 = DIRECTION('',(1.,0.,0.));
#1313 = PCURVE('',#182,#1314);
#1314 = DEFINITIONAL_REPRESENTATION('',(#1315),#1319);
#1315 = CIRCLE('',#1316,18.8);
#1316 = AXIS2_PLACEMENT_2D('',#1317,#1318);
#1317 = CARTESIAN_POINT('',(0.,0.));
#1318 = DIRECTION('',(1.,0.));
#1319 = ( GEOMETRIC_REPRESENTATION_CONTEXT(2) 
PARAMETRIC_REPRESENTATION_CONTEXT() REPRESENTATION_CONTEXT('2D SPACE',''
  ) );
#1320 = PCURVE('',#705,#1321);
#1321 = DEFINITIONAL_REPRESENTATION('',(#1322),#1326);
#1322 = LINE('',#1323,#1324);
#1323 = CARTESIAN_POINT('',(0.,27.9));
#1324 = VECTOR('',#1325,1.);
#1325 = DIRECTION('',(1.,0.));
#1326 = ( GEOMETRIC_REPRESENTATION_CONTEXT(2) 
PARAMETRIC_REPRESENTATION_CONTEXT() REPRESENTATION_CONTEXT('2D SPACE',''
  ) );
#1327 = ADVANCED_FACE('',(#1328),#570,.T.);
#1328 = FACE_BOUND('',#1329,.T.);
#1329 = EDGE_LOOP('',(#1330,#1331,#1332,#1353));
#1330 = ORIENTED_EDGE('',*,*,#554,.T.);
#1331 = ORIENTED_EDGE('',*,*,#609,.T.);
#1332 = ORIENTED_EDGE('',*,*,#1333,.F.);
#1333 = EDGE_CURVE('',#1257,#610,#1334,.T.);
#1334 = SURFACE_CURVE('',#1335,(#1339,#1346),.PCURVE_S1.);
#1335 = LINE('',#1336,#1337);
#1336 = CARTESIAN_POINT('',(-70.24,8.601919117211E-15,10.375));
#1337 = VECTOR('',#1338,1.);
#1338 = DIRECTION('',(7.387167314124E-17,0.603207987745,0.797583928825)
  );
#1339 = PCURVE('',#570,#1340);
#1340 = DEFINITIONAL_REPRESENTATION('',(#1341),#1345);
#1341 = LINE('',#1342,#1343);
#1342 = CARTESIAN_POINT('',(20.175816910351,-7.862741448268E-16));
#1343 = VECTOR('',#1344,1.);
#1344 = DIRECTION('',(-1.633514967426E-17,-1.));
#1345 = ( GEOMETRIC_REPRESENTATION_CONTEXT(2) 
PARAMETRIC_REPRESENTATION_CONTEXT() REPRESENTATION_CONTEXT('2D SPACE',''
  ) );
#1346 = PCURVE('',#648,#1347);
#1347 = DEFINITIONAL_REPRESENTATION('',(#1348),#1352);
#1348 = LINE('',#1349,#1350);
#1349 = CARTESIAN_POINT('',(0.,-0.));
#1350 = VECTOR('',#1351,1.);
#1351 = DIRECTION('',(-7.184630090552E-17,-1.));
#1352 = ( GEOMETRIC_REPRESENTATION_CONTEXT(2) 
PARAMETRIC_REPRESENTATION_CONTEXT() REPRESENTATION_CONTEXT('2D SPACE',''
  ) );
#1353 = ORIENTED_EDGE('',*,*,#1256,.F.);
#1354 = ADVANCED_FACE('',(#1355),#705,.T.);
#1355 = FACE_BOUND('',#1356,.T.);
#1356 = EDGE_LOOP('',(#1357,#1358,#1359,#1382,#1409,#1410,#1411,#1437,
    #1438,#1439,#1440,#1466));
#1357 = ORIENTED_EDGE('',*,*,#1306,.F.);
#1358 = ORIENTED_EDGE('',*,*,#801,.T.);
#1359 = ORIENTED_EDGE('',*,*,#1360,.F.);
#1360 = EDGE_CURVE('',#1361,#774,#1363,.T.);
#1361 = VERTEX_POINT('',#1362);
#1362 = CARTESIAN_POINT('',(18.8,-4.604671964794E-15,-13.95));
#1363 = SEAM_CURVE('',#1364,(#1368,#1375),.PCURVE_S1.);
#1364 = LINE('',#1365,#1366);
#1365 = CARTESIAN_POINT('',(18.8,-4.604671964794E-15,-13.95));
#1366 = VECTOR('',#1367,1.);
#1367 = DIRECTION('',(0.,0.,1.));
#1368 = PCURVE('',#705,#1369);
#1369 = DEFINITIONAL_REPRESENTATION('',(#1370),#1374);
#1370 = LINE('',#1371,#1372);
#1371 = CARTESIAN_POINT('',(6.28318530718,-0.));
#1372 = VECTOR('',#1373,1.);
#1373 = DIRECTION('',(0.,1.));
#1374 = ( GEOMETRIC_REPRESENTATION_CONTEXT(2) 
PARAMETRIC_REPRESENTATION_CONTEXT() REPRESENTATION_CONTEXT('2D SPACE',''
  ) );
#1375 = PCURVE('',#705,#1376);
#1376 = DEFINITIONAL_REPRESENTATION('',(#1377),#1381);
#1377 = LINE('',#1378,#1379);
#1378 = CARTESIAN_POINT('',(0.,-0.));
#1379 = VECTOR('',#1380,1.);
#1380 = DIRECTION('',(0.,1.));
#1381 = ( GEOMETRIC_REPRESENTATION_CONTEXT(2) 
PARAMETRIC_REPRESENTATION_CONTEXT() REPRESENTATION_CONTEXT('2D SPACE',''
  ) );
#1382 = ORIENTED_EDGE('',*,*,#1383,.T.);
#1383 = EDGE_CURVE('',#1361,#1361,#1384,.T.);
#1384 = SURFACE_CURVE('',#1385,(#1390,#1397),.PCURVE_S1.);
#1385 = CIRCLE('',#1386,18.8);
#1386 = AXIS2_PLACEMENT_3D('',#1387,#1388,#1389);
#1387 = CARTESIAN_POINT('',(0.,0.,-13.95));
#1388 = DIRECTION('',(0.,0.,1.));
#1389 = DIRECTION('',(1.,0.,0.));
#1390 = PCURVE('',#705,#1391);
#1391 = DEFINITIONAL_REPRESENTATION('',(#1392),#1396);
#1392 = LINE('',#1393,#1394);
#1393 = CARTESIAN_POINT('',(0.,0.));
#1394 = VECTOR('',#1395,1.);
#1395 = DIRECTION('',(1.,0.));
#1396 = ( GEOMETRIC_REPRESENTATION_CONTEXT(2) 
PARAMETRIC_REPRESENTATION_CONTEXT() REPRESENTATION_CONTEXT('2D SPACE',''
  ) );
#1397 = PCURVE('',#1398,#1403);
#1398 = PLANE('',#1399);
#1399 = AXIS2_PLACEMENT_3D('',#1400,#1401,#1402);
#1400 = CARTESIAN_POINT('',(0.,0.,-13.95));
#1401 = DIRECTION('',(0.,0.,1.));
#1402 = DIRECTION('',(1.,0.,0.));
#1403 = DEFINITIONAL_REPRESENTATION('',(#1404),#1408);
#1404 = CIRCLE('',#1405,18.8);
#1405 = AXIS2_PLACEMENT_2D('',#1406,#1407);
#1406 = CARTESIAN_POINT('',(0.,0.));
#1407 = DIRECTION('',(1.,0.));
#1408 = ( GEOMETRIC_REPRESENTATION_CONTEXT(2) 
PARAMETRIC_REPRESENTATION_CONTEXT() REPRESENTATION_CONTEXT('2D SPACE',''
  ) );
#1409 = ORIENTED_EDGE('',*,*,#1360,.T.);
#1410 = ORIENTED_EDGE('',*,*,#773,.T.);
#1411 = ORIENTED_EDGE('',*,*,#1412,.T.);
#1412 = EDGE_CURVE('',#746,#1076,#1413,.T.);
#1413 = SURFACE_CURVE('',#1414,(#1419,#1430),.PCURVE_S1.);
#1414 = ELLIPSE('',#1415,31.257956609458,18.8);
#1415 = AXIS2_PLACEMENT_3D('',#1416,#1417,#1418);
#1416 = CARTESIAN_POINT('',(0.,0.,-11.06358325374));
#1417 = DIRECTION('',(7.635879778443E-02,-0.795255306761,-0.60144686471)
  );
#1418 = DIRECTION('',(5.748532164119E-02,-0.598693384685,0.798912804335)
  );
#1419 = PCURVE('',#705,#1420);
#1420 = DEFINITIONAL_REPRESENTATION('',(#1421),#1429);
#1421 = B_SPLINE_CURVE_WITH_KNOTS('',6,(#1422,#1423,#1424,#1425,#1426,
    #1427,#1428),.UNSPECIFIED.,.F.,.F.,(7,7),(5.299487120256,
    5.673563109679),.PIECEWISE_BEZIER_KNOTS.);
#1422 = CARTESIAN_POINT('',(5.791811678272,16.719802955036));
#1423 = CARTESIAN_POINT('',(5.729465680035,18.016026004377));
#1424 = CARTESIAN_POINT('',(5.667119681798,19.247724195683));
#1425 = CARTESIAN_POINT('',(5.604773683561,20.405828477185));
#1426 = CARTESIAN_POINT('',(5.542427685324,21.482021493244));
#1427 = CARTESIAN_POINT('',(5.480081687087,22.468952058559));
#1428 = CARTESIAN_POINT('',(5.417735688849,23.360383297684));
#1429 = ( GEOMETRIC_REPRESENTATION_CONTEXT(2) 
PARAMETRIC_REPRESENTATION_CONTEXT() REPRESENTATION_CONTEXT('2D SPACE',''
  ) );
#1430 = PCURVE('',#761,#1431);
#1431 = DEFINITIONAL_REPRESENTATION('',(#1432),#1436);
#1432 = ELLIPSE('',#1433,31.257956609458,18.8);
#1433 = AXIS2_PLACEMENT_2D('',#1434,#1435);
#1434 = CARTESIAN_POINT('',(52.3047085665,17.099069459971));
#1435 = DIRECTION('',(-5.765364694152E-02,-0.998336645122));
#1436 = ( GEOMETRIC_REPRESENTATION_CONTEXT(2) 
PARAMETRIC_REPRESENTATION_CONTEXT() REPRESENTATION_CONTEXT('2D SPACE',''
  ) );
#1437 = ORIENTED_EDGE('',*,*,#1098,.F.);
#1438 = ORIENTED_EDGE('',*,*,#1176,.F.);
#1439 = ORIENTED_EDGE('',*,*,#1226,.T.);
#1440 = ORIENTED_EDGE('',*,*,#1441,.T.);
#1441 = EDGE_CURVE('',#1204,#661,#1442,.T.);
#1442 = SURFACE_CURVE('',#1443,(#1448,#1459),.PCURVE_S1.);
#1443 = ELLIPSE('',#1444,31.257956609458,18.8);
#1444 = AXIS2_PLACEMENT_3D('',#1445,#1446,#1447);
#1445 = CARTESIAN_POINT('',(0.,0.,-11.06358325374));
#1446 = DIRECTION('',(-7.635879778443E-02,0.795255306761,-0.60144686471)
  );
#1447 = DIRECTION('',(-5.748532164119E-02,0.598693384685,0.798912804335)
  );
#1448 = PCURVE('',#705,#1449);
#1449 = DEFINITIONAL_REPRESENTATION('',(#1450),#1458);
#1450 = B_SPLINE_CURVE_WITH_KNOTS('',6,(#1451,#1452,#1453,#1454,#1455,
    #1456,#1457),.UNSPECIFIED.,.F.,.F.,(7,7),(5.299487120256,
    5.673563109679),.PIECEWISE_BEZIER_KNOTS.);
#1451 = CARTESIAN_POINT('',(2.650219024683,16.719802955036));
#1452 = CARTESIAN_POINT('',(2.587873026445,18.016026004377));
#1453 = CARTESIAN_POINT('',(2.525527028208,19.247724195684));
#1454 = CARTESIAN_POINT('',(2.463181029971,20.405828477186));
#1455 = CARTESIAN_POINT('',(2.400835031734,21.482021493244));
#1456 = CARTESIAN_POINT('',(2.338489033497,22.468952058559));
#1457 = CARTESIAN_POINT('',(2.27614303526,23.360383297684));
#1458 = ( GEOMETRIC_REPRESENTATION_CONTEXT(2) 
PARAMETRIC_REPRESENTATION_CONTEXT() REPRESENTATION_CONTEXT('2D SPACE',''
  ) );
#1459 = PCURVE('',#676,#1460);
#1460 = DEFINITIONAL_REPRESENTATION('',(#1461),#1465);
#1461 = ELLIPSE('',#1462,31.257956609458,18.8);
#1462 = AXIS2_PLACEMENT_2D('',#1463,#1464);
#1463 = CARTESIAN_POINT('',(52.3047085665,17.099069459971));
#1464 = DIRECTION('',(-5.765364694152E-02,-0.998336645122));
#1465 = ( GEOMETRIC_REPRESENTATION_CONTEXT(2) 
PARAMETRIC_REPRESENTATION_CONTEXT() REPRESENTATION_CONTEXT('2D SPACE',''
  ) );
#1466 = ORIENTED_EDGE('',*,*,#688,.F.);
#1467 = ADVANCED_FACE('',(#1468),#676,.T.);
#1468 = FACE_BOUND('',#1469,.T.);
#1469 = EDGE_LOOP('',(#1470,#1471,#1492,#1493));
#1470 = ORIENTED_EDGE('',*,*,#1201,.F.);
#1471 = ORIENTED_EDGE('',*,*,#1472,.T.);
#1472 = EDGE_CURVE('',#1202,#633,#1473,.T.);
#1473 = SURFACE_CURVE('',#1474,(#1478,#1485),.PCURVE_S1.);
#1474 = LINE('',#1475,#1476);
#1475 = CARTESIAN_POINT('',(-52.152,7.12880515584,4.983527005533));
#1476 = VECTOR('',#1477,1.);
#1477 = DIRECTION('',(7.387167314124E-17,0.603207987745,0.797583928825)
  );
#1478 = PCURVE('',#676,#1479);
#1479 = DEFINITIONAL_REPRESENTATION('',(#1480),#1484);
#1480 = LINE('',#1481,#1482);
#1481 = CARTESIAN_POINT('',(-1.318262226409E-17,1.244153150788E-15));
#1482 = VECTOR('',#1483,1.);
#1483 = DIRECTION('',(-3.624035055318E-17,-1.));
#1484 = ( GEOMETRIC_REPRESENTATION_CONTEXT(2) 
PARAMETRIC_REPRESENTATION_CONTEXT() REPRESENTATION_CONTEXT('2D SPACE',''
  ) );
#1485 = PCURVE('',#648,#1486);
#1486 = DEFINITIONAL_REPRESENTATION('',(#1487),#1491);
#1487 = LINE('',#1488,#1489);
#1488 = CARTESIAN_POINT('',(20.175816910351,-7.862741448268E-16));
#1489 = VECTOR('',#1490,1.);
#1490 = DIRECTION('',(-7.184630090552E-17,-1.));
#1491 = ( GEOMETRIC_REPRESENTATION_CONTEXT(2) 
PARAMETRIC_REPRESENTATION_CONTEXT() REPRESENTATION_CONTEXT('2D SPACE',''
  ) );
#1492 = ORIENTED_EDGE('',*,*,#660,.T.);
#1493 = ORIENTED_EDGE('',*,*,#1441,.F.);
#1494 = ADVANCED_FACE('',(#1495),#648,.T.);
#1495 = FACE_BOUND('',#1496,.T.);
#1496 = EDGE_LOOP('',(#1497,#1498,#1499,#1500));
#1497 = ORIENTED_EDGE('',*,*,#1333,.T.);
#1498 = ORIENTED_EDGE('',*,*,#632,.T.);
#1499 = ORIENTED_EDGE('',*,*,#1472,.F.);
#1500 = ORIENTED_EDGE('',*,*,#1279,.F.);
#1501 = ADVANCED_FACE('',(#1502),#761,.T.);
#1502 = FACE_BOUND('',#1503,.T.);
#1503 = EDGE_LOOP('',(#1504,#1505,#1526,#1527));
#1504 = ORIENTED_EDGE('',*,*,#743,.F.);
#1505 = ORIENTED_EDGE('',*,*,#1506,.T.);
#1506 = EDGE_CURVE('',#744,#1053,#1507,.T.);
#1507 = SURFACE_CURVE('',#1508,(#1512,#1519),.PCURVE_S1.);
#1508 = LINE('',#1509,#1510);
#1509 = CARTESIAN_POINT('',(52.152,-7.12880515584,4.983527005533));
#1510 = VECTOR('',#1511,1.);
#1511 = DIRECTION('',(0.,-0.603207987745,0.797583928825));
#1512 = PCURVE('',#761,#1513);
#1513 = DEFINITIONAL_REPRESENTATION('',(#1514),#1518);
#1514 = LINE('',#1515,#1516);
#1515 = CARTESIAN_POINT('',(-0.,0.));
#1516 = VECTOR('',#1517,1.);
#1517 = DIRECTION('',(1.092736313184E-17,-1.));
#1518 = ( GEOMETRIC_REPRESENTATION_CONTEXT(2) 
PARAMETRIC_REPRESENTATION_CONTEXT() REPRESENTATION_CONTEXT('2D SPACE',''
  ) );
#1519 = PCURVE('',#913,#1520);
#1520 = DEFINITIONAL_REPRESENTATION('',(#1521),#1525);
#1521 = LINE('',#1522,#1523);
#1522 = CARTESIAN_POINT('',(20.175816910351,-1.674452564527E-15));
#1523 = VECTOR('',#1524,1.);
#1524 = DIRECTION('',(-3.285437615127E-17,-1.));
#1525 = ( GEOMETRIC_REPRESENTATION_CONTEXT(2) 
PARAMETRIC_REPRESENTATION_CONTEXT() REPRESENTATION_CONTEXT('2D SPACE',''
  ) );
#1526 = ORIENTED_EDGE('',*,*,#1075,.T.);
#1527 = ORIENTED_EDGE('',*,*,#1412,.F.);
#1528 = ADVANCED_FACE('',(#1529),#913,.T.);
#1529 = FACE_BOUND('',#1530,.T.);
#1530 = EDGE_LOOP('',(#1531,#1552,#1553,#1554));
#1531 = ORIENTED_EDGE('',*,*,#1532,.T.);
#1532 = EDGE_CURVE('',#872,#1030,#1533,.T.);
#1533 = SURFACE_CURVE('',#1534,(#1538,#1545),.PCURVE_S1.);
#1534 = LINE('',#1535,#1536);
#1535 = CARTESIAN_POINT('',(70.24,0.,10.375));
#1536 = VECTOR('',#1537,1.);
#1537 = DIRECTION('',(0.,-0.603207987745,0.797583928825));
#1538 = PCURVE('',#913,#1539);
#1539 = DEFINITIONAL_REPRESENTATION('',(#1540),#1544);
#1540 = LINE('',#1541,#1542);
#1541 = CARTESIAN_POINT('',(-0.,0.));
#1542 = VECTOR('',#1543,1.);
#1543 = DIRECTION('',(-3.285437615127E-17,-1.));
#1544 = ( GEOMETRIC_REPRESENTATION_CONTEXT(2) 
PARAMETRIC_REPRESENTATION_CONTEXT() REPRESENTATION_CONTEXT('2D SPACE',''
  ) );
#1545 = PCURVE('',#887,#1546);
#1546 = DEFINITIONAL_REPRESENTATION('',(#1547),#1551);
#1547 = LINE('',#1548,#1549);
#1548 = CARTESIAN_POINT('',(20.175816910351,-1.674452564527E-15));
#1549 = VECTOR('',#1550,1.);
#1550 = DIRECTION('',(-3.285437615127E-17,-1.));
#1551 = ( GEOMETRIC_REPRESENTATION_CONTEXT(2) 
PARAMETRIC_REPRESENTATION_CONTEXT() REPRESENTATION_CONTEXT('2D SPACE',''
  ) );
#1552 = ORIENTED_EDGE('',*,*,#1052,.T.);
#1553 = ORIENTED_EDGE('',*,*,#1506,.F.);
#1554 = ORIENTED_EDGE('',*,*,#899,.F.);
#1555 = ADVANCED_FACE('',(#1556),#887,.T.);
#1556 = FACE_BOUND('',#1557,.T.);
#1557 = EDGE_LOOP('',(#1558,#1559,#1560,#1561));
#1558 = ORIENTED_EDGE('',*,*,#975,.T.);
#1559 = ORIENTED_EDGE('',*,*,#1029,.T.);
#1560 = ORIENTED_EDGE('',*,*,#1532,.F.);
#1561 = ORIENTED_EDGE('',*,*,#871,.F.);
#1562 = ADVANCED_FACE('',(#1563),#1398,.F.);
#1563 = FACE_BOUND('',#1564,.T.);
#1564 = EDGE_LOOP('',(#1565));
#1565 = ORIENTED_EDGE('',*,*,#1383,.F.);
#1566 = ( GEOMETRIC_REPRESENTATION_CONTEXT(3) 
GLOBAL_UNCERTAINTY_ASSIGNED_CONTEXT((#1570)) 
GLOBAL_UNIT_ASSIGNED_CONTEXT((#1567,#1568,#1569)) REPRESENTATION_CONTEXT
('Context #1','3D Context with UNIT and UNCERTAINTY') );
#1567 = ( LENGTH_UNIT() NAMED_UNIT(*) SI_UNIT(.MILLI.,.METRE.) );
#1568 = ( NAMED_UNIT(*) PLANE_ANGLE_UNIT() SI_UNIT($,.RADIAN.) );
#1569 = ( NAMED_UNIT(*) SI_UNIT($,.STERADIAN.) SOLID_ANGLE_UNIT() );
#1570 = UNCERTAINTY_MEASURE_WITH_UNIT(LENGTH_MEASURE(2.E-07),#1567,
  'distance_accuracy_value','confusion accuracy');
#1571 = PRODUCT_RELATED_PRODUCT_CATEGORY('part',$,(#7));
ENDSEC;
END-ISO-10303-21;
