$MeshFormat
4.1 0 8
$EndMeshFormat
$Entities
36 54 20 1
1 18.196029684325 4.726997326757 13.95 0 
2 -17.39700934203 7.126293984464 13.95 0 
3 18.8 -4.604671964794e-15 10.375 0 
4 18.8 -4.604671964794e-15 -13.95 0 
5 16.328969213402 -9.316907449779 3.32867823789 0 
6 12.712049074776 -13.85076923208 8.86431931341 0 
7 17.397009342039 -7.126293984464 13.95 0 
8 -18.19602968432 -4.726997326757 13.95 0 
9 -16.3289692134 9.316907449779 3.32867823789 0 
10 -12.71204907477 13.850769232085 8.86431931341 0 
11 16.246288692278 4.726997326757 13.95 0 
12 -15.34608530039 7.126293984464 13.95 0 
13 -5.64 -1.439356543202 20.42815061436 0 
14 -5.64 -5.656861997937 23.617824937916 0 
15 -52.152 -2.815868043461 21.469198085568 0 
16 -70.23999999999999 4.312937112379 16.0777250911 0 
17 -52.152 11.441742268219 10.686252096633 0 
18 -52.152 7.12880515584 4.983527005533 0 
19 -16.24628869227 -4.726997326757 13.95 0 
20 -5.64 -9.354759354815 17.449948933049 0 
21 -5.64 -9.969799110315 17.915099846816 0 
22 -52.152 -7.12880515584 15.766472994467 0 
23 -70.23999999999999 8.601919117211001e-15 10.375 0 
24 15.346085300395 -7.126293984464 13.95 0 
25 7.685863538058 0 19.339573810472 0 
26 5.64 1.439356543202 20.42815061436 0 
27 5.64 5.656861997937 23.617824937916 0 
28 52.152 2.815868043461 21.469198085568 0 
29 70.23999999999999 -4.312937112379 16.0777250911 0 
30 52.152 -11.44174226821 10.686252096633 0 
31 52.152 -7.12880515584 4.983527005533 0 
32 5.64 9.354759354815 17.449948933049 0 
33 5.64 9.969799110315 17.915099846816 0 
34 52.152 7.12880515584 15.766472994467 0 
35 70.23999999999999 0 10.375 0 
36 1.5 0 22.95 0 
1 -17.39700944203771 4.72699722675697 13.9499999 18.19602978432489 18.8000001 13.9500001 0 2 1 -2 
2 18.19602958432491 -9.999999894816369e-08 10.3749999 18.8000001 4.726997426757164 13.95000009999976 0 2 1 -3 
3 18.7999999 -1.00000004604672e-07 -13.9500001 18.8000001 9.999999539532803e-08 10.3750001 0 2 4 -3 
4 -18.8000001 -18.8000001 -13.9500001 18.8000001 18.8000001 -13.9499999 0 2 4 -4 
5 16.32896911340248 -9.316907549779899 3.328678137890826 18.8000001 1.000000011686097e-07 10.3750001 0 2 3 -5 
6 12.71204897478009 -13.85076933208038 3.328678137893689 16.32896931340396 -9.316907349775493 8.864319413413421 0 2 5 -6 
7 12.712048974778 -13.85076933208448 8.86431921341304 17.39700944203898 -7.126293884464456 13.9500001000006 0 2 7 -6 
8 -18.19602978432457 -18.8000001 13.9499999 17.397009442039 -4.726997226758183 13.9500001 0 2 8 -7 
9 -18.8000001 -4.726997426757956 3.328678137890371 -16.32896911340213 9.316907549780501 13.95000010000036 0 2 8 -9 
10 -16.32896931340374 9.316907349775883 3.328678137894177 -12.71204897477658 13.8507693320836 8.864319413417229 0 2 9 -10 
11 -17.39700944203812 7.126293884466572 8.864319213409878 -12.71204897477344 13.85076933208866 13.950000099999 0 2 2 -10 
12 16.246288592278 4.726997226757 13.9499999 18.196029784325 4.726997426757 13.9500001 0 2 1 -11 
13 -17.39700944203 7.126293884463999 13.9499999 -15.34608520039 7.126294084464 13.9500001 0 2 2 -12 
14 -15.34608540039392 4.726997226756936 13.9499999 16.24628879227778 16.9200001 13.9500001 0 2 11 -12 
15 -15.34608548412942 -1.43935672693663 13.94999981626627 -5.639999816260633 7.126294168204216 20.42815079810016 0 2 12 -13 
16 -5.640000100000002 -5.656862097938185 20.42815051435824 -5.639999900000001 -1.439356443203331 23.61782503791443 0 2 13 -14 
17 -52.15200010000005 -5.656862097937 21.46919798556755 -5.639999899999999 -2.815867943461882 23.617825037916 0 2 14 -15 
18 -70.24000010000213 -2.815868143461 16.07772499110742 -52.1519999 4.312937212379183 21.469198185568 0 2 15 -16 
19 -70.24000009999999 4.312937012379 10.6862519966395 -52.1519998999981 11.44174236821909 16.0777251911 0 2 16 -17 
20 -52.1520001 11.441742168219 8.864319213410306 -12.71204897477002 13.85076933208582 10.686252196633 0 2 17 -10 
21 -52.1520001 7.12880505584 3.328678137890377 -16.32896911339999 9.316907549779339 4.983527105533001 0 2 18 -9 
22 -52.1520001 7.12880505584 4.983526905533 -52.1519999 11.44174236821817 10.68625219663363 0 2 18 -17 
23 -16.24628879226921 -9.354759454804343 13.94999990000709 -5.639999899998063 -4.726997226750343 17.44994903305243 0 2 19 -20 
24 -5.640000100000002 -9.969799210316548 17.44994883304734 -5.639999900000001 -9.354759254816251 17.91509994681395 0 2 20 -21 
25 -52.15200010000003 -9.969799210314999 15.76647289446756 -5.639999899999999 -7.128805055839883 17.915099946816 0 2 21 -22 
26 -70.24000010000189 -7.128805255840001 10.37499990000649 -52.1519999 1.000000886541841e-07 15.766473094467 0 2 22 -23 
27 -70.24000009999999 -9.999999139864713e-08 4.983526905539496 -52.1519998999981 7.128805255840096 10.3750001 0 2 23 -18 
28 -18.19602978432 -4.726997426757 13.9499999 -16.24628859227 -4.726997226757 13.9500001 0 2 8 -19 
29 15.346085200395 -7.126294084464 13.9499999 17.397009442039 -7.126293884463999 13.9500001 0 2 7 -24 
30 -16.24628879227716 -16.9200001 13.9499999 15.34608540039481 -4.726997226759083 13.9500001 0 2 19 -24 
31 5.639999618287312 -3.817142469886292e-07 19.33957342876091 7.685863919770253 1.439356924913384 20.4281509960741 0 2 25 -26 
32 5.639999899999999 1.439356443204788 20.42815051435631 5.6400001 5.656862097939642 23.61782503791251 0 2 26 -27 
33 5.639999899999999 2.815867943461882 21.46919798556755 52.15200010000005 5.656862097937 23.617825037916 0 2 27 -28 
34 52.1519999 -4.312937212379183 16.07772499110742 70.24000010000213 2.815868143461 21.469198185568 0 2 28 -29 
35 52.15199990000094 -11.44174236821796 10.68625199664035 70.24000009999999 -4.312937012379 16.0777251911 0 2 29 -30 
36 12.71204897477575 -13.85076933207647 8.864319213410571 52.1520001 -11.44174216821 10.686252196633 0 2 30 -6 
37 7.685863199614682 -7.126294322909162 13.94999966155908 15.34608563883725 3.384413242990547e-07 19.33957414891648 0 2 24 -25 
38 16.32896911340198 -9.316907549779218 3.328678137890468 52.1520001 -7.12880505584 4.983527105533001 0 2 31 -5 
39 52.1519999 -11.44174236821489 4.983526905533 52.1520001 -7.12880505584 10.6862521966293 0 2 31 -30 
40 5.639999900000041 4.726997226754151 13.94999990000316 16.24628879227773 9.354759454812877 17.44994903305208 0 2 11 -32 
41 5.639999899999999 9.354759254816251 17.44994883304734 5.6400001 9.969799210316548 17.91509994681395 0 2 32 -33 
42 5.639999899999999 7.128805055839883 15.76647289446756 52.15200010000003 9.969799210314999 17.915099946816 0 2 33 -34 
43 52.1519999 -1.000000877660057e-07 10.37499990000649 70.24000010000189 7.128805255840001 15.766473094467 0 2 34 -35 
44 52.1519998999981 -7.128805255840089 4.983526905539495 70.24000009999999 9.999999983634211e-08 10.3750001 0 2 35 -31 
45 -5.640000100000001 -9.354759454815463 17.44994883304992 -5.639999899999999 -1.439356443202087 20.4281507143606 0 2 20 -13 
46 1.4999999 -1e-07 19.33957371047198 7.685863638057994 1e-07 22.9500001 0 2 25 -36 
47 -1.5000001 -1.5000001 22.9499999 1.5000001 1.5000001 22.9500001 0 2 36 -36 
48 5.639999899999999 1.439356443202088 17.44994883304992 5.6400001 9.354759454815463 20.4281507143606 0 2 32 -26 
49 -70.24000009999999 -9.999999139864713e-08 10.3749999 -70.2399999 4.312937212378175 16.07772519110062 0 2 23 -16 
50 -52.1520001 -7.128805255840001 15.766472894467 -52.1519999 -2.815867943461349 21.46919818556826 0 2 22 -15 
51 -5.6400001 -9.969799210314999 17.915099746816 -5.639999899999999 -5.656861897937191 23.61782503791615 0 2 21 -14 
52 70.2399999 -4.31293721237817 10.3749999 70.24000009999999 9.999999983634211e-08 16.07772519110063 0 2 35 -29 
53 52.1519999 2.815867943461349 15.766472894467 52.1520001 7.128805255840001 21.46919818556826 0 2 34 -28 
54 5.639999899999999 5.656861897937191 17.915099746816 5.6400001 9.969799210314999 23.61782503791615 0 2 33 -27 
1 -18.8000001 -18.8000001 -13.9500001 18.8000001 18.8000001 13.95000010000222 0 12 -1 2 -3 4 3 5 6 -7 -8 9 10 -11 
2 -17.39700944203771 4.726997226756936 13.9499999 18.196029784325 18.8000001 13.9500001 0 4 -12 1 13 -14 
3 -70.24000018374028 -5.656862181676317 8.864319129671745 -5.639999816260634 13.85076941582679 23.61782512165413 0 8 15 16 17 18 19 20 -11 13 
4 -52.1520001 7.12880505584 3.328678137890377 -12.71204897477002 13.85076933208582 10.68625219663363 0 4 -21 22 20 -10 
5 -70.24000010000189 -9.969799210316548 3.328678137890371 -5.639999899998067 9.316907549780499 17.915099946816 0 8 23 24 25 26 27 21 -9 28 
6 -18.19602978432457 -18.8000001 13.9499999 17.397009442039 -4.726997226757 13.9500001 0 4 -28 8 29 -30 
7 5.639999618287312 -13.85076961379709 8.864318931697953 70.24000038171475 5.656862379652257 23.61782531962862 0 9 31 32 33 34 35 36 -7 29 37 
8 12.71204897477575 -13.85076933208038 3.328678137890468 52.1520001 -7.12880505584 10.686252196633 0 4 -38 39 36 -6 
9 5.639999899999999 -9.316907549779899 3.328678137890469 70.24000010000189 9.969799210316548 17.915099946816 0 9 40 41 42 43 44 38 -5 -2 12 
10 -18.8000001 -18.8000001 -13.9500001 18.8000001 18.8000001 -13.9499999 0 1 4 
11 -16.9200001 -16.9200001 13.9499999 16.9200001 16.9200001 22.9500001 0 12 -40 14 15 -45 -23 30 37 46 -47 -46 31 -48 
12 -70.24000009999999 -9.999999139864713e-08 4.983526905533 -52.1519998999981 11.44174236821909 16.07772519110062 0 4 49 19 -22 -27 
13 -70.24000010000213 -7.128805255840001 10.3749999 -52.1519999 4.312937212379183 21.46919818556826 0 4 50 18 -49 -26 
14 -52.15200010000005 -9.969799210314999 15.766472894467 -5.639999899999999 -2.815867943461349 23.61782503791615 0 4 51 17 -50 -25 
15 -5.640000100000002 -9.969799210316548 17.44994883304734 -5.639999899999999 -1.439356443202087 23.61782503791615 0 4 -24 45 16 -51 
16 52.1519998999981 -11.44174236821796 4.983526905533 70.24000009999999 1.000000002804313e-07 16.07772519110063 0 4 52 35 -39 -44 
17 52.1519999 -4.312937212379183 10.3749999 70.24000010000213 7.128805255840001 21.46919818556826 0 4 53 34 -52 -43 
18 5.639999899999999 2.815867943461349 15.766472894467 52.15200010000005 9.969799210314999 23.61782503791615 0 4 54 33 -53 -42 
19 5.639999899999999 1.439356443202088 17.44994883304734 5.6400001 9.969799210316548 23.61782503791615 0 4 -41 48 32 -54 
20 -1.5000001 -1.5000001 22.9499999 1.5000001 1.5000001 22.9500001 0 1 47 
1 -70.24000038171475 -18.80000038171262 -13.95000038171261 70.24000038171475 18.80000038171262 23.61782531962876 0 20 1 2 -3 4 5 6 -7 8 9 -10 11 12 13 14 15 16 17 18 19 20 
$EndEntities
$Nodes
111 473 1 473
0 1 0 1
1
18.196029684325 4.726997326757 13.95
0 2 0 1
2
-17.39700934203 7.126293984464 13.95
0 3 0 1
3
18.8 -4.604671964794e-15 10.375
0 4 0 1
4
18.8 -4.604671964794e-15 -13.95
0 5 0 1
5
16.328969213402 -9.316907449779 3.32867823789
0 6 0 1
6
12.712049074776 -13.85076923208 8.86431931341
0 7 0 1
7
17.397009342039 -7.126293984464 13.95
0 8 0 1
8
-18.19602968432 -4.726997326757 13.95
0 9 0 1
9
-16.3289692134 9.316907449779 3.32867823789
0 10 0 1
10
-12.71204907477 13.850769232085 8.86431931341
0 11 0 1
11
16.246288692278 4.726997326757 13.95
0 12 0 1
12
-15.34608530039 7.126293984464 13.95
0 13 0 1
13
-5.64 -1.439356543202 20.42815061436
0 14 0 1
14
-5.64 -5.656861997937 23.617824937916
0 15 0 1
15
-52.152 -2.815868043461 21.469198085568
0 16 0 1
16
-70.23999999999999 4.312937112379 16.0777250911
0 17 0 1
17
-52.152 11.441742268219 10.686252096633
0 18 0 1
18
-52.152 7.12880515584 4.983527005533
0 19 0 1
19
-16.24628869227 -4.726997326757 13.95
0 20 0 1
20
-5.64 -9.354759354815 17.449948933049
0 21 0 1
21
-5.64 -9.969799110315 17.915099846816
0 22 0 1
22
-52.152 -7.12880515584 15.766472994467
0 23 0 1
23
-70.23999999999999 8.601919117211001e-15 10.375
0 24 0 1
24
15.346085300395 -7.126293984464 13.95
0 25 0 1
25
7.685863538058 0 19.339573810472
0 26 0 1
26
5.64 1.439356543202 20.42815061436
0 27 0 1
27
5.64 5.656861997937 23.617824937916
0 28 0 1
28
52.152 2.815868043461 21.469198085568
0 29 0 1
29
70.23999999999999 -4.312937112379 16.0777250911
0 30 0 1
30
52.152 -11.44174226821 10.686252096633
0 31 0 1
31
52.152 -7.12880515584 4.983527005533
0 32 0 1
32
5.64 9.354759354815 17.449948933049
0 33 0 1
33
5.64 9.969799110315 17.915099846816
0 34 0 1
34
52.152 7.12880515584 15.766472994467
0 35 0 1
35
70.23999999999999 0 10.375
0 36 0 1
36
1.5 0 22.95
1 1 0 6
37
38
39
40
41
42
15.39737810247357 10.78706389938743 13.95
10.65763671012646 15.48724571235844 13.95
4.574326959302198 18.23500844171456 13.95
-2.085651065268709 18.68395192762879 13.95
-8.482698868596787 16.77747954565008 13.95
-13.81036458428929 12.75593313125339 13.95
1 2 0 0
1 3 0 3
43
44
45
18.8 -4.604671964794e-15 -7.868749999999983
18.8 -4.604671964794e-15 -1.787499999999966
18.8 -4.604671964794e-15 4.293750000000031
1 4 0 15
46
47
48
49
50
51
52
53
54
55
56
57
58
59
60
17.36893521121219 7.194448528463696 -13.95
13.29360748630708 13.29360748630711 -13.95
7.194448528463658 17.3689352112122 -13.95
-4.894209487988856e-14 18.8 -13.95
-7.194448528463741 17.36893521121217 -13.95
-13.29360748630712 13.29360748630707 -13.95
-17.3689352112122 7.194448528463659 -13.95
-18.8 -2.274429545314651e-14 -13.95
-17.36893521121218 -7.194448528463724 -13.95
-13.29360748630706 -13.29360748630713 -13.95
-7.194448528463653 -17.36893521121221 -13.95
2.994200460712918e-14 -18.8 -13.95
7.194448528463723 -17.36893521121218 -13.95
13.2936074863071 -13.29360748630708 -13.95
17.36893521121219 -7.194448528463684 -13.95
1 5 0 1
61
18.18636708978894 -4.764037371331609 6.771986834305376
1 6 0 1
62
14.76054456614734 -11.64329524278875 6.205589431590113
1 7 0 1
63
15.47478519095297 -10.67572120720075 11.26558927493965
1 8 0 6
64
65
66
67
68
69
-15.39737810247266 -10.78706389938873 13.95
-10.65763671012487 -15.48724571235953 13.95
-4.574326959300034 -18.2350084417151 13.95
2.085651065271203 -18.68395192762851 13.95
8.482698868599297 -16.77747954564881 13.95
13.8103645842914 -12.75593313125111 13.95
1 9 0 2
70
71
-18.79998308087723 0.02522218725500095 10.3559246095981
-18.1831290474488 4.776381270776668 6.762651216477482
1 10 0 1
72
-14.76054456614583 11.64329524279066 6.20558943159245
1 11 0 1
73
-15.47478519095062 10.67572120720415 11.26558927493708
1 12 0 0
1 13 0 0
1 14 0 6
74
75
76
77
78
79
13.67794637246067 9.959928866818778 13.95
9.486138882284449 14.01069481167908 13.95
4.168400959482346 16.39850095103168 13.95
-1.644093529074128 16.83993338667516 13.95
-7.261446984862801 15.28259754380868 13.95
-12.01692352248563 11.91133699694252 13.95
1 15 0 2
80
81
-11.77315899643541 3.560770156864198 16.64658449171183
-8.455284242196814 0.6107909967260241 18.8776362077339
1 16 0 0
1 17 0 3
82
83
84
-17.26799999999997 -4.946613509318222 23.08066822482889
-28.89599999999994 -4.236365020699446 22.54351151174178
-40.52399999999999 -3.526116532080664 22.00635479865467
1 18 0 1
85
-61.19600000000108 0.7485345344590928 18.77346158833771
1 19 0 1
86
-61.19599999999903 7.877339690299051 13.38198859386974
1 20 0 3
87
88
89
-41.50902420182321 12.09182461041554 10.19459868269988
-30.8660484036464 12.74190695261207 9.70294526876676
-20.58714149751194 13.36975164600175 9.228110056535286
1 21 0 3
90
91
92
-42.4132591290057 7.723656031714926 4.533644821505618
-32.6745182580114 8.318506907589851 4.083762637478236
-23.4355863938715 8.882829008807365 3.656969184384224
1 22 0 0
1 23 0 1
93
-11.66226883663062 -7.205347514958916 15.82436152602117
1 24 0 0
1 25 0 3
94
95
96
-17.26799999999997 -9.259550621696222 17.37794313372889
-28.89599999999994 -8.549302133077447 16.84078642064178
-40.52399999999998 -7.839053644458665 16.30362970755467
1 26 0 1
97
-61.19600000000097 -3.564402577919948 13.07073649723674
1 27 0 1
98
-61.19599999999903 3.564402577920059 7.679263502769743
1 28 0 0
1 29 0 0
1 30 0 6
99
100
101
102
103
104
-13.67794637245936 -9.959928866820579 13.95
-9.486138882282606 -14.01069481168033 13.95
-4.168400959480214 -16.39850095103222 13.95
1.644093529076279 -16.83993338667495 13.95
7.261446984864727 -15.28259754380776 13.95
12.01692352248713 -11.91133699694101 13.95
1 31 0 1
105
6.63564661162332 0.7756235131831453 19.92617326631405
1 32 0 0
1 33 0 3
106
107
108
17.26799999999997 4.946613509318222 23.08066822482889
28.89599999999994 4.236365020699446 22.54351151174178
40.52399999999999 3.526116532080664 22.00635479865467
1 34 0 1
109
61.19600000000108 -0.7485345344590928 18.77346158833771
1 35 0 1
110
61.19600000000047 -7.877339690298482 13.38198859387017
1 36 0 3
111
112
113
41.50902420182462 -12.09182461040645 10.19459868269995
30.86604840364927 -12.74190695260289 9.702945268766893
20.58714149751642 -13.36975164599247 9.228110056535492
1 37 0 1
114
11.48892785602036 -3.291687154482988 16.85009036806527
1 38 0 3
115
116
117
42.4132591290062 -7.723656031714895 4.533644821505641
32.6745182580124 -8.318506907589789 4.083762637478282
23.43558639387307 -8.882829008807267 3.656969184384297
1 39 0 0
1 40 0 1
118
11.6622688366373 7.205347514964799 15.82436152601881
1 41 0 0
1 42 0 3
119
120
121
17.26799999999997 9.259550621696222 17.37794313372889
28.89599999999994 8.549302133077447 16.84078642064178
40.52399999999998 7.839053644458665 16.30362970755467
1 43 0 1
122
61.19600000000096 3.56440257791995 13.07073649723674
1 44 0 1
123
61.19599999999903 -3.564402577920051 7.679263502769743
1 45 0 1
124
-5.640000000000001 -4.995354351218035 19.42813229534116
1 46 0 2
125
126
5.105386102007342 0 20.84568904552101
3.153145939987189 0 21.98512882880125
1 47 0 6
127
128
129
130
131
132
0.9352347027881024 1.172747223702043 22.95
-0.3337814009344663 1.462391868272737 22.95
-1.351453301853625 0.6508256086763451 22.95
-1.351453301853633 -0.6508256086763292 22.95
-0.3337814009344771 -1.462391868272734 22.95
0.9352347027880991 -1.172747223702046 22.95
1 48 0 1
133
5.64 4.995354351218036 19.42813229534116
1 49 0 0
1 50 0 0
1 51 0 0
1 52 0 0
1 53 0 0
1 54 0 0
2 1 0 69
134
135
136
137
138
139
140
141
142
143
144
145
146
147
148
149
150
151
152
153
154
155
156
157
158
159
160
161
162
163
164
165
166
167
168
169
170
171
172
173
174
175
176
177
178
179
180
181
182
183
184
185
186
187
188
189
190
191
192
193
194
195
196
197
198
199
200
201
202
12.11108249720747 -14.37921001814199 4.927606308334259
-11.28836006259055 15.03372632108589 4.793022040468113
-17.82654875756447 -5.97111039875974 8.026309855274111
1.264422591451152 18.7574314742245 8.176918951539317
-1.436792546895024 -18.74501606233473 8.040089958746442
13.23778215903055 13.34919935839047 8.176918951539339
-10.19613546647527 -15.79489859256099 -7.008321422850365
-18.22854537226536 4.600014522940456 1.509855135715773
-3.667698053903263 18.43876327158072 -7.607639629455204
3.667698053903245 -18.43876327158073 -7.607639629455215
10.31503059441944 15.71751073917848 -7.588911258392919
18.06233507521609 -5.214599853355814 -4.828124999999975
-16.79433321727853 8.449282323784377 -1.601399018606577
-18.51349062244338 -3.269658234846705 -7.434222754130152
18.10598095663855 5.060973582013869 1.302202027695728
-14.76065217589143 -11.64315882148618 7.177741516909464
-17.10617680400951 -7.798635467180594 1.928944092622483
-13.84796012277649 12.71510913983801 0.1876720633294244
-10.63457988823851 15.50308713129979 0.1854664041220797
-7.229635934464349 17.35431831721148 4.111580000966367
-12.57738641040787 13.97316539239723 -4.412946808828918
9.320261314530718 -16.32705512420602 7.547815000133316
8.448255805503409 -16.79484962257114 2.966659517941537
11.6216715754523 -14.77757591055868 -0.2458192314037042
-13.39303578658685 -13.19342989594457 0.6864071575782091
-10.36455139514562 -15.68489956542231 5.822732259792861
-18.38911833789227 3.909005852514684 -3.9036174151086
-18.7569471499667 -1.271587045135439 -0.2759578797916546
-8.556702771153549 -16.73985775585125 -0.361670911428897
-15.65510290397818 -10.40950301723641 -5.811461986489457
-16.44950517703885 9.102405145376242 -7.964947606055675
18.15585795384461 -4.879018544729807 1.707874507522272
18.00157607425153 5.420632697659456 8.036374493160157
-4.87315530251874 18.15743256623947 -0.8944683314407591
-3.862880175450508 -18.39886292003154 -6.357106134353711
0.9157899693665352 -18.7776816655307 -0.8684509952420179
3.723958582736485 18.42748307485489 -7.63956136844908
7.487975624668361 17.24442579630799 -1.466198171499425
13.1504197502506 13.43526927129557 -1.380022146463444
15.45308795899051 10.70710383491738 -7.431513206174649
15.63162871128786 -10.44472038076851 -8.309809066076575
10.88698742298649 -15.32688829644602 -7.901189941976749
16.64434667539323 -8.741036766272426 -1.430356039568998
18.02985853457269 5.325805218302328 -4.841447205257014
7.713483981029622 17.14474161002141 8.199100176438861
6.274244483496302 -17.7221289962949 -1.845724734706819
1.351618283259131 18.75135003183397 -1.620070225361108
5.204019168157473 -18.06538636446643 7.797507642650505
-2.407098193163753 18.64526423219762 3.739884027990197
-4.554967892685773 18.23985382333427 8.502552945452756
15.61164855958039 10.47456105295834 4.31440197002242
14.37720563417339 -12.11346185665737 -3.698924820135465
14.19444349032995 -12.32711539654876 2.529231886158094
-18.76457520468194 -1.15356724460947 4.817174070277268
-9.335671465693339 16.31824862798209 -8.533214180570381
-8.731975408476567 16.64910224203577 8.464728912742206
10.65450294399726 15.48940176431465 3.450413783842944
-18.43876327158074 3.667698053903185 -9.548860000259499
-2.861009421960868 -18.58102863372884 2.70654097670851
4.516934062190276 18.24930975894226 3.21881903596848
-17.8815142706816 -5.804433425185461 -2.842793187746853
16.36913809575315 9.246151523859156 -1.787499999998463
18.23350784582533 -4.580304753640996 -9.780046890505965
-5.912879183906504 -17.84594799265439 8.931144040174932
-8.926857149447025 16.54542901932031 -3.85302447020938
18.15750157956404 4.872898150806085 -9.462887368972325
16.1651978459273 9.598248725784687 9.253213064951044
-13.01519260563932 13.56630979441762 -8.96545050986874
2.840147827650972 -18.58422880608957 2.429123591306087
2 2 0 0
2 3 0 15
203
204
205
206
207
208
209
210
211
212
213
214
215
216
217
-24.71760943992032 8.343113767431404 13.02972642601602
-32.57925726887104 6.729222215374291 14.25030302036792
-23.94072797219043 0.504626239409792 18.95792798307075
-46.65780601699404 4.018135283566238 16.3006819631168
-19.32559463740843 9.896529695309269 11.85488718700744
-12.94456666104623 0.06074241662029767 19.29363468158945
-17.26279102405677 1.54614530066322 18.17023330363773
-9.989570180648361 -2.274259727422758 21.05958293328436
-21.02034005686937 4.889959608189113 15.64132640501566
-54.67076120339846 4.253976746614969 16.12231646550448
-26.93079259388007 4.221477461124183 16.14689548207635
-20.69898482177041 7.494607903887912 13.6714463705138
-16.55987694395793 4.849892606928794 15.67162884007202
-32.02532963146345 1.04952277484333 18.54582596999195
-38.96379356097755 3.353386869856565 16.80342723981918
2 4 0 3
218
219
220
-18.7373388780227 11.10669547078005 6.000965231461732
-47.0565708327072 9.59650701654712 7.599505651593061
-37.54388869350855 9.838601125677322 6.711895493228253
2 5 0 9
221
222
223
224
225
226
227
228
229
-27.83002959962796 2.74697241330848 8.297481080751066
-23.23088714632516 -1.359389518654667 11.40309821822431
-46.33894309600431 0.2954996354998697 10.15151538093069
-36.59435182369901 1.428261696404457 9.294814162842261
-22.31519869555917 -6.072768360575096 14.96779863903545
-54.60698861920088 0.05909992709932708 10.33030307618663
-29.78536085954472 -2.676011165227756 12.39885134883324
-17.22115918829438 -6.71745630508946 15.45537230204402
-22.39594959388832 2.876023062519981 8.199880841309513
2 6 0 0
2 7 0 13
230
231
232
233
234
235
236
237
238
239
240
241
242
24.85676410543207 -8.238585577266054 13.10878047534366
34.2760967678841 -6.906707215769547 14.11607216882473
22.38064193230452 -0.2258645360322689 19.16875380349876
44.17246803961775 -4.074998077416917 16.25767696989087
19.32559463740923 -9.896529695305825 11.85488718701004
10.95628102853514 0.9831899879667541 20.0831545582505
16.52836466552804 -1.128810205296423 18.4858613573053
20.93358009458764 -4.62909579432713 15.83861615791601
20.80325318028116 -7.412177267005077 13.73378817155271
54.17369360792406 -4.265349305384766 16.11371546685955
16.338793451714 -4.66043622460659 15.8149135766569
27.90747330411706 -3.379040578030503 16.78402549270951
34.71945369856025 -0.7290114173213449 18.78822680585768
2 8 0 3
243
244
245
18.73733887802166 -11.10669547077837 6.000965231459386
47.05657083270795 -9.596507016545438 7.599505651590931
37.5438886935093 -9.838601125675893 6.711895493226461
2 9 0 9
246
247
248
249
250
251
252
253
254
27.8214200155592 -2.741365024030047 8.301721915954612
23.22138528219488 1.367615972927152 11.40931983672569
46.33824216833511 -0.2959287707292326 10.15119082850578
36.58845387181581 -1.427066300308372 9.295718233809112
22.29775566751239 6.069225949566792 14.96511953463169
54.60684843366703 -0.05918575414519708 10.33023816570165
29.75928365998195 2.678005287755104 12.40035949185564
17.22115918830148 6.712023824311625 15.45126374910052
22.39401894661204 -2.860196181597999 8.211850617339593
2 10 0 25
255
256
257
258
259
260
261
262
263
264
265
266
267
268
269
270
271
272
273
274
275
276
277
278
279
11.85389241373698 -2.357885802680188 -13.95
-11.92163525846864 2.685932752989182 -13.95
-2.46180730599398 -12.57643953399906 -13.95
1.244373982616205 11.21995739110893 -13.95
7.306548540491269 -10.97512820231875 -13.95
-6.578136028965108 10.74747425386539 -13.95
-10.28081638396174 -7.107456217057707 -13.95
10.04924474954782 6.714690668870539 -13.95
-13.98261947623212 -2.781315942186268 -13.95
-6.118078220667948 -1.241234979430291 -13.95
-3.881155758629348 -7.463651763715939 -13.95
1.376662895082656 -3.136019263055194 -13.95
0.7774545237431663 3.77358650094096 -13.95
6.92235013319243 1.308485145347014 -13.95
-5.047613348501569 5.015165963304083 -13.95
2.759063075705671 -13.75580516161824 -13.95
13.98261947623212 2.781315942186247 -13.95
-3.132052643703173 14.53409171404662 -13.95
7.488774441345678 11.35525058194512 -13.95
11.85389241373698 -7.920517687052682 -13.95
-7.920517687052654 -11.85389241373699 -13.95
-10.84198546669093 7.787325796985876 -13.95
7.004406989647423 -4.680195121775033 -13.95
5.29643956608906 6.874394057642514 -13.95
2.017286406050615 -8.764539841080369 -13.95
2 11 0 64
280
281
282
283
284
285
286
287
288
289
290
291
292
293
294
295
296
297
298
299
300
301
302
303
304
305
306
307
308
309
310
311
312
313
314
315
316
317
318
319
320
321
322
323
324
325
326
327
328
329
330
331
332
333
334
335
336
337
338
339
340
341
342
343
6.295338914940706 -2.263848811024194 19.9208082439266
0.8483801095960782 -2.463023836372503 22.30503481475176
-7.854237372771488 5.083498410919367 18.36490250034629
-1.727257051686218 2.065608741811173 22.25392328079118
0.592520716222449 2.364132455916179 22.40296506945722
-0.7829291684648414 3.515433472611247 21.72340725173469
10.55457937493004 -6.538904845619038 16.57880866752698
3.985059383040673 -2.447988869685693 21.09578106903578
4.307843862936918 -4.441600027936001 20.21409688454543
-2.493539814659888 3.005959189883204 21.54596674977772
-1.676361406908069 5.171074915908516 20.65271797225008
1.148055617295981 3.877018750293429 21.46550923093954
0.4565698174911711 6.059222609581426 20.27894952820962
-1.838999237891035 7.25543085566323 19.45688848202611
-1.567952568006975 -1.877508526214241 22.39778863451113
-0.7924693693453142 -3.488190388073575 21.73769824732355
-2.952360495121218 -7.14858693444374 19.31132873843687
1.028494086701862 -3.84981788345486 21.4997080886179
2.525363072564083 -2.266983020285573 21.84477311875867
1.943665803022316 2.286124483444622 22.07410492049383
-3.866009388863624 0.2527789833753559 21.56424248010452
-4.570951635540299 2.647519574888375 20.74241724068894
3.380367312462363 3.035437126295842 21.17380709682744
3.089815867397725 -12.1387400522594 16.51470103005574
-10.58482378927807 7.857632733811074 16.13136310586066
-2.45823628713689 -13.15481433661761 16.01467215103607
-6.447965936883985 9.210745182263338 17.26318941623923
4.176616389339523 1.345933104967508 21.26432264169927
1.293292727648405 9.021158865342679 18.50638600478673
-3.165117427754316 -2.625366951840697 21.42534615123007
-2.608979030577887 -0.9222379679753967 22.21039979751213
-4.456950531113931 5.51374328188456 19.68744986684218
-2.150255012861432 10.31440670018679 17.67597901766232
0.8259651685835598 12.59764701460523 16.45698724032639
-0.514010851631074 -5.368846870891246 20.67758969573514
1.733776126190452 -5.678164998098933 20.36033249901792
6.665654926974837 -5.098614592302083 18.92739148590785
4.766091770120079 -6.908156825868308 18.92699385293117
2.110455336809064 -8.429922397815627 18.75345112384995
4.692260896282374 2.826467879385196 20.62833003664224
2.248643868176971 -1.009441111849991 22.38687158260529
8.261498638603639 -3.297046228046471 18.63379149169801
-2.885840890507476 -4.876210131410661 20.51838221666798
2.78524801731445 -3.613347824890977 21.16270965115872
3.228571911283551 6.931552076801964 19.36250556798374
7.710828728520821 -10.45108143751993 16.24508007006442
2.308728731601078 5.270517724654979 20.46711710063971
9.172186675172822 10.56534494135666 15.65937786582861
-9.549727115302357 -10.19593158278411 15.671927572106
-3.682869786401331 12.77062349283804 16.06805664575693
1.676190261472938 -1.821223539088135 22.38083434230319
5.1052341969551 12.91354810237962 15.72077204557262
4.739132240811228 -9.156349522979484 17.80791973226752
6.624460661070827 -7.836710635800899 17.83630877776953
-6.089700481192713 -12.40686267703125 15.75886777776133
-0.8635184827996247 -9.889204375558888 18.03161457068293
-0.4152089041969827 -7.39190115390372 19.50434633725448
-6.654199818220492 2.760087455439566 19.62086403132992
-4.986347122588665 1.09849859090689 20.84538099067613
2.326374958152743 1.103380516211767 22.3226991093162
3.106513504939214 1.642292926664424 21.7745670842232
-4.251606887818 8.151445106303365 18.45957396867779
-4.397432378265527 -3.498574529047336 20.54569241629023
3.84634755143181 4.62546882883617 20.31434323735875
2 12 0 2
344
345
-56.67400000000157 7.503072423073633 9.182757799699907
-65.71800000000093 3.938669845151816 11.87849429693314
2 13 0 2
346
347
-65.7179999999984 0.3742672672346465 14.57423079416828
-56.67399999999898 -3.190135310687985 17.26996729140049
2 14 0 4
348
349
350
351
-34.70999999999994 -6.037709332578793 19.42357060964802
-11.45399999999998 -7.458206309816534 20.49788403582239
-23.08199999999994 -6.747957821197664 19.96072732273521
-46.33799999999997 -5.327460843959907 18.88641389656086
2 15 0 0
2 16 0 2
352
353
56.67400000000087 -7.50307242307268 9.182757799698082
65.71800000000128 -3.93866984515167 11.87849429693325
2 17 0 2
354
355
65.7179999999984 -0.3742672672346465 14.57423079416828
56.67399999999898 3.190135310687986 17.26996729140049
2 18 0 4
356
357
358
359
34.70999999999994 6.037709332578793 19.42357060964802
23.08199999999994 6.747957821197664 19.96072732273521
11.45399999999998 7.458206309816537 20.49788403582238
46.33799999999996 5.327460843959907 18.88641389656086
2 19 0 0
2 20 0 1
360
0 2.252166707096746e-15 22.95
3 1 0 113
361
362
363
364
365
366
367
368
369
370
371
372
373
374
375
376
377
378
379
380
381
382
383
384
385
386
387
388
389
390
391
392
393
394
395
396
397
398
399
400
401
402
403
404
405
406
407
408
409
410
411
412
413
414
415
416
417
418
419
420
421
422
423
424
425
426
427
428
429
430
431
432
433
434
435
436
437
438
439
440
441
442
443
444
445
446
447
448
449
450
451
452
453
454
455
456
457
458
459
460
461
462
463
464
465
466
467
468
469
470
471
472
473
1.888909764177659 -2.556002881142267 8.788239891813111
-0.9696481337583047 1.72677101998356 19.34505653665663
6.453416203003392 2.361032974372588 -1.977030806129552
-0.4145400416330312 -6.189753917746163 -3.342308699547682
-9.345123086767028 4.71331739375035 0.4384821231835344
0.8819802666396668 -0.3162629430627816 21.4275675151611
7.612277991552888 9.318125435907691 9.856467270494331
-1.560806114638873 -7.515229344232353 14.15449295389921
-4.995714014697608 5.238798291729716 14.4930207692952
10.38097855225243 -9.019221887563605 3.107820369059512
-10.38400199622507 -4.005044834243133 8.963136913136463
-5.279592490354677 10.02638892050601 8.313814306578207
9.521185988544007 -5.010273366576684 -6.043904895651736
2.173936783269814 4.317941319769896 17.33333419391431
13.82769909922132 0.4147755468046105 10.56364986146909
6.540290435211339 0.3063825106760658 15.7368432517411
-1.80035736393723 -11.70005148592561 5.68706227724005
-10.90378070122576 -2.019403217860919 -5.160325273975516
0.9686978424755575 11.0937718062986 0.0544640452316425
4.690698296251301 -7.177046018254838 14.09993608253767
1.66855220018654 1.87592471285627 19.83808320897582
13.21362579783938 -2.427596444870846 1.306237789738943
-7.177069927901977 -9.516949506527235 11.13529619961768
-3.806670909428914 2.19118728135643 17.71221000047334
6.516252397951654 8.502632391284022 -6.79349242282676
-2.895673701579521 -3.79773347319242 17.48899428844268
-1.1801867261465 1.639976119702266 -6.112096314467657
3.049062797301984 -1.874617983369129 18.36691395289194
12.75515841559024 1.727097935475596 -6.275660473612753
3.676712188045698 -4.382530971575025 1.205598975949435
1.311945660375568 4.530249102152582 4.718617304801787
-4.129979882884416 -3.946881789198254 3.111623631114511
5.484080338840543 -11.06339847955244 -7.993167968856804
-9.65461478463415 7.289585159218877 -6.970593774398299
-12.09826380368458 6.991121539992767 6.807898373341377
-0.4122887065536182 9.769394911597107 12.9748227072658
11.38733934217675 7.089533137152745 4.23067681200157
11.4109968482963 -7.323692555559634 9.000166425977685
-7.530414649858338 -2.683291821325646 15.29165895730256
-8.198244821868107 -9.867336122684216 0.7593817543588874
-4.153681621917322 -9.182505733081031 -8.532118245893152
-2.834228669240109 12.63712059375268 -7.858275768354997
-1.865701034036342 -0.9089740094416395 19.90318348001376
2.268818870338514 -12.88631694528898 -1.132679313546378
-12.46685316829862 -0.6831179494663345 2.195750259024095
2.966093658966456 11.97950262901876 7.840496058840809
4.589457589327115 4.752439061025133 12.72898675882164
5.713951012110483 -11.83520577345643 7.532615338889464
7.733159332972557 0.1166059532542648 6.328786196246361
-9.285531631158328 10.98701441376262 0.5247821443929853
-4.904393721197723 2.346049094590938 8.494096590786684
0.09053242999655509 0.07464572110908793 14.85024285146015
-1.981948613009628 -13.98670797554511 10.94780648498405
8.392169388381115 5.662854317396644 18.91041427766885
-9.235800821244656 -5.83519890641475 19.26598443327438
-17.95164653380891 9.171487203397986 7.743580959262276
-0.4675870234978191 -1.598494563394854 21.66177054425857
0.2212562013070087 -14.49005313355387 -9.549397119887205
-21.46380997729879 -5.807750550854217 17.7643391838214
23.68515633064767 3.863791794193749 17.72901269948014
12.55143043664119 8.37237374050676 -10.3925342181875
-62.88184419652874 2.156293826944696 13.22643600374469
61.33363009959277 -2.159234554192827 13.2245292854876
11.0038241307757 -10.37526012550649 -9.726794679568179
-54.913232273633 4.63696560971202 11.35300265675848
-10.82201576404035 -9.989076488171666 -8.97659546856069
14.7582316614468 -2.87301279621033 -11.27269207144279
6.110930261118058 13.85931592261893 -10.45358552520364
54.43672960050797 -4.596948372793012 11.14870792949876
-44.3705536417725 -1.55243457680473 15.95163577283548
46.63992337544303 1.487544077018018 16.06365485311897
-13.38831423268865 8.178448639303927 -11.02117597546905
-14.38748897833731 -3.159995850798735 -10.22451478597171
17.5924397212262 -8.476269741966476 7.124606105420686
-34.82209218780423 -2.497422363508838 16.72082412300669
37.39950091596302 1.794421039598825 16.52441165901022
-14.82527482597374 -0.05242350408859664 11.0427618892206
-30.32701913498514 7.344768358136267 9.015061816468624
6.7319338436232 15.17086512611868 10.66806972116446
-0.3814482896451201 15.3685994347132 10.10914005237969
1.803127248263669 -15.71552750238366 9.564176654890334
32.10510669271495 -7.615840861741806 9.414914796959069
-11.46550613876017 -11.36406672122406 10.0257813129699
10.15336288234362 -12.67606922972542 10.72694587338234
13.81650679005555 5.598189398505149 18.48695555608136
-14.96838334152704 -6.894124554638342 10.36869903145779
-21.34452111417048 -2.763464449353366 18.01448091273112
54.42116284520077 0.4415713967454846 14.96433883590003
-48.5366118544305 5.287842653418617 10.85510906609981
31.72269400048864 5.195986210154938 16.84341263045845
14.31108398143484 -9.034349897317044 11.74816172484529
-9.520656829112589 11.94929453354978 -11.02196534764039
39.37575684304847 -5.975185711245972 9.802410927099061
15.97121242059705 2.444293159053899 -10.81953387518158
12.11690344171088 11.17889713548027 10.60706595524147
-38.49996637739915 6.139837084579666 9.986593261842568
-6.890159273699554 -14.5986914370652 10.55965846985843
14.30032854193874 6.764609059753189 10.26865125695397
-14.12308505744188 9.282626258497233 11.22251718633519
11.22648874905975 4.593740528235618 20.49592913973783
-14.33255214988338 2.873646033575277 -10.87197681461298
47.12066438833601 -6.016111308414446 10.42183072781714
-53.12941117056043 -0.01680595029165123 14.87465003705574
-23.04688728431069 8.200165137646506 8.672027640684608
22.53366950149799 -8.425611814463059 8.597009058665487
6.399203174118657 -15.67741670546716 9.849698778635808
-26.55036478432235 -3.226459084194786 16.90680275517704
17.89096517859141 4.596983561099155 18.08180667096737
-16.70705714848255 -5.288165477352676 19.55128192054178
-8.979121844582027 13.05822747745935 9.344239498206763
-58.4334391764421 2.138146981958629 13.23166660570785
15.93877349532253 -10.92024910842173 8.490052813582995
19.12660014172954 -10.50812076702694 8.881175807710907
$EndNodes
$Elements
111 2459 1 2459
0 1 15 1
1 1 
0 2 15 1
2 2 
0 3 15 1
3 3 
0 4 15 1
4 4 
0 5 15 1
5 5 
0 6 15 1
6 6 
0 7 15 1
7 7 
0 8 15 1
8 8 
0 9 15 1
9 9 
0 10 15 1
10 10 
0 11 15 1
11 11 
0 12 15 1
12 12 
0 13 15 1
13 13 
0 14 15 1
14 14 
0 15 15 1
15 15 
0 16 15 1
16 16 
0 17 15 1
17 17 
0 18 15 1
18 18 
0 19 15 1
19 19 
0 20 15 1
20 20 
0 21 15 1
21 21 
0 22 15 1
22 22 
0 23 15 1
23 23 
0 24 15 1
24 24 
0 25 15 1
25 25 
0 26 15 1
26 26 
0 27 15 1
27 27 
0 28 15 1
28 28 
0 29 15 1
29 29 
0 30 15 1
30 30 
0 31 15 1
31 31 
0 32 15 1
32 32 
0 33 15 1
33 33 
0 34 15 1
34 34 
0 35 15 1
35 35 
0 36 15 1
36 36 
1 1 1 7
37 1 37 
38 37 38 
39 38 39 
40 39 40 
41 40 41 
42 41 42 
43 42 2 
1 2 1 1
44 1 3 
1 3 1 4
45 4 43 
46 43 44 
47 44 45 
48 45 3 
1 4 1 16
49 4 46 
50 46 47 
51 47 48 
52 48 49 
53 49 50 
54 50 51 
55 51 52 
56 52 53 
57 53 54 
58 54 55 
59 55 56 
60 56 57 
61 57 58 
62 58 59 
63 59 60 
64 60 4 
1 5 1 2
65 3 61 
66 61 5 
1 6 1 2
67 5 62 
68 62 6 
1 7 1 2
69 7 63 
70 63 6 
1 8 1 7
71 8 64 
72 64 65 
73 65 66 
74 66 67 
75 67 68 
76 68 69 
77 69 7 
1 9 1 3
78 8 70 
79 70 71 
80 71 9 
1 10 1 2
81 9 72 
82 72 10 
1 11 1 2
83 2 73 
84 73 10 
1 12 1 1
85 1 11 
1 13 1 1
86 2 12 
1 14 1 7
87 11 74 
88 74 75 
89 75 76 
90 76 77 
91 77 78 
92 78 79 
93 79 12 
1 15 1 3
94 12 80 
95 80 81 
96 81 13 
1 16 1 1
97 13 14 
1 17 1 4
98 14 82 
99 82 83 
100 83 84 
101 84 15 
1 18 1 2
102 15 85 
103 85 16 
1 19 1 2
104 16 86 
105 86 17 
1 20 1 4
106 17 87 
107 87 88 
108 88 89 
109 89 10 
1 21 1 4
110 18 90 
111 90 91 
112 91 92 
113 92 9 
1 22 1 1
114 18 17 
1 23 1 2
115 19 93 
116 93 20 
1 24 1 1
117 20 21 
1 25 1 4
118 21 94 
119 94 95 
120 95 96 
121 96 22 
1 26 1 2
122 22 97 
123 97 23 
1 27 1 2
124 23 98 
125 98 18 
1 28 1 1
126 8 19 
1 29 1 1
127 7 24 
1 30 1 7
128 19 99 
129 99 100 
130 100 101 
131 101 102 
132 102 103 
133 103 104 
134 104 24 
1 31 1 2
135 25 105 
136 105 26 
1 32 1 1
137 26 27 
1 33 1 4
138 27 106 
139 106 107 
140 107 108 
141 108 28 
1 34 1 2
142 28 109 
143 109 29 
1 35 1 2
144 29 110 
145 110 30 
1 36 1 4
146 30 111 
147 111 112 
148 112 113 
149 113 6 
1 37 1 2
150 24 114 
151 114 25 
1 38 1 4
152 31 115 
153 115 116 
154 116 117 
155 117 5 
1 39 1 1
156 31 30 
1 40 1 2
157 11 118 
158 118 32 
1 41 1 1
159 32 33 
1 42 1 4
160 33 119 
161 119 120 
162 120 121 
163 121 34 
1 43 1 2
164 34 122 
165 122 35 
1 44 1 2
166 35 123 
167 123 31 
1 45 1 2
168 20 124 
169 124 13 
1 46 1 3
170 25 125 
171 125 126 
172 126 36 
1 47 1 7
173 36 127 
174 127 128 
175 128 129 
176 129 130 
177 130 131 
178 131 132 
179 132 36 
1 48 1 2
180 32 133 
181 133 26 
1 49 1 1
182 23 16 
1 50 1 1
183 22 15 
1 51 1 1
184 21 14 
1 52 1 1
185 35 29 
1 53 1 1
186 34 28 
1 54 1 1
187 33 27 
2 1 2 188
188 3 166 1 
189 1 200 37 
190 166 200 1 
191 42 73 2 
192 61 45 3 
193 45 166 3 
194 43 196 4 
195 4 199 43 
196 46 199 4 
197 4 196 60 
198 5 165 61 
199 62 186 5 
200 5 176 165 
201 5 186 176 
202 6 134 62 
203 69 6 63 
204 69 68 6 
205 68 155 6 
206 6 155 134 
207 69 63 7 
208 8 136 64 
209 70 136 8 
210 9 141 71 
211 72 151 9 
212 9 146 141 
213 9 151 146 
214 10 42 41 
215 41 189 10 
216 73 42 10 
217 10 135 72 
218 10 189 135 
219 37 139 38 
220 37 200 139 
221 38 178 39 
222 139 178 38 
223 39 137 40 
224 39 178 137 
225 40 183 41 
226 137 183 40 
227 183 189 41 
228 44 145 43 
229 43 177 44 
230 145 196 43 
231 43 199 177 
232 44 148 45 
233 45 165 44 
234 44 165 145 
235 44 177 148 
236 61 165 45 
237 148 166 45 
238 47 173 46 
239 173 199 46 
240 48 144 47 
241 144 173 47 
242 49 170 48 
243 48 170 144 
244 50 142 49 
245 142 170 49 
246 51 188 50 
247 50 188 142 
248 52 164 51 
249 164 201 51 
250 51 201 188 
251 53 191 52 
252 52 191 164 
253 54 147 53 
254 147 191 53 
255 55 163 54 
256 54 163 147 
257 56 140 55 
258 140 163 55 
259 57 168 56 
260 56 168 140 
261 58 143 57 
262 143 168 57 
263 59 175 58 
264 58 175 143 
265 60 174 59 
266 174 175 59 
267 60 196 174 
268 134 186 62 
269 64 149 65 
270 136 149 64 
271 65 197 66 
272 149 159 65 
273 159 197 65 
274 66 138 67 
275 66 197 138 
276 67 181 68 
277 138 181 67 
278 68 181 155 
279 71 187 70 
280 70 187 136 
281 141 187 71 
282 135 151 72 
283 155 156 134 
284 156 157 134 
285 157 186 134 
286 135 152 151 
287 135 153 152 
288 135 189 153 
289 136 150 149 
290 136 187 150 
291 178 193 137 
292 182 183 137 
293 137 193 182 
294 138 202 181 
295 138 197 192 
296 192 202 138 
297 139 190 178 
298 184 190 139 
299 139 200 184 
300 140 162 158 
301 158 163 140 
302 140 168 162 
303 146 160 141 
304 160 161 141 
305 161 187 141 
306 167 180 142 
307 142 198 167 
308 142 180 170 
309 188 198 142 
310 143 169 168 
311 143 179 169 
312 175 179 143 
313 170 171 144 
314 171 172 144 
315 172 173 144 
316 165 176 145 
317 145 176 174 
318 174 196 145 
319 151 154 146 
320 154 164 146 
321 146 164 160 
322 147 161 160 
323 160 191 147 
324 147 194 161 
325 163 194 147 
326 148 184 166 
327 177 195 148 
328 148 195 184 
329 150 158 149 
330 158 159 149 
331 150 163 158 
332 150 187 161 
333 161 194 150 
334 150 194 163 
335 152 154 151 
336 153 167 152 
337 152 198 154 
338 167 198 152 
339 153 182 167 
340 153 183 182 
341 153 189 183 
342 154 201 164 
343 154 198 188 
344 188 201 154 
345 155 181 156 
346 156 179 157 
347 156 202 179 
348 181 202 156 
349 157 179 175 
350 175 185 157 
351 185 186 157 
352 158 162 159 
353 162 192 159 
354 192 197 159 
355 164 191 160 
356 168 192 162 
357 184 200 166 
358 167 182 180 
359 169 192 168 
360 179 202 169 
361 169 202 192 
362 170 180 171 
363 171 190 172 
364 180 193 171 
365 171 193 190 
366 172 195 173 
367 172 190 184 
368 184 195 172 
369 173 195 177 
370 177 199 173 
371 174 185 175 
372 176 185 174 
373 176 186 185 
374 190 193 178 
375 182 193 180 
2 2 2 14
376 11 1 37 
377 2 12 42 
378 74 11 37 
379 42 12 79 
380 74 37 38 
381 75 38 39 
382 74 38 75 
383 77 39 40 
384 75 39 76 
385 76 39 77 
386 78 40 41 
387 77 40 78 
388 79 41 42 
389 78 41 79 
2 3 2 47
390 12 2 215 
391 2 73 207 
392 2 207 214 
393 211 2 214 
394 2 211 215 
395 89 73 10 
396 80 12 215 
397 14 13 210 
398 13 81 210 
399 82 14 210 
400 15 84 206 
401 85 15 212 
402 15 206 212 
403 16 85 86 
404 17 86 212 
405 87 17 206 
406 206 17 212 
407 73 89 207 
408 81 80 208 
409 208 80 209 
410 209 80 215 
411 81 208 210 
412 83 82 205 
413 205 82 209 
414 82 208 209 
415 208 82 210 
416 84 83 216 
417 83 205 216 
418 206 84 217 
419 84 216 217 
420 86 85 212 
421 88 87 204 
422 204 87 217 
423 87 206 217 
424 89 88 203 
425 203 88 204 
426 89 203 207 
427 203 204 213 
428 207 203 214 
429 211 203 213 
430 203 211 214 
431 213 204 216 
432 216 204 217 
433 205 209 211 
434 205 211 213 
435 205 213 216 
436 211 209 215 
2 4 2 15
437 9 218 72 
438 92 218 9 
439 10 72 89 
440 17 219 18 
441 87 219 17 
442 18 219 90 
443 72 218 89 
444 88 220 87 
445 90 219 87 
446 87 220 90 
447 89 92 88 
448 92 91 88 
449 91 220 88 
450 89 218 92 
451 90 220 91 
2 5 2 35
452 19 228 8 
453 8 222 70 
454 8 225 222 
455 8 228 225 
456 71 92 9 
457 18 226 98 
458 90 223 18 
459 223 226 18 
460 93 228 19 
461 93 20 21 
462 94 93 21 
463 22 223 96 
464 97 226 22 
465 22 226 223 
466 98 97 23 
467 70 229 71 
468 222 229 70 
469 71 229 92 
470 95 225 94 
471 94 228 93 
472 225 228 94 
473 96 227 95 
474 95 227 225 
475 223 224 96 
476 224 227 96 
477 98 226 97 
478 91 224 90 
479 90 224 223 
480 92 221 91 
481 221 224 91 
482 92 229 221 
483 222 227 221 
484 221 229 222 
485 221 227 224 
486 225 227 222 
2 6 2 14
487 69 7 24 
488 8 64 19 
489 19 64 99 
490 104 69 24 
491 99 65 100 
492 99 64 65 
493 100 66 101 
494 100 65 66 
495 101 66 102 
496 102 67 103 
497 102 66 67 
498 103 68 104 
499 103 67 68 
500 104 68 69 
2 7 2 44
501 113 63 6 
502 24 7 240 
503 7 63 234 
504 7 234 238 
505 237 7 238 
506 7 237 240 
507 114 24 240 
508 105 25 235 
509 25 114 235 
510 27 26 105 
511 27 105 235 
512 106 27 235 
513 28 108 233 
514 109 28 239 
515 28 233 239 
516 29 109 110 
517 30 110 239 
518 111 30 233 
519 233 30 239 
520 107 106 232 
521 232 106 236 
522 106 235 236 
523 108 107 242 
524 107 232 241 
525 107 241 242 
526 233 108 242 
527 110 109 239 
528 112 111 231 
529 231 111 233 
530 113 112 230 
531 230 112 231 
532 63 113 234 
533 113 230 234 
534 235 114 236 
535 236 114 240 
536 230 231 241 
537 234 230 238 
538 230 237 238 
539 237 230 241 
540 231 233 242 
541 241 231 242 
542 232 236 237 
543 232 237 241 
544 237 236 240 
2 8 2 15
545 5 243 62 
546 117 243 5 
547 113 6 62 
548 30 244 31 
549 111 244 30 
550 31 244 115 
551 112 245 111 
552 115 244 111 
553 111 245 115 
554 113 117 112 
555 117 116 112 
556 116 245 112 
557 62 243 113 
558 113 243 117 
559 115 245 116 
2 9 2 35
560 1 247 3 
561 11 253 1 
562 1 250 247 
563 1 253 250 
564 3 254 61 
565 247 254 3 
566 117 5 61 
567 118 253 11 
568 115 248 31 
569 31 251 123 
570 248 251 31 
571 118 32 33 
572 119 118 33 
573 34 248 121 
574 122 251 34 
575 34 251 248 
576 122 35 123 
577 61 254 117 
578 116 249 115 
579 115 249 248 
580 117 246 116 
581 246 249 116 
582 117 254 246 
583 119 253 118 
584 120 250 119 
585 250 253 119 
586 121 252 120 
587 120 252 250 
588 248 249 121 
589 249 252 121 
590 123 251 122 
591 247 252 246 
592 246 254 247 
593 246 252 249 
594 250 252 247 
2 10 2 64
595 46 4 271 
596 4 60 255 
597 4 255 271 
598 47 46 262 
599 262 46 271 
600 48 47 273 
601 47 262 273 
602 49 48 258 
603 258 48 273 
604 50 49 272 
605 49 258 272 
606 51 50 260 
607 260 50 272 
608 52 51 276 
609 51 260 276 
610 53 52 256 
611 256 52 276 
612 54 53 263 
613 53 256 263 
614 55 54 261 
615 261 54 263 
616 56 55 275 
617 55 261 275 
618 57 56 257 
619 257 56 275 
620 58 57 270 
621 57 257 270 
622 59 58 259 
623 259 58 270 
624 60 59 274 
625 59 259 274 
626 255 60 274 
627 255 268 271 
628 268 255 277 
629 255 274 277 
630 263 256 264 
631 264 256 269 
632 269 256 276 
633 265 257 275 
634 257 265 279 
635 270 257 279 
636 260 258 269 
637 258 260 272 
638 258 267 269 
639 267 258 278 
640 258 273 278 
641 259 270 279 
642 274 259 277 
643 277 259 279 
644 260 269 276 
645 261 263 264 
646 261 264 265 
647 261 265 275 
648 268 262 271 
649 262 268 278 
650 273 262 278 
651 265 264 266 
652 266 264 267 
653 267 264 269 
654 265 266 279 
655 266 267 268 
656 266 268 277 
657 266 277 279 
658 268 267 278 
2 11 2 168
659 74 118 11 
660 12 78 79 
661 12 304 78 
662 80 304 12 
663 124 342 13 
664 13 337 81 
665 13 309 300 
666 300 338 13 
667 13 342 309 
668 13 338 337 
669 99 93 19 
670 20 296 124 
671 93 328 20 
672 20 335 296 
673 20 334 305 
674 305 335 20 
675 328 334 20 
676 24 286 104 
677 114 286 24 
678 105 125 25 
679 25 321 114 
680 125 280 25 
681 280 321 25 
682 26 125 105 
683 26 307 125 
684 133 319 26 
685 26 319 307 
686 118 327 32 
687 32 324 133 
688 32 313 308 
689 308 324 32 
690 32 331 313 
691 327 331 32 
692 36 320 126 
693 126 339 36 
694 36 339 127 
695 132 320 36 
696 100 328 99 
697 99 328 93 
698 101 334 100 
699 100 334 328 
700 102 305 101 
701 305 334 101 
702 103 303 102 
703 303 305 102 
704 104 325 103 
705 103 325 303 
706 286 325 104 
707 114 321 286 
708 74 327 118 
709 296 322 124 
710 322 342 124 
711 126 287 125 
712 125 307 126 
713 125 287 280 
714 126 298 287 
715 126 320 298 
716 307 340 126 
717 126 340 339 
718 127 284 128 
719 127 299 284 
720 127 339 299 
721 128 283 129 
722 128 285 283 
723 284 285 128 
724 129 310 130 
725 283 300 129 
726 300 310 129 
727 130 294 131 
728 130 310 294 
729 131 281 132 
730 131 295 281 
731 294 295 131 
732 281 330 132 
733 132 330 320 
734 133 343 319 
735 324 343 133 
736 75 327 74 
737 76 331 75 
738 75 331 327 
739 77 313 76 
740 313 331 76 
741 78 329 77 
742 77 329 313 
743 304 306 78 
744 306 329 78 
745 81 282 80 
746 282 304 80 
747 81 337 282 
748 287 288 280 
749 288 316 280 
750 316 321 280 
751 295 297 281 
752 297 298 281 
753 298 330 281 
754 282 306 304 
755 282 341 306 
756 282 337 311 
757 311 341 282 
758 285 289 283 
759 289 300 283 
760 284 291 285 
761 284 299 291 
762 285 290 289 
763 285 292 290 
764 291 292 285 
765 286 321 316 
766 316 333 286 
767 286 333 325 
768 287 323 288 
769 298 323 287 
770 315 317 288 
771 288 323 315 
772 288 317 316 
773 290 311 289 
774 289 301 300 
775 289 311 301 
776 292 293 290 
777 293 311 290 
778 291 326 292 
779 299 302 291 
780 302 326 291 
781 292 308 293 
782 292 324 308 
783 292 326 324 
784 308 312 293 
785 293 341 311 
786 312 341 293 
787 294 309 295 
788 294 310 309 
789 295 314 297 
790 309 322 295 
791 295 322 314 
792 314 322 296 
793 296 336 314 
794 335 336 296 
795 297 323 298 
796 314 315 297 
797 315 323 297 
798 320 330 298 
799 299 340 302 
800 339 340 299 
801 301 338 300 
802 309 310 300 
803 311 337 301 
804 337 338 301 
805 307 319 302 
806 302 340 307 
807 319 343 302 
808 302 343 326 
809 303 335 305 
810 303 332 318 
811 318 335 303 
812 325 332 303 
813 312 329 306 
814 306 341 312 
815 308 313 312 
816 309 342 322 
817 313 329 312 
818 314 336 315 
819 315 318 317 
820 315 336 318 
821 317 333 316 
822 318 332 317 
823 332 333 317 
824 318 336 335 
825 326 343 324 
826 325 333 332 
2 12 2 8
827 16 345 23 
828 86 345 16 
829 18 344 17 
830 17 344 86 
831 98 344 18 
832 23 345 98 
833 86 344 98 
834 98 345 86 
2 13 2 8
835 15 347 22 
836 85 347 15 
837 23 346 16 
838 16 346 85 
839 22 347 97 
840 97 346 23 
841 85 346 97 
842 97 347 85 
2 14 2 16
843 14 349 21 
844 82 349 14 
845 22 351 15 
846 15 351 84 
847 21 349 94 
848 96 351 22 
849 94 350 95 
850 94 349 82 
851 82 350 94 
852 95 348 96 
853 83 348 95 
854 95 350 83 
855 96 348 84 
856 84 351 96 
857 83 350 82 
858 84 348 83 
2 15 2 3
859 14 124 13 
860 14 21 124 
861 21 20 124 
2 16 2 8
862 29 353 35 
863 110 353 29 
864 31 352 30 
865 30 352 110 
866 123 352 31 
867 35 353 123 
868 110 352 123 
869 123 353 110 
2 17 2 8
870 28 355 34 
871 109 355 28 
872 35 354 29 
873 29 354 109 
874 34 355 122 
875 122 354 35 
876 109 354 122 
877 122 355 109 
2 18 2 16
878 27 358 33 
879 106 358 27 
880 34 359 28 
881 28 359 108 
882 33 358 119 
883 121 359 34 
884 107 357 106 
885 106 357 119 
886 119 358 106 
887 108 356 107 
888 107 356 120 
889 120 357 107 
890 121 356 108 
891 108 359 121 
892 119 357 120 
893 120 356 121 
2 19 2 3
894 26 27 133 
895 133 27 33 
896 33 32 133 
2 20 2 7
897 127 360 36 
898 36 360 132 
899 128 360 127 
900 129 360 128 
901 130 360 129 
902 131 360 130 
903 132 360 131 
3 1 4 1556
904 363 385 379 397 
905 19 80 371 437 
906 461 191 378 394 
907 133 376 374 407 
908 314 315 336 388 
909 362 285 381 290 
910 398 361 380 376 
911 80 411 369 399 
912 458 367 74 455 
913 458 118 367 375 
914 409 376 398 375 
915 318 336 315 388 
916 114 376 118 375 
917 160 378 191 394 
918 176 185 370 373 
919 385 195 397 389 
920 172 379 385 397 
921 190 379 397 406 
922 80 411 399 371 
923 365 378 160 394 
924 176 185 186 370 
925 19 371 80 399 
926 317 380 318 388 
927 362 374 290 381 
928 362 285 290 289 
929 235 376 118 114 
930 80 411 371 395 
931 314 336 386 388 
932 458 397 375 367 
933 176 373 370 382 
934 293 290 311 384 
935 414 118 376 407 
936 406 331 396 367 
937 408 361 377 380 
938 185 157 370 373 
939 361 368 377 380 
940 24 375 398 114 
941 190 379 406 193 
942 157 186 185 370 
943 139 38 439 455 
944 375 376 118 407 
945 266 373 364 393 
946 74 367 75 455 
947 283 366 362 381 
948 40 470 440 78 
949 362 366 283 403 
950 339 127 299 366 
951 318 368 336 388 
952 406 397 391 379 
953 293 374 290 384 
954 297 298 388 366 
955 369 372 306 396 
956 327 74 118 367 
957 463 206 212 15 
958 118 367 375 407 
959 385 195 389 173 
960 372 369 395 411 
961 80 411 395 369 
962 364 373 266 387 
963 133 374 32 407 
964 367 118 32 407 
965 157 370 373 404 
966 459 71 73 395 
967 190 397 367 406 
968 408 390 377 361 
969 185 424 393 373 
970 368 361 399 412 
971 368 386 336 388 
972 385 195 173 172 
973 382 5 165 61 
974 172 379 397 190 
975 409 376 375 407 
976 139 455 439 367 
977 160 378 365 405 
978 427 174 373 424 
979 74 75 367 327 
980 24 375 61 398 
981 409 376 407 361 
982 365 395 141 405 
983 24 375 114 240 
984 425 463 226 449 
985 365 387 378 394 
986 427 174 424 60 
987 293 312 308 396 
988 401 393 266 364 
989 331 75 327 367 
990 406 331 439 76 
991 401 266 393 279 
992 317 332 318 380 
993 398 409 375 382 
994 182 440 372 406 
995 331 327 32 367 
996 367 32 118 327 
997 157 373 185 393 
998 424 277 393 373 
999 160 365 141 405 
1000 45 397 382 375 
1001 388 316 380 376 
1002 411 412 369 399 
1003 9 365 395 141 
1004 314 297 388 403 
1005 439 76 331 75 
1006 439 75 331 367 
1007 12 369 395 372 
1008 153 379 372 410 
1009 382 5 370 176 
1010 443 400 371 383 
1011 361 390 377 392 
1012 434 473 243 465 
1013 209 469 208 82 
1014 363 268 387 385 
1015 134 370 156 408 
1016 182 372 379 406 
1017 424 277 373 274 
1018 297 366 388 403 
1019 196 373 145 389 
1020 299 127 284 366 
1021 208 469 209 228 
1022 378 387 264 394 
1023 80 437 209 215 
1024 243 473 113 465 
1025 364 387 266 401 
1026 293 308 374 396 
1027 293 292 290 374 
1028 146 365 160 394 
1029 32 374 396 407 
1030 256 378 264 394 
1031 146 141 160 365 
1032 427 373 196 389 
1033 157 373 393 404 
1034 185 424 373 174 
1035 331 367 32 396 
1036 314 295 297 403 
1037 387 268 373 266 
1038 455 397 367 139 
1039 373 382 145 389 
1040 45 397 375 166 
1041 279 266 265 401 
1042 368 361 377 392 
1043 406 391 397 367 
1044 12 369 372 304 
1045 406 331 76 396 
1046 397 389 148 382 
1047 404 390 370 373 
1048 362 290 374 384 
1049 318 380 368 388 
1050 365 394 146 410 
1051 473 472 434 243 
1052 398 382 5 370 
1053 473 472 63 434 
1054 9 365 141 146 
1055 363 387 373 390 
1056 289 290 362 384 
1057 368 371 361 392 
1058 371 392 383 400 
1059 388 380 316 317 
1060 176 186 5 370 
1061 292 290 374 381 
1062 391 407 396 411 
1063 377 380 368 413 
1064 298 126 388 366 
1065 401 266 264 387 
1066 471 425 86 212 
1067 277 373 266 393 
1068 455 397 139 200 
1069 368 377 383 392 
1070 368 399 20 386 
1071 396 407 369 411 
1072 459 470 395 10 
1073 157 156 134 370 
1074 208 469 210 82 
1075 404 390 373 364 
1076 61 375 382 398 
1077 368 399 386 412 
1078 17 425 18 449 
1079 368 383 371 392 
1080 118 114 375 11 
1081 425 86 344 98 
1082 44 145 382 389 
1083 386 399 384 412 
1084 397 148 389 195 
1085 176 145 373 382 
1086 379 387 363 391 
1087 361 370 390 409 
1088 6 370 408 398 
1089 32 396 367 407 
1090 45 397 166 148 
1091 395 470 459 12 
1092 150 371 400 405 
1093 167 379 153 410 
1094 368 361 371 399 
1095 86 344 17 425 
1096 414 32 118 407 
1097 373 387 364 390 
1098 24 375 240 3 
1099 398 5 382 61 
1100 379 385 363 387 
1101 135 470 395 372 
1102 421 389 173 385 
1103 196 174 145 373 
1104 190 379 193 171 
1105 182 440 406 137 
1106 293 311 369 384 
1107 336 368 296 386 
1108 411 412 399 361 
1109 281 330 298 366 
1110 191 160 147 378 
1111 67 441 103 466 
1112 400 401 364 404 
1113 385 387 379 402 
1114 387 394 379 402 
1115 363 268 385 389 
1116 314 388 386 403 
1117 363 397 391 409 
1118 404 390 364 377 
1119 304 306 369 372 
1120 380 412 376 361 
1121 320 126 298 366 
1122 364 387 378 392 
1123 408 361 380 398 
1124 363 387 390 391 
1125 297 281 298 366 
1126 43 196 145 389 
1127 298 388 126 287 
1128 392 387 391 390 
1129 268 373 266 277 
1130 362 285 289 283 
1131 361 407 391 411 
1132 458 118 375 11 
1133 316 333 317 380 
1134 360 130 129 366 
1135 367 396 391 407 
1136 398 409 382 370 
1137 366 381 126 388 
1138 412 381 388 376 
1139 364 401 393 404 
1140 81 369 384 399 
1141 370 382 373 390 
1142 341 293 311 369 
1143 45 397 148 382 
1144 182 379 153 167 
1145 364 390 387 392 
1146 444 380 408 103 
1147 408 361 398 370 
1148 81 369 399 80 
1149 411 412 361 407 
1150 283 289 362 403 
1151 200 1 458 166 
1152 373 382 363 390 
1153 362 285 283 381 
1154 6 370 398 62 
1155 378 387 365 392 
1156 391 397 367 409 
1157 368 20 399 383 
1158 379 387 365 394 
1159 409 376 361 398 
1160 392 391 387 365 
1161 191 164 160 394 
1162 335 296 336 368 
1163 186 157 134 370 
1164 388 386 412 368 
1165 401 264 266 265 
1166 380 412 361 368 
1167 365 387 379 391 
1168 375 114 240 236 
1169 335 336 318 368 
1170 331 313 76 396 
1171 114 376 375 398 
1172 293 374 369 396 
1173 32 374 308 396 
1174 377 390 364 392 
1175 318 315 317 388 
1176 61 375 45 382 
1177 437 187 395 371 
1178 415 14 13 210 
1179 372 470 395 12 
1180 286 380 376 398 
1181 172 379 190 171 
1182 410 402 379 394 
1183 119 33 118 445 
1184 94 21 93 415 
1185 20 383 93 399 
1186 392 400 371 405 
1187 144 421 385 428 
1188 26 125 381 388 
1189 325 444 103 380 
1190 378 387 364 401 
1191 371 399 361 411 
1192 76 439 440 39 
1193 297 388 298 323 
1194 382 5 176 165 
1195 332 303 318 380 
1196 410 402 394 198 
1197 80 209 437 19 
1198 415 399 210 13 
1199 125 126 307 381 
1200 370 404 156 408 
1201 440 439 76 406 
1202 418 404 393 401 
1203 195 177 148 389 
1204 292 326 291 381 
1205 432 191 461 394 
1206 274 255 277 373 
1207 190 367 178 406 
1208 161 378 160 405 
1209 443 371 99 383 
1210 440 372 406 396 
1211 277 266 279 393 
1212 81 369 80 282 
1213 398 409 370 361 
1214 99 19 93 371 
1215 455 75 439 367 
1216 293 369 374 384 
1217 185 424 174 175 
1218 128 127 360 366 
1219 320 298 330 366 
1220 264 387 378 401 
1221 99 371 93 383 
1222 134 62 186 370 
1223 267 402 387 385 
1224 144 421 428 47 
1225 284 127 128 366 
1226 43 427 196 389 
1227 99 446 371 443 
1228 321 286 316 376 
1229 418 404 401 168 
1230 80 208 19 399 
1231 176 165 145 382 
1232 317 333 332 380 
1233 403 412 388 386 
1234 440 439 137 39 
1235 3 375 240 236 
1236 408 390 361 370 
1237 114 286 376 398 
1238 269 264 387 394 
1239 395 135 372 410 
1240 20 93 383 328 
1241 137 439 440 406 
1242 455 397 200 458 
1243 330 132 320 366 
1244 3 166 45 375 
1245 139 367 190 397 
1246 172 379 171 385 
1247 287 126 125 388 
1248 24 61 375 3 
1249 161 194 147 378 
1250 157 156 370 404 
1251 44 145 165 382 
1252 375 367 397 409 
1253 416 72 10 395 
1254 343 374 319 381 
1255 382 390 370 409 
1256 396 440 76 406 
1257 360 131 130 366 
1258 137 439 178 39 
1259 178 439 137 406 
1260 305 368 303 413 
1261 20 124 386 399 
1262 391 396 372 411 
1263 200 458 37 455 
1264 458 397 200 166 
1265 297 315 314 388 
1266 36 127 339 366 
1267 173 172 144 385 
1268 125 126 381 388 
1269 457 334 413 383 
1270 43 145 44 389 
1271 372 396 391 406 
1272 170 379 402 385 
1273 26 381 376 388 
1274 411 412 407 369 
1275 410 402 198 167 
1276 378 161 150 405 
1277 2 459 71 73 
1278 395 135 410 72 
1279 457 334 383 100 
1280 322 314 386 403 
1281 81 369 282 384 
1282 391 396 367 406 
1283 470 153 372 135 
1284 395 135 72 10 
1285 378 150 400 405 
1286 178 190 139 367 
1287 286 333 316 380 
1288 26 319 374 381 
1289 380 412 368 388 
1290 382 389 363 397 
1291 269 256 264 394 
1292 418 404 168 143 
1293 453 233 111 462 
1294 210 469 208 228 
1295 161 147 160 378 
1296 19 446 437 371 
1297 45 61 3 375 
1298 248 453 462 233 
1299 187 395 371 405 
1300 453 233 249 231 
1301 314 336 296 386 
1302 363 382 373 389 
1303 364 393 373 404 
1304 403 412 386 384 
1305 457 377 383 413 
1306 417 130 131 366 
1307 325 444 380 398 
1308 99 328 100 383 
1309 369 384 399 412 
1310 339 366 299 381 
1311 470 153 135 189 
1312 378 150 161 194 
1313 410 402 167 379 
1314 303 368 335 318 
1315 170 379 385 171 
1316 284 299 366 381 
1317 311 282 341 369 
1318 76 313 77 396 
1319 182 372 183 153 
1320 412 381 376 374 
1321 292 293 308 374 
1322 363 268 389 373 
1323 316 280 376 388 
1324 269 394 387 402 
1325 383 392 377 400 
1326 334 305 101 413 
1327 453 233 231 111 
1328 365 372 379 410 
1329 135 153 372 410 
1330 62 5 370 398 
1331 286 316 376 380 
1332 361 391 390 392 
1333 6 370 62 134 
1334 418 279 401 393 
1335 131 281 417 366 
1336 432 191 394 164 
1337 453 231 442 111 
1338 289 384 362 403 
1339 408 303 103 380 
1340 377 408 380 413 
1341 443 400 383 159 
1342 150 371 136 149 
1343 418 404 143 393 
1344 159 383 377 400 
1345 365 379 372 391 
1346 283 300 289 403 
1347 418 279 393 270 
1348 437 187 371 136 
1349 128 360 129 366 
1350 193 190 178 406 
1351 210 469 415 82 
1352 5 186 62 370 
1353 93 371 19 399 
1354 170 379 171 180 
1355 363 390 382 409 
1356 371 383 368 399 
1357 150 163 194 378 
1358 317 315 288 388 
1359 32 308 313 396 
1360 26 374 376 381 
1361 58 259 270 393 
1362 313 331 32 396 
1363 322 314 296 386 
1364 146 160 164 394 
1365 311 282 369 384 
1366 330 281 132 366 
1367 360 127 36 366 
1368 365 392 391 411 
1369 442 231 453 249 
1370 129 366 130 403 
1371 160 141 161 405 
1372 369 407 374 412 
1373 180 379 167 402 
1374 303 368 318 380 
1375 441 202 377 408 
1376 361 391 392 411 
1377 126 340 307 381 
1378 172 171 144 385 
1379 296 368 20 386 
1380 173 421 199 389 
1381 99 446 443 64 
1382 340 126 339 381 
1383 9 365 146 410 
1384 369 396 374 407 
1385 316 376 280 321 
1386 192 404 168 400 
1387 310 129 130 403 
1388 466 444 68 155 
1389 306 372 78 396 
1390 303 368 380 413 
1391 362 388 366 403 
1392 334 368 305 413 
1393 61 45 165 382 
1394 379 193 182 406 
1395 427 271 255 389 
1396 321 114 286 376 
1397 470 153 183 372 
1398 99 93 328 383 
1399 376 407 361 412 
1400 106 445 236 235 
1401 283 366 129 403 
1402 152 167 153 410 
1403 193 180 171 379 
1404 150 400 163 378 
1405 286 325 380 398 
1406 380 412 388 376 
1407 367 375 407 409 
1408 408 303 380 413 
1409 297 417 366 403 
1410 6 370 134 408 
1411 437 71 395 187 
1412 457 377 413 197 
1413 292 374 326 381 
1414 441 202 408 181 
1415 168 418 143 57 
1416 378 392 365 405 
1417 403 412 384 362 
1418 264 433 261 378 
1419 400 426 378 401 
1420 282 80 304 369 
1421 6 68 444 155 
1422 175 157 185 393 
1423 135 470 189 10 
1424 417 130 366 403 
1425 421 271 389 262 
1426 362 384 374 412 
1427 322 386 342 403 
1428 303 441 413 408 
1429 20 296 335 368 
1430 322 295 314 403 
1431 444 398 6 408 
1432 400 426 401 140 
1433 93 383 371 399 
1434 343 319 302 381 
1435 368 383 377 413 
1436 457 334 100 101 
1437 187 371 150 405 
1438 337 81 282 384 
1439 177 195 173 389 
1440 427 271 454 4 
1441 180 167 142 402 
1442 143 404 168 169 
1443 364 392 378 400 
1444 9 365 410 395 
1445 392 365 405 411 
1446 340 339 299 381 
1447 466 444 155 408 
1448 114 321 25 376 
1449 192 400 377 404 
1450 146 394 154 410 
1451 444 6 155 408 
1452 259 277 279 393 
1453 166 200 184 397 
1454 287 125 280 388 
1455 441 377 138 413 
1456 334 368 413 383 
1457 443 99 100 383 
1458 139 184 200 397 
1459 382 375 397 409 
1460 56 257 275 401 
1461 379 394 365 410 
1462 170 379 180 402 
1463 142 167 198 402 
1464 138 377 197 413 
1465 269 387 267 402 
1466 286 104 325 398 
1467 202 404 377 408 
1468 361 392 371 411 
1469 166 184 148 397 
1470 264 433 378 256 
1471 141 395 187 405 
1472 305 368 20 335 
1473 26 319 133 374 
1474 434 234 473 465 
1475 147 163 433 378 
1476 36 320 132 366 
1477 441 377 413 408 
1478 128 129 283 366 
1479 24 7 3 240 
1480 208 93 19 399 
1481 473 234 113 465 
1482 365 391 372 411 
1483 94 225 95 419 
1484 143 58 418 393 
1485 360 36 132 366 
1486 250 120 119 420 
1487 257 279 265 401 
1488 309 322 342 403 
1489 303 441 408 103 
1490 238 465 61 254 
1491 182 372 153 379 
1492 158 150 149 400 
1493 126 366 339 381 
1494 343 326 374 381 
1495 151 146 154 410 
1496 150 371 149 400 
1497 288 316 317 388 
1498 61 234 434 465 
1499 369 372 396 411 
1500 198 394 188 402 
1501 324 308 32 374 
1502 236 445 11 235 
1503 323 315 297 388 
1504 400 426 140 163 
1505 273 278 262 385 
1506 365 372 395 411 
1507 144 421 47 173 
1508 144 421 173 385 
1509 303 441 103 102 
1510 338 300 13 403 
1511 272 258 49 402 
1512 395 405 365 411 
1513 361 391 407 409 
1514 377 400 364 404 
1515 468 11 445 253 
1516 408 390 370 404 
1517 304 78 306 372 
1518 284 285 291 381 
1519 400 426 163 378 
1520 416 89 92 464 
1521 43 44 177 389 
1522 422 85 16 346 
1523 416 92 89 218 
1524 423 123 35 353 
1525 353 110 29 423 
1526 157 393 179 404 
1527 415 399 124 20 
1528 413 102 66 441 
1529 11 445 118 235 
1530 238 7 3 61 
1531 365 395 372 410 
1532 167 152 198 410 
1533 437 71 187 70 
1534 343 133 319 374 
1535 297 417 403 295 
1536 371 392 405 411 
1537 143 404 169 179 
1538 25 376 280 388 
1539 150 163 400 158 
1540 310 130 294 403 
1541 58 175 424 393 
1542 214 70 2 211 
1543 412 381 374 362 
1544 372 391 379 406 
1545 132 131 360 366 
1546 284 291 299 381 
1547 118 445 11 253 
1548 363 382 397 409 
1549 343 302 326 381 
1550 400 168 140 401 
1551 19 208 80 209 
1552 256 433 461 53 
1553 464 214 203 229 
1554 329 306 78 396 
1555 26 125 307 381 
1556 268 389 262 385 
1557 9 72 395 410 
1558 170 428 385 402 
1559 135 152 153 410 
1560 199 454 43 389 
1561 378 400 392 405 
1562 174 424 59 175 
1563 362 381 366 388 
1564 2 70 214 71 
1565 372 78 440 470 
1566 363 391 390 409 
1567 258 267 385 402 
1568 170 180 142 402 
1569 342 386 13 403 
1570 367 407 391 409 
1571 422 85 346 97 
1572 123 110 353 423 
1573 192 159 377 400 
1574 93 208 19 228 
1575 377 392 364 400 
1576 236 11 114 235 
1577 201 164 432 394 
1578 473 472 113 63 
1579 443 457 159 383 
1580 323 298 287 388 
1581 264 433 256 263 
1582 425 463 449 212 
1583 12 369 304 80 
1584 325 303 332 380 
1585 371 405 395 411 
1586 44 165 45 382 
1587 361 390 391 409 
1588 124 296 20 386 
1589 134 156 155 408 
1590 428 144 48 170 
1591 173 199 177 389 
1592 141 71 187 395 
1593 292 308 324 374 
1594 237 7 3 238 
1595 303 441 102 413 
1596 469 93 210 415 
1597 369 312 396 306 
1598 148 44 45 382 
1599 143 404 179 393 
1600 142 49 170 402 
1601 139 190 184 397 
1602 387 268 266 267 
1603 202 156 404 408 
1604 154 394 198 410 
1605 135 72 151 410 
1606 288 280 316 388 
1607 399 384 13 386 
1608 443 400 159 149 
1609 408 390 404 377 
1610 161 141 187 405 
1611 7 24 3 61 
1612 171 170 144 385 
1613 175 179 157 393 
1614 26 105 125 388 
1615 473 472 243 113 
1616 232 468 420 1 
1617 100 328 334 383 
1618 369 312 306 341 
1619 6 63 113 472 
1620 412 381 362 388 
1621 461 433 256 378 
1622 268 255 271 389 
1623 324 326 292 374 
1624 154 146 164 394 
1625 258 267 278 385 
1626 254 238 3 61 
1627 56 426 140 401 
1628 364 400 378 401 
1629 325 333 286 380 
1630 192 159 197 377 
1631 4 43 427 196 
1632 262 268 271 389 
1633 433 426 378 163 
1634 185 424 175 393 
1635 452 188 394 402 
1636 24 61 451 398 
1637 22 463 97 347 
1638 170 49 428 402 
1639 132 281 131 366 
1640 282 306 341 369 
1641 464 214 229 71 
1642 256 269 276 394 
1643 343 326 324 374 
1644 213 229 211 222 
1645 448 429 248 251 
1646 229 70 214 211 
1647 147 194 163 378 
1648 399 13 384 81 
1649 63 472 6 398 
1650 209 19 208 228 
1651 311 337 282 384 
1652 46 199 173 421 
1653 302 291 326 381 
1654 313 308 312 396 
1655 434 398 472 63 
1656 163 158 140 400 
1657 448 429 251 423 
1658 188 452 394 201 
1659 143 175 58 393 
1660 235 27 106 460 
1661 340 302 307 381 
1662 434 398 62 472 
1663 374 384 369 412 
1664 20 334 328 383 
1665 423 123 251 122 
1666 26 376 105 388 
1667 238 465 254 230 
1668 428 144 170 385 
1669 214 70 229 71 
1670 138 202 192 377 
1671 209 211 70 222 
1672 325 332 333 380 
1673 8 19 209 228 
1674 427 454 389 43 
1675 307 302 319 381 
1676 387 268 267 385 
1677 192 377 202 404 
1678 168 418 56 401 
1679 238 465 230 234 
1680 15 206 84 430 
1681 146 151 9 410 
1682 403 412 362 388 
1683 430 96 351 22 
1684 431 34 248 121 
1685 142 198 188 402 
1686 338 13 384 403 
1687 287 280 288 388 
1688 432 191 164 52 
1689 312 306 329 396 
1690 26 307 319 381 
1691 286 114 24 398 
1692 70 8 209 222 
1693 321 280 25 376 
1694 202 181 156 408 
1695 313 329 77 396 
1696 148 184 195 397 
1697 80 81 208 399 
1698 147 163 54 433 
1699 106 107 232 420 
1700 238 3 237 254 
1701 236 240 3 237 
1702 304 306 282 369 
1703 421 271 262 46 
1704 423 429 251 123 
1705 24 104 286 398 
1706 265 261 275 401 
1707 9 151 72 410 
1708 211 70 2 215 
1709 3 1 232 247 
1710 229 464 71 92 
1711 324 32 133 374 
1712 440 77 78 396 
1713 279 270 259 393 
1714 77 329 78 396 
1715 172 184 190 397 
1716 63 7 451 69 
1717 415 399 20 93 
1718 17 87 449 219 
1719 197 138 192 377 
1720 61 465 434 117 
1721 158 149 159 400 
1722 155 6 134 408 
1723 461 433 191 53 
1724 225 228 447 419 
1725 222 447 209 205 
1726 178 137 193 406 
1727 400 140 168 162 
1728 13 386 384 403 
1729 101 305 102 413 
1730 13 210 81 399 
1731 172 195 184 397 
1732 232 237 3 247 
1733 71 214 2 207 
1734 432 191 52 461 
1735 177 199 43 389 
1736 447 82 205 83 
1737 238 234 7 61 
1738 3 1 236 232 
1739 322 309 295 403 
1740 448 429 423 239 
1741 323 288 315 388 
1742 434 398 63 61 
1743 192 162 159 400 
1744 468 250 420 1 
1745 158 162 140 400 
1746 12 71 459 395 
1747 187 150 371 136 
1748 427 174 60 196 
1749 201 154 164 394 
1750 7 3 240 237 
1751 337 338 13 384 
1752 468 11 253 1 
1753 237 3 236 232 
1754 124 13 342 386 
1755 111 30 462 233 
1756 449 18 17 219 
1757 216 84 435 83 
1758 449 90 87 456 
1759 375 3 1 236 
1760 337 311 301 384 
1761 81 210 208 399 
1762 211 203 229 213 
1763 463 22 15 347 
1764 73 416 395 71 
1765 191 433 461 378 
1766 374 407 376 412 
1767 225 447 228 8 
1768 215 211 70 209 
1769 109 29 110 423 
1770 423 251 448 122 
1771 455 458 37 74 
1772 85 422 16 86 
1773 239 248 233 431 
1774 63 234 434 61 
1775 95 227 96 435 
1776 450 120 121 252 
1777 203 229 214 211 
1778 427 174 196 373 
1779 267 264 266 387 
1780 107 108 242 436 
1781 46 173 47 421 
1782 269 260 394 402 
1783 191 433 147 53 
1784 431 28 108 233 
1785 30 31 462 429 
1786 198 154 188 394 
1787 254 237 230 247 
1788 444 63 6 398 
1789 379 182 193 180 
1790 147 433 191 378 
1791 56 140 168 401 
1792 201 188 154 394 
1793 124 342 322 386 
1794 466 103 444 408 
1795 434 398 61 5 
1796 416 395 71 9 
1797 17 449 87 206 
1798 464 214 71 207 
1799 208 210 93 399 
1800 110 123 429 423 
1801 462 248 31 115 
1802 425 463 212 471 
1803 471 422 97 85 
1804 444 63 451 69 
1805 24 7 451 61 
1806 152 154 198 410 
1807 429 239 462 30 
1808 299 302 340 381 
1809 462 239 429 248 
1810 143 179 175 393 
1811 437 8 19 209 
1812 247 420 252 250 
1813 85 463 97 471 
1814 61 254 465 117 
1815 17 18 425 344 
1816 207 2 71 73 
1817 141 9 71 395 
1818 258 269 267 402 
1819 71 464 416 92 
1820 169 192 202 404 
1821 257 265 275 401 
1822 224 216 217 435 
1823 291 302 299 381 
1824 309 342 13 403 
1825 37 1 458 200 
1826 458 397 166 375 
1827 300 310 309 403 
1828 48 170 49 428 
1829 305 368 335 303 
1830 234 63 7 61 
1831 467 222 447 225 
1832 157 179 156 404 
1833 213 221 229 222 
1834 188 452 201 51 
1835 188 402 50 142 
1836 211 209 205 222 
1837 432 164 201 51 
1838 135 151 152 410 
1839 161 187 150 405 
1840 445 106 460 235 
1841 425 98 18 226 
1842 123 251 31 429 
1843 258 278 273 385 
1844 53 256 433 263 
1845 54 163 55 426 
1846 448 34 28 355 
1847 296 124 322 386 
1848 182 440 137 183 
1849 449 90 223 18 
1850 244 462 31 115 
1851 471 86 98 422 
1852 323 287 288 388 
1853 462 239 233 30 
1854 235 414 445 118 
1855 264 267 269 387 
1856 86 425 17 212 
1857 425 463 471 226 
1858 229 70 211 222 
1859 303 102 305 413 
1860 449 226 425 18 
1861 324 133 343 374 
1862 22 97 463 226 
1863 463 85 212 471 
1864 436 249 242 252 
1865 269 258 260 402 
1866 430 96 22 223 
1867 98 226 471 97 
1868 329 313 312 396 
1869 105 376 25 388 
1870 230 246 254 247 
1871 230 238 237 254 
1872 217 206 223 430 
1873 168 56 418 57 
1874 155 156 181 408 
1875 247 420 250 1 
1876 248 453 233 249 
1877 115 245 453 116 
1878 233 239 462 248 
1879 456 90 91 224 
1880 96 435 84 348 
1881 471 425 98 86 
1882 251 34 248 448 
1883 471 425 226 98 
1884 111 245 453 115 
1885 227 216 224 435 
1886 109 423 448 122 
1887 468 11 1 236 
1888 237 241 230 247 
1889 10 42 459 470 
1890 110 423 429 239 
1891 92 438 464 88 
1892 254 3 237 247 
1893 260 258 272 402 
1894 211 205 213 222 
1895 469 93 415 94 
1896 110 423 239 109 
1897 253 119 445 468 
1898 472 62 6 398 
1899 470 153 189 183 
1900 376 26 414 133 
1901 58 59 424 175 
1902 448 251 34 122 
1903 69 104 444 68 
1904 471 86 422 85 
1905 471 86 85 212 
1906 463 206 430 223 
1907 301 338 337 384 
1908 449 463 223 206 
1909 196 427 4 60 
1910 85 97 463 347 
1911 206 17 449 212 
1912 70 12 2 215 
1913 4 43 199 454 
1914 224 456 223 217 
1915 463 85 347 15 
1916 151 154 152 410 
1917 95 467 435 83 
1918 224 96 227 435 
1919 121 252 436 450 
1920 39 76 439 75 
1921 142 402 50 49 
1922 76 77 39 440 
1923 203 221 229 213 
1924 435 467 95 227 
1925 33 414 118 445 
1926 415 399 93 210 
1927 222 447 225 8 
1928 137 182 193 406 
1929 413 66 102 101 
1930 164 432 52 51 
1931 416 464 71 207 
1932 27 414 26 133 
1933 144 48 47 428 
1934 448 109 355 28 
1935 455 38 439 75 
1936 243 465 113 117 
1937 464 416 89 207 
1938 202 156 179 404 
1939 67 102 103 441 
1940 295 417 131 281 
1941 276 269 260 394 
1942 99 65 443 100 
1943 456 87 206 217 
1944 427 271 389 454 
1945 415 399 13 124 
1946 78 470 79 41 
1947 278 268 262 385 
1948 174 424 60 59 
1949 442 112 465 117 
1950 87 456 204 217 
1951 78 470 12 79 
1952 455 37 38 74 
1953 469 93 94 228 
1954 463 430 15 22 
1955 418 57 58 143 
1956 77 40 39 440 
1957 241 420 107 252 
1958 53 191 461 52 
1959 12 470 42 79 
1960 50 51 452 188 
1961 99 446 64 19 
1962 103 68 67 466 
1963 42 79 470 41 
1964 116 112 442 117 
1965 438 92 91 88 
1966 92 221 229 464 
1967 439 38 39 75 
1968 204 88 456 87 
1969 75 455 38 74 
1970 95 225 467 419 
1971 247 420 1 232 
1972 246 230 241 247 
1973 420 250 120 252 
1974 434 398 5 62 
1975 435 467 216 83 
1976 416 395 9 72 
1977 96 84 430 351 
1978 90 87 456 220 
1979 67 441 66 102 
1980 232 241 237 247 
1981 248 453 249 115 
1982 442 231 112 111 
1983 158 159 162 400 
1984 66 101 457 100 
1985 70 2 12 71 
1986 437 187 136 70 
1987 241 420 252 247 
1988 40 183 440 470 
1989 8 19 64 446 
1990 82 205 209 447 
1991 267 268 278 385 
1992 206 217 84 430 
1993 372 440 78 396 
1994 224 204 456 217 
1995 92 464 89 88 
1996 300 309 13 403 
1997 309 294 295 403 
1998 443 457 383 100 
1999 423 122 109 354 
2000 216 467 435 227 
2001 112 230 231 442 
2002 216 467 205 83 
2003 81 337 13 384 
2004 254 246 465 117 
2005 140 56 55 426 
2006 430 224 223 217 
2007 64 65 443 99 
2008 354 122 35 423 
2009 1 3 375 166 
2010 66 197 65 457 
2011 248 453 115 462 
2012 241 420 247 232 
2013 204 203 438 88 
2014 470 189 41 183 
2015 451 7 24 69 
2016 37 1 11 458 
2017 465 112 113 117 
2018 217 84 430 435 
2019 183 40 41 470 
2020 99 446 19 371 
2021 440 372 470 183 
2022 169 202 179 404 
2023 231 230 241 246 
2024 437 19 8 446 
2025 221 203 204 213 
2026 69 444 6 68 
2027 443 457 100 65 
2028 466 103 68 444 
2029 467 213 222 227 
2030 442 246 231 249 
2031 88 438 456 91 
2032 213 221 222 227 
2033 120 252 450 420 
2034 309 310 294 403 
2035 54 147 433 53 
2036 458 11 37 74 
2037 241 420 232 107 
2038 84 217 216 435 
2039 456 438 88 204 
2040 350 467 83 447 
2041 467 222 225 227 
2042 442 246 249 116 
2043 419 94 469 350 
2044 456 438 224 91 
2045 224 438 456 204 
2046 260 452 394 402 
2047 46 4 199 454 
2048 2 12 71 459 
2049 246 241 231 252 
2050 108 436 233 242 
2051 242 231 249 233 
2052 213 204 221 227 
2053 235 27 414 105 
2054 434 5 61 117 
2055 9 92 71 416 
2056 436 242 107 252 
2057 66 457 65 100 
2058 441 413 138 66 
2059 235 414 27 460 
2060 467 227 225 95 
2061 419 469 447 350 
2062 89 10 416 72 
2063 6 472 113 62 
2064 467 213 227 216 
2065 241 242 231 252 
2066 228 447 419 469 
2067 253 118 445 119 
2068 469 93 228 210 
2069 467 213 216 205 
2070 243 113 472 62 
2071 89 72 416 218 
2072 246 241 252 247 
2073 249 246 231 252 
2074 242 241 107 252 
2075 204 213 216 227 
2076 249 436 248 121 
2077 107 120 450 420 
2078 248 436 249 233 
2079 111 30 244 462 
2080 395 437 371 80 
2081 14 21 349 415 
2082 27 414 33 358 
2083 249 231 242 252 
2084 248 436 431 121 
2085 468 11 236 445 
2086 437 71 70 12 
2087 93 21 20 415 
2088 33 414 133 32 
2089 73 416 71 207 
2090 224 221 204 227 
2091 447 469 82 350 
2092 82 469 94 350 
2093 29 35 353 423 
2094 63 234 113 473 
2095 420 106 119 468 
2096 470 40 41 78 
2097 40 440 77 78 
2098 216 204 224 217 
2099 216 224 204 227 
2100 68 104 444 103 
2101 14 21 415 124 
2102 12 2 42 459 
2103 420 119 106 357 
2104 468 250 1 253 
2105 225 94 228 419 
2106 451 63 444 398 
2107 6 63 444 69 
2108 65 197 159 457 
2109 385 195 172 397 
2110 389 397 385 363 
2111 397 391 379 363 
2112 355 448 34 122 
2113 458 118 11 74 
2114 458 118 74 367 
2115 268 373 255 389 
2116 363 268 373 387 
2117 268 255 373 277 
2118 109 448 355 122 
2119 118 114 11 235 
2120 235 376 114 25 
2121 381 283 128 285 
2122 381 128 283 366 
2123 404 168 400 401 
2124 192 168 404 169 
2125 264 401 261 265 
2126 261 401 264 378 
2127 396 76 440 77 
2128 244 111 462 115 
2129 389 148 44 177 
2130 389 44 148 382 
2131 103 380 303 325 
2132 325 444 104 103 
2133 369 312 341 293 
2134 369 312 293 396 
2135 235 376 105 414 
2136 235 105 376 25 
2137 12 437 395 80 
2138 235 376 414 118 
2139 176 174 373 145 
2140 176 373 174 185 
2141 25 125 388 280 
2142 25 388 125 105 
2143 182 379 167 180 
2144 66 101 413 457 
2145 163 426 140 55 
2146 12 437 215 70 
2147 289 403 301 384 
2148 289 301 403 300 
2149 338 301 403 384 
2150 338 403 301 300 
2151 334 368 383 20 
2152 334 368 20 305 
2153 311 289 384 290 
2154 384 289 311 301 
2155 297 417 295 281 
2156 297 417 281 366 
2157 36 126 366 339 
2158 366 126 36 320 
2159 168 192 400 162 
2160 449 90 456 223 
2161 376 26 133 374 
2162 457 377 159 383 
2163 300 129 403 283 
2164 403 129 300 310 
2165 431 28 233 239 
2166 431 34 448 248 
2167 31 248 462 429 
2168 30 462 31 244 
2169 232 468 1 236 
2170 232 468 236 106 
2171 209 469 82 447 
2172 228 447 469 209 
2173 285 292 381 290 
2174 381 292 285 291 
2175 463 430 22 223 
2176 22 463 223 226 
2177 12 369 80 395 
2178 42 470 10 41 
2179 372 78 12 304 
2180 53 461 256 52 
2181 432 461 52 256 
2182 432 461 256 394 
2183 470 10 41 189 
2184 256 461 378 394 
2185 460 414 358 445 
2186 42 12 459 470 
2187 66 413 197 457 
2188 457 377 197 159 
2189 135 470 10 395 
2190 372 470 12 78 
2191 460 414 27 358 
2192 457 334 101 413 
2193 413 197 138 66 
2194 421 271 454 389 
2195 381 128 284 285 
2196 381 284 128 366 
2197 133 414 376 407 
2198 133 32 414 407 
2199 27 414 105 26 
2200 33 414 32 118 
2201 376 105 414 26 
2202 27 414 133 33 
2203 94 21 415 349 
2204 94 82 415 469 
2205 21 415 124 20 
2206 415 14 124 13 
2207 210 228 208 93 
2208 415 82 94 349 
2209 325 444 398 104 
2210 73 416 10 395 
2211 421 271 46 454 
2212 50 51 260 452 
2213 89 10 73 416 
2214 416 73 89 207 
2215 417 130 403 294 
2216 417 130 294 131 
2217 295 294 417 403 
2218 295 294 131 417 
2219 418 279 270 257 
2220 57 270 257 418 
2221 418 58 270 393 
2222 270 57 58 418 
2223 46 4 454 271 
2224 402 452 188 50 
2225 402 260 50 272 
2226 402 272 50 49 
2227 94 419 95 350 
2228 228 447 209 8 
2229 447 225 419 467 
2230 350 467 447 419 
2231 419 94 228 469 
2232 420 120 119 357 
2233 468 250 253 119 
2234 88 91 456 220 
2235 456 90 220 91 
2236 395 459 10 73 
2237 468 250 119 420 
2238 467 213 205 222 
2239 262 389 421 385 
2240 273 262 421 385 
2241 421 454 46 199 
2242 421 273 47 262 
2243 421 454 199 389 
2244 46 421 47 262 
2245 345 422 16 23 
2246 98 422 23 97 
2247 422 345 16 86 
2248 223 456 224 90 
2249 122 123 35 423 
2250 467 222 205 447 
2251 205 467 447 83 
2252 29 35 423 354 
2253 424 277 274 259 
2254 58 424 259 393 
2255 59 274 259 424 
2256 58 59 259 424 
2257 445 106 358 460 
2258 425 449 17 212 
2259 344 98 18 425 
2260 222 447 8 209 
2261 275 261 426 401 
2262 56 275 426 401 
2263 426 56 55 275 
2264 55 261 426 275 
2265 427 255 274 373 
2266 255 373 427 389 
2267 427 454 43 4 
2268 427 271 4 255 
2269 60 427 255 274 
2270 427 255 4 60 
2271 273 428 258 385 
2272 428 258 385 402 
2273 428 49 258 402 
2274 428 48 273 258 
2275 48 428 49 258 
2276 248 429 31 251 
2277 123 429 31 352 
2278 110 429 30 239 
2279 110 429 123 352 
2280 15 430 84 351 
2281 430 224 217 435 
2282 444 380 398 408 
2283 430 15 22 351 
2284 430 224 435 96 
2285 359 34 431 121 
2286 431 28 448 34 
2287 431 436 248 233 
2288 431 28 34 359 
2289 256 276 432 394 
2290 201 432 452 394 
2291 276 52 256 432 
2292 452 432 201 51 
2293 432 276 52 51 
2294 264 433 263 261 
2295 446 149 443 64 
2296 433 426 163 54 
2297 433 261 54 263 
2298 64 65 149 443 
2299 54 433 263 53 
2300 434 465 243 117 
2301 63 234 473 434 
2302 472 243 62 434 
2303 62 243 5 434 
2304 243 5 434 117 
2305 435 84 348 83 
2306 430 224 96 223 
2307 436 249 233 242 
2308 224 438 221 91 
2309 67 441 466 181 
2310 435 83 348 95 
2311 375 114 236 11 
2312 460 27 106 358 
2313 459 2 42 73 
2314 375 458 11 1 
2315 11 375 1 236 
2316 375 458 1 166 
2317 107 108 436 356 
2318 121 436 252 249 
2319 443 159 65 149 
2320 108 121 436 356 
2321 450 436 107 252 
2322 215 437 12 80 
2323 451 7 63 61 
2324 441 202 138 377 
2325 215 70 437 209 
2326 437 71 12 395 
2327 70 8 437 209 
2328 70 437 8 136 
2329 92 221 464 438 
2330 221 92 91 438 
2331 204 203 221 438 
2332 221 438 224 204 
2333 456 88 220 87 
2334 108 436 431 233 
2335 139 439 178 367 
2336 429 30 31 352 
2337 139 38 178 439 
2338 178 38 39 439 
2339 182 440 183 372 
2340 415 14 82 349 
2341 440 40 39 137 
2342 440 183 40 137 
2343 466 181 441 408 
2344 441 202 181 138 
2345 223 456 206 217 
2346 181 466 68 155 
2347 441 67 138 181 
2348 67 138 66 441 
2349 453 442 245 111 
2350 245 442 112 111 
2351 245 112 442 116 
2352 245 442 453 116 
2353 443 400 149 371 
2354 446 149 64 136 
2355 443 457 65 159 
2356 424 277 259 393 
2357 427 424 373 274 
2358 427 424 274 60 
2359 466 68 67 181 
2360 181 466 155 408 
2361 424 274 60 59 
2362 119 33 445 358 
2363 119 106 445 468 
2364 235 414 460 445 
2365 33 414 445 358 
2366 445 106 119 358 
2367 428 421 385 273 
2368 428 421 273 47 
2369 442 230 231 246 
2370 110 429 352 30 
2371 428 48 47 273 
2372 139 200 37 455 
2373 139 37 38 455 
2374 449 223 456 206 
2375 471 422 98 97 
2376 446 149 136 371 
2377 446 136 437 371 
2378 446 149 371 443 
2379 8 446 64 136 
2380 437 446 8 136 
2381 455 397 458 367 
2382 116 442 246 117 
2383 23 422 16 346 
2384 23 422 346 97 
2385 246 442 230 465 
2386 418 279 257 401 
2387 230 113 234 465 
2388 418 257 56 401 
2389 418 56 257 57 
2390 230 112 113 465 
2391 13 386 124 399 
2392 254 246 230 465 
2393 442 112 230 465 
2394 106 107 420 357 
2395 120 420 107 357 
2396 246 442 465 117 
2397 445 236 468 106 
2398 232 468 106 420 
2399 345 422 23 98 
2400 238 465 234 61 
2401 431 28 359 108 
2402 451 61 63 398 
2403 431 108 359 121 
2404 439 367 331 406 
2405 422 98 345 86 
2406 463 85 15 212 
2407 218 416 9 72 
2408 9 92 416 218 
2409 463 206 15 430 
2410 350 82 447 83 
2411 103 466 441 408 
2412 350 467 419 95 
2413 463 97 471 226 
2414 350 467 95 83 
2415 448 109 28 239 
2416 448 109 239 423 
2417 448 429 239 248 
2418 431 448 239 248 
2419 431 28 239 448 
2420 449 226 18 223 
2421 449 90 18 219 
2422 449 90 219 87 
2423 449 456 87 206 
2424 449 463 226 223 
2425 449 463 206 212 
2426 109 29 423 354 
2427 439 367 406 178 
2428 252 107 450 420 
2429 464 221 203 438 
2430 95 435 96 348 
2431 464 203 89 88 
2432 89 203 464 207 
2433 431 436 108 121 
2434 356 120 121 450 
2435 121 450 436 356 
2436 107 120 356 450 
2437 356 436 107 450 
2438 451 104 24 398 
2439 444 451 104 69 
2440 104 451 24 69 
2441 104 451 444 398 
2442 260 452 276 394 
2443 276 452 260 51 
2444 452 432 276 394 
2445 276 432 452 51 
2446 464 221 229 203 
2447 261 378 426 401 
2448 433 261 378 426 
2449 54 426 55 261 
2450 464 438 203 88 
2451 433 261 426 54 
2452 115 453 249 116 
2453 111 115 453 462 
2454 84 96 430 435 
2455 453 442 249 116 
2456 464 214 207 203 
2457 415 210 82 14 
2458 42 10 459 73 
2459 402 260 452 50 
$EndElements
