$MeshFormat
4.1 0 8
$EndMeshFormat
$Entities
36 54 20 1
1 18.196029684325 4.726997326757 13.95 0 
2 -17.39700934203 7.126293984464 13.95 0 
3 18.8 -4.604671964794e-15 10.375 0 
4 18.8 -4.604671964794e-15 -13.95 0 
5 16.328969213402 -9.316907449779 3.32867823789 0 
6 12.712049074776 -13.85076923208 8.86431931341 0 
7 17.397009342039 -7.126293984464 13.95 0 
8 -18.19602968432 -4.726997326757 13.95 0 
9 -16.3289692134 9.316907449779 3.32867823789 0 
10 -12.71204907477 13.850769232085 8.86431931341 0 
11 16.246288692278 4.726997326757 13.95 0 
12 -15.34608530039 7.126293984464 13.95 0 
13 -5.64 -1.439356543202 20.42815061436 0 
14 -5.64 -5.656861997937 23.617824937916 0 
15 -52.152 -2.815868043461 21.469198085568 0 
16 -70.23999999999999 4.312937112379 16.0777250911 0 
17 -52.152 11.441742268219 10.686252096633 0 
18 -52.152 7.12880515584 4.983527005533 0 
19 -16.24628869227 -4.726997326757 13.95 0 
20 -5.64 -9.354759354815 17.449948933049 0 
21 -5.64 -9.969799110315 17.915099846816 0 
22 -52.152 -7.12880515584 15.766472994467 0 
23 -70.23999999999999 8.601919117211001e-15 10.375 0 
24 15.346085300395 -7.126293984464 13.95 0 
25 7.685863538058 0 19.339573810472 0 
26 5.64 1.439356543202 20.42815061436 0 
27 5.64 5.656861997937 23.617824937916 0 
28 52.152 2.815868043461 21.469198085568 0 
29 70.23999999999999 -4.312937112379 16.0777250911 0 
30 52.152 -11.44174226821 10.686252096633 0 
31 52.152 -7.12880515584 4.983527005533 0 
32 5.64 9.354759354815 17.449948933049 0 
33 5.64 9.969799110315 17.915099846816 0 
34 52.152 7.12880515584 15.766472994467 0 
35 70.23999999999999 0 10.375 0 
36 1.5 0 22.95 0 
1 -17.39700944203771 4.72699722675697 13.9499999 18.19602978432489 18.8000001 13.9500001 0 2 1 -2 
2 18.19602958432491 -9.999999894816369e-08 10.3749999 18.8000001 4.726997426757164 13.95000009999976 0 2 1 -3 
3 18.7999999 -1.00000004604672e-07 -13.9500001 18.8000001 9.999999539532803e-08 10.3750001 0 2 4 -3 
4 -18.8000001 -18.8000001 -13.9500001 18.8000001 18.8000001 -13.9499999 0 2 4 -4 
5 16.32896911340248 -9.316907549779899 3.328678137890826 18.8000001 1.000000011686097e-07 10.3750001 0 2 3 -5 
6 12.71204897478009 -13.85076933208038 3.328678137893689 16.32896931340396 -9.316907349775493 8.864319413413421 0 2 5 -6 
7 12.712048974778 -13.85076933208448 8.86431921341304 17.39700944203898 -7.126293884464456 13.9500001000006 0 2 7 -6 
8 -18.19602978432457 -18.8000001 13.9499999 17.397009442039 -4.726997226758183 13.9500001 0 2 8 -7 
9 -18.8000001 -4.726997426757956 3.328678137890371 -16.32896911340213 9.316907549780501 13.95000010000036 0 2 8 -9 
10 -16.32896931340374 9.316907349775883 3.328678137894177 -12.71204897477658 13.8507693320836 8.864319413417229 0 2 9 -10 
11 -17.39700944203812 7.126293884466572 8.864319213409878 -12.71204897477344 13.85076933208866 13.950000099999 0 2 2 -10 
12 16.246288592278 4.726997226757 13.9499999 18.196029784325 4.726997426757 13.9500001 0 2 1 -11 
13 -17.39700944203 7.126293884463999 13.9499999 -15.34608520039 7.126294084464 13.9500001 0 2 2 -12 
14 -15.34608540039392 4.726997226756936 13.9499999 16.24628879227778 16.9200001 13.9500001 0 2 11 -12 
15 -15.34608548412942 -1.43935672693663 13.94999981626627 -5.639999816260633 7.126294168204216 20.42815079810016 0 2 12 -13 
16 -5.640000100000002 -5.656862097938185 20.42815051435824 -5.639999900000001 -1.439356443203331 23.61782503791443 0 2 13 -14 
17 -52.15200010000005 -5.656862097937 21.46919798556755 -5.639999899999999 -2.815867943461882 23.617825037916 0 2 14 -15 
18 -70.24000010000213 -2.815868143461 16.07772499110742 -52.1519999 4.312937212379183 21.469198185568 0 2 15 -16 
19 -70.24000009999999 4.312937012379 10.6862519966395 -52.1519998999981 11.44174236821909 16.0777251911 0 2 16 -17 
20 -52.1520001 11.441742168219 8.864319213410306 -12.71204897477002 13.85076933208582 10.686252196633 0 2 17 -10 
21 -52.1520001 7.12880505584 3.328678137890377 -16.32896911339999 9.316907549779339 4.983527105533001 0 2 18 -9 
22 -52.1520001 7.12880505584 4.983526905533 -52.1519999 11.44174236821817 10.68625219663363 0 2 18 -17 
23 -16.24628879226921 -9.354759454804343 13.94999990000709 -5.639999899998063 -4.726997226750343 17.44994903305243 0 2 19 -20 
24 -5.640000100000002 -9.969799210316548 17.44994883304734 -5.639999900000001 -9.354759254816251 17.91509994681395 0 2 20 -21 
25 -52.15200010000003 -9.969799210314999 15.76647289446756 -5.639999899999999 -7.128805055839883 17.915099946816 0 2 21 -22 
26 -70.24000010000189 -7.128805255840001 10.37499990000649 -52.1519999 1.000000886541841e-07 15.766473094467 0 2 22 -23 
27 -70.24000009999999 -9.999999139864713e-08 4.983526905539496 -52.1519998999981 7.128805255840096 10.3750001 0 2 23 -18 
28 -18.19602978432 -4.726997426757 13.9499999 -16.24628859227 -4.726997226757 13.9500001 0 2 8 -19 
29 15.346085200395 -7.126294084464 13.9499999 17.397009442039 -7.126293884463999 13.9500001 0 2 7 -24 
30 -16.24628879227716 -16.9200001 13.9499999 15.34608540039481 -4.726997226759083 13.9500001 0 2 19 -24 
31 5.639999618287312 -3.817142469886292e-07 19.33957342876091 7.685863919770253 1.439356924913384 20.4281509960741 0 2 25 -26 
32 5.639999899999999 1.439356443204788 20.42815051435631 5.6400001 5.656862097939642 23.61782503791251 0 2 26 -27 
33 5.639999899999999 2.815867943461882 21.46919798556755 52.15200010000005 5.656862097937 23.617825037916 0 2 27 -28 
34 52.1519999 -4.312937212379183 16.07772499110742 70.24000010000213 2.815868143461 21.469198185568 0 2 28 -29 
35 52.15199990000094 -11.44174236821796 10.68625199664035 70.24000009999999 -4.312937012379 16.0777251911 0 2 29 -30 
36 12.71204897477575 -13.85076933207647 8.864319213410571 52.1520001 -11.44174216821 10.686252196633 0 2 30 -6 
37 7.685863199614682 -7.126294322909162 13.94999966155908 15.34608563883725 3.384413242990547e-07 19.33957414891648 0 2 24 -25 
38 16.32896911340198 -9.316907549779218 3.328678137890468 52.1520001 -7.12880505584 4.983527105533001 0 2 31 -5 
39 52.1519999 -11.44174236821489 4.983526905533 52.1520001 -7.12880505584 10.6862521966293 0 2 31 -30 
40 5.639999900000041 4.726997226754151 13.94999990000316 16.24628879227773 9.354759454812877 17.44994903305208 0 2 11 -32 
41 5.639999899999999 9.354759254816251 17.44994883304734 5.6400001 9.969799210316548 17.91509994681395 0 2 32 -33 
42 5.639999899999999 7.128805055839883 15.76647289446756 52.15200010000003 9.969799210314999 17.915099946816 0 2 33 -34 
43 52.1519999 -1.000000877660057e-07 10.37499990000649 70.24000010000189 7.128805255840001 15.766473094467 0 2 34 -35 
44 52.1519998999981 -7.128805255840089 4.983526905539495 70.24000009999999 9.999999983634211e-08 10.3750001 0 2 35 -31 
45 -5.640000100000001 -9.354759454815463 17.44994883304992 -5.639999899999999 -1.439356443202087 20.4281507143606 0 2 20 -13 
46 1.4999999 -1e-07 19.33957371047198 7.685863638057994 1e-07 22.9500001 0 2 25 -36 
47 -1.5000001 -1.5000001 22.9499999 1.5000001 1.5000001 22.9500001 0 2 36 -36 
48 5.639999899999999 1.439356443202088 17.44994883304992 5.6400001 9.354759454815463 20.4281507143606 0 2 32 -26 
49 -70.24000009999999 -9.999999139864713e-08 10.3749999 -70.2399999 4.312937212378175 16.07772519110062 0 2 23 -16 
50 -52.1520001 -7.128805255840001 15.766472894467 -52.1519999 -2.815867943461349 21.46919818556826 0 2 22 -15 
51 -5.6400001 -9.969799210314999 17.915099746816 -5.639999899999999 -5.656861897937191 23.61782503791615 0 2 21 -14 
52 70.2399999 -4.31293721237817 10.3749999 70.24000009999999 9.999999983634211e-08 16.07772519110063 0 2 35 -29 
53 52.1519999 2.815867943461349 15.766472894467 52.1520001 7.128805255840001 21.46919818556826 0 2 34 -28 
54 5.639999899999999 5.656861897937191 17.915099746816 5.6400001 9.969799210314999 23.61782503791615 0 2 33 -27 
1 -18.8000001 -18.8000001 -13.9500001 18.8000001 18.8000001 13.95000010000222 0 12 -1 2 -3 4 3 5 6 -7 -8 9 10 -11 
2 -17.39700944203771 4.726997226756936 13.9499999 18.196029784325 18.8000001 13.9500001 0 4 -12 1 13 -14 
3 -70.24000018374028 -5.656862181676317 8.864319129671745 -5.639999816260634 13.85076941582679 23.61782512165413 0 8 15 16 17 18 19 20 -11 13 
4 -52.1520001 7.12880505584 3.328678137890377 -12.71204897477002 13.85076933208582 10.68625219663363 0 4 -21 22 20 -10 
5 -70.24000010000189 -9.969799210316548 3.328678137890371 -5.639999899998067 9.316907549780499 17.915099946816 0 8 23 24 25 26 27 21 -9 28 
6 -18.19602978432457 -18.8000001 13.9499999 17.397009442039 -4.726997226757 13.9500001 0 4 -28 8 29 -30 
7 5.639999618287312 -13.85076961379709 8.864318931697953 70.24000038171475 5.656862379652257 23.61782531962862 0 9 31 32 33 34 35 36 -7 29 37 
8 12.71204897477575 -13.85076933208038 3.328678137890468 52.1520001 -7.12880505584 10.686252196633 0 4 -38 39 36 -6 
9 5.639999899999999 -9.316907549779899 3.328678137890469 70.24000010000189 9.969799210316548 17.915099946816 0 9 40 41 42 43 44 38 -5 -2 12 
10 -18.8000001 -18.8000001 -13.9500001 18.8000001 18.8000001 -13.9499999 0 1 4 
11 -16.9200001 -16.9200001 13.9499999 16.9200001 16.9200001 22.9500001 0 12 -40 14 15 -45 -23 30 37 46 -47 -46 31 -48 
12 -70.24000009999999 -9.999999139864713e-08 4.983526905533 -52.1519998999981 11.44174236821909 16.07772519110062 0 4 49 19 -22 -27 
13 -70.24000010000213 -7.128805255840001 10.3749999 -52.1519999 4.312937212379183 21.46919818556826 0 4 50 18 -49 -26 
14 -52.15200010000005 -9.969799210314999 15.766472894467 -5.639999899999999 -2.815867943461349 23.61782503791615 0 4 51 17 -50 -25 
15 -5.640000100000002 -9.969799210316548 17.44994883304734 -5.639999899999999 -1.439356443202087 23.61782503791615 0 4 -24 45 16 -51 
16 52.1519998999981 -11.44174236821796 4.983526905533 70.24000009999999 1.000000002804313e-07 16.07772519110063 0 4 52 35 -39 -44 
17 52.1519999 -4.312937212379183 10.3749999 70.24000010000213 7.128805255840001 21.46919818556826 0 4 53 34 -52 -43 
18 5.639999899999999 2.815867943461349 15.766472894467 52.15200010000005 9.969799210314999 23.61782503791615 0 4 54 33 -53 -42 
19 5.639999899999999 1.439356443202088 17.44994883304734 5.6400001 9.969799210316548 23.61782503791615 0 4 -41 48 32 -54 
20 -1.5000001 -1.5000001 22.9499999 1.5000001 1.5000001 22.9500001 0 1 47 
1 -70.24000038171475 -18.80000038171262 -13.95000038171261 70.24000038171475 18.80000038171262 23.61782531962876 0 20 1 2 -3 4 5 6 -7 8 9 -10 11 12 13 14 15 16 17 18 19 20 
$EndEntities
$Nodes
111 543 1 543
0 1 0 1
1
18.196029684325 4.726997326757 13.95
0 2 0 1
2
-17.39700934203 7.126293984464 13.95
0 3 0 1
3
18.8 -4.604671964794e-15 10.375
0 4 0 1
4
18.8 -4.604671964794e-15 -13.95
0 5 0 1
5
16.328969213402 -9.316907449779 3.32867823789
0 6 0 1
6
12.712049074776 -13.85076923208 8.86431931341
0 7 0 1
7
17.397009342039 -7.126293984464 13.95
0 8 0 1
8
-18.19602968432 -4.726997326757 13.95
0 9 0 1
9
-16.3289692134 9.316907449779 3.32867823789
0 10 0 1
10
-12.71204907477 13.850769232085 8.86431931341
0 11 0 1
11
16.246288692278 4.726997326757 13.95
0 12 0 1
12
-15.34608530039 7.126293984464 13.95
0 13 0 1
13
-5.64 -1.439356543202 20.42815061436
0 14 0 1
14
-5.64 -5.656861997937 23.617824937916
0 15 0 1
15
-52.152 -2.815868043461 21.469198085568
0 16 0 1
16
-70.23999999999999 4.312937112379 16.0777250911
0 17 0 1
17
-52.152 11.441742268219 10.686252096633
0 18 0 1
18
-52.152 7.12880515584 4.983527005533
0 19 0 1
19
-16.24628869227 -4.726997326757 13.95
0 20 0 1
20
-5.64 -9.354759354815 17.449948933049
0 21 0 1
21
-5.64 -9.969799110315 17.915099846816
0 22 0 1
22
-52.152 -7.12880515584 15.766472994467
0 23 0 1
23
-70.23999999999999 8.601919117211001e-15 10.375
0 24 0 1
24
15.346085300395 -7.126293984464 13.95
0 25 0 1
25
7.685863538058 0 19.339573810472
0 26 0 1
26
5.64 1.439356543202 20.42815061436
0 27 0 1
27
5.64 5.656861997937 23.617824937916
0 28 0 1
28
52.152 2.815868043461 21.469198085568
0 29 0 1
29
70.23999999999999 -4.312937112379 16.0777250911
0 30 0 1
30
52.152 -11.44174226821 10.686252096633
0 31 0 1
31
52.152 -7.12880515584 4.983527005533
0 32 0 1
32
5.64 9.354759354815 17.449948933049
0 33 0 1
33
5.64 9.969799110315 17.915099846816
0 34 0 1
34
52.152 7.12880515584 15.766472994467
0 35 0 1
35
70.23999999999999 0 10.375
0 36 0 1
36
1.5 0 22.95
1 1 0 6
37
38
39
40
41
42
15.39737810247357 10.78706389938743 13.95
10.65763671012646 15.48724571235844 13.95
4.574326959302198 18.23500844171456 13.95
-2.085651065268709 18.68395192762879 13.95
-8.482698868596787 16.77747954565008 13.95
-13.81036458428929 12.75593313125339 13.95
1 2 0 0
1 3 0 3
43
44
45
18.8 -4.604671964794e-15 -7.868749999999983
18.8 -4.604671964794e-15 -1.787499999999966
18.8 -4.604671964794e-15 4.293750000000031
1 4 0 15
46
47
48
49
50
51
52
53
54
55
56
57
58
59
60
17.36893521121219 7.194448528463696 -13.95
13.29360748630708 13.29360748630711 -13.95
7.194448528463658 17.3689352112122 -13.95
-4.894209487988856e-14 18.8 -13.95
-7.194448528463741 17.36893521121217 -13.95
-13.29360748630712 13.29360748630707 -13.95
-17.3689352112122 7.194448528463659 -13.95
-18.8 -2.274429545314651e-14 -13.95
-17.36893521121218 -7.194448528463724 -13.95
-13.29360748630706 -13.29360748630713 -13.95
-7.194448528463653 -17.36893521121221 -13.95
2.994200460712918e-14 -18.8 -13.95
7.194448528463723 -17.36893521121218 -13.95
13.2936074863071 -13.29360748630708 -13.95
17.36893521121219 -7.194448528463684 -13.95
1 5 0 1
61
18.18636708978894 -4.764037371331609 6.771986834305376
1 6 0 1
62
14.76054456614734 -11.64329524278875 6.205589431590113
1 7 0 1
63
15.47478519095297 -10.67572120720075 11.26558927493965
1 8 0 6
64
65
66
67
68
69
-15.39737810247266 -10.78706389938873 13.95
-10.65763671012487 -15.48724571235953 13.95
-4.574326959300034 -18.2350084417151 13.95
2.085651065271203 -18.68395192762851 13.95
8.482698868599297 -16.77747954564881 13.95
13.8103645842914 -12.75593313125111 13.95
1 9 0 2
70
71
-18.79998308087723 0.02522218725500095 10.3559246095981
-18.1831290474488 4.776381270776668 6.762651216477482
1 10 0 1
72
-14.76054456614583 11.64329524279066 6.20558943159245
1 11 0 1
73
-15.47478519095062 10.67572120720415 11.26558927493708
1 12 0 0
1 13 0 0
1 14 0 6
74
75
76
77
78
79
13.67794637246067 9.959928866818778 13.95
9.486138882284449 14.01069481167908 13.95
4.168400959482346 16.39850095103168 13.95
-1.644093529074128 16.83993338667516 13.95
-7.261446984862801 15.28259754380868 13.95
-12.01692352248563 11.91133699694252 13.95
1 15 0 2
80
81
-11.77633045621543 3.563787002565746 16.64430286922773
-8.456608800451097 0.61187062087774 18.87681969440089
1 16 0 1
82
-5.640000000000001 -3.363770741667151 21.88357364169204
1 17 0 5
83
84
85
86
87
-13.392 -5.183363005524481 23.25972046252459
-21.14400000000001 -4.709864013111961 22.90161598713319
-28.89599999999998 -4.236365020699443 22.54351151174178
-36.64799999999995 -3.762866028286926 22.18540703635038
-44.4 -3.289367035874404 21.82730256095897
1 18 0 2
88
89
-58.18133333333403 -0.439599658180946 19.67204042074781
-64.21066666666809 1.936668727099119 17.87488275592762
1 19 0 2
90
91
-64.21066666666604 6.689205497659023 14.28056742627984
-58.18133333333207 9.065473882939056 12.48340976145967
1 20 0 5
92
93
94
95
96
-45.57291926508974 11.8435983181391 10.38233075309162
-38.99383853017949 12.2454543680592 10.07840940955025
-32.41475779526924 12.6473104179793 9.774488066008871
-25.83567706035899 13.0491664678994 9.470566722467495
-19.25659632544873 13.4510225178195 9.166645378926118
1 21 0 4
97
98
99
100
-44.98040775338517 7.566852331119355 4.652234528856647
-37.80881550677034 8.00489950639871 4.320942052180295
-30.63722326015552 8.442946681678064 3.989649575503942
-23.4656310135407 8.880993856957417 3.65835709882759
1 22 0 0
1 23 0 1
101
-11.31973844624144 -7.363324825217191 15.94383882738888
1 24 0 0
1 25 0 5
102
103
104
105
106
-13.39199999999999 -9.49630011790248 17.55699537142459
-21.144 -9.022801125489961 17.19889089603318
-28.89599999999997 -8.549302133077445 16.84078642064178
-36.64799999999994 -8.075803140664927 16.48268194525037
-44.39999999999998 -7.602304148252405 16.12457746985896
1 26 0 2
107
108
-58.18133333333395 -4.752536770559978 13.96931532964684
-64.21066666666792 -2.376268385279945 12.17215766482667
1 27 0 2
109
110
-64.21066666666604 2.376268385280031 8.577842335179838
-58.18133333333208 4.752536770560063 6.780684670359667
1 28 0 0
1 29 0 0
1 30 0 6
111
112
113
114
115
116
-13.67794637245936 -9.959928866820579 13.95
-9.486138882282606 -14.01069481168033 13.95
-4.168400959480214 -16.39850095103222 13.95
1.644093529076279 -16.83993338667495 13.95
7.261446984864727 -15.28259754380776 13.95
12.01692352248713 -11.91133699694101 13.95
1 31 0 1
117
6.63564661162332 0.7756235131831453 19.92617326631405
1 32 0 1
118
5.64 3.363770741668608 21.88357364169011
1 33 0 5
119
120
121
122
123
13.392 5.183363005524481 23.25972046252459
21.14400000000001 4.709864013111961 22.90161598713319
28.89599999999998 4.236365020699443 22.54351151174178
36.64799999999995 3.762866028286926 22.18540703635038
44.4 3.289367035874404 21.82730256095897
1 34 0 2
124
125
58.18133333333403 0.439599658180946 19.67204042074781
64.21066666666809 -1.936668727099119 17.87488275592762
1 35 0 2
126
127
64.21066666666698 -6.689205497658655 14.28056742628011
58.18133333333397 -9.06547388293831 12.48340976146023
1 36 0 5
128
129
130
131
132
45.57291926509069 -11.84359831813004 10.38233075309167
38.99383853018138 -12.24545436805009 10.07840940955033
32.41475779527208 -12.64731041797013 9.774488066009003
25.83567706036279 -13.04916646789017 9.47056672246767
19.2565963254535 -13.45102251781021 9.166645378926338
1 37 0 1
133
11.51942562256468 -3.320435552044595 16.82834812575407
1 38 0 4
134
135
136
137
44.98040775338556 -7.566852331119331 4.652234528856665
37.80881550677114 -8.004899506398662 4.320942052180332
30.63722326015671 -8.442946681677991 3.989649575503998
23.46563101354229 -8.880993856957321 3.658357098827664
1 39 0 0
1 40 0 1
138
11.31973844624699 7.363324825223664 15.94383882738696
1 41 0 0
1 42 0 5
139
140
141
142
143
13.39199999999999 9.49630011790248 17.55699537142459
21.144 9.022801125489961 17.19889089603318
28.89599999999997 8.549302133077445 16.84078642064178
36.64799999999994 8.075803140664927 16.48268194525037
44.39999999999998 7.602304148252405 16.12457746985896
1 43 0 2
144
145
58.18133333333395 4.752536770559978 13.96931532964684
64.21066666666792 2.376268385279945 12.17215766482667
1 44 0 2
146
147
64.21066666666604 -2.376268385280023 8.577842335179836
58.18133333333207 -4.752536770560055 6.780684670359667
1 45 0 1
148
-5.640000000000001 -4.995348231405444 19.42813466359968
1 46 0 2
149
150
4.911559069853544 0 20.95881766350961
2.936654501975045 0 22.11148569923635
1 47 0 6
151
152
153
154
155
156
0.9352347027881014 1.172747223702044 22.95
-0.3337814009344706 1.462391868272736 22.95
-1.351453301853628 0.6508256086763385 22.95
-1.351453301853629 -0.6508256086763364 22.95
-0.3337814009344732 -1.462391868272735 22.95
0.9352347027880991 -1.172747223702046 22.95
1 48 0 1
157
5.64 4.995348231405445 19.42813466359968
1 49 0 0
1 50 0 0
1 51 0 0
1 52 0 0
1 53 0 0
1 54 0 0
2 1 0 69
158
159
160
161
162
163
164
165
166
167
168
169
170
171
172
173
174
175
176
177
178
179
180
181
182
183
184
185
186
187
188
189
190
191
192
193
194
195
196
197
198
199
200
201
202
203
204
205
206
207
208
209
210
211
212
213
214
215
216
217
218
219
220
221
222
223
224
225
226
12.11108249720747 -14.37921001814199 4.927606308334259
-11.28836006259055 15.03372632108589 4.793022040468113
-17.82654875756447 -5.97111039875974 8.026309855274111
1.264422591451152 18.7574314742245 8.176918951539317
-1.436792546895024 -18.74501606233473 8.040089958746442
13.23778215903055 13.34919935839047 8.176918951539339
-10.19613546647527 -15.79489859256099 -7.008321422850365
-18.22854537226536 4.600014522940456 1.509855135715773
-3.667698053903263 18.43876327158072 -7.607639629455204
3.667698053903245 -18.43876327158073 -7.607639629455215
10.31503059441944 15.71751073917848 -7.588911258392919
18.06233507521609 -5.214599853355814 -4.828124999999975
-16.79433321727853 8.449282323784377 -1.601399018606577
-18.51349062244338 -3.269658234846705 -7.434222754130152
18.10598095663855 5.060973582013869 1.302202027695728
-14.76065217589143 -11.64315882148618 7.177741516909464
-17.10617680400951 -7.798635467180594 1.928944092622483
-13.84796012277649 12.71510913983801 0.1876720633294244
-10.63457988823851 15.50308713129979 0.1854664041220797
-7.229635934464349 17.35431831721148 4.111580000966367
-12.57738641040787 13.97316539239723 -4.412946808828918
9.320261314530718 -16.32705512420602 7.547815000133316
8.448255805503409 -16.79484962257114 2.966659517941537
11.6216715754523 -14.77757591055868 -0.2458192314037042
-13.39303578658685 -13.19342989594457 0.6864071575782091
-10.36455139514562 -15.68489956542231 5.822732259792861
-18.38911833789227 3.909005852514684 -3.9036174151086
-18.7569471499667 -1.271587045135439 -0.2759578797916546
-8.556702771153549 -16.73985775585125 -0.361670911428897
-15.65510290397818 -10.40950301723641 -5.811461986489457
-16.44950517703885 9.102405145376242 -7.964947606055675
18.15585795384461 -4.879018544729807 1.707874507522272
18.00157607425153 5.420632697659456 8.036374493160157
-4.87315530251874 18.15743256623947 -0.8944683314407591
-3.862880175450508 -18.39886292003154 -6.357106134353711
0.9157899693665352 -18.7776816655307 -0.8684509952420179
3.723958582736485 18.42748307485489 -7.63956136844908
7.487975624668361 17.24442579630799 -1.466198171499425
13.1504197502506 13.43526927129557 -1.380022146463444
15.45308795899051 10.70710383491738 -7.431513206174649
15.63162871128786 -10.44472038076851 -8.309809066076575
10.88698742298649 -15.32688829644602 -7.901189941976749
16.64434667539323 -8.741036766272426 -1.430356039568998
18.02985853457269 5.325805218302328 -4.841447205257014
7.713483981029622 17.14474161002141 8.199100176438861
6.274244483496302 -17.7221289962949 -1.845724734706819
1.351618283259131 18.75135003183397 -1.620070225361108
5.204019168157473 -18.06538636446643 7.797507642650505
-2.407098193163753 18.64526423219762 3.739884027990197
-4.554967892685773 18.23985382333427 8.502552945452756
15.61164855958039 10.47456105295834 4.31440197002242
14.37720563417339 -12.11346185665737 -3.698924820135465
14.19444349032995 -12.32711539654876 2.529231886158094
-18.76457520468194 -1.15356724460947 4.817174070277268
-9.335671465693339 16.31824862798209 -8.533214180570381
-8.731975408476567 16.64910224203577 8.464728912742206
10.65450294399726 15.48940176431465 3.450413783842944
-18.43876327158074 3.667698053903185 -9.548860000259499
-2.861009421960868 -18.58102863372884 2.70654097670851
4.516934062190276 18.24930975894226 3.21881903596848
-17.8815142706816 -5.804433425185461 -2.842793187746853
16.36913809575315 9.246151523859156 -1.787499999998463
18.23350784582533 -4.580304753640996 -9.780046890505965
-5.912879183906504 -17.84594799265439 8.931144040174932
-8.926857149447025 16.54542901932031 -3.85302447020938
18.15750157956404 4.872898150806085 -9.462887368972325
16.1651978459273 9.598248725784687 9.253213064951044
-13.01519260563932 13.56630979441762 -8.96545050986874
2.840147827650972 -18.58422880608957 2.429123591306087
2 2 0 0
2 3 0 23
227
228
229
230
231
232
233
234
235
236
237
238
239
240
241
242
243
244
245
246
247
248
249
-28.27865423202585 8.56701509008961 12.86039118565697
-48.58245987945023 7.014598720804035 14.03447446443955
-8.492845658606235 -2.562451291303074 21.27754050119754
-16.21933978129091 2.746636244001523 17.26230913407227
-39.58604525125245 1.623041493538804 18.11207716972707
-24.87127656538654 0.6872631846893782 18.81980074621395
-22.92035695276209 9.483555913816245 12.16721680489836
-12.18846515118755 -0.3432260803634204 19.5991536562971
-32.47843784451258 0.8427027574054096 18.70224272067535
-34.98200529654778 6.712581605889632 14.26288821447643
-18.09778082655067 -0.6214124652314981 19.80954436675379
-52.5864883136594 2.536895166279712 17.42093506529737
-58.51894053308515 4.414049830978099 16.00125414263011
-42.34547410063841 6.828962380105423 14.17487012623544
-24.5174919338664 5.481002863393395 15.19432390188441
-46.44783884833799 1.69796333325024 18.05541422738686
-18.85207140629689 9.638661673328931 12.04991124030261
-21.07012978745774 6.750983000758021 14.23384546764064
-20.771603461439 3.074078878920707 17.01466621428262
-53.81111863096064 6.747429787969102 14.23653274136692
-29.07338958294193 4.419543960805751 15.99709896487643
-18.92469318670553 5.015629213163631 15.54628322924723
-15.932691613328 5.115728085731668 15.47057904650842
2 4 0 2
250
251
-19.92948363577975 11.26827710705011 6.365967373940403
-48.86245963254486 9.486201736989297 7.68292887931252
2 5 0 16
252
253
254
255
256
257
258
259
260
261
262
263
264
265
266
267
-33.88165192370747 2.900699531762913 8.181218174198593
-48.19909292643889 2.588112357467705 8.417625997359332
-22.69310850706928 -2.303901524397606 12.11742703779384
-23.32970609734507 2.626754175684655 8.388401419773128
-39.38252168406608 -2.506015802406902 12.27028486569934
-17.0450821339026 -6.867700644642731 15.56900120360115
-32.18814664479928 -3.574238024484479 13.07817498704767
-52.66960857651419 -1.707101164534397 11.66607047060608
-58.49924267517191 0.1308935652793199 10.27600597408323
-41.4910651349082 2.827638744856376 8.236473613357056
-46.31023499771271 -2.266427225126669 12.08908544785148
-27.9240177824085 -0.08375001257609326 10.43833963703866
-53.64555635305071 2.514897682389344 8.472997821228056
-22.47102549840971 -6.01749085292976 14.92599258835007
-26.83445968653734 -4.105736509493212 13.48014413417423
-28.40383125387531 4.500936229333158 6.970968665185673
2 6 0 0
2 7 0 23
268
269
270
271
272
273
274
275
276
277
278
279
280
281
282
283
284
285
286
287
288
289
290
28.08311587887642 -8.84345849073129 12.65131868381743
48.5831336610289 -7.014856437239326 14.03427955503037
8.134311259539132 2.392102766878957 21.14870692404086
39.58534551975891 -1.641292118491841 18.09827433048327
16.31191927017098 -5.086320192733194 15.49282006130113
19.85763759389825 -5.219949815814732 15.39175677112064
20.50013400981189 -7.772588704071356 13.46121114253294
16.63094802341072 -2.404395478856961 17.52114379185091
21.98529399014351 -2.540165332879251 17.41846185772283
52.5864883136594 -2.53689516627971 17.42093506529737
32.23255321114924 -0.466214963506749 18.98697820287436
34.45623057294154 -6.754166879868563 14.23143751878148
12.30666866709303 0.3257435666366151 19.58593173501114
58.51894053308653 -4.414049830977511 16.00125414263055
42.25784065505204 -6.838977982664694 14.16729538551225
46.44251454103106 -1.699695837134326 18.05410394499035
27.89094076490255 -3.879413605150868 16.40559634449961
17.35041065440004 1.716265087734397 20.63757490175999
18.98818860963246 -9.999887938957059 11.77671796128158
22.68978147651097 -10.17093194750593 11.64735839361251
24.71078039620113 1.252679701132053 20.28696802755636
53.81115370913962 -6.74744320510772 14.23652259406468
23.75243583838372 -6.283884948956416 14.58710894966934
2 8 0 2
291
292
19.92948363578234 -11.2682771070482 6.365967373938211
48.86245963254585 -9.486201736987734 7.682928879310579
2 9 0 15
293
294
295
296
297
298
299
300
301
302
303
304
305
306
307
33.94497090791497 -2.271335771986702 8.657202247314904
48.19909292643907 -2.588112357467804 8.417625997359254
23.27985923925673 2.098649853538759 11.96219641831225
25.337385575304 -3.048267429831236 8.069613449438542
40.00986958528667 2.484530622471345 12.25403575173542
17.0429417116059 6.868635040543205 15.56970788167039
29.04764751646836 0.9227918195969584 11.0729019718046
52.66960857651419 1.707101164534392 11.66607047060608
58.49924267517193 -0.1308935652793058 10.27600597408323
41.4528399648168 -2.824333717661486 8.238973185792783
46.31023499771269 2.266427225126479 12.08908544785134
33.31424956221124 3.69702450364377 13.17103767188772
53.64555635305083 -2.514897682389291 8.472997821228093
22.57079226591181 5.98429296061739 14.90088521958874
27.42170971676962 4.250412254095001 13.58956154044684
2 10 0 25
308
309
310
311
312
313
314
315
316
317
318
319
320
321
322
323
324
325
326
327
328
329
330
331
332
11.85389241373698 -2.357885802680188 -13.95
-11.92163525846864 2.685932752989182 -13.95
-2.46180730599398 -12.57643953399906 -13.95
1.244373982616205 11.21995739110893 -13.95
7.306548540491269 -10.97512820231875 -13.95
-6.578136028965108 10.74747425386539 -13.95
-10.28081638396174 -7.107456217057707 -13.95
10.04924474954782 6.714690668870539 -13.95
-13.98261947623212 -2.781315942186268 -13.95
-6.118078220667948 -1.241234979430291 -13.95
-3.881155758629348 -7.463651763715939 -13.95
1.376662895082656 -3.136019263055194 -13.95
0.7774545237431663 3.77358650094096 -13.95
6.92235013319243 1.308485145347014 -13.95
-5.047613348501569 5.015165963304083 -13.95
2.759063075705671 -13.75580516161824 -13.95
13.98261947623212 2.781315942186247 -13.95
-3.132052643703173 14.53409171404662 -13.95
7.488774441345678 11.35525058194512 -13.95
11.85389241373698 -7.920517687052682 -13.95
-7.920517687052654 -11.85389241373699 -13.95
-10.84198546669093 7.787325796985876 -13.95
7.004406989647423 -4.680195121775033 -13.95
5.29643956608906 6.874394057642514 -13.95
2.017286406050615 -8.764539841080369 -13.95
2 11 0 59
333
334
335
336
337
338
339
340
341
342
343
344
345
346
347
348
349
350
351
352
353
354
355
356
357
358
359
360
361
362
363
364
365
366
367
368
369
370
371
372
373
374
375
376
377
378
379
380
381
382
383
384
385
386
387
388
389
390
391
6.187245428695688 -2.370826450534841 19.95821753736367
0.8520866710381459 -2.463346356623727 22.30415100216994
-7.854942651062371 5.087078784614482 18.36342126075884
-1.727277222455676 2.065613612959258 22.25391354770042
0.5925235513455978 2.364135677443279 22.40296284331432
-0.7829407291134187 3.515499904009457 21.72336793897387
10.15643336104356 -7.066270806194442 16.60402802193078
-2.493646632516699 3.005981863917426 21.54591675929208
-1.676439721465829 5.171231598547378 20.65261688440958
1.149028568419287 3.874551602102413 21.46672850939558
3.445993710152207 -2.789954809851639 21.23765628324228
3.74585954987918 -4.79603217403592 20.27363438550343
0.4578122141272216 6.059112108367683 20.27895928076926
-1.839134468434955 7.255798626742348 19.45666101696542
-1.568837510792523 -1.877897677094879 22.39728320303557
-0.7952281667805329 -3.499687495010342 21.73079789386396
1.898678963332611 2.17210824435321 22.14165335629141
3.127479962580539 3.10990033688886 21.25125792370206
-2.810164350238117 -7.460025254604923 19.17270659790794
1.724649783742872 -3.974110386611218 21.29696407778002
2.39339506098068 -2.290868494256185 21.89178921046956
-3.868044001630325 0.2563562835813164 21.56292037636183
-4.571094439881596 2.647412533340218 20.7423764279858
1.763090763071076 -12.42403038719587 16.5014552404198
-10.58688352828907 7.862967129092813 16.12854180773193
-2.516465935627064 -13.39928001176709 15.86816961179774
-6.447609888831346 9.216250262409051 17.26067608492674
1.293499638489524 9.021533476422421 18.50615243434637
-3.171798700067938 -2.62848772349329 21.42118160087803
-2.608978541741283 -0.9222381180433084 22.21040003732251
3.857179217084114 1.449583973698129 21.42048244677724
-4.45691004579492 5.514425973768112 19.68715483280764
-2.149881213054421 10.31440251084857 17.67602593275666
0.8285132172304375 12.59829481362903 16.45651251445961
6.233067795326705 -5.781087904485575 18.8636377955237
4.074441703188516 -6.913157072824593 19.14191822722638
-0.1410624738230165 -5.932696756388204 20.36184423181957
2.007915157251264 -5.900237345090694 20.18781856486576
0.8779395974409425 -8.580761123897139 18.79111439379017
-2.032105569405513 -10.99531900304607 17.29930469137464
4.326377628281427 2.817286818478642 20.81217081703655
2.12973077468049 -1.066346045031306 22.43534595442508
6.304488099054475 -9.470880191409478 17.18500847671124
-3.228645709841722 -5.209120485749591 20.24851337538548
3.228689976712484 6.931885157864077 19.3623002458422
2.345803716676217 5.268616253892807 20.45939020847566
-3.680346626440073 12.77303535222502 16.06711192240038
1.624880229121005 -1.81560408939114 22.40339009066227
5.10558872762406 12.91360113799275 15.7206671807952
9.522719682941885 10.77902676629943 15.43076122913387
-9.569480587203131 -10.70432184987786 15.44522299678043
-5.409708306718111 -12.80612831640693 15.71155705834404
-6.654976945873378 2.762399370205736 19.61992793766408
-4.986983632072121 1.099741360081754 20.84486206655204
2.045492618901148 0.877665789355025 22.5263614397598
2.847197651712328 1.425897910777759 21.96694984825541
3.853715722659671 4.618001679693378 20.31493933863234
-4.25218005857 8.152928815788938 18.45865144646649
-4.442670401223669 -3.26875058075048 20.60625362364163
2 12 0 3
392
393
394
-66.91143634596716 3.468315180385665 12.23422073600323
-61.19600000000224 5.720871134112121 10.53062604831653
-55.48056365403405 7.973427087840857 8.82703136063018
2 13 0 3
395
396
397
-66.91143634596452 0.8446219320007131 14.21850435509817
-55.48056365403139 -3.660489975455516 17.62569373046986
-61.1959999999981 -1.40793402172725 15.9220990427841
2 14 0 6
398
399
400
401
402
403
-40.52399999999993 -5.68258508826935 19.15499225310444
-17.26799999999999 -7.103082065507101 20.22930567927879
-9.515999999999998 -7.576581057919683 20.58741015467024
-32.77199999999993 -6.156084080681934 19.5130967284959
-25.01999999999997 -6.629583073094523 19.87120120388733
-48.27599999999997 -5.209086095856771 18.79688777771298
2 15 0 1
404
-5.640000000000001 -6.66810788722872 20.05891640461349
2 16 0 3
405
406
407
61.19600000000189 -5.720871134112913 10.5306260483173
66.91143634596753 -3.468315180385332 12.2342207360031
55.48056365403602 -7.973427087840548 8.827031360631398
2 17 0 3
408
409
410
66.91143634596452 -0.8446219320007131 14.21850435509817
55.48056365403139 3.660489975455516 17.62569373046986
61.1959999999981 1.40793402172725 15.9220990427841
2 18 0 6
411
412
413
414
415
416
40.52399999999993 5.68258508826935 19.15499225310444
17.26799999999999 7.1030820655071 20.22930567927879
9.51599999999998 7.576581057919672 20.58741015467026
32.77199999999993 6.156084080681934 19.5130967284959
25.01999999999996 6.629583073094514 19.87120120388735
48.27599999999997 5.209086095856772 18.79688777771298
2 19 0 1
417
5.64 6.668107887229299 20.05891640461272
2 20 0 1
418
-6.344131569286608e-17 6.344131569286608e-17 22.95
3 1 0 125
419
420
421
422
423
424
425
426
427
428
429
430
431
432
433
434
435
436
437
438
439
440
441
442
443
444
445
446
447
448
449
450
451
452
453
454
455
456
457
458
459
460
461
462
463
464
465
466
467
468
469
470
471
472
473
474
475
476
477
478
479
480
481
482
483
484
485
486
487
488
489
490
491
492
493
494
495
496
497
498
499
500
501
502
503
504
505
506
507
508
509
510
511
512
513
514
515
516
517
518
519
520
521
522
523
524
525
526
527
528
529
530
531
532
533
534
535
536
537
538
539
540
541
542
543
1.323353063020468 1.090396285116995 11.76660918436633
-0.8590550928020113 1.393634831628874 18.55942053571384
4.310307543099388 0.64300575137748 0.3026281402717271
-2.087877795330885 -8.964679940469324 -1.685815958234447
-4.708278663573296 2.039479522521387 2.918153230037112
0.4937515650244025 -0.4014552159860543 21.16717489330332
8.943428698900862 -8.778683666424705 2.234271002115867
8.564301787967267 9.531246580329116 9.436178135058492
-3.021781586536253 -10.64105219733741 10.42081266228661
-5.917380972326684 12.51683992484392 8.938154674974191
6.859621811124673 4.044159315812643 14.6110110220868
-11.52156023426465 -2.702095110518186 7.079807811193947
-2.641165373302716 5.924867994776567 15.59250962505739
10.03744304461917 -5.885951606183239 -7.22677556115397
-4.169301980085462 -1.41689666702204 13.85412942920516
1.526783869449848 -5.668217319648386 15.30895968361644
10.89296090786067 1.531296568246271 8.842892217055134
-10.90498843007365 -2.061380681048357 -6.507424487019753
1.229781648208242 11.83543766204161 1.430898904686817
2.188124087263319 1.631087629500774 20.20575715232521
-0.3977061680808811 0.03086478558173389 -7.278867872678317
1.843488394568645 4.022797572053573 17.88493624982163
-12.05225796040964 4.908547998615099 9.017884918097277
6.571098982825651 -5.03442088656793 12.37150014182047
12.07624869143425 2.321467441547482 -7.038888963909089
6.521736818476975 8.343682625860414 -6.649288179233137
-3.095059435091404 10.95928707993223 -6.568164587906371
3.949877245366903 -10.93671997918602 -6.588387726278521
-8.809964855533217 -8.403931752885805 1.726323928398006
0.7986896888736519 -13.32319842370572 4.317365860624608
13.30190005837723 -1.097366908042528 0.7328061308150778
2.168784195420684 8.428280202543931 13.91635836052064
-6.101737614192747 -9.843196573747747 -7.931119871122149
-4.160442890188916 1.771947644506746 18.25635210478638
-2.35256578898626 -2.213795264272218 19.20242042195849
6.757546388695443 -12.1610395852406 9.4121031274316
10.8212800873145 7.529986569363686 3.4095790040532
-8.96104240179495 10.2403668718112 1.239741638972839
-6.846812157104967 3.907200299376874 12.57676436768194
-12.80427101843306 1.008236855368811 1.440692534649343
-10.14740490228417 -10.43661764026885 10.46883547838385
-10.23035196158462 5.98570354692915 -7.027529111685977
1.601395320465598 6.282636793145009 7.628562829367656
11.67233851211191 -6.64314848957802 9.134026210170578
1.550843814379585 13.21996128604626 9.179087146847827
-10.04721417552242 -2.093241621013423 14.73282079713101
-3.730827337515897 -6.016688843529636 16.02537832318094
2.148066701784506 -3.218064784313697 18.71929243506415
4.660258065231342 0.4903524518538455 17.53221148739463
0.6294743344751307 -5.208367561241761 6.596692476019189
8.493281745675771 6.252719693296922 19.35716974348125
8.367734717417974 -12.98235701822715 -10.5779116724678
-33.33051022524393 -3.77120025189398 17.62105045014114
-49.40173678504794 7.044120484423501 9.52670015974474
-2.164026416582507 15.63811933754793 -10.29885877236237
40.21075433532295 3.20261256704721 17.2592906391138
12.44556086848968 8.438980169208083 -10.44256899785915
-0.9026624042098192 -14.36140119205754 -10.10942870266348
61.26444308335574 -1.209238144673504 12.44970579506622
-60.98258815127078 1.834675895757558 13.45389415267366
-64.50552438489254 2.139296890882744 13.23440042497694
63.75718114404709 -2.509834781694454 13.79498096586464
-25.77319922127444 -4.099565716282364 18.24451024067556
-13.88441464197881 -4.751209735034706 18.55984812529094
13.7351213808284 5.118724907441843 19.26644711405189
49.27072769807964 -7.031204329549174 9.321134772933998
30.3665035384351 3.635221398336001 18.33102878502716
-16.18110642837488 -3.104730715883546 11.40839106231181
-13.65176830785811 -6.676425132495788 -9.823713327287491
55.48330426542438 -5.204817854509386 10.90362575332212
-41.32368918793419 -2.973297307364452 17.06682548013037
14.65169623173179 -2.105597667883457 -10.35234562882711
21.6466834360669 -8.697613372235466 8.358412381232974
24.6958625928118 4.702562149892747 17.8674289993268
-16.40422638456498 9.683486347535514 8.432354831642282
-13.4217449512577 7.6084975871759 -10.95950443581375
49.92627717215359 2.682215843116786 16.21020483399598
27.07923066730264 -8.606649239221484 8.388941561900051
16.00343001559175 1.938113290477715 11.70563799846794
14.41701153209157 -8.930374880415371 11.83528688737723
-27.64363883293149 9.090580385010046 8.444557261165272
38.05646127664676 -7.243766300048484 9.374080803576247
-37.60666978683213 7.511543527182456 9.50347126667722
-48.8246292837241 -2.529717141715679 16.73884062807575
7.364641270087468 14.5656313309727 10.95553679873698
0.958787175154687 16.91981406019587 11.0107715266023
-0.7679094103259005 -15.70844404949241 10.53638350616404
-11.21518026521956 10.78977831676118 9.444153226932752
13.28437352684793 -8.787631938224736 -10.87373433385364
7.715644526782335 3.110309540856132 18.75395927156587
5.686317537725789 13.85040440527537 -10.4202050595532
55.21469109616711 0.1469499340703934 15.31063031521916
-55.48409953873938 -0.5888730425465358 15.33377090497049
-8.697843907109826 -6.06804066468496 19.27862834802307
3.505883322035454 -15.5639748443508 -10.81587210628737
59.24312134484634 -3.272008976871124 10.62331840393307
-58.01223308232981 4.542215661267704 10.85370319963695
45.16744704711849 2.519052576594431 17.43971713686391
43.49974547701712 -7.293833126411934 9.332970594903536
35.23828148501403 3.910447718060401 17.11676773555577
-15.09407891098821 0.2929758490419578 -10.00968196498703
-21.29875076392366 8.400166173276595 8.207364942726294
19.77085536478947 4.603415067970632 18.87948397492707
32.84829547022374 -7.74529312710928 8.798847726025198
-19.42152085221676 -4.578727656788851 19.35020384806592
-14.43522592904988 -6.893953836647339 10.7030886200293
-8.688805071635171 12.28003351829101 -10.09796836829786
17.39885929073497 -9.307170724896972 7.510472274646847
-32.13679177137514 7.294516745827039 9.296234998870428
15.79496082292031 2.65471258199943 -10.91247223535013
12.01745373266595 11.75899687472715 10.98119101874621
-6.815736370663193 -14.79353011303718 11.07510916230135
14.36486757074474 6.701524887014027 10.46026197536128
-3.386986134904243 16.1358518466879 10.9493229767016
4.028163007268988 16.42810221746524 10.44944467695176
60.2052258078261 -5.279768110136803 13.0471199661608
-53.82854495572528 6.328493859701121 9.94698302025474
17.08325599933893 6.915791493878522 18.01629758051215
-16.89393002524738 -6.843327003723265 18.01293747789785
-43.47451317153762 7.293038209501649 9.349360709079797
4.304175384909384 -15.99474625318541 11.03118341788536
11.69286608991737 -12.07346288332848 10.84778185388123
58.9122084392893 -0.466026754797513 15.58479841589554
-15.00877084583716 8.480742760054923 10.72620194315735
-60.14944705069695 5.368940728080426 13.06652050431483
$EndNodes
$Elements
111 2804 1 2804
0 1 15 1
1 1 
0 2 15 1
2 2 
0 3 15 1
3 3 
0 4 15 1
4 4 
0 5 15 1
5 5 
0 6 15 1
6 6 
0 7 15 1
7 7 
0 8 15 1
8 8 
0 9 15 1
9 9 
0 10 15 1
10 10 
0 11 15 1
11 11 
0 12 15 1
12 12 
0 13 15 1
13 13 
0 14 15 1
14 14 
0 15 15 1
15 15 
0 16 15 1
16 16 
0 17 15 1
17 17 
0 18 15 1
18 18 
0 19 15 1
19 19 
0 20 15 1
20 20 
0 21 15 1
21 21 
0 22 15 1
22 22 
0 23 15 1
23 23 
0 24 15 1
24 24 
0 25 15 1
25 25 
0 26 15 1
26 26 
0 27 15 1
27 27 
0 28 15 1
28 28 
0 29 15 1
29 29 
0 30 15 1
30 30 
0 31 15 1
31 31 
0 32 15 1
32 32 
0 33 15 1
33 33 
0 34 15 1
34 34 
0 35 15 1
35 35 
0 36 15 1
36 36 
1 1 1 7
37 1 37 
38 37 38 
39 38 39 
40 39 40 
41 40 41 
42 41 42 
43 42 2 
1 2 1 1
44 1 3 
1 3 1 4
45 4 43 
46 43 44 
47 44 45 
48 45 3 
1 4 1 16
49 4 46 
50 46 47 
51 47 48 
52 48 49 
53 49 50 
54 50 51 
55 51 52 
56 52 53 
57 53 54 
58 54 55 
59 55 56 
60 56 57 
61 57 58 
62 58 59 
63 59 60 
64 60 4 
1 5 1 2
65 3 61 
66 61 5 
1 6 1 2
67 5 62 
68 62 6 
1 7 1 2
69 7 63 
70 63 6 
1 8 1 7
71 8 64 
72 64 65 
73 65 66 
74 66 67 
75 67 68 
76 68 69 
77 69 7 
1 9 1 3
78 8 70 
79 70 71 
80 71 9 
1 10 1 2
81 9 72 
82 72 10 
1 11 1 2
83 2 73 
84 73 10 
1 12 1 1
85 1 11 
1 13 1 1
86 2 12 
1 14 1 7
87 11 74 
88 74 75 
89 75 76 
90 76 77 
91 77 78 
92 78 79 
93 79 12 
1 15 1 3
94 12 80 
95 80 81 
96 81 13 
1 16 1 2
97 13 82 
98 82 14 
1 17 1 6
99 14 83 
100 83 84 
101 84 85 
102 85 86 
103 86 87 
104 87 15 
1 18 1 3
105 15 88 
106 88 89 
107 89 16 
1 19 1 3
108 16 90 
109 90 91 
110 91 17 
1 20 1 6
111 17 92 
112 92 93 
113 93 94 
114 94 95 
115 95 96 
116 96 10 
1 21 1 5
117 18 97 
118 97 98 
119 98 99 
120 99 100 
121 100 9 
1 22 1 1
122 18 17 
1 23 1 2
123 19 101 
124 101 20 
1 24 1 1
125 20 21 
1 25 1 6
126 21 102 
127 102 103 
128 103 104 
129 104 105 
130 105 106 
131 106 22 
1 26 1 3
132 22 107 
133 107 108 
134 108 23 
1 27 1 3
135 23 109 
136 109 110 
137 110 18 
1 28 1 1
138 8 19 
1 29 1 1
139 7 24 
1 30 1 7
140 19 111 
141 111 112 
142 112 113 
143 113 114 
144 114 115 
145 115 116 
146 116 24 
1 31 1 2
147 25 117 
148 117 26 
1 32 1 2
149 26 118 
150 118 27 
1 33 1 6
151 27 119 
152 119 120 
153 120 121 
154 121 122 
155 122 123 
156 123 28 
1 34 1 3
157 28 124 
158 124 125 
159 125 29 
1 35 1 3
160 29 126 
161 126 127 
162 127 30 
1 36 1 6
163 30 128 
164 128 129 
165 129 130 
166 130 131 
167 131 132 
168 132 6 
1 37 1 2
169 24 133 
170 133 25 
1 38 1 5
171 31 134 
172 134 135 
173 135 136 
174 136 137 
175 137 5 
1 39 1 1
176 31 30 
1 40 1 2
177 11 138 
178 138 32 
1 41 1 1
179 32 33 
1 42 1 6
180 33 139 
181 139 140 
182 140 141 
183 141 142 
184 142 143 
185 143 34 
1 43 1 3
186 34 144 
187 144 145 
188 145 35 
1 44 1 3
189 35 146 
190 146 147 
191 147 31 
1 45 1 2
192 20 148 
193 148 13 
1 46 1 3
194 25 149 
195 149 150 
196 150 36 
1 47 1 7
197 36 151 
198 151 152 
199 152 153 
200 153 154 
201 154 155 
202 155 156 
203 156 36 
1 48 1 2
204 32 157 
205 157 26 
1 49 1 1
206 23 16 
1 50 1 1
207 22 15 
1 51 1 1
208 21 14 
1 52 1 1
209 35 29 
1 53 1 1
210 34 28 
1 54 1 1
211 33 27 
2 1 2 188
212 3 190 1 
213 1 224 37 
214 190 224 1 
215 42 73 2 
216 61 45 3 
217 45 190 3 
218 43 220 4 
219 4 223 43 
220 46 223 4 
221 4 220 60 
222 5 189 61 
223 62 210 5 
224 5 200 189 
225 5 210 200 
226 6 158 62 
227 69 6 63 
228 69 68 6 
229 68 179 6 
230 6 179 158 
231 69 63 7 
232 8 160 64 
233 70 160 8 
234 9 165 71 
235 72 175 9 
236 9 170 165 
237 9 175 170 
238 10 42 41 
239 41 213 10 
240 73 42 10 
241 10 159 72 
242 10 213 159 
243 37 163 38 
244 37 224 163 
245 38 202 39 
246 163 202 38 
247 39 161 40 
248 39 202 161 
249 40 207 41 
250 161 207 40 
251 207 213 41 
252 44 169 43 
253 43 201 44 
254 169 220 43 
255 43 223 201 
256 44 172 45 
257 45 189 44 
258 44 189 169 
259 44 201 172 
260 61 189 45 
261 172 190 45 
262 47 197 46 
263 197 223 46 
264 48 168 47 
265 168 197 47 
266 49 194 48 
267 48 194 168 
268 50 166 49 
269 166 194 49 
270 51 212 50 
271 50 212 166 
272 52 188 51 
273 188 225 51 
274 51 225 212 
275 53 215 52 
276 52 215 188 
277 54 171 53 
278 171 215 53 
279 55 187 54 
280 54 187 171 
281 56 164 55 
282 164 187 55 
283 57 192 56 
284 56 192 164 
285 58 167 57 
286 167 192 57 
287 59 199 58 
288 58 199 167 
289 60 198 59 
290 198 199 59 
291 60 220 198 
292 158 210 62 
293 64 173 65 
294 160 173 64 
295 65 221 66 
296 173 183 65 
297 183 221 65 
298 66 162 67 
299 66 221 162 
300 67 205 68 
301 162 205 67 
302 68 205 179 
303 71 211 70 
304 70 211 160 
305 165 211 71 
306 159 175 72 
307 179 180 158 
308 180 181 158 
309 181 210 158 
310 159 176 175 
311 159 177 176 
312 159 213 177 
313 160 174 173 
314 160 211 174 
315 202 217 161 
316 206 207 161 
317 161 217 206 
318 162 226 205 
319 162 221 216 
320 216 226 162 
321 163 214 202 
322 208 214 163 
323 163 224 208 
324 164 186 182 
325 182 187 164 
326 164 192 186 
327 170 184 165 
328 184 185 165 
329 185 211 165 
330 191 204 166 
331 166 222 191 
332 166 204 194 
333 212 222 166 
334 167 193 192 
335 167 203 193 
336 199 203 167 
337 194 195 168 
338 195 196 168 
339 196 197 168 
340 189 200 169 
341 169 200 198 
342 198 220 169 
343 175 178 170 
344 178 188 170 
345 170 188 184 
346 171 185 184 
347 184 215 171 
348 171 218 185 
349 187 218 171 
350 172 208 190 
351 201 219 172 
352 172 219 208 
353 174 182 173 
354 182 183 173 
355 174 187 182 
356 174 211 185 
357 185 218 174 
358 174 218 187 
359 176 178 175 
360 177 191 176 
361 176 222 178 
362 191 222 176 
363 177 206 191 
364 177 207 206 
365 177 213 207 
366 178 225 188 
367 178 222 212 
368 212 225 178 
369 179 205 180 
370 180 203 181 
371 180 226 203 
372 205 226 180 
373 181 203 199 
374 199 209 181 
375 209 210 181 
376 182 186 183 
377 186 216 183 
378 216 221 183 
379 188 215 184 
380 192 216 186 
381 208 224 190 
382 191 206 204 
383 193 216 192 
384 203 226 193 
385 193 226 216 
386 194 204 195 
387 195 214 196 
388 204 217 195 
389 195 217 214 
390 196 219 197 
391 196 214 208 
392 208 219 196 
393 197 219 201 
394 201 223 197 
395 198 209 199 
396 200 209 198 
397 200 210 209 
398 214 217 202 
399 206 217 204 
2 2 2 14
400 11 1 37 
401 2 12 42 
402 74 11 37 
403 42 12 79 
404 74 37 38 
405 75 38 39 
406 74 38 75 
407 77 39 40 
408 75 39 76 
409 76 39 77 
410 78 40 41 
411 77 40 78 
412 79 41 42 
413 78 41 79 
2 3 2 70
414 12 2 249 
415 2 73 243 
416 2 243 244 
417 2 244 248 
418 2 248 249 
419 10 96 73 
420 80 12 249 
421 13 81 229 
422 82 13 229 
423 14 82 229 
424 83 14 229 
425 15 87 242 
426 88 15 238 
427 238 15 242 
428 89 90 16 
429 17 91 246 
430 92 17 228 
431 228 17 246 
432 73 96 243 
433 81 80 234 
434 80 230 234 
435 230 80 249 
436 229 81 234 
437 84 83 237 
438 83 229 234 
439 83 234 237 
440 85 84 232 
441 232 84 237 
442 86 85 235 
443 85 232 235 
444 87 86 231 
445 231 86 235 
446 87 231 242 
447 89 88 239 
448 88 238 239 
449 90 89 239 
450 91 90 239 
451 91 239 246 
452 93 92 240 
453 92 228 240 
454 94 93 236 
455 236 93 240 
456 95 94 227 
457 227 94 236 
458 96 95 233 
459 95 227 233 
460 96 233 243 
461 233 227 241 
462 227 236 247 
463 241 227 247 
464 228 238 242 
465 238 228 246 
466 240 228 242 
467 234 230 237 
468 237 230 245 
469 245 230 248 
470 248 230 249 
471 231 235 236 
472 231 236 240 
473 231 240 242 
474 235 232 247 
475 232 237 245 
476 241 232 245 
477 232 241 247 
478 233 241 244 
479 243 233 244 
480 236 235 247 
481 239 238 246 
482 244 241 245 
483 244 245 248 
2 4 2 16
484 9 250 72 
485 100 250 9 
486 10 72 96 
487 17 251 18 
488 92 251 17 
489 18 251 97 
490 72 250 96 
491 93 97 92 
492 97 251 92 
493 94 98 93 
494 93 98 97 
495 99 94 95 
496 99 98 94 
497 96 250 95 
498 95 100 99 
499 95 250 100 
2 5 2 54
500 19 257 8 
501 8 254 70 
502 8 265 254 
503 257 265 8 
504 100 9 71 
505 18 264 110 
506 97 253 18 
507 253 264 18 
508 101 257 19 
509 101 20 21 
510 102 101 21 
511 107 259 22 
512 22 262 106 
513 259 262 22 
514 109 108 23 
515 70 255 71 
516 254 255 70 
517 71 255 100 
518 108 260 107 
519 107 260 259 
520 109 260 108 
521 110 260 109 
522 110 264 260 
523 103 257 102 
524 102 257 101 
525 104 265 103 
526 103 265 257 
527 105 258 104 
528 258 266 104 
529 104 266 265 
530 106 256 105 
531 256 258 105 
532 106 262 256 
533 98 261 97 
534 97 261 253 
535 99 252 98 
536 252 261 98 
537 100 267 99 
538 99 267 252 
539 255 267 100 
540 252 258 256 
541 256 261 252 
542 252 263 258 
543 252 267 263 
544 253 262 259 
545 259 264 253 
546 261 262 253 
547 254 263 255 
548 254 266 263 
549 265 266 254 
550 263 267 255 
551 256 262 261 
552 263 266 258 
553 260 264 259 
2 6 2 14
554 24 69 7 
555 19 8 64 
556 111 19 64 
557 116 69 24 
558 65 112 111 
559 111 64 65 
560 66 113 112 
561 65 66 112 
562 66 114 113 
563 67 115 114 
564 67 114 66 
565 116 115 68 
566 68 115 67 
567 68 69 116 
2 7 2 71
568 132 63 6 
569 24 7 272 
570 7 63 286 
571 272 7 273 
572 273 7 274 
573 274 7 286 
574 133 24 272 
575 117 25 270 
576 25 133 280 
577 270 25 280 
578 26 117 270 
579 118 26 270 
580 27 118 270 
581 119 27 270 
582 28 123 283 
583 124 28 277 
584 277 28 283 
585 125 126 29 
586 30 127 289 
587 128 30 269 
588 269 30 289 
589 120 119 285 
590 119 270 280 
591 119 280 285 
592 121 120 288 
593 120 285 288 
594 122 121 278 
595 278 121 288 
596 123 122 271 
597 271 122 278 
598 123 271 283 
599 125 124 281 
600 124 277 281 
601 126 125 281 
602 127 126 281 
603 127 281 289 
604 129 128 282 
605 128 269 282 
606 130 129 279 
607 279 129 282 
608 131 130 268 
609 268 130 279 
610 132 131 287 
611 131 268 287 
612 63 132 286 
613 286 132 287 
614 133 272 275 
615 133 275 280 
616 268 279 284 
617 268 284 290 
618 287 268 290 
619 269 277 283 
620 277 269 289 
621 282 269 283 
622 271 278 279 
623 271 279 282 
624 271 282 283 
625 272 273 275 
626 273 274 290 
627 275 273 276 
628 276 273 290 
629 274 286 287 
630 274 287 290 
631 275 276 285 
632 280 275 285 
633 276 284 288 
634 284 276 290 
635 285 276 288 
636 281 277 289 
637 279 278 284 
638 284 278 288 
2 8 2 16
639 5 291 62 
640 137 291 5 
641 132 6 62 
642 30 292 31 
643 128 292 30 
644 31 292 134 
645 129 134 128 
646 134 292 128 
647 130 135 129 
648 135 134 129 
649 131 136 130 
650 136 135 130 
651 132 291 131 
652 137 136 131 
653 131 291 137 
654 62 291 132 
2 9 2 52
655 1 295 3 
656 11 298 1 
657 1 306 295 
658 298 306 1 
659 3 296 61 
660 295 296 3 
661 137 5 61 
662 138 298 11 
663 134 294 31 
664 31 305 147 
665 294 305 31 
666 138 32 33 
667 33 139 138 
668 34 303 143 
669 144 300 34 
670 300 303 34 
671 145 35 146 
672 61 296 137 
673 135 302 134 
674 134 302 294 
675 136 293 135 
676 293 302 135 
677 137 296 136 
678 136 296 293 
679 139 298 138 
680 140 298 139 
681 141 306 140 
682 140 306 298 
683 142 304 141 
684 304 307 141 
685 141 307 306 
686 143 297 142 
687 297 304 142 
688 143 303 297 
689 145 301 144 
690 144 301 300 
691 146 301 145 
692 147 301 146 
693 147 305 301 
694 296 299 293 
695 297 302 293 
696 293 304 297 
697 299 304 293 
698 294 303 300 
699 300 305 294 
700 302 303 294 
701 295 299 296 
702 295 307 299 
703 306 307 295 
704 297 303 302 
705 299 307 304 
706 301 305 300 
2 10 2 64
707 46 4 324 
708 4 60 308 
709 4 308 324 
710 47 46 315 
711 315 46 324 
712 48 47 326 
713 47 315 326 
714 49 48 311 
715 311 48 326 
716 50 49 325 
717 49 311 325 
718 51 50 313 
719 313 50 325 
720 52 51 329 
721 51 313 329 
722 53 52 309 
723 309 52 329 
724 54 53 316 
725 53 309 316 
726 55 54 314 
727 314 54 316 
728 56 55 328 
729 55 314 328 
730 57 56 310 
731 310 56 328 
732 58 57 323 
733 57 310 323 
734 59 58 312 
735 312 58 323 
736 60 59 327 
737 59 312 327 
738 308 60 327 
739 308 321 324 
740 321 308 330 
741 308 327 330 
742 316 309 317 
743 317 309 322 
744 322 309 329 
745 318 310 328 
746 310 318 332 
747 323 310 332 
748 313 311 322 
749 311 313 325 
750 311 320 322 
751 320 311 331 
752 311 326 331 
753 312 323 332 
754 327 312 330 
755 330 312 332 
756 313 322 329 
757 314 316 317 
758 314 317 318 
759 314 318 328 
760 321 315 324 
761 315 321 331 
762 326 315 331 
763 318 317 319 
764 319 317 320 
765 320 317 322 
766 318 319 332 
767 319 320 321 
768 319 321 330 
769 319 330 332 
770 321 320 331 
2 11 2 158
771 74 138 11 
772 12 78 79 
773 12 357 78 
774 80 357 12 
775 148 391 13 
776 13 385 81 
777 13 361 354 
778 354 386 13 
779 13 391 361 
780 13 386 385 
781 111 101 19 
782 20 351 148 
783 101 383 20 
784 20 372 351 
785 20 384 372 
786 383 384 20 
787 24 339 116 
788 133 339 24 
789 117 149 25 
790 25 333 133 
791 149 333 25 
792 26 149 117 
793 26 363 149 
794 157 373 26 
795 26 373 363 
796 138 382 32 
797 32 377 157 
798 32 366 360 
799 360 377 32 
800 32 381 366 
801 32 382 381 
802 36 374 150 
803 150 387 36 
804 36 387 151 
805 156 374 36 
806 112 383 111 
807 111 383 101 
808 113 384 112 
809 112 384 383 
810 114 358 113 
811 358 384 113 
812 115 356 114 
813 356 358 114 
814 116 375 115 
815 115 375 356 
816 339 375 116 
817 333 367 133 
818 133 367 339 
819 74 382 138 
820 351 376 148 
821 376 391 148 
822 150 343 149 
823 149 363 150 
824 149 343 333 
825 150 353 343 
826 150 374 353 
827 363 388 150 
828 150 388 387 
829 151 337 152 
830 151 349 337 
831 151 387 349 
832 152 336 153 
833 152 338 336 
834 337 338 152 
835 153 362 154 
836 336 354 153 
837 354 362 153 
838 154 347 155 
839 154 362 347 
840 155 334 156 
841 155 348 334 
842 347 348 155 
843 334 380 156 
844 156 380 374 
845 75 382 74 
846 76 381 75 
847 381 382 75 
848 77 366 76 
849 366 381 76 
850 78 379 77 
851 77 379 366 
852 357 359 78 
853 359 379 78 
854 157 389 373 
855 377 389 157 
856 81 335 80 
857 335 357 80 
858 81 385 335 
859 343 344 333 
860 344 367 333 
861 348 352 334 
862 352 353 334 
863 353 380 334 
864 335 359 357 
865 335 390 359 
866 335 385 364 
867 364 390 335 
868 338 340 336 
869 340 354 336 
870 337 342 338 
871 337 349 342 
872 338 341 340 
873 338 345 341 
874 342 345 338 
875 367 375 339 
876 341 364 340 
877 340 355 354 
878 340 364 355 
879 345 346 341 
880 346 364 341 
881 342 378 345 
882 349 350 342 
883 350 378 342 
884 343 352 344 
885 343 353 352 
886 352 370 344 
887 344 368 367 
888 344 370 368 
889 345 360 346 
890 345 377 360 
891 345 378 377 
892 360 365 346 
893 346 390 364 
894 365 390 346 
895 347 361 348 
896 347 362 361 
897 348 369 352 
898 361 376 348 
899 348 376 369 
900 349 388 350 
901 387 388 349 
902 363 373 350 
903 350 388 363 
904 373 389 350 
905 350 389 378 
906 351 371 369 
907 369 376 351 
908 351 372 371 
909 369 370 352 
910 374 380 353 
911 355 386 354 
912 361 362 354 
913 364 385 355 
914 385 386 355 
915 356 372 358 
916 371 372 356 
917 356 375 371 
918 372 384 358 
919 365 379 359 
920 359 390 365 
921 360 366 365 
922 361 391 376 
923 366 379 365 
924 368 375 367 
925 370 371 368 
926 371 375 368 
927 369 371 370 
928 378 389 377 
2 12 2 12
929 16 392 23 
930 90 392 16 
931 18 394 17 
932 17 394 91 
933 110 394 18 
934 23 392 109 
935 109 393 110 
936 392 393 109 
937 393 394 110 
938 91 393 90 
939 90 393 392 
940 91 394 393 
2 13 2 12
941 15 396 22 
942 88 396 15 
943 23 395 16 
944 16 395 89 
945 22 396 107 
946 108 395 23 
947 107 397 108 
948 396 397 107 
949 108 397 395 
950 89 397 88 
951 88 397 396 
952 395 397 89 
2 14 2 24
953 14 400 21 
954 83 400 14 
955 22 403 15 
956 15 403 87 
957 21 400 102 
958 106 403 22 
959 84 399 83 
960 83 399 102 
961 102 400 83 
962 85 402 84 
963 103 399 84 
964 84 402 103 
965 86 401 85 
966 85 401 104 
967 104 402 85 
968 87 398 86 
969 86 398 105 
970 105 401 86 
971 106 398 87 
972 87 403 106 
973 102 399 103 
974 103 402 104 
975 104 401 105 
976 105 398 106 
2 15 2 6
977 148 13 82 
978 21 404 14 
979 14 404 82 
980 20 404 21 
981 148 404 20 
982 82 404 148 
2 16 2 12
983 29 406 35 
984 126 406 29 
985 31 407 30 
986 30 407 127 
987 147 407 31 
988 35 406 146 
989 127 405 126 
990 405 406 126 
991 127 407 405 
992 146 405 147 
993 146 406 405 
994 405 407 147 
2 17 2 12
995 28 409 34 
996 124 409 28 
997 35 408 29 
998 29 408 125 
999 34 409 144 
1000 145 408 35 
1001 125 410 124 
1002 124 410 409 
1003 408 410 125 
1004 144 410 145 
1005 409 410 144 
1006 145 410 408 
2 18 2 24
1007 27 413 33 
1008 119 413 27 
1009 34 416 28 
1010 28 416 123 
1011 33 413 139 
1012 143 416 34 
1013 120 412 119 
1014 119 412 139 
1015 139 413 119 
1016 121 415 120 
1017 140 412 120 
1018 120 415 140 
1019 122 414 121 
1020 121 414 141 
1021 141 415 121 
1022 123 411 122 
1023 122 411 142 
1024 142 414 122 
1025 143 411 123 
1026 123 416 143 
1027 139 412 140 
1028 140 415 141 
1029 141 414 142 
1030 142 411 143 
2 19 2 6
1031 157 26 118 
1032 33 417 27 
1033 27 417 118 
1034 32 417 33 
1035 157 417 32 
1036 118 417 157 
2 20 2 7
1037 151 418 36 
1038 36 418 156 
1039 152 418 151 
1040 153 418 152 
1041 154 418 153 
1042 155 418 154 
1043 156 418 155 
3 1 4 1761
1044 280 435 429 138 
1045 439 443 421 432 
1046 468 435 425 421 
1047 194 444 437 445 
1048 468 435 421 419 
1049 419 421 423 461 
1050 163 529 503 426 
1051 421 445 444 439 
1052 419 421 461 435 
1053 433 423 430 457 
1054 280 435 138 11 
1055 446 421 425 432 
1056 457 461 423 428 
1057 457 461 428 431 
1058 70 80 464 441 
1059 288 521 276 285 
1060 425 421 435 449 
1061 511 15 22 502 
1062 421 445 437 444 
1063 70 80 441 249 
1064 382 426 429 450 
1065 492 295 521 306 
1066 457 461 431 419 
1067 423 457 428 441 
1068 439 443 432 321 
1069 354 424 453 420 
1070 421 444 437 455 
1071 440 338 420 438 
1072 433 423 457 419 
1073 446 421 432 439 
1074 425 432 421 449 
1075 195 437 444 455 
1076 88 511 15 396 
1077 209 446 425 432 
1078 468 421 425 422 
1079 531 138 426 435 
1080 426 437 214 455 
1081 382 429 32 450 
1082 203 425 446 448 
1083 209 425 200 432 
1084 435 455 421 461 
1085 365 431 379 450 
1086 422 421 439 423 
1087 512 229 13 464 
1088 441 542 493 71 
1089 209 446 432 199 
1090 193 446 422 448 
1091 13 512 82 229 
1092 177 437 428 456 
1093 349 387 151 424 
1094 200 432 425 449 
1095 209 425 181 210 
1096 382 74 138 426 
1097 382 426 138 429 
1098 497 280 435 133 
1099 199 507 470 432 
1100 341 338 340 420 
1101 138 429 426 435 
1102 505 358 427 113 
1103 133 429 435 442 
1104 430 423 447 458 
1105 468 421 422 423 
1106 463 214 426 437 
1107 430 447 423 468 
1108 209 425 210 200 
1109 446 421 439 422 
1110 203 425 448 180 
1111 336 354 420 424 
1112 446 421 422 425 
1113 276 521 1 285 
1114 426 455 435 461 
1115 439 446 319 432 
1116 423 457 441 430 
1117 132 491 291 526 
1118 429 461 426 435 
1119 74 426 75 529 
1120 440 342 345 338 
1121 468 435 419 442 
1122 362 424 347 453 
1123 379 431 428 450 
1124 429 461 435 419 
1125 195 214 437 455 
1126 330 312 327 432 
1127 194 509 444 445 
1128 439 446 422 451 
1129 321 319 432 439 
1130 382 138 32 429 
1131 372 434 427 465 
1132 451 319 317 439 
1133 419 420 433 434 
1134 433 468 427 430 
1135 422 423 436 447 
1136 468 421 423 419 
1137 439 444 320 445 
1138 199 507 432 198 
1139 200 425 5 449 
1140 463 76 503 533 
1141 219 444 443 455 
1142 204 445 194 437 
1143 133 442 435 462 
1144 195 437 194 444 
1145 530 384 113 427 
1146 154 347 362 424 
1147 341 346 345 440 
1148 531 138 435 11 
1149 531 455 435 426 
1150 420 341 431 452 
1151 321 319 330 432 
1152 512 102 83 482 
1153 181 180 158 425 
1154 295 521 306 1 
1155 381 426 382 450 
1156 133 497 3 435 
1157 422 446 425 448 
1158 506 493 441 542 
1159 436 447 423 458 
1160 503 463 202 426 
1161 5 449 425 462 
1162 3 272 133 462 
1163 503 76 381 75 
1164 196 195 444 455 
1165 425 448 180 454 
1166 505 358 113 114 
1167 421 445 439 423 
1168 422 447 216 448 
1169 467 419 434 420 
1170 384 530 459 427 
1171 433 423 419 468 
1172 354 453 424 362 
1173 430 441 70 464 
1174 449 5 61 462 
1175 463 214 437 217 
1176 192 422 193 446 
1177 420 431 419 433 
1178 220 507 432 490 
1179 330 432 319 446 
1180 338 337 424 438 
1181 1 521 298 285 
1182 493 542 243 71 
1183 419 435 429 442 
1184 199 432 470 446 
1185 381 75 382 426 
1186 200 210 5 425 
1187 431 433 420 452 
1188 74 75 426 382 
1189 3 133 435 462 
1190 531 138 11 74 
1191 490 169 43 443 
1192 336 420 338 424 
1193 220 507 490 60 
1194 195 214 217 437 
1195 102 512 400 21 
1196 222 456 445 191 
1197 209 446 199 181 
1198 362 153 154 424 
1199 469 33 27 413 
1200 21 14 512 400 
1201 186 422 192 451 
1202 349 151 337 424 
1203 426 503 381 75 
1204 192 422 446 451 
1205 183 427 221 448 
1206 320 321 331 444 
1207 191 437 177 456 
1208 290 273 3 274 
1209 365 359 379 431 
1210 490 169 443 432 
1211 183 447 427 448 
1212 191 445 437 456 
1213 159 428 456 177 
1214 450 419 440 431 
1215 204 445 437 191 
1216 543 393 515 478 
1217 320 439 321 444 
1218 359 428 379 431 
1219 203 425 180 181 
1220 356 505 427 454 
1221 200 5 189 449 
1222 356 427 372 434 
1223 312 432 330 446 
1224 462 158 454 425 
1225 210 181 158 425 
1226 384 459 530 112 
1227 112 113 530 384 
1228 70 80 249 230 
1229 462 454 158 6 
1230 341 364 346 431 
1231 206 428 463 207 
1232 427 447 430 468 
1233 340 341 420 452 
1234 419 442 434 468 
1235 490 169 432 220 
1236 423 441 428 456 
1237 203 425 181 446 
1238 163 224 426 455 
1239 186 447 422 451 
1240 219 196 444 455 
1241 431 461 428 450 
1242 24 133 272 462 
1243 358 113 384 427 
1244 361 362 347 453 
1245 275 133 3 272 
1246 194 195 204 437 
1247 443 444 421 455 
1248 43 169 44 443 
1249 70 80 230 464 
1250 187 436 218 447 
1251 80 441 457 464 
1252 219 443 449 455 
1253 442 454 434 468 
1254 311 320 444 445 
1255 420 466 434 467 
1256 421 445 423 437 
1257 298 521 1 306 
1258 3 497 133 275 
1259 169 443 432 449 
1260 379 450 428 463 
1261 207 213 177 428 
1262 433 423 468 430 
1263 346 365 360 431 
1264 341 431 346 440 
1265 169 44 443 449 
1266 336 354 340 420 
1267 176 191 177 456 
1268 450 419 431 461 
1269 381 426 450 463 
1270 332 476 323 446 
1271 440 419 429 467 
1272 463 214 217 202 
1273 244 70 248 245 
1274 505 448 427 454 
1275 310 332 318 451 
1276 428 431 359 457 
1277 222 456 191 176 
1278 338 424 420 438 
1279 421 437 423 461 
1280 468 435 442 425 
1281 420 431 341 440 
1282 209 446 181 425 
1283 448 221 505 427 
1284 126 405 127 534 
1285 423 458 456 460 
1286 194 166 473 445 
1287 364 431 341 452 
1288 433 434 420 453 
1289 332 476 446 451 
1290 422 436 423 439 
1291 435 449 421 455 
1292 26 508 117 467 
1293 198 199 209 432 
1294 539 356 115 454 
1295 90 393 91 543 
1296 221 505 427 530 
1297 178 456 170 460 
1298 463 214 202 426 
1299 436 447 187 451 
1300 20 512 21 404 
1301 219 443 201 449 
1302 429 461 450 426 
1303 512 82 14 404 
1304 419 433 431 457 
1305 450 419 461 429 
1306 440 419 467 420 
1307 539 356 454 505 
1308 204 445 191 166 
1309 430 441 423 458 
1310 353 150 343 424 
1311 467 25 508 117 
1312 427 434 454 468 
1313 61 435 449 462 
1314 179 6 158 454 
1315 539 356 505 114 
1316 490 169 220 43 
1317 20 427 465 372 
1318 457 461 419 423 
1319 159 428 177 213 
1320 151 387 36 424 
1321 425 449 435 462 
1322 133 25 429 467 
1323 422 448 425 468 
1324 174 187 218 447 
1325 422 423 447 468 
1326 346 431 360 440 
1327 332 330 319 446 
1328 219 197 443 444 
1329 133 429 442 467 
1330 151 418 152 424 
1331 384 372 358 427 
1332 151 152 337 424 
1333 159 428 213 10 
1334 153 418 154 424 
1335 449 61 5 189 
1336 434 433 427 465 
1337 61 435 45 449 
1338 381 382 32 450 
1339 367 442 434 467 
1340 220 198 169 432 
1341 353 374 150 424 
1342 539 356 114 115 
1343 428 437 423 456 
1344 354 362 361 453 
1345 206 428 207 177 
1346 430 457 441 464 
1347 170 456 458 460 
1348 348 334 352 424 
1349 174 430 447 458 
1350 196 214 195 455 
1351 327 308 330 432 
1352 433 468 419 434 
1353 423 437 428 461 
1354 497 531 190 435 
1355 451 317 319 318 
1356 372 356 358 427 
1357 445 456 178 460 
1358 497 280 133 275 
1359 529 75 503 426 
1360 491 274 286 287 
1361 367 434 466 467 
1362 178 525 445 460 
1363 467 419 429 442 
1364 336 340 338 420 
1365 192 446 476 451 
1366 20 384 383 459 
1367 204 445 166 194 
1368 433 468 434 427 
1369 321 330 308 432 
1370 353 380 374 424 
1371 422 216 447 186 
1372 70 430 71 441 
1373 61 45 189 449 
1374 357 441 428 457 
1375 427 433 430 459 
1376 353 352 334 424 
1377 377 429 157 440 
1378 191 206 177 437 
1379 321 432 308 443 
1380 200 169 432 449 
1381 9 456 441 458 
1382 493 506 72 10 
1383 222 456 176 178 
1384 380 353 334 424 
1385 151 36 418 424 
1386 467 419 442 434 
1387 384 112 383 459 
1388 182 187 447 451 
1389 170 456 9 458 
1390 423 456 445 460 
1391 355 354 386 452 
1392 421 449 443 455 
1393 183 427 447 459 
1394 163 426 214 455 
1395 387 349 388 438 
1396 364 335 390 431 
1397 437 445 423 456 
1398 178 170 456 175 
1399 311 320 331 444 
1400 374 380 156 424 
1401 371 356 372 434 
1402 377 429 440 450 
1403 427 434 356 454 
1404 190 172 435 455 
1405 219 201 172 449 
1406 427 183 530 459 
1407 524 464 430 486 
1408 364 335 431 452 
1409 167 470 513 446 
1410 338 342 337 438 
1411 116 442 462 454 
1412 175 178 176 456 
1413 172 219 449 455 
1414 531 455 426 224 
1415 133 442 367 467 
1416 216 447 183 448 
1417 462 339 24 133 
1418 337 349 424 438 
1419 539 114 67 115 
1420 347 424 348 453 
1421 506 159 428 456 
1422 441 456 423 458 
1423 244 70 2 248 
1424 172 449 435 455 
1425 430 447 427 459 
1426 371 434 372 465 
1427 317 439 436 451 
1428 71 441 430 458 
1429 158 6 62 462 
1430 202 214 163 426 
1431 515 91 393 543 
1432 422 447 436 451 
1433 157 32 469 429 
1434 509 168 194 444 
1435 486 230 19 464 
1436 243 542 493 73 
1437 216 183 221 448 
1438 365 390 359 431 
1439 62 425 462 5 
1440 219 196 197 444 
1441 67 114 539 505 
1442 366 450 379 463 
1443 182 447 186 451 
1444 464 524 101 19 
1445 312 330 332 446 
1446 172 45 435 449 
1447 436 439 422 451 
1448 340 420 354 452 
1449 19 482 257 101 
1450 524 464 486 19 
1451 346 390 365 431 
1452 369 370 434 466 
1453 11 483 298 138 
1454 206 437 217 463 
1455 173 430 459 447 
1456 357 428 359 457 
1457 154 418 155 424 
1458 509 311 326 444 
1459 198 209 200 432 
1460 317 436 439 460 
1461 200 189 169 449 
1462 356 505 114 358 
1463 45 190 172 435 
1464 508 429 157 469 
1465 193 203 446 448 
1466 345 346 360 440 
1467 375 442 116 454 
1468 387 424 349 438 
1469 421 432 443 449 
1470 90 478 393 543 
1471 356 505 358 427 
1472 343 424 438 466 
1473 389 350 378 438 
1474 71 70 211 430 
1475 427 448 447 468 
1476 451 56 310 476 
1477 125 480 541 410 
1478 332 476 451 310 
1479 355 340 354 452 
1480 249 248 70 230 
1481 477 480 410 541 
1482 192 167 476 446 
1483 20 427 372 384 
1484 218 436 185 458 
1485 174 430 458 211 
1486 360 431 365 450 
1487 369 434 453 466 
1488 505 448 454 205 
1489 174 430 211 160 
1490 167 470 446 199 
1491 198 200 169 432 
1492 201 43 44 443 
1493 101 524 464 459 
1494 154 155 347 424 
1495 7 3 273 274 
1496 337 342 349 438 
1497 201 443 44 449 
1498 148 13 391 453 
1499 71 430 211 458 
1500 433 464 459 465 
1501 101 524 111 19 
1502 111 524 101 459 
1503 152 418 153 424 
1504 171 487 519 436 
1505 6 454 540 462 
1506 520 244 243 233 
1507 447 448 422 468 
1508 276 290 3 295 
1509 369 465 376 453 
1510 168 475 444 509 
1511 230 248 70 245 
1512 276 3 290 273 
1513 538 228 472 253 
1514 216 186 183 447 
1515 487 436 187 451 
1516 184 185 436 458 
1517 524 464 459 430 
1518 124 125 541 410 
1519 328 314 55 451 
1520 44 169 189 449 
1521 476 513 446 167 
1522 450 461 428 463 
1523 174 182 187 447 
1524 111 524 64 19 
1525 423 445 439 460 
1526 195 194 168 444 
1527 375 434 442 454 
1528 168 475 509 47 
1529 488 300 301 305 
1530 260 264 246 259 
1531 490 324 308 443 
1532 167 470 199 58 
1533 41 532 428 207 
1534 156 380 334 424 
1535 381 450 366 463 
1536 241 255 244 245 
1537 375 116 442 339 
1538 350 342 378 438 
1539 3 290 274 296 
1540 13 81 433 464 
1541 184 458 436 460 
1542 462 339 133 442 
1543 71 249 70 441 
1544 450 419 429 440 
1545 428 461 437 463 
1546 248 70 2 249 
1547 541 301 281 510 
1548 260 511 239 478 
1549 354 452 420 453 
1550 381 366 76 463 
1551 374 156 36 424 
1552 464 482 234 19 
1553 439 445 322 460 
1554 190 224 208 455 
1555 541 301 510 144 
1556 260 511 478 107 
1557 254 230 70 245 
1558 185 218 171 436 
1559 515 535 246 264 
1560 488 300 305 269 
1561 366 379 77 463 
1562 133 367 333 467 
1563 471 481 235 85 
1564 360 440 431 450 
1565 475 443 197 444 
1566 11 483 138 280 
1567 390 346 364 431 
1568 512 82 404 148 
1569 369 453 434 465 
1570 9 441 71 458 
1571 320 319 321 439 
1572 420 440 438 467 
1573 163 208 224 455 
1574 274 290 287 296 
1575 216 221 162 448 
1576 437 461 426 463 
1577 170 9 165 458 
1578 201 219 197 443 
1579 166 212 473 445 
1580 207 41 213 428 
1581 64 524 111 459 
1582 222 456 178 445 
1583 317 439 322 460 
1584 488 510 301 300 
1585 511 246 259 260 
1586 11 483 280 285 
1587 190 208 172 455 
1588 156 418 36 424 
1589 497 190 3 435 
1590 423 439 436 460 
1591 348 424 352 466 
1592 425 454 442 468 
1593 178 525 460 225 
1594 436 309 519 460 
1595 420 452 433 453 
1596 225 188 494 460 
1597 262 238 259 502 
1598 472 228 264 253 
1599 30 488 31 484 
1600 128 484 292 134 
1601 171 487 436 187 
1602 197 475 223 443 
1603 255 70 244 245 
1604 538 228 253 240 
1605 488 300 269 289 
1606 442 454 425 462 
1607 488 510 300 289 
1608 511 246 260 239 
1609 467 373 157 440 
1610 412 521 483 536 
1611 491 274 287 296 
1612 515 264 246 260 
1613 281 488 301 514 
1614 462 339 442 116 
1615 379 366 365 450 
1616 62 425 5 210 
1617 13 229 81 464 
1618 322 439 320 445 
1619 196 195 168 444 
1620 377 440 360 450 
1621 133 333 25 467 
1622 426 461 450 463 
1623 433 459 427 465 
1624 253 228 264 259 
1625 305 294 269 300 
1626 473 49 166 194 
1627 41 532 207 40 
1628 246 515 260 239 
1629 281 488 534 127 
1630 510 289 281 277 
1631 511 246 239 238 
1632 70 160 211 430 
1633 512 20 101 465 
1634 180 203 226 448 
1635 25 117 270 508 
1636 3 435 61 462 
1637 519 184 436 460 
1638 21 14 404 512 
1639 459 464 101 465 
1640 185 171 184 436 
1641 361 347 348 453 
1642 167 470 58 513 
1643 519 184 460 215 
1644 230 234 19 464 
1645 474 142 122 411 
1646 122 474 271 518 
1647 172 201 44 449 
1648 386 354 13 452 
1649 243 542 2 71 
1650 173 430 447 174 
1651 168 475 47 197 
1652 168 475 197 444 
1653 174 218 185 458 
1654 475 324 443 315 
1655 435 442 425 462 
1656 368 434 370 466 
1657 249 12 80 441 
1658 369 376 465 351 
1659 440 419 420 431 
1660 451 192 56 476 
1661 217 204 195 437 
1662 336 152 153 424 
1663 369 348 352 466 
1664 191 222 166 445 
1665 371 368 375 434 
1666 180 226 205 448 
1667 375 356 434 454 
1668 317 436 314 451 
1669 532 379 428 463 
1670 375 434 367 442 
1671 20 383 101 459 
1672 89 395 479 397 
1673 533 161 202 463 
1674 529 531 426 224 
1675 145 480 408 410 
1676 90 478 479 393 
1677 146 480 477 405 
1678 534 480 477 281 
1679 490 324 528 4 
1680 348 453 424 466 
1681 451 56 192 164 
1682 508 429 25 467 
1683 313 311 325 445 
1684 165 9 71 458 
1685 313 460 322 445 
1686 301 510 144 300 
1687 260 511 107 259 
1688 258 266 235 471 
1689 254 230 245 237 
1690 199 203 181 446 
1691 72 506 493 441 
1692 531 455 224 190 
1693 511 88 239 478 
1694 49 311 473 325 
1695 533 161 39 202 
1696 335 431 452 457 
1697 512 464 482 229 
1698 369 370 371 434 
1699 11 483 285 298 
1700 170 175 9 456 
1701 148 433 13 453 
1702 245 241 255 254 
1703 489 242 231 262 
1704 45 61 3 435 
1705 178 525 225 212 
1706 167 192 193 446 
1707 351 369 371 465 
1708 56 451 328 55 
1709 471 104 85 401 
1710 364 385 335 452 
1711 254 230 237 8 
1712 359 390 335 431 
1713 318 317 314 451 
1714 90 478 543 239 
1715 479 393 478 109 
1716 146 480 405 406 
1717 529 531 224 37 
1718 373 438 389 440 
1719 39 533 202 503 
1720 322 309 317 460 
1721 491 274 296 61 
1722 503 463 533 202 
1723 385 386 13 452 
1724 463 503 76 381 
1725 90 478 239 89 
1726 534 480 281 126 
1727 199 507 198 59 
1728 280 483 270 119 
1729 332 323 312 446 
1730 102 399 537 103 
1731 30 31 488 407 
1732 254 230 8 70 
1733 515 264 260 110 
1734 490 324 443 528 
1735 146 301 514 477 
1736 515 109 260 478 
1737 139 469 138 483 
1738 480 29 35 408 
1739 506 73 542 42 
1740 311 322 320 445 
1741 462 339 116 24 
1742 128 484 134 517 
1743 3 190 45 435 
1744 379 359 78 428 
1745 204 217 206 437 
1746 157 440 429 467 
1747 367 375 368 434 
1748 506 73 42 10 
1749 436 458 423 460 
1750 42 542 2 73 
1751 420 453 434 466 
1752 170 165 184 458 
1753 8 19 486 230 
1754 434 453 433 465 
1755 13 433 452 453 
1756 518 297 474 271 
1757 161 206 217 463 
1758 254 245 232 237 
1759 162 205 226 448 
1760 2 542 243 73 
1761 236 247 235 258 
1762 274 286 7 61 
1763 133 280 429 25 
1764 193 226 203 448 
1765 71 244 2 243 
1766 159 176 177 456 
1767 68 454 116 540 
1768 223 528 43 443 
1769 262 238 502 242 
1770 48 168 194 509 
1771 255 70 245 254 
1772 489 87 106 398 
1773 90 478 89 479 
1774 125 126 281 480 
1775 20 459 101 465 
1776 454 539 68 115 
1777 187 55 487 451 
1778 228 246 17 472 
1779 142 122 414 518 
1780 467 373 440 438 
1781 389 373 350 438 
1782 477 146 301 145 
1783 478 109 260 108 
1784 472 97 251 92 
1785 296 274 3 61 
1786 515 91 394 393 
1787 281 488 127 289 
1788 515 264 110 535 
1789 488 147 305 301 
1790 517 269 128 484 
1791 182 186 164 451 
1792 532 379 463 77 
1793 244 2 70 71 
1794 256 489 231 262 
1795 354 13 452 453 
1796 143 474 411 142 
1797 124 281 277 510 
1798 88 239 238 511 
1799 533 161 463 504 
1800 402 481 104 85 
1801 508 429 469 138 
1802 506 159 10 428 
1803 520 243 71 493 
1804 76 366 77 463 
1805 197 196 168 444 
1806 133 339 367 442 
1807 240 228 253 262 
1808 215 494 460 519 
1809 171 218 187 436 
1810 63 286 526 61 
1811 81 13 433 452 
1812 510 289 277 300 
1813 511 246 238 259 
1814 282 269 294 303 
1815 516 271 474 297 
1816 368 367 434 466 
1817 245 232 241 254 
1818 354 361 13 453 
1819 502 489 262 242 
1820 163 214 208 455 
1821 516 297 143 303 
1822 493 520 96 250 
1823 4 43 490 220 
1824 515 91 543 239 
1825 488 510 289 281 
1826 430 459 433 464 
1827 286 63 7 61 
1828 171 487 187 54 
1829 514 301 281 477 
1830 239 515 260 478 
1831 482 229 83 512 
1832 375 356 371 434 
1833 155 418 156 424 
1834 273 275 3 272 
1835 199 507 59 470 
1836 436 309 460 317 
1837 170 458 184 460 
1838 266 241 254 263 
1839 373 389 157 440 
1840 359 431 335 457 
1841 464 482 19 101 
1842 7 3 274 61 
1843 369 453 348 466 
1844 235 247 232 266 
1845 284 278 279 299 
1846 481 232 235 85 
1847 485 122 278 518 
1848 309 322 329 460 
1849 369 434 371 465 
1850 279 278 271 304 
1851 266 247 263 258 
1852 19 230 237 234 
1853 491 274 61 286 
1854 485 141 121 414 
1855 173 430 174 160 
1856 280 435 133 429 
1857 236 235 256 258 
1858 223 197 46 475 
1859 520 96 250 95 
1860 44 189 45 449 
1861 314 317 316 436 
1862 204 206 191 437 
1863 532 379 77 78 
1864 508 483 270 280 
1865 389 438 378 440 
1866 41 532 78 428 
1867 225 178 188 460 
1868 236 235 231 256 
1869 276 284 290 295 
1870 57 476 192 167 
1871 416 143 516 123 
1872 150 36 387 424 
1873 202 161 217 463 
1874 283 277 269 303 
1875 197 223 201 443 
1876 256 471 105 258 
1877 86 489 398 87 
1878 429 280 508 25 
1879 115 375 116 454 
1880 9 72 441 456 
1881 284 295 307 299 
1882 150 374 36 424 
1883 247 236 252 258 
1884 140 492 120 521 
1885 492 121 288 485 
1886 280 275 11 285 
1887 267 247 263 241 
1888 295 288 284 307 
1889 370 368 371 434 
1890 520 244 233 255 
1891 18 472 253 97 
1892 484 488 31 305 
1893 86 231 235 471 
1894 532 161 40 504 
1895 56 451 55 164 
1896 276 275 3 273 
1897 490 528 443 43 
1898 357 78 359 428 
1899 307 485 278 304 
1900 215 494 519 52 
1901 293 296 268 299 
1902 425 448 454 468 
1903 3 1 275 276 
1904 193 203 167 446 
1905 32 377 360 450 
1906 322 311 313 445 
1907 296 284 268 299 
1908 1 275 276 285 
1909 502 489 242 87 
1910 141 121 492 485 
1911 111 383 112 459 
1912 9 520 71 493 
1913 247 252 263 258 
1914 313 460 445 525 
1915 215 494 52 188 
1916 172 44 45 449 
1917 54 519 316 53 
1918 12 506 42 79 
1919 266 241 263 247 
1920 519 487 54 316 
1921 391 13 361 453 
1922 377 429 450 32 
1923 80 441 357 457 
1924 235 247 266 258 
1925 516 271 297 283 
1926 201 223 43 443 
1927 519 487 316 436 
1928 171 487 54 519 
1929 427 454 448 468 
1930 267 247 241 227 
1931 178 525 212 445 
1932 492 485 307 141 
1933 296 290 284 295 
1934 228 240 242 262 
1935 186 192 164 451 
1936 8 254 265 237 
1937 475 324 315 46 
1938 187 182 164 451 
1939 266 241 247 232 
1940 269 282 283 303 
1941 172 208 219 455 
1942 311 331 326 444 
1943 24 498 116 462 
1944 512 482 464 101 
1945 81 452 433 457 
1946 240 231 242 262 
1947 516 143 495 303 
1948 266 241 232 254 
1949 256 471 258 235 
1950 481 523 232 84 
1951 244 70 255 71 
1952 3 290 296 295 
1953 334 155 156 424 
1954 368 370 344 466 
1955 140 492 141 415 
1956 339 375 367 442 
1957 302 293 279 297 
1958 24 61 498 462 
1959 71 249 441 12 
1960 482 83 229 234 
1961 385 364 355 452 
1962 256 252 236 258 
1963 63 6 540 462 
1964 100 267 255 520 
1965 230 80 234 464 
1966 491 291 526 137 
1967 55 187 164 451 
1968 76 77 504 463 
1969 273 3 7 272 
1970 296 491 61 137 
1971 310 318 328 451 
1972 253 261 240 262 
1973 506 159 456 72 
1974 286 491 132 526 
1975 351 371 372 465 
1976 452 81 335 457 
1977 149 150 363 438 
1978 233 241 267 255 
1979 282 294 302 303 
1980 265 254 232 237 
1981 87 106 502 489 
1982 496 296 136 137 
1983 263 255 241 254 
1984 255 244 233 241 
1985 452 335 81 385 
1986 215 494 188 460 
1987 278 284 307 299 
1988 231 240 256 262 
1989 436 309 316 519 
1990 136 131 496 137 
1991 196 208 214 455 
1992 497 3 1 275 
1993 256 106 489 262 
1994 295 521 1 276 
1995 279 302 282 500 
1996 234 81 229 464 
1997 532 379 78 428 
1998 185 211 174 458 
1999 370 369 352 466 
2000 130 268 279 522 
2001 520 255 100 71 
2002 119 285 280 483 
2003 227 233 499 95 
2004 524 173 430 459 
2005 498 24 7 61 
2006 100 499 520 95 
2007 220 507 60 198 
2008 271 278 122 518 
2009 342 350 349 438 
2010 321 308 324 443 
2011 291 5 526 137 
2012 279 500 282 129 
2013 63 286 132 526 
2014 265 232 266 481 
2015 150 388 363 438 
2016 219 208 196 455 
2017 166 222 212 445 
2018 268 287 290 296 
2019 433 453 148 465 
2020 104 471 105 401 
2021 241 267 255 263 
2022 508 280 429 138 
2023 130 496 522 136 
2024 424 453 420 466 
2025 482 523 537 399 
2026 377 429 32 157 
2027 282 271 283 297 
2028 256 240 261 262 
2029 522 296 136 496 
2030 167 203 199 446 
2031 284 276 288 295 
2032 159 72 175 456 
2033 500 293 302 135 
2034 236 501 240 93 
2035 230 8 19 237 
2036 345 360 377 440 
2037 523 265 232 237 
2038 278 284 288 307 
2039 297 283 282 303 
2040 288 121 278 485 
2041 295 284 296 299 
2042 493 441 71 9 
2043 481 265 232 523 
2044 261 538 97 253 
2045 220 507 198 432 
2046 101 512 482 102 
2047 320 317 319 439 
2048 302 294 517 134 
2049 233 267 241 227 
2050 252 98 261 501 
2051 315 321 324 443 
2052 464 482 229 234 
2053 376 348 369 453 
2054 197 47 46 475 
2055 261 252 236 256 
2056 135 517 302 500 
2057 433 452 431 457 
2058 178 170 188 460 
2059 297 282 302 303 
2060 318 314 328 451 
2061 3 1 276 295 
2062 499 527 267 227 
2063 420 438 424 466 
2064 532 504 77 463 
2065 135 517 134 302 
2066 357 506 428 441 
2067 42 79 506 41 
2068 304 278 307 299 
2069 400 83 14 512 
2070 81 457 433 464 
2071 516 28 495 416 
2072 83 482 237 234 
2073 433 457 430 464 
2074 206 161 207 463 
2075 500 302 282 517 
2076 368 344 367 466 
2077 275 1 11 285 
2078 28 510 34 409 
2079 527 247 236 252 
2080 366 360 365 450 
2081 268 290 284 296 
2082 182 183 186 447 
2083 184 165 185 458 
2084 148 453 376 465 
2085 326 331 315 444 
2086 483 139 536 298 
2087 482 102 537 257 
2088 512 83 102 400 
2089 162 226 216 448 
2090 508 280 270 25 
2091 101 512 102 21 
2092 236 252 501 527 
2093 356 375 115 454 
2094 93 97 538 92 
2095 129 522 500 135 
2096 22 502 262 259 
2097 300 495 34 303 
2098 222 178 212 445 
2099 518 141 485 414 
2100 84 523 232 237 
2101 492 295 306 307 
2102 49 48 194 509 
2103 349 350 388 438 
2104 517 128 129 134 
2105 236 227 527 94 
2106 165 71 211 458 
2107 212 525 225 51 
2108 9 175 72 456 
2109 377 378 345 440 
2110 492 295 307 288 
2111 526 62 6 462 
2112 50 473 166 212 
2113 494 188 225 51 
2114 501 527 98 94 
2115 521 140 298 536 
2116 252 99 98 527 
2117 295 521 276 288 
2118 183 447 173 459 
2119 54 187 55 487 
2120 12 506 79 78 
2121 521 120 288 492 
2122 85 481 232 84 
2123 351 148 376 465 
2124 135 130 522 136 
2125 98 538 501 93 
2126 86 489 87 231 
2127 266 254 232 265 
2128 159 175 176 456 
2129 521 140 412 120 
2130 483 139 298 138 
2131 482 102 257 101 
2132 120 288 285 521 
2133 148 391 376 453 
2134 355 386 385 452 
2135 397 511 478 88 
2136 71 249 12 2 
2137 119 469 27 413 
2138 135 517 500 129 
2139 143 474 142 297 
2140 81 80 457 464 
2141 376 361 348 453 
2142 388 350 363 438 
2143 317 320 322 439 
2144 32 360 366 450 
2145 192 56 476 57 
2146 81 80 335 457 
2147 122 271 474 123 
2148 523 103 257 537 
2149 523 103 399 84 
2150 157 118 469 417 
2151 94 98 501 93 
2152 499 527 227 94 
2153 124 541 510 409 
2154 129 522 135 130 
2155 140 298 536 139 
2156 102 537 257 103 
2157 367 466 333 467 
2158 533 161 504 39 
2159 489 105 398 106 
2160 58 59 470 199 
2161 366 381 32 450 
2162 81 385 13 452 
2163 495 143 34 303 
2164 220 490 4 60 
2165 376 391 361 453 
2166 193 216 226 448 
2167 235 86 471 85 
2168 4 43 223 528 
2169 39 76 503 75 
2170 166 473 50 49 
2171 15 242 87 502 
2172 516 28 416 123 
2173 12 71 542 441 
2174 76 77 39 504 
2175 518 141 414 142 
2176 541 301 144 477 
2177 140 120 492 415 
2178 505 114 113 66 
2179 188 494 52 51 
2180 526 61 5 462 
2181 389 378 377 440 
2182 168 48 47 509 
2183 499 100 99 95 
2184 529 38 503 75 
2185 257 19 8 237 
2186 351 372 20 465 
2187 144 541 477 410 
2188 527 99 98 94 
2189 459 112 111 65 
2190 409 124 541 410 
2191 124 510 28 409 
2192 83 523 84 237 
2193 507 60 198 59 
2194 438 466 420 467 
2195 182 174 173 447 
2196 104 105 471 258 
2197 100 520 250 95 
2198 265 103 523 481 
2199 529 37 38 74 
2200 246 535 91 17 
2201 185 165 211 458 
2202 512 83 14 229 
2203 515 246 535 91 
2204 57 58 513 167 
2205 77 40 39 504 
2206 53 215 519 52 
2207 50 51 525 212 
2208 124 281 510 541 
2209 215 188 184 460 
2210 503 38 39 75 
2211 75 529 38 74 
2212 98 538 93 97 
2213 135 517 129 134 
2214 472 17 228 92 
2215 269 484 30 128 
2216 535 17 18 394 
2217 532 161 207 40 
2218 137 131 496 491 
2219 66 505 114 67 
2220 383 111 101 459 
2221 357 359 335 457 
2222 493 441 9 72 
2223 119 469 139 483 
2224 428 532 463 207 
2225 119 139 469 413 
2226 24 7 69 498 
2227 121 122 278 485 
2228 113 112 530 66 
2229 71 249 2 70 
2230 81 234 80 464 
2231 270 27 469 118 
2232 373 363 350 438 
2233 19 8 524 64 
2234 67 115 68 539 
2235 182 173 183 447 
2236 285 1 11 298 
2237 508 483 280 138 
2238 221 505 530 66 
2239 306 141 492 307 
2240 108 260 478 107 
2241 145 301 477 144 
2242 148 512 82 13 
2243 130 131 496 136 
2244 89 239 88 478 
2245 124 125 281 541 
2246 221 505 66 162 
2247 170 184 188 460 
2248 484 31 292 134 
2249 224 1 531 190 
2250 479 89 16 395 
2251 529 531 74 426 
2252 145 480 146 35 
2253 406 126 29 480 
2254 20 148 351 465 
2255 140 306 141 492 
2256 103 265 104 481 
2257 91 535 394 17 
2258 367 344 333 466 
2259 531 37 1 224 
2260 65 111 459 64 
2261 126 534 127 281 
2262 90 543 91 239 
2263 89 479 16 90 
2264 23 109 479 108 
2265 145 480 35 408 
2266 480 126 29 125 
2267 291 132 526 62 
2268 146 514 301 147 
2269 515 109 110 260 
2270 357 80 12 441 
2271 454 6 68 179 
2272 88 238 15 511 
2273 124 277 28 510 
2274 101 512 21 20 
2275 469 33 138 32 
2276 30 484 31 292 
2277 370 352 344 466 
2278 120 285 119 521 
2279 11 37 1 531 
2280 77 532 40 504 
2281 508 469 118 270 
2282 526 5 61 137 
2283 270 117 26 508 
2284 19 8 486 524 
2285 107 511 22 259 
2286 34 510 300 144 
2287 512 82 229 14 
2288 377 157 389 440 
2289 459 530 112 65 
2290 72 96 493 10 
2291 120 121 288 492 
2292 9 520 493 250 
2293 71 2 12 542 
2294 69 540 6 68 
2295 540 454 6 68 
2296 6 526 132 62 
2297 343 149 333 467 
2298 26 117 149 467 
2299 54 171 519 53 
2300 531 11 37 74 
2301 488 31 305 147 
2302 535 18 264 110 
2303 300 495 510 34 
2304 127 30 289 488 
2305 343 344 352 466 
2306 343 333 344 466 
2307 68 454 205 539 
2308 335 80 357 457 
2309 252 267 99 527 
2310 392 16 23 479 
2311 406 29 35 480 
2312 497 531 435 11 
2313 223 46 4 528 
2314 286 287 132 491 
2315 270 26 118 508 
2316 343 333 466 467 
2317 1 3 497 190 
2318 65 530 112 66 
2319 448 505 221 162 
2320 41 79 506 78 
2321 508 483 138 469 
2322 287 131 132 491 
2323 529 531 37 74 
2324 213 41 10 428 
2325 69 116 24 498 
2326 42 12 2 542 
2327 41 532 40 78 
2328 78 532 40 77 
2329 508 483 469 270 
2330 531 455 190 435 
2331 524 173 459 64 
2332 508 26 118 157 
2333 6 540 69 63 
2334 357 506 441 12 
2335 439 443 321 444 
2336 439 443 444 421 
2337 439 446 451 319 
2338 158 454 180 179 
2339 180 454 158 425 
2340 206 428 177 437 
2341 206 428 437 463 
2342 62 425 210 158 
2343 62 425 158 462 
2344 461 455 437 426 
2345 461 437 455 421 
2346 218 447 458 174 
2347 458 447 218 436 
2348 451 332 319 446 
2349 451 319 332 318 
2350 180 454 205 179 
2351 205 454 180 448 
2352 20 427 384 459 
2353 20 427 459 465 
2354 321 444 315 331 
2355 315 444 321 443 
2356 3 24 272 462 
2357 3 24 462 61 
2358 3 24 61 7 
2359 3 24 7 272 
2360 19 482 234 237 
2361 19 482 237 257 
2362 519 184 215 171 
2363 394 18 535 110 
2364 519 171 215 53 
2365 519 184 171 436 
2366 438 387 150 388 
2367 438 150 387 424 
2368 465 464 148 433 
2369 465 512 464 101 
2370 264 472 246 228 
2371 488 269 30 289 
2372 41 506 428 78 
2373 246 259 228 238 
2374 228 259 246 264 
2375 289 300 269 277 
2376 488 510 281 301 
2377 259 228 262 253 
2378 269 300 303 277 
2379 303 300 269 294 
2380 343 424 352 353 
2381 352 424 343 466 
2382 340 364 452 355 
2383 340 452 364 341 
2384 467 343 438 466 
2385 467 438 343 149 
2386 86 489 231 471 
2387 489 105 106 256 
2388 515 535 110 394 
2389 422 448 216 193 
2390 422 192 216 186 
2391 216 192 422 193 
2392 354 153 424 336 
2393 424 153 354 362 
2394 237 257 265 8 
2395 237 265 257 523 
2396 279 297 304 271 
2397 304 297 279 293 
2398 279 304 299 278 
2399 299 304 279 293 
2400 299 279 268 293 
2401 299 268 279 284 
2402 91 535 515 394 
2403 516 28 283 495 
2404 527 247 252 267 
2405 267 247 252 263 
2406 496 287 268 296 
2407 296 491 137 496 
2408 240 256 236 231 
2409 236 256 240 261 
2410 282 297 279 271 
2411 279 297 282 302 
2412 303 277 495 283 
2413 303 495 277 300 
2414 262 238 242 228 
2415 262 238 228 259 
2416 94 499 95 227 
2417 94 95 499 99 
2418 440 338 345 341 
2419 440 338 341 420 
2420 440 342 338 438 
2421 510 495 300 277 
2422 357 506 78 428 
2423 472 18 17 251 
2424 475 324 528 443 
2425 348 155 424 347 
2426 424 155 348 334 
2427 502 511 238 259 
2428 502 511 259 22 
2429 511 22 15 396 
2430 502 15 242 238 
2431 510 495 28 34 
2432 495 28 283 277 
2433 28 495 510 277 
2434 18 535 472 17 
2435 152 338 424 336 
2436 152 424 338 337 
2437 25 149 467 333 
2438 25 467 149 117 
2439 506 493 542 73 
2440 438 343 150 424 
2441 438 150 343 149 
2442 41 506 10 428 
2443 542 506 42 12 
2444 42 506 10 41 
2445 373 438 26 363 
2446 149 26 438 363 
2447 149 438 26 467 
2448 440 342 438 378 
2449 440 342 378 345 
2450 506 493 73 10 
2451 357 506 12 78 
2452 441 506 542 12 
2453 456 506 72 441 
2454 467 373 438 26 
2455 467 373 26 157 
2456 417 33 27 469 
2457 417 157 32 469 
2458 157 469 118 508 
2459 417 27 118 469 
2460 65 459 173 64 
2461 417 32 33 469 
2462 475 324 46 528 
2463 148 13 433 464 
2464 528 46 4 324 
2465 540 498 63 462 
2466 312 470 327 432 
2467 470 432 312 446 
2468 470 312 323 446 
2469 58 312 323 470 
2470 327 312 59 470 
2471 58 59 312 470 
2472 471 104 258 266 
2473 471 86 105 401 
2474 459 183 65 173 
2475 471 104 481 85 
2476 471 86 401 85 
2477 472 97 92 538 
2478 472 18 251 97 
2479 472 97 538 253 
2480 472 535 18 264 
2481 251 17 472 92 
2482 68 116 454 115 
2483 325 311 473 445 
2484 459 530 65 183 
2485 473 212 525 445 
2486 66 162 505 67 
2487 50 525 473 212 
2488 473 325 50 49 
2489 518 297 271 304 
2490 474 142 518 122 
2491 143 474 297 516 
2492 516 271 283 123 
2493 122 474 411 123 
2494 326 315 475 444 
2495 315 443 475 444 
2496 475 528 46 223 
2497 475 326 47 315 
2498 475 528 223 443 
2499 475 47 46 315 
2500 332 476 310 323 
2501 451 310 56 328 
2502 476 513 167 57 
2503 516 271 123 474 
2504 476 323 57 310 
2505 476 56 310 57 
2506 69 116 540 68 
2507 144 541 410 409 
2508 477 480 146 145 
2509 477 480 145 410 
2510 405 480 126 406 
2511 145 477 410 144 
2512 501 252 98 527 
2513 107 511 478 397 
2514 478 479 109 108 
2515 478 479 108 397 
2516 527 247 227 236 
2517 108 478 397 107 
2518 531 138 74 426 
2519 479 16 23 395 
2520 393 90 392 479 
2521 395 23 479 108 
2522 479 392 16 90 
2523 397 395 479 108 
2524 125 480 410 408 
2525 527 247 267 227 
2526 125 480 408 29 
2527 540 498 69 63 
2528 283 516 495 303 
2529 481 265 104 266 
2530 85 402 481 84 
2531 540 454 116 462 
2532 482 102 83 399 
2533 83 523 237 482 
2534 482 237 257 523 
2535 6 63 132 526 
2536 521 285 483 298 
2537 483 139 119 412 
2538 119 285 483 521 
2539 517 269 484 294 
2540 484 294 269 305 
2541 517 294 484 134 
2542 294 484 31 305 
2543 294 31 484 134 
2544 485 141 304 307 
2545 414 122 485 518 
2546 50 51 313 525 
2547 121 122 485 414 
2548 486 430 70 464 
2549 70 230 486 464 
2550 486 160 70 430 
2551 8 486 70 230 
2552 486 8 70 160 
2553 314 316 487 436 
2554 314 436 487 451 
2555 487 55 314 451 
2556 314 54 487 316 
2557 54 487 55 314 
2558 488 147 301 514 
2559 488 484 30 269 
2560 488 147 405 407 
2561 405 127 488 407 
2562 127 30 488 407 
2563 488 484 269 305 
2564 489 87 231 242 
2565 489 105 471 86 
2566 65 221 530 66 
2567 489 105 86 398 
2568 490 308 327 432 
2569 308 432 490 443 
2570 490 528 43 4 
2571 490 324 4 308 
2572 308 490 327 60 
2573 490 308 4 60 
2574 286 491 526 61 
2575 491 526 61 137 
2576 491 131 291 137 
2577 480 406 146 35 
2578 491 131 132 291 
2579 141 492 121 415 
2580 63 526 6 462 
2581 516 28 123 283 
2582 120 121 492 415 
2583 520 243 493 96 
2584 493 96 243 73 
2585 9 520 250 100 
2586 72 493 96 250 
2587 250 493 9 72 
2588 9 520 100 71 
2589 225 494 525 460 
2590 309 329 494 460 
2591 329 52 309 494 
2592 525 494 225 51 
2593 494 329 52 51 
2594 516 143 416 495 
2595 472 535 246 17 
2596 416 143 34 495 
2597 495 28 34 416 
2598 67 162 505 205 
2599 296 491 496 287 
2600 496 287 131 268 
2601 130 268 522 496 
2602 522 296 496 268 
2603 130 131 268 496 
2604 497 280 275 11 
2605 497 280 11 435 
2606 497 531 11 1 
2607 11 497 1 275 
2608 497 531 1 190 
2609 540 498 462 116 
2610 498 61 63 462 
2611 63 498 7 61 
2612 498 7 69 63 
2613 540 498 116 69 
2614 227 233 267 499 
2615 100 267 520 499 
2616 267 100 99 499 
2617 499 527 94 99 
2618 499 527 99 267 
2619 279 293 302 500 
2620 479 393 109 392 
2621 129 522 130 279 
2622 129 522 279 500 
2623 252 501 261 236 
2624 283 297 516 303 
2625 236 527 501 94 
2626 94 501 236 93 
2627 502 511 15 238 
2628 23 109 392 479 
2629 22 106 262 502 
2630 502 15 22 403 
2631 523 103 537 399 
2632 503 463 426 381 
2633 483 139 412 536 
2634 163 503 202 426 
2635 39 76 533 503 
2636 163 38 202 503 
2637 202 38 39 503 
2638 504 533 39 76 
2639 532 161 504 463 
2640 504 533 76 463 
2641 504 40 39 161 
2642 532 161 463 207 
2643 505 530 66 113 
2644 505 448 205 162 
2645 506 159 72 10 
2646 505 530 113 427 
2647 32 138 469 429 
2648 131 287 496 491 
2649 507 470 432 327 
2650 507 470 327 59 
2651 490 507 432 327 
2652 490 507 327 60 
2653 327 60 507 59 
2654 26 157 508 467 
2655 157 429 508 467 
2656 530 183 221 65 
2657 521 140 536 412 
2658 140 536 412 139 
2659 67 505 539 205 
2660 194 473 509 445 
2661 539 205 505 454 
2662 509 49 473 194 
2663 68 205 454 179 
2664 484 292 30 128 
2665 67 539 68 205 
2666 261 240 538 253 
2667 509 475 444 326 
2668 509 475 326 47 
2669 509 311 48 326 
2670 509 48 47 326 
2671 541 301 477 281 
2672 144 541 409 510 
2673 107 511 397 396 
2674 34 409 510 144 
2675 246 535 472 264 
2676 63 61 526 462 
2677 329 494 525 51 
2678 525 494 329 460 
2679 107 396 22 511 
2680 329 525 313 51 
2681 428 506 456 441 
2682 148 20 512 465 
2683 512 13 148 464 
2684 427 530 183 221 
2685 534 488 405 127 
2686 512 404 20 148 
2687 465 148 464 512 
2688 224 37 163 529 
2689 163 37 38 529 
2690 471 231 235 256 
2691 471 489 231 256 
2692 489 105 256 471 
2693 513 470 323 446 
2694 476 323 446 513 
2695 513 470 58 323 
2696 57 58 323 513 
2697 476 323 513 57 
2698 224 529 163 426 
2699 405 480 477 534 
2700 477 480 541 281 
2701 482 102 399 537 
2702 125 480 281 541 
2703 103 481 104 402 
2704 18 253 472 264 
2705 103 481 402 84 
2706 62 291 5 526 
2707 62 526 5 462 
2708 306 140 521 492 
2709 89 478 88 397 
2710 407 31 488 147 
2711 281 488 514 534 
2712 146 514 405 477 
2713 534 514 281 477 
2714 146 405 514 147 
2715 488 147 514 405 
2716 515 91 239 246 
2717 478 479 397 89 
2718 393 109 515 478 
2719 393 110 394 515 
2720 239 543 515 478 
2721 393 109 110 515 
2722 139 469 413 33 
2723 119 469 483 270 
2724 163 38 503 529 
2725 139 469 33 138 
2726 119 469 270 27 
2727 143 123 474 516 
2728 143 474 123 411 
2729 397 511 88 396 
2730 517 269 294 282 
2731 302 294 282 517 
2732 282 128 129 517 
2733 129 500 282 517 
2734 517 269 282 128 
2735 518 297 304 142 
2736 518 141 142 304 
2737 485 518 278 304 
2738 271 278 518 304 
2739 518 297 142 474 
2740 518 141 304 485 
2741 471 266 235 481 
2742 405 480 534 126 
2743 492 295 288 521 
2744 266 232 235 481 
2745 471 104 266 481 
2746 87 502 106 403 
2747 519 494 460 309 
2748 519 494 309 52 
2749 316 53 519 309 
2750 53 519 309 52 
2751 436 309 317 316 
2752 106 489 262 502 
2753 405 514 534 477 
2754 22 403 106 502 
2755 15 502 87 403 
2756 311 49 473 509 
2757 509 473 311 445 
2758 492 485 288 307 
2759 534 488 514 405 
2760 288 485 278 307 
2761 49 48 509 311 
2762 509 311 444 445 
2763 520 243 96 233 
2764 520 267 255 233 
2765 520 244 255 71 
2766 520 499 233 95 
2767 520 233 96 95 
2768 520 244 71 243 
2769 520 267 233 499 
2770 538 240 261 501 
2771 120 521 119 412 
2772 521 140 306 298 
2773 536 521 483 298 
2774 119 521 483 412 
2775 522 268 279 293 
2776 522 296 268 293 
2777 293 500 522 135 
2778 135 522 293 136 
2779 522 296 293 136 
2780 293 279 522 500 
2781 50 325 473 525 
2782 313 460 329 322 
2783 538 228 240 92 
2784 313 460 525 329 
2785 493 96 73 10 
2786 103 84 523 481 
2787 83 399 84 523 
2788 523 103 265 257 
2789 83 399 523 482 
2790 482 523 257 537 
2791 236 261 240 501 
2792 538 228 92 472 
2793 98 538 97 261 
2794 98 538 261 501 
2795 538 240 501 93 
2796 524 160 486 430 
2797 524 173 64 160 
2798 93 538 240 92 
2799 524 173 160 430 
2800 524 8 160 64 
2801 524 8 486 160 
2802 325 525 313 445 
2803 325 50 313 525 
2804 473 525 325 445 
$EndElements
