ISO-10303-21;
HEADER;
FILE_DESCRIPTION(('Open CASCADE Model'),'2;1');
FILE_NAME('Open CASCADE Shape Model','2026-10-02T01:33:04',('Author'),(
    'Open CASCADE'),'Open CASCADE STEP processor 7.9','Open CASCADE 7.9'
  ,'Unknown');
FILE_SCHEMA(('AUTOMOTIVE_DESIGN { 1 0 10303 214 1 1 1 1 }'));
ENDSEC;
DATA;
#1 = APPLICATION_PROTOCOL_DEFINITION('international standard',
  'automotive_design',2000,#2);
#2 = APPLICATION_CONTEXT(
  'core data for automotive mechanical design processes');
#3 = SHAPE_DEFINITION_REPRESENTATION(#4,#10);
#4 = PRODUCT_DEFINITION_SHAPE('','',#5);
#5 = PRODUCT_DEFINITION('design','',#6,#9);
#6 = PRODUCT_DEFINITION_FORMATION('','',#7);
#7 = PRODUCT('Open CASCADE STEP translator 7.9 1',
  'Open CASCADE STEP translator 7.9 1','',(#8));
#8 = PRODUCT_CONTEXT('',#2,'mechanical');
#9 = PRODUCT_DEFINITION_CONTEXT('part definition',#2,'design');
#10 = ADVANCED_BREP_SHAPE_REPRESENTATION('',(#11,#15),#437);
#11 = AXIS2_PLACEMENT_3D('',#12,#13,#14);
#12 = CARTESIAN_POINT('',(0.,0.,0.));
#13 = DIRECTION('',(0.,0.,1.));
#14 = DIRECTION('',(1.,0.,-0.));
#15 = MANIFOLD_SOLID_BREP('',#16);
#16 = CLOSED_SHELL('',(#17,#54,#107,#162,#215,#319,#408));
#17 = ADVANCED_FACE('',(#18),#31,.F.);
#18 = FACE_BOUND('',#19,.T.);
#19 = EDGE_LOOP('',(#20));
#20 = ORIENTED_EDGE('',*,*,#21,.F.);
#21 = EDGE_CURVE('',#22,#22,#24,.T.);
#22 = VERTEX_POINT('',#23);
#23 = CARTESIAN_POINT('',(0.,4.8,0.));
#24 = SURFACE_CURVE('',#25,(#30,#42),.PCURVE_S1.);
#25 = CIRCLE('',#26,4.8);
#26 = AXIS2_PLACEMENT_3D('',#27,#28,#29);
#27 = CARTESIAN_POINT('',(0.,0.,0.));
#28 = DIRECTION('',(0.,-0.,1.));
#29 = DIRECTION('',(0.,1.,0.));
#30 = PCURVE('',#31,#36);
#31 = PLANE('',#32);
#32 = AXIS2_PLACEMENT_3D('',#33,#34,#35);
#33 = CARTESIAN_POINT('',(0.,0.,0.));
#34 = DIRECTION('',(0.,0.,1.));
#35 = DIRECTION('',(0.,1.,-0.));
#36 = DEFINITIONAL_REPRESENTATION('',(#37),#41);
#37 = CIRCLE('',#38,4.8);
#38 = AXIS2_PLACEMENT_2D('',#39,#40);
#39 = CARTESIAN_POINT('',(0.,0.));
#40 = DIRECTION('',(1.,-0.));
#41 = ( GEOMETRIC_REPRESENTATION_CONTEXT(2) 
PARAMETRIC_REPRESENTATION_CONTEXT() REPRESENTATION_CONTEXT('2D SPACE',''
  ) );
#42 = PCURVE('',#43,#48);
#43 = CONICAL_SURFACE('',#44,6.,0.785398163397);
#44 = AXIS2_PLACEMENT_3D('',#45,#46,#47);
#45 = CARTESIAN_POINT('',(0.,0.,1.2));
#46 = DIRECTION('',(0.,-0.,1.));
#47 = DIRECTION('',(0.,1.,0.));
#48 = DEFINITIONAL_REPRESENTATION('',(#49),#53);
#49 = LINE('',#50,#51);
#50 = CARTESIAN_POINT('',(0.,-1.2));
#51 = VECTOR('',#52,1.);
#52 = DIRECTION('',(1.,0.));
#53 = ( GEOMETRIC_REPRESENTATION_CONTEXT(2) 
PARAMETRIC_REPRESENTATION_CONTEXT() REPRESENTATION_CONTEXT('2D SPACE',''
  ) );
#54 = ADVANCED_FACE('',(#55),#43,.T.);
#55 = FACE_BOUND('',#56,.T.);
#56 = EDGE_LOOP('',(#57,#78,#79,#80));
#57 = ORIENTED_EDGE('',*,*,#58,.F.);
#58 = EDGE_CURVE('',#22,#59,#61,.T.);
#59 = VERTEX_POINT('',#60);
#60 = CARTESIAN_POINT('',(0.,6.,1.2));
#61 = SEAM_CURVE('',#62,(#66,#72),.PCURVE_S1.);
#62 = LINE('',#63,#64);
#63 = CARTESIAN_POINT('',(0.,6.,1.2));
#64 = VECTOR('',#65,1.);
#65 = DIRECTION('',(0.,0.707106781187,0.707106781187));
#66 = PCURVE('',#43,#67);
#67 = DEFINITIONAL_REPRESENTATION('',(#68),#71);
#68 = B_SPLINE_CURVE_WITH_KNOTS('',1,(#69,#70),.UNSPECIFIED.,.F.,.F.,(2,
    2),(-1.697056274848,0.),.PIECEWISE_BEZIER_KNOTS.);
#69 = CARTESIAN_POINT('',(0.,-1.2));
#70 = CARTESIAN_POINT('',(0.,0.));
#71 = ( GEOMETRIC_REPRESENTATION_CONTEXT(2) 
PARAMETRIC_REPRESENTATION_CONTEXT() REPRESENTATION_CONTEXT('2D SPACE',''
  ) );
#72 = PCURVE('',#43,#73);
#73 = DEFINITIONAL_REPRESENTATION('',(#74),#77);
#74 = B_SPLINE_CURVE_WITH_KNOTS('',1,(#75,#76),.UNSPECIFIED.,.F.,.F.,(2,
    2),(-1.697056274848,0.),.PIECEWISE_BEZIER_KNOTS.);
#75 = CARTESIAN_POINT('',(6.28318530718,-1.2));
#76 = CARTESIAN_POINT('',(6.28318530718,0.));
#77 = ( GEOMETRIC_REPRESENTATION_CONTEXT(2) 
PARAMETRIC_REPRESENTATION_CONTEXT() REPRESENTATION_CONTEXT('2D SPACE',''
  ) );
#78 = ORIENTED_EDGE('',*,*,#21,.T.);
#79 = ORIENTED_EDGE('',*,*,#58,.T.);
#80 = ORIENTED_EDGE('',*,*,#81,.F.);
#81 = EDGE_CURVE('',#59,#59,#82,.T.);
#82 = SURFACE_CURVE('',#83,(#88,#95),.PCURVE_S1.);
#83 = CIRCLE('',#84,6.);
#84 = AXIS2_PLACEMENT_3D('',#85,#86,#87);
#85 = CARTESIAN_POINT('',(0.,0.,1.2));
#86 = DIRECTION('',(0.,-0.,1.));
#87 = DIRECTION('',(0.,1.,0.));
#88 = PCURVE('',#43,#89);
#89 = DEFINITIONAL_REPRESENTATION('',(#90),#94);
#90 = LINE('',#91,#92);
#91 = CARTESIAN_POINT('',(0.,0.));
#92 = VECTOR('',#93,1.);
#93 = DIRECTION('',(1.,0.));
#94 = ( GEOMETRIC_REPRESENTATION_CONTEXT(2) 
PARAMETRIC_REPRESENTATION_CONTEXT() REPRESENTATION_CONTEXT('2D SPACE',''
  ) );
#95 = PCURVE('',#96,#101);
#96 = CYLINDRICAL_SURFACE('',#97,6.);
#97 = AXIS2_PLACEMENT_3D('',#98,#99,#100);
#98 = CARTESIAN_POINT('',(0.,0.,0.));
#99 = DIRECTION('',(0.,0.,1.));
#100 = DIRECTION('',(0.,1.,0.));
#101 = DEFINITIONAL_REPRESENTATION('',(#102),#106);
#102 = LINE('',#103,#104);
#103 = CARTESIAN_POINT('',(0.,1.2));
#104 = VECTOR('',#105,1.);
#105 = DIRECTION('',(1.,0.));
#106 = ( GEOMETRIC_REPRESENTATION_CONTEXT(2) 
PARAMETRIC_REPRESENTATION_CONTEXT() REPRESENTATION_CONTEXT('2D SPACE',''
  ) );
#107 = ADVANCED_FACE('',(#108),#96,.T.);
#108 = FACE_BOUND('',#109,.T.);
#109 = EDGE_LOOP('',(#110,#133,#134,#135));
#110 = ORIENTED_EDGE('',*,*,#111,.F.);
#111 = EDGE_CURVE('',#59,#112,#114,.T.);
#112 = VERTEX_POINT('',#113);
#113 = CARTESIAN_POINT('',(0.,6.,31.42));
#114 = SEAM_CURVE('',#115,(#119,#126),.PCURVE_S1.);
#115 = LINE('',#116,#117);
#116 = CARTESIAN_POINT('',(0.,6.,0.));
#117 = VECTOR('',#118,1.);
#118 = DIRECTION('',(0.,0.,1.));
#119 = PCURVE('',#96,#120);
#120 = DEFINITIONAL_REPRESENTATION('',(#121),#125);
#121 = LINE('',#122,#123);
#122 = CARTESIAN_POINT('',(0.,0.));
#123 = VECTOR('',#124,1.);
#124 = DIRECTION('',(0.,1.));
#125 = ( GEOMETRIC_REPRESENTATION_CONTEXT(2) 
PARAMETRIC_REPRESENTATION_CONTEXT() REPRESENTATION_CONTEXT('2D SPACE',''
  ) );
#126 = PCURVE('',#96,#127);
#127 = DEFINITIONAL_REPRESENTATION('',(#128),#132);
#128 = LINE('',#129,#130);
#129 = CARTESIAN_POINT('',(6.28318530718,0.));
#130 = VECTOR('',#131,1.);
#131 = DIRECTION('',(0.,1.));
#132 = ( GEOMETRIC_REPRESENTATION_CONTEXT(2) 
PARAMETRIC_REPRESENTATION_CONTEXT() REPRESENTATION_CONTEXT('2D SPACE',''
  ) );
#133 = ORIENTED_EDGE('',*,*,#81,.T.);
#134 = ORIENTED_EDGE('',*,*,#111,.T.);
#135 = ORIENTED_EDGE('',*,*,#136,.F.);
#136 = EDGE_CURVE('',#112,#112,#137,.T.);
#137 = SURFACE_CURVE('',#138,(#143,#150),.PCURVE_S1.);
#138 = CIRCLE('',#139,6.);
#139 = AXIS2_PLACEMENT_3D('',#140,#141,#142);
#140 = CARTESIAN_POINT('',(0.,0.,31.42));
#141 = DIRECTION('',(0.,-0.,1.));
#142 = DIRECTION('',(0.,1.,0.));
#143 = PCURVE('',#96,#144);
#144 = DEFINITIONAL_REPRESENTATION('',(#145),#149);
#145 = LINE('',#146,#147);
#146 = CARTESIAN_POINT('',(0.,31.42));
#147 = VECTOR('',#148,1.);
#148 = DIRECTION('',(1.,0.));
#149 = ( GEOMETRIC_REPRESENTATION_CONTEXT(2) 
PARAMETRIC_REPRESENTATION_CONTEXT() REPRESENTATION_CONTEXT('2D SPACE',''
  ) );
#150 = PCURVE('',#151,#156);
#151 = CONICAL_SURFACE('',#152,6.,0.785398163397);
#152 = AXIS2_PLACEMENT_3D('',#153,#154,#155);
#153 = CARTESIAN_POINT('',(0.,0.,31.42));
#154 = DIRECTION('',(-0.,-0.,1.));
#155 = DIRECTION('',(0.,1.,0.));
#156 = DEFINITIONAL_REPRESENTATION('',(#157),#161);
#157 = LINE('',#158,#159);
#158 = CARTESIAN_POINT('',(0.,0.));
#159 = VECTOR('',#160,1.);
#160 = DIRECTION('',(1.,0.));
#161 = ( GEOMETRIC_REPRESENTATION_CONTEXT(2) 
PARAMETRIC_REPRESENTATION_CONTEXT() REPRESENTATION_CONTEXT('2D SPACE',''
  ) );
#162 = ADVANCED_FACE('',(#163),#151,.T.);
#163 = FACE_BOUND('',#164,.T.);
#164 = EDGE_LOOP('',(#165,#186,#187,#188));
#165 = ORIENTED_EDGE('',*,*,#166,.F.);
#166 = EDGE_CURVE('',#112,#167,#169,.T.);
#167 = VERTEX_POINT('',#168);
#168 = CARTESIAN_POINT('',(0.,7.2,32.62));
#169 = SEAM_CURVE('',#170,(#174,#180),.PCURVE_S1.);
#170 = LINE('',#171,#172);
#171 = CARTESIAN_POINT('',(0.,6.,31.42));
#172 = VECTOR('',#173,1.);
#173 = DIRECTION('',(0.,0.707106781187,0.707106781187));
#174 = PCURVE('',#151,#175);
#175 = DEFINITIONAL_REPRESENTATION('',(#176),#179);
#176 = B_SPLINE_CURVE_WITH_KNOTS('',1,(#177,#178),.UNSPECIFIED.,.F.,.F.,
  (2,2),(0.,1.697056274848),.PIECEWISE_BEZIER_KNOTS.);
#177 = CARTESIAN_POINT('',(0.,0.));
#178 = CARTESIAN_POINT('',(0.,1.2));
#179 = ( GEOMETRIC_REPRESENTATION_CONTEXT(2) 
PARAMETRIC_REPRESENTATION_CONTEXT() REPRESENTATION_CONTEXT('2D SPACE',''
  ) );
#180 = PCURVE('',#151,#181);
#181 = DEFINITIONAL_REPRESENTATION('',(#182),#185);
#182 = B_SPLINE_CURVE_WITH_KNOTS('',1,(#183,#184),.UNSPECIFIED.,.F.,.F.,
  (2,2),(0.,1.697056274848),.PIECEWISE_BEZIER_KNOTS.);
#183 = CARTESIAN_POINT('',(6.28318530718,0.));
#184 = CARTESIAN_POINT('',(6.28318530718,1.2));
#185 = ( GEOMETRIC_REPRESENTATION_CONTEXT(2) 
PARAMETRIC_REPRESENTATION_CONTEXT() REPRESENTATION_CONTEXT('2D SPACE',''
  ) );
#186 = ORIENTED_EDGE('',*,*,#136,.T.);
#187 = ORIENTED_EDGE('',*,*,#166,.T.);
#188 = ORIENTED_EDGE('',*,*,#189,.F.);
#189 = EDGE_CURVE('',#167,#167,#190,.T.);
#190 = SURFACE_CURVE('',#191,(#196,#203),.PCURVE_S1.);
#191 = CIRCLE('',#192,7.2);
#192 = AXIS2_PLACEMENT_3D('',#193,#194,#195);
#193 = CARTESIAN_POINT('',(0.,0.,32.62));
#194 = DIRECTION('',(0.,-0.,1.));
#195 = DIRECTION('',(0.,1.,0.));
#196 = PCURVE('',#151,#197);
#197 = DEFINITIONAL_REPRESENTATION('',(#198),#202);
#198 = LINE('',#199,#200);
#199 = CARTESIAN_POINT('',(0.,1.2));
#200 = VECTOR('',#201,1.);
#201 = DIRECTION('',(1.,0.));
#202 = ( GEOMETRIC_REPRESENTATION_CONTEXT(2) 
PARAMETRIC_REPRESENTATION_CONTEXT() REPRESENTATION_CONTEXT('2D SPACE',''
  ) );
#203 = PCURVE('',#204,#209);
#204 = PLANE('',#205);
#205 = AXIS2_PLACEMENT_3D('',#206,#207,#208);
#206 = CARTESIAN_POINT('',(0.,0.,32.62));
#207 = DIRECTION('',(0.,0.,1.));
#208 = DIRECTION('',(0.,1.,0.));
#209 = DEFINITIONAL_REPRESENTATION('',(#210),#214);
#210 = CIRCLE('',#211,7.2);
#211 = AXIS2_PLACEMENT_2D('',#212,#213);
#212 = CARTESIAN_POINT('',(0.,0.));
#213 = DIRECTION('',(1.,-0.));
#214 = ( GEOMETRIC_REPRESENTATION_CONTEXT(2) 
PARAMETRIC_REPRESENTATION_CONTEXT() REPRESENTATION_CONTEXT('2D SPACE',''
  ) );
#215 = ADVANCED_FACE('',(#216,#219),#204,.F.);
#216 = FACE_BOUND('',#217,.T.);
#217 = EDGE_LOOP('',(#218));
#218 = ORIENTED_EDGE('',*,*,#189,.T.);
#219 = FACE_BOUND('',#220,.T.);
#220 = EDGE_LOOP('',(#221));
#221 = ORIENTED_EDGE('',*,*,#222,.F.);
#222 = EDGE_CURVE('',#223,#223,#225,.T.);
#223 = VERTEX_POINT('',#224);
#224 = CARTESIAN_POINT('',(0.,8.4,32.62));
#225 = SURFACE_CURVE('',#226,(#247,#271),.PCURVE_S1.);
#226 = B_SPLINE_CURVE_WITH_KNOTS('',10,(#227,#228,#229,#230,#231,#232,
    #233,#234,#235,#236,#237,#238,#239,#240,#241,#242,#243,#244,#245,
    #246),.UNSPECIFIED.,.T.,.F.,(11,9,11),(-3.110210992928E-14,
    30.159289474462,60.318578948924),.UNSPECIFIED.);
#227 = CARTESIAN_POINT('',(0.,8.4,32.62));
#228 = CARTESIAN_POINT('',(-2.600763736693,8.4,32.62));
#229 = CARTESIAN_POINT('',(-5.240960480982,7.505166648603,32.62));
#230 = CARTESIAN_POINT('',(-7.550213100957,5.670869651133,32.62));
#231 = CARTESIAN_POINT('',(-9.123372874189,3.041130084389,
    32.620000000001));
#232 = CARTESIAN_POINT('',(-9.659379804787,-2.173404939358E-03,
    32.619999999999));
#233 = CARTESIAN_POINT('',(-9.110494959622,-3.034089218622,
    32.620000000001));
#234 = CARTESIAN_POINT('',(-7.55456893821,-5.636976873511,32.62));
#235 = CARTESIAN_POINT('',(-5.277955065171,-7.478753690848,32.62));
#236 = CARTESIAN_POINT('',(-2.638937829016,-8.4,32.62));
#237 = CARTESIAN_POINT('',(2.638937829015,-8.4,32.62));
#238 = CARTESIAN_POINT('',(5.277955065171,-7.478753690848,
    32.619999999997));
#239 = CARTESIAN_POINT('',(7.554568938211,-5.636976873512,
    32.620000000006));
#240 = CARTESIAN_POINT('',(9.110494959622,-3.034089218623,
    32.619999999991));
#241 = CARTESIAN_POINT('',(9.659379804786,-2.173404938311E-03,
    32.620000000009));
#242 = CARTESIAN_POINT('',(9.12337287419,3.041130084388,32.619999999993)
  );
#243 = CARTESIAN_POINT('',(7.550213100957,5.670869651134,32.620000000004
    ));
#244 = CARTESIAN_POINT('',(5.240960480982,7.505166648603,32.619999999998
    ));
#245 = CARTESIAN_POINT('',(2.600763736693,8.4,32.62));
#246 = CARTESIAN_POINT('',(0.,8.4,32.62));
#247 = PCURVE('',#204,#248);
#248 = DEFINITIONAL_REPRESENTATION('',(#249),#270);
#249 = B_SPLINE_CURVE_WITH_KNOTS('',10,(#250,#251,#252,#253,#254,#255,
    #256,#257,#258,#259,#260,#261,#262,#263,#264,#265,#266,#267,#268,
    #269),.UNSPECIFIED.,.F.,.F.,(11,9,11),(-3.110210992928E-14,
    30.159289474462,60.318578948924),.UNSPECIFIED.);
#250 = CARTESIAN_POINT('',(8.4,1.7763568394E-15));
#251 = CARTESIAN_POINT('',(8.4,2.600763736693));
#252 = CARTESIAN_POINT('',(7.505166648603,5.240960480982));
#253 = CARTESIAN_POINT('',(5.670869651133,7.550213100957));
#254 = CARTESIAN_POINT('',(3.041130084389,9.123372874189));
#255 = CARTESIAN_POINT('',(-2.173404939358E-03,9.659379804787));
#256 = CARTESIAN_POINT('',(-3.034089218622,9.110494959622));
#257 = CARTESIAN_POINT('',(-5.636976873511,7.55456893821));
#258 = CARTESIAN_POINT('',(-7.478753690848,5.277955065171));
#259 = CARTESIAN_POINT('',(-8.4,2.638937829016));
#260 = CARTESIAN_POINT('',(-8.4,-2.638937829015));
#261 = CARTESIAN_POINT('',(-7.478753690848,-5.277955065171));
#262 = CARTESIAN_POINT('',(-5.636976873512,-7.554568938211));
#263 = CARTESIAN_POINT('',(-3.034089218623,-9.110494959622));
#264 = CARTESIAN_POINT('',(-2.173404938311E-03,-9.659379804786));
#265 = CARTESIAN_POINT('',(3.041130084388,-9.12337287419));
#266 = CARTESIAN_POINT('',(5.670869651134,-7.550213100957));
#267 = CARTESIAN_POINT('',(7.505166648603,-5.240960480982));
#268 = CARTESIAN_POINT('',(8.4,-2.600763736693));
#269 = CARTESIAN_POINT('',(8.4,-2.580807506976E-15));
#270 = ( GEOMETRIC_REPRESENTATION_CONTEXT(2) 
PARAMETRIC_REPRESENTATION_CONTEXT() REPRESENTATION_CONTEXT('2D SPACE',''
  ) );
#271 = PCURVE('',#272,#313);
#272 = B_SPLINE_SURFACE_WITH_KNOTS('',1,10,(
    (#273,#274,#275,#276,#277,#278,#279,#280,#281,#282,#283,#284,#285
      ,#286,#287,#288,#289,#290,#291,#292)
    ,(#293,#294,#295,#296,#297,#298,#299,#300,#301,#302,#303,#304,#305
      ,#306,#307,#308,#309,#310,#311,#312
    )),.UNSPECIFIED.,.F.,.T.,.F.,(2,2),(11,9,11),(0.,60.318578948924),(
    -3.110210992928E-14,30.159289474462,60.318578948924),.UNSPECIFIED.);
#273 = CARTESIAN_POINT('',(0.,8.4,32.62));
#274 = CARTESIAN_POINT('',(-2.600763736693,8.4,32.62));
#275 = CARTESIAN_POINT('',(-5.240960480982,7.505166648603,32.62));
#276 = CARTESIAN_POINT('',(-7.550213100957,5.670869651133,32.62));
#277 = CARTESIAN_POINT('',(-9.123372874189,3.041130084389,
    32.620000000001));
#278 = CARTESIAN_POINT('',(-9.659379804787,-2.173404939358E-03,
    32.619999999999));
#279 = CARTESIAN_POINT('',(-9.110494959622,-3.034089218622,
    32.620000000001));
#280 = CARTESIAN_POINT('',(-7.55456893821,-5.636976873511,32.62));
#281 = CARTESIAN_POINT('',(-5.277955065171,-7.478753690848,32.62));
#282 = CARTESIAN_POINT('',(-2.638937829016,-8.4,32.62));
#283 = CARTESIAN_POINT('',(2.638937829015,-8.4,32.62));
#284 = CARTESIAN_POINT('',(5.277955065171,-7.478753690848,
    32.619999999997));
#285 = CARTESIAN_POINT('',(7.554568938211,-5.636976873512,
    32.620000000006));
#286 = CARTESIAN_POINT('',(9.110494959622,-3.034089218623,
    32.619999999991));
#287 = CARTESIAN_POINT('',(9.659379804786,-2.173404938311E-03,
    32.620000000009));
#288 = CARTESIAN_POINT('',(9.12337287419,3.041130084388,32.619999999993)
  );
#289 = CARTESIAN_POINT('',(7.550213100957,5.670869651134,32.620000000004
    ));
#290 = CARTESIAN_POINT('',(5.240960480982,7.505166648603,32.619999999998
    ));
#291 = CARTESIAN_POINT('',(2.600763736693,8.4,32.62));
#292 = CARTESIAN_POINT('',(0.,8.4,32.62));
#293 = CARTESIAN_POINT('',(0.,9.426031182595,33.807322555404));
#294 = CARTESIAN_POINT('',(-2.918438104837,9.426031182595,
    33.807322555404));
#295 = CARTESIAN_POINT('',(-5.881125823866,8.421897007179,
    33.807322555403));
#296 = CARTESIAN_POINT('',(-8.472445729151,6.363546924288,
    33.807322555406));
#297 = CARTESIAN_POINT('',(-10.23776157173,3.412593691162,
    33.807322555401));
#298 = CARTESIAN_POINT('',(-10.83923991005,-2.438878894684E-03,
    33.807322555407));
#299 = CARTESIAN_POINT('',(-10.22331066407,-3.4046928078,33.807322555401
    ));
#300 = CARTESIAN_POINT('',(-8.477333616981,-6.325514260153,
    33.807322555405));
#301 = CARTESIAN_POINT('',(-5.922639169599,-8.392257797248,
    33.807322555403));
#302 = CARTESIAN_POINT('',(-2.961275031575,-9.426031182595,
    33.807322555404));
#303 = CARTESIAN_POINT('',(2.961275031575,-9.426031182595,
    33.807322555404));
#304 = CARTESIAN_POINT('',(5.922639169599,-8.392257797248,
    33.807322555402));
#305 = CARTESIAN_POINT('',(8.47733361698,-6.325514260153,33.807322555409
    ));
#306 = CARTESIAN_POINT('',(10.223310664079,-3.404692807799,
    33.807322555397));
#307 = CARTESIAN_POINT('',(10.839239910052,-2.438878895083E-03,
    33.807322555411));
#308 = CARTESIAN_POINT('',(10.237761571732,3.412593691162,
    33.807322555398));
#309 = CARTESIAN_POINT('',(8.47244572915,6.363546924288,33.807322555407)
  );
#310 = CARTESIAN_POINT('',(5.881125823867,8.421897007179,33.807322555403
    ));
#311 = CARTESIAN_POINT('',(2.918438104837,9.426031182595,33.807322555404
    ));
#312 = CARTESIAN_POINT('',(2.308711783286E-15,9.426031182595,
    33.807322555404));
#313 = DEFINITIONAL_REPRESENTATION('',(#314),#318);
#314 = LINE('',#315,#316);
#315 = CARTESIAN_POINT('',(0.,0.));
#316 = VECTOR('',#317,1.);
#317 = DIRECTION('',(0.,1.));
#318 = ( GEOMETRIC_REPRESENTATION_CONTEXT(2) 
PARAMETRIC_REPRESENTATION_CONTEXT() REPRESENTATION_CONTEXT('2D SPACE',''
  ) );
#319 = ADVANCED_FACE('',(#320),#272,.F.);
#320 = FACE_BOUND('',#321,.F.);
#321 = EDGE_LOOP('',(#322,#342,#406,#407));
#322 = ORIENTED_EDGE('',*,*,#323,.T.);
#323 = EDGE_CURVE('',#223,#324,#326,.T.);
#324 = VERTEX_POINT('',#325);
#325 = CARTESIAN_POINT('',(0.,9.426031182595,33.807322555404));
#326 = SEAM_CURVE('',#327,(#330,#336),.PCURVE_S1.);
#327 = B_SPLINE_CURVE_WITH_KNOTS('',1,(#328,#329),.UNSPECIFIED.,.F.,.F.,
  (2,2),(0.,60.318578948924),.PIECEWISE_BEZIER_KNOTS.);
#328 = CARTESIAN_POINT('',(0.,8.4,32.62));
#329 = CARTESIAN_POINT('',(0.,9.426031182595,33.807322555404));
#330 = PCURVE('',#272,#331);
#331 = DEFINITIONAL_REPRESENTATION('',(#332),#335);
#332 = B_SPLINE_CURVE_WITH_KNOTS('',1,(#333,#334),.UNSPECIFIED.,.F.,.F.,
  (2,2),(0.,60.318578948924),.PIECEWISE_BEZIER_KNOTS.);
#333 = CARTESIAN_POINT('',(0.,-3.110210992928E-14));
#334 = CARTESIAN_POINT('',(60.318578948924,-3.110210992928E-14));
#335 = ( GEOMETRIC_REPRESENTATION_CONTEXT(2) 
PARAMETRIC_REPRESENTATION_CONTEXT() REPRESENTATION_CONTEXT('2D SPACE',''
  ) );
#336 = PCURVE('',#272,#337);
#337 = DEFINITIONAL_REPRESENTATION('',(#338),#341);
#338 = B_SPLINE_CURVE_WITH_KNOTS('',1,(#339,#340),.UNSPECIFIED.,.F.,.F.,
  (2,2),(0.,60.318578948924),.PIECEWISE_BEZIER_KNOTS.);
#339 = CARTESIAN_POINT('',(0.,60.318578948924));
#340 = CARTESIAN_POINT('',(60.318578948924,60.318578948924));
#341 = ( GEOMETRIC_REPRESENTATION_CONTEXT(2) 
PARAMETRIC_REPRESENTATION_CONTEXT() REPRESENTATION_CONTEXT('2D SPACE',''
  ) );
#342 = ORIENTED_EDGE('',*,*,#343,.T.);
#343 = EDGE_CURVE('',#324,#324,#344,.T.);
#344 = SURFACE_CURVE('',#345,(#366,#373),.PCURVE_S1.);
#345 = B_SPLINE_CURVE_WITH_KNOTS('',10,(#346,#347,#348,#349,#350,#351,
    #352,#353,#354,#355,#356,#357,#358,#359,#360,#361,#362,#363,#364,
    #365),.UNSPECIFIED.,.T.,.F.,(11,9,11),(-3.110210992928E-14,
    30.159289474462,60.318578948924),.UNSPECIFIED.);
#346 = CARTESIAN_POINT('',(0.,9.426031182595,33.807322555404));
#347 = CARTESIAN_POINT('',(-2.918438104837,9.426031182595,
    33.807322555404));
#348 = CARTESIAN_POINT('',(-5.881125823866,8.421897007179,
    33.807322555403));
#349 = CARTESIAN_POINT('',(-8.472445729151,6.363546924288,
    33.807322555406));
#350 = CARTESIAN_POINT('',(-10.23776157173,3.412593691162,
    33.807322555401));
#351 = CARTESIAN_POINT('',(-10.83923991005,-2.438878894684E-03,
    33.807322555407));
#352 = CARTESIAN_POINT('',(-10.22331066407,-3.4046928078,33.807322555401
    ));
#353 = CARTESIAN_POINT('',(-8.477333616981,-6.325514260153,
    33.807322555405));
#354 = CARTESIAN_POINT('',(-5.922639169599,-8.392257797248,
    33.807322555403));
#355 = CARTESIAN_POINT('',(-2.961275031575,-9.426031182595,
    33.807322555404));
#356 = CARTESIAN_POINT('',(2.961275031575,-9.426031182595,
    33.807322555404));
#357 = CARTESIAN_POINT('',(5.922639169599,-8.392257797248,
    33.807322555402));
#358 = CARTESIAN_POINT('',(8.47733361698,-6.325514260153,33.807322555409
    ));
#359 = CARTESIAN_POINT('',(10.223310664079,-3.404692807799,
    33.807322555397));
#360 = CARTESIAN_POINT('',(10.839239910052,-2.438878895083E-03,
    33.807322555411));
#361 = CARTESIAN_POINT('',(10.237761571732,3.412593691162,
    33.807322555398));
#362 = CARTESIAN_POINT('',(8.47244572915,6.363546924288,33.807322555407)
  );
#363 = CARTESIAN_POINT('',(5.881125823867,8.421897007179,33.807322555403
    ));
#364 = CARTESIAN_POINT('',(2.918438104837,9.426031182595,33.807322555404
    ));
#365 = CARTESIAN_POINT('',(2.308711783286E-15,9.426031182595,
    33.807322555404));
#366 = PCURVE('',#272,#367);
#367 = DEFINITIONAL_REPRESENTATION('',(#368),#372);
#368 = LINE('',#369,#370);
#369 = CARTESIAN_POINT('',(60.318578948924,0.));
#370 = VECTOR('',#371,1.);
#371 = DIRECTION('',(0.,1.));
#372 = ( GEOMETRIC_REPRESENTATION_CONTEXT(2) 
PARAMETRIC_REPRESENTATION_CONTEXT() REPRESENTATION_CONTEXT('2D SPACE',''
  ) );
#373 = PCURVE('',#374,#383);
#374 = SURFACE_OF_REVOLUTION('',#375,#380);
#375 = CIRCLE('',#376,8.510210959324);
#376 = AXIS2_PLACEMENT_3D('',#377,#378,#379);
#377 = CARTESIAN_POINT('',(0.,1.113664754098,31.982972005044));
#378 = DIRECTION('',(1.,0.,0.));
#379 = DIRECTION('',(-0.,0.997194462801,7.48545480248E-02));
#380 = AXIS1_PLACEMENT('',#381,#382);
#381 = CARTESIAN_POINT('',(0.,0.,0.));
#382 = DIRECTION('',(0.,0.,1.));
#383 = DEFINITIONAL_REPRESENTATION('',(#384),#405);
#384 = B_SPLINE_CURVE_WITH_KNOTS('',10,(#385,#386,#387,#388,#389,#390,
    #391,#392,#393,#394,#395,#396,#397,#398,#399,#400,#401,#402,#403,
    #404),.UNSPECIFIED.,.F.,.F.,(11,9,11),(-3.110210992928E-14,
    30.159289474462,60.318578948924),.UNSPECIFIED.);
#385 = CARTESIAN_POINT('',(0.,0.141124160838));
#386 = CARTESIAN_POINT('',(0.309614730559,0.141124160838));
#387 = CARTESIAN_POINT('',(0.623927920448,0.141124160838));
#388 = CARTESIAN_POINT('',(0.940039634481,0.141124160838));
#389 = CARTESIAN_POINT('',(1.255847197981,0.141124160838));
#390 = CARTESIAN_POINT('',(1.570654404398,0.141124160838));
#391 = CARTESIAN_POINT('',(1.884959666761,0.141124160838));
#392 = CARTESIAN_POINT('',(2.199113516778,0.141124160838));
#393 = CARTESIAN_POINT('',(2.513274349252,0.141124160838));
#394 = CARTESIAN_POINT('',(2.827433388231,0.141124160838));
#395 = CARTESIAN_POINT('',(3.455751918949,0.141124160838));
#396 = CARTESIAN_POINT('',(3.769910957927,0.141124160838));
#397 = CARTESIAN_POINT('',(4.084071790402,0.141124160838));
#398 = CARTESIAN_POINT('',(4.398225640417,0.141124160838));
#399 = CARTESIAN_POINT('',(4.712530902783,0.141124160838));
#400 = CARTESIAN_POINT('',(5.027338109197,0.141124160838));
#401 = CARTESIAN_POINT('',(5.3431456727,0.141124160838));
#402 = CARTESIAN_POINT('',(5.659257386731,0.141124160838));
#403 = CARTESIAN_POINT('',(5.973570576621,0.141124160838));
#404 = CARTESIAN_POINT('',(6.28318530718,0.141124160838));
#405 = ( GEOMETRIC_REPRESENTATION_CONTEXT(2) 
PARAMETRIC_REPRESENTATION_CONTEXT() REPRESENTATION_CONTEXT('2D SPACE',''
  ) );
#406 = ORIENTED_EDGE('',*,*,#323,.F.);
#407 = ORIENTED_EDGE('',*,*,#222,.F.);
#408 = ADVANCED_FACE('',(#409),#374,.T.);
#409 = FACE_BOUND('',#410,.T.);
#410 = EDGE_LOOP('',(#411,#435,#436));
#411 = ORIENTED_EDGE('',*,*,#412,.F.);
#412 = EDGE_CURVE('',#324,#413,#415,.T.);
#413 = VERTEX_POINT('',#414);
#414 = CARTESIAN_POINT('',(0.,6.661338147751E-16,40.42));
#415 = SEAM_CURVE('',#416,(#421,#428),.PCURVE_S1.);
#416 = CIRCLE('',#417,8.510210959324);
#417 = AXIS2_PLACEMENT_3D('',#418,#419,#420);
#418 = CARTESIAN_POINT('',(0.,1.113664754098,31.982972005044));
#419 = DIRECTION('',(1.,0.,0.));
#420 = DIRECTION('',(-0.,0.997194462801,7.48545480248E-02));
#421 = PCURVE('',#374,#422);
#422 = DEFINITIONAL_REPRESENTATION('',(#423),#427);
#423 = LINE('',#424,#425);
#424 = CARTESIAN_POINT('',(0.,0.));
#425 = VECTOR('',#426,1.);
#426 = DIRECTION('',(0.,1.));
#427 = ( GEOMETRIC_REPRESENTATION_CONTEXT(2) 
PARAMETRIC_REPRESENTATION_CONTEXT() REPRESENTATION_CONTEXT('2D SPACE',''
  ) );
#428 = PCURVE('',#374,#429);
#429 = DEFINITIONAL_REPRESENTATION('',(#430),#434);
#430 = LINE('',#431,#432);
#431 = CARTESIAN_POINT('',(6.28318530718,0.));
#432 = VECTOR('',#433,1.);
#433 = DIRECTION('',(0.,1.));
#434 = ( GEOMETRIC_REPRESENTATION_CONTEXT(2) 
PARAMETRIC_REPRESENTATION_CONTEXT() REPRESENTATION_CONTEXT('2D SPACE',''
  ) );
#435 = ORIENTED_EDGE('',*,*,#343,.T.);
#436 = ORIENTED_EDGE('',*,*,#412,.T.);
#437 = ( GEOMETRIC_REPRESENTATION_CONTEXT(3) 
GLOBAL_UNCERTAINTY_ASSIGNED_CONTEXT((#441)) GLOBAL_UNIT_ASSIGNED_CONTEXT
((#438,#439,#440)) REPRESENTATION_CONTEXT('Context #1',
  '3D Context with UNIT and UNCERTAINTY') );
#438 = ( LENGTH_UNIT() NAMED_UNIT(*) SI_UNIT(.MILLI.,.METRE.) );
#439 = ( NAMED_UNIT(*) PLANE_ANGLE_UNIT() SI_UNIT($,.RADIAN.) );
#440 = ( NAMED_UNIT(*) SI_UNIT($,.STERADIAN.) SOLID_ANGLE_UNIT() );
#441 = UNCERTAINTY_MEASURE_WITH_UNIT(LENGTH_MEASURE(5.E-06),#438,
  'distance_accuracy_value','confusion accuracy');
#442 = PRODUCT_RELATED_PRODUCT_CATEGORY('part',$,(#7));
ENDSEC;
END-ISO-10303-21;
