ISO-10303-21;
HEADER;
FILE_DESCRIPTION(('Open CASCADE Model'),'2;1');
FILE_NAME('Open CASCADE Shape Model','2026-10-02T01:30:24',('Author'),(
    'Open CASCADE'),'Open CASCADE STEP processor 7.9','Open CASCADE 7.9'
  ,'Unknown');
FILE_SCHEMA(('AUTOMOTIVE_DESIGN { 1 0 10303 214 1 1 1 1 }'));
ENDSEC;
DATA;
#1 = APPLICATION_PROTOCOL_DEFINITION('international standard',
  'automotive_design',2000,#2);
#2 = APPLICATION_CONTEXT(
  'core data for automotive mechanical design processes');
#3 = SHAPE_DEFINITION_REPRESENTATION(#4,#10);
#4 = PRODUCT_DEFINITION_SHAPE('','',#5);
#5 = PRODUCT_DEFINITION('design','',#6,#9);
#6 = PRODUCT_DEFINITION_FORMATION('','',#7);
#7 = PRODUCT('Open CASCADE STEP translator 7.9 1',
  'Open CASCADE STEP translator 7.9 1','',(#8));
#8 = PRODUCT_CONTEXT('',#2,'mechanical');
#9 = PRODUCT_DEFINITION_CONTEXT('part definition',#2,'design');
#10 = ADVANCED_BREP_SHAPE_REPRESENTATION('',(#11,#15),#947);
#11 = AXIS2_PLACEMENT_3D('',#12,#13,#14);
#12 = CARTESIAN_POINT('',(0.,0.,0.));
#13 = DIRECTION('',(0.,0.,1.));
#14 = DIRECTION('',(1.,0.,-0.));
#15 = MANIFOLD_SOLID_BREP('',#16);
#16 = CLOSED_SHELL('',(#17,#779,#832,#885,#912,#939,#943));
#17 = ADVANCED_FACE('',(#18,#105,#276,#442,#613),#32,.T.);
#18 = FACE_BOUND('',#19,.T.);
#19 = EDGE_LOOP('',(#20,#50,#77,#78));
#20 = ORIENTED_EDGE('',*,*,#21,.F.);
#21 = EDGE_CURVE('',#22,#24,#26,.T.);
#22 = VERTEX_POINT('',#23);
#23 = CARTESIAN_POINT('',(12.505,112.525,0.));
#24 = VERTEX_POINT('',#25);
#25 = CARTESIAN_POINT('',(12.505,-112.525,0.));
#26 = SEAM_CURVE('',#27,(#31,#43),.PCURVE_S1.);
#27 = LINE('',#28,#29);
#28 = CARTESIAN_POINT('',(12.505,113.665,-3.062841644668E-15));
#29 = VECTOR('',#30,1.);
#30 = DIRECTION('',(0.,-1.,0.));
#31 = PCURVE('',#32,#37);
#32 = CYLINDRICAL_SURFACE('',#33,12.505);
#33 = AXIS2_PLACEMENT_3D('',#34,#35,#36);
#34 = CARTESIAN_POINT('',(0.,113.665,0.));
#35 = DIRECTION('',(0.,-1.,0.));
#36 = DIRECTION('',(1.,0.,0.));
#37 = DEFINITIONAL_REPRESENTATION('',(#38),#42);
#38 = LINE('',#39,#40);
#39 = CARTESIAN_POINT('',(0.,-0.));
#40 = VECTOR('',#41,1.);
#41 = DIRECTION('',(0.,1.));
#42 = ( GEOMETRIC_REPRESENTATION_CONTEXT(2) 
PARAMETRIC_REPRESENTATION_CONTEXT() REPRESENTATION_CONTEXT('2D SPACE',''
  ) );
#43 = PCURVE('',#32,#44);
#44 = DEFINITIONAL_REPRESENTATION('',(#45),#49);
#45 = LINE('',#46,#47);
#46 = CARTESIAN_POINT('',(6.28318530718,-0.));
#47 = VECTOR('',#48,1.);
#48 = DIRECTION('',(0.,1.));
#49 = ( GEOMETRIC_REPRESENTATION_CONTEXT(2) 
PARAMETRIC_REPRESENTATION_CONTEXT() REPRESENTATION_CONTEXT('2D SPACE',''
  ) );
#50 = ORIENTED_EDGE('',*,*,#51,.T.);
#51 = EDGE_CURVE('',#22,#22,#52,.T.);
#52 = SURFACE_CURVE('',#53,(#58,#65),.PCURVE_S1.);
#53 = CIRCLE('',#54,12.505);
#54 = AXIS2_PLACEMENT_3D('',#55,#56,#57);
#55 = CARTESIAN_POINT('',(0.,112.525,0.));
#56 = DIRECTION('',(0.,-1.,0.));
#57 = DIRECTION('',(1.,0.,0.));
#58 = PCURVE('',#32,#59);
#59 = DEFINITIONAL_REPRESENTATION('',(#60),#64);
#60 = LINE('',#61,#62);
#61 = CARTESIAN_POINT('',(0.,1.14));
#62 = VECTOR('',#63,1.);
#63 = DIRECTION('',(1.,0.));
#64 = ( GEOMETRIC_REPRESENTATION_CONTEXT(2) 
PARAMETRIC_REPRESENTATION_CONTEXT() REPRESENTATION_CONTEXT('2D SPACE',''
  ) );
#65 = PCURVE('',#66,#71);
#66 = CONICAL_SURFACE('',#67,12.505,0.785398163397);
#67 = AXIS2_PLACEMENT_3D('',#68,#69,#70);
#68 = CARTESIAN_POINT('',(0.,112.525,0.));
#69 = DIRECTION('',(0.,-1.,0.));
#70 = DIRECTION('',(1.,0.,0.));
#71 = DEFINITIONAL_REPRESENTATION('',(#72),#76);
#72 = LINE('',#73,#74);
#73 = CARTESIAN_POINT('',(0.,-0.));
#74 = VECTOR('',#75,1.);
#75 = DIRECTION('',(1.,-0.));
#76 = ( GEOMETRIC_REPRESENTATION_CONTEXT(2) 
PARAMETRIC_REPRESENTATION_CONTEXT() REPRESENTATION_CONTEXT('2D SPACE',''
  ) );
#77 = ORIENTED_EDGE('',*,*,#21,.T.);
#78 = ORIENTED_EDGE('',*,*,#79,.F.);
#79 = EDGE_CURVE('',#24,#24,#80,.T.);
#80 = SURFACE_CURVE('',#81,(#86,#93),.PCURVE_S1.);
#81 = CIRCLE('',#82,12.505);
#82 = AXIS2_PLACEMENT_3D('',#83,#84,#85);
#83 = CARTESIAN_POINT('',(0.,-112.525,0.));
#84 = DIRECTION('',(0.,-1.,0.));
#85 = DIRECTION('',(1.,0.,0.));
#86 = PCURVE('',#32,#87);
#87 = DEFINITIONAL_REPRESENTATION('',(#88),#92);
#88 = LINE('',#89,#90);
#89 = CARTESIAN_POINT('',(0.,226.19));
#90 = VECTOR('',#91,1.);
#91 = DIRECTION('',(1.,0.));
#92 = ( GEOMETRIC_REPRESENTATION_CONTEXT(2) 
PARAMETRIC_REPRESENTATION_CONTEXT() REPRESENTATION_CONTEXT('2D SPACE',''
  ) );
#93 = PCURVE('',#94,#99);
#94 = CONICAL_SURFACE('',#95,12.505,0.785398163397);
#95 = AXIS2_PLACEMENT_3D('',#96,#97,#98);
#96 = CARTESIAN_POINT('',(0.,-112.525,0.));
#97 = DIRECTION('',(-0.,1.,-0.));
#98 = DIRECTION('',(1.,0.,0.));
#99 = DEFINITIONAL_REPRESENTATION('',(#100),#104);
#100 = LINE('',#101,#102);
#101 = CARTESIAN_POINT('',(-0.,-0.));
#102 = VECTOR('',#103,1.);
#103 = DIRECTION('',(-1.,-0.));
#104 = ( GEOMETRIC_REPRESENTATION_CONTEXT(2) 
PARAMETRIC_REPRESENTATION_CONTEXT() REPRESENTATION_CONTEXT('2D SPACE',''
  ) );
#105 = FACE_BOUND('',#106,.T.);
#106 = EDGE_LOOP('',(#107));
#107 = ORIENTED_EDGE('',*,*,#108,.T.);
#108 = EDGE_CURVE('',#109,#109,#111,.T.);
#109 = VERTEX_POINT('',#110);
#110 = CARTESIAN_POINT('',(2.84,93.665,12.178235709658));
#111 = SURFACE_CURVE('',#112,(#163,#217),.PCURVE_S1.);
#112 = B_SPLINE_CURVE_WITH_KNOTS('',7,(#113,#114,#115,#116,#117,#118,
    #119,#120,#121,#122,#123,#124,#125,#126,#127,#128,#129,#130,#131,
    #132,#133,#134,#135,#136,#137,#138,#139,#140,#141,#142,#143,#144,
    #145,#146,#147,#148,#149,#150,#151,#152,#153,#154,#155,#156,#157,
    #158,#159,#160,#161,#162),.UNSPECIFIED.,.T.,.F.,(8,6,6,6,6,6,6,6,8),
  (0.,0.138054959338,0.249999999994,0.361945040655,0.499999999992,
    0.638054959328,0.749999999998,0.861945040661,1.),.UNSPECIFIED.);
#113 = CARTESIAN_POINT('',(2.84,93.665,12.178235709658));
#114 = CARTESIAN_POINT('',(2.84,93.35910611042,12.178235709658));
#115 = CARTESIAN_POINT('',(2.801562563924,93.053734248545,
    12.187199342908));
#116 = CARTESIAN_POINT('',(2.724913878799,92.751691696478,
    12.205074503922));
#117 = CARTESIAN_POINT('',(2.609163518912,92.456087049711,
    12.231260769839));
#118 = CARTESIAN_POINT('',(2.452608427778,92.170882500527,
    12.264574696888));
#119 = CARTESIAN_POINT('',(2.253006148065,91.901639630925,
    12.302866057466));
#120 = CARTESIAN_POINT('',(1.809662984837,91.458296467697,
    12.374998927231));
#121 = CARTESIAN_POINT('',(1.57631943494,91.270743049824,12.409140286512
    ));
#122 = CARTESIAN_POINT('',(1.309118683431,91.105036819195,
    12.442596010686));
#123 = CARTESIAN_POINT('',(1.011581851235,90.97055116242,12.471946035859
    ));
#124 = CARTESIAN_POINT('',(0.689260283975,90.875108035102,
    12.493619534237));
#125 = CARTESIAN_POINT('',(0.349254337804,90.825,12.505));
#126 = CARTESIAN_POINT('',(-0.34925433782,90.825,12.505));
#127 = CARTESIAN_POINT('',(-0.689260283959,90.875108035106,
    12.493619534236));
#128 = CARTESIAN_POINT('',(-1.011581851223,90.97055116241,
    12.471946035862));
#129 = CARTESIAN_POINT('',(-1.309118683444,91.105036819195,
    12.442596010685));
#130 = CARTESIAN_POINT('',(-1.576319434952,91.27074304984,
    12.409140286509));
#131 = CARTESIAN_POINT('',(-1.809662984825,91.458296467686,
    12.374998927232));
#132 = CARTESIAN_POINT('',(-2.253006148065,91.901639630925,
    12.302866057466));
#133 = CARTESIAN_POINT('',(-2.452608427778,92.170882500528,
    12.264574696888));
#134 = CARTESIAN_POINT('',(-2.609163518912,92.45608704971,
    12.231260769839));
#135 = CARTESIAN_POINT('',(-2.724913878799,92.751691696478,
    12.205074503922));
#136 = CARTESIAN_POINT('',(-2.801562563924,93.053734248545,
    12.187199342908));
#137 = CARTESIAN_POINT('',(-2.84,93.35910611042,12.178235709658));
#138 = CARTESIAN_POINT('',(-2.84,93.970893889579,12.178235709658));
#139 = CARTESIAN_POINT('',(-2.801562563924,94.276265751456,
    12.187199342908));
#140 = CARTESIAN_POINT('',(-2.724913878799,94.578308303521,
    12.205074503922));
#141 = CARTESIAN_POINT('',(-2.609163518911,94.873912950291,
    12.231260769839));
#142 = CARTESIAN_POINT('',(-2.452608427779,95.159117499472,
    12.264574696888));
#143 = CARTESIAN_POINT('',(-2.253006148065,95.428360369075,
    12.302866057466));
#144 = CARTESIAN_POINT('',(-1.80966298481,95.87170353233,12.374998927235
    ));
#145 = CARTESIAN_POINT('',(-1.576319434967,96.059256950138,
    12.409140286506));
#146 = CARTESIAN_POINT('',(-1.309118683461,96.224963180806,
    12.442596010683));
#147 = CARTESIAN_POINT('',(-1.011581851208,96.359448837604,
    12.471946035866));
#148 = CARTESIAN_POINT('',(-0.689260283937,96.454891964888,
    12.493619534234));
#149 = CARTESIAN_POINT('',(-0.349254337842,96.505,12.505));
#150 = CARTESIAN_POINT('',(0.349254337819,96.505,12.505));
#151 = CARTESIAN_POINT('',(0.68926028396,96.454891964895,12.493619534236
    ));
#152 = CARTESIAN_POINT('',(1.011581851225,96.359448837589,
    12.471946035862));
#153 = CARTESIAN_POINT('',(1.309118683442,96.224963180806,
    12.442596010685));
#154 = CARTESIAN_POINT('',(1.576319434951,96.059256950161,12.40914028651
    ));
#155 = CARTESIAN_POINT('',(1.809662984826,95.871703532314,
    12.374998927232));
#156 = CARTESIAN_POINT('',(2.253006148065,95.428360369075,
    12.302866057466));
#157 = CARTESIAN_POINT('',(2.452608427778,95.159117499473,
    12.264574696888));
#158 = CARTESIAN_POINT('',(2.609163518912,94.87391295029,12.231260769839
    ));
#159 = CARTESIAN_POINT('',(2.724913878798,94.578308303522,
    12.205074503922));
#160 = CARTESIAN_POINT('',(2.801562563924,94.276265751455,
    12.187199342908));
#161 = CARTESIAN_POINT('',(2.84,93.970893889579,12.178235709658));
#162 = CARTESIAN_POINT('',(2.84,93.665,12.178235709658));
#163 = PCURVE('',#32,#164);
#164 = DEFINITIONAL_REPRESENTATION('',(#165),#216);
#165 = B_SPLINE_CURVE_WITH_KNOTS('',7,(#166,#167,#168,#169,#170,#171,
    #172,#173,#174,#175,#176,#177,#178,#179,#180,#181,#182,#183,#184,
    #185,#186,#187,#188,#189,#190,#191,#192,#193,#194,#195,#196,#197,
    #198,#199,#200,#201,#202,#203,#204,#205,#206,#207,#208,#209,#210,
    #211,#212,#213,#214,#215),.UNSPECIFIED.,.T.,.F.,(8,6,6,6,6,6,6,6,8),
  (0.,0.138054959338,0.249999999994,0.361945040655,0.499999999992,
    0.638054959328,0.749999999998,0.861945040661,1.),.UNSPECIFIED.);
#166 = CARTESIAN_POINT('',(1.341688086713,20.));
#167 = CARTESIAN_POINT('',(1.341688086713,20.30589388958));
#168 = CARTESIAN_POINT('',(1.34484432211,20.611265751455));
#169 = CARTESIAN_POINT('',(1.35113825628,20.913308303522));
#170 = CARTESIAN_POINT('',(1.36062822728,21.20891295029));
#171 = CARTESIAN_POINT('',(1.373425698148,21.494117499473));
#172 = CARTESIAN_POINT('',(1.38967207306,21.763360369075));
#173 = CARTESIAN_POINT('',(1.425591538804,22.206703532303));
#174 = CARTESIAN_POINT('',(1.444447796634,22.394256950176));
#175 = CARTESIAN_POINT('',(1.465974542527,22.559963180805));
#176 = CARTESIAN_POINT('',(1.48986667573,22.69444883758));
#177 = CARTESIAN_POINT('',(1.515677524202,22.789891964898));
#178 = CARTESIAN_POINT('',(1.542867151441,22.84));
#179 = CARTESIAN_POINT('',(1.59872550215,22.84));
#180 = CARTESIAN_POINT('',(1.625915129387,22.789891964894));
#181 = CARTESIAN_POINT('',(1.651725977859,22.69444883759));
#182 = CARTESIAN_POINT('',(1.675618111063,22.559963180805));
#183 = CARTESIAN_POINT('',(1.697144856956,22.39425695016));
#184 = CARTESIAN_POINT('',(1.716001114785,22.206703532314));
#185 = CARTESIAN_POINT('',(1.75192058053,21.763360369075));
#186 = CARTESIAN_POINT('',(1.768166955442,21.494117499473));
#187 = CARTESIAN_POINT('',(1.78096442631,21.20891295029));
#188 = CARTESIAN_POINT('',(1.790454397309,20.913308303522));
#189 = CARTESIAN_POINT('',(1.79674833148,20.611265751455));
#190 = CARTESIAN_POINT('',(1.799904566877,20.30589388958));
#191 = CARTESIAN_POINT('',(1.799904566877,19.694106110421));
#192 = CARTESIAN_POINT('',(1.79674833148,19.388734248544));
#193 = CARTESIAN_POINT('',(1.790454397309,19.086691696479));
#194 = CARTESIAN_POINT('',(1.78096442631,18.791087049709));
#195 = CARTESIAN_POINT('',(1.768166955442,18.505882500528));
#196 = CARTESIAN_POINT('',(1.75192058053,18.236639630925));
#197 = CARTESIAN_POINT('',(1.716001114784,17.79329646767));
#198 = CARTESIAN_POINT('',(1.697144856958,17.605743049863));
#199 = CARTESIAN_POINT('',(1.675618111065,17.440036819194));
#200 = CARTESIAN_POINT('',(1.651725977858,17.305551162396));
#201 = CARTESIAN_POINT('',(1.625915129385,17.210108035112));
#202 = CARTESIAN_POINT('',(1.598725502152,17.16));
#203 = CARTESIAN_POINT('',(1.542867151439,17.16));
#204 = CARTESIAN_POINT('',(1.515677524203,17.210108035106));
#205 = CARTESIAN_POINT('',(1.489866675731,17.305551162411));
#206 = CARTESIAN_POINT('',(1.465974542527,17.440036819194));
#207 = CARTESIAN_POINT('',(1.444447796634,17.605743049839));
#208 = CARTESIAN_POINT('',(1.425591538805,17.793296467686));
#209 = CARTESIAN_POINT('',(1.38967207306,18.236639630925));
#210 = CARTESIAN_POINT('',(1.373425698148,18.505882500527));
#211 = CARTESIAN_POINT('',(1.36062822728,18.79108704971));
#212 = CARTESIAN_POINT('',(1.35113825628,19.086691696478));
#213 = CARTESIAN_POINT('',(1.34484432211,19.388734248545));
#214 = CARTESIAN_POINT('',(1.341688086713,19.694106110421));
#215 = CARTESIAN_POINT('',(1.341688086713,20.));
#216 = ( GEOMETRIC_REPRESENTATION_CONTEXT(2) 
PARAMETRIC_REPRESENTATION_CONTEXT() REPRESENTATION_CONTEXT('2D SPACE',''
  ) );
#217 = PCURVE('',#218,#223);
#218 = CYLINDRICAL_SURFACE('',#219,2.84);
#219 = AXIS2_PLACEMENT_3D('',#220,#221,#222);
#220 = CARTESIAN_POINT('',(0.,93.665,18.7575));
#221 = DIRECTION('',(0.,-1.110223024625E-16,-1.));
#222 = DIRECTION('',(1.,0.,0.));
#223 = DEFINITIONAL_REPRESENTATION('',(#224),#275);
#224 = B_SPLINE_CURVE_WITH_KNOTS('',7,(#225,#226,#227,#228,#229,#230,
    #231,#232,#233,#234,#235,#236,#237,#238,#239,#240,#241,#242,#243,
    #244,#245,#246,#247,#248,#249,#250,#251,#252,#253,#254,#255,#256,
    #257,#258,#259,#260,#261,#262,#263,#264,#265,#266,#267,#268,#269,
    #270,#271,#272,#273,#274),.UNSPECIFIED.,.F.,.F.,(8,6,6,6,6,6,6,6,8),
  (0.,0.138054959338,0.249999999994,0.361945040655,0.499999999992,
    0.638054959328,0.749999999998,0.861945040661,1.),.UNSPECIFIED.);
#225 = CARTESIAN_POINT('',(0.,6.579264290342));
#226 = CARTESIAN_POINT('',(0.107709116049,6.579264290342));
#227 = CARTESIAN_POINT('',(0.215234039367,6.570300657092));
#228 = CARTESIAN_POINT('',(0.323629737107,6.552425496078));
#229 = CARTESIAN_POINT('',(0.433804073286,6.526239230161));
#230 = CARTESIAN_POINT('',(0.546751614074,6.492925303112));
#231 = CARTESIAN_POINT('',(0.66348553991,6.454633942534));
#232 = CARTESIAN_POINT('',(0.884253819566,6.382501072769));
#233 = CARTESIAN_POINT('',(0.989049356079,6.348359713488));
#234 = CARTESIAN_POINT('',(1.098412396572,6.314903989314));
#235 = CARTESIAN_POINT('',(1.211567475911,6.285553964141));
#236 = CARTESIAN_POINT('',(1.328099156814,6.263880465763));
#237 = CARTESIAN_POINT('',(1.447819447286,6.2525));
#238 = CARTESIAN_POINT('',(1.693773206309,6.2525));
#239 = CARTESIAN_POINT('',(1.81349349677,6.263880465764));
#240 = CARTESIAN_POINT('',(1.930025177675,6.285553964138));
#241 = CARTESIAN_POINT('',(2.04318025702,6.314903989315));
#242 = CARTESIAN_POINT('',(2.152543297518,6.348359713491));
#243 = CARTESIAN_POINT('',(2.257338834018,6.382501072768));
#244 = CARTESIAN_POINT('',(2.478107113679,6.454633942534));
#245 = CARTESIAN_POINT('',(2.594841039516,6.492925303112));
#246 = CARTESIAN_POINT('',(2.707788580304,6.526239230161));
#247 = CARTESIAN_POINT('',(2.817962916483,6.552425496078));
#248 = CARTESIAN_POINT('',(2.926358614223,6.570300657092));
#249 = CARTESIAN_POINT('',(3.033883537541,6.579264290342));
#250 = CARTESIAN_POINT('',(3.249301769639,6.579264290342));
#251 = CARTESIAN_POINT('',(3.356826692957,6.570300657092));
#252 = CARTESIAN_POINT('',(3.465222390696,6.552425496078));
#253 = CARTESIAN_POINT('',(3.575396726877,6.526239230161));
#254 = CARTESIAN_POINT('',(3.688344267663,6.492925303112));
#255 = CARTESIAN_POINT('',(3.8050781935,6.454633942534));
#256 = CARTESIAN_POINT('',(4.02584647317,6.382501072765));
#257 = CARTESIAN_POINT('',(4.130642009653,6.348359713494));
#258 = CARTESIAN_POINT('',(4.240005050156,6.314903989317));
#259 = CARTESIAN_POINT('',(4.353160129509,6.285553964134));
#260 = CARTESIAN_POINT('',(4.469691810417,6.263880465766));
#261 = CARTESIAN_POINT('',(4.589412100863,6.2525));
#262 = CARTESIAN_POINT('',(4.835365859899,6.2525));
#263 = CARTESIAN_POINT('',(4.955086150361,6.263880465764));
#264 = CARTESIAN_POINT('',(5.071617831265,6.285553964138));
#265 = CARTESIAN_POINT('',(5.18477291061,6.314903989315));
#266 = CARTESIAN_POINT('',(5.294135951107,6.34835971349));
#267 = CARTESIAN_POINT('',(5.398931487608,6.382501072768));
#268 = CARTESIAN_POINT('',(5.619699767269,6.454633942534));
#269 = CARTESIAN_POINT('',(5.736433693106,6.492925303112));
#270 = CARTESIAN_POINT('',(5.849381233894,6.526239230161));
#271 = CARTESIAN_POINT('',(5.959555570072,6.552425496078));
#272 = CARTESIAN_POINT('',(6.067951267813,6.570300657092));
#273 = CARTESIAN_POINT('',(6.17547619113,6.579264290342));
#274 = CARTESIAN_POINT('',(6.28318530718,6.579264290342));
#275 = ( GEOMETRIC_REPRESENTATION_CONTEXT(2) 
PARAMETRIC_REPRESENTATION_CONTEXT() REPRESENTATION_CONTEXT('2D SPACE',''
  ) );
#276 = FACE_BOUND('',#277,.T.);
#277 = EDGE_LOOP('',(#278));
#278 = ORIENTED_EDGE('',*,*,#279,.F.);
#279 = EDGE_CURVE('',#280,#280,#282,.T.);
#280 = VERTEX_POINT('',#281);
#281 = CARTESIAN_POINT('',(2.84,93.665,-12.17823570965));
#282 = SURFACE_CURVE('',#283,(#334,#388),.PCURVE_S1.);
#283 = B_SPLINE_CURVE_WITH_KNOTS('',7,(#284,#285,#286,#287,#288,#289,
    #290,#291,#292,#293,#294,#295,#296,#297,#298,#299,#300,#301,#302,
    #303,#304,#305,#306,#307,#308,#309,#310,#311,#312,#313,#314,#315,
    #316,#317,#318,#319,#320,#321,#322,#323,#324,#325,#326,#327,#328,
    #329,#330,#331,#332,#333),.UNSPECIFIED.,.T.,.F.,(8,6,6,6,6,6,6,6,8),
  (0.,0.138054959336,0.250000000005,0.361945040665,0.500000000004,
    0.638054959343,0.750000000001,0.861945040662,1.),.UNSPECIFIED.);
#284 = CARTESIAN_POINT('',(2.84,93.665,-12.17823570965));
#285 = CARTESIAN_POINT('',(2.84,93.35910611042,-12.17823570965));
#286 = CARTESIAN_POINT('',(2.801562563924,93.053734248545,-12.1871993429
    ));
#287 = CARTESIAN_POINT('',(2.724913878799,92.751691696478,
    -12.20507450392));
#288 = CARTESIAN_POINT('',(2.609163518912,92.45608704971,-12.23126076983
    ));
#289 = CARTESIAN_POINT('',(2.452608427778,92.170882500527,
    -12.26457469688));
#290 = CARTESIAN_POINT('',(2.253006148065,91.901639630925,
    -12.30286605746));
#291 = CARTESIAN_POINT('',(1.809662984808,91.458296467669,
    -12.37499892723));
#292 = CARTESIAN_POINT('',(1.576319434968,91.270743049864,-12.4091402865
    ));
#293 = CARTESIAN_POINT('',(1.309118683462,91.105036819194,
    -12.44259601068));
#294 = CARTESIAN_POINT('',(1.011581851206,90.970551162395,
    -12.47194603586));
#295 = CARTESIAN_POINT('',(0.689260283936,90.875108035112,
    -12.49361953423));
#296 = CARTESIAN_POINT('',(0.349254337844,90.825,-12.505));
#297 = CARTESIAN_POINT('',(-0.349254337812,90.825,-12.505));
#298 = CARTESIAN_POINT('',(-0.689260283967,90.875108035104,
    -12.49361953423));
#299 = CARTESIAN_POINT('',(-1.01158185123,90.970551162416,
    -12.47194603586));
#300 = CARTESIAN_POINT('',(-1.309118683436,91.105036819195,
    -12.44259601068));
#301 = CARTESIAN_POINT('',(-1.576319434946,91.270743049832,
    -12.40914028651));
#302 = CARTESIAN_POINT('',(-1.809662984831,91.458296467692,
    -12.37499892723));
#303 = CARTESIAN_POINT('',(-2.253006148065,91.901639630925,
    -12.30286605746));
#304 = CARTESIAN_POINT('',(-2.452608427778,92.170882500527,
    -12.26457469688));
#305 = CARTESIAN_POINT('',(-2.609163518912,92.45608704971,
    -12.23126076983));
#306 = CARTESIAN_POINT('',(-2.724913878799,92.751691696478,
    -12.20507450392));
#307 = CARTESIAN_POINT('',(-2.801562563924,93.053734248545,
    -12.1871993429));
#308 = CARTESIAN_POINT('',(-2.84,93.35910611042,-12.17823570965));
#309 = CARTESIAN_POINT('',(-2.84,93.97089388958,-12.17823570965));
#310 = CARTESIAN_POINT('',(-2.801562563924,94.276265751455,
    -12.1871993429));
#311 = CARTESIAN_POINT('',(-2.724913878799,94.578308303522,
    -12.20507450392));
#312 = CARTESIAN_POINT('',(-2.609163518912,94.87391295029,
    -12.23126076983));
#313 = CARTESIAN_POINT('',(-2.452608427778,95.159117499473,
    -12.26457469688));
#314 = CARTESIAN_POINT('',(-2.253006148065,95.428360369075,
    -12.30286605746));
#315 = CARTESIAN_POINT('',(-1.809662984835,95.871703532305,
    -12.37499892723));
#316 = CARTESIAN_POINT('',(-1.576319434943,96.059256950173,
    -12.40914028651));
#317 = CARTESIAN_POINT('',(-1.309118683433,96.224963180805,
    -12.44259601068));
#318 = CARTESIAN_POINT('',(-1.011581851233,96.359448837582,
    -12.47194603586));
#319 = CARTESIAN_POINT('',(-0.689260283971,96.454891964898,
    -12.49361953423));
#320 = CARTESIAN_POINT('',(-0.349254337808,96.505,-12.505));
#321 = CARTESIAN_POINT('',(0.349254337819,96.505,-12.505));
#322 = CARTESIAN_POINT('',(0.689260283959,96.454891964894,
    -12.49361953423));
#323 = CARTESIAN_POINT('',(1.011581851226,96.359448837589,
    -12.47194603586));
#324 = CARTESIAN_POINT('',(1.309118683442,96.224963180806,
    -12.44259601068));
#325 = CARTESIAN_POINT('',(1.576319434951,96.059256950161,
    -12.40914028651));
#326 = CARTESIAN_POINT('',(1.809662984826,95.871703532313,
    -12.37499892723));
#327 = CARTESIAN_POINT('',(2.253006148065,95.428360369075,
    -12.30286605746));
#328 = CARTESIAN_POINT('',(2.452608427778,95.159117499473,
    -12.26457469688));
#329 = CARTESIAN_POINT('',(2.609163518912,94.873912950289,
    -12.23126076983));
#330 = CARTESIAN_POINT('',(2.724913878799,94.578308303523,
    -12.20507450392));
#331 = CARTESIAN_POINT('',(2.801562563924,94.276265751455,-12.1871993429
    ));
#332 = CARTESIAN_POINT('',(2.84,93.970893889579,-12.17823570965));
#333 = CARTESIAN_POINT('',(2.84,93.665,-12.17823570965));
#334 = PCURVE('',#32,#335);
#335 = DEFINITIONAL_REPRESENTATION('',(#336),#387);
#336 = B_SPLINE_CURVE_WITH_KNOTS('',7,(#337,#338,#339,#340,#341,#342,
    #343,#344,#345,#346,#347,#348,#349,#350,#351,#352,#353,#354,#355,
    #356,#357,#358,#359,#360,#361,#362,#363,#364,#365,#366,#367,#368,
    #369,#370,#371,#372,#373,#374,#375,#376,#377,#378,#379,#380,#381,
    #382,#383,#384,#385,#386),.UNSPECIFIED.,.T.,.F.,(8,6,6,6,6,6,6,6,8),
  (0.,0.138054959336,0.250000000005,0.361945040665,0.500000000004,
    0.638054959343,0.750000000001,0.861945040662,1.),.UNSPECIFIED.);
#337 = CARTESIAN_POINT('',(4.941497220466,20.));
#338 = CARTESIAN_POINT('',(4.941497220466,20.30589388958));
#339 = CARTESIAN_POINT('',(4.93834098507,20.611265751455));
#340 = CARTESIAN_POINT('',(4.932047050899,20.913308303522));
#341 = CARTESIAN_POINT('',(4.9225570799,21.20891295029));
#342 = CARTESIAN_POINT('',(4.909759609032,21.494117499473));
#343 = CARTESIAN_POINT('',(4.89351323412,21.763360369075));
#344 = CARTESIAN_POINT('',(4.857593768373,22.206703532331));
#345 = CARTESIAN_POINT('',(4.838737510547,22.394256950135));
#346 = CARTESIAN_POINT('',(4.817210764655,22.559963180806));
#347 = CARTESIAN_POINT('',(4.793318631447,22.694448837604));
#348 = CARTESIAN_POINT('',(4.767507782975,22.789891964888));
#349 = CARTESIAN_POINT('',(4.740318155742,22.84));
#350 = CARTESIAN_POINT('',(4.68445980503,22.84));
#351 = CARTESIAN_POINT('',(4.657270177792,22.789891964897));
#352 = CARTESIAN_POINT('',(4.63145932932,22.694448837584));
#353 = CARTESIAN_POINT('',(4.607567196117,22.559963180806));
#354 = CARTESIAN_POINT('',(4.586040450224,22.394256950168));
#355 = CARTESIAN_POINT('',(4.567184192394,22.206703532308));
#356 = CARTESIAN_POINT('',(4.53126472665,21.763360369075));
#357 = CARTESIAN_POINT('',(4.515018351737,21.494117499473));
#358 = CARTESIAN_POINT('',(4.50222088087,21.208912950289));
#359 = CARTESIAN_POINT('',(4.49273090987,20.913308303522));
#360 = CARTESIAN_POINT('',(4.486436975699,20.611265751455));
#361 = CARTESIAN_POINT('',(4.483280740303,20.30589388958));
#362 = CARTESIAN_POINT('',(4.483280740303,19.69410611042));
#363 = CARTESIAN_POINT('',(4.486436975699,19.388734248545));
#364 = CARTESIAN_POINT('',(4.49273090987,19.086691696478));
#365 = CARTESIAN_POINT('',(4.50222088087,18.79108704971));
#366 = CARTESIAN_POINT('',(4.515018351737,18.505882500527));
#367 = CARTESIAN_POINT('',(4.53126472665,18.236639630925));
#368 = CARTESIAN_POINT('',(4.567184192394,17.793296467695));
#369 = CARTESIAN_POINT('',(4.586040450224,17.605743049827));
#370 = CARTESIAN_POINT('',(4.607567196117,17.440036819195));
#371 = CARTESIAN_POINT('',(4.63145932932,17.305551162418));
#372 = CARTESIAN_POINT('',(4.657270177792,17.210108035102));
#373 = CARTESIAN_POINT('',(4.68445980503,17.16));
#374 = CARTESIAN_POINT('',(4.74031815574,17.16));
#375 = CARTESIAN_POINT('',(4.767507782977,17.210108035106));
#376 = CARTESIAN_POINT('',(4.793318631449,17.305551162411));
#377 = CARTESIAN_POINT('',(4.817210764653,17.440036819194));
#378 = CARTESIAN_POINT('',(4.838737510546,17.605743049839));
#379 = CARTESIAN_POINT('',(4.857593768375,17.793296467687));
#380 = CARTESIAN_POINT('',(4.89351323412,18.236639630925));
#381 = CARTESIAN_POINT('',(4.909759609032,18.505882500527));
#382 = CARTESIAN_POINT('',(4.9225570799,18.79108704971));
#383 = CARTESIAN_POINT('',(4.932047050899,19.086691696478));
#384 = CARTESIAN_POINT('',(4.93834098507,19.388734248545));
#385 = CARTESIAN_POINT('',(4.941497220466,19.694106110421));
#386 = CARTESIAN_POINT('',(4.941497220466,20.));
#387 = ( GEOMETRIC_REPRESENTATION_CONTEXT(2) 
PARAMETRIC_REPRESENTATION_CONTEXT() REPRESENTATION_CONTEXT('2D SPACE',''
  ) );
#388 = PCURVE('',#218,#389);
#389 = DEFINITIONAL_REPRESENTATION('',(#390),#441);
#390 = B_SPLINE_CURVE_WITH_KNOTS('',7,(#391,#392,#393,#394,#395,#396,
    #397,#398,#399,#400,#401,#402,#403,#404,#405,#406,#407,#408,#409,
    #410,#411,#412,#413,#414,#415,#416,#417,#418,#419,#420,#421,#422,
    #423,#424,#425,#426,#427,#428,#429,#430,#431,#432,#433,#434,#435,
    #436,#437,#438,#439,#440),.UNSPECIFIED.,.F.,.F.,(8,6,6,6,6,6,6,6,8),
  (0.,0.138054959336,0.250000000005,0.361945040665,0.500000000004,
    0.638054959343,0.750000000001,0.861945040662,1.),.UNSPECIFIED.);
#391 = CARTESIAN_POINT('',(0.,30.935735709658));
#392 = CARTESIAN_POINT('',(0.107709116049,30.935735709658));
#393 = CARTESIAN_POINT('',(0.215234039367,30.944699342908));
#394 = CARTESIAN_POINT('',(0.323629737107,30.962574503922));
#395 = CARTESIAN_POINT('',(0.433804073286,30.988760769839));
#396 = CARTESIAN_POINT('',(0.546751614074,31.022074696888));
#397 = CARTESIAN_POINT('',(0.66348553991,31.060366057466));
#398 = CARTESIAN_POINT('',(0.88425381958,31.132498927235));
#399 = CARTESIAN_POINT('',(0.989049356062,31.166640286506));
#400 = CARTESIAN_POINT('',(1.098412396566,31.200096010683));
#401 = CARTESIAN_POINT('',(1.21156747592,31.229446035866));
#402 = CARTESIAN_POINT('',(1.328099156828,31.251119534234));
#403 = CARTESIAN_POINT('',(1.447819447272,31.2625));
#404 = CARTESIAN_POINT('',(1.693773206306,31.2625));
#405 = CARTESIAN_POINT('',(1.813493496773,31.251119534237));
#406 = CARTESIAN_POINT('',(1.930025177678,31.229446035861));
#407 = CARTESIAN_POINT('',(2.043180257018,31.200096010685));
#408 = CARTESIAN_POINT('',(2.152543297514,31.166640286511));
#409 = CARTESIAN_POINT('',(2.257338834021,31.132498927231));
#410 = CARTESIAN_POINT('',(2.478107113679,31.060366057466));
#411 = CARTESIAN_POINT('',(2.594841039516,31.022074696888));
#412 = CARTESIAN_POINT('',(2.707788580304,30.988760769839));
#413 = CARTESIAN_POINT('',(2.817962916482,30.962574503922));
#414 = CARTESIAN_POINT('',(2.926358614223,30.944699342908));
#415 = CARTESIAN_POINT('',(3.033883537541,30.935735709658));
#416 = CARTESIAN_POINT('',(3.249301769639,30.935735709658));
#417 = CARTESIAN_POINT('',(3.356826692957,30.944699342908));
#418 = CARTESIAN_POINT('',(3.465222390697,30.962574503922));
#419 = CARTESIAN_POINT('',(3.575396726876,30.988760769839));
#420 = CARTESIAN_POINT('',(3.688344267664,31.022074696888));
#421 = CARTESIAN_POINT('',(3.8050781935,31.060366057466));
#422 = CARTESIAN_POINT('',(4.025846473157,31.132498927231));
#423 = CARTESIAN_POINT('',(4.130642009667,31.166640286511));
#424 = CARTESIAN_POINT('',(4.240005050162,31.200096010686));
#425 = CARTESIAN_POINT('',(4.353160129501,31.22944603586));
#426 = CARTESIAN_POINT('',(4.469691810405,31.251119534237));
#427 = CARTESIAN_POINT('',(4.589412100875,31.2625));
#428 = CARTESIAN_POINT('',(4.835365859899,31.2625));
#429 = CARTESIAN_POINT('',(4.95508615036,31.251119534236));
#430 = CARTESIAN_POINT('',(5.071617831266,31.229446035862));
#431 = CARTESIAN_POINT('',(5.184772910609,31.200096010685));
#432 = CARTESIAN_POINT('',(5.294135951107,31.16664028651));
#433 = CARTESIAN_POINT('',(5.398931487608,31.132498927232));
#434 = CARTESIAN_POINT('',(5.619699767269,31.060366057466));
#435 = CARTESIAN_POINT('',(5.736433693106,31.022074696888));
#436 = CARTESIAN_POINT('',(5.849381233894,30.988760769839));
#437 = CARTESIAN_POINT('',(5.959555570072,30.962574503922));
#438 = CARTESIAN_POINT('',(6.067951267813,30.944699342908));
#439 = CARTESIAN_POINT('',(6.17547619113,30.935735709658));
#440 = CARTESIAN_POINT('',(6.28318530718,30.935735709658));
#441 = ( GEOMETRIC_REPRESENTATION_CONTEXT(2) 
PARAMETRIC_REPRESENTATION_CONTEXT() REPRESENTATION_CONTEXT('2D SPACE',''
  ) );
#442 = FACE_BOUND('',#443,.T.);
#443 = EDGE_LOOP('',(#444));
#444 = ORIENTED_EDGE('',*,*,#445,.T.);
#445 = EDGE_CURVE('',#446,#446,#448,.T.);
#446 = VERTEX_POINT('',#447);
#447 = CARTESIAN_POINT('',(2.84,-93.665,12.178235709658));
#448 = SURFACE_CURVE('',#449,(#500,#554),.PCURVE_S1.);
#449 = B_SPLINE_CURVE_WITH_KNOTS('',7,(#450,#451,#452,#453,#454,#455,
    #456,#457,#458,#459,#460,#461,#462,#463,#464,#465,#466,#467,#468,
    #469,#470,#471,#472,#473,#474,#475,#476,#477,#478,#479,#480,#481,
    #482,#483,#484,#485,#486,#487,#488,#489,#490,#491,#492,#493,#494,
    #495,#496,#497,#498,#499),.UNSPECIFIED.,.T.,.F.,(8,6,6,6,6,6,6,6,8),
  (0.,0.138054959338,0.25,0.361945040662,0.5,0.638054959338,0.75,
    0.861945040662,1.),.UNSPECIFIED.);
#450 = CARTESIAN_POINT('',(2.84,-93.665,12.178235709658));
#451 = CARTESIAN_POINT('',(2.84,-93.97089388958,12.178235709658));
#452 = CARTESIAN_POINT('',(2.801562563924,-94.27626575145,
    12.187199342908));
#453 = CARTESIAN_POINT('',(2.724913878799,-94.57830830352,
    12.205074503922));
#454 = CARTESIAN_POINT('',(2.609163518912,-94.87391295029,
    12.231260769839));
#455 = CARTESIAN_POINT('',(2.452608427778,-95.15911749947,
    12.264574696888));
#456 = CARTESIAN_POINT('',(2.253006148065,-95.42836036907,
    12.302866057466));
#457 = CARTESIAN_POINT('',(1.809662984826,-95.87170353231,
    12.374998927232));
#458 = CARTESIAN_POINT('',(1.576319434951,-96.05925695016,12.40914028651
    ));
#459 = CARTESIAN_POINT('',(1.309118683442,-96.2249631808,12.442596010685
    ));
#460 = CARTESIAN_POINT('',(1.011581851225,-96.35944883758,
    12.471946035862));
#461 = CARTESIAN_POINT('',(0.68926028396,-96.45489196489,12.493619534236
    ));
#462 = CARTESIAN_POINT('',(0.349254337819,-96.505,12.505));
#463 = CARTESIAN_POINT('',(-0.349254337819,-96.505,12.505));
#464 = CARTESIAN_POINT('',(-0.68926028396,-96.45489196489,
    12.493619534236));
#465 = CARTESIAN_POINT('',(-1.011581851224,-96.35944883758,
    12.471946035862));
#466 = CARTESIAN_POINT('',(-1.309118683443,-96.2249631808,
    12.442596010685));
#467 = CARTESIAN_POINT('',(-1.576319434951,-96.05925695016,
    12.40914028651));
#468 = CARTESIAN_POINT('',(-1.809662984826,-95.87170353231,
    12.374998927232));
#469 = CARTESIAN_POINT('',(-2.253006148065,-95.42836036907,
    12.302866057466));
#470 = CARTESIAN_POINT('',(-2.452608427778,-95.15911749947,
    12.264574696888));
#471 = CARTESIAN_POINT('',(-2.609163518912,-94.87391295029,
    12.231260769839));
#472 = CARTESIAN_POINT('',(-2.724913878799,-94.57830830352,
    12.205074503922));
#473 = CARTESIAN_POINT('',(-2.801562563924,-94.27626575145,
    12.187199342908));
#474 = CARTESIAN_POINT('',(-2.84,-93.97089388957,12.178235709658));
#475 = CARTESIAN_POINT('',(-2.84,-93.35910611042,12.178235709658));
#476 = CARTESIAN_POINT('',(-2.801562563924,-93.05373424854,
    12.187199342908));
#477 = CARTESIAN_POINT('',(-2.724913878799,-92.75169169647,
    12.205074503922));
#478 = CARTESIAN_POINT('',(-2.609163518912,-92.45608704971,
    12.231260769839));
#479 = CARTESIAN_POINT('',(-2.452608427778,-92.17088250052,
    12.264574696888));
#480 = CARTESIAN_POINT('',(-2.253006148065,-91.90163963092,
    12.302866057466));
#481 = CARTESIAN_POINT('',(-1.809662984826,-91.45829646768,
    12.374998927232));
#482 = CARTESIAN_POINT('',(-1.576319434951,-91.27074304983,
    12.40914028651));
#483 = CARTESIAN_POINT('',(-1.309118683442,-91.10503681919,
    12.442596010685));
#484 = CARTESIAN_POINT('',(-1.011581851225,-90.97055116241,
    12.471946035862));
#485 = CARTESIAN_POINT('',(-0.68926028396,-90.8751080351,12.493619534236
    ));
#486 = CARTESIAN_POINT('',(-0.349254337819,-90.825,12.505));
#487 = CARTESIAN_POINT('',(0.349254337819,-90.825,12.505));
#488 = CARTESIAN_POINT('',(0.68926028396,-90.8751080351,12.493619534236)
  );
#489 = CARTESIAN_POINT('',(1.011581851225,-90.97055116241,
    12.471946035862));
#490 = CARTESIAN_POINT('',(1.309118683442,-91.10503681919,
    12.442596010685));
#491 = CARTESIAN_POINT('',(1.576319434951,-91.27074304983,12.40914028651
    ));
#492 = CARTESIAN_POINT('',(1.809662984826,-91.45829646768,
    12.374998927232));
#493 = CARTESIAN_POINT('',(2.253006148065,-91.90163963092,
    12.302866057466));
#494 = CARTESIAN_POINT('',(2.452608427778,-92.17088250052,
    12.264574696888));
#495 = CARTESIAN_POINT('',(2.609163518912,-92.45608704971,
    12.231260769839));
#496 = CARTESIAN_POINT('',(2.724913878799,-92.75169169647,
    12.205074503922));
#497 = CARTESIAN_POINT('',(2.801562563924,-93.05373424854,
    12.187199342908));
#498 = CARTESIAN_POINT('',(2.84,-93.35910611042,12.178235709658));
#499 = CARTESIAN_POINT('',(2.84,-93.665,12.178235709658));
#500 = PCURVE('',#32,#501);
#501 = DEFINITIONAL_REPRESENTATION('',(#502),#553);
#502 = B_SPLINE_CURVE_WITH_KNOTS('',7,(#503,#504,#505,#506,#507,#508,
    #509,#510,#511,#512,#513,#514,#515,#516,#517,#518,#519,#520,#521,
    #522,#523,#524,#525,#526,#527,#528,#529,#530,#531,#532,#533,#534,
    #535,#536,#537,#538,#539,#540,#541,#542,#543,#544,#545,#546,#547,
    #548,#549,#550,#551,#552),.UNSPECIFIED.,.T.,.F.,(8,6,6,6,6,6,6,6,8),
  (0.,0.138054959338,0.25,0.361945040662,0.5,0.638054959338,0.75,
    0.861945040662,1.),.UNSPECIFIED.);
#503 = CARTESIAN_POINT('',(1.341688086713,207.33));
#504 = CARTESIAN_POINT('',(1.341688086713,207.63589388958));
#505 = CARTESIAN_POINT('',(1.34484432211,207.94126575145));
#506 = CARTESIAN_POINT('',(1.35113825628,208.24330830352));
#507 = CARTESIAN_POINT('',(1.36062822728,208.53891295029));
#508 = CARTESIAN_POINT('',(1.373425698147,208.82411749947));
#509 = CARTESIAN_POINT('',(1.38967207306,209.09336036907));
#510 = CARTESIAN_POINT('',(1.425591538805,209.53670353231));
#511 = CARTESIAN_POINT('',(1.444447796634,209.72425695016));
#512 = CARTESIAN_POINT('',(1.465974542527,209.8899631808));
#513 = CARTESIAN_POINT('',(1.489866675731,210.02444883758));
#514 = CARTESIAN_POINT('',(1.515677524203,210.11989196489));
#515 = CARTESIAN_POINT('',(1.54286715144,210.17));
#516 = CARTESIAN_POINT('',(1.59872550215,210.17));
#517 = CARTESIAN_POINT('',(1.625915129387,210.11989196489));
#518 = CARTESIAN_POINT('',(1.651725977859,210.02444883759));
#519 = CARTESIAN_POINT('',(1.675618111063,209.8899631808));
#520 = CARTESIAN_POINT('',(1.697144856956,209.72425695016));
#521 = CARTESIAN_POINT('',(1.716001114785,209.53670353231));
#522 = CARTESIAN_POINT('',(1.75192058053,209.09336036907));
#523 = CARTESIAN_POINT('',(1.768166955442,208.82411749947));
#524 = CARTESIAN_POINT('',(1.78096442631,208.53891295029));
#525 = CARTESIAN_POINT('',(1.790454397309,208.24330830352));
#526 = CARTESIAN_POINT('',(1.79674833148,207.94126575145));
#527 = CARTESIAN_POINT('',(1.799904566877,207.63589388957));
#528 = CARTESIAN_POINT('',(1.799904566877,207.02410611042));
#529 = CARTESIAN_POINT('',(1.79674833148,206.71873424854));
#530 = CARTESIAN_POINT('',(1.790454397309,206.41669169647));
#531 = CARTESIAN_POINT('',(1.78096442631,206.1210870497));
#532 = CARTESIAN_POINT('',(1.768166955442,205.83588250052));
#533 = CARTESIAN_POINT('',(1.75192058053,205.56663963092));
#534 = CARTESIAN_POINT('',(1.716001114785,205.12329646768));
#535 = CARTESIAN_POINT('',(1.697144856956,204.93574304983));
#536 = CARTESIAN_POINT('',(1.675618111063,204.77003681919));
#537 = CARTESIAN_POINT('',(1.651725977859,204.63555116241));
#538 = CARTESIAN_POINT('',(1.625915129387,204.5401080351));
#539 = CARTESIAN_POINT('',(1.59872550215,204.49));
#540 = CARTESIAN_POINT('',(1.54286715144,204.49));
#541 = CARTESIAN_POINT('',(1.515677524203,204.5401080351));
#542 = CARTESIAN_POINT('',(1.489866675731,204.63555116241));
#543 = CARTESIAN_POINT('',(1.465974542527,204.77003681919));
#544 = CARTESIAN_POINT('',(1.444447796634,204.93574304983));
#545 = CARTESIAN_POINT('',(1.425591538805,205.12329646768));
#546 = CARTESIAN_POINT('',(1.38967207306,205.56663963092));
#547 = CARTESIAN_POINT('',(1.373425698147,205.83588250052));
#548 = CARTESIAN_POINT('',(1.36062822728,206.1210870497));
#549 = CARTESIAN_POINT('',(1.35113825628,206.41669169647));
#550 = CARTESIAN_POINT('',(1.34484432211,206.71873424854));
#551 = CARTESIAN_POINT('',(1.341688086713,207.02410611042));
#552 = CARTESIAN_POINT('',(1.341688086713,207.33));
#553 = ( GEOMETRIC_REPRESENTATION_CONTEXT(2) 
PARAMETRIC_REPRESENTATION_CONTEXT() REPRESENTATION_CONTEXT('2D SPACE',''
  ) );
#554 = PCURVE('',#555,#560);
#555 = CYLINDRICAL_SURFACE('',#556,2.84);
#556 = AXIS2_PLACEMENT_3D('',#557,#558,#559);
#557 = CARTESIAN_POINT('',(0.,-93.665,18.7575));
#558 = DIRECTION('',(0.,-1.110223024625E-16,-1.));
#559 = DIRECTION('',(1.,0.,0.));
#560 = DEFINITIONAL_REPRESENTATION('',(#561),#612);
#561 = B_SPLINE_CURVE_WITH_KNOTS('',7,(#562,#563,#564,#565,#566,#567,
    #568,#569,#570,#571,#572,#573,#574,#575,#576,#577,#578,#579,#580,
    #581,#582,#583,#584,#585,#586,#587,#588,#589,#590,#591,#592,#593,
    #594,#595,#596,#597,#598,#599,#600,#601,#602,#603,#604,#605,#606,
    #607,#608,#609,#610,#611),.UNSPECIFIED.,.F.,.F.,(8,6,6,6,6,6,6,6,8),
  (0.,0.138054959338,0.25,0.361945040662,0.5,0.638054959338,0.75,
    0.861945040662,1.),.UNSPECIFIED.);
#562 = CARTESIAN_POINT('',(0.,6.579264290342));
#563 = CARTESIAN_POINT('',(0.107709116049,6.579264290342));
#564 = CARTESIAN_POINT('',(0.215234039367,6.570300657092));
#565 = CARTESIAN_POINT('',(0.323629737107,6.552425496078));
#566 = CARTESIAN_POINT('',(0.433804073286,6.526239230161));
#567 = CARTESIAN_POINT('',(0.546751614074,6.492925303112));
#568 = CARTESIAN_POINT('',(0.66348553991,6.454633942534));
#569 = CARTESIAN_POINT('',(0.884253819572,6.382501072768));
#570 = CARTESIAN_POINT('',(0.989049356073,6.34835971349));
#571 = CARTESIAN_POINT('',(1.09841239657,6.314903989315));
#572 = CARTESIAN_POINT('',(1.211567475914,6.285553964138));
#573 = CARTESIAN_POINT('',(1.328099156819,6.263880465764));
#574 = CARTESIAN_POINT('',(1.447819447281,6.2525));
#575 = CARTESIAN_POINT('',(1.693773206309,6.2525));
#576 = CARTESIAN_POINT('',(1.813493496771,6.263880465764));
#577 = CARTESIAN_POINT('',(1.930025177676,6.285553964138));
#578 = CARTESIAN_POINT('',(2.04318025702,6.314903989315));
#579 = CARTESIAN_POINT('',(2.152543297517,6.34835971349));
#580 = CARTESIAN_POINT('',(2.257338834018,6.382501072768));
#581 = CARTESIAN_POINT('',(2.478107113679,6.454633942534));
#582 = CARTESIAN_POINT('',(2.594841039516,6.492925303112));
#583 = CARTESIAN_POINT('',(2.707788580304,6.526239230161));
#584 = CARTESIAN_POINT('',(2.817962916483,6.552425496078));
#585 = CARTESIAN_POINT('',(2.926358614223,6.570300657092));
#586 = CARTESIAN_POINT('',(3.033883537541,6.579264290342));
#587 = CARTESIAN_POINT('',(3.249301769639,6.579264290342));
#588 = CARTESIAN_POINT('',(3.356826692957,6.570300657092));
#589 = CARTESIAN_POINT('',(3.465222390697,6.552425496078));
#590 = CARTESIAN_POINT('',(3.575396726876,6.526239230161));
#591 = CARTESIAN_POINT('',(3.688344267664,6.492925303112));
#592 = CARTESIAN_POINT('',(3.8050781935,6.454633942534));
#593 = CARTESIAN_POINT('',(4.025846473161,6.382501072768));
#594 = CARTESIAN_POINT('',(4.130642009662,6.34835971349));
#595 = CARTESIAN_POINT('',(4.24000505016,6.314903989315));
#596 = CARTESIAN_POINT('',(4.353160129504,6.285553964138));
#597 = CARTESIAN_POINT('',(4.469691810409,6.263880465764));
#598 = CARTESIAN_POINT('',(4.589412100871,6.2525));
#599 = CARTESIAN_POINT('',(4.835365859898,6.2525));
#600 = CARTESIAN_POINT('',(4.955086150361,6.263880465764));
#601 = CARTESIAN_POINT('',(5.071617831266,6.285553964138));
#602 = CARTESIAN_POINT('',(5.184772910609,6.314903989315));
#603 = CARTESIAN_POINT('',(5.294135951107,6.34835971349));
#604 = CARTESIAN_POINT('',(5.398931487608,6.382501072768));
#605 = CARTESIAN_POINT('',(5.619699767269,6.454633942534));
#606 = CARTESIAN_POINT('',(5.736433693106,6.492925303112));
#607 = CARTESIAN_POINT('',(5.849381233893,6.526239230161));
#608 = CARTESIAN_POINT('',(5.959555570073,6.552425496078));
#609 = CARTESIAN_POINT('',(6.067951267813,6.570300657092));
#610 = CARTESIAN_POINT('',(6.175476191131,6.579264290342));
#611 = CARTESIAN_POINT('',(6.28318530718,6.579264290342));
#612 = ( GEOMETRIC_REPRESENTATION_CONTEXT(2) 
PARAMETRIC_REPRESENTATION_CONTEXT() REPRESENTATION_CONTEXT('2D SPACE',''
  ) );
#613 = FACE_BOUND('',#614,.T.);
#614 = EDGE_LOOP('',(#615));
#615 = ORIENTED_EDGE('',*,*,#616,.F.);
#616 = EDGE_CURVE('',#617,#617,#619,.T.);
#617 = VERTEX_POINT('',#618);
#618 = CARTESIAN_POINT('',(2.84,-93.665,-12.17823570965));
#619 = SURFACE_CURVE('',#620,(#671,#725),.PCURVE_S1.);
#620 = B_SPLINE_CURVE_WITH_KNOTS('',7,(#621,#622,#623,#624,#625,#626,
    #627,#628,#629,#630,#631,#632,#633,#634,#635,#636,#637,#638,#639,
    #640,#641,#642,#643,#644,#645,#646,#647,#648,#649,#650,#651,#652,
    #653,#654,#655,#656,#657,#658,#659,#660,#661,#662,#663,#664,#665,
    #666,#667,#668,#669,#670),.UNSPECIFIED.,.T.,.F.,(8,6,6,6,6,6,6,6,8),
  (0.,0.13805495934,0.249999999996,0.361945040653,0.499999999993,
    0.638054959333,0.749999999996,0.86194504066,1.),.UNSPECIFIED.);
#621 = CARTESIAN_POINT('',(2.84,-93.665,-12.17823570965));
#622 = CARTESIAN_POINT('',(2.84,-93.97089388958,-12.17823570965));
#623 = CARTESIAN_POINT('',(2.801562563924,-94.27626575145,-12.1871993429
    ));
#624 = CARTESIAN_POINT('',(2.724913878799,-94.57830830352,
    -12.20507450392));
#625 = CARTESIAN_POINT('',(2.609163518912,-94.87391295028,
    -12.23126076983));
#626 = CARTESIAN_POINT('',(2.452608427778,-95.15911749947,
    -12.26457469688));
#627 = CARTESIAN_POINT('',(2.253006148065,-95.42836036907,
    -12.30286605746));
#628 = CARTESIAN_POINT('',(1.809662984838,-95.8717035323,-12.37499892723
    ));
#629 = CARTESIAN_POINT('',(1.576319434939,-96.05925695017,
    -12.40914028651));
#630 = CARTESIAN_POINT('',(1.309118683431,-96.2249631808,-12.44259601068
    ));
#631 = CARTESIAN_POINT('',(1.011581851235,-96.35944883757,
    -12.47194603585));
#632 = CARTESIAN_POINT('',(0.689260283977,-96.45489196489,
    -12.49361953423));
#633 = CARTESIAN_POINT('',(0.349254337802,-96.505,-12.505));
#634 = CARTESIAN_POINT('',(-0.349254337801,-96.505,-12.505));
#635 = CARTESIAN_POINT('',(-0.689260283978,-96.45489196489,
    -12.49361953423));
#636 = CARTESIAN_POINT('',(-1.011581851238,-96.35944883757,
    -12.47194603585));
#637 = CARTESIAN_POINT('',(-1.309118683428,-96.2249631808,
    -12.44259601068));
#638 = CARTESIAN_POINT('',(-1.576319434938,-96.05925695017,
    -12.40914028651));
#639 = CARTESIAN_POINT('',(-1.809662984839,-95.8717035323,
    -12.37499892723));
#640 = CARTESIAN_POINT('',(-2.253006148065,-95.42836036907,
    -12.30286605746));
#641 = CARTESIAN_POINT('',(-2.452608427778,-95.15911749947,
    -12.26457469688));
#642 = CARTESIAN_POINT('',(-2.609163518911,-94.87391295029,
    -12.23126076983));
#643 = CARTESIAN_POINT('',(-2.724913878799,-94.57830830352,
    -12.20507450392));
#644 = CARTESIAN_POINT('',(-2.801562563924,-94.27626575145,
    -12.1871993429));
#645 = CARTESIAN_POINT('',(-2.84,-93.97089388957,-12.17823570965));
#646 = CARTESIAN_POINT('',(-2.84,-93.35910611042,-12.17823570965));
#647 = CARTESIAN_POINT('',(-2.801562563924,-93.05373424854,
    -12.1871993429));
#648 = CARTESIAN_POINT('',(-2.724913878799,-92.75169169647,
    -12.20507450392));
#649 = CARTESIAN_POINT('',(-2.609163518912,-92.45608704971,
    -12.23126076983));
#650 = CARTESIAN_POINT('',(-2.452608427778,-92.17088250052,
    -12.26457469688));
#651 = CARTESIAN_POINT('',(-2.253006148065,-91.90163963092,
    -12.30286605746));
#652 = CARTESIAN_POINT('',(-1.809662984826,-91.45829646768,
    -12.37499892723));
#653 = CARTESIAN_POINT('',(-1.576319434951,-91.27074304983,
    -12.40914028651));
#654 = CARTESIAN_POINT('',(-1.309118683442,-91.10503681919,
    -12.44259601068));
#655 = CARTESIAN_POINT('',(-1.011581851225,-90.97055116241,
    -12.47194603586));
#656 = CARTESIAN_POINT('',(-0.68926028396,-90.8751080351,-12.49361953423
    ));
#657 = CARTESIAN_POINT('',(-0.349254337819,-90.825,-12.505));
#658 = CARTESIAN_POINT('',(0.349254337819,-90.825,-12.505));
#659 = CARTESIAN_POINT('',(0.68926028396,-90.8751080351,-12.49361953423)
  );
#660 = CARTESIAN_POINT('',(1.011581851224,-90.97055116241,
    -12.47194603586));
#661 = CARTESIAN_POINT('',(1.309118683443,-91.10503681919,
    -12.44259601068));
#662 = CARTESIAN_POINT('',(1.576319434951,-91.27074304983,
    -12.40914028651));
#663 = CARTESIAN_POINT('',(1.809662984826,-91.45829646768,
    -12.37499892723));
#664 = CARTESIAN_POINT('',(2.253006148065,-91.90163963092,
    -12.30286605746));
#665 = CARTESIAN_POINT('',(2.452608427779,-92.17088250052,
    -12.26457469688));
#666 = CARTESIAN_POINT('',(2.609163518911,-92.4560870497,-12.23126076983
    ));
#667 = CARTESIAN_POINT('',(2.7249138788,-92.75169169647,-12.20507450392)
  );
#668 = CARTESIAN_POINT('',(2.801562563924,-93.05373424854,-12.1871993429
    ));
#669 = CARTESIAN_POINT('',(2.84,-93.35910611042,-12.17823570965));
#670 = CARTESIAN_POINT('',(2.84,-93.665,-12.17823570965));
#671 = PCURVE('',#32,#672);
#672 = DEFINITIONAL_REPRESENTATION('',(#673),#724);
#673 = B_SPLINE_CURVE_WITH_KNOTS('',7,(#674,#675,#676,#677,#678,#679,
    #680,#681,#682,#683,#684,#685,#686,#687,#688,#689,#690,#691,#692,
    #693,#694,#695,#696,#697,#698,#699,#700,#701,#702,#703,#704,#705,
    #706,#707,#708,#709,#710,#711,#712,#713,#714,#715,#716,#717,#718,
    #719,#720,#721,#722,#723),.UNSPECIFIED.,.T.,.F.,(8,6,6,6,6,6,6,6,8),
  (0.,0.13805495934,0.249999999996,0.361945040653,0.499999999993,
    0.638054959333,0.749999999996,0.86194504066,1.),.UNSPECIFIED.);
#674 = CARTESIAN_POINT('',(4.941497220466,207.33));
#675 = CARTESIAN_POINT('',(4.941497220466,207.63589388958));
#676 = CARTESIAN_POINT('',(4.93834098507,207.94126575145));
#677 = CARTESIAN_POINT('',(4.932047050899,208.24330830352));
#678 = CARTESIAN_POINT('',(4.9225570799,208.53891295028));
#679 = CARTESIAN_POINT('',(4.909759609032,208.82411749947));
#680 = CARTESIAN_POINT('',(4.89351323412,209.09336036907));
#681 = CARTESIAN_POINT('',(4.857593768376,209.5367035323));
#682 = CARTESIAN_POINT('',(4.838737510545,209.72425695017));
#683 = CARTESIAN_POINT('',(4.817210764652,209.8899631808));
#684 = CARTESIAN_POINT('',(4.79331863145,210.02444883757));
#685 = CARTESIAN_POINT('',(4.767507782978,210.11989196489));
#686 = CARTESIAN_POINT('',(4.740318155739,210.17));
#687 = CARTESIAN_POINT('',(4.684459805031,210.17));
#688 = CARTESIAN_POINT('',(4.657270177791,210.11989196489));
#689 = CARTESIAN_POINT('',(4.63145932932,210.02444883757));
#690 = CARTESIAN_POINT('',(4.607567196117,209.8899631808));
#691 = CARTESIAN_POINT('',(4.586040450224,209.72425695017));
#692 = CARTESIAN_POINT('',(4.567184192394,209.5367035323));
#693 = CARTESIAN_POINT('',(4.53126472665,209.09336036907));
#694 = CARTESIAN_POINT('',(4.515018351737,208.82411749947));
#695 = CARTESIAN_POINT('',(4.50222088087,208.53891295029));
#696 = CARTESIAN_POINT('',(4.49273090987,208.24330830352));
#697 = CARTESIAN_POINT('',(4.486436975699,207.94126575145));
#698 = CARTESIAN_POINT('',(4.483280740303,207.63589388957));
#699 = CARTESIAN_POINT('',(4.483280740303,207.02410611042));
#700 = CARTESIAN_POINT('',(4.486436975699,206.71873424854));
#701 = CARTESIAN_POINT('',(4.49273090987,206.41669169647));
#702 = CARTESIAN_POINT('',(4.50222088087,206.12108704971));
#703 = CARTESIAN_POINT('',(4.515018351737,205.83588250052));
#704 = CARTESIAN_POINT('',(4.53126472665,205.56663963092));
#705 = CARTESIAN_POINT('',(4.567184192395,205.12329646768));
#706 = CARTESIAN_POINT('',(4.586040450223,204.93574304983));
#707 = CARTESIAN_POINT('',(4.607567196116,204.77003681919));
#708 = CARTESIAN_POINT('',(4.631459329321,204.63555116241));
#709 = CARTESIAN_POINT('',(4.657270177792,204.5401080351));
#710 = CARTESIAN_POINT('',(4.684459805029,204.49));
#711 = CARTESIAN_POINT('',(4.74031815574,204.49));
#712 = CARTESIAN_POINT('',(4.767507782977,204.5401080351));
#713 = CARTESIAN_POINT('',(4.793318631449,204.63555116241));
#714 = CARTESIAN_POINT('',(4.817210764653,204.77003681919));
#715 = CARTESIAN_POINT('',(4.838737510546,204.93574304983));
#716 = CARTESIAN_POINT('',(4.857593768375,205.12329646768));
#717 = CARTESIAN_POINT('',(4.89351323412,205.56663963092));
#718 = CARTESIAN_POINT('',(4.909759609032,205.83588250052));
#719 = CARTESIAN_POINT('',(4.9225570799,206.1210870497));
#720 = CARTESIAN_POINT('',(4.932047050899,206.41669169648));
#721 = CARTESIAN_POINT('',(4.93834098507,206.71873424854));
#722 = CARTESIAN_POINT('',(4.941497220466,207.02410611042));
#723 = CARTESIAN_POINT('',(4.941497220466,207.33));
#724 = ( GEOMETRIC_REPRESENTATION_CONTEXT(2) 
PARAMETRIC_REPRESENTATION_CONTEXT() REPRESENTATION_CONTEXT('2D SPACE',''
  ) );
#725 = PCURVE('',#555,#726);
#726 = DEFINITIONAL_REPRESENTATION('',(#727),#778);
#727 = B_SPLINE_CURVE_WITH_KNOTS('',7,(#728,#729,#730,#731,#732,#733,
    #734,#735,#736,#737,#738,#739,#740,#741,#742,#743,#744,#745,#746,
    #747,#748,#749,#750,#751,#752,#753,#754,#755,#756,#757,#758,#759,
    #760,#761,#762,#763,#764,#765,#766,#767,#768,#769,#770,#771,#772,
    #773,#774,#775,#776,#777),.UNSPECIFIED.,.F.,.F.,(8,6,6,6,6,6,6,6,8),
  (0.,0.13805495934,0.249999999996,0.361945040653,0.499999999993,
    0.638054959333,0.749999999996,0.86194504066,1.),.UNSPECIFIED.);
#728 = CARTESIAN_POINT('',(0.,30.935735709658));
#729 = CARTESIAN_POINT('',(0.107709116049,30.935735709658));
#730 = CARTESIAN_POINT('',(0.215234039367,30.944699342908));
#731 = CARTESIAN_POINT('',(0.323629737108,30.962574503922));
#732 = CARTESIAN_POINT('',(0.433804073286,30.988760769839));
#733 = CARTESIAN_POINT('',(0.546751614074,31.022074696888));
#734 = CARTESIAN_POINT('',(0.66348553991,31.060366057466));
#735 = CARTESIAN_POINT('',(0.884253819565,31.13249892723));
#736 = CARTESIAN_POINT('',(0.98904935608,31.166640286512));
#737 = CARTESIAN_POINT('',(1.098412396572,31.200096010686));
#738 = CARTESIAN_POINT('',(1.211567475911,31.229446035859));
#739 = CARTESIAN_POINT('',(1.328099156813,31.251119534237));
#740 = CARTESIAN_POINT('',(1.447819447287,31.2625));
#741 = CARTESIAN_POINT('',(1.693773206302,31.2625));
#742 = CARTESIAN_POINT('',(1.813493496777,31.251119534237));
#743 = CARTESIAN_POINT('',(1.93002517768,31.229446035859));
#744 = CARTESIAN_POINT('',(2.043180257017,31.200096010686));
#745 = CARTESIAN_POINT('',(2.152543297509,31.166640286512));
#746 = CARTESIAN_POINT('',(2.257338834025,31.13249892723));
#747 = CARTESIAN_POINT('',(2.478107113679,31.060366057466));
#748 = CARTESIAN_POINT('',(2.594841039516,31.022074696888));
#749 = CARTESIAN_POINT('',(2.707788580304,30.988760769839));
#750 = CARTESIAN_POINT('',(2.817962916483,30.962574503922));
#751 = CARTESIAN_POINT('',(2.926358614223,30.944699342908));
#752 = CARTESIAN_POINT('',(3.033883537541,30.935735709658));
#753 = CARTESIAN_POINT('',(3.249301769639,30.935735709658));
#754 = CARTESIAN_POINT('',(3.356826692957,30.944699342908));
#755 = CARTESIAN_POINT('',(3.465222390697,30.962574503922));
#756 = CARTESIAN_POINT('',(3.575396726875,30.988760769839));
#757 = CARTESIAN_POINT('',(3.688344267664,31.022074696888));
#758 = CARTESIAN_POINT('',(3.8050781935,31.060366057466));
#759 = CARTESIAN_POINT('',(4.025846473161,31.132498927232));
#760 = CARTESIAN_POINT('',(4.130642009663,31.16664028651));
#761 = CARTESIAN_POINT('',(4.240005050159,31.200096010685));
#762 = CARTESIAN_POINT('',(4.353160129504,31.229446035862));
#763 = CARTESIAN_POINT('',(4.469691810409,31.251119534236));
#764 = CARTESIAN_POINT('',(4.589412100871,31.2625));
#765 = CARTESIAN_POINT('',(4.835365859898,31.2625));
#766 = CARTESIAN_POINT('',(4.955086150361,31.251119534236));
#767 = CARTESIAN_POINT('',(5.071617831265,31.229446035862));
#768 = CARTESIAN_POINT('',(5.18477291061,31.200096010685));
#769 = CARTESIAN_POINT('',(5.294135951107,31.16664028651));
#770 = CARTESIAN_POINT('',(5.398931487608,31.132498927232));
#771 = CARTESIAN_POINT('',(5.619699767269,31.060366057466));
#772 = CARTESIAN_POINT('',(5.736433693106,31.022074696888));
#773 = CARTESIAN_POINT('',(5.849381233893,30.988760769839));
#774 = CARTESIAN_POINT('',(5.959555570073,30.962574503922));
#775 = CARTESIAN_POINT('',(6.067951267812,30.944699342908));
#776 = CARTESIAN_POINT('',(6.175476191131,30.935735709658));
#777 = CARTESIAN_POINT('',(6.28318530718,30.935735709658));
#778 = ( GEOMETRIC_REPRESENTATION_CONTEXT(2) 
PARAMETRIC_REPRESENTATION_CONTEXT() REPRESENTATION_CONTEXT('2D SPACE',''
  ) );
#779 = ADVANCED_FACE('',(#780),#94,.T.);
#780 = FACE_BOUND('',#781,.T.);
#781 = EDGE_LOOP('',(#782,#803,#804,#805));
#782 = ORIENTED_EDGE('',*,*,#783,.F.);
#783 = EDGE_CURVE('',#24,#784,#786,.T.);
#784 = VERTEX_POINT('',#785);
#785 = CARTESIAN_POINT('',(11.365,-113.665,0.));
#786 = SEAM_CURVE('',#787,(#791,#797),.PCURVE_S1.);
#787 = LINE('',#788,#789);
#788 = CARTESIAN_POINT('',(12.505,-112.525,0.));
#789 = VECTOR('',#790,1.);
#790 = DIRECTION('',(-0.707106781187,-0.707106781187,0.));
#791 = PCURVE('',#94,#792);
#792 = DEFINITIONAL_REPRESENTATION('',(#793),#796);
#793 = B_SPLINE_CURVE_WITH_KNOTS('',1,(#794,#795),.UNSPECIFIED.,.F.,.F.,
  (2,2),(0.,1.612203461105),.PIECEWISE_BEZIER_KNOTS.);
#794 = CARTESIAN_POINT('',(0.,0.));
#795 = CARTESIAN_POINT('',(0.,-1.14));
#796 = ( GEOMETRIC_REPRESENTATION_CONTEXT(2) 
PARAMETRIC_REPRESENTATION_CONTEXT() REPRESENTATION_CONTEXT('2D SPACE',''
  ) );
#797 = PCURVE('',#94,#798);
#798 = DEFINITIONAL_REPRESENTATION('',(#799),#802);
#799 = B_SPLINE_CURVE_WITH_KNOTS('',1,(#800,#801),.UNSPECIFIED.,.F.,.F.,
  (2,2),(0.,1.612203461105),.PIECEWISE_BEZIER_KNOTS.);
#800 = CARTESIAN_POINT('',(-6.28318530718,0.));
#801 = CARTESIAN_POINT('',(-6.28318530718,-1.14));
#802 = ( GEOMETRIC_REPRESENTATION_CONTEXT(2) 
PARAMETRIC_REPRESENTATION_CONTEXT() REPRESENTATION_CONTEXT('2D SPACE',''
  ) );
#803 = ORIENTED_EDGE('',*,*,#79,.T.);
#804 = ORIENTED_EDGE('',*,*,#783,.T.);
#805 = ORIENTED_EDGE('',*,*,#806,.F.);
#806 = EDGE_CURVE('',#784,#784,#807,.T.);
#807 = SURFACE_CURVE('',#808,(#813,#820),.PCURVE_S1.);
#808 = CIRCLE('',#809,11.365);
#809 = AXIS2_PLACEMENT_3D('',#810,#811,#812);
#810 = CARTESIAN_POINT('',(0.,-113.665,0.));
#811 = DIRECTION('',(0.,-1.,0.));
#812 = DIRECTION('',(1.,0.,0.));
#813 = PCURVE('',#94,#814);
#814 = DEFINITIONAL_REPRESENTATION('',(#815),#819);
#815 = LINE('',#816,#817);
#816 = CARTESIAN_POINT('',(-0.,-1.14));
#817 = VECTOR('',#818,1.);
#818 = DIRECTION('',(-1.,-0.));
#819 = ( GEOMETRIC_REPRESENTATION_CONTEXT(2) 
PARAMETRIC_REPRESENTATION_CONTEXT() REPRESENTATION_CONTEXT('2D SPACE',''
  ) );
#820 = PCURVE('',#821,#826);
#821 = PLANE('',#822);
#822 = AXIS2_PLACEMENT_3D('',#823,#824,#825);
#823 = CARTESIAN_POINT('',(0.,-113.665,0.));
#824 = DIRECTION('',(0.,-1.,0.));
#825 = DIRECTION('',(1.,0.,0.));
#826 = DEFINITIONAL_REPRESENTATION('',(#827),#831);
#827 = CIRCLE('',#828,11.365);
#828 = AXIS2_PLACEMENT_2D('',#829,#830);
#829 = CARTESIAN_POINT('',(0.,0.));
#830 = DIRECTION('',(1.,0.));
#831 = ( GEOMETRIC_REPRESENTATION_CONTEXT(2) 
PARAMETRIC_REPRESENTATION_CONTEXT() REPRESENTATION_CONTEXT('2D SPACE',''
  ) );
#832 = ADVANCED_FACE('',(#833),#66,.T.);
#833 = FACE_BOUND('',#834,.F.);
#834 = EDGE_LOOP('',(#835,#856,#857,#858));
#835 = ORIENTED_EDGE('',*,*,#836,.F.);
#836 = EDGE_CURVE('',#22,#837,#839,.T.);
#837 = VERTEX_POINT('',#838);
#838 = CARTESIAN_POINT('',(11.365,113.665,0.));
#839 = SEAM_CURVE('',#840,(#844,#850),.PCURVE_S1.);
#840 = LINE('',#841,#842);
#841 = CARTESIAN_POINT('',(12.505,112.525,0.));
#842 = VECTOR('',#843,1.);
#843 = DIRECTION('',(-0.707106781187,0.707106781187,-0.));
#844 = PCURVE('',#66,#845);
#845 = DEFINITIONAL_REPRESENTATION('',(#846),#849);
#846 = B_SPLINE_CURVE_WITH_KNOTS('',1,(#847,#848),.UNSPECIFIED.,.F.,.F.,
  (2,2),(0.,1.612203461105),.PIECEWISE_BEZIER_KNOTS.);
#847 = CARTESIAN_POINT('',(0.,0.));
#848 = CARTESIAN_POINT('',(0.,-1.14));
#849 = ( GEOMETRIC_REPRESENTATION_CONTEXT(2) 
PARAMETRIC_REPRESENTATION_CONTEXT() REPRESENTATION_CONTEXT('2D SPACE',''
  ) );
#850 = PCURVE('',#66,#851);
#851 = DEFINITIONAL_REPRESENTATION('',(#852),#855);
#852 = B_SPLINE_CURVE_WITH_KNOTS('',1,(#853,#854),.UNSPECIFIED.,.F.,.F.,
  (2,2),(0.,1.612203461105),.PIECEWISE_BEZIER_KNOTS.);
#853 = CARTESIAN_POINT('',(6.28318530718,0.));
#854 = CARTESIAN_POINT('',(6.28318530718,-1.14));
#855 = ( GEOMETRIC_REPRESENTATION_CONTEXT(2) 
PARAMETRIC_REPRESENTATION_CONTEXT() REPRESENTATION_CONTEXT('2D SPACE',''
  ) );
#856 = ORIENTED_EDGE('',*,*,#51,.T.);
#857 = ORIENTED_EDGE('',*,*,#836,.T.);
#858 = ORIENTED_EDGE('',*,*,#859,.F.);
#859 = EDGE_CURVE('',#837,#837,#860,.T.);
#860 = SURFACE_CURVE('',#861,(#866,#873),.PCURVE_S1.);
#861 = CIRCLE('',#862,11.365);
#862 = AXIS2_PLACEMENT_3D('',#863,#864,#865);
#863 = CARTESIAN_POINT('',(0.,113.665,0.));
#864 = DIRECTION('',(0.,-1.,0.));
#865 = DIRECTION('',(1.,0.,0.));
#866 = PCURVE('',#66,#867);
#867 = DEFINITIONAL_REPRESENTATION('',(#868),#872);
#868 = LINE('',#869,#870);
#869 = CARTESIAN_POINT('',(0.,-1.14));
#870 = VECTOR('',#871,1.);
#871 = DIRECTION('',(1.,-0.));
#872 = ( GEOMETRIC_REPRESENTATION_CONTEXT(2) 
PARAMETRIC_REPRESENTATION_CONTEXT() REPRESENTATION_CONTEXT('2D SPACE',''
  ) );
#873 = PCURVE('',#874,#879);
#874 = PLANE('',#875);
#875 = AXIS2_PLACEMENT_3D('',#876,#877,#878);
#876 = CARTESIAN_POINT('',(0.,113.665,0.));
#877 = DIRECTION('',(0.,-1.,0.));
#878 = DIRECTION('',(1.,0.,0.));
#879 = DEFINITIONAL_REPRESENTATION('',(#880),#884);
#880 = CIRCLE('',#881,11.365);
#881 = AXIS2_PLACEMENT_2D('',#882,#883);
#882 = CARTESIAN_POINT('',(0.,0.));
#883 = DIRECTION('',(1.,0.));
#884 = ( GEOMETRIC_REPRESENTATION_CONTEXT(2) 
PARAMETRIC_REPRESENTATION_CONTEXT() REPRESENTATION_CONTEXT('2D SPACE',''
  ) );
#885 = ADVANCED_FACE('',(#886),#218,.F.);
#886 = FACE_BOUND('',#887,.F.);
#887 = EDGE_LOOP('',(#888,#889,#910,#911));
#888 = ORIENTED_EDGE('',*,*,#279,.F.);
#889 = ORIENTED_EDGE('',*,*,#890,.F.);
#890 = EDGE_CURVE('',#109,#280,#891,.T.);
#891 = SEAM_CURVE('',#892,(#896,#903),.PCURVE_S1.);
#892 = LINE('',#893,#894);
#893 = CARTESIAN_POINT('',(2.84,93.665,18.7575));
#894 = VECTOR('',#895,1.);
#895 = DIRECTION('',(0.,-1.110223024625E-16,-1.));
#896 = PCURVE('',#218,#897);
#897 = DEFINITIONAL_REPRESENTATION('',(#898),#902);
#898 = LINE('',#899,#900);
#899 = CARTESIAN_POINT('',(6.28318530718,-0.));
#900 = VECTOR('',#901,1.);
#901 = DIRECTION('',(0.,1.));
#902 = ( GEOMETRIC_REPRESENTATION_CONTEXT(2) 
PARAMETRIC_REPRESENTATION_CONTEXT() REPRESENTATION_CONTEXT('2D SPACE',''
  ) );
#903 = PCURVE('',#218,#904);
#904 = DEFINITIONAL_REPRESENTATION('',(#905),#909);
#905 = LINE('',#906,#907);
#906 = CARTESIAN_POINT('',(0.,-0.));
#907 = VECTOR('',#908,1.);
#908 = DIRECTION('',(0.,1.));
#909 = ( GEOMETRIC_REPRESENTATION_CONTEXT(2) 
PARAMETRIC_REPRESENTATION_CONTEXT() REPRESENTATION_CONTEXT('2D SPACE',''
  ) );
#910 = ORIENTED_EDGE('',*,*,#108,.T.);
#911 = ORIENTED_EDGE('',*,*,#890,.T.);
#912 = ADVANCED_FACE('',(#913),#555,.F.);
#913 = FACE_BOUND('',#914,.F.);
#914 = EDGE_LOOP('',(#915,#916,#937,#938));
#915 = ORIENTED_EDGE('',*,*,#616,.F.);
#916 = ORIENTED_EDGE('',*,*,#917,.F.);
#917 = EDGE_CURVE('',#446,#617,#918,.T.);
#918 = SEAM_CURVE('',#919,(#923,#930),.PCURVE_S1.);
#919 = LINE('',#920,#921);
#920 = CARTESIAN_POINT('',(2.84,-93.665,18.7575));
#921 = VECTOR('',#922,1.);
#922 = DIRECTION('',(0.,-1.110223024625E-16,-1.));
#923 = PCURVE('',#555,#924);
#924 = DEFINITIONAL_REPRESENTATION('',(#925),#929);
#925 = LINE('',#926,#927);
#926 = CARTESIAN_POINT('',(6.28318530718,-0.));
#927 = VECTOR('',#928,1.);
#928 = DIRECTION('',(0.,1.));
#929 = ( GEOMETRIC_REPRESENTATION_CONTEXT(2) 
PARAMETRIC_REPRESENTATION_CONTEXT() REPRESENTATION_CONTEXT('2D SPACE',''
  ) );
#930 = PCURVE('',#555,#931);
#931 = DEFINITIONAL_REPRESENTATION('',(#932),#936);
#932 = LINE('',#933,#934);
#933 = CARTESIAN_POINT('',(0.,-0.));
#934 = VECTOR('',#935,1.);
#935 = DIRECTION('',(0.,1.));
#936 = ( GEOMETRIC_REPRESENTATION_CONTEXT(2) 
PARAMETRIC_REPRESENTATION_CONTEXT() REPRESENTATION_CONTEXT('2D SPACE',''
  ) );
#937 = ORIENTED_EDGE('',*,*,#445,.T.);
#938 = ORIENTED_EDGE('',*,*,#917,.T.);
#939 = ADVANCED_FACE('',(#940),#821,.T.);
#940 = FACE_BOUND('',#941,.T.);
#941 = EDGE_LOOP('',(#942));
#942 = ORIENTED_EDGE('',*,*,#806,.T.);
#943 = ADVANCED_FACE('',(#944),#874,.F.);
#944 = FACE_BOUND('',#945,.F.);
#945 = EDGE_LOOP('',(#946));
#946 = ORIENTED_EDGE('',*,*,#859,.T.);
#947 = ( GEOMETRIC_REPRESENTATION_CONTEXT(3) 
GLOBAL_UNCERTAINTY_ASSIGNED_CONTEXT((#951)) GLOBAL_UNIT_ASSIGNED_CONTEXT
((#948,#949,#950)) REPRESENTATION_CONTEXT('Context #1',
  '3D Context with UNIT and UNCERTAINTY') );
#948 = ( LENGTH_UNIT() NAMED_UNIT(*) SI_UNIT(.MILLI.,.METRE.) );
#949 = ( NAMED_UNIT(*) PLANE_ANGLE_UNIT() SI_UNIT($,.RADIAN.) );
#950 = ( NAMED_UNIT(*) SI_UNIT($,.STERADIAN.) SOLID_ANGLE_UNIT() );
#951 = UNCERTAINTY_MEASURE_WITH_UNIT(LENGTH_MEASURE(1.E-07),#948,
  'distance_accuracy_value','confusion accuracy');
#952 = PRODUCT_RELATED_PRODUCT_CATEGORY('part',$,(#7));
ENDSEC;
END-ISO-10303-21;
