ISO-10303-21;
HEADER;
FILE_DESCRIPTION(('Open CASCADE Model'),'2;1');
FILE_NAME('Open CASCADE Shape Model','2026-10-02T08:36:28',('Author'),(
    'Open CASCADE'),'Open CASCADE STEP processor 7.9','Open CASCADE 7.9'
  ,'Unknown');
FILE_SCHEMA(('AUTOMOTIVE_DESIGN { 1 0 10303 214 1 1 1 1 }'));
ENDSEC;
DATA;
#1 = APPLICATION_PROTOCOL_DEFINITION('international standard',
  'automotive_design',2000,#2);
#2 = APPLICATION_CONTEXT(
  'core data for automotive mechanical design processes');
#3 = SHAPE_DEFINITION_REPRESENTATION(#4,#10);
#4 = PRODUCT_DEFINITION_SHAPE('','',#5);
#5 = PRODUCT_DEFINITION('design','',#6,#9);
#6 = PRODUCT_DEFINITION_FORMATION('','',#7);
#7 = PRODUCT('Open CASCADE STEP translator 7.9 12',
  'Open CASCADE STEP translator 7.9 12','',(#8));
#8 = PRODUCT_CONTEXT('',#2,'mechanical');
#9 = PRODUCT_DEFINITION_CONTEXT('part definition',#2,'design');
#10 = ADVANCED_BREP_SHAPE_REPRESENTATION('',(#11,#15),#1366);
#11 = AXIS2_PLACEMENT_3D('',#12,#13,#14);
#12 = CARTESIAN_POINT('',(0.,0.,0.));
#13 = DIRECTION('',(0.,0.,1.));
#14 = DIRECTION('',(1.,0.,-0.));
#15 = MANIFOLD_SOLID_BREP('',#16);
#16 = CLOSED_SHELL('',(#17,#438,#543,#592,#665,#669,#696,#794,#976,#1025
    ,#1154,#1181,#1188,#1274,#1301,#1328,#1355,#1362));
#17 = ADVANCED_FACE('',(#18),#33,.T.);
#18 = FACE_BOUND('',#19,.T.);
#19 = EDGE_LOOP('',(#20,#61,#84,#113,#147,#180,#213,#235,#236,#263,#295,
    #328,#351,#378,#379,#407));
#20 = ORIENTED_EDGE('',*,*,#21,.F.);
#21 = EDGE_CURVE('',#22,#24,#26,.T.);
#22 = VERTEX_POINT('',#23);
#23 = CARTESIAN_POINT('',(18.8,-4.604671964794E-15,8.964573810472));
#24 = VERTEX_POINT('',#25);
#25 = CARTESIAN_POINT('',(12.712049074776,-13.85076923208,-1.51068068659
    ));
#26 = SURFACE_CURVE('',#27,(#32,#49),.PCURVE_S1.);
#27 = ELLIPSE('',#28,23.57118708208,18.8);
#28 = AXIS2_PLACEMENT_3D('',#29,#30,#31);
#29 = CARTESIAN_POINT('',(0.,0.,8.964573810472));
#30 = DIRECTION('',(-0.,0.603207987745,-0.797583928825));
#31 = DIRECTION('',(0.,0.797583928825,0.603207987745));
#32 = PCURVE('',#33,#38);
#33 = CYLINDRICAL_SURFACE('',#34,18.8);
#34 = AXIS2_PLACEMENT_3D('',#35,#36,#37);
#35 = CARTESIAN_POINT('',(0.,0.,-13.95));
#36 = DIRECTION('',(0.,0.,1.));
#37 = DIRECTION('',(1.,0.,0.));
#38 = DEFINITIONAL_REPRESENTATION('',(#39),#48);
#39 = B_SPLINE_CURVE_WITH_KNOTS('',7,(#40,#41,#42,#43,#44,#45,#46,#47),
  .UNSPECIFIED.,.F.,.F.,(8,8),(1.570796326795,2.617506684977),
  .PIECEWISE_BEZIER_KNOTS.);
#40 = CARTESIAN_POINT('',(6.28318530718,22.914573810472));
#41 = CARTESIAN_POINT('',(6.133655256011,20.788506447968));
#42 = CARTESIAN_POINT('',(5.984125204842,18.662439442627));
#43 = CARTESIAN_POINT('',(5.834595153673,16.614014121632));
#44 = CARTESIAN_POINT('',(5.685065102504,14.720885248361));
#45 = CARTESIAN_POINT('',(5.535535051335,13.053581938865));
#46 = CARTESIAN_POINT('',(5.386005000166,11.668535863566));
#47 = CARTESIAN_POINT('',(5.236474948997,10.604605274921));
#48 = ( GEOMETRIC_REPRESENTATION_CONTEXT(2) 
PARAMETRIC_REPRESENTATION_CONTEXT() REPRESENTATION_CONTEXT('2D SPACE',''
  ) );
#49 = PCURVE('',#50,#55);
#50 = PLANE('',#51);
#51 = AXIS2_PLACEMENT_3D('',#52,#53,#54);
#52 = CARTESIAN_POINT('',(33.446688786608,-4.312937112379,5.7027250911)
  );
#53 = DIRECTION('',(-0.,0.603207987745,-0.797583928825));
#54 = DIRECTION('',(0.,-0.797583928825,-0.603207987745));
#55 = DEFINITIONAL_REPRESENTATION('',(#56),#60);
#56 = ELLIPSE('',#57,23.57118708208,18.8);
#57 = AXIS2_PLACEMENT_2D('',#58,#59);
#58 = CARTESIAN_POINT('',(-5.407502529209,33.446688786608));
#59 = DIRECTION('',(-1.,0.));
#60 = ( GEOMETRIC_REPRESENTATION_CONTEXT(2) 
PARAMETRIC_REPRESENTATION_CONTEXT() REPRESENTATION_CONTEXT('2D SPACE',''
  ) );
#61 = ORIENTED_EDGE('',*,*,#62,.T.);
#62 = EDGE_CURVE('',#22,#63,#65,.T.);
#63 = VERTEX_POINT('',#64);
#64 = CARTESIAN_POINT('',(18.8,-4.604671964794E-15,13.95));
#65 = SEAM_CURVE('',#66,(#70,#77),.PCURVE_S1.);
#66 = LINE('',#67,#68);
#67 = CARTESIAN_POINT('',(18.8,-4.604671964794E-15,-13.95));
#68 = VECTOR('',#69,1.);
#69 = DIRECTION('',(0.,0.,1.));
#70 = PCURVE('',#33,#71);
#71 = DEFINITIONAL_REPRESENTATION('',(#72),#76);
#72 = LINE('',#73,#74);
#73 = CARTESIAN_POINT('',(0.,-0.));
#74 = VECTOR('',#75,1.);
#75 = DIRECTION('',(0.,1.));
#76 = ( GEOMETRIC_REPRESENTATION_CONTEXT(2) 
PARAMETRIC_REPRESENTATION_CONTEXT() REPRESENTATION_CONTEXT('2D SPACE',''
  ) );
#77 = PCURVE('',#33,#78);
#78 = DEFINITIONAL_REPRESENTATION('',(#79),#83);
#79 = LINE('',#80,#81);
#80 = CARTESIAN_POINT('',(6.28318530718,-0.));
#81 = VECTOR('',#82,1.);
#82 = DIRECTION('',(0.,1.));
#83 = ( GEOMETRIC_REPRESENTATION_CONTEXT(2) 
PARAMETRIC_REPRESENTATION_CONTEXT() REPRESENTATION_CONTEXT('2D SPACE',''
  ) );
#84 = ORIENTED_EDGE('',*,*,#85,.F.);
#85 = EDGE_CURVE('',#86,#63,#88,.T.);
#86 = VERTEX_POINT('',#87);
#87 = CARTESIAN_POINT('',(-18.19602968432,-4.726997326757,13.95));
#88 = SURFACE_CURVE('',#89,(#94,#101),.PCURVE_S1.);
#89 = CIRCLE('',#90,18.8);
#90 = AXIS2_PLACEMENT_3D('',#91,#92,#93);
#91 = CARTESIAN_POINT('',(0.,0.,13.95));
#92 = DIRECTION('',(0.,0.,1.));
#93 = DIRECTION('',(1.,0.,0.));
#94 = PCURVE('',#33,#95);
#95 = DEFINITIONAL_REPRESENTATION('',(#96),#100);
#96 = LINE('',#97,#98);
#97 = CARTESIAN_POINT('',(0.,27.9));
#98 = VECTOR('',#99,1.);
#99 = DIRECTION('',(1.,0.));
#100 = ( GEOMETRIC_REPRESENTATION_CONTEXT(2) 
PARAMETRIC_REPRESENTATION_CONTEXT() REPRESENTATION_CONTEXT('2D SPACE',''
  ) );
#101 = PCURVE('',#102,#107);
#102 = PLANE('',#103);
#103 = AXIS2_PLACEMENT_3D('',#104,#105,#106);
#104 = CARTESIAN_POINT('',(0.,0.,13.95));
#105 = DIRECTION('',(0.,0.,1.));
#106 = DIRECTION('',(1.,0.,0.));
#107 = DEFINITIONAL_REPRESENTATION('',(#108),#112);
#108 = CIRCLE('',#109,18.8);
#109 = AXIS2_PLACEMENT_2D('',#110,#111);
#110 = CARTESIAN_POINT('',(0.,0.));
#111 = DIRECTION('',(1.,0.));
#112 = ( GEOMETRIC_REPRESENTATION_CONTEXT(2) 
PARAMETRIC_REPRESENTATION_CONTEXT() REPRESENTATION_CONTEXT('2D SPACE',''
  ) );
#113 = ORIENTED_EDGE('',*,*,#114,.T.);
#114 = EDGE_CURVE('',#86,#115,#117,.T.);
#115 = VERTEX_POINT('',#116);
#116 = CARTESIAN_POINT('',(-16.3289692134,9.316907449779,3.32867823789)
  );
#117 = SURFACE_CURVE('',#118,(#123,#135),.PCURVE_S1.);
#118 = ELLIPSE('',#119,23.57118708208,18.8);
#119 = AXIS2_PLACEMENT_3D('',#120,#121,#122);
#120 = CARTESIAN_POINT('',(0.,0.,10.375));
#121 = DIRECTION('',(-0.,-0.603207987745,-0.797583928825));
#122 = DIRECTION('',(0.,-0.797583928825,0.603207987745));
#123 = PCURVE('',#33,#124);
#124 = DEFINITIONAL_REPRESENTATION('',(#125),#134);
#125 = B_SPLINE_CURVE_WITH_KNOTS('',7,(#126,#127,#128,#129,#130,#131,
    #132,#133),.UNSPECIFIED.,.F.,.F.,(8,8),(1.316632620065,
    2.260579779392),.PIECEWISE_BEZIER_KNOTS.);
#126 = CARTESIAN_POINT('',(3.395756360319,27.9000006));
#127 = CARTESIAN_POINT('',(3.26090676613,26.044261300514));
#128 = CARTESIAN_POINT('',(3.12605717194,24.112677893098));
#129 = CARTESIAN_POINT('',(2.991207577751,22.160367613524));
#130 = CARTESIAN_POINT('',(2.856357983561,20.245828745048));
#131 = CARTESIAN_POINT('',(2.721508389371,18.426841176332));
#132 = CARTESIAN_POINT('',(2.586658795182,16.755882034763));
#133 = CARTESIAN_POINT('',(2.451809200992,15.276880183821));
#134 = ( GEOMETRIC_REPRESENTATION_CONTEXT(2) 
PARAMETRIC_REPRESENTATION_CONTEXT() REPRESENTATION_CONTEXT('2D SPACE',''
  ) );
#135 = PCURVE('',#136,#141);
#136 = PLANE('',#137);
#137 = AXIS2_PLACEMENT_3D('',#138,#139,#140);
#138 = CARTESIAN_POINT('',(-33.4466887866,3.762138931426E-15,10.375));
#139 = DIRECTION('',(-0.,-0.603207987745,-0.797583928825));
#140 = DIRECTION('',(0.,-0.797583928825,0.603207987745));
#141 = DEFINITIONAL_REPRESENTATION('',(#142),#146);
#142 = ELLIPSE('',#143,23.57118708208,18.8);
#143 = AXIS2_PLACEMENT_2D('',#144,#145);
#144 = CARTESIAN_POINT('',(6.21515945355E-15,-33.4466887866));
#145 = DIRECTION('',(1.,0.));
#146 = ( GEOMETRIC_REPRESENTATION_CONTEXT(2) 
PARAMETRIC_REPRESENTATION_CONTEXT() REPRESENTATION_CONTEXT('2D SPACE',''
  ) );
#147 = ORIENTED_EDGE('',*,*,#148,.T.);
#148 = EDGE_CURVE('',#115,#149,#151,.T.);
#149 = VERTEX_POINT('',#150);
#150 = CARTESIAN_POINT('',(-12.71204907477,13.850769232085,8.86431931341
    ));
#151 = SURFACE_CURVE('',#152,(#157,#168),.PCURVE_S1.);
#152 = ELLIPSE('',#153,31.257956609458,18.8);
#153 = AXIS2_PLACEMENT_3D('',#154,#155,#156);
#154 = CARTESIAN_POINT('',(0.,0.,-11.06358325374));
#155 = DIRECTION('',(-7.635879778443E-02,0.795255306761,-0.60144686471)
  );
#156 = DIRECTION('',(-5.748532164119E-02,0.598693384685,0.798912804335)
  );
#157 = PCURVE('',#33,#158);
#158 = DEFINITIONAL_REPRESENTATION('',(#159),#167);
#159 = B_SPLINE_CURVE_WITH_KNOTS('',6,(#160,#161,#162,#163,#164,#165,
    #166),.UNSPECIFIED.,.F.,.F.,(7,7),(5.299487120256,5.673563109679),
  .PIECEWISE_BEZIER_KNOTS.);
#160 = CARTESIAN_POINT('',(2.650219024683,16.719802955036));
#161 = CARTESIAN_POINT('',(2.587873026445,18.016026004377));
#162 = CARTESIAN_POINT('',(2.525527028208,19.247724195684));
#163 = CARTESIAN_POINT('',(2.463181029971,20.405828477186));
#164 = CARTESIAN_POINT('',(2.400835031734,21.482021493244));
#165 = CARTESIAN_POINT('',(2.338489033497,22.468952058559));
#166 = CARTESIAN_POINT('',(2.27614303526,23.360383297684));
#167 = ( GEOMETRIC_REPRESENTATION_CONTEXT(2) 
PARAMETRIC_REPRESENTATION_CONTEXT() REPRESENTATION_CONTEXT('2D SPACE',''
  ) );
#168 = PCURVE('',#169,#174);
#169 = PLANE('',#170);
#170 = AXIS2_PLACEMENT_3D('',#171,#172,#173);
#171 = CARTESIAN_POINT('',(-52.152,7.12880515584,4.983527005533));
#172 = DIRECTION('',(-7.635879778443E-02,0.795255306761,-0.60144686471)
  );
#173 = DIRECTION('',(0.997080404983,6.090254993727E-02,
    -4.606023675819E-02));
#174 = DEFINITIONAL_REPRESENTATION('',(#175),#179);
#175 = ELLIPSE('',#176,31.257956609458,18.8);
#176 = AXIS2_PLACEMENT_2D('',#177,#178);
#177 = CARTESIAN_POINT('',(52.3047085665,17.099069459971));
#178 = DIRECTION('',(-5.765364694152E-02,-0.998336645122));
#179 = ( GEOMETRIC_REPRESENTATION_CONTEXT(2) 
PARAMETRIC_REPRESENTATION_CONTEXT() REPRESENTATION_CONTEXT('2D SPACE',''
  ) );
#180 = ORIENTED_EDGE('',*,*,#181,.F.);
#181 = EDGE_CURVE('',#182,#149,#184,.T.);
#182 = VERTEX_POINT('',#183);
#183 = CARTESIAN_POINT('',(-17.39700934203,7.126293984464,13.95));
#184 = SURFACE_CURVE('',#185,(#190,#201),.PCURVE_S1.);
#185 = ELLIPSE('',#186,23.57118708208,18.8);
#186 = AXIS2_PLACEMENT_3D('',#187,#188,#189);
#187 = CARTESIAN_POINT('',(0.,0.,19.339573810472));
#188 = DIRECTION('',(-0.,-0.603207987745,-0.797583928825));
#189 = DIRECTION('',(0.,-0.797583928825,0.603207987745));
#190 = PCURVE('',#33,#191);
#191 = DEFINITIONAL_REPRESENTATION('',(#192),#200);
#192 = B_SPLINE_CURVE_WITH_KNOTS('',6,(#193,#194,#195,#196,#197,#198,
    #199),.UNSPECIFIED.,.F.,.F.,(7,7),(1.959574603219,2.617506684977),
  .PIECEWISE_BEZIER_KNOTS.);
#193 = CARTESIAN_POINT('',(2.752814377166,27.9000006));
#194 = CARTESIAN_POINT('',(2.643159030206,26.457237229885));
#195 = CARTESIAN_POINT('',(2.533503683246,25.092241513579));
#196 = CARTESIAN_POINT('',(2.423848336287,23.836235277653));
#197 = CARTESIAN_POINT('',(2.314192989327,22.717658261304));
#198 = CARTESIAN_POINT('',(2.204537642367,21.759820869893));
#199 = CARTESIAN_POINT('',(2.094882295407,20.979605274921));
#200 = ( GEOMETRIC_REPRESENTATION_CONTEXT(2) 
PARAMETRIC_REPRESENTATION_CONTEXT() REPRESENTATION_CONTEXT('2D SPACE',''
  ) );
#201 = PCURVE('',#202,#207);
#202 = PLANE('',#203);
#203 = AXIS2_PLACEMENT_3D('',#204,#205,#206);
#204 = CARTESIAN_POINT('',(-33.4466887866,4.312937112379,16.0777250911)
  );
#205 = DIRECTION('',(-0.,-0.603207987745,-0.797583928825));
#206 = DIRECTION('',(0.,-0.797583928825,0.603207987745));
#207 = DEFINITIONAL_REPRESENTATION('',(#208),#212);
#208 = ELLIPSE('',#209,23.57118708208,18.8);
#209 = AXIS2_PLACEMENT_2D('',#210,#211);
#210 = CARTESIAN_POINT('',(5.407502529209,-33.4466887866));
#211 = DIRECTION('',(1.,0.));
#212 = ( GEOMETRIC_REPRESENTATION_CONTEXT(2) 
PARAMETRIC_REPRESENTATION_CONTEXT() REPRESENTATION_CONTEXT('2D SPACE',''
  ) );
#213 = ORIENTED_EDGE('',*,*,#214,.F.);
#214 = EDGE_CURVE('',#63,#182,#215,.T.);
#215 = SURFACE_CURVE('',#216,(#221,#228),.PCURVE_S1.);
#216 = CIRCLE('',#217,18.8);
#217 = AXIS2_PLACEMENT_3D('',#218,#219,#220);
#218 = CARTESIAN_POINT('',(0.,0.,13.95));
#219 = DIRECTION('',(0.,0.,1.));
#220 = DIRECTION('',(1.,0.,0.));
#221 = PCURVE('',#33,#222);
#222 = DEFINITIONAL_REPRESENTATION('',(#223),#227);
#223 = LINE('',#224,#225);
#224 = CARTESIAN_POINT('',(0.,27.9));
#225 = VECTOR('',#226,1.);
#226 = DIRECTION('',(1.,0.));
#227 = ( GEOMETRIC_REPRESENTATION_CONTEXT(2) 
PARAMETRIC_REPRESENTATION_CONTEXT() REPRESENTATION_CONTEXT('2D SPACE',''
  ) );
#228 = PCURVE('',#102,#229);
#229 = DEFINITIONAL_REPRESENTATION('',(#230),#234);
#230 = CIRCLE('',#231,18.8);
#231 = AXIS2_PLACEMENT_2D('',#232,#233);
#232 = CARTESIAN_POINT('',(0.,0.));
#233 = DIRECTION('',(1.,0.));
#234 = ( GEOMETRIC_REPRESENTATION_CONTEXT(2) 
PARAMETRIC_REPRESENTATION_CONTEXT() REPRESENTATION_CONTEXT('2D SPACE',''
  ) );
#235 = ORIENTED_EDGE('',*,*,#62,.F.);
#236 = ORIENTED_EDGE('',*,*,#237,.F.);
#237 = EDGE_CURVE('',#238,#22,#240,.T.);
#238 = VERTEX_POINT('',#239);
#239 = CARTESIAN_POINT('',(18.152201223984,4.892605719245,
    12.664822454002));
#240 = SURFACE_CURVE('',#241,(#246,#256),.PCURVE_S1.);
#241 = ELLIPSE('',#242,23.57118708208,18.8);
#242 = AXIS2_PLACEMENT_3D('',#243,#244,#245);
#243 = CARTESIAN_POINT('',(0.,0.,8.964573810472));
#244 = DIRECTION('',(-0.,0.603207987745,-0.797583928825));
#245 = DIRECTION('',(0.,0.797583928825,0.603207987745));
#246 = PCURVE('',#33,#247);
#247 = DEFINITIONAL_REPRESENTATION('',(#248),#255);
#248 = B_SPLINE_CURVE_WITH_KNOTS('',5,(#249,#250,#251,#252,#253,#254),
  .UNSPECIFIED.,.F.,.F.,(6,6),(1.212548520347,1.570796326795),
  .PIECEWISE_BEZIER_KNOTS.);
#249 = CARTESIAN_POINT('',(0.358247806448,27.9000006));
#250 = CARTESIAN_POINT('',(0.286598245159,26.945940535524));
#251 = CARTESIAN_POINT('',(0.214948683869,25.959888796337));
#252 = CARTESIAN_POINT('',(0.143299122579,24.952047928946));
#253 = CARTESIAN_POINT('',(7.164956128965E-02,23.933310797485));
#254 = CARTESIAN_POINT('',(6.123233995737E-17,22.914573810472));
#255 = ( GEOMETRIC_REPRESENTATION_CONTEXT(2) 
PARAMETRIC_REPRESENTATION_CONTEXT() REPRESENTATION_CONTEXT('2D SPACE',''
  ) );
#256 = PCURVE('',#50,#257);
#257 = DEFINITIONAL_REPRESENTATION('',(#258),#262);
#258 = ELLIPSE('',#259,23.57118708208,18.8);
#259 = AXIS2_PLACEMENT_2D('',#260,#261);
#260 = CARTESIAN_POINT('',(-5.407502529209,33.446688786608));
#261 = DIRECTION('',(-1.,0.));
#262 = ( GEOMETRIC_REPRESENTATION_CONTEXT(2) 
PARAMETRIC_REPRESENTATION_CONTEXT() REPRESENTATION_CONTEXT('2D SPACE',''
  ) );
#263 = ORIENTED_EDGE('',*,*,#264,.T.);
#264 = EDGE_CURVE('',#238,#265,#267,.T.);
#265 = VERTEX_POINT('',#266);
#266 = CARTESIAN_POINT('',(16.328969213402,9.316907449779,7.04632176211)
  );
#267 = SURFACE_CURVE('',#268,(#273,#283),.PCURVE_S1.);
#268 = ELLIPSE('',#269,31.257956609458,18.8);
#269 = AXIS2_PLACEMENT_3D('',#270,#271,#272);
#270 = CARTESIAN_POINT('',(0.,0.,21.438583253747));
#271 = DIRECTION('',(7.635879778443E-02,0.795255306761,0.60144686471));
#272 = DIRECTION('',(-5.748532164119E-02,-0.598693384685,0.798912804335)
  );
#273 = PCURVE('',#33,#274);
#274 = DEFINITIONAL_REPRESENTATION('',(#275),#282);
#275 = B_SPLINE_CURVE_WITH_KNOTS('',5,(#276,#277,#278,#279,#280,#281),
  .UNSPECIFIED.,.F.,.F.,(6,6),(1.905734179092,2.212643200716),
  .PIECEWISE_BEZIER_KNOTS.);
#276 = CARTESIAN_POINT('',(0.239213341334,27.179899746719));
#277 = CARTESIAN_POINT('',(0.300595145658,25.732229227078));
#278 = CARTESIAN_POINT('',(0.361976949983,24.323218506596));
#279 = CARTESIAN_POINT('',(0.423358754308,22.964232829933));
#280 = CARTESIAN_POINT('',(0.484740558633,21.666022442776));
#281 = CARTESIAN_POINT('',(0.546122362957,20.438222823922));
#282 = ( GEOMETRIC_REPRESENTATION_CONTEXT(2) 
PARAMETRIC_REPRESENTATION_CONTEXT() REPRESENTATION_CONTEXT('2D SPACE',''
  ) );
#283 = PCURVE('',#284,#289);
#284 = PLANE('',#285);
#285 = AXIS2_PLACEMENT_3D('',#286,#287,#288);
#286 = CARTESIAN_POINT('',(5.64,9.969799110315,7.540099846816));
#287 = DIRECTION('',(7.635879778443E-02,0.795255306761,0.60144686471));
#288 = DIRECTION('',(0.997080404983,-6.090254993727E-02,
    -4.606023675819E-02));
#289 = DEFINITIONAL_REPRESENTATION('',(#290),#294);
#290 = ELLIPSE('',#291,31.257956609458,18.8);
#291 = AXIS2_PLACEMENT_2D('',#292,#293);
#292 = CARTESIAN_POINT('',(-5.656514732226,-17.09906945997));
#293 = DIRECTION('',(-5.765364694152E-02,-0.998336645122));
#294 = ( GEOMETRIC_REPRESENTATION_CONTEXT(2) 
PARAMETRIC_REPRESENTATION_CONTEXT() REPRESENTATION_CONTEXT('2D SPACE',''
  ) );
#295 = ORIENTED_EDGE('',*,*,#296,.T.);
#296 = EDGE_CURVE('',#265,#297,#299,.T.);
#297 = VERTEX_POINT('',#298);
#298 = CARTESIAN_POINT('',(18.8,-4.604671964794E-15,-3.552713678801E-15)
  );
#299 = SURFACE_CURVE('',#300,(#305,#316),.PCURVE_S1.);
#300 = ELLIPSE('',#301,23.57118708208,18.8);
#301 = AXIS2_PLACEMENT_3D('',#302,#303,#304);
#302 = CARTESIAN_POINT('',(0.,0.,-1.7763568394E-15));
#303 = DIRECTION('',(-0.,0.603207987745,-0.797583928825));
#304 = DIRECTION('',(0.,0.797583928825,0.603207987745));
#305 = PCURVE('',#33,#306);
#306 = DEFINITIONAL_REPRESENTATION('',(#307),#315);
#307 = B_SPLINE_CURVE_WITH_KNOTS('',6,(#308,#309,#310,#311,#312,#313,
    #314),.UNSPECIFIED.,.F.,.F.,(7,7),(0.881012874197,1.570796326795),
  .PIECEWISE_BEZIER_KNOTS.);
#308 = CARTESIAN_POINT('',(0.689783452598,22.998119816179));
#309 = CARTESIAN_POINT('',(0.574819543831,21.737219960465));
#310 = CARTESIAN_POINT('',(0.459855635065,20.332817683476));
#311 = CARTESIAN_POINT('',(0.344891726299,18.814901689987));
#312 = CARTESIAN_POINT('',(0.229927817533,17.219188051508));
#313 = CARTESIAN_POINT('',(0.114963908766,15.584594600772));
#314 = CARTESIAN_POINT('',(6.123233995737E-17,13.95));
#315 = ( GEOMETRIC_REPRESENTATION_CONTEXT(2) 
PARAMETRIC_REPRESENTATION_CONTEXT() REPRESENTATION_CONTEXT('2D SPACE',''
  ) );
#316 = PCURVE('',#317,#322);
#317 = PLANE('',#318);
#318 = AXIS2_PLACEMENT_3D('',#319,#320,#321);
#319 = CARTESIAN_POINT('',(33.446688786608,-3.582989458501E-16,
    -5.374484187752E-16));
#320 = DIRECTION('',(-0.,0.603207987745,-0.797583928825));
#321 = DIRECTION('',(0.,-0.797583928825,-0.603207987745));
#322 = DEFINITIONAL_REPRESENTATION('',(#323),#327);
#323 = ELLIPSE('',#324,23.57118708208,18.8);
#324 = AXIS2_PLACEMENT_2D('',#325,#326);
#325 = CARTESIAN_POINT('',(4.615459744808E-16,33.446688786608));
#326 = DIRECTION('',(-1.,0.));
#327 = ( GEOMETRIC_REPRESENTATION_CONTEXT(2) 
PARAMETRIC_REPRESENTATION_CONTEXT() REPRESENTATION_CONTEXT('2D SPACE',''
  ) );
#328 = ORIENTED_EDGE('',*,*,#329,.F.);
#329 = EDGE_CURVE('',#330,#297,#332,.T.);
#330 = VERTEX_POINT('',#331);
#331 = CARTESIAN_POINT('',(18.8,-4.604671964794E-15,-13.95));
#332 = SEAM_CURVE('',#333,(#337,#344),.PCURVE_S1.);
#333 = LINE('',#334,#335);
#334 = CARTESIAN_POINT('',(18.8,-4.604671964794E-15,-13.95));
#335 = VECTOR('',#336,1.);
#336 = DIRECTION('',(0.,0.,1.));
#337 = PCURVE('',#33,#338);
#338 = DEFINITIONAL_REPRESENTATION('',(#339),#343);
#339 = LINE('',#340,#341);
#340 = CARTESIAN_POINT('',(6.28318530718,-0.));
#341 = VECTOR('',#342,1.);
#342 = DIRECTION('',(0.,1.));
#343 = ( GEOMETRIC_REPRESENTATION_CONTEXT(2) 
PARAMETRIC_REPRESENTATION_CONTEXT() REPRESENTATION_CONTEXT('2D SPACE',''
  ) );
#344 = PCURVE('',#33,#345);
#345 = DEFINITIONAL_REPRESENTATION('',(#346),#350);
#346 = LINE('',#347,#348);
#347 = CARTESIAN_POINT('',(0.,-0.));
#348 = VECTOR('',#349,1.);
#349 = DIRECTION('',(0.,1.));
#350 = ( GEOMETRIC_REPRESENTATION_CONTEXT(2) 
PARAMETRIC_REPRESENTATION_CONTEXT() REPRESENTATION_CONTEXT('2D SPACE',''
  ) );
#351 = ORIENTED_EDGE('',*,*,#352,.T.);
#352 = EDGE_CURVE('',#330,#330,#353,.T.);
#353 = SURFACE_CURVE('',#354,(#359,#366),.PCURVE_S1.);
#354 = CIRCLE('',#355,18.8);
#355 = AXIS2_PLACEMENT_3D('',#356,#357,#358);
#356 = CARTESIAN_POINT('',(0.,0.,-13.95));
#357 = DIRECTION('',(0.,0.,1.));
#358 = DIRECTION('',(1.,0.,0.));
#359 = PCURVE('',#33,#360);
#360 = DEFINITIONAL_REPRESENTATION('',(#361),#365);
#361 = LINE('',#362,#363);
#362 = CARTESIAN_POINT('',(0.,0.));
#363 = VECTOR('',#364,1.);
#364 = DIRECTION('',(1.,0.));
#365 = ( GEOMETRIC_REPRESENTATION_CONTEXT(2) 
PARAMETRIC_REPRESENTATION_CONTEXT() REPRESENTATION_CONTEXT('2D SPACE',''
  ) );
#366 = PCURVE('',#367,#372);
#367 = PLANE('',#368);
#368 = AXIS2_PLACEMENT_3D('',#369,#370,#371);
#369 = CARTESIAN_POINT('',(0.,0.,-13.95));
#370 = DIRECTION('',(0.,0.,1.));
#371 = DIRECTION('',(1.,0.,0.));
#372 = DEFINITIONAL_REPRESENTATION('',(#373),#377);
#373 = CIRCLE('',#374,18.8);
#374 = AXIS2_PLACEMENT_2D('',#375,#376);
#375 = CARTESIAN_POINT('',(0.,0.));
#376 = DIRECTION('',(1.,0.));
#377 = ( GEOMETRIC_REPRESENTATION_CONTEXT(2) 
PARAMETRIC_REPRESENTATION_CONTEXT() REPRESENTATION_CONTEXT('2D SPACE',''
  ) );
#378 = ORIENTED_EDGE('',*,*,#329,.T.);
#379 = ORIENTED_EDGE('',*,*,#380,.T.);
#380 = EDGE_CURVE('',#297,#381,#383,.T.);
#381 = VERTEX_POINT('',#382);
#382 = CARTESIAN_POINT('',(16.328969213402,-9.316907449779,
    -7.04632176211));
#383 = SURFACE_CURVE('',#384,(#389,#400),.PCURVE_S1.);
#384 = ELLIPSE('',#385,23.57118708208,18.8);
#385 = AXIS2_PLACEMENT_3D('',#386,#387,#388);
#386 = CARTESIAN_POINT('',(0.,0.,-1.7763568394E-15));
#387 = DIRECTION('',(-0.,0.603207987745,-0.797583928825));
#388 = DIRECTION('',(0.,0.797583928825,0.603207987745));
#389 = PCURVE('',#33,#390);
#390 = DEFINITIONAL_REPRESENTATION('',(#391),#399);
#391 = B_SPLINE_CURVE_WITH_KNOTS('',6,(#392,#393,#394,#395,#396,#397,
    #398),.UNSPECIFIED.,.F.,.F.,(7,7),(1.570796326795,2.260579779392),
  .PIECEWISE_BEZIER_KNOTS.);
#392 = CARTESIAN_POINT('',(6.28318530718,13.95));
#393 = CARTESIAN_POINT('',(6.168221398413,12.315405399228));
#394 = CARTESIAN_POINT('',(6.053257489647,10.680811948492));
#395 = CARTESIAN_POINT('',(5.938293580881,9.085098310012));
#396 = CARTESIAN_POINT('',(5.823329672115,7.567182316524));
#397 = CARTESIAN_POINT('',(5.708365763348,6.162780039535));
#398 = CARTESIAN_POINT('',(5.593401854582,4.901880183821));
#399 = ( GEOMETRIC_REPRESENTATION_CONTEXT(2) 
PARAMETRIC_REPRESENTATION_CONTEXT() REPRESENTATION_CONTEXT('2D SPACE',''
  ) );
#400 = PCURVE('',#317,#401);
#401 = DEFINITIONAL_REPRESENTATION('',(#402),#406);
#402 = ELLIPSE('',#403,23.57118708208,18.8);
#403 = AXIS2_PLACEMENT_2D('',#404,#405);
#404 = CARTESIAN_POINT('',(4.615459744808E-16,33.446688786608));
#405 = DIRECTION('',(-1.,0.));
#406 = ( GEOMETRIC_REPRESENTATION_CONTEXT(2) 
PARAMETRIC_REPRESENTATION_CONTEXT() REPRESENTATION_CONTEXT('2D SPACE',''
  ) );
#407 = ORIENTED_EDGE('',*,*,#408,.T.);
#408 = EDGE_CURVE('',#381,#24,#409,.T.);
#409 = SURFACE_CURVE('',#410,(#415,#426),.PCURVE_S1.);
#410 = ELLIPSE('',#411,31.257956609458,18.8);
#411 = AXIS2_PLACEMENT_3D('',#412,#413,#414);
#412 = CARTESIAN_POINT('',(0.,0.,-21.43858325374));
#413 = DIRECTION('',(7.635879778443E-02,-0.795255306761,-0.60144686471)
  );
#414 = DIRECTION('',(5.748532164119E-02,-0.598693384685,0.798912804335)
  );
#415 = PCURVE('',#33,#416);
#416 = DEFINITIONAL_REPRESENTATION('',(#417),#425);
#417 = B_SPLINE_CURVE_WITH_KNOTS('',6,(#418,#419,#420,#421,#422,#423,
    #424),.UNSPECIFIED.,.F.,.F.,(7,7),(5.299487120256,5.673563109679),
  .PIECEWISE_BEZIER_KNOTS.);
#418 = CARTESIAN_POINT('',(5.791811678272,6.344802955036));
#419 = CARTESIAN_POINT('',(5.729465680035,7.641026004377));
#420 = CARTESIAN_POINT('',(5.667119681798,8.872724195683));
#421 = CARTESIAN_POINT('',(5.604773683561,10.030828477186));
#422 = CARTESIAN_POINT('',(5.542427685324,11.107021493244));
#423 = CARTESIAN_POINT('',(5.480081687087,12.093952058559));
#424 = CARTESIAN_POINT('',(5.417735688849,12.985383297684));
#425 = ( GEOMETRIC_REPRESENTATION_CONTEXT(2) 
PARAMETRIC_REPRESENTATION_CONTEXT() REPRESENTATION_CONTEXT('2D SPACE',''
  ) );
#426 = PCURVE('',#427,#432);
#427 = PLANE('',#428);
#428 = AXIS2_PLACEMENT_3D('',#429,#430,#431);
#429 = CARTESIAN_POINT('',(52.152,-7.12880515584,-5.391472994467));
#430 = DIRECTION('',(7.635879778443E-02,-0.795255306761,-0.60144686471)
  );
#431 = DIRECTION('',(-0.997080404983,-6.090254993727E-02,
    -4.606023675819E-02));
#432 = DEFINITIONAL_REPRESENTATION('',(#433),#437);
#433 = ELLIPSE('',#434,31.257956609458,18.8);
#434 = AXIS2_PLACEMENT_2D('',#435,#436);
#435 = CARTESIAN_POINT('',(52.3047085665,17.099069459971));
#436 = DIRECTION('',(-5.765364694152E-02,-0.998336645122));
#437 = ( GEOMETRIC_REPRESENTATION_CONTEXT(2) 
PARAMETRIC_REPRESENTATION_CONTEXT() REPRESENTATION_CONTEXT('2D SPACE',''
  ) );
#438 = ADVANCED_FACE('',(#439),#50,.F.);
#439 = FACE_BOUND('',#440,.F.);
#440 = EDGE_LOOP('',(#441,#464,#465,#466,#489,#517));
#441 = ORIENTED_EDGE('',*,*,#442,.T.);
#442 = EDGE_CURVE('',#443,#24,#445,.T.);
#443 = VERTEX_POINT('',#444);
#444 = CARTESIAN_POINT('',(52.152,-11.44174226821,0.311252096633));
#445 = SURFACE_CURVE('',#446,(#450,#457),.PCURVE_S1.);
#446 = LINE('',#447,#448);
#447 = CARTESIAN_POINT('',(52.152,-11.44174226821,0.311252096633));
#448 = VECTOR('',#449,1.);
#449 = DIRECTION('',(-0.997080404983,-6.090254993727E-02,
    -4.606023675819E-02));
#450 = PCURVE('',#50,#451);
#451 = DEFINITIONAL_REPRESENTATION('',(#452),#456);
#452 = LINE('',#453,#454);
#453 = CARTESIAN_POINT('',(8.938,-18.70531121339));
#454 = VECTOR('',#455,1.);
#455 = DIRECTION('',(7.635879778443E-02,0.997080404983));
#456 = ( GEOMETRIC_REPRESENTATION_CONTEXT(2) 
PARAMETRIC_REPRESENTATION_CONTEXT() REPRESENTATION_CONTEXT('2D SPACE',''
  ) );
#457 = PCURVE('',#427,#458);
#458 = DEFINITIONAL_REPRESENTATION('',(#459),#463);
#459 = LINE('',#460,#461);
#460 = CARTESIAN_POINT('',(2.304599277936E-16,-7.15));
#461 = VECTOR('',#462,1.);
#462 = DIRECTION('',(1.,-1.04229020994E-17));
#463 = ( GEOMETRIC_REPRESENTATION_CONTEXT(2) 
PARAMETRIC_REPRESENTATION_CONTEXT() REPRESENTATION_CONTEXT('2D SPACE',''
  ) );
#464 = ORIENTED_EDGE('',*,*,#21,.F.);
#465 = ORIENTED_EDGE('',*,*,#237,.F.);
#466 = ORIENTED_EDGE('',*,*,#467,.T.);
#467 = EDGE_CURVE('',#238,#468,#470,.T.);
#468 = VERTEX_POINT('',#469);
#469 = CARTESIAN_POINT('',(52.152,2.815868043461,11.094198085568));
#470 = SURFACE_CURVE('',#471,(#475,#482),.PCURVE_S1.);
#471 = LINE('',#472,#473);
#472 = CARTESIAN_POINT('',(5.64,5.656861997937,13.242824937916));
#473 = VECTOR('',#474,1.);
#474 = DIRECTION('',(0.997080404983,-6.090254993727E-02,
    -4.606023675819E-02));
#475 = PCURVE('',#50,#476);
#476 = DEFINITIONAL_REPRESENTATION('',(#477),#481);
#477 = LINE('',#478,#479);
#478 = CARTESIAN_POINT('',(-12.5,27.806688786608));
#479 = VECTOR('',#480,1.);
#480 = DIRECTION('',(7.635879778443E-02,-0.997080404983));
#481 = ( GEOMETRIC_REPRESENTATION_CONTEXT(2) 
PARAMETRIC_REPRESENTATION_CONTEXT() REPRESENTATION_CONTEXT('2D SPACE',''
  ) );
#482 = PCURVE('',#284,#483);
#483 = DEFINITIONAL_REPRESENTATION('',(#484),#488);
#484 = LINE('',#485,#486);
#485 = CARTESIAN_POINT('',(6.392647409984E-17,-7.15));
#486 = VECTOR('',#487,1.);
#487 = DIRECTION('',(1.,-1.04229020994E-17));
#488 = ( GEOMETRIC_REPRESENTATION_CONTEXT(2) 
PARAMETRIC_REPRESENTATION_CONTEXT() REPRESENTATION_CONTEXT('2D SPACE',''
  ) );
#489 = ORIENTED_EDGE('',*,*,#490,.T.);
#490 = EDGE_CURVE('',#468,#491,#493,.T.);
#491 = VERTEX_POINT('',#492);
#492 = CARTESIAN_POINT('',(70.24,-4.312937112379,5.7027250911));
#493 = SURFACE_CURVE('',#494,(#498,#505),.PCURVE_S1.);
#494 = LINE('',#495,#496);
#495 = CARTESIAN_POINT('',(52.152,2.815868043461,11.094198085568));
#496 = VECTOR('',#497,1.);
#497 = DIRECTION('',(0.896518841362,-0.353334151847,-0.267224520247));
#498 = PCURVE('',#50,#499);
#499 = DEFINITIONAL_REPRESENTATION('',(#500),#504);
#500 = LINE('',#501,#502);
#501 = CARTESIAN_POINT('',(-8.938,-18.70531121339));
#502 = VECTOR('',#503,1.);
#503 = DIRECTION('',(0.443005606153,-0.896518841362));
#504 = ( GEOMETRIC_REPRESENTATION_CONTEXT(2) 
PARAMETRIC_REPRESENTATION_CONTEXT() REPRESENTATION_CONTEXT('2D SPACE',''
  ) );
#505 = PCURVE('',#506,#511);
#506 = PLANE('',#507);
#507 = AXIS2_PLACEMENT_3D('',#508,#509,#510);
#508 = CARTESIAN_POINT('',(52.152,7.12880515584,5.391472994467));
#509 = DIRECTION('',(0.443005606153,0.715049019759,0.540787326274));
#510 = DIRECTION('',(0.896518841362,-0.353334151847,-0.267224520247));
#511 = DEFINITIONAL_REPRESENTATION('',(#512),#516);
#512 = LINE('',#513,#514);
#513 = CARTESIAN_POINT('',(-2.813419157264E-16,-7.15));
#514 = VECTOR('',#515,1.);
#515 = DIRECTION('',(1.,-6.88438830693E-17));
#516 = ( GEOMETRIC_REPRESENTATION_CONTEXT(2) 
PARAMETRIC_REPRESENTATION_CONTEXT() REPRESENTATION_CONTEXT('2D SPACE',''
  ) );
#517 = ORIENTED_EDGE('',*,*,#518,.T.);
#518 = EDGE_CURVE('',#491,#443,#519,.T.);
#519 = SURFACE_CURVE('',#520,(#524,#531),.PCURVE_S1.);
#520 = LINE('',#521,#522);
#521 = CARTESIAN_POINT('',(70.24,-4.312937112379,5.7027250911));
#522 = VECTOR('',#523,1.);
#523 = DIRECTION('',(-0.896518841362,-0.353334151847,-0.267224520247));
#524 = PCURVE('',#50,#525);
#525 = DEFINITIONAL_REPRESENTATION('',(#526),#530);
#526 = LINE('',#527,#528);
#527 = CARTESIAN_POINT('',(-6.099666601314E-16,-36.79331121339));
#528 = VECTOR('',#529,1.);
#529 = DIRECTION('',(0.443005606153,0.896518841362));
#530 = ( GEOMETRIC_REPRESENTATION_CONTEXT(2) 
PARAMETRIC_REPRESENTATION_CONTEXT() REPRESENTATION_CONTEXT('2D SPACE',''
  ) );
#531 = PCURVE('',#532,#537);
#532 = PLANE('',#533);
#533 = AXIS2_PLACEMENT_3D('',#534,#535,#536);
#534 = CARTESIAN_POINT('',(70.24,0.,0.));
#535 = DIRECTION('',(0.443005606153,-0.715049019759,-0.540787326274));
#536 = DIRECTION('',(-0.896518841362,-0.353334151847,-0.267224520247));
#537 = DEFINITIONAL_REPRESENTATION('',(#538),#542);
#538 = LINE('',#539,#540);
#539 = CARTESIAN_POINT('',(-2.966403628998E-16,-7.15));
#540 = VECTOR('',#541,1.);
#541 = DIRECTION('',(1.,-6.88438830693E-17));
#542 = ( GEOMETRIC_REPRESENTATION_CONTEXT(2) 
PARAMETRIC_REPRESENTATION_CONTEXT() REPRESENTATION_CONTEXT('2D SPACE',''
  ) );
#543 = ADVANCED_FACE('',(#544),#427,.T.);
#544 = FACE_BOUND('',#545,.T.);
#545 = EDGE_LOOP('',(#546,#569,#590,#591));
#546 = ORIENTED_EDGE('',*,*,#547,.F.);
#547 = EDGE_CURVE('',#548,#381,#550,.T.);
#548 = VERTEX_POINT('',#549);
#549 = CARTESIAN_POINT('',(52.152,-7.12880515584,-5.391472994467));
#550 = SURFACE_CURVE('',#551,(#555,#562),.PCURVE_S1.);
#551 = LINE('',#552,#553);
#552 = CARTESIAN_POINT('',(52.152,-7.12880515584,-5.391472994467));
#553 = VECTOR('',#554,1.);
#554 = DIRECTION('',(-0.997080404983,-6.090254993727E-02,
    -4.606023675819E-02));
#555 = PCURVE('',#427,#556);
#556 = DEFINITIONAL_REPRESENTATION('',(#557),#561);
#557 = LINE('',#558,#559);
#558 = CARTESIAN_POINT('',(-0.,0.));
#559 = VECTOR('',#560,1.);
#560 = DIRECTION('',(1.,-1.04229020994E-17));
#561 = ( GEOMETRIC_REPRESENTATION_CONTEXT(2) 
PARAMETRIC_REPRESENTATION_CONTEXT() REPRESENTATION_CONTEXT('2D SPACE',''
  ) );
#562 = PCURVE('',#317,#563);
#563 = DEFINITIONAL_REPRESENTATION('',(#564),#568);
#564 = LINE('',#565,#566);
#565 = CARTESIAN_POINT('',(8.938,-18.70531121339));
#566 = VECTOR('',#567,1.);
#567 = DIRECTION('',(7.635879778443E-02,0.997080404983));
#568 = ( GEOMETRIC_REPRESENTATION_CONTEXT(2) 
PARAMETRIC_REPRESENTATION_CONTEXT() REPRESENTATION_CONTEXT('2D SPACE',''
  ) );
#569 = ORIENTED_EDGE('',*,*,#570,.T.);
#570 = EDGE_CURVE('',#548,#443,#571,.T.);
#571 = SURFACE_CURVE('',#572,(#576,#583),.PCURVE_S1.);
#572 = LINE('',#573,#574);
#573 = CARTESIAN_POINT('',(52.152,-7.12880515584,-5.391472994467));
#574 = VECTOR('',#575,1.);
#575 = DIRECTION('',(0.,-0.603207987745,0.797583928825));
#576 = PCURVE('',#427,#577);
#577 = DEFINITIONAL_REPRESENTATION('',(#578),#582);
#578 = LINE('',#579,#580);
#579 = CARTESIAN_POINT('',(-4.09097082949E-17,-7.083968334822E-16));
#580 = VECTOR('',#581,1.);
#581 = DIRECTION('',(3.306476417816E-17,-1.));
#582 = ( GEOMETRIC_REPRESENTATION_CONTEXT(2) 
PARAMETRIC_REPRESENTATION_CONTEXT() REPRESENTATION_CONTEXT('2D SPACE',''
  ) );
#583 = PCURVE('',#532,#584);
#584 = DEFINITIONAL_REPRESENTATION('',(#585),#589);
#585 = LINE('',#586,#587);
#586 = CARTESIAN_POINT('',(20.175816910351,-1.674452564527E-15));
#587 = VECTOR('',#588,1.);
#588 = DIRECTION('',(-3.285437615127E-17,-1.));
#589 = ( GEOMETRIC_REPRESENTATION_CONTEXT(2) 
PARAMETRIC_REPRESENTATION_CONTEXT() REPRESENTATION_CONTEXT('2D SPACE',''
  ) );
#590 = ORIENTED_EDGE('',*,*,#442,.T.);
#591 = ORIENTED_EDGE('',*,*,#408,.F.);
#592 = ADVANCED_FACE('',(#593),#317,.T.);
#593 = FACE_BOUND('',#594,.T.);
#594 = EDGE_LOOP('',(#595,#596,#597,#598,#621,#644));
#595 = ORIENTED_EDGE('',*,*,#547,.T.);
#596 = ORIENTED_EDGE('',*,*,#380,.F.);
#597 = ORIENTED_EDGE('',*,*,#296,.F.);
#598 = ORIENTED_EDGE('',*,*,#599,.T.);
#599 = EDGE_CURVE('',#265,#600,#602,.T.);
#600 = VERTEX_POINT('',#601);
#601 = CARTESIAN_POINT('',(52.152,7.12880515584,5.391472994467));
#602 = SURFACE_CURVE('',#603,(#607,#614),.PCURVE_S1.);
#603 = LINE('',#604,#605);
#604 = CARTESIAN_POINT('',(5.64,9.969799110315,7.540099846816));
#605 = VECTOR('',#606,1.);
#606 = DIRECTION('',(0.997080404983,-6.090254993727E-02,
    -4.606023675819E-02));
#607 = PCURVE('',#317,#608);
#608 = DEFINITIONAL_REPRESENTATION('',(#609),#613);
#609 = LINE('',#610,#611);
#610 = CARTESIAN_POINT('',(-12.5,27.806688786608));
#611 = VECTOR('',#612,1.);
#612 = DIRECTION('',(7.635879778443E-02,-0.997080404983));
#613 = ( GEOMETRIC_REPRESENTATION_CONTEXT(2) 
PARAMETRIC_REPRESENTATION_CONTEXT() REPRESENTATION_CONTEXT('2D SPACE',''
  ) );
#614 = PCURVE('',#284,#615);
#615 = DEFINITIONAL_REPRESENTATION('',(#616),#620);
#616 = LINE('',#617,#618);
#617 = CARTESIAN_POINT('',(0.,0.));
#618 = VECTOR('',#619,1.);
#619 = DIRECTION('',(1.,-1.04229020994E-17));
#620 = ( GEOMETRIC_REPRESENTATION_CONTEXT(2) 
PARAMETRIC_REPRESENTATION_CONTEXT() REPRESENTATION_CONTEXT('2D SPACE',''
  ) );
#621 = ORIENTED_EDGE('',*,*,#622,.T.);
#622 = EDGE_CURVE('',#600,#623,#625,.T.);
#623 = VERTEX_POINT('',#624);
#624 = CARTESIAN_POINT('',(70.24,0.,0.));
#625 = SURFACE_CURVE('',#626,(#630,#637),.PCURVE_S1.);
#626 = LINE('',#627,#628);
#627 = CARTESIAN_POINT('',(52.152,7.12880515584,5.391472994467));
#628 = VECTOR('',#629,1.);
#629 = DIRECTION('',(0.896518841362,-0.353334151847,-0.267224520247));
#630 = PCURVE('',#317,#631);
#631 = DEFINITIONAL_REPRESENTATION('',(#632),#636);
#632 = LINE('',#633,#634);
#633 = CARTESIAN_POINT('',(-8.938,-18.70531121339));
#634 = VECTOR('',#635,1.);
#635 = DIRECTION('',(0.443005606153,-0.896518841362));
#636 = ( GEOMETRIC_REPRESENTATION_CONTEXT(2) 
PARAMETRIC_REPRESENTATION_CONTEXT() REPRESENTATION_CONTEXT('2D SPACE',''
  ) );
#637 = PCURVE('',#506,#638);
#638 = DEFINITIONAL_REPRESENTATION('',(#639),#643);
#639 = LINE('',#640,#641);
#640 = CARTESIAN_POINT('',(0.,0.));
#641 = VECTOR('',#642,1.);
#642 = DIRECTION('',(1.,-6.88438830693E-17));
#643 = ( GEOMETRIC_REPRESENTATION_CONTEXT(2) 
PARAMETRIC_REPRESENTATION_CONTEXT() REPRESENTATION_CONTEXT('2D SPACE',''
  ) );
#644 = ORIENTED_EDGE('',*,*,#645,.T.);
#645 = EDGE_CURVE('',#623,#548,#646,.T.);
#646 = SURFACE_CURVE('',#647,(#651,#658),.PCURVE_S1.);
#647 = LINE('',#648,#649);
#648 = CARTESIAN_POINT('',(70.24,0.,0.));
#649 = VECTOR('',#650,1.);
#650 = DIRECTION('',(-0.896518841362,-0.353334151847,-0.267224520247));
#651 = PCURVE('',#317,#652);
#652 = DEFINITIONAL_REPRESENTATION('',(#653),#657);
#653 = LINE('',#654,#655);
#654 = CARTESIAN_POINT('',(-6.099666601314E-16,-36.79331121339));
#655 = VECTOR('',#656,1.);
#656 = DIRECTION('',(0.443005606153,0.896518841362));
#657 = ( GEOMETRIC_REPRESENTATION_CONTEXT(2) 
PARAMETRIC_REPRESENTATION_CONTEXT() REPRESENTATION_CONTEXT('2D SPACE',''
  ) );
#658 = PCURVE('',#532,#659);
#659 = DEFINITIONAL_REPRESENTATION('',(#660),#664);
#660 = LINE('',#661,#662);
#661 = CARTESIAN_POINT('',(-0.,0.));
#662 = VECTOR('',#663,1.);
#663 = DIRECTION('',(1.,-6.88438830693E-17));
#664 = ( GEOMETRIC_REPRESENTATION_CONTEXT(2) 
PARAMETRIC_REPRESENTATION_CONTEXT() REPRESENTATION_CONTEXT('2D SPACE',''
  ) );
#665 = ADVANCED_FACE('',(#666),#367,.F.);
#666 = FACE_BOUND('',#667,.T.);
#667 = EDGE_LOOP('',(#668));
#668 = ORIENTED_EDGE('',*,*,#352,.F.);
#669 = ADVANCED_FACE('',(#670),#284,.T.);
#670 = FACE_BOUND('',#671,.T.);
#671 = EDGE_LOOP('',(#672,#673,#674,#675));
#672 = ORIENTED_EDGE('',*,*,#599,.F.);
#673 = ORIENTED_EDGE('',*,*,#264,.F.);
#674 = ORIENTED_EDGE('',*,*,#467,.T.);
#675 = ORIENTED_EDGE('',*,*,#676,.F.);
#676 = EDGE_CURVE('',#600,#468,#677,.T.);
#677 = SURFACE_CURVE('',#678,(#682,#689),.PCURVE_S1.);
#678 = LINE('',#679,#680);
#679 = CARTESIAN_POINT('',(52.152,7.12880515584,5.391472994467));
#680 = VECTOR('',#681,1.);
#681 = DIRECTION('',(0.,-0.603207987745,0.797583928825));
#682 = PCURVE('',#284,#683);
#683 = DEFINITIONAL_REPRESENTATION('',(#684),#688);
#684 = LINE('',#685,#686);
#685 = CARTESIAN_POINT('',(46.648193834274,-2.809183324515E-16));
#686 = VECTOR('',#687,1.);
#687 = DIRECTION('',(1.224808246644E-17,-1.));
#688 = ( GEOMETRIC_REPRESENTATION_CONTEXT(2) 
PARAMETRIC_REPRESENTATION_CONTEXT() REPRESENTATION_CONTEXT('2D SPACE',''
  ) );
#689 = PCURVE('',#506,#690);
#690 = DEFINITIONAL_REPRESENTATION('',(#691),#695);
#691 = LINE('',#692,#693);
#692 = CARTESIAN_POINT('',(0.,0.));
#693 = VECTOR('',#694,1.);
#694 = DIRECTION('',(-3.285437615127E-17,-1.));
#695 = ( GEOMETRIC_REPRESENTATION_CONTEXT(2) 
PARAMETRIC_REPRESENTATION_CONTEXT() REPRESENTATION_CONTEXT('2D SPACE',''
  ) );
#696 = ADVANCED_FACE('',(#697),#102,.T.);
#697 = FACE_BOUND('',#698,.T.);
#698 = EDGE_LOOP('',(#699,#700,#701,#722,#751,#775));
#699 = ORIENTED_EDGE('',*,*,#85,.T.);
#700 = ORIENTED_EDGE('',*,*,#214,.T.);
#701 = ORIENTED_EDGE('',*,*,#702,.T.);
#702 = EDGE_CURVE('',#182,#703,#705,.T.);
#703 = VERTEX_POINT('',#704);
#704 = CARTESIAN_POINT('',(-15.34608530039,7.126293984464,13.95));
#705 = SURFACE_CURVE('',#706,(#710,#716),.PCURVE_S1.);
#706 = LINE('',#707,#708);
#707 = CARTESIAN_POINT('',(-16.7233443933,7.126293984464,13.95));
#708 = VECTOR('',#709,1.);
#709 = DIRECTION('',(1.,0.,0.));
#710 = PCURVE('',#102,#711);
#711 = DEFINITIONAL_REPRESENTATION('',(#712),#715);
#712 = B_SPLINE_CURVE_WITH_KNOTS('',1,(#713,#714),.UNSPECIFIED.,.F.,.F.,
  (2,2),(-2.076655606696,11.083344393304),.PIECEWISE_BEZIER_KNOTS.);
#713 = CARTESIAN_POINT('',(-18.8,7.126293984464));
#714 = CARTESIAN_POINT('',(-5.64,7.126293984464));
#715 = ( GEOMETRIC_REPRESENTATION_CONTEXT(2) 
PARAMETRIC_REPRESENTATION_CONTEXT() REPRESENTATION_CONTEXT('2D SPACE',''
  ) );
#716 = PCURVE('',#202,#717);
#717 = DEFINITIONAL_REPRESENTATION('',(#718),#721);
#718 = B_SPLINE_CURVE_WITH_KNOTS('',1,(#719,#720),.UNSPECIFIED.,.F.,.F.,
  (2,2),(-2.076655606696,11.083344393304),.PIECEWISE_BEZIER_KNOTS.);
#719 = CARTESIAN_POINT('',(-3.527348997903,-14.6466887866));
#720 = CARTESIAN_POINT('',(-3.527348997903,-27.8066887866));
#721 = ( GEOMETRIC_REPRESENTATION_CONTEXT(2) 
PARAMETRIC_REPRESENTATION_CONTEXT() REPRESENTATION_CONTEXT('2D SPACE',''
  ) );
#722 = ORIENTED_EDGE('',*,*,#723,.F.);
#723 = EDGE_CURVE('',#724,#703,#726,.T.);
#724 = VERTEX_POINT('',#725);
#725 = CARTESIAN_POINT('',(16.92,0.,13.95));
#726 = SURFACE_CURVE('',#727,(#732,#739),.PCURVE_S1.);
#727 = CIRCLE('',#728,16.92);
#728 = AXIS2_PLACEMENT_3D('',#729,#730,#731);
#729 = CARTESIAN_POINT('',(0.,0.,13.95));
#730 = DIRECTION('',(0.,0.,1.));
#731 = DIRECTION('',(1.,0.,0.));
#732 = PCURVE('',#102,#733);
#733 = DEFINITIONAL_REPRESENTATION('',(#734),#738);
#734 = CIRCLE('',#735,16.92);
#735 = AXIS2_PLACEMENT_2D('',#736,#737);
#736 = CARTESIAN_POINT('',(0.,0.));
#737 = DIRECTION('',(1.,0.));
#738 = ( GEOMETRIC_REPRESENTATION_CONTEXT(2) 
PARAMETRIC_REPRESENTATION_CONTEXT() REPRESENTATION_CONTEXT('2D SPACE',''
  ) );
#739 = PCURVE('',#740,#745);
#740 = CONICAL_SURFACE('',#741,16.92,1.042479981905);
#741 = AXIS2_PLACEMENT_3D('',#742,#743,#744);
#742 = CARTESIAN_POINT('',(0.,0.,13.95));
#743 = DIRECTION('',(-0.,-0.,-1.));
#744 = DIRECTION('',(1.,0.,0.));
#745 = DEFINITIONAL_REPRESENTATION('',(#746),#750);
#746 = LINE('',#747,#748);
#747 = CARTESIAN_POINT('',(-0.,-0.));
#748 = VECTOR('',#749,1.);
#749 = DIRECTION('',(-1.,-0.));
#750 = ( GEOMETRIC_REPRESENTATION_CONTEXT(2) 
PARAMETRIC_REPRESENTATION_CONTEXT() REPRESENTATION_CONTEXT('2D SPACE',''
  ) );
#751 = ORIENTED_EDGE('',*,*,#752,.F.);
#752 = EDGE_CURVE('',#753,#724,#755,.T.);
#753 = VERTEX_POINT('',#754);
#754 = CARTESIAN_POINT('',(-16.24628869227,-4.726997326757,13.95));
#755 = SURFACE_CURVE('',#756,(#761,#768),.PCURVE_S1.);
#756 = CIRCLE('',#757,16.92);
#757 = AXIS2_PLACEMENT_3D('',#758,#759,#760);
#758 = CARTESIAN_POINT('',(0.,0.,13.95));
#759 = DIRECTION('',(0.,0.,1.));
#760 = DIRECTION('',(1.,0.,0.));
#761 = PCURVE('',#102,#762);
#762 = DEFINITIONAL_REPRESENTATION('',(#763),#767);
#763 = CIRCLE('',#764,16.92);
#764 = AXIS2_PLACEMENT_2D('',#765,#766);
#765 = CARTESIAN_POINT('',(0.,0.));
#766 = DIRECTION('',(1.,0.));
#767 = ( GEOMETRIC_REPRESENTATION_CONTEXT(2) 
PARAMETRIC_REPRESENTATION_CONTEXT() REPRESENTATION_CONTEXT('2D SPACE',''
  ) );
#768 = PCURVE('',#740,#769);
#769 = DEFINITIONAL_REPRESENTATION('',(#770),#774);
#770 = LINE('',#771,#772);
#771 = CARTESIAN_POINT('',(-0.,-0.));
#772 = VECTOR('',#773,1.);
#773 = DIRECTION('',(-1.,-0.));
#774 = ( GEOMETRIC_REPRESENTATION_CONTEXT(2) 
PARAMETRIC_REPRESENTATION_CONTEXT() REPRESENTATION_CONTEXT('2D SPACE',''
  ) );
#775 = ORIENTED_EDGE('',*,*,#776,.F.);
#776 = EDGE_CURVE('',#86,#753,#777,.T.);
#777 = SURFACE_CURVE('',#778,(#782,#788),.PCURVE_S1.);
#778 = LINE('',#779,#780);
#779 = CARTESIAN_POINT('',(-16.7233443933,-4.726997326757,13.95));
#780 = VECTOR('',#781,1.);
#781 = DIRECTION('',(1.,0.,0.));
#782 = PCURVE('',#102,#783);
#783 = DEFINITIONAL_REPRESENTATION('',(#784),#787);
#784 = B_SPLINE_CURVE_WITH_KNOTS('',1,(#785,#786),.UNSPECIFIED.,.F.,.F.,
  (2,2),(-2.076655606696,11.083344393304),.PIECEWISE_BEZIER_KNOTS.);
#785 = CARTESIAN_POINT('',(-18.8,-4.726997326757));
#786 = CARTESIAN_POINT('',(-5.64,-4.726997326757));
#787 = ( GEOMETRIC_REPRESENTATION_CONTEXT(2) 
PARAMETRIC_REPRESENTATION_CONTEXT() REPRESENTATION_CONTEXT('2D SPACE',''
  ) );
#788 = PCURVE('',#136,#789);
#789 = DEFINITIONAL_REPRESENTATION('',(#790),#793);
#790 = B_SPLINE_CURVE_WITH_KNOTS('',1,(#791,#792),.UNSPECIFIED.,.F.,.F.,
  (2,2),(-2.076655606696,11.083344393304),.PIECEWISE_BEZIER_KNOTS.);
#791 = CARTESIAN_POINT('',(5.92664565561,-14.6466887866));
#792 = CARTESIAN_POINT('',(5.92664565561,-27.8066887866));
#793 = ( GEOMETRIC_REPRESENTATION_CONTEXT(2) 
PARAMETRIC_REPRESENTATION_CONTEXT() REPRESENTATION_CONTEXT('2D SPACE',''
  ) );
#794 = ADVANCED_FACE('',(#795),#202,.F.);
#795 = FACE_BOUND('',#796,.F.);
#796 = EDGE_LOOP('',(#797,#841,#869,#897,#925,#953,#974,#975));
#797 = ORIENTED_EDGE('',*,*,#798,.T.);
#798 = EDGE_CURVE('',#703,#799,#801,.T.);
#799 = VERTEX_POINT('',#800);
#800 = CARTESIAN_POINT('',(-5.64,-1.439356543202,20.42815061436));
#801 = SURFACE_CURVE('',#802,(#807,#814),.PCURVE_S1.);
#802 = HYPERBOLA('',#803,14.190930264873,9.32695679152);
#803 = AXIS2_PLACEMENT_3D('',#804,#805,#806);
#804 = CARTESIAN_POINT('',(0.,-14.66627466501,30.431590222379));
#805 = DIRECTION('',(0.,-0.603207987745,-0.797583928825));
#806 = DIRECTION('',(0.,0.797583928825,-0.603207987745));
#807 = PCURVE('',#202,#808);
#808 = DEFINITIONAL_REPRESENTATION('',(#809),#813);
#809 = ( BOUNDED_CURVE() B_SPLINE_CURVE(2,(#810,#811,#812),
.UNSPECIFIED.,.F.,.F.) B_SPLINE_CURVE_WITH_KNOTS((3,3),(-1.272775207477,
8.780434171364E-02),.PIECEWISE_BEZIER_KNOTS.) CURVE() 
GEOMETRIC_REPRESENTATION_ITEM() RATIONAL_B_SPLINE_CURVE((1.,
1.240460001816,1.)) REPRESENTATION_ITEM('') );
#810 = CARTESIAN_POINT('',(-3.527348997903,-18.10060348621));
#811 = CARTESIAN_POINT('',(10.288442305527,-28.72656852323));
#812 = CARTESIAN_POINT('',(9.550211763532,-34.2666887866));
#813 = ( GEOMETRIC_REPRESENTATION_CONTEXT(2) 
PARAMETRIC_REPRESENTATION_CONTEXT() REPRESENTATION_CONTEXT('2D SPACE',''
  ) );
#814 = PCURVE('',#740,#815);
#815 = DEFINITIONAL_REPRESENTATION('',(#816),#840);
#816 = B_SPLINE_CURVE_WITH_KNOTS('',8,(#817,#818,#819,#820,#821,#822,
    #823,#824,#825,#826,#827,#828,#829,#830,#831,#832,#833,#834,#835,
    #836,#837,#838,#839),.UNSPECIFIED.,.F.,.F.,(9,7,7,9),(
    -1.272775207477,-0.592485432882,-0.252340545584,8.780434171364E-02),
  .UNSPECIFIED.);
#817 = CARTESIAN_POINT('',(-2.706851367465,-3.352146583968E-15));
#818 = CARTESIAN_POINT('',(-2.753726613722,-1.197676557278));
#819 = CARTESIAN_POINT('',(-2.807098634437,-2.259146257925));
#820 = CARTESIAN_POINT('',(-2.868209174231,-3.197606187939));
#821 = CARTESIAN_POINT('',(-2.938605884002,-4.024152258015));
#822 = CARTESIAN_POINT('',(-3.020300240488,-4.748084513002));
#823 = CARTESIAN_POINT('',(-3.115738488987,-5.377131658212));
#824 = CARTESIAN_POINT('',(-3.228240935083,-5.917617415751));
#825 = CARTESIAN_POINT('',(-3.42658191001,-6.603056760161));
#826 = CARTESIAN_POINT('',(-3.497626500413,-6.810654993105));
#827 = CARTESIAN_POINT('',(-3.573936026119,-6.998001076683));
#828 = CARTESIAN_POINT('',(-3.655796772185,-7.165643879165));
#829 = CARTESIAN_POINT('',(-3.743416810151,-7.314055375149));
#830 = CARTESIAN_POINT('',(-3.836825388822,-7.443633515923));
#831 = CARTESIAN_POINT('',(-3.935766970658,-7.554704381726));
#832 = CARTESIAN_POINT('',(-4.143542375775,-7.740342947664));
#833 = CARTESIAN_POINT('',(-4.252377151888,-7.814910647794));
#834 = CARTESIAN_POINT('',(-4.365568924108,-7.871482456594));
#835 = CARTESIAN_POINT('',(-4.482222129173,-7.910243677364));
#836 = CARTESIAN_POINT('',(-4.601049815023,-7.931310700848));
#837 = CARTESIAN_POINT('',(-4.720530715922,-7.934731810973));
#838 = CARTESIAN_POINT('',(-4.839160271484,-7.920487329887));
#839 = CARTESIAN_POINT('',(-4.955646555353,-7.888489111522));
#840 = ( GEOMETRIC_REPRESENTATION_CONTEXT(2) 
PARAMETRIC_REPRESENTATION_CONTEXT() REPRESENTATION_CONTEXT('2D SPACE',''
  ) );
#841 = ORIENTED_EDGE('',*,*,#842,.T.);
#842 = EDGE_CURVE('',#799,#843,#845,.T.);
#843 = VERTEX_POINT('',#844);
#844 = CARTESIAN_POINT('',(-5.64,-5.656861997937,23.617824937916));
#845 = SURFACE_CURVE('',#846,(#850,#857),.PCURVE_S1.);
#846 = LINE('',#847,#848);
#847 = CARTESIAN_POINT('',(-5.64,14.282736222694,8.537625244284));
#848 = VECTOR('',#849,1.);
#849 = DIRECTION('',(-7.105427357601E-17,-0.797583928825,0.603207987745)
  );
#850 = PCURVE('',#202,#851);
#851 = DEFINITIONAL_REPRESENTATION('',(#852),#856);
#852 = LINE('',#853,#854);
#853 = CARTESIAN_POINT('',(-12.5,-27.8066887866));
#854 = VECTOR('',#855,1.);
#855 = DIRECTION('',(1.,7.105427357601E-17));
#856 = ( GEOMETRIC_REPRESENTATION_CONTEXT(2) 
PARAMETRIC_REPRESENTATION_CONTEXT() REPRESENTATION_CONTEXT('2D SPACE',''
  ) );
#857 = PCURVE('',#858,#863);
#858 = PLANE('',#859);
#859 = AXIS2_PLACEMENT_3D('',#860,#861,#862);
#860 = CARTESIAN_POINT('',(-5.64,9.969799110315,2.834900153184));
#861 = DIRECTION('',(1.,-1.012317299855E-16,-1.605835390839E-17));
#862 = DIRECTION('',(-7.105427357601E-17,-0.797583928825,0.603207987745)
  );
#863 = DEFINITIONAL_REPRESENTATION('',(#864),#868);
#864 = LINE('',#865,#866);
#865 = CARTESIAN_POINT('',(6.786252456444E-17,-7.15));
#866 = VECTOR('',#867,1.);
#867 = DIRECTION('',(1.,-8.93036204381E-18));
#868 = ( GEOMETRIC_REPRESENTATION_CONTEXT(2) 
PARAMETRIC_REPRESENTATION_CONTEXT() REPRESENTATION_CONTEXT('2D SPACE',''
  ) );
#869 = ORIENTED_EDGE('',*,*,#870,.T.);
#870 = EDGE_CURVE('',#843,#871,#873,.T.);
#871 = VERTEX_POINT('',#872);
#872 = CARTESIAN_POINT('',(-52.152,-2.815868043461,21.469198085568));
#873 = SURFACE_CURVE('',#874,(#878,#885),.PCURVE_S1.);
#874 = LINE('',#875,#876);
#875 = CARTESIAN_POINT('',(-5.64,-5.656861997937,23.617824937916));
#876 = VECTOR('',#877,1.);
#877 = DIRECTION('',(-0.997080404983,6.090254993727E-02,
    -4.606023675819E-02));
#878 = PCURVE('',#202,#879);
#879 = DEFINITIONAL_REPRESENTATION('',(#880),#884);
#880 = LINE('',#881,#882);
#881 = CARTESIAN_POINT('',(12.5,-27.8066887866));
#882 = VECTOR('',#883,1.);
#883 = DIRECTION('',(-7.635879778443E-02,0.997080404983));
#884 = ( GEOMETRIC_REPRESENTATION_CONTEXT(2) 
PARAMETRIC_REPRESENTATION_CONTEXT() REPRESENTATION_CONTEXT('2D SPACE',''
  ) );
#885 = PCURVE('',#886,#891);
#886 = PLANE('',#887);
#887 = AXIS2_PLACEMENT_3D('',#888,#889,#890);
#888 = CARTESIAN_POINT('',(-5.64,-9.969799110315,17.915099846816));
#889 = DIRECTION('',(-7.635879778443E-02,-0.795255306761,0.60144686471)
  );
#890 = DIRECTION('',(-0.997080404983,6.090254993727E-02,
    -4.606023675819E-02));
#891 = DEFINITIONAL_REPRESENTATION('',(#892),#896);
#892 = LINE('',#893,#894);
#893 = CARTESIAN_POINT('',(-1.490895162522E-16,-7.15));
#894 = VECTOR('',#895,1.);
#895 = DIRECTION('',(1.,-1.314816507632E-17));
#896 = ( GEOMETRIC_REPRESENTATION_CONTEXT(2) 
PARAMETRIC_REPRESENTATION_CONTEXT() REPRESENTATION_CONTEXT('2D SPACE',''
  ) );
#897 = ORIENTED_EDGE('',*,*,#898,.T.);
#898 = EDGE_CURVE('',#871,#899,#901,.T.);
#899 = VERTEX_POINT('',#900);
#900 = CARTESIAN_POINT('',(-70.24,4.312937112379,16.0777250911));
#901 = SURFACE_CURVE('',#902,(#906,#913),.PCURVE_S1.);
#902 = LINE('',#903,#904);
#903 = CARTESIAN_POINT('',(-52.152,-2.815868043461,21.469198085568));
#904 = VECTOR('',#905,1.);
#905 = DIRECTION('',(-0.896518841362,0.353334151847,-0.267224520247));
#906 = PCURVE('',#202,#907);
#907 = DEFINITIONAL_REPRESENTATION('',(#908),#912);
#908 = LINE('',#909,#910);
#909 = CARTESIAN_POINT('',(8.938,18.705311213392));
#910 = VECTOR('',#911,1.);
#911 = DIRECTION('',(-0.443005606153,0.896518841362));
#912 = ( GEOMETRIC_REPRESENTATION_CONTEXT(2) 
PARAMETRIC_REPRESENTATION_CONTEXT() REPRESENTATION_CONTEXT('2D SPACE',''
  ) );
#913 = PCURVE('',#914,#919);
#914 = PLANE('',#915);
#915 = AXIS2_PLACEMENT_3D('',#916,#917,#918);
#916 = CARTESIAN_POINT('',(-52.152,-7.12880515584,15.766472994467));
#917 = DIRECTION('',(-0.443005606153,-0.715049019759,0.540787326274));
#918 = DIRECTION('',(-0.896518841362,0.353334151847,-0.267224520247));
#919 = DEFINITIONAL_REPRESENTATION('',(#920),#924);
#920 = LINE('',#921,#922);
#921 = CARTESIAN_POINT('',(2.57267524161E-16,-7.15));
#922 = VECTOR('',#923,1.);
#923 = DIRECTION('',(1.,-4.108830745367E-17));
#924 = ( GEOMETRIC_REPRESENTATION_CONTEXT(2) 
PARAMETRIC_REPRESENTATION_CONTEXT() REPRESENTATION_CONTEXT('2D SPACE',''
  ) );
#925 = ORIENTED_EDGE('',*,*,#926,.T.);
#926 = EDGE_CURVE('',#899,#927,#929,.T.);
#927 = VERTEX_POINT('',#928);
#928 = CARTESIAN_POINT('',(-52.152,11.441742268219,10.686252096633));
#929 = SURFACE_CURVE('',#930,(#934,#941),.PCURVE_S1.);
#930 = LINE('',#931,#932);
#931 = CARTESIAN_POINT('',(-70.24,4.312937112379,16.0777250911));
#932 = VECTOR('',#933,1.);
#933 = DIRECTION('',(0.896518841362,0.353334151847,-0.267224520247));
#934 = PCURVE('',#202,#935);
#935 = DEFINITIONAL_REPRESENTATION('',(#936),#940);
#936 = LINE('',#937,#938);
#937 = CARTESIAN_POINT('',(-2.845464599372E-15,36.793311213392));
#938 = VECTOR('',#939,1.);
#939 = DIRECTION('',(-0.443005606153,-0.896518841362));
#940 = ( GEOMETRIC_REPRESENTATION_CONTEXT(2) 
PARAMETRIC_REPRESENTATION_CONTEXT() REPRESENTATION_CONTEXT('2D SPACE',''
  ) );
#941 = PCURVE('',#942,#947);
#942 = PLANE('',#943);
#943 = AXIS2_PLACEMENT_3D('',#944,#945,#946);
#944 = CARTESIAN_POINT('',(-70.24,8.601919117211E-15,10.375));
#945 = DIRECTION('',(-0.443005606153,0.715049019759,-0.540787326274));
#946 = DIRECTION('',(0.896518841362,0.353334151847,-0.267224520247));
#947 = DEFINITIONAL_REPRESENTATION('',(#948),#952);
#948 = LINE('',#949,#950);
#949 = CARTESIAN_POINT('',(-4.088662906141E-16,-7.15));
#950 = VECTOR('',#951,1.);
#951 = DIRECTION('',(1.,1.442284377759E-17));
#952 = ( GEOMETRIC_REPRESENTATION_CONTEXT(2) 
PARAMETRIC_REPRESENTATION_CONTEXT() REPRESENTATION_CONTEXT('2D SPACE',''
  ) );
#953 = ORIENTED_EDGE('',*,*,#954,.T.);
#954 = EDGE_CURVE('',#927,#149,#955,.T.);
#955 = SURFACE_CURVE('',#956,(#960,#967),.PCURVE_S1.);
#956 = LINE('',#957,#958);
#957 = CARTESIAN_POINT('',(-52.152,11.441742268219,10.686252096633));
#958 = VECTOR('',#959,1.);
#959 = DIRECTION('',(0.997080404983,6.090254993727E-02,
    -4.606023675819E-02));
#960 = PCURVE('',#202,#961);
#961 = DEFINITIONAL_REPRESENTATION('',(#962),#966);
#962 = LINE('',#963,#964);
#963 = CARTESIAN_POINT('',(-8.938,18.705311213392));
#964 = VECTOR('',#965,1.);
#965 = DIRECTION('',(-7.635879778443E-02,-0.997080404983));
#966 = ( GEOMETRIC_REPRESENTATION_CONTEXT(2) 
PARAMETRIC_REPRESENTATION_CONTEXT() REPRESENTATION_CONTEXT('2D SPACE',''
  ) );
#967 = PCURVE('',#169,#968);
#968 = DEFINITIONAL_REPRESENTATION('',(#969),#973);
#969 = LINE('',#970,#971);
#970 = CARTESIAN_POINT('',(-7.854589195904E-16,-7.15));
#971 = VECTOR('',#972,1.);
#972 = DIRECTION('',(1.,-3.567832503219E-18));
#973 = ( GEOMETRIC_REPRESENTATION_CONTEXT(2) 
PARAMETRIC_REPRESENTATION_CONTEXT() REPRESENTATION_CONTEXT('2D SPACE',''
  ) );
#974 = ORIENTED_EDGE('',*,*,#181,.F.);
#975 = ORIENTED_EDGE('',*,*,#702,.T.);
#976 = ADVANCED_FACE('',(#977),#169,.T.);
#977 = FACE_BOUND('',#978,.T.);
#978 = EDGE_LOOP('',(#979,#1002,#1023,#1024));
#979 = ORIENTED_EDGE('',*,*,#980,.F.);
#980 = EDGE_CURVE('',#981,#115,#983,.T.);
#981 = VERTEX_POINT('',#982);
#982 = CARTESIAN_POINT('',(-52.152,7.12880515584,4.983527005533));
#983 = SURFACE_CURVE('',#984,(#988,#995),.PCURVE_S1.);
#984 = LINE('',#985,#986);
#985 = CARTESIAN_POINT('',(-52.152,7.12880515584,4.983527005533));
#986 = VECTOR('',#987,1.);
#987 = DIRECTION('',(0.997080404983,6.090254993727E-02,
    -4.606023675819E-02));
#988 = PCURVE('',#169,#989);
#989 = DEFINITIONAL_REPRESENTATION('',(#990),#994);
#990 = LINE('',#991,#992);
#991 = CARTESIAN_POINT('',(0.,-0.));
#992 = VECTOR('',#993,1.);
#993 = DIRECTION('',(1.,-3.567832503219E-18));
#994 = ( GEOMETRIC_REPRESENTATION_CONTEXT(2) 
PARAMETRIC_REPRESENTATION_CONTEXT() REPRESENTATION_CONTEXT('2D SPACE',''
  ) );
#995 = PCURVE('',#136,#996);
#996 = DEFINITIONAL_REPRESENTATION('',(#997),#1001);
#997 = LINE('',#998,#999);
#998 = CARTESIAN_POINT('',(-8.938,18.705311213392));
#999 = VECTOR('',#1000,1.);
#1000 = DIRECTION('',(-7.635879778443E-02,-0.997080404983));
#1001 = ( GEOMETRIC_REPRESENTATION_CONTEXT(2) 
PARAMETRIC_REPRESENTATION_CONTEXT() REPRESENTATION_CONTEXT('2D SPACE',''
  ) );
#1002 = ORIENTED_EDGE('',*,*,#1003,.T.);
#1003 = EDGE_CURVE('',#981,#927,#1004,.T.);
#1004 = SURFACE_CURVE('',#1005,(#1009,#1016),.PCURVE_S1.);
#1005 = LINE('',#1006,#1007);
#1006 = CARTESIAN_POINT('',(-52.152,7.12880515584,4.983527005533));
#1007 = VECTOR('',#1008,1.);
#1008 = DIRECTION('',(7.387167314124E-17,0.603207987745,0.797583928825)
  );
#1009 = PCURVE('',#169,#1010);
#1010 = DEFINITIONAL_REPRESENTATION('',(#1011),#1015);
#1011 = LINE('',#1012,#1013);
#1012 = CARTESIAN_POINT('',(-1.318262226409E-17,1.244153150788E-15));
#1013 = VECTOR('',#1014,1.);
#1014 = DIRECTION('',(-3.624035055318E-17,-1.));
#1015 = ( GEOMETRIC_REPRESENTATION_CONTEXT(2) 
PARAMETRIC_REPRESENTATION_CONTEXT() REPRESENTATION_CONTEXT('2D SPACE',''
  ) );
#1016 = PCURVE('',#942,#1017);
#1017 = DEFINITIONAL_REPRESENTATION('',(#1018),#1022);
#1018 = LINE('',#1019,#1020);
#1019 = CARTESIAN_POINT('',(20.175816910351,-7.862741448268E-16));
#1020 = VECTOR('',#1021,1.);
#1021 = DIRECTION('',(-7.184630090552E-17,-1.));
#1022 = ( GEOMETRIC_REPRESENTATION_CONTEXT(2) 
PARAMETRIC_REPRESENTATION_CONTEXT() REPRESENTATION_CONTEXT('2D SPACE',''
  ) );
#1023 = ORIENTED_EDGE('',*,*,#954,.T.);
#1024 = ORIENTED_EDGE('',*,*,#148,.F.);
#1025 = ADVANCED_FACE('',(#1026),#136,.T.);
#1026 = FACE_BOUND('',#1027,.T.);
#1027 = EDGE_LOOP('',(#1028,#1061,#1084,#1107,#1130,#1151,#1152,#1153));
#1028 = ORIENTED_EDGE('',*,*,#1029,.T.);
#1029 = EDGE_CURVE('',#753,#1030,#1032,.T.);
#1030 = VERTEX_POINT('',#1031);
#1031 = CARTESIAN_POINT('',(-5.64,-9.354759354815,17.449948933049));
#1032 = SURFACE_CURVE('',#1033,(#1038,#1045),.PCURVE_S1.);
#1033 = HYPERBOLA('',#1034,42.549851619102,27.965793653382);
#1034 = AXIS2_PLACEMENT_3D('',#1035,#1036,#1037);
#1035 = CARTESIAN_POINT('',(0.,-43.97511644081,43.633119353284));
#1036 = DIRECTION('',(0.,-0.603207987745,-0.797583928825));
#1037 = DIRECTION('',(0.,0.797583928825,-0.603207987745));
#1038 = PCURVE('',#136,#1039);
#1039 = DEFINITIONAL_REPRESENTATION('',(#1040),#1044);
#1040 = ( BOUNDED_CURVE() B_SPLINE_CURVE(2,(#1041,#1042,#1043),
.UNSPECIFIED.,.F.,.F.) B_SPLINE_CURVE_WITH_KNOTS((3,3),(-0.552407594246,
2.931733517384E-02),.PIECEWISE_BEZIER_KNOTS.) CURVE() 
GEOMETRIC_REPRESENTATION_ITEM() RATIONAL_B_SPLINE_CURVE((1.,
1.042599550818,1.)) REPRESENTATION_ITEM('') );
#1041 = CARTESIAN_POINT('',(5.92664565561,-17.20040009433));
#1042 = CARTESIAN_POINT('',(12.920259675836,-26.35097005668));
#1043 = CARTESIAN_POINT('',(12.567270534426,-34.2666887866));
#1044 = ( GEOMETRIC_REPRESENTATION_CONTEXT(2) 
PARAMETRIC_REPRESENTATION_CONTEXT() REPRESENTATION_CONTEXT('2D SPACE',''
  ) );
#1045 = PCURVE('',#740,#1046);
#1046 = DEFINITIONAL_REPRESENTATION('',(#1047),#1060);
#1047 = B_SPLINE_CURVE_WITH_KNOTS('',6,(#1048,#1049,#1050,#1051,#1052,
    #1053,#1054,#1055,#1056,#1057,#1058,#1059),.UNSPECIFIED.,.F.,.F.,(7,
    5,7),(-0.552407594246,-0.261545129536,2.931733517384E-02),
  .UNSPECIFIED.);
#1048 = CARTESIAN_POINT('',(-3.424734079528,9.027324732409E-16));
#1049 = CARTESIAN_POINT('',(-3.504858189748,-0.722817370364));
#1050 = CARTESIAN_POINT('',(-3.592020800741,-1.361927725079));
#1051 = CARTESIAN_POINT('',(-3.686741141554,-1.920386916486));
#1052 = CARTESIAN_POINT('',(-3.789402789154,-2.400665757496));
#1053 = CARTESIAN_POINT('',(-3.899897072659,-2.804681100713));
#1054 = CARTESIAN_POINT('',(-4.134635882458,-3.462972734398));
#1055 = CARTESIAN_POINT('',(-4.258880672721,-3.717248685831));
#1056 = CARTESIAN_POINT('',(-4.389058656919,-3.898047069538));
#1057 = CARTESIAN_POINT('',(-4.523406807665,-4.006232369713));
#1058 = CARTESIAN_POINT('',(-4.659212892048,-4.042160779299));
#1059 = CARTESIAN_POINT('',(-4.794015342813,-4.005677970522));
#1060 = ( GEOMETRIC_REPRESENTATION_CONTEXT(2) 
PARAMETRIC_REPRESENTATION_CONTEXT() REPRESENTATION_CONTEXT('2D SPACE',''
  ) );
#1061 = ORIENTED_EDGE('',*,*,#1062,.T.);
#1062 = EDGE_CURVE('',#1030,#1063,#1065,.T.);
#1063 = VERTEX_POINT('',#1064);
#1064 = CARTESIAN_POINT('',(-5.64,-9.969799110315,17.915099846816));
#1065 = SURFACE_CURVE('',#1066,(#1070,#1077),.PCURVE_S1.);
#1066 = LINE('',#1067,#1068);
#1067 = CARTESIAN_POINT('',(-5.64,9.969799110315,2.834900153184));
#1068 = VECTOR('',#1069,1.);
#1069 = DIRECTION('',(-7.105427357601E-17,-0.797583928825,0.603207987745
    ));
#1070 = PCURVE('',#136,#1071);
#1071 = DEFINITIONAL_REPRESENTATION('',(#1072),#1076);
#1072 = LINE('',#1073,#1074);
#1073 = CARTESIAN_POINT('',(-12.5,-27.8066887866));
#1074 = VECTOR('',#1075,1.);
#1075 = DIRECTION('',(1.,7.105427357601E-17));
#1076 = ( GEOMETRIC_REPRESENTATION_CONTEXT(2) 
PARAMETRIC_REPRESENTATION_CONTEXT() REPRESENTATION_CONTEXT('2D SPACE',''
  ) );
#1077 = PCURVE('',#858,#1078);
#1078 = DEFINITIONAL_REPRESENTATION('',(#1079),#1083);
#1079 = LINE('',#1080,#1081);
#1080 = CARTESIAN_POINT('',(0.,-0.));
#1081 = VECTOR('',#1082,1.);
#1082 = DIRECTION('',(1.,-8.93036204381E-18));
#1083 = ( GEOMETRIC_REPRESENTATION_CONTEXT(2) 
PARAMETRIC_REPRESENTATION_CONTEXT() REPRESENTATION_CONTEXT('2D SPACE',''
  ) );
#1084 = ORIENTED_EDGE('',*,*,#1085,.T.);
#1085 = EDGE_CURVE('',#1063,#1086,#1088,.T.);
#1086 = VERTEX_POINT('',#1087);
#1087 = CARTESIAN_POINT('',(-52.152,-7.12880515584,15.766472994467));
#1088 = SURFACE_CURVE('',#1089,(#1093,#1100),.PCURVE_S1.);
#1089 = LINE('',#1090,#1091);
#1090 = CARTESIAN_POINT('',(-5.64,-9.969799110315,17.915099846816));
#1091 = VECTOR('',#1092,1.);
#1092 = DIRECTION('',(-0.997080404983,6.090254993727E-02,
    -4.606023675819E-02));
#1093 = PCURVE('',#136,#1094);
#1094 = DEFINITIONAL_REPRESENTATION('',(#1095),#1099);
#1095 = LINE('',#1096,#1097);
#1096 = CARTESIAN_POINT('',(12.5,-27.8066887866));
#1097 = VECTOR('',#1098,1.);
#1098 = DIRECTION('',(-7.635879778443E-02,0.997080404983));
#1099 = ( GEOMETRIC_REPRESENTATION_CONTEXT(2) 
PARAMETRIC_REPRESENTATION_CONTEXT() REPRESENTATION_CONTEXT('2D SPACE',''
  ) );
#1100 = PCURVE('',#886,#1101);
#1101 = DEFINITIONAL_REPRESENTATION('',(#1102),#1106);
#1102 = LINE('',#1103,#1104);
#1103 = CARTESIAN_POINT('',(0.,-0.));
#1104 = VECTOR('',#1105,1.);
#1105 = DIRECTION('',(1.,-1.314816507632E-17));
#1106 = ( GEOMETRIC_REPRESENTATION_CONTEXT(2) 
PARAMETRIC_REPRESENTATION_CONTEXT() REPRESENTATION_CONTEXT('2D SPACE',''
  ) );
#1107 = ORIENTED_EDGE('',*,*,#1108,.T.);
#1108 = EDGE_CURVE('',#1086,#1109,#1111,.T.);
#1109 = VERTEX_POINT('',#1110);
#1110 = CARTESIAN_POINT('',(-70.24,8.601919117211E-15,10.375));
#1111 = SURFACE_CURVE('',#1112,(#1116,#1123),.PCURVE_S1.);
#1112 = LINE('',#1113,#1114);
#1113 = CARTESIAN_POINT('',(-52.152,-7.12880515584,15.766472994467));
#1114 = VECTOR('',#1115,1.);
#1115 = DIRECTION('',(-0.896518841362,0.353334151847,-0.267224520247));
#1116 = PCURVE('',#136,#1117);
#1117 = DEFINITIONAL_REPRESENTATION('',(#1118),#1122);
#1118 = LINE('',#1119,#1120);
#1119 = CARTESIAN_POINT('',(8.938,18.705311213392));
#1120 = VECTOR('',#1121,1.);
#1121 = DIRECTION('',(-0.443005606153,0.896518841362));
#1122 = ( GEOMETRIC_REPRESENTATION_CONTEXT(2) 
PARAMETRIC_REPRESENTATION_CONTEXT() REPRESENTATION_CONTEXT('2D SPACE',''
  ) );
#1123 = PCURVE('',#914,#1124);
#1124 = DEFINITIONAL_REPRESENTATION('',(#1125),#1129);
#1125 = LINE('',#1126,#1127);
#1126 = CARTESIAN_POINT('',(0.,-0.));
#1127 = VECTOR('',#1128,1.);
#1128 = DIRECTION('',(1.,-4.108830745367E-17));
#1129 = ( GEOMETRIC_REPRESENTATION_CONTEXT(2) 
PARAMETRIC_REPRESENTATION_CONTEXT() REPRESENTATION_CONTEXT('2D SPACE',''
  ) );
#1130 = ORIENTED_EDGE('',*,*,#1131,.T.);
#1131 = EDGE_CURVE('',#1109,#981,#1132,.T.);
#1132 = SURFACE_CURVE('',#1133,(#1137,#1144),.PCURVE_S1.);
#1133 = LINE('',#1134,#1135);
#1134 = CARTESIAN_POINT('',(-70.24,8.601919117211E-15,10.375));
#1135 = VECTOR('',#1136,1.);
#1136 = DIRECTION('',(0.896518841362,0.353334151847,-0.267224520247));
#1137 = PCURVE('',#136,#1138);
#1138 = DEFINITIONAL_REPRESENTATION('',(#1139),#1143);
#1139 = LINE('',#1140,#1141);
#1140 = CARTESIAN_POINT('',(-2.845464599372E-15,36.793311213392));
#1141 = VECTOR('',#1142,1.);
#1142 = DIRECTION('',(-0.443005606153,-0.896518841362));
#1143 = ( GEOMETRIC_REPRESENTATION_CONTEXT(2) 
PARAMETRIC_REPRESENTATION_CONTEXT() REPRESENTATION_CONTEXT('2D SPACE',''
  ) );
#1144 = PCURVE('',#942,#1145);
#1145 = DEFINITIONAL_REPRESENTATION('',(#1146),#1150);
#1146 = LINE('',#1147,#1148);
#1147 = CARTESIAN_POINT('',(0.,-0.));
#1148 = VECTOR('',#1149,1.);
#1149 = DIRECTION('',(1.,1.442284377759E-17));
#1150 = ( GEOMETRIC_REPRESENTATION_CONTEXT(2) 
PARAMETRIC_REPRESENTATION_CONTEXT() REPRESENTATION_CONTEXT('2D SPACE',''
  ) );
#1151 = ORIENTED_EDGE('',*,*,#980,.T.);
#1152 = ORIENTED_EDGE('',*,*,#114,.F.);
#1153 = ORIENTED_EDGE('',*,*,#776,.T.);
#1154 = ADVANCED_FACE('',(#1155),#532,.T.);
#1155 = FACE_BOUND('',#1156,.T.);
#1156 = EDGE_LOOP('',(#1157,#1178,#1179,#1180));
#1157 = ORIENTED_EDGE('',*,*,#1158,.T.);
#1158 = EDGE_CURVE('',#623,#491,#1159,.T.);
#1159 = SURFACE_CURVE('',#1160,(#1164,#1171),.PCURVE_S1.);
#1160 = LINE('',#1161,#1162);
#1161 = CARTESIAN_POINT('',(70.24,0.,0.));
#1162 = VECTOR('',#1163,1.);
#1163 = DIRECTION('',(0.,-0.603207987745,0.797583928825));
#1164 = PCURVE('',#532,#1165);
#1165 = DEFINITIONAL_REPRESENTATION('',(#1166),#1170);
#1166 = LINE('',#1167,#1168);
#1167 = CARTESIAN_POINT('',(-0.,0.));
#1168 = VECTOR('',#1169,1.);
#1169 = DIRECTION('',(-3.285437615127E-17,-1.));
#1170 = ( GEOMETRIC_REPRESENTATION_CONTEXT(2) 
PARAMETRIC_REPRESENTATION_CONTEXT() REPRESENTATION_CONTEXT('2D SPACE',''
  ) );
#1171 = PCURVE('',#506,#1172);
#1172 = DEFINITIONAL_REPRESENTATION('',(#1173),#1177);
#1173 = LINE('',#1174,#1175);
#1174 = CARTESIAN_POINT('',(20.175816910351,-1.674452564527E-15));
#1175 = VECTOR('',#1176,1.);
#1176 = DIRECTION('',(-3.285437615127E-17,-1.));
#1177 = ( GEOMETRIC_REPRESENTATION_CONTEXT(2) 
PARAMETRIC_REPRESENTATION_CONTEXT() REPRESENTATION_CONTEXT('2D SPACE',''
  ) );
#1178 = ORIENTED_EDGE('',*,*,#518,.T.);
#1179 = ORIENTED_EDGE('',*,*,#570,.F.);
#1180 = ORIENTED_EDGE('',*,*,#645,.F.);
#1181 = ADVANCED_FACE('',(#1182),#506,.T.);
#1182 = FACE_BOUND('',#1183,.T.);
#1183 = EDGE_LOOP('',(#1184,#1185,#1186,#1187));
#1184 = ORIENTED_EDGE('',*,*,#676,.T.);
#1185 = ORIENTED_EDGE('',*,*,#490,.T.);
#1186 = ORIENTED_EDGE('',*,*,#1158,.F.);
#1187 = ORIENTED_EDGE('',*,*,#622,.F.);
#1188 = ADVANCED_FACE('',(#1189),#740,.T.);
#1189 = FACE_BOUND('',#1190,.T.);
#1190 = EDGE_LOOP('',(#1191,#1211,#1212,#1213,#1244,#1245,#1246,#1247));
#1191 = ORIENTED_EDGE('',*,*,#1192,.F.);
#1192 = EDGE_CURVE('',#724,#1193,#1195,.T.);
#1193 = VERTEX_POINT('',#1194);
#1194 = CARTESIAN_POINT('',(1.5,0.,22.95));
#1195 = SEAM_CURVE('',#1196,(#1199,#1205),.PCURVE_S1.);
#1196 = B_SPLINE_CURVE_WITH_KNOTS('',1,(#1197,#1198),.UNSPECIFIED.,.F.,
  .F.,(2,2),(0.,1.),.PIECEWISE_BEZIER_KNOTS.);
#1197 = CARTESIAN_POINT('',(16.92,0.,13.95));
#1198 = CARTESIAN_POINT('',(1.5,0.,22.95));
#1199 = PCURVE('',#740,#1200);
#1200 = DEFINITIONAL_REPRESENTATION('',(#1201),#1204);
#1201 = B_SPLINE_CURVE_WITH_KNOTS('',1,(#1202,#1203),.UNSPECIFIED.,.F.,
  .F.,(2,2),(0.,1.),.PIECEWISE_BEZIER_KNOTS.);
#1202 = CARTESIAN_POINT('',(0.,0.));
#1203 = CARTESIAN_POINT('',(0.,-9.));
#1204 = ( GEOMETRIC_REPRESENTATION_CONTEXT(2) 
PARAMETRIC_REPRESENTATION_CONTEXT() REPRESENTATION_CONTEXT('2D SPACE',''
  ) );
#1205 = PCURVE('',#740,#1206);
#1206 = DEFINITIONAL_REPRESENTATION('',(#1207),#1210);
#1207 = B_SPLINE_CURVE_WITH_KNOTS('',1,(#1208,#1209),.UNSPECIFIED.,.F.,
  .F.,(2,2),(0.,1.),.PIECEWISE_BEZIER_KNOTS.);
#1208 = CARTESIAN_POINT('',(-6.28318530718,0.));
#1209 = CARTESIAN_POINT('',(-6.28318530718,-9.));
#1210 = ( GEOMETRIC_REPRESENTATION_CONTEXT(2) 
PARAMETRIC_REPRESENTATION_CONTEXT() REPRESENTATION_CONTEXT('2D SPACE',''
  ) );
#1211 = ORIENTED_EDGE('',*,*,#723,.T.);
#1212 = ORIENTED_EDGE('',*,*,#798,.T.);
#1213 = ORIENTED_EDGE('',*,*,#1214,.F.);
#1214 = EDGE_CURVE('',#1030,#799,#1215,.T.);
#1215 = SURFACE_CURVE('',#1216,(#1221,#1237),.PCURVE_S1.);
#1216 = HYPERBOLA('',#1217,3.291828793774,5.64);
#1217 = AXIS2_PLACEMENT_3D('',#1218,#1219,#1220);
#1218 = CARTESIAN_POINT('',(-5.64,5.709469571181E-16,23.825486381323));
#1219 = DIRECTION('',(1.,-1.012317299855E-16,-1.605835390839E-17));
#1220 = DIRECTION('',(-1.605835390839E-17,1.625614946866E-33,-1.));
#1221 = PCURVE('',#740,#1222);
#1222 = DEFINITIONAL_REPRESENTATION('',(#1223),#1236);
#1223 = B_SPLINE_CURVE_WITH_KNOTS('',6,(#1224,#1225,#1226,#1227,#1228,
    #1229,#1230,#1231,#1232,#1233,#1234,#1235),.UNSPECIFIED.,.F.,.F.,(7,
    5,7),(-1.342986234223,-0.705463697962,-6.7941161701E-02),
  .UNSPECIFIED.);
#1224 = CARTESIAN_POINT('',(-4.201658434685,-3.141178230062));
#1225 = CARTESIAN_POINT('',(-4.149720037194,-3.765411310308));
#1226 = CARTESIAN_POINT('',(-4.092003882285,-4.298409314491));
#1227 = CARTESIAN_POINT('',(-4.027962119656,-4.752856229767));
#1228 = CARTESIAN_POINT('',(-3.957118372619,-5.138353121728));
#1229 = CARTESIAN_POINT('',(-3.879283580602,-5.462247780586));
#1230 = CARTESIAN_POINT('',(-3.71053742074,-5.997711453148));
#1231 = CARTESIAN_POINT('',(-3.61962496391,-6.209280726477));
#1232 = CARTESIAN_POINT('',(-3.522624643208,-6.370127691796));
#1233 = CARTESIAN_POINT('',(-3.420582570364,-6.483792925032));
#1234 = CARTESIAN_POINT('',(-3.315490599192,-6.552275110897));
#1235 = CARTESIAN_POINT('',(-3.209481606112,-6.576057121328));
#1236 = ( GEOMETRIC_REPRESENTATION_CONTEXT(2) 
PARAMETRIC_REPRESENTATION_CONTEXT() REPRESENTATION_CONTEXT('2D SPACE',''
  ) );
#1237 = PCURVE('',#858,#1238);
#1238 = DEFINITIONAL_REPRESENTATION('',(#1239),#1243);
#1239 = ( BOUNDED_CURVE() B_SPLINE_CURVE(2,(#1240,#1241,#1242),
.UNSPECIFIED.,.F.,.F.) B_SPLINE_CURVE_WITH_KNOTS((3,3),(-1.342986234223,
-6.7941161701E-02),.PIECEWISE_BEZIER_KNOTS.) CURVE() 
GEOMETRIC_REPRESENTATION_ITEM() RATIONAL_B_SPLINE_CURVE((1.,
1.210194311741,1.)) REPRESENTATION_ITEM('') );
#1240 = CARTESIAN_POINT('',(24.579499753323,0.715));
#1241 = CARTESIAN_POINT('',(21.392398577667,-5.843939183565));
#1242 = CARTESIAN_POINT('',(18.929058633016,-7.865));
#1243 = ( GEOMETRIC_REPRESENTATION_CONTEXT(2) 
PARAMETRIC_REPRESENTATION_CONTEXT() REPRESENTATION_CONTEXT('2D SPACE',''
  ) );
#1244 = ORIENTED_EDGE('',*,*,#1029,.F.);
#1245 = ORIENTED_EDGE('',*,*,#752,.T.);
#1246 = ORIENTED_EDGE('',*,*,#1192,.T.);
#1247 = ORIENTED_EDGE('',*,*,#1248,.F.);
#1248 = EDGE_CURVE('',#1193,#1193,#1249,.T.);
#1249 = SURFACE_CURVE('',#1250,(#1255,#1262),.PCURVE_S1.);
#1250 = CIRCLE('',#1251,1.5);
#1251 = AXIS2_PLACEMENT_3D('',#1252,#1253,#1254);
#1252 = CARTESIAN_POINT('',(0.,0.,22.95));
#1253 = DIRECTION('',(0.,0.,1.));
#1254 = DIRECTION('',(1.,0.,0.));
#1255 = PCURVE('',#740,#1256);
#1256 = DEFINITIONAL_REPRESENTATION('',(#1257),#1261);
#1257 = LINE('',#1258,#1259);
#1258 = CARTESIAN_POINT('',(-0.,-9.));
#1259 = VECTOR('',#1260,1.);
#1260 = DIRECTION('',(-1.,-0.));
#1261 = ( GEOMETRIC_REPRESENTATION_CONTEXT(2) 
PARAMETRIC_REPRESENTATION_CONTEXT() REPRESENTATION_CONTEXT('2D SPACE',''
  ) );
#1262 = PCURVE('',#1263,#1268);
#1263 = PLANE('',#1264);
#1264 = AXIS2_PLACEMENT_3D('',#1265,#1266,#1267);
#1265 = CARTESIAN_POINT('',(0.,0.,22.95));
#1266 = DIRECTION('',(0.,0.,1.));
#1267 = DIRECTION('',(1.,0.,0.));
#1268 = DEFINITIONAL_REPRESENTATION('',(#1269),#1273);
#1269 = CIRCLE('',#1270,1.5);
#1270 = AXIS2_PLACEMENT_2D('',#1271,#1272);
#1271 = CARTESIAN_POINT('',(0.,0.));
#1272 = DIRECTION('',(1.,0.));
#1273 = ( GEOMETRIC_REPRESENTATION_CONTEXT(2) 
PARAMETRIC_REPRESENTATION_CONTEXT() REPRESENTATION_CONTEXT('2D SPACE',''
  ) );
#1274 = ADVANCED_FACE('',(#1275),#942,.T.);
#1275 = FACE_BOUND('',#1276,.T.);
#1276 = EDGE_LOOP('',(#1277,#1298,#1299,#1300));
#1277 = ORIENTED_EDGE('',*,*,#1278,.T.);
#1278 = EDGE_CURVE('',#1109,#899,#1279,.T.);
#1279 = SURFACE_CURVE('',#1280,(#1284,#1291),.PCURVE_S1.);
#1280 = LINE('',#1281,#1282);
#1281 = CARTESIAN_POINT('',(-70.24,8.601919117211E-15,10.375));
#1282 = VECTOR('',#1283,1.);
#1283 = DIRECTION('',(7.387167314124E-17,0.603207987745,0.797583928825)
  );
#1284 = PCURVE('',#942,#1285);
#1285 = DEFINITIONAL_REPRESENTATION('',(#1286),#1290);
#1286 = LINE('',#1287,#1288);
#1287 = CARTESIAN_POINT('',(0.,-0.));
#1288 = VECTOR('',#1289,1.);
#1289 = DIRECTION('',(-7.184630090552E-17,-1.));
#1290 = ( GEOMETRIC_REPRESENTATION_CONTEXT(2) 
PARAMETRIC_REPRESENTATION_CONTEXT() REPRESENTATION_CONTEXT('2D SPACE',''
  ) );
#1291 = PCURVE('',#914,#1292);
#1292 = DEFINITIONAL_REPRESENTATION('',(#1293),#1297);
#1293 = LINE('',#1294,#1295);
#1294 = CARTESIAN_POINT('',(20.175816910351,-7.862741448268E-16));
#1295 = VECTOR('',#1296,1.);
#1296 = DIRECTION('',(-1.633514967426E-17,-1.));
#1297 = ( GEOMETRIC_REPRESENTATION_CONTEXT(2) 
PARAMETRIC_REPRESENTATION_CONTEXT() REPRESENTATION_CONTEXT('2D SPACE',''
  ) );
#1298 = ORIENTED_EDGE('',*,*,#926,.T.);
#1299 = ORIENTED_EDGE('',*,*,#1003,.F.);
#1300 = ORIENTED_EDGE('',*,*,#1131,.F.);
#1301 = ADVANCED_FACE('',(#1302),#914,.T.);
#1302 = FACE_BOUND('',#1303,.T.);
#1303 = EDGE_LOOP('',(#1304,#1325,#1326,#1327));
#1304 = ORIENTED_EDGE('',*,*,#1305,.T.);
#1305 = EDGE_CURVE('',#1086,#871,#1306,.T.);
#1306 = SURFACE_CURVE('',#1307,(#1311,#1318),.PCURVE_S1.);
#1307 = LINE('',#1308,#1309);
#1308 = CARTESIAN_POINT('',(-52.152,-7.12880515584,15.766472994467));
#1309 = VECTOR('',#1310,1.);
#1310 = DIRECTION('',(7.387167314124E-17,0.603207987745,0.797583928825)
  );
#1311 = PCURVE('',#914,#1312);
#1312 = DEFINITIONAL_REPRESENTATION('',(#1313),#1317);
#1313 = LINE('',#1314,#1315);
#1314 = CARTESIAN_POINT('',(0.,-0.));
#1315 = VECTOR('',#1316,1.);
#1316 = DIRECTION('',(-1.633514967426E-17,-1.));
#1317 = ( GEOMETRIC_REPRESENTATION_CONTEXT(2) 
PARAMETRIC_REPRESENTATION_CONTEXT() REPRESENTATION_CONTEXT('2D SPACE',''
  ) );
#1318 = PCURVE('',#886,#1319);
#1319 = DEFINITIONAL_REPRESENTATION('',(#1320),#1324);
#1320 = LINE('',#1321,#1322);
#1321 = CARTESIAN_POINT('',(46.648193834274,-7.672705610087E-16));
#1322 = VECTOR('',#1323,1.);
#1323 = DIRECTION('',(2.33167829896E-17,-1.));
#1324 = ( GEOMETRIC_REPRESENTATION_CONTEXT(2) 
PARAMETRIC_REPRESENTATION_CONTEXT() REPRESENTATION_CONTEXT('2D SPACE',''
  ) );
#1325 = ORIENTED_EDGE('',*,*,#898,.T.);
#1326 = ORIENTED_EDGE('',*,*,#1278,.F.);
#1327 = ORIENTED_EDGE('',*,*,#1108,.F.);
#1328 = ADVANCED_FACE('',(#1329),#886,.T.);
#1329 = FACE_BOUND('',#1330,.T.);
#1330 = EDGE_LOOP('',(#1331,#1352,#1353,#1354));
#1331 = ORIENTED_EDGE('',*,*,#1332,.T.);
#1332 = EDGE_CURVE('',#1063,#843,#1333,.T.);
#1333 = SURFACE_CURVE('',#1334,(#1338,#1345),.PCURVE_S1.);
#1334 = LINE('',#1335,#1336);
#1335 = CARTESIAN_POINT('',(-5.64,-9.969799110315,17.915099846816));
#1336 = VECTOR('',#1337,1.);
#1337 = DIRECTION('',(7.387167314124E-17,0.603207987745,0.797583928825)
  );
#1338 = PCURVE('',#886,#1339);
#1339 = DEFINITIONAL_REPRESENTATION('',(#1340),#1344);
#1340 = LINE('',#1341,#1342);
#1341 = CARTESIAN_POINT('',(0.,-0.));
#1342 = VECTOR('',#1343,1.);
#1343 = DIRECTION('',(2.33167829896E-17,-1.));
#1344 = ( GEOMETRIC_REPRESENTATION_CONTEXT(2) 
PARAMETRIC_REPRESENTATION_CONTEXT() REPRESENTATION_CONTEXT('2D SPACE',''
  ) );
#1345 = PCURVE('',#858,#1346);
#1346 = DEFINITIONAL_REPRESENTATION('',(#1347),#1351);
#1347 = LINE('',#1348,#1349);
#1348 = CARTESIAN_POINT('',(25.,-7.875951291609E-16));
#1349 = VECTOR('',#1350,1.);
#1350 = DIRECTION('',(-1.020919404187E-16,-1.));
#1351 = ( GEOMETRIC_REPRESENTATION_CONTEXT(2) 
PARAMETRIC_REPRESENTATION_CONTEXT() REPRESENTATION_CONTEXT('2D SPACE',''
  ) );
#1352 = ORIENTED_EDGE('',*,*,#870,.T.);
#1353 = ORIENTED_EDGE('',*,*,#1305,.F.);
#1354 = ORIENTED_EDGE('',*,*,#1085,.F.);
#1355 = ADVANCED_FACE('',(#1356),#858,.T.);
#1356 = FACE_BOUND('',#1357,.T.);
#1357 = EDGE_LOOP('',(#1358,#1359,#1360,#1361));
#1358 = ORIENTED_EDGE('',*,*,#1062,.F.);
#1359 = ORIENTED_EDGE('',*,*,#1214,.T.);
#1360 = ORIENTED_EDGE('',*,*,#842,.T.);
#1361 = ORIENTED_EDGE('',*,*,#1332,.F.);
#1362 = ADVANCED_FACE('',(#1363),#1263,.T.);
#1363 = FACE_BOUND('',#1364,.T.);
#1364 = EDGE_LOOP('',(#1365));
#1365 = ORIENTED_EDGE('',*,*,#1248,.T.);
#1366 = ( GEOMETRIC_REPRESENTATION_CONTEXT(3) 
GLOBAL_UNCERTAINTY_ASSIGNED_CONTEXT((#1370)) 
GLOBAL_UNIT_ASSIGNED_CONTEXT((#1367,#1368,#1369)) REPRESENTATION_CONTEXT
('Context #1','3D Context with UNIT and UNCERTAINTY') );
#1367 = ( LENGTH_UNIT() NAMED_UNIT(*) SI_UNIT(.MILLI.,.METRE.) );
#1368 = ( NAMED_UNIT(*) PLANE_ANGLE_UNIT() SI_UNIT($,.RADIAN.) );
#1369 = ( NAMED_UNIT(*) SI_UNIT($,.STERADIAN.) SOLID_ANGLE_UNIT() );
#1370 = UNCERTAINTY_MEASURE_WITH_UNIT(LENGTH_MEASURE(2.E-07),#1367,
  'distance_accuracy_value','confusion accuracy');
#1371 = PRODUCT_RELATED_PRODUCT_CATEGORY('part',$,(#7));
ENDSEC;
END-ISO-10303-21;
