ISO-10303-21;
HEADER;
FILE_DESCRIPTION(('Open CASCADE Model'),'2;1');
FILE_NAME('Open CASCADE Shape Model','2026-10-02T08:36:28',('Author'),(
    'Open CASCADE'),'Open CASCADE STEP processor 7.9','Open CASCADE 7.9'
  ,'Unknown');
FILE_SCHEMA(('AUTOMOTIVE_DESIGN { 1 0 10303 214 1 1 1 1 }'));
ENDSEC;
DATA;
#1 = APPLICATION_PROTOCOL_DEFINITION('international standard',
  'automotive_design',2000,#2);
#2 = APPLICATION_CONTEXT(
  'core data for automotive mechanical design processes');
#3 = SHAPE_DEFINITION_REPRESENTATION(#4,#10);
#4 = PRODUCT_DEFINITION_SHAPE('','',#5);
#5 = PRODUCT_DEFINITION('design','',#6,#9);
#6 = PRODUCT_DEFINITION_FORMATION('','',#7);
#7 = PRODUCT('Open CASCADE STEP translator 7.9 10',
  'Open CASCADE STEP translator 7.9 10','',(#8));
#8 = PRODUCT_CONTEXT('',#2,'mechanical');
#9 = PRODUCT_DEFINITION_CONTEXT('part definition',#2,'design');
#10 = ADVANCED_BREP_SHAPE_REPRESENTATION('',(#11,#15),#1548);
#11 = AXIS2_PLACEMENT_3D('',#12,#13,#14);
#12 = CARTESIAN_POINT('',(0.,0.,0.));
#13 = DIRECTION('',(0.,0.,1.));
#14 = DIRECTION('',(1.,0.,-0.));
#15 = MANIFOLD_SOLID_BREP('',#16);
#16 = CLOSED_SHELL('',(#17,#360,#433,#615,#664,#813,#861,#1065,#1114,
    #1244,#1248,#1368,#1395,#1422,#1449,#1456,#1483,#1510,#1537,#1544));
#17 = ADVANCED_FACE('',(#18),#33,.T.);
#18 = FACE_BOUND('',#19,.T.);
#19 = EDGE_LOOP('',(#20,#56,#88,#111,#138,#139,#167,#200,#233,#262,#296,
    #329));
#20 = ORIENTED_EDGE('',*,*,#21,.F.);
#21 = EDGE_CURVE('',#22,#24,#26,.T.);
#22 = VERTEX_POINT('',#23);
#23 = CARTESIAN_POINT('',(18.196029684325,4.726997326757,13.95));
#24 = VERTEX_POINT('',#25);
#25 = CARTESIAN_POINT('',(-17.39700934203,7.126293984464,13.95));
#26 = SURFACE_CURVE('',#27,(#32,#44),.PCURVE_S1.);
#27 = CIRCLE('',#28,18.8);
#28 = AXIS2_PLACEMENT_3D('',#29,#30,#31);
#29 = CARTESIAN_POINT('',(0.,0.,13.95));
#30 = DIRECTION('',(0.,0.,1.));
#31 = DIRECTION('',(1.,0.,0.));
#32 = PCURVE('',#33,#38);
#33 = CYLINDRICAL_SURFACE('',#34,18.8);
#34 = AXIS2_PLACEMENT_3D('',#35,#36,#37);
#35 = CARTESIAN_POINT('',(0.,0.,-13.95));
#36 = DIRECTION('',(0.,0.,1.));
#37 = DIRECTION('',(1.,0.,0.));
#38 = DEFINITIONAL_REPRESENTATION('',(#39),#43);
#39 = LINE('',#40,#41);
#40 = CARTESIAN_POINT('',(0.,27.9));
#41 = VECTOR('',#42,1.);
#42 = DIRECTION('',(1.,0.));
#43 = ( GEOMETRIC_REPRESENTATION_CONTEXT(2) 
PARAMETRIC_REPRESENTATION_CONTEXT() REPRESENTATION_CONTEXT('2D SPACE',''
  ) );
#44 = PCURVE('',#45,#50);
#45 = PLANE('',#46);
#46 = AXIS2_PLACEMENT_3D('',#47,#48,#49);
#47 = CARTESIAN_POINT('',(0.,0.,13.95));
#48 = DIRECTION('',(0.,0.,1.));
#49 = DIRECTION('',(1.,0.,0.));
#50 = DEFINITIONAL_REPRESENTATION('',(#51),#55);
#51 = CIRCLE('',#52,18.8);
#52 = AXIS2_PLACEMENT_2D('',#53,#54);
#53 = CARTESIAN_POINT('',(0.,0.));
#54 = DIRECTION('',(1.,0.));
#55 = ( GEOMETRIC_REPRESENTATION_CONTEXT(2) 
PARAMETRIC_REPRESENTATION_CONTEXT() REPRESENTATION_CONTEXT('2D SPACE',''
  ) );
#56 = ORIENTED_EDGE('',*,*,#57,.T.);
#57 = EDGE_CURVE('',#22,#58,#60,.T.);
#58 = VERTEX_POINT('',#59);
#59 = CARTESIAN_POINT('',(18.8,-4.604671964794E-15,10.375));
#60 = SURFACE_CURVE('',#61,(#66,#76),.PCURVE_S1.);
#61 = ELLIPSE('',#62,23.57118708208,18.8);
#62 = AXIS2_PLACEMENT_3D('',#63,#64,#65);
#63 = CARTESIAN_POINT('',(0.,0.,10.375));
#64 = DIRECTION('',(-0.,0.603207987745,-0.797583928825));
#65 = DIRECTION('',(0.,0.797583928825,0.603207987745));
#66 = PCURVE('',#33,#67);
#67 = DEFINITIONAL_REPRESENTATION('',(#68),#75);
#68 = B_SPLINE_CURVE_WITH_KNOTS('',5,(#69,#70,#71,#72,#73,#74),
  .UNSPECIFIED.,.F.,.F.,(6,6),(1.316632620065,1.570796326795),
  .PIECEWISE_BEZIER_KNOTS.);
#69 = CARTESIAN_POINT('',(0.25416370673,27.9000006));
#70 = CARTESIAN_POINT('',(0.203330965384,27.20046333863));
#71 = CARTESIAN_POINT('',(0.152498224038,26.489378986549));
#72 = CARTESIAN_POINT('',(0.101665482692,25.770513225699));
#73 = CARTESIAN_POINT('',(5.083274134592E-02,25.047756606297));
#74 = CARTESIAN_POINT('',(6.123233995737E-17,24.325));
#75 = ( GEOMETRIC_REPRESENTATION_CONTEXT(2) 
PARAMETRIC_REPRESENTATION_CONTEXT() REPRESENTATION_CONTEXT('2D SPACE',''
  ) );
#76 = PCURVE('',#77,#82);
#77 = PLANE('',#78);
#78 = AXIS2_PLACEMENT_3D('',#79,#80,#81);
#79 = CARTESIAN_POINT('',(33.446688786608,-3.582989458501E-16,10.375));
#80 = DIRECTION('',(-0.,0.603207987745,-0.797583928825));
#81 = DIRECTION('',(0.,-0.797583928825,-0.603207987745));
#82 = DEFINITIONAL_REPRESENTATION('',(#83),#87);
#83 = ELLIPSE('',#84,23.57118708208,18.8);
#84 = AXIS2_PLACEMENT_2D('',#85,#86);
#85 = CARTESIAN_POINT('',(7.857391536871E-16,33.446688786608));
#86 = DIRECTION('',(-1.,0.));
#87 = ( GEOMETRIC_REPRESENTATION_CONTEXT(2) 
PARAMETRIC_REPRESENTATION_CONTEXT() REPRESENTATION_CONTEXT('2D SPACE',''
  ) );
#88 = ORIENTED_EDGE('',*,*,#89,.F.);
#89 = EDGE_CURVE('',#90,#58,#92,.T.);
#90 = VERTEX_POINT('',#91);
#91 = CARTESIAN_POINT('',(18.8,-4.604671964794E-15,-13.95));
#92 = SEAM_CURVE('',#93,(#97,#104),.PCURVE_S1.);
#93 = LINE('',#94,#95);
#94 = CARTESIAN_POINT('',(18.8,-4.604671964794E-15,-13.95));
#95 = VECTOR('',#96,1.);
#96 = DIRECTION('',(0.,0.,1.));
#97 = PCURVE('',#33,#98);
#98 = DEFINITIONAL_REPRESENTATION('',(#99),#103);
#99 = LINE('',#100,#101);
#100 = CARTESIAN_POINT('',(6.28318530718,-0.));
#101 = VECTOR('',#102,1.);
#102 = DIRECTION('',(0.,1.));
#103 = ( GEOMETRIC_REPRESENTATION_CONTEXT(2) 
PARAMETRIC_REPRESENTATION_CONTEXT() REPRESENTATION_CONTEXT('2D SPACE',''
  ) );
#104 = PCURVE('',#33,#105);
#105 = DEFINITIONAL_REPRESENTATION('',(#106),#110);
#106 = LINE('',#107,#108);
#107 = CARTESIAN_POINT('',(0.,-0.));
#108 = VECTOR('',#109,1.);
#109 = DIRECTION('',(0.,1.));
#110 = ( GEOMETRIC_REPRESENTATION_CONTEXT(2) 
PARAMETRIC_REPRESENTATION_CONTEXT() REPRESENTATION_CONTEXT('2D SPACE',''
  ) );
#111 = ORIENTED_EDGE('',*,*,#112,.T.);
#112 = EDGE_CURVE('',#90,#90,#113,.T.);
#113 = SURFACE_CURVE('',#114,(#119,#126),.PCURVE_S1.);
#114 = CIRCLE('',#115,18.8);
#115 = AXIS2_PLACEMENT_3D('',#116,#117,#118);
#116 = CARTESIAN_POINT('',(0.,0.,-13.95));
#117 = DIRECTION('',(0.,0.,1.));
#118 = DIRECTION('',(1.,0.,0.));
#119 = PCURVE('',#33,#120);
#120 = DEFINITIONAL_REPRESENTATION('',(#121),#125);
#121 = LINE('',#122,#123);
#122 = CARTESIAN_POINT('',(0.,0.));
#123 = VECTOR('',#124,1.);
#124 = DIRECTION('',(1.,0.));
#125 = ( GEOMETRIC_REPRESENTATION_CONTEXT(2) 
PARAMETRIC_REPRESENTATION_CONTEXT() REPRESENTATION_CONTEXT('2D SPACE',''
  ) );
#126 = PCURVE('',#127,#132);
#127 = PLANE('',#128);
#128 = AXIS2_PLACEMENT_3D('',#129,#130,#131);
#129 = CARTESIAN_POINT('',(0.,0.,-13.95));
#130 = DIRECTION('',(0.,0.,1.));
#131 = DIRECTION('',(1.,0.,0.));
#132 = DEFINITIONAL_REPRESENTATION('',(#133),#137);
#133 = CIRCLE('',#134,18.8);
#134 = AXIS2_PLACEMENT_2D('',#135,#136);
#135 = CARTESIAN_POINT('',(0.,0.));
#136 = DIRECTION('',(1.,0.));
#137 = ( GEOMETRIC_REPRESENTATION_CONTEXT(2) 
PARAMETRIC_REPRESENTATION_CONTEXT() REPRESENTATION_CONTEXT('2D SPACE',''
  ) );
#138 = ORIENTED_EDGE('',*,*,#89,.T.);
#139 = ORIENTED_EDGE('',*,*,#140,.T.);
#140 = EDGE_CURVE('',#58,#141,#143,.T.);
#141 = VERTEX_POINT('',#142);
#142 = CARTESIAN_POINT('',(16.328969213402,-9.316907449779,3.32867823789
    ));
#143 = SURFACE_CURVE('',#144,(#149,#160),.PCURVE_S1.);
#144 = ELLIPSE('',#145,23.57118708208,18.8);
#145 = AXIS2_PLACEMENT_3D('',#146,#147,#148);
#146 = CARTESIAN_POINT('',(0.,0.,10.375));
#147 = DIRECTION('',(-0.,0.603207987745,-0.797583928825));
#148 = DIRECTION('',(0.,0.797583928825,0.603207987745));
#149 = PCURVE('',#33,#150);
#150 = DEFINITIONAL_REPRESENTATION('',(#151),#159);
#151 = B_SPLINE_CURVE_WITH_KNOTS('',6,(#152,#153,#154,#155,#156,#157,
    #158),.UNSPECIFIED.,.F.,.F.,(7,7),(1.570796326795,2.260579779392),
  .PIECEWISE_BEZIER_KNOTS.);
#152 = CARTESIAN_POINT('',(6.28318530718,24.325));
#153 = CARTESIAN_POINT('',(6.168221398413,22.690405399228));
#154 = CARTESIAN_POINT('',(6.053257489647,21.055811948493));
#155 = CARTESIAN_POINT('',(5.938293580881,19.460098310011));
#156 = CARTESIAN_POINT('',(5.823329672115,17.942182316524));
#157 = CARTESIAN_POINT('',(5.708365763348,16.537780039535));
#158 = CARTESIAN_POINT('',(5.593401854582,15.276880183821));
#159 = ( GEOMETRIC_REPRESENTATION_CONTEXT(2) 
PARAMETRIC_REPRESENTATION_CONTEXT() REPRESENTATION_CONTEXT('2D SPACE',''
  ) );
#160 = PCURVE('',#77,#161);
#161 = DEFINITIONAL_REPRESENTATION('',(#162),#166);
#162 = ELLIPSE('',#163,23.57118708208,18.8);
#163 = AXIS2_PLACEMENT_2D('',#164,#165);
#164 = CARTESIAN_POINT('',(7.857391536871E-16,33.446688786608));
#165 = DIRECTION('',(-1.,0.));
#166 = ( GEOMETRIC_REPRESENTATION_CONTEXT(2) 
PARAMETRIC_REPRESENTATION_CONTEXT() REPRESENTATION_CONTEXT('2D SPACE',''
  ) );
#167 = ORIENTED_EDGE('',*,*,#168,.T.);
#168 = EDGE_CURVE('',#141,#169,#171,.T.);
#169 = VERTEX_POINT('',#170);
#170 = CARTESIAN_POINT('',(12.712049074776,-13.85076923208,8.86431931341
    ));
#171 = SURFACE_CURVE('',#172,(#177,#188),.PCURVE_S1.);
#172 = ELLIPSE('',#173,31.257956609458,18.8);
#173 = AXIS2_PLACEMENT_3D('',#174,#175,#176);
#174 = CARTESIAN_POINT('',(0.,0.,-11.06358325374));
#175 = DIRECTION('',(7.635879778443E-02,-0.795255306761,-0.60144686471)
  );
#176 = DIRECTION('',(5.748532164119E-02,-0.598693384685,0.798912804335)
  );
#177 = PCURVE('',#33,#178);
#178 = DEFINITIONAL_REPRESENTATION('',(#179),#187);
#179 = B_SPLINE_CURVE_WITH_KNOTS('',6,(#180,#181,#182,#183,#184,#185,
    #186),.UNSPECIFIED.,.F.,.F.,(7,7),(5.299487120256,5.673563109679),
  .PIECEWISE_BEZIER_KNOTS.);
#180 = CARTESIAN_POINT('',(5.791811678272,16.719802955036));
#181 = CARTESIAN_POINT('',(5.729465680035,18.016026004377));
#182 = CARTESIAN_POINT('',(5.667119681798,19.247724195683));
#183 = CARTESIAN_POINT('',(5.604773683561,20.405828477185));
#184 = CARTESIAN_POINT('',(5.542427685324,21.482021493244));
#185 = CARTESIAN_POINT('',(5.480081687087,22.468952058559));
#186 = CARTESIAN_POINT('',(5.417735688849,23.360383297684));
#187 = ( GEOMETRIC_REPRESENTATION_CONTEXT(2) 
PARAMETRIC_REPRESENTATION_CONTEXT() REPRESENTATION_CONTEXT('2D SPACE',''
  ) );
#188 = PCURVE('',#189,#194);
#189 = PLANE('',#190);
#190 = AXIS2_PLACEMENT_3D('',#191,#192,#193);
#191 = CARTESIAN_POINT('',(52.152,-7.12880515584,4.983527005533));
#192 = DIRECTION('',(7.635879778443E-02,-0.795255306761,-0.60144686471)
  );
#193 = DIRECTION('',(-0.997080404983,-6.090254993727E-02,
    -4.606023675819E-02));
#194 = DEFINITIONAL_REPRESENTATION('',(#195),#199);
#195 = ELLIPSE('',#196,31.257956609458,18.8);
#196 = AXIS2_PLACEMENT_2D('',#197,#198);
#197 = CARTESIAN_POINT('',(52.3047085665,17.099069459971));
#198 = DIRECTION('',(-5.765364694152E-02,-0.998336645122));
#199 = ( GEOMETRIC_REPRESENTATION_CONTEXT(2) 
PARAMETRIC_REPRESENTATION_CONTEXT() REPRESENTATION_CONTEXT('2D SPACE',''
  ) );
#200 = ORIENTED_EDGE('',*,*,#201,.F.);
#201 = EDGE_CURVE('',#202,#169,#204,.T.);
#202 = VERTEX_POINT('',#203);
#203 = CARTESIAN_POINT('',(17.397009342039,-7.126293984464,13.95));
#204 = SURFACE_CURVE('',#205,(#210,#221),.PCURVE_S1.);
#205 = ELLIPSE('',#206,23.57118708208,18.8);
#206 = AXIS2_PLACEMENT_3D('',#207,#208,#209);
#207 = CARTESIAN_POINT('',(0.,0.,19.339573810472));
#208 = DIRECTION('',(-0.,0.603207987745,-0.797583928825));
#209 = DIRECTION('',(0.,0.797583928825,0.603207987745));
#210 = PCURVE('',#33,#211);
#211 = DEFINITIONAL_REPRESENTATION('',(#212),#220);
#212 = B_SPLINE_CURVE_WITH_KNOTS('',6,(#213,#214,#215,#216,#217,#218,
    #219),.UNSPECIFIED.,.F.,.F.,(7,7),(1.959574603219,2.617506684977),
  .PIECEWISE_BEZIER_KNOTS.);
#213 = CARTESIAN_POINT('',(5.894407030756,27.9000006));
#214 = CARTESIAN_POINT('',(5.784751683796,26.457237229885));
#215 = CARTESIAN_POINT('',(5.675096336836,25.092241513579));
#216 = CARTESIAN_POINT('',(5.565440989876,23.836235277653));
#217 = CARTESIAN_POINT('',(5.455785642917,22.717658261304));
#218 = CARTESIAN_POINT('',(5.346130295957,21.759820869893));
#219 = CARTESIAN_POINT('',(5.236474948997,20.979605274921));
#220 = ( GEOMETRIC_REPRESENTATION_CONTEXT(2) 
PARAMETRIC_REPRESENTATION_CONTEXT() REPRESENTATION_CONTEXT('2D SPACE',''
  ) );
#221 = PCURVE('',#222,#227);
#222 = PLANE('',#223);
#223 = AXIS2_PLACEMENT_3D('',#224,#225,#226);
#224 = CARTESIAN_POINT('',(33.446688786608,-4.312937112379,16.0777250911
    ));
#225 = DIRECTION('',(-0.,0.603207987745,-0.797583928825));
#226 = DIRECTION('',(0.,-0.797583928825,-0.603207987745));
#227 = DEFINITIONAL_REPRESENTATION('',(#228),#232);
#228 = ELLIPSE('',#229,23.57118708208,18.8);
#229 = AXIS2_PLACEMENT_2D('',#230,#231);
#230 = CARTESIAN_POINT('',(-5.407502529209,33.446688786608));
#231 = DIRECTION('',(-1.,0.));
#232 = ( GEOMETRIC_REPRESENTATION_CONTEXT(2) 
PARAMETRIC_REPRESENTATION_CONTEXT() REPRESENTATION_CONTEXT('2D SPACE',''
  ) );
#233 = ORIENTED_EDGE('',*,*,#234,.F.);
#234 = EDGE_CURVE('',#235,#202,#237,.T.);
#235 = VERTEX_POINT('',#236);
#236 = CARTESIAN_POINT('',(-18.19602968432,-4.726997326757,13.95));
#237 = SURFACE_CURVE('',#238,(#243,#250),.PCURVE_S1.);
#238 = CIRCLE('',#239,18.8);
#239 = AXIS2_PLACEMENT_3D('',#240,#241,#242);
#240 = CARTESIAN_POINT('',(0.,0.,13.95));
#241 = DIRECTION('',(0.,0.,1.));
#242 = DIRECTION('',(1.,0.,0.));
#243 = PCURVE('',#33,#244);
#244 = DEFINITIONAL_REPRESENTATION('',(#245),#249);
#245 = LINE('',#246,#247);
#246 = CARTESIAN_POINT('',(0.,27.9));
#247 = VECTOR('',#248,1.);
#248 = DIRECTION('',(1.,0.));
#249 = ( GEOMETRIC_REPRESENTATION_CONTEXT(2) 
PARAMETRIC_REPRESENTATION_CONTEXT() REPRESENTATION_CONTEXT('2D SPACE',''
  ) );
#250 = PCURVE('',#251,#256);
#251 = PLANE('',#252);
#252 = AXIS2_PLACEMENT_3D('',#253,#254,#255);
#253 = CARTESIAN_POINT('',(0.,0.,13.95));
#254 = DIRECTION('',(0.,0.,1.));
#255 = DIRECTION('',(1.,0.,0.));
#256 = DEFINITIONAL_REPRESENTATION('',(#257),#261);
#257 = CIRCLE('',#258,18.8);
#258 = AXIS2_PLACEMENT_2D('',#259,#260);
#259 = CARTESIAN_POINT('',(0.,0.));
#260 = DIRECTION('',(1.,0.));
#261 = ( GEOMETRIC_REPRESENTATION_CONTEXT(2) 
PARAMETRIC_REPRESENTATION_CONTEXT() REPRESENTATION_CONTEXT('2D SPACE',''
  ) );
#262 = ORIENTED_EDGE('',*,*,#263,.T.);
#263 = EDGE_CURVE('',#235,#264,#266,.T.);
#264 = VERTEX_POINT('',#265);
#265 = CARTESIAN_POINT('',(-16.3289692134,9.316907449779,3.32867823789)
  );
#266 = SURFACE_CURVE('',#267,(#272,#284),.PCURVE_S1.);
#267 = ELLIPSE('',#268,23.57118708208,18.8);
#268 = AXIS2_PLACEMENT_3D('',#269,#270,#271);
#269 = CARTESIAN_POINT('',(0.,0.,10.375));
#270 = DIRECTION('',(-0.,-0.603207987745,-0.797583928825));
#271 = DIRECTION('',(0.,-0.797583928825,0.603207987745));
#272 = PCURVE('',#33,#273);
#273 = DEFINITIONAL_REPRESENTATION('',(#274),#283);
#274 = B_SPLINE_CURVE_WITH_KNOTS('',7,(#275,#276,#277,#278,#279,#280,
    #281,#282),.UNSPECIFIED.,.F.,.F.,(8,8),(1.316632620065,
    2.260579779392),.PIECEWISE_BEZIER_KNOTS.);
#275 = CARTESIAN_POINT('',(3.395756360319,27.9000006));
#276 = CARTESIAN_POINT('',(3.26090676613,26.044261300514));
#277 = CARTESIAN_POINT('',(3.12605717194,24.112677893098));
#278 = CARTESIAN_POINT('',(2.991207577751,22.160367613524));
#279 = CARTESIAN_POINT('',(2.856357983561,20.245828745048));
#280 = CARTESIAN_POINT('',(2.721508389371,18.426841176332));
#281 = CARTESIAN_POINT('',(2.586658795182,16.755882034763));
#282 = CARTESIAN_POINT('',(2.451809200992,15.276880183821));
#283 = ( GEOMETRIC_REPRESENTATION_CONTEXT(2) 
PARAMETRIC_REPRESENTATION_CONTEXT() REPRESENTATION_CONTEXT('2D SPACE',''
  ) );
#284 = PCURVE('',#285,#290);
#285 = PLANE('',#286);
#286 = AXIS2_PLACEMENT_3D('',#287,#288,#289);
#287 = CARTESIAN_POINT('',(-33.4466887866,3.762138931426E-15,10.375));
#288 = DIRECTION('',(-0.,-0.603207987745,-0.797583928825));
#289 = DIRECTION('',(0.,-0.797583928825,0.603207987745));
#290 = DEFINITIONAL_REPRESENTATION('',(#291),#295);
#291 = ELLIPSE('',#292,23.57118708208,18.8);
#292 = AXIS2_PLACEMENT_2D('',#293,#294);
#293 = CARTESIAN_POINT('',(6.21515945355E-15,-33.4466887866));
#294 = DIRECTION('',(1.,0.));
#295 = ( GEOMETRIC_REPRESENTATION_CONTEXT(2) 
PARAMETRIC_REPRESENTATION_CONTEXT() REPRESENTATION_CONTEXT('2D SPACE',''
  ) );
#296 = ORIENTED_EDGE('',*,*,#297,.T.);
#297 = EDGE_CURVE('',#264,#298,#300,.T.);
#298 = VERTEX_POINT('',#299);
#299 = CARTESIAN_POINT('',(-12.71204907477,13.850769232085,8.86431931341
    ));
#300 = SURFACE_CURVE('',#301,(#306,#317),.PCURVE_S1.);
#301 = ELLIPSE('',#302,31.257956609458,18.8);
#302 = AXIS2_PLACEMENT_3D('',#303,#304,#305);
#303 = CARTESIAN_POINT('',(0.,0.,-11.06358325374));
#304 = DIRECTION('',(-7.635879778443E-02,0.795255306761,-0.60144686471)
  );
#305 = DIRECTION('',(-5.748532164119E-02,0.598693384685,0.798912804335)
  );
#306 = PCURVE('',#33,#307);
#307 = DEFINITIONAL_REPRESENTATION('',(#308),#316);
#308 = B_SPLINE_CURVE_WITH_KNOTS('',6,(#309,#310,#311,#312,#313,#314,
    #315),.UNSPECIFIED.,.F.,.F.,(7,7),(5.299487120256,5.673563109679),
  .PIECEWISE_BEZIER_KNOTS.);
#309 = CARTESIAN_POINT('',(2.650219024683,16.719802955036));
#310 = CARTESIAN_POINT('',(2.587873026445,18.016026004377));
#311 = CARTESIAN_POINT('',(2.525527028208,19.247724195684));
#312 = CARTESIAN_POINT('',(2.463181029971,20.405828477186));
#313 = CARTESIAN_POINT('',(2.400835031734,21.482021493244));
#314 = CARTESIAN_POINT('',(2.338489033497,22.468952058559));
#315 = CARTESIAN_POINT('',(2.27614303526,23.360383297684));
#316 = ( GEOMETRIC_REPRESENTATION_CONTEXT(2) 
PARAMETRIC_REPRESENTATION_CONTEXT() REPRESENTATION_CONTEXT('2D SPACE',''
  ) );
#317 = PCURVE('',#318,#323);
#318 = PLANE('',#319);
#319 = AXIS2_PLACEMENT_3D('',#320,#321,#322);
#320 = CARTESIAN_POINT('',(-52.152,7.12880515584,4.983527005533));
#321 = DIRECTION('',(-7.635879778443E-02,0.795255306761,-0.60144686471)
  );
#322 = DIRECTION('',(0.997080404983,6.090254993727E-02,
    -4.606023675819E-02));
#323 = DEFINITIONAL_REPRESENTATION('',(#324),#328);
#324 = ELLIPSE('',#325,31.257956609458,18.8);
#325 = AXIS2_PLACEMENT_2D('',#326,#327);
#326 = CARTESIAN_POINT('',(52.3047085665,17.099069459971));
#327 = DIRECTION('',(-5.765364694152E-02,-0.998336645122));
#328 = ( GEOMETRIC_REPRESENTATION_CONTEXT(2) 
PARAMETRIC_REPRESENTATION_CONTEXT() REPRESENTATION_CONTEXT('2D SPACE',''
  ) );
#329 = ORIENTED_EDGE('',*,*,#330,.F.);
#330 = EDGE_CURVE('',#24,#298,#331,.T.);
#331 = SURFACE_CURVE('',#332,(#337,#348),.PCURVE_S1.);
#332 = ELLIPSE('',#333,23.57118708208,18.8);
#333 = AXIS2_PLACEMENT_3D('',#334,#335,#336);
#334 = CARTESIAN_POINT('',(0.,0.,19.339573810472));
#335 = DIRECTION('',(-0.,-0.603207987745,-0.797583928825));
#336 = DIRECTION('',(0.,-0.797583928825,0.603207987745));
#337 = PCURVE('',#33,#338);
#338 = DEFINITIONAL_REPRESENTATION('',(#339),#347);
#339 = B_SPLINE_CURVE_WITH_KNOTS('',6,(#340,#341,#342,#343,#344,#345,
    #346),.UNSPECIFIED.,.F.,.F.,(7,7),(1.959574603219,2.617506684977),
  .PIECEWISE_BEZIER_KNOTS.);
#340 = CARTESIAN_POINT('',(2.752814377166,27.9000006));
#341 = CARTESIAN_POINT('',(2.643159030206,26.457237229885));
#342 = CARTESIAN_POINT('',(2.533503683246,25.092241513579));
#343 = CARTESIAN_POINT('',(2.423848336287,23.836235277653));
#344 = CARTESIAN_POINT('',(2.314192989327,22.717658261304));
#345 = CARTESIAN_POINT('',(2.204537642367,21.759820869893));
#346 = CARTESIAN_POINT('',(2.094882295407,20.979605274921));
#347 = ( GEOMETRIC_REPRESENTATION_CONTEXT(2) 
PARAMETRIC_REPRESENTATION_CONTEXT() REPRESENTATION_CONTEXT('2D SPACE',''
  ) );
#348 = PCURVE('',#349,#354);
#349 = PLANE('',#350);
#350 = AXIS2_PLACEMENT_3D('',#351,#352,#353);
#351 = CARTESIAN_POINT('',(-33.4466887866,4.312937112379,16.0777250911)
  );
#352 = DIRECTION('',(-0.,-0.603207987745,-0.797583928825));
#353 = DIRECTION('',(0.,-0.797583928825,0.603207987745));
#354 = DEFINITIONAL_REPRESENTATION('',(#355),#359);
#355 = ELLIPSE('',#356,23.57118708208,18.8);
#356 = AXIS2_PLACEMENT_2D('',#357,#358);
#357 = CARTESIAN_POINT('',(5.407502529209,-33.4466887866));
#358 = DIRECTION('',(1.,0.));
#359 = ( GEOMETRIC_REPRESENTATION_CONTEXT(2) 
PARAMETRIC_REPRESENTATION_CONTEXT() REPRESENTATION_CONTEXT('2D SPACE',''
  ) );
#360 = ADVANCED_FACE('',(#361),#45,.T.);
#361 = FACE_BOUND('',#362,.T.);
#362 = EDGE_LOOP('',(#363,#384,#385,#406));
#363 = ORIENTED_EDGE('',*,*,#364,.F.);
#364 = EDGE_CURVE('',#22,#365,#367,.T.);
#365 = VERTEX_POINT('',#366);
#366 = CARTESIAN_POINT('',(16.246288692278,4.726997326757,13.95));
#367 = SURFACE_CURVE('',#368,(#372,#378),.PCURVE_S1.);
#368 = LINE('',#369,#370);
#369 = CARTESIAN_POINT('',(16.723344393304,4.726997326757,13.95));
#370 = VECTOR('',#371,1.);
#371 = DIRECTION('',(-1.,0.,0.));
#372 = PCURVE('',#45,#373);
#373 = DEFINITIONAL_REPRESENTATION('',(#374),#377);
#374 = B_SPLINE_CURVE_WITH_KNOTS('',1,(#375,#376),.UNSPECIFIED.,.F.,.F.,
  (2,2),(-2.076655606696,11.083344393304),.PIECEWISE_BEZIER_KNOTS.);
#375 = CARTESIAN_POINT('',(18.8,4.726997326757));
#376 = CARTESIAN_POINT('',(5.64,4.726997326757));
#377 = ( GEOMETRIC_REPRESENTATION_CONTEXT(2) 
PARAMETRIC_REPRESENTATION_CONTEXT() REPRESENTATION_CONTEXT('2D SPACE',''
  ) );
#378 = PCURVE('',#77,#379);
#379 = DEFINITIONAL_REPRESENTATION('',(#380),#383);
#380 = B_SPLINE_CURVE_WITH_KNOTS('',1,(#381,#382),.UNSPECIFIED.,.F.,.F.,
  (2,2),(-2.076655606696,11.083344393304),.PIECEWISE_BEZIER_KNOTS.);
#381 = CARTESIAN_POINT('',(-5.92664565561,14.646688786608));
#382 = CARTESIAN_POINT('',(-5.92664565561,27.806688786608));
#383 = ( GEOMETRIC_REPRESENTATION_CONTEXT(2) 
PARAMETRIC_REPRESENTATION_CONTEXT() REPRESENTATION_CONTEXT('2D SPACE',''
  ) );
#384 = ORIENTED_EDGE('',*,*,#21,.T.);
#385 = ORIENTED_EDGE('',*,*,#386,.T.);
#386 = EDGE_CURVE('',#24,#387,#389,.T.);
#387 = VERTEX_POINT('',#388);
#388 = CARTESIAN_POINT('',(-15.34608530039,7.126293984464,13.95));
#389 = SURFACE_CURVE('',#390,(#394,#400),.PCURVE_S1.);
#390 = LINE('',#391,#392);
#391 = CARTESIAN_POINT('',(-16.7233443933,7.126293984464,13.95));
#392 = VECTOR('',#393,1.);
#393 = DIRECTION('',(1.,0.,0.));
#394 = PCURVE('',#45,#395);
#395 = DEFINITIONAL_REPRESENTATION('',(#396),#399);
#396 = B_SPLINE_CURVE_WITH_KNOTS('',1,(#397,#398),.UNSPECIFIED.,.F.,.F.,
  (2,2),(-2.076655606696,11.083344393304),.PIECEWISE_BEZIER_KNOTS.);
#397 = CARTESIAN_POINT('',(-18.8,7.126293984464));
#398 = CARTESIAN_POINT('',(-5.64,7.126293984464));
#399 = ( GEOMETRIC_REPRESENTATION_CONTEXT(2) 
PARAMETRIC_REPRESENTATION_CONTEXT() REPRESENTATION_CONTEXT('2D SPACE',''
  ) );
#400 = PCURVE('',#349,#401);
#401 = DEFINITIONAL_REPRESENTATION('',(#402),#405);
#402 = B_SPLINE_CURVE_WITH_KNOTS('',1,(#403,#404),.UNSPECIFIED.,.F.,.F.,
  (2,2),(-2.076655606696,11.083344393304),.PIECEWISE_BEZIER_KNOTS.);
#403 = CARTESIAN_POINT('',(-3.527348997903,-14.6466887866));
#404 = CARTESIAN_POINT('',(-3.527348997903,-27.8066887866));
#405 = ( GEOMETRIC_REPRESENTATION_CONTEXT(2) 
PARAMETRIC_REPRESENTATION_CONTEXT() REPRESENTATION_CONTEXT('2D SPACE',''
  ) );
#406 = ORIENTED_EDGE('',*,*,#407,.F.);
#407 = EDGE_CURVE('',#365,#387,#408,.T.);
#408 = SURFACE_CURVE('',#409,(#414,#421),.PCURVE_S1.);
#409 = CIRCLE('',#410,16.92);
#410 = AXIS2_PLACEMENT_3D('',#411,#412,#413);
#411 = CARTESIAN_POINT('',(0.,0.,13.95));
#412 = DIRECTION('',(0.,0.,1.));
#413 = DIRECTION('',(1.,0.,0.));
#414 = PCURVE('',#45,#415);
#415 = DEFINITIONAL_REPRESENTATION('',(#416),#420);
#416 = CIRCLE('',#417,16.92);
#417 = AXIS2_PLACEMENT_2D('',#418,#419);
#418 = CARTESIAN_POINT('',(0.,0.));
#419 = DIRECTION('',(1.,0.));
#420 = ( GEOMETRIC_REPRESENTATION_CONTEXT(2) 
PARAMETRIC_REPRESENTATION_CONTEXT() REPRESENTATION_CONTEXT('2D SPACE',''
  ) );
#421 = PCURVE('',#422,#427);
#422 = CONICAL_SURFACE('',#423,16.92,1.042479981905);
#423 = AXIS2_PLACEMENT_3D('',#424,#425,#426);
#424 = CARTESIAN_POINT('',(0.,0.,13.95));
#425 = DIRECTION('',(-0.,-0.,-1.));
#426 = DIRECTION('',(1.,0.,0.));
#427 = DEFINITIONAL_REPRESENTATION('',(#428),#432);
#428 = LINE('',#429,#430);
#429 = CARTESIAN_POINT('',(-0.,-0.));
#430 = VECTOR('',#431,1.);
#431 = DIRECTION('',(-1.,-0.));
#432 = ( GEOMETRIC_REPRESENTATION_CONTEXT(2) 
PARAMETRIC_REPRESENTATION_CONTEXT() REPRESENTATION_CONTEXT('2D SPACE',''
  ) );
#433 = ADVANCED_FACE('',(#434),#349,.F.);
#434 = FACE_BOUND('',#435,.F.);
#435 = EDGE_LOOP('',(#436,#480,#508,#536,#564,#592,#613,#614));
#436 = ORIENTED_EDGE('',*,*,#437,.T.);
#437 = EDGE_CURVE('',#387,#438,#440,.T.);
#438 = VERTEX_POINT('',#439);
#439 = CARTESIAN_POINT('',(-5.64,-1.439356543202,20.42815061436));
#440 = SURFACE_CURVE('',#441,(#446,#453),.PCURVE_S1.);
#441 = HYPERBOLA('',#442,14.190930264873,9.32695679152);
#442 = AXIS2_PLACEMENT_3D('',#443,#444,#445);
#443 = CARTESIAN_POINT('',(0.,-14.66627466501,30.431590222379));
#444 = DIRECTION('',(0.,-0.603207987745,-0.797583928825));
#445 = DIRECTION('',(0.,0.797583928825,-0.603207987745));
#446 = PCURVE('',#349,#447);
#447 = DEFINITIONAL_REPRESENTATION('',(#448),#452);
#448 = ( BOUNDED_CURVE() B_SPLINE_CURVE(2,(#449,#450,#451),
.UNSPECIFIED.,.F.,.F.) B_SPLINE_CURVE_WITH_KNOTS((3,3),(-1.272775207477,
8.780434171364E-02),.PIECEWISE_BEZIER_KNOTS.) CURVE() 
GEOMETRIC_REPRESENTATION_ITEM() RATIONAL_B_SPLINE_CURVE((1.,
1.240460001816,1.)) REPRESENTATION_ITEM('') );
#449 = CARTESIAN_POINT('',(-3.527348997903,-18.10060348621));
#450 = CARTESIAN_POINT('',(10.288442305527,-28.72656852323));
#451 = CARTESIAN_POINT('',(9.550211763532,-34.2666887866));
#452 = ( GEOMETRIC_REPRESENTATION_CONTEXT(2) 
PARAMETRIC_REPRESENTATION_CONTEXT() REPRESENTATION_CONTEXT('2D SPACE',''
  ) );
#453 = PCURVE('',#422,#454);
#454 = DEFINITIONAL_REPRESENTATION('',(#455),#479);
#455 = B_SPLINE_CURVE_WITH_KNOTS('',8,(#456,#457,#458,#459,#460,#461,
    #462,#463,#464,#465,#466,#467,#468,#469,#470,#471,#472,#473,#474,
    #475,#476,#477,#478),.UNSPECIFIED.,.F.,.F.,(9,7,7,9),(
    -1.272775207477,-0.592485432882,-0.252340545584,8.780434171364E-02),
  .UNSPECIFIED.);
#456 = CARTESIAN_POINT('',(-2.706851367465,-3.352146583968E-15));
#457 = CARTESIAN_POINT('',(-2.753726613722,-1.197676557278));
#458 = CARTESIAN_POINT('',(-2.807098634437,-2.259146257925));
#459 = CARTESIAN_POINT('',(-2.868209174231,-3.197606187939));
#460 = CARTESIAN_POINT('',(-2.938605884002,-4.024152258015));
#461 = CARTESIAN_POINT('',(-3.020300240488,-4.748084513002));
#462 = CARTESIAN_POINT('',(-3.115738488987,-5.377131658212));
#463 = CARTESIAN_POINT('',(-3.228240935083,-5.917617415751));
#464 = CARTESIAN_POINT('',(-3.42658191001,-6.603056760161));
#465 = CARTESIAN_POINT('',(-3.497626500413,-6.810654993105));
#466 = CARTESIAN_POINT('',(-3.573936026119,-6.998001076683));
#467 = CARTESIAN_POINT('',(-3.655796772185,-7.165643879165));
#468 = CARTESIAN_POINT('',(-3.743416810151,-7.314055375149));
#469 = CARTESIAN_POINT('',(-3.836825388822,-7.443633515923));
#470 = CARTESIAN_POINT('',(-3.935766970658,-7.554704381726));
#471 = CARTESIAN_POINT('',(-4.143542375775,-7.740342947664));
#472 = CARTESIAN_POINT('',(-4.252377151888,-7.814910647794));
#473 = CARTESIAN_POINT('',(-4.365568924108,-7.871482456594));
#474 = CARTESIAN_POINT('',(-4.482222129173,-7.910243677364));
#475 = CARTESIAN_POINT('',(-4.601049815023,-7.931310700848));
#476 = CARTESIAN_POINT('',(-4.720530715922,-7.934731810973));
#477 = CARTESIAN_POINT('',(-4.839160271484,-7.920487329887));
#478 = CARTESIAN_POINT('',(-4.955646555353,-7.888489111522));
#479 = ( GEOMETRIC_REPRESENTATION_CONTEXT(2) 
PARAMETRIC_REPRESENTATION_CONTEXT() REPRESENTATION_CONTEXT('2D SPACE',''
  ) );
#480 = ORIENTED_EDGE('',*,*,#481,.T.);
#481 = EDGE_CURVE('',#438,#482,#484,.T.);
#482 = VERTEX_POINT('',#483);
#483 = CARTESIAN_POINT('',(-5.64,-5.656861997937,23.617824937916));
#484 = SURFACE_CURVE('',#485,(#489,#496),.PCURVE_S1.);
#485 = LINE('',#486,#487);
#486 = CARTESIAN_POINT('',(-5.64,14.282736222694,8.537625244284));
#487 = VECTOR('',#488,1.);
#488 = DIRECTION('',(-7.105427357601E-17,-0.797583928825,0.603207987745)
  );
#489 = PCURVE('',#349,#490);
#490 = DEFINITIONAL_REPRESENTATION('',(#491),#495);
#491 = LINE('',#492,#493);
#492 = CARTESIAN_POINT('',(-12.5,-27.8066887866));
#493 = VECTOR('',#494,1.);
#494 = DIRECTION('',(1.,7.105427357601E-17));
#495 = ( GEOMETRIC_REPRESENTATION_CONTEXT(2) 
PARAMETRIC_REPRESENTATION_CONTEXT() REPRESENTATION_CONTEXT('2D SPACE',''
  ) );
#496 = PCURVE('',#497,#502);
#497 = PLANE('',#498);
#498 = AXIS2_PLACEMENT_3D('',#499,#500,#501);
#499 = CARTESIAN_POINT('',(-5.64,9.969799110315,2.834900153184));
#500 = DIRECTION('',(1.,-1.012317299855E-16,-1.605835390839E-17));
#501 = DIRECTION('',(-7.105427357601E-17,-0.797583928825,0.603207987745)
  );
#502 = DEFINITIONAL_REPRESENTATION('',(#503),#507);
#503 = LINE('',#504,#505);
#504 = CARTESIAN_POINT('',(6.786252456444E-17,-7.15));
#505 = VECTOR('',#506,1.);
#506 = DIRECTION('',(1.,-8.93036204381E-18));
#507 = ( GEOMETRIC_REPRESENTATION_CONTEXT(2) 
PARAMETRIC_REPRESENTATION_CONTEXT() REPRESENTATION_CONTEXT('2D SPACE',''
  ) );
#508 = ORIENTED_EDGE('',*,*,#509,.T.);
#509 = EDGE_CURVE('',#482,#510,#512,.T.);
#510 = VERTEX_POINT('',#511);
#511 = CARTESIAN_POINT('',(-52.152,-2.815868043461,21.469198085568));
#512 = SURFACE_CURVE('',#513,(#517,#524),.PCURVE_S1.);
#513 = LINE('',#514,#515);
#514 = CARTESIAN_POINT('',(-5.64,-5.656861997937,23.617824937916));
#515 = VECTOR('',#516,1.);
#516 = DIRECTION('',(-0.997080404983,6.090254993727E-02,
    -4.606023675819E-02));
#517 = PCURVE('',#349,#518);
#518 = DEFINITIONAL_REPRESENTATION('',(#519),#523);
#519 = LINE('',#520,#521);
#520 = CARTESIAN_POINT('',(12.5,-27.8066887866));
#521 = VECTOR('',#522,1.);
#522 = DIRECTION('',(-7.635879778443E-02,0.997080404983));
#523 = ( GEOMETRIC_REPRESENTATION_CONTEXT(2) 
PARAMETRIC_REPRESENTATION_CONTEXT() REPRESENTATION_CONTEXT('2D SPACE',''
  ) );
#524 = PCURVE('',#525,#530);
#525 = PLANE('',#526);
#526 = AXIS2_PLACEMENT_3D('',#527,#528,#529);
#527 = CARTESIAN_POINT('',(-5.64,-9.969799110315,17.915099846816));
#528 = DIRECTION('',(-7.635879778443E-02,-0.795255306761,0.60144686471)
  );
#529 = DIRECTION('',(-0.997080404983,6.090254993727E-02,
    -4.606023675819E-02));
#530 = DEFINITIONAL_REPRESENTATION('',(#531),#535);
#531 = LINE('',#532,#533);
#532 = CARTESIAN_POINT('',(-1.490895162522E-16,-7.15));
#533 = VECTOR('',#534,1.);
#534 = DIRECTION('',(1.,-1.314816507632E-17));
#535 = ( GEOMETRIC_REPRESENTATION_CONTEXT(2) 
PARAMETRIC_REPRESENTATION_CONTEXT() REPRESENTATION_CONTEXT('2D SPACE',''
  ) );
#536 = ORIENTED_EDGE('',*,*,#537,.T.);
#537 = EDGE_CURVE('',#510,#538,#540,.T.);
#538 = VERTEX_POINT('',#539);
#539 = CARTESIAN_POINT('',(-70.24,4.312937112379,16.0777250911));
#540 = SURFACE_CURVE('',#541,(#545,#552),.PCURVE_S1.);
#541 = LINE('',#542,#543);
#542 = CARTESIAN_POINT('',(-52.152,-2.815868043461,21.469198085568));
#543 = VECTOR('',#544,1.);
#544 = DIRECTION('',(-0.896518841362,0.353334151847,-0.267224520247));
#545 = PCURVE('',#349,#546);
#546 = DEFINITIONAL_REPRESENTATION('',(#547),#551);
#547 = LINE('',#548,#549);
#548 = CARTESIAN_POINT('',(8.938,18.705311213392));
#549 = VECTOR('',#550,1.);
#550 = DIRECTION('',(-0.443005606153,0.896518841362));
#551 = ( GEOMETRIC_REPRESENTATION_CONTEXT(2) 
PARAMETRIC_REPRESENTATION_CONTEXT() REPRESENTATION_CONTEXT('2D SPACE',''
  ) );
#552 = PCURVE('',#553,#558);
#553 = PLANE('',#554);
#554 = AXIS2_PLACEMENT_3D('',#555,#556,#557);
#555 = CARTESIAN_POINT('',(-52.152,-7.12880515584,15.766472994467));
#556 = DIRECTION('',(-0.443005606153,-0.715049019759,0.540787326274));
#557 = DIRECTION('',(-0.896518841362,0.353334151847,-0.267224520247));
#558 = DEFINITIONAL_REPRESENTATION('',(#559),#563);
#559 = LINE('',#560,#561);
#560 = CARTESIAN_POINT('',(2.57267524161E-16,-7.15));
#561 = VECTOR('',#562,1.);
#562 = DIRECTION('',(1.,-4.108830745367E-17));
#563 = ( GEOMETRIC_REPRESENTATION_CONTEXT(2) 
PARAMETRIC_REPRESENTATION_CONTEXT() REPRESENTATION_CONTEXT('2D SPACE',''
  ) );
#564 = ORIENTED_EDGE('',*,*,#565,.T.);
#565 = EDGE_CURVE('',#538,#566,#568,.T.);
#566 = VERTEX_POINT('',#567);
#567 = CARTESIAN_POINT('',(-52.152,11.441742268219,10.686252096633));
#568 = SURFACE_CURVE('',#569,(#573,#580),.PCURVE_S1.);
#569 = LINE('',#570,#571);
#570 = CARTESIAN_POINT('',(-70.24,4.312937112379,16.0777250911));
#571 = VECTOR('',#572,1.);
#572 = DIRECTION('',(0.896518841362,0.353334151847,-0.267224520247));
#573 = PCURVE('',#349,#574);
#574 = DEFINITIONAL_REPRESENTATION('',(#575),#579);
#575 = LINE('',#576,#577);
#576 = CARTESIAN_POINT('',(-2.845464599372E-15,36.793311213392));
#577 = VECTOR('',#578,1.);
#578 = DIRECTION('',(-0.443005606153,-0.896518841362));
#579 = ( GEOMETRIC_REPRESENTATION_CONTEXT(2) 
PARAMETRIC_REPRESENTATION_CONTEXT() REPRESENTATION_CONTEXT('2D SPACE',''
  ) );
#580 = PCURVE('',#581,#586);
#581 = PLANE('',#582);
#582 = AXIS2_PLACEMENT_3D('',#583,#584,#585);
#583 = CARTESIAN_POINT('',(-70.24,8.601919117211E-15,10.375));
#584 = DIRECTION('',(-0.443005606153,0.715049019759,-0.540787326274));
#585 = DIRECTION('',(0.896518841362,0.353334151847,-0.267224520247));
#586 = DEFINITIONAL_REPRESENTATION('',(#587),#591);
#587 = LINE('',#588,#589);
#588 = CARTESIAN_POINT('',(-4.088662906141E-16,-7.15));
#589 = VECTOR('',#590,1.);
#590 = DIRECTION('',(1.,1.442284377759E-17));
#591 = ( GEOMETRIC_REPRESENTATION_CONTEXT(2) 
PARAMETRIC_REPRESENTATION_CONTEXT() REPRESENTATION_CONTEXT('2D SPACE',''
  ) );
#592 = ORIENTED_EDGE('',*,*,#593,.T.);
#593 = EDGE_CURVE('',#566,#298,#594,.T.);
#594 = SURFACE_CURVE('',#595,(#599,#606),.PCURVE_S1.);
#595 = LINE('',#596,#597);
#596 = CARTESIAN_POINT('',(-52.152,11.441742268219,10.686252096633));
#597 = VECTOR('',#598,1.);
#598 = DIRECTION('',(0.997080404983,6.090254993727E-02,
    -4.606023675819E-02));
#599 = PCURVE('',#349,#600);
#600 = DEFINITIONAL_REPRESENTATION('',(#601),#605);
#601 = LINE('',#602,#603);
#602 = CARTESIAN_POINT('',(-8.938,18.705311213392));
#603 = VECTOR('',#604,1.);
#604 = DIRECTION('',(-7.635879778443E-02,-0.997080404983));
#605 = ( GEOMETRIC_REPRESENTATION_CONTEXT(2) 
PARAMETRIC_REPRESENTATION_CONTEXT() REPRESENTATION_CONTEXT('2D SPACE',''
  ) );
#606 = PCURVE('',#318,#607);
#607 = DEFINITIONAL_REPRESENTATION('',(#608),#612);
#608 = LINE('',#609,#610);
#609 = CARTESIAN_POINT('',(-7.854589195904E-16,-7.15));
#610 = VECTOR('',#611,1.);
#611 = DIRECTION('',(1.,-3.567832503219E-18));
#612 = ( GEOMETRIC_REPRESENTATION_CONTEXT(2) 
PARAMETRIC_REPRESENTATION_CONTEXT() REPRESENTATION_CONTEXT('2D SPACE',''
  ) );
#613 = ORIENTED_EDGE('',*,*,#330,.F.);
#614 = ORIENTED_EDGE('',*,*,#386,.T.);
#615 = ADVANCED_FACE('',(#616),#318,.T.);
#616 = FACE_BOUND('',#617,.T.);
#617 = EDGE_LOOP('',(#618,#641,#662,#663));
#618 = ORIENTED_EDGE('',*,*,#619,.F.);
#619 = EDGE_CURVE('',#620,#264,#622,.T.);
#620 = VERTEX_POINT('',#621);
#621 = CARTESIAN_POINT('',(-52.152,7.12880515584,4.983527005533));
#622 = SURFACE_CURVE('',#623,(#627,#634),.PCURVE_S1.);
#623 = LINE('',#624,#625);
#624 = CARTESIAN_POINT('',(-52.152,7.12880515584,4.983527005533));
#625 = VECTOR('',#626,1.);
#626 = DIRECTION('',(0.997080404983,6.090254993727E-02,
    -4.606023675819E-02));
#627 = PCURVE('',#318,#628);
#628 = DEFINITIONAL_REPRESENTATION('',(#629),#633);
#629 = LINE('',#630,#631);
#630 = CARTESIAN_POINT('',(0.,-0.));
#631 = VECTOR('',#632,1.);
#632 = DIRECTION('',(1.,-3.567832503219E-18));
#633 = ( GEOMETRIC_REPRESENTATION_CONTEXT(2) 
PARAMETRIC_REPRESENTATION_CONTEXT() REPRESENTATION_CONTEXT('2D SPACE',''
  ) );
#634 = PCURVE('',#285,#635);
#635 = DEFINITIONAL_REPRESENTATION('',(#636),#640);
#636 = LINE('',#637,#638);
#637 = CARTESIAN_POINT('',(-8.938,18.705311213392));
#638 = VECTOR('',#639,1.);
#639 = DIRECTION('',(-7.635879778443E-02,-0.997080404983));
#640 = ( GEOMETRIC_REPRESENTATION_CONTEXT(2) 
PARAMETRIC_REPRESENTATION_CONTEXT() REPRESENTATION_CONTEXT('2D SPACE',''
  ) );
#641 = ORIENTED_EDGE('',*,*,#642,.T.);
#642 = EDGE_CURVE('',#620,#566,#643,.T.);
#643 = SURFACE_CURVE('',#644,(#648,#655),.PCURVE_S1.);
#644 = LINE('',#645,#646);
#645 = CARTESIAN_POINT('',(-52.152,7.12880515584,4.983527005533));
#646 = VECTOR('',#647,1.);
#647 = DIRECTION('',(7.387167314124E-17,0.603207987745,0.797583928825));
#648 = PCURVE('',#318,#649);
#649 = DEFINITIONAL_REPRESENTATION('',(#650),#654);
#650 = LINE('',#651,#652);
#651 = CARTESIAN_POINT('',(-1.318262226409E-17,1.244153150788E-15));
#652 = VECTOR('',#653,1.);
#653 = DIRECTION('',(-3.624035055318E-17,-1.));
#654 = ( GEOMETRIC_REPRESENTATION_CONTEXT(2) 
PARAMETRIC_REPRESENTATION_CONTEXT() REPRESENTATION_CONTEXT('2D SPACE',''
  ) );
#655 = PCURVE('',#581,#656);
#656 = DEFINITIONAL_REPRESENTATION('',(#657),#661);
#657 = LINE('',#658,#659);
#658 = CARTESIAN_POINT('',(20.175816910351,-7.862741448268E-16));
#659 = VECTOR('',#660,1.);
#660 = DIRECTION('',(-7.184630090552E-17,-1.));
#661 = ( GEOMETRIC_REPRESENTATION_CONTEXT(2) 
PARAMETRIC_REPRESENTATION_CONTEXT() REPRESENTATION_CONTEXT('2D SPACE',''
  ) );
#662 = ORIENTED_EDGE('',*,*,#593,.T.);
#663 = ORIENTED_EDGE('',*,*,#297,.F.);
#664 = ADVANCED_FACE('',(#665),#285,.T.);
#665 = FACE_BOUND('',#666,.T.);
#666 = EDGE_LOOP('',(#667,#702,#725,#748,#771,#792,#793,#794));
#667 = ORIENTED_EDGE('',*,*,#668,.T.);
#668 = EDGE_CURVE('',#669,#671,#673,.T.);
#669 = VERTEX_POINT('',#670);
#670 = CARTESIAN_POINT('',(-16.24628869227,-4.726997326757,13.95));
#671 = VERTEX_POINT('',#672);
#672 = CARTESIAN_POINT('',(-5.64,-9.354759354815,17.449948933049));
#673 = SURFACE_CURVE('',#674,(#679,#686),.PCURVE_S1.);
#674 = HYPERBOLA('',#675,42.549851619102,27.965793653382);
#675 = AXIS2_PLACEMENT_3D('',#676,#677,#678);
#676 = CARTESIAN_POINT('',(0.,-43.97511644081,43.633119353284));
#677 = DIRECTION('',(0.,-0.603207987745,-0.797583928825));
#678 = DIRECTION('',(0.,0.797583928825,-0.603207987745));
#679 = PCURVE('',#285,#680);
#680 = DEFINITIONAL_REPRESENTATION('',(#681),#685);
#681 = ( BOUNDED_CURVE() B_SPLINE_CURVE(2,(#682,#683,#684),
.UNSPECIFIED.,.F.,.F.) B_SPLINE_CURVE_WITH_KNOTS((3,3),(-0.552407594246,
2.931733517384E-02),.PIECEWISE_BEZIER_KNOTS.) CURVE() 
GEOMETRIC_REPRESENTATION_ITEM() RATIONAL_B_SPLINE_CURVE((1.,
1.042599550818,1.)) REPRESENTATION_ITEM('') );
#682 = CARTESIAN_POINT('',(5.92664565561,-17.20040009433));
#683 = CARTESIAN_POINT('',(12.920259675836,-26.35097005668));
#684 = CARTESIAN_POINT('',(12.567270534426,-34.2666887866));
#685 = ( GEOMETRIC_REPRESENTATION_CONTEXT(2) 
PARAMETRIC_REPRESENTATION_CONTEXT() REPRESENTATION_CONTEXT('2D SPACE',''
  ) );
#686 = PCURVE('',#422,#687);
#687 = DEFINITIONAL_REPRESENTATION('',(#688),#701);
#688 = B_SPLINE_CURVE_WITH_KNOTS('',6,(#689,#690,#691,#692,#693,#694,
    #695,#696,#697,#698,#699,#700),.UNSPECIFIED.,.F.,.F.,(7,5,7),(
    -0.552407594246,-0.261545129536,2.931733517384E-02),.UNSPECIFIED.);
#689 = CARTESIAN_POINT('',(-3.424734079528,9.027324732409E-16));
#690 = CARTESIAN_POINT('',(-3.504858189748,-0.722817370364));
#691 = CARTESIAN_POINT('',(-3.592020800741,-1.361927725079));
#692 = CARTESIAN_POINT('',(-3.686741141554,-1.920386916486));
#693 = CARTESIAN_POINT('',(-3.789402789154,-2.400665757496));
#694 = CARTESIAN_POINT('',(-3.899897072659,-2.804681100713));
#695 = CARTESIAN_POINT('',(-4.134635882458,-3.462972734398));
#696 = CARTESIAN_POINT('',(-4.258880672721,-3.717248685831));
#697 = CARTESIAN_POINT('',(-4.389058656919,-3.898047069538));
#698 = CARTESIAN_POINT('',(-4.523406807665,-4.006232369713));
#699 = CARTESIAN_POINT('',(-4.659212892048,-4.042160779299));
#700 = CARTESIAN_POINT('',(-4.794015342813,-4.005677970522));
#701 = ( GEOMETRIC_REPRESENTATION_CONTEXT(2) 
PARAMETRIC_REPRESENTATION_CONTEXT() REPRESENTATION_CONTEXT('2D SPACE',''
  ) );
#702 = ORIENTED_EDGE('',*,*,#703,.T.);
#703 = EDGE_CURVE('',#671,#704,#706,.T.);
#704 = VERTEX_POINT('',#705);
#705 = CARTESIAN_POINT('',(-5.64,-9.969799110315,17.915099846816));
#706 = SURFACE_CURVE('',#707,(#711,#718),.PCURVE_S1.);
#707 = LINE('',#708,#709);
#708 = CARTESIAN_POINT('',(-5.64,9.969799110315,2.834900153184));
#709 = VECTOR('',#710,1.);
#710 = DIRECTION('',(-7.105427357601E-17,-0.797583928825,0.603207987745)
  );
#711 = PCURVE('',#285,#712);
#712 = DEFINITIONAL_REPRESENTATION('',(#713),#717);
#713 = LINE('',#714,#715);
#714 = CARTESIAN_POINT('',(-12.5,-27.8066887866));
#715 = VECTOR('',#716,1.);
#716 = DIRECTION('',(1.,7.105427357601E-17));
#717 = ( GEOMETRIC_REPRESENTATION_CONTEXT(2) 
PARAMETRIC_REPRESENTATION_CONTEXT() REPRESENTATION_CONTEXT('2D SPACE',''
  ) );
#718 = PCURVE('',#497,#719);
#719 = DEFINITIONAL_REPRESENTATION('',(#720),#724);
#720 = LINE('',#721,#722);
#721 = CARTESIAN_POINT('',(0.,-0.));
#722 = VECTOR('',#723,1.);
#723 = DIRECTION('',(1.,-8.93036204381E-18));
#724 = ( GEOMETRIC_REPRESENTATION_CONTEXT(2) 
PARAMETRIC_REPRESENTATION_CONTEXT() REPRESENTATION_CONTEXT('2D SPACE',''
  ) );
#725 = ORIENTED_EDGE('',*,*,#726,.T.);
#726 = EDGE_CURVE('',#704,#727,#729,.T.);
#727 = VERTEX_POINT('',#728);
#728 = CARTESIAN_POINT('',(-52.152,-7.12880515584,15.766472994467));
#729 = SURFACE_CURVE('',#730,(#734,#741),.PCURVE_S1.);
#730 = LINE('',#731,#732);
#731 = CARTESIAN_POINT('',(-5.64,-9.969799110315,17.915099846816));
#732 = VECTOR('',#733,1.);
#733 = DIRECTION('',(-0.997080404983,6.090254993727E-02,
    -4.606023675819E-02));
#734 = PCURVE('',#285,#735);
#735 = DEFINITIONAL_REPRESENTATION('',(#736),#740);
#736 = LINE('',#737,#738);
#737 = CARTESIAN_POINT('',(12.5,-27.8066887866));
#738 = VECTOR('',#739,1.);
#739 = DIRECTION('',(-7.635879778443E-02,0.997080404983));
#740 = ( GEOMETRIC_REPRESENTATION_CONTEXT(2) 
PARAMETRIC_REPRESENTATION_CONTEXT() REPRESENTATION_CONTEXT('2D SPACE',''
  ) );
#741 = PCURVE('',#525,#742);
#742 = DEFINITIONAL_REPRESENTATION('',(#743),#747);
#743 = LINE('',#744,#745);
#744 = CARTESIAN_POINT('',(0.,-0.));
#745 = VECTOR('',#746,1.);
#746 = DIRECTION('',(1.,-1.314816507632E-17));
#747 = ( GEOMETRIC_REPRESENTATION_CONTEXT(2) 
PARAMETRIC_REPRESENTATION_CONTEXT() REPRESENTATION_CONTEXT('2D SPACE',''
  ) );
#748 = ORIENTED_EDGE('',*,*,#749,.T.);
#749 = EDGE_CURVE('',#727,#750,#752,.T.);
#750 = VERTEX_POINT('',#751);
#751 = CARTESIAN_POINT('',(-70.24,8.601919117211E-15,10.375));
#752 = SURFACE_CURVE('',#753,(#757,#764),.PCURVE_S1.);
#753 = LINE('',#754,#755);
#754 = CARTESIAN_POINT('',(-52.152,-7.12880515584,15.766472994467));
#755 = VECTOR('',#756,1.);
#756 = DIRECTION('',(-0.896518841362,0.353334151847,-0.267224520247));
#757 = PCURVE('',#285,#758);
#758 = DEFINITIONAL_REPRESENTATION('',(#759),#763);
#759 = LINE('',#760,#761);
#760 = CARTESIAN_POINT('',(8.938,18.705311213392));
#761 = VECTOR('',#762,1.);
#762 = DIRECTION('',(-0.443005606153,0.896518841362));
#763 = ( GEOMETRIC_REPRESENTATION_CONTEXT(2) 
PARAMETRIC_REPRESENTATION_CONTEXT() REPRESENTATION_CONTEXT('2D SPACE',''
  ) );
#764 = PCURVE('',#553,#765);
#765 = DEFINITIONAL_REPRESENTATION('',(#766),#770);
#766 = LINE('',#767,#768);
#767 = CARTESIAN_POINT('',(0.,-0.));
#768 = VECTOR('',#769,1.);
#769 = DIRECTION('',(1.,-4.108830745367E-17));
#770 = ( GEOMETRIC_REPRESENTATION_CONTEXT(2) 
PARAMETRIC_REPRESENTATION_CONTEXT() REPRESENTATION_CONTEXT('2D SPACE',''
  ) );
#771 = ORIENTED_EDGE('',*,*,#772,.T.);
#772 = EDGE_CURVE('',#750,#620,#773,.T.);
#773 = SURFACE_CURVE('',#774,(#778,#785),.PCURVE_S1.);
#774 = LINE('',#775,#776);
#775 = CARTESIAN_POINT('',(-70.24,8.601919117211E-15,10.375));
#776 = VECTOR('',#777,1.);
#777 = DIRECTION('',(0.896518841362,0.353334151847,-0.267224520247));
#778 = PCURVE('',#285,#779);
#779 = DEFINITIONAL_REPRESENTATION('',(#780),#784);
#780 = LINE('',#781,#782);
#781 = CARTESIAN_POINT('',(-2.845464599372E-15,36.793311213392));
#782 = VECTOR('',#783,1.);
#783 = DIRECTION('',(-0.443005606153,-0.896518841362));
#784 = ( GEOMETRIC_REPRESENTATION_CONTEXT(2) 
PARAMETRIC_REPRESENTATION_CONTEXT() REPRESENTATION_CONTEXT('2D SPACE',''
  ) );
#785 = PCURVE('',#581,#786);
#786 = DEFINITIONAL_REPRESENTATION('',(#787),#791);
#787 = LINE('',#788,#789);
#788 = CARTESIAN_POINT('',(0.,-0.));
#789 = VECTOR('',#790,1.);
#790 = DIRECTION('',(1.,1.442284377759E-17));
#791 = ( GEOMETRIC_REPRESENTATION_CONTEXT(2) 
PARAMETRIC_REPRESENTATION_CONTEXT() REPRESENTATION_CONTEXT('2D SPACE',''
  ) );
#792 = ORIENTED_EDGE('',*,*,#619,.T.);
#793 = ORIENTED_EDGE('',*,*,#263,.F.);
#794 = ORIENTED_EDGE('',*,*,#795,.T.);
#795 = EDGE_CURVE('',#235,#669,#796,.T.);
#796 = SURFACE_CURVE('',#797,(#801,#807),.PCURVE_S1.);
#797 = LINE('',#798,#799);
#798 = CARTESIAN_POINT('',(-16.7233443933,-4.726997326757,13.95));
#799 = VECTOR('',#800,1.);
#800 = DIRECTION('',(1.,0.,0.));
#801 = PCURVE('',#285,#802);
#802 = DEFINITIONAL_REPRESENTATION('',(#803),#806);
#803 = B_SPLINE_CURVE_WITH_KNOTS('',1,(#804,#805),.UNSPECIFIED.,.F.,.F.,
  (2,2),(-2.076655606696,11.083344393304),.PIECEWISE_BEZIER_KNOTS.);
#804 = CARTESIAN_POINT('',(5.92664565561,-14.6466887866));
#805 = CARTESIAN_POINT('',(5.92664565561,-27.8066887866));
#806 = ( GEOMETRIC_REPRESENTATION_CONTEXT(2) 
PARAMETRIC_REPRESENTATION_CONTEXT() REPRESENTATION_CONTEXT('2D SPACE',''
  ) );
#807 = PCURVE('',#251,#808);
#808 = DEFINITIONAL_REPRESENTATION('',(#809),#812);
#809 = B_SPLINE_CURVE_WITH_KNOTS('',1,(#810,#811),.UNSPECIFIED.,.F.,.F.,
  (2,2),(-2.076655606696,11.083344393304),.PIECEWISE_BEZIER_KNOTS.);
#810 = CARTESIAN_POINT('',(-18.8,-4.726997326757));
#811 = CARTESIAN_POINT('',(-5.64,-4.726997326757));
#812 = ( GEOMETRIC_REPRESENTATION_CONTEXT(2) 
PARAMETRIC_REPRESENTATION_CONTEXT() REPRESENTATION_CONTEXT('2D SPACE',''
  ) );
#813 = ADVANCED_FACE('',(#814),#251,.T.);
#814 = FACE_BOUND('',#815,.T.);
#815 = EDGE_LOOP('',(#816,#817,#818,#839));
#816 = ORIENTED_EDGE('',*,*,#795,.F.);
#817 = ORIENTED_EDGE('',*,*,#234,.T.);
#818 = ORIENTED_EDGE('',*,*,#819,.T.);
#819 = EDGE_CURVE('',#202,#820,#822,.T.);
#820 = VERTEX_POINT('',#821);
#821 = CARTESIAN_POINT('',(15.346085300395,-7.126293984464,13.95));
#822 = SURFACE_CURVE('',#823,(#827,#833),.PCURVE_S1.);
#823 = LINE('',#824,#825);
#824 = CARTESIAN_POINT('',(16.723344393304,-7.126293984464,13.95));
#825 = VECTOR('',#826,1.);
#826 = DIRECTION('',(-1.,0.,0.));
#827 = PCURVE('',#251,#828);
#828 = DEFINITIONAL_REPRESENTATION('',(#829),#832);
#829 = B_SPLINE_CURVE_WITH_KNOTS('',1,(#830,#831),.UNSPECIFIED.,.F.,.F.,
  (2,2),(-2.076655606696,11.083344393304),.PIECEWISE_BEZIER_KNOTS.);
#830 = CARTESIAN_POINT('',(18.8,-7.126293984464));
#831 = CARTESIAN_POINT('',(5.64,-7.126293984464));
#832 = ( GEOMETRIC_REPRESENTATION_CONTEXT(2) 
PARAMETRIC_REPRESENTATION_CONTEXT() REPRESENTATION_CONTEXT('2D SPACE',''
  ) );
#833 = PCURVE('',#222,#834);
#834 = DEFINITIONAL_REPRESENTATION('',(#835),#838);
#835 = B_SPLINE_CURVE_WITH_KNOTS('',1,(#836,#837),.UNSPECIFIED.,.F.,.F.,
  (2,2),(-2.076655606696,11.083344393304),.PIECEWISE_BEZIER_KNOTS.);
#836 = CARTESIAN_POINT('',(3.527348997903,14.646688786608));
#837 = CARTESIAN_POINT('',(3.527348997903,27.806688786608));
#838 = ( GEOMETRIC_REPRESENTATION_CONTEXT(2) 
PARAMETRIC_REPRESENTATION_CONTEXT() REPRESENTATION_CONTEXT('2D SPACE',''
  ) );
#839 = ORIENTED_EDGE('',*,*,#840,.F.);
#840 = EDGE_CURVE('',#669,#820,#841,.T.);
#841 = SURFACE_CURVE('',#842,(#847,#854),.PCURVE_S1.);
#842 = CIRCLE('',#843,16.92);
#843 = AXIS2_PLACEMENT_3D('',#844,#845,#846);
#844 = CARTESIAN_POINT('',(0.,0.,13.95));
#845 = DIRECTION('',(0.,0.,1.));
#846 = DIRECTION('',(1.,0.,0.));
#847 = PCURVE('',#251,#848);
#848 = DEFINITIONAL_REPRESENTATION('',(#849),#853);
#849 = CIRCLE('',#850,16.92);
#850 = AXIS2_PLACEMENT_2D('',#851,#852);
#851 = CARTESIAN_POINT('',(0.,0.));
#852 = DIRECTION('',(1.,0.));
#853 = ( GEOMETRIC_REPRESENTATION_CONTEXT(2) 
PARAMETRIC_REPRESENTATION_CONTEXT() REPRESENTATION_CONTEXT('2D SPACE',''
  ) );
#854 = PCURVE('',#422,#855);
#855 = DEFINITIONAL_REPRESENTATION('',(#856),#860);
#856 = LINE('',#857,#858);
#857 = CARTESIAN_POINT('',(-0.,-0.));
#858 = VECTOR('',#859,1.);
#859 = DIRECTION('',(-1.,-0.));
#860 = ( GEOMETRIC_REPRESENTATION_CONTEXT(2) 
PARAMETRIC_REPRESENTATION_CONTEXT() REPRESENTATION_CONTEXT('2D SPACE',''
  ) );
#861 = ADVANCED_FACE('',(#862),#222,.F.);
#862 = FACE_BOUND('',#863,.F.);
#863 = EDGE_LOOP('',(#864,#903,#931,#959,#987,#1015,#1036,#1037,#1038));
#864 = ORIENTED_EDGE('',*,*,#865,.T.);
#865 = EDGE_CURVE('',#866,#868,#870,.T.);
#866 = VERTEX_POINT('',#867);
#867 = CARTESIAN_POINT('',(7.685863538058,0.,19.339573810472));
#868 = VERTEX_POINT('',#869);
#869 = CARTESIAN_POINT('',(5.64,1.439356543202,20.42815061436));
#870 = SURFACE_CURVE('',#871,(#876,#883),.PCURVE_S1.);
#871 = HYPERBOLA('',#872,14.190930264873,9.32695679152);
#872 = AXIS2_PLACEMENT_3D('',#873,#874,#875);
#873 = CARTESIAN_POINT('',(0.,14.666274665013,30.431590222379));
#874 = DIRECTION('',(-0.,0.603207987745,-0.797583928825));
#875 = DIRECTION('',(0.,-0.797583928825,-0.603207987745));
#876 = PCURVE('',#222,#877);
#877 = DEFINITIONAL_REPRESENTATION('',(#878),#882);
#878 = ( BOUNDED_CURVE() B_SPLINE_CURVE(2,(#879,#880,#881),
.UNSPECIFIED.,.F.,.F.) B_SPLINE_CURVE_WITH_KNOTS((3,3),(-0.751336931081,
8.780434171364E-02),.PIECEWISE_BEZIER_KNOTS.) CURVE() 
GEOMETRIC_REPRESENTATION_ITEM() RATIONAL_B_SPLINE_CURVE((1.,
1.089318606684,1.)) REPRESENTATION_ITEM('') );
#879 = CARTESIAN_POINT('',(-5.407502529209,25.76082524855));
#880 = CARTESIAN_POINT('',(-10.04498151147,30.553642860763));
#881 = CARTESIAN_POINT('',(-9.550211763532,34.266688786608));
#882 = ( GEOMETRIC_REPRESENTATION_CONTEXT(2) 
PARAMETRIC_REPRESENTATION_CONTEXT() REPRESENTATION_CONTEXT('2D SPACE',''
  ) );
#883 = PCURVE('',#422,#884);
#884 = DEFINITIONAL_REPRESENTATION('',(#885),#902);
#885 = B_SPLINE_CURVE_WITH_KNOTS('',8,(#886,#887,#888,#889,#890,#891,
    #892,#893,#894,#895,#896,#897,#898,#899,#900,#901),.UNSPECIFIED.,.F.
  ,.F.,(9,7,9),(-0.751336931081,-0.331766294683,8.780434171364E-02),
  .UNSPECIFIED.);
#886 = CARTESIAN_POINT('',(-4.622400152187E-16,-5.389573810472));
#887 = CARTESIAN_POINT('',(-6.364472217872E-02,-5.759526129328));
#888 = CARTESIAN_POINT('',(-0.133287457518,-6.094609997864));
#889 = CARTESIAN_POINT('',(-0.209591530867,-6.396376038717));
#890 = CARTESIAN_POINT('',(-0.293241890641,-6.666170274319));
#891 = CARTESIAN_POINT('',(-0.384935502867,-6.905147753565));
#892 = CARTESIAN_POINT('',(-0.485243433254,-7.114283232018));
#893 = CARTESIAN_POINT('',(-0.59437793465,-7.294379182365));
#894 = CARTESIAN_POINT('',(-0.829417779942,-7.597763641285));
#895 = CARTESIAN_POINT('',(-0.955323835577,-7.721052149597));
#896 = CARTESIAN_POINT('',(-1.089181245157,-7.816572742096));
#897 = CARTESIAN_POINT('',(-1.229918434728,-7.884794551834));
#898 = CARTESIAN_POINT('',(-1.375641717518,-7.926025635024));
#899 = CARTESIAN_POINT('',(-1.523418799057,-7.940416123762));
#900 = CARTESIAN_POINT('',(-1.6703674138,-7.927959094297));
#901 = CARTESIAN_POINT('',(-1.814053901763,-7.888489111522));
#902 = ( GEOMETRIC_REPRESENTATION_CONTEXT(2) 
PARAMETRIC_REPRESENTATION_CONTEXT() REPRESENTATION_CONTEXT('2D SPACE',''
  ) );
#903 = ORIENTED_EDGE('',*,*,#904,.T.);
#904 = EDGE_CURVE('',#868,#905,#907,.T.);
#905 = VERTEX_POINT('',#906);
#906 = CARTESIAN_POINT('',(5.64,5.656861997937,23.617824937916));
#907 = SURFACE_CURVE('',#908,(#912,#919),.PCURVE_S1.);
#908 = LINE('',#909,#910);
#909 = CARTESIAN_POINT('',(5.64,-14.28273622269,8.537625244284));
#910 = VECTOR('',#911,1.);
#911 = DIRECTION('',(0.,0.797583928825,0.603207987745));
#912 = PCURVE('',#222,#913);
#913 = DEFINITIONAL_REPRESENTATION('',(#914),#918);
#914 = LINE('',#915,#916);
#915 = CARTESIAN_POINT('',(12.5,27.806688786608));
#916 = VECTOR('',#917,1.);
#917 = DIRECTION('',(-1.,0.));
#918 = ( GEOMETRIC_REPRESENTATION_CONTEXT(2) 
PARAMETRIC_REPRESENTATION_CONTEXT() REPRESENTATION_CONTEXT('2D SPACE',''
  ) );
#919 = PCURVE('',#920,#925);
#920 = PLANE('',#921);
#921 = AXIS2_PLACEMENT_3D('',#922,#923,#924);
#922 = CARTESIAN_POINT('',(5.64,-9.969799110315,2.834900153184));
#923 = DIRECTION('',(-1.,0.,0.));
#924 = DIRECTION('',(0.,0.797583928825,0.603207987745));
#925 = DEFINITIONAL_REPRESENTATION('',(#926),#930);
#926 = LINE('',#927,#928);
#927 = CARTESIAN_POINT('',(6.786252456444E-17,-7.15));
#928 = VECTOR('',#929,1.);
#929 = DIRECTION('',(1.,-8.93036204381E-18));
#930 = ( GEOMETRIC_REPRESENTATION_CONTEXT(2) 
PARAMETRIC_REPRESENTATION_CONTEXT() REPRESENTATION_CONTEXT('2D SPACE',''
  ) );
#931 = ORIENTED_EDGE('',*,*,#932,.T.);
#932 = EDGE_CURVE('',#905,#933,#935,.T.);
#933 = VERTEX_POINT('',#934);
#934 = CARTESIAN_POINT('',(52.152,2.815868043461,21.469198085568));
#935 = SURFACE_CURVE('',#936,(#940,#947),.PCURVE_S1.);
#936 = LINE('',#937,#938);
#937 = CARTESIAN_POINT('',(5.64,5.656861997937,23.617824937916));
#938 = VECTOR('',#939,1.);
#939 = DIRECTION('',(0.997080404983,-6.090254993727E-02,
    -4.606023675819E-02));
#940 = PCURVE('',#222,#941);
#941 = DEFINITIONAL_REPRESENTATION('',(#942),#946);
#942 = LINE('',#943,#944);
#943 = CARTESIAN_POINT('',(-12.5,27.806688786608));
#944 = VECTOR('',#945,1.);
#945 = DIRECTION('',(7.635879778443E-02,-0.997080404983));
#946 = ( GEOMETRIC_REPRESENTATION_CONTEXT(2) 
PARAMETRIC_REPRESENTATION_CONTEXT() REPRESENTATION_CONTEXT('2D SPACE',''
  ) );
#947 = PCURVE('',#948,#953);
#948 = PLANE('',#949);
#949 = AXIS2_PLACEMENT_3D('',#950,#951,#952);
#950 = CARTESIAN_POINT('',(5.64,9.969799110315,17.915099846816));
#951 = DIRECTION('',(7.635879778443E-02,0.795255306761,0.60144686471));
#952 = DIRECTION('',(0.997080404983,-6.090254993727E-02,
    -4.606023675819E-02));
#953 = DEFINITIONAL_REPRESENTATION('',(#954),#958);
#954 = LINE('',#955,#956);
#955 = CARTESIAN_POINT('',(2.235479955056E-16,-7.15));
#956 = VECTOR('',#957,1.);
#957 = DIRECTION('',(1.,-6.209271172414E-18));
#958 = ( GEOMETRIC_REPRESENTATION_CONTEXT(2) 
PARAMETRIC_REPRESENTATION_CONTEXT() REPRESENTATION_CONTEXT('2D SPACE',''
  ) );
#959 = ORIENTED_EDGE('',*,*,#960,.T.);
#960 = EDGE_CURVE('',#933,#961,#963,.T.);
#961 = VERTEX_POINT('',#962);
#962 = CARTESIAN_POINT('',(70.24,-4.312937112379,16.0777250911));
#963 = SURFACE_CURVE('',#964,(#968,#975),.PCURVE_S1.);
#964 = LINE('',#965,#966);
#965 = CARTESIAN_POINT('',(52.152,2.815868043461,21.469198085568));
#966 = VECTOR('',#967,1.);
#967 = DIRECTION('',(0.896518841362,-0.353334151847,-0.267224520247));
#968 = PCURVE('',#222,#969);
#969 = DEFINITIONAL_REPRESENTATION('',(#970),#974);
#970 = LINE('',#971,#972);
#971 = CARTESIAN_POINT('',(-8.938,-18.70531121339));
#972 = VECTOR('',#973,1.);
#973 = DIRECTION('',(0.443005606153,-0.896518841362));
#974 = ( GEOMETRIC_REPRESENTATION_CONTEXT(2) 
PARAMETRIC_REPRESENTATION_CONTEXT() REPRESENTATION_CONTEXT('2D SPACE',''
  ) );
#975 = PCURVE('',#976,#981);
#976 = PLANE('',#977);
#977 = AXIS2_PLACEMENT_3D('',#978,#979,#980);
#978 = CARTESIAN_POINT('',(52.152,7.12880515584,15.766472994467));
#979 = DIRECTION('',(0.443005606153,0.715049019759,0.540787326274));
#980 = DIRECTION('',(0.896518841362,-0.353334151847,-0.267224520247));
#981 = DEFINITIONAL_REPRESENTATION('',(#982),#986);
#982 = LINE('',#983,#984);
#983 = CARTESIAN_POINT('',(-2.813419157264E-16,-7.15));
#984 = VECTOR('',#985,1.);
#985 = DIRECTION('',(1.,-6.88438830693E-17));
#986 = ( GEOMETRIC_REPRESENTATION_CONTEXT(2) 
PARAMETRIC_REPRESENTATION_CONTEXT() REPRESENTATION_CONTEXT('2D SPACE',''
  ) );
#987 = ORIENTED_EDGE('',*,*,#988,.T.);
#988 = EDGE_CURVE('',#961,#989,#991,.T.);
#989 = VERTEX_POINT('',#990);
#990 = CARTESIAN_POINT('',(52.152,-11.44174226821,10.686252096633));
#991 = SURFACE_CURVE('',#992,(#996,#1003),.PCURVE_S1.);
#992 = LINE('',#993,#994);
#993 = CARTESIAN_POINT('',(70.24,-4.312937112379,16.0777250911));
#994 = VECTOR('',#995,1.);
#995 = DIRECTION('',(-0.896518841362,-0.353334151847,-0.267224520247));
#996 = PCURVE('',#222,#997);
#997 = DEFINITIONAL_REPRESENTATION('',(#998),#1002);
#998 = LINE('',#999,#1000);
#999 = CARTESIAN_POINT('',(-8.634241571903E-16,-36.79331121339));
#1000 = VECTOR('',#1001,1.);
#1001 = DIRECTION('',(0.443005606153,0.896518841362));
#1002 = ( GEOMETRIC_REPRESENTATION_CONTEXT(2) 
PARAMETRIC_REPRESENTATION_CONTEXT() REPRESENTATION_CONTEXT('2D SPACE',''
  ) );
#1003 = PCURVE('',#1004,#1009);
#1004 = PLANE('',#1005);
#1005 = AXIS2_PLACEMENT_3D('',#1006,#1007,#1008);
#1006 = CARTESIAN_POINT('',(70.24,0.,10.375));
#1007 = DIRECTION('',(0.443005606153,-0.715049019759,-0.540787326274));
#1008 = DIRECTION('',(-0.896518841362,-0.353334151847,-0.267224520247));
#1009 = DEFINITIONAL_REPRESENTATION('',(#1010),#1014);
#1010 = LINE('',#1011,#1012);
#1011 = CARTESIAN_POINT('',(-5.929731080137E-17,-7.15));
#1012 = VECTOR('',#1013,1.);
#1013 = DIRECTION('',(1.,-6.88438830693E-17));
#1014 = ( GEOMETRIC_REPRESENTATION_CONTEXT(2) 
PARAMETRIC_REPRESENTATION_CONTEXT() REPRESENTATION_CONTEXT('2D SPACE',''
  ) );
#1015 = ORIENTED_EDGE('',*,*,#1016,.T.);
#1016 = EDGE_CURVE('',#989,#169,#1017,.T.);
#1017 = SURFACE_CURVE('',#1018,(#1022,#1029),.PCURVE_S1.);
#1018 = LINE('',#1019,#1020);
#1019 = CARTESIAN_POINT('',(52.152,-11.44174226821,10.686252096633));
#1020 = VECTOR('',#1021,1.);
#1021 = DIRECTION('',(-0.997080404983,-6.090254993727E-02,
    -4.606023675819E-02));
#1022 = PCURVE('',#222,#1023);
#1023 = DEFINITIONAL_REPRESENTATION('',(#1024),#1028);
#1024 = LINE('',#1025,#1026);
#1025 = CARTESIAN_POINT('',(8.938,-18.70531121339));
#1026 = VECTOR('',#1027,1.);
#1027 = DIRECTION('',(7.635879778443E-02,0.997080404983));
#1028 = ( GEOMETRIC_REPRESENTATION_CONTEXT(2) 
PARAMETRIC_REPRESENTATION_CONTEXT() REPRESENTATION_CONTEXT('2D SPACE',''
  ) );
#1029 = PCURVE('',#189,#1030);
#1030 = DEFINITIONAL_REPRESENTATION('',(#1031),#1035);
#1031 = LINE('',#1032,#1033);
#1032 = CARTESIAN_POINT('',(1.130872186073E-16,-7.15));
#1033 = VECTOR('',#1034,1.);
#1034 = DIRECTION('',(1.,-9.102182764799E-18));
#1035 = ( GEOMETRIC_REPRESENTATION_CONTEXT(2) 
PARAMETRIC_REPRESENTATION_CONTEXT() REPRESENTATION_CONTEXT('2D SPACE',''
  ) );
#1036 = ORIENTED_EDGE('',*,*,#201,.F.);
#1037 = ORIENTED_EDGE('',*,*,#819,.T.);
#1038 = ORIENTED_EDGE('',*,*,#1039,.T.);
#1039 = EDGE_CURVE('',#820,#866,#1040,.T.);
#1040 = SURFACE_CURVE('',#1041,(#1046,#1053),.PCURVE_S1.);
#1041 = HYPERBOLA('',#1042,14.190930264873,9.32695679152);
#1042 = AXIS2_PLACEMENT_3D('',#1043,#1044,#1045);
#1043 = CARTESIAN_POINT('',(0.,14.666274665013,30.431590222379));
#1044 = DIRECTION('',(-0.,0.603207987745,-0.797583928825));
#1045 = DIRECTION('',(0.,-0.797583928825,-0.603207987745));
#1046 = PCURVE('',#222,#1047);
#1047 = DEFINITIONAL_REPRESENTATION('',(#1048),#1052);
#1048 = ( BOUNDED_CURVE() B_SPLINE_CURVE(2,(#1049,#1050,#1051),
.UNSPECIFIED.,.F.,.F.) B_SPLINE_CURVE_WITH_KNOTS((3,3),(-1.272775207477,
-0.751336931081),.PIECEWISE_BEZIER_KNOTS.) CURVE() 
GEOMETRIC_REPRESENTATION_ITEM() RATIONAL_B_SPLINE_CURVE((1.,
1.034180193279,1.)) REPRESENTATION_ITEM('') );
#1049 = CARTESIAN_POINT('',(3.527348997903,18.100603486213));
#1050 = CARTESIAN_POINT('',(-2.425902923728,22.679352932156));
#1051 = CARTESIAN_POINT('',(-5.407502529209,25.76082524855));
#1052 = ( GEOMETRIC_REPRESENTATION_CONTEXT(2) 
PARAMETRIC_REPRESENTATION_CONTEXT() REPRESENTATION_CONTEXT('2D SPACE',''
  ) );
#1053 = PCURVE('',#422,#1054);
#1054 = DEFINITIONAL_REPRESENTATION('',(#1055),#1064);
#1055 = B_SPLINE_CURVE_WITH_KNOTS('',7,(#1056,#1057,#1058,#1059,#1060,
    #1061,#1062,#1063),.UNSPECIFIED.,.F.,.F.,(8,8),(-1.272775207477,
    -0.751336931081),.PIECEWISE_BEZIER_KNOTS.);
#1056 = CARTESIAN_POINT('',(-5.848444021055,-3.996095748213E-15));
#1057 = CARTESIAN_POINT('',(-5.88950643471,-1.049156946314));
#1058 = CARTESIAN_POINT('',(-5.935658710659,-1.991616053148));
#1059 = CARTESIAN_POINT('',(-5.987790659127,-2.836886082325));
#1060 = CARTESIAN_POINT('',(-6.047027123913,-3.593025364125));
#1061 = CARTESIAN_POINT('',(-6.114745861572,-4.266856789847));
#1062 = CARTESIAN_POINT('',(-6.192788693238,-4.864118819083));
#1063 = CARTESIAN_POINT('',(-6.28318530718,-5.389573810472));
#1064 = ( GEOMETRIC_REPRESENTATION_CONTEXT(2) 
PARAMETRIC_REPRESENTATION_CONTEXT() REPRESENTATION_CONTEXT('2D SPACE',''
  ) );
#1065 = ADVANCED_FACE('',(#1066),#189,.T.);
#1066 = FACE_BOUND('',#1067,.T.);
#1067 = EDGE_LOOP('',(#1068,#1091,#1112,#1113));
#1068 = ORIENTED_EDGE('',*,*,#1069,.F.);
#1069 = EDGE_CURVE('',#1070,#141,#1072,.T.);
#1070 = VERTEX_POINT('',#1071);
#1071 = CARTESIAN_POINT('',(52.152,-7.12880515584,4.983527005533));
#1072 = SURFACE_CURVE('',#1073,(#1077,#1084),.PCURVE_S1.);
#1073 = LINE('',#1074,#1075);
#1074 = CARTESIAN_POINT('',(52.152,-7.12880515584,4.983527005533));
#1075 = VECTOR('',#1076,1.);
#1076 = DIRECTION('',(-0.997080404983,-6.090254993727E-02,
    -4.606023675819E-02));
#1077 = PCURVE('',#189,#1078);
#1078 = DEFINITIONAL_REPRESENTATION('',(#1079),#1083);
#1079 = LINE('',#1080,#1081);
#1080 = CARTESIAN_POINT('',(-0.,0.));
#1081 = VECTOR('',#1082,1.);
#1082 = DIRECTION('',(1.,-9.102182764799E-18));
#1083 = ( GEOMETRIC_REPRESENTATION_CONTEXT(2) 
PARAMETRIC_REPRESENTATION_CONTEXT() REPRESENTATION_CONTEXT('2D SPACE',''
  ) );
#1084 = PCURVE('',#77,#1085);
#1085 = DEFINITIONAL_REPRESENTATION('',(#1086),#1090);
#1086 = LINE('',#1087,#1088);
#1087 = CARTESIAN_POINT('',(8.938,-18.70531121339));
#1088 = VECTOR('',#1089,1.);
#1089 = DIRECTION('',(7.635879778443E-02,0.997080404983));
#1090 = ( GEOMETRIC_REPRESENTATION_CONTEXT(2) 
PARAMETRIC_REPRESENTATION_CONTEXT() REPRESENTATION_CONTEXT('2D SPACE',''
  ) );
#1091 = ORIENTED_EDGE('',*,*,#1092,.T.);
#1092 = EDGE_CURVE('',#1070,#989,#1093,.T.);
#1093 = SURFACE_CURVE('',#1094,(#1098,#1105),.PCURVE_S1.);
#1094 = LINE('',#1095,#1096);
#1095 = CARTESIAN_POINT('',(52.152,-7.12880515584,4.983527005533));
#1096 = VECTOR('',#1097,1.);
#1097 = DIRECTION('',(0.,-0.603207987745,0.797583928825));
#1098 = PCURVE('',#189,#1099);
#1099 = DEFINITIONAL_REPRESENTATION('',(#1100),#1104);
#1100 = LINE('',#1101,#1102);
#1101 = CARTESIAN_POINT('',(-0.,0.));
#1102 = VECTOR('',#1103,1.);
#1103 = DIRECTION('',(1.092736313184E-17,-1.));
#1104 = ( GEOMETRIC_REPRESENTATION_CONTEXT(2) 
PARAMETRIC_REPRESENTATION_CONTEXT() REPRESENTATION_CONTEXT('2D SPACE',''
  ) );
#1105 = PCURVE('',#1004,#1106);
#1106 = DEFINITIONAL_REPRESENTATION('',(#1107),#1111);
#1107 = LINE('',#1108,#1109);
#1108 = CARTESIAN_POINT('',(20.175816910351,-1.674452564527E-15));
#1109 = VECTOR('',#1110,1.);
#1110 = DIRECTION('',(-3.285437615127E-17,-1.));
#1111 = ( GEOMETRIC_REPRESENTATION_CONTEXT(2) 
PARAMETRIC_REPRESENTATION_CONTEXT() REPRESENTATION_CONTEXT('2D SPACE',''
  ) );
#1112 = ORIENTED_EDGE('',*,*,#1016,.T.);
#1113 = ORIENTED_EDGE('',*,*,#168,.F.);
#1114 = ADVANCED_FACE('',(#1115),#77,.T.);
#1115 = FACE_BOUND('',#1116,.T.);
#1116 = EDGE_LOOP('',(#1117,#1150,#1173,#1196,#1219,#1240,#1241,#1242,
    #1243));
#1117 = ORIENTED_EDGE('',*,*,#1118,.T.);
#1118 = EDGE_CURVE('',#365,#1119,#1121,.T.);
#1119 = VERTEX_POINT('',#1120);
#1120 = CARTESIAN_POINT('',(5.64,9.354759354815,17.449948933049));
#1121 = SURFACE_CURVE('',#1122,(#1127,#1134),.PCURVE_S1.);
#1122 = HYPERBOLA('',#1123,42.549851619102,27.965793653382);
#1123 = AXIS2_PLACEMENT_3D('',#1124,#1125,#1126);
#1124 = CARTESIAN_POINT('',(0.,43.975116440819,43.633119353284));
#1125 = DIRECTION('',(-0.,0.603207987745,-0.797583928825));
#1126 = DIRECTION('',(0.,-0.797583928825,-0.603207987745));
#1127 = PCURVE('',#77,#1128);
#1128 = DEFINITIONAL_REPRESENTATION('',(#1129),#1133);
#1129 = ( BOUNDED_CURVE() B_SPLINE_CURVE(2,(#1130,#1131,#1132),
.UNSPECIFIED.,.F.,.F.) B_SPLINE_CURVE_WITH_KNOTS((3,3),(-0.552407594246,
2.931733517384E-02),.PIECEWISE_BEZIER_KNOTS.) CURVE() 
GEOMETRIC_REPRESENTATION_ITEM() RATIONAL_B_SPLINE_CURVE((1.,
1.042599550818,1.)) REPRESENTATION_ITEM('') );
#1130 = CARTESIAN_POINT('',(-5.92664565561,17.20040009433));
#1131 = CARTESIAN_POINT('',(-12.92025967583,26.350970056687));
#1132 = CARTESIAN_POINT('',(-12.56727053442,34.266688786608));
#1133 = ( GEOMETRIC_REPRESENTATION_CONTEXT(2) 
PARAMETRIC_REPRESENTATION_CONTEXT() REPRESENTATION_CONTEXT('2D SPACE',''
  ) );
#1134 = PCURVE('',#422,#1135);
#1135 = DEFINITIONAL_REPRESENTATION('',(#1136),#1149);
#1136 = B_SPLINE_CURVE_WITH_KNOTS('',6,(#1137,#1138,#1139,#1140,#1141,
    #1142,#1143,#1144,#1145,#1146,#1147,#1148),.UNSPECIFIED.,.F.,.F.,(7,
    5,7),(-0.552407594246,-0.261545129536,2.931733517384E-02),
  .UNSPECIFIED.);
#1137 = CARTESIAN_POINT('',(-0.283141425938,3.093363274972E-15));
#1138 = CARTESIAN_POINT('',(-0.363265536158,-0.722817370364));
#1139 = CARTESIAN_POINT('',(-0.450428147151,-1.361927725079));
#1140 = CARTESIAN_POINT('',(-0.545148487964,-1.920386916486));
#1141 = CARTESIAN_POINT('',(-0.647810135564,-2.400665757496));
#1142 = CARTESIAN_POINT('',(-0.758304419069,-2.804681100713));
#1143 = CARTESIAN_POINT('',(-0.993043228868,-3.462972734398));
#1144 = CARTESIAN_POINT('',(-1.117288019132,-3.717248685831));
#1145 = CARTESIAN_POINT('',(-1.247466003329,-3.898047069538));
#1146 = CARTESIAN_POINT('',(-1.381814154075,-4.006232369713));
#1147 = CARTESIAN_POINT('',(-1.517620238458,-4.042160779299));
#1148 = CARTESIAN_POINT('',(-1.652422689223,-4.005677970522));
#1149 = ( GEOMETRIC_REPRESENTATION_CONTEXT(2) 
PARAMETRIC_REPRESENTATION_CONTEXT() REPRESENTATION_CONTEXT('2D SPACE',''
  ) );
#1150 = ORIENTED_EDGE('',*,*,#1151,.T.);
#1151 = EDGE_CURVE('',#1119,#1152,#1154,.T.);
#1152 = VERTEX_POINT('',#1153);
#1153 = CARTESIAN_POINT('',(5.64,9.969799110315,17.915099846816));
#1154 = SURFACE_CURVE('',#1155,(#1159,#1166),.PCURVE_S1.);
#1155 = LINE('',#1156,#1157);
#1156 = CARTESIAN_POINT('',(5.64,-9.969799110315,2.834900153184));
#1157 = VECTOR('',#1158,1.);
#1158 = DIRECTION('',(0.,0.797583928825,0.603207987745));
#1159 = PCURVE('',#77,#1160);
#1160 = DEFINITIONAL_REPRESENTATION('',(#1161),#1165);
#1161 = LINE('',#1162,#1163);
#1162 = CARTESIAN_POINT('',(12.5,27.806688786608));
#1163 = VECTOR('',#1164,1.);
#1164 = DIRECTION('',(-1.,0.));
#1165 = ( GEOMETRIC_REPRESENTATION_CONTEXT(2) 
PARAMETRIC_REPRESENTATION_CONTEXT() REPRESENTATION_CONTEXT('2D SPACE',''
  ) );
#1166 = PCURVE('',#920,#1167);
#1167 = DEFINITIONAL_REPRESENTATION('',(#1168),#1172);
#1168 = LINE('',#1169,#1170);
#1169 = CARTESIAN_POINT('',(0.,0.));
#1170 = VECTOR('',#1171,1.);
#1171 = DIRECTION('',(1.,-8.93036204381E-18));
#1172 = ( GEOMETRIC_REPRESENTATION_CONTEXT(2) 
PARAMETRIC_REPRESENTATION_CONTEXT() REPRESENTATION_CONTEXT('2D SPACE',''
  ) );
#1173 = ORIENTED_EDGE('',*,*,#1174,.T.);
#1174 = EDGE_CURVE('',#1152,#1175,#1177,.T.);
#1175 = VERTEX_POINT('',#1176);
#1176 = CARTESIAN_POINT('',(52.152,7.12880515584,15.766472994467));
#1177 = SURFACE_CURVE('',#1178,(#1182,#1189),.PCURVE_S1.);
#1178 = LINE('',#1179,#1180);
#1179 = CARTESIAN_POINT('',(5.64,9.969799110315,17.915099846816));
#1180 = VECTOR('',#1181,1.);
#1181 = DIRECTION('',(0.997080404983,-6.090254993727E-02,
    -4.606023675819E-02));
#1182 = PCURVE('',#77,#1183);
#1183 = DEFINITIONAL_REPRESENTATION('',(#1184),#1188);
#1184 = LINE('',#1185,#1186);
#1185 = CARTESIAN_POINT('',(-12.5,27.806688786608));
#1186 = VECTOR('',#1187,1.);
#1187 = DIRECTION('',(7.635879778443E-02,-0.997080404983));
#1188 = ( GEOMETRIC_REPRESENTATION_CONTEXT(2) 
PARAMETRIC_REPRESENTATION_CONTEXT() REPRESENTATION_CONTEXT('2D SPACE',''
  ) );
#1189 = PCURVE('',#948,#1190);
#1190 = DEFINITIONAL_REPRESENTATION('',(#1191),#1195);
#1191 = LINE('',#1192,#1193);
#1192 = CARTESIAN_POINT('',(0.,0.));
#1193 = VECTOR('',#1194,1.);
#1194 = DIRECTION('',(1.,-6.209271172414E-18));
#1195 = ( GEOMETRIC_REPRESENTATION_CONTEXT(2) 
PARAMETRIC_REPRESENTATION_CONTEXT() REPRESENTATION_CONTEXT('2D SPACE',''
  ) );
#1196 = ORIENTED_EDGE('',*,*,#1197,.T.);
#1197 = EDGE_CURVE('',#1175,#1198,#1200,.T.);
#1198 = VERTEX_POINT('',#1199);
#1199 = CARTESIAN_POINT('',(70.24,0.,10.375));
#1200 = SURFACE_CURVE('',#1201,(#1205,#1212),.PCURVE_S1.);
#1201 = LINE('',#1202,#1203);
#1202 = CARTESIAN_POINT('',(52.152,7.12880515584,15.766472994467));
#1203 = VECTOR('',#1204,1.);
#1204 = DIRECTION('',(0.896518841362,-0.353334151847,-0.267224520247));
#1205 = PCURVE('',#77,#1206);
#1206 = DEFINITIONAL_REPRESENTATION('',(#1207),#1211);
#1207 = LINE('',#1208,#1209);
#1208 = CARTESIAN_POINT('',(-8.938,-18.70531121339));
#1209 = VECTOR('',#1210,1.);
#1210 = DIRECTION('',(0.443005606153,-0.896518841362));
#1211 = ( GEOMETRIC_REPRESENTATION_CONTEXT(2) 
PARAMETRIC_REPRESENTATION_CONTEXT() REPRESENTATION_CONTEXT('2D SPACE',''
  ) );
#1212 = PCURVE('',#976,#1213);
#1213 = DEFINITIONAL_REPRESENTATION('',(#1214),#1218);
#1214 = LINE('',#1215,#1216);
#1215 = CARTESIAN_POINT('',(0.,0.));
#1216 = VECTOR('',#1217,1.);
#1217 = DIRECTION('',(1.,-6.88438830693E-17));
#1218 = ( GEOMETRIC_REPRESENTATION_CONTEXT(2) 
PARAMETRIC_REPRESENTATION_CONTEXT() REPRESENTATION_CONTEXT('2D SPACE',''
  ) );
#1219 = ORIENTED_EDGE('',*,*,#1220,.T.);
#1220 = EDGE_CURVE('',#1198,#1070,#1221,.T.);
#1221 = SURFACE_CURVE('',#1222,(#1226,#1233),.PCURVE_S1.);
#1222 = LINE('',#1223,#1224);
#1223 = CARTESIAN_POINT('',(70.24,0.,10.375));
#1224 = VECTOR('',#1225,1.);
#1225 = DIRECTION('',(-0.896518841362,-0.353334151847,-0.267224520247));
#1226 = PCURVE('',#77,#1227);
#1227 = DEFINITIONAL_REPRESENTATION('',(#1228),#1232);
#1228 = LINE('',#1229,#1230);
#1229 = CARTESIAN_POINT('',(-8.634241571903E-16,-36.79331121339));
#1230 = VECTOR('',#1231,1.);
#1231 = DIRECTION('',(0.443005606153,0.896518841362));
#1232 = ( GEOMETRIC_REPRESENTATION_CONTEXT(2) 
PARAMETRIC_REPRESENTATION_CONTEXT() REPRESENTATION_CONTEXT('2D SPACE',''
  ) );
#1233 = PCURVE('',#1004,#1234);
#1234 = DEFINITIONAL_REPRESENTATION('',(#1235),#1239);
#1235 = LINE('',#1236,#1237);
#1236 = CARTESIAN_POINT('',(-0.,0.));
#1237 = VECTOR('',#1238,1.);
#1238 = DIRECTION('',(1.,-6.88438830693E-17));
#1239 = ( GEOMETRIC_REPRESENTATION_CONTEXT(2) 
PARAMETRIC_REPRESENTATION_CONTEXT() REPRESENTATION_CONTEXT('2D SPACE',''
  ) );
#1240 = ORIENTED_EDGE('',*,*,#1069,.T.);
#1241 = ORIENTED_EDGE('',*,*,#140,.F.);
#1242 = ORIENTED_EDGE('',*,*,#57,.F.);
#1243 = ORIENTED_EDGE('',*,*,#364,.T.);
#1244 = ADVANCED_FACE('',(#1245),#127,.F.);
#1245 = FACE_BOUND('',#1246,.T.);
#1246 = EDGE_LOOP('',(#1247));
#1247 = ORIENTED_EDGE('',*,*,#112,.F.);
#1248 = ADVANCED_FACE('',(#1249),#422,.T.);
#1249 = FACE_BOUND('',#1250,.T.);
#1250 = EDGE_LOOP('',(#1251,#1252,#1253,#1254,#1285,#1286,#1287,#1288,
    #1308,#1335,#1336,#1337));
#1251 = ORIENTED_EDGE('',*,*,#1118,.F.);
#1252 = ORIENTED_EDGE('',*,*,#407,.T.);
#1253 = ORIENTED_EDGE('',*,*,#437,.T.);
#1254 = ORIENTED_EDGE('',*,*,#1255,.F.);
#1255 = EDGE_CURVE('',#671,#438,#1256,.T.);
#1256 = SURFACE_CURVE('',#1257,(#1262,#1278),.PCURVE_S1.);
#1257 = HYPERBOLA('',#1258,3.291828793774,5.64);
#1258 = AXIS2_PLACEMENT_3D('',#1259,#1260,#1261);
#1259 = CARTESIAN_POINT('',(-5.64,5.709469571181E-16,23.825486381323));
#1260 = DIRECTION('',(1.,-1.012317299855E-16,-1.605835390839E-17));
#1261 = DIRECTION('',(-1.605835390839E-17,1.625614946866E-33,-1.));
#1262 = PCURVE('',#422,#1263);
#1263 = DEFINITIONAL_REPRESENTATION('',(#1264),#1277);
#1264 = B_SPLINE_CURVE_WITH_KNOTS('',6,(#1265,#1266,#1267,#1268,#1269,
    #1270,#1271,#1272,#1273,#1274,#1275,#1276),.UNSPECIFIED.,.F.,.F.,(7,
    5,7),(-1.342986234223,-0.705463697962,-6.7941161701E-02),
  .UNSPECIFIED.);
#1265 = CARTESIAN_POINT('',(-4.201658434685,-3.141178230062));
#1266 = CARTESIAN_POINT('',(-4.149720037194,-3.765411310308));
#1267 = CARTESIAN_POINT('',(-4.092003882285,-4.298409314491));
#1268 = CARTESIAN_POINT('',(-4.027962119656,-4.752856229767));
#1269 = CARTESIAN_POINT('',(-3.957118372619,-5.138353121728));
#1270 = CARTESIAN_POINT('',(-3.879283580602,-5.462247780586));
#1271 = CARTESIAN_POINT('',(-3.71053742074,-5.997711453148));
#1272 = CARTESIAN_POINT('',(-3.61962496391,-6.209280726477));
#1273 = CARTESIAN_POINT('',(-3.522624643208,-6.370127691796));
#1274 = CARTESIAN_POINT('',(-3.420582570364,-6.483792925032));
#1275 = CARTESIAN_POINT('',(-3.315490599192,-6.552275110897));
#1276 = CARTESIAN_POINT('',(-3.209481606112,-6.576057121328));
#1277 = ( GEOMETRIC_REPRESENTATION_CONTEXT(2) 
PARAMETRIC_REPRESENTATION_CONTEXT() REPRESENTATION_CONTEXT('2D SPACE',''
  ) );
#1278 = PCURVE('',#497,#1279);
#1279 = DEFINITIONAL_REPRESENTATION('',(#1280),#1284);
#1280 = ( BOUNDED_CURVE() B_SPLINE_CURVE(2,(#1281,#1282,#1283),
.UNSPECIFIED.,.F.,.F.) B_SPLINE_CURVE_WITH_KNOTS((3,3),(-1.342986234223,
-6.7941161701E-02),.PIECEWISE_BEZIER_KNOTS.) CURVE() 
GEOMETRIC_REPRESENTATION_ITEM() RATIONAL_B_SPLINE_CURVE((1.,
1.210194311741,1.)) REPRESENTATION_ITEM('') );
#1281 = CARTESIAN_POINT('',(24.579499753323,0.715));
#1282 = CARTESIAN_POINT('',(21.392398577667,-5.843939183565));
#1283 = CARTESIAN_POINT('',(18.929058633016,-7.865));
#1284 = ( GEOMETRIC_REPRESENTATION_CONTEXT(2) 
PARAMETRIC_REPRESENTATION_CONTEXT() REPRESENTATION_CONTEXT('2D SPACE',''
  ) );
#1285 = ORIENTED_EDGE('',*,*,#668,.F.);
#1286 = ORIENTED_EDGE('',*,*,#840,.T.);
#1287 = ORIENTED_EDGE('',*,*,#1039,.T.);
#1288 = ORIENTED_EDGE('',*,*,#1289,.T.);
#1289 = EDGE_CURVE('',#866,#1290,#1292,.T.);
#1290 = VERTEX_POINT('',#1291);
#1291 = CARTESIAN_POINT('',(1.5,0.,22.95));
#1292 = SEAM_CURVE('',#1293,(#1296,#1302),.PCURVE_S1.);
#1293 = B_SPLINE_CURVE_WITH_KNOTS('',1,(#1294,#1295),.UNSPECIFIED.,.F.,
  .F.,(2,2),(0.,1.),.PIECEWISE_BEZIER_KNOTS.);
#1294 = CARTESIAN_POINT('',(16.92,0.,13.95));
#1295 = CARTESIAN_POINT('',(1.5,0.,22.95));
#1296 = PCURVE('',#422,#1297);
#1297 = DEFINITIONAL_REPRESENTATION('',(#1298),#1301);
#1298 = B_SPLINE_CURVE_WITH_KNOTS('',1,(#1299,#1300),.UNSPECIFIED.,.F.,
  .F.,(2,2),(0.,1.),.PIECEWISE_BEZIER_KNOTS.);
#1299 = CARTESIAN_POINT('',(0.,0.));
#1300 = CARTESIAN_POINT('',(0.,-9.));
#1301 = ( GEOMETRIC_REPRESENTATION_CONTEXT(2) 
PARAMETRIC_REPRESENTATION_CONTEXT() REPRESENTATION_CONTEXT('2D SPACE',''
  ) );
#1302 = PCURVE('',#422,#1303);
#1303 = DEFINITIONAL_REPRESENTATION('',(#1304),#1307);
#1304 = B_SPLINE_CURVE_WITH_KNOTS('',1,(#1305,#1306),.UNSPECIFIED.,.F.,
  .F.,(2,2),(0.,1.),.PIECEWISE_BEZIER_KNOTS.);
#1305 = CARTESIAN_POINT('',(-6.28318530718,0.));
#1306 = CARTESIAN_POINT('',(-6.28318530718,-9.));
#1307 = ( GEOMETRIC_REPRESENTATION_CONTEXT(2) 
PARAMETRIC_REPRESENTATION_CONTEXT() REPRESENTATION_CONTEXT('2D SPACE',''
  ) );
#1308 = ORIENTED_EDGE('',*,*,#1309,.F.);
#1309 = EDGE_CURVE('',#1290,#1290,#1310,.T.);
#1310 = SURFACE_CURVE('',#1311,(#1316,#1323),.PCURVE_S1.);
#1311 = CIRCLE('',#1312,1.5);
#1312 = AXIS2_PLACEMENT_3D('',#1313,#1314,#1315);
#1313 = CARTESIAN_POINT('',(0.,0.,22.95));
#1314 = DIRECTION('',(0.,0.,1.));
#1315 = DIRECTION('',(1.,0.,0.));
#1316 = PCURVE('',#422,#1317);
#1317 = DEFINITIONAL_REPRESENTATION('',(#1318),#1322);
#1318 = LINE('',#1319,#1320);
#1319 = CARTESIAN_POINT('',(-0.,-9.));
#1320 = VECTOR('',#1321,1.);
#1321 = DIRECTION('',(-1.,-0.));
#1322 = ( GEOMETRIC_REPRESENTATION_CONTEXT(2) 
PARAMETRIC_REPRESENTATION_CONTEXT() REPRESENTATION_CONTEXT('2D SPACE',''
  ) );
#1323 = PCURVE('',#1324,#1329);
#1324 = PLANE('',#1325);
#1325 = AXIS2_PLACEMENT_3D('',#1326,#1327,#1328);
#1326 = CARTESIAN_POINT('',(0.,0.,22.95));
#1327 = DIRECTION('',(0.,0.,1.));
#1328 = DIRECTION('',(1.,0.,0.));
#1329 = DEFINITIONAL_REPRESENTATION('',(#1330),#1334);
#1330 = CIRCLE('',#1331,1.5);
#1331 = AXIS2_PLACEMENT_2D('',#1332,#1333);
#1332 = CARTESIAN_POINT('',(0.,0.));
#1333 = DIRECTION('',(1.,0.));
#1334 = ( GEOMETRIC_REPRESENTATION_CONTEXT(2) 
PARAMETRIC_REPRESENTATION_CONTEXT() REPRESENTATION_CONTEXT('2D SPACE',''
  ) );
#1335 = ORIENTED_EDGE('',*,*,#1289,.F.);
#1336 = ORIENTED_EDGE('',*,*,#865,.T.);
#1337 = ORIENTED_EDGE('',*,*,#1338,.F.);
#1338 = EDGE_CURVE('',#1119,#868,#1339,.T.);
#1339 = SURFACE_CURVE('',#1340,(#1345,#1361),.PCURVE_S1.);
#1340 = HYPERBOLA('',#1341,3.291828793774,5.64);
#1341 = AXIS2_PLACEMENT_3D('',#1342,#1343,#1344);
#1342 = CARTESIAN_POINT('',(5.64,0.,23.825486381323));
#1343 = DIRECTION('',(-1.,0.,0.));
#1344 = DIRECTION('',(-0.,0.,-1.));
#1345 = PCURVE('',#422,#1346);
#1346 = DEFINITIONAL_REPRESENTATION('',(#1347),#1360);
#1347 = B_SPLINE_CURVE_WITH_KNOTS('',6,(#1348,#1349,#1350,#1351,#1352,
    #1353,#1354,#1355,#1356,#1357,#1358,#1359),.UNSPECIFIED.,.F.,.F.,(7,
    5,7),(-1.342986234223,-0.705463697962,-6.7941161701E-02),
  .UNSPECIFIED.);
#1348 = CARTESIAN_POINT('',(-1.060065781095,-3.141178230062));
#1349 = CARTESIAN_POINT('',(-1.008127383604,-3.765411310308));
#1350 = CARTESIAN_POINT('',(-0.950411228695,-4.298409314491));
#1351 = CARTESIAN_POINT('',(-0.886369466067,-4.752856229768));
#1352 = CARTESIAN_POINT('',(-0.815525719029,-5.138353121727));
#1353 = CARTESIAN_POINT('',(-0.737690927012,-5.462247780586));
#1354 = CARTESIAN_POINT('',(-0.568944767151,-5.997711453148));
#1355 = CARTESIAN_POINT('',(-0.47803231032,-6.209280726477));
#1356 = CARTESIAN_POINT('',(-0.381031989618,-6.370127691796));
#1357 = CARTESIAN_POINT('',(-0.278989916774,-6.483792925032));
#1358 = CARTESIAN_POINT('',(-0.173897945602,-6.552275110897));
#1359 = CARTESIAN_POINT('',(-6.78889525223E-02,-6.576057121328));
#1360 = ( GEOMETRIC_REPRESENTATION_CONTEXT(2) 
PARAMETRIC_REPRESENTATION_CONTEXT() REPRESENTATION_CONTEXT('2D SPACE',''
  ) );
#1361 = PCURVE('',#920,#1362);
#1362 = DEFINITIONAL_REPRESENTATION('',(#1363),#1367);
#1363 = ( BOUNDED_CURVE() B_SPLINE_CURVE(2,(#1364,#1365,#1366),
.UNSPECIFIED.,.F.,.F.) B_SPLINE_CURVE_WITH_KNOTS((3,3),(-1.342986234223,
-6.7941161701E-02),.PIECEWISE_BEZIER_KNOTS.) CURVE() 
GEOMETRIC_REPRESENTATION_ITEM() RATIONAL_B_SPLINE_CURVE((1.,
1.210194311741,1.)) REPRESENTATION_ITEM('') );
#1364 = CARTESIAN_POINT('',(24.579499753323,0.715));
#1365 = CARTESIAN_POINT('',(21.392398577667,-5.843939183565));
#1366 = CARTESIAN_POINT('',(18.929058633016,-7.865));
#1367 = ( GEOMETRIC_REPRESENTATION_CONTEXT(2) 
PARAMETRIC_REPRESENTATION_CONTEXT() REPRESENTATION_CONTEXT('2D SPACE',''
  ) );
#1368 = ADVANCED_FACE('',(#1369),#581,.T.);
#1369 = FACE_BOUND('',#1370,.T.);
#1370 = EDGE_LOOP('',(#1371,#1392,#1393,#1394));
#1371 = ORIENTED_EDGE('',*,*,#1372,.T.);
#1372 = EDGE_CURVE('',#750,#538,#1373,.T.);
#1373 = SURFACE_CURVE('',#1374,(#1378,#1385),.PCURVE_S1.);
#1374 = LINE('',#1375,#1376);
#1375 = CARTESIAN_POINT('',(-70.24,8.601919117211E-15,10.375));
#1376 = VECTOR('',#1377,1.);
#1377 = DIRECTION('',(7.387167314124E-17,0.603207987745,0.797583928825)
  );
#1378 = PCURVE('',#581,#1379);
#1379 = DEFINITIONAL_REPRESENTATION('',(#1380),#1384);
#1380 = LINE('',#1381,#1382);
#1381 = CARTESIAN_POINT('',(0.,-0.));
#1382 = VECTOR('',#1383,1.);
#1383 = DIRECTION('',(-7.184630090552E-17,-1.));
#1384 = ( GEOMETRIC_REPRESENTATION_CONTEXT(2) 
PARAMETRIC_REPRESENTATION_CONTEXT() REPRESENTATION_CONTEXT('2D SPACE',''
  ) );
#1385 = PCURVE('',#553,#1386);
#1386 = DEFINITIONAL_REPRESENTATION('',(#1387),#1391);
#1387 = LINE('',#1388,#1389);
#1388 = CARTESIAN_POINT('',(20.175816910351,-7.862741448268E-16));
#1389 = VECTOR('',#1390,1.);
#1390 = DIRECTION('',(-1.633514967426E-17,-1.));
#1391 = ( GEOMETRIC_REPRESENTATION_CONTEXT(2) 
PARAMETRIC_REPRESENTATION_CONTEXT() REPRESENTATION_CONTEXT('2D SPACE',''
  ) );
#1392 = ORIENTED_EDGE('',*,*,#565,.T.);
#1393 = ORIENTED_EDGE('',*,*,#642,.F.);
#1394 = ORIENTED_EDGE('',*,*,#772,.F.);
#1395 = ADVANCED_FACE('',(#1396),#553,.T.);
#1396 = FACE_BOUND('',#1397,.T.);
#1397 = EDGE_LOOP('',(#1398,#1419,#1420,#1421));
#1398 = ORIENTED_EDGE('',*,*,#1399,.T.);
#1399 = EDGE_CURVE('',#727,#510,#1400,.T.);
#1400 = SURFACE_CURVE('',#1401,(#1405,#1412),.PCURVE_S1.);
#1401 = LINE('',#1402,#1403);
#1402 = CARTESIAN_POINT('',(-52.152,-7.12880515584,15.766472994467));
#1403 = VECTOR('',#1404,1.);
#1404 = DIRECTION('',(7.387167314124E-17,0.603207987745,0.797583928825)
  );
#1405 = PCURVE('',#553,#1406);
#1406 = DEFINITIONAL_REPRESENTATION('',(#1407),#1411);
#1407 = LINE('',#1408,#1409);
#1408 = CARTESIAN_POINT('',(0.,-0.));
#1409 = VECTOR('',#1410,1.);
#1410 = DIRECTION('',(-1.633514967426E-17,-1.));
#1411 = ( GEOMETRIC_REPRESENTATION_CONTEXT(2) 
PARAMETRIC_REPRESENTATION_CONTEXT() REPRESENTATION_CONTEXT('2D SPACE',''
  ) );
#1412 = PCURVE('',#525,#1413);
#1413 = DEFINITIONAL_REPRESENTATION('',(#1414),#1418);
#1414 = LINE('',#1415,#1416);
#1415 = CARTESIAN_POINT('',(46.648193834274,-7.672705610087E-16));
#1416 = VECTOR('',#1417,1.);
#1417 = DIRECTION('',(2.33167829896E-17,-1.));
#1418 = ( GEOMETRIC_REPRESENTATION_CONTEXT(2) 
PARAMETRIC_REPRESENTATION_CONTEXT() REPRESENTATION_CONTEXT('2D SPACE',''
  ) );
#1419 = ORIENTED_EDGE('',*,*,#537,.T.);
#1420 = ORIENTED_EDGE('',*,*,#1372,.F.);
#1421 = ORIENTED_EDGE('',*,*,#749,.F.);
#1422 = ADVANCED_FACE('',(#1423),#525,.T.);
#1423 = FACE_BOUND('',#1424,.T.);
#1424 = EDGE_LOOP('',(#1425,#1446,#1447,#1448));
#1425 = ORIENTED_EDGE('',*,*,#1426,.T.);
#1426 = EDGE_CURVE('',#704,#482,#1427,.T.);
#1427 = SURFACE_CURVE('',#1428,(#1432,#1439),.PCURVE_S1.);
#1428 = LINE('',#1429,#1430);
#1429 = CARTESIAN_POINT('',(-5.64,-9.969799110315,17.915099846816));
#1430 = VECTOR('',#1431,1.);
#1431 = DIRECTION('',(7.387167314124E-17,0.603207987745,0.797583928825)
  );
#1432 = PCURVE('',#525,#1433);
#1433 = DEFINITIONAL_REPRESENTATION('',(#1434),#1438);
#1434 = LINE('',#1435,#1436);
#1435 = CARTESIAN_POINT('',(0.,-0.));
#1436 = VECTOR('',#1437,1.);
#1437 = DIRECTION('',(2.33167829896E-17,-1.));
#1438 = ( GEOMETRIC_REPRESENTATION_CONTEXT(2) 
PARAMETRIC_REPRESENTATION_CONTEXT() REPRESENTATION_CONTEXT('2D SPACE',''
  ) );
#1439 = PCURVE('',#497,#1440);
#1440 = DEFINITIONAL_REPRESENTATION('',(#1441),#1445);
#1441 = LINE('',#1442,#1443);
#1442 = CARTESIAN_POINT('',(25.,-7.875951291609E-16));
#1443 = VECTOR('',#1444,1.);
#1444 = DIRECTION('',(-1.020919404187E-16,-1.));
#1445 = ( GEOMETRIC_REPRESENTATION_CONTEXT(2) 
PARAMETRIC_REPRESENTATION_CONTEXT() REPRESENTATION_CONTEXT('2D SPACE',''
  ) );
#1446 = ORIENTED_EDGE('',*,*,#509,.T.);
#1447 = ORIENTED_EDGE('',*,*,#1399,.F.);
#1448 = ORIENTED_EDGE('',*,*,#726,.F.);
#1449 = ADVANCED_FACE('',(#1450),#497,.T.);
#1450 = FACE_BOUND('',#1451,.T.);
#1451 = EDGE_LOOP('',(#1452,#1453,#1454,#1455));
#1452 = ORIENTED_EDGE('',*,*,#703,.F.);
#1453 = ORIENTED_EDGE('',*,*,#1255,.T.);
#1454 = ORIENTED_EDGE('',*,*,#481,.T.);
#1455 = ORIENTED_EDGE('',*,*,#1426,.F.);
#1456 = ADVANCED_FACE('',(#1457),#1004,.T.);
#1457 = FACE_BOUND('',#1458,.T.);
#1458 = EDGE_LOOP('',(#1459,#1480,#1481,#1482));
#1459 = ORIENTED_EDGE('',*,*,#1460,.T.);
#1460 = EDGE_CURVE('',#1198,#961,#1461,.T.);
#1461 = SURFACE_CURVE('',#1462,(#1466,#1473),.PCURVE_S1.);
#1462 = LINE('',#1463,#1464);
#1463 = CARTESIAN_POINT('',(70.24,0.,10.375));
#1464 = VECTOR('',#1465,1.);
#1465 = DIRECTION('',(0.,-0.603207987745,0.797583928825));
#1466 = PCURVE('',#1004,#1467);
#1467 = DEFINITIONAL_REPRESENTATION('',(#1468),#1472);
#1468 = LINE('',#1469,#1470);
#1469 = CARTESIAN_POINT('',(-0.,0.));
#1470 = VECTOR('',#1471,1.);
#1471 = DIRECTION('',(-3.285437615127E-17,-1.));
#1472 = ( GEOMETRIC_REPRESENTATION_CONTEXT(2) 
PARAMETRIC_REPRESENTATION_CONTEXT() REPRESENTATION_CONTEXT('2D SPACE',''
  ) );
#1473 = PCURVE('',#976,#1474);
#1474 = DEFINITIONAL_REPRESENTATION('',(#1475),#1479);
#1475 = LINE('',#1476,#1477);
#1476 = CARTESIAN_POINT('',(20.175816910351,-1.674452564527E-15));
#1477 = VECTOR('',#1478,1.);
#1478 = DIRECTION('',(-3.285437615127E-17,-1.));
#1479 = ( GEOMETRIC_REPRESENTATION_CONTEXT(2) 
PARAMETRIC_REPRESENTATION_CONTEXT() REPRESENTATION_CONTEXT('2D SPACE',''
  ) );
#1480 = ORIENTED_EDGE('',*,*,#988,.T.);
#1481 = ORIENTED_EDGE('',*,*,#1092,.F.);
#1482 = ORIENTED_EDGE('',*,*,#1220,.F.);
#1483 = ADVANCED_FACE('',(#1484),#976,.T.);
#1484 = FACE_BOUND('',#1485,.T.);
#1485 = EDGE_LOOP('',(#1486,#1507,#1508,#1509));
#1486 = ORIENTED_EDGE('',*,*,#1487,.T.);
#1487 = EDGE_CURVE('',#1175,#933,#1488,.T.);
#1488 = SURFACE_CURVE('',#1489,(#1493,#1500),.PCURVE_S1.);
#1489 = LINE('',#1490,#1491);
#1490 = CARTESIAN_POINT('',(52.152,7.12880515584,15.766472994467));
#1491 = VECTOR('',#1492,1.);
#1492 = DIRECTION('',(0.,-0.603207987745,0.797583928825));
#1493 = PCURVE('',#976,#1494);
#1494 = DEFINITIONAL_REPRESENTATION('',(#1495),#1499);
#1495 = LINE('',#1496,#1497);
#1496 = CARTESIAN_POINT('',(0.,0.));
#1497 = VECTOR('',#1498,1.);
#1498 = DIRECTION('',(-3.285437615127E-17,-1.));
#1499 = ( GEOMETRIC_REPRESENTATION_CONTEXT(2) 
PARAMETRIC_REPRESENTATION_CONTEXT() REPRESENTATION_CONTEXT('2D SPACE',''
  ) );
#1500 = PCURVE('',#948,#1501);
#1501 = DEFINITIONAL_REPRESENTATION('',(#1502),#1506);
#1502 = LINE('',#1503,#1504);
#1503 = CARTESIAN_POINT('',(46.648193834274,-1.011367462336E-16));
#1504 = VECTOR('',#1505,1.);
#1505 = DIRECTION('',(2.885113325118E-17,-1.));
#1506 = ( GEOMETRIC_REPRESENTATION_CONTEXT(2) 
PARAMETRIC_REPRESENTATION_CONTEXT() REPRESENTATION_CONTEXT('2D SPACE',''
  ) );
#1507 = ORIENTED_EDGE('',*,*,#960,.T.);
#1508 = ORIENTED_EDGE('',*,*,#1460,.F.);
#1509 = ORIENTED_EDGE('',*,*,#1197,.F.);
#1510 = ADVANCED_FACE('',(#1511),#948,.T.);
#1511 = FACE_BOUND('',#1512,.T.);
#1512 = EDGE_LOOP('',(#1513,#1534,#1535,#1536));
#1513 = ORIENTED_EDGE('',*,*,#1514,.T.);
#1514 = EDGE_CURVE('',#1152,#905,#1515,.T.);
#1515 = SURFACE_CURVE('',#1516,(#1520,#1527),.PCURVE_S1.);
#1516 = LINE('',#1517,#1518);
#1517 = CARTESIAN_POINT('',(5.64,9.969799110315,17.915099846816));
#1518 = VECTOR('',#1519,1.);
#1519 = DIRECTION('',(0.,-0.603207987745,0.797583928825));
#1520 = PCURVE('',#948,#1521);
#1521 = DEFINITIONAL_REPRESENTATION('',(#1522),#1526);
#1522 = LINE('',#1523,#1524);
#1523 = CARTESIAN_POINT('',(0.,0.));
#1524 = VECTOR('',#1525,1.);
#1525 = DIRECTION('',(2.885113325118E-17,-1.));
#1526 = ( GEOMETRIC_REPRESENTATION_CONTEXT(2) 
PARAMETRIC_REPRESENTATION_CONTEXT() REPRESENTATION_CONTEXT('2D SPACE',''
  ) );
#1527 = PCURVE('',#920,#1528);
#1528 = DEFINITIONAL_REPRESENTATION('',(#1529),#1533);
#1529 = LINE('',#1530,#1531);
#1530 = CARTESIAN_POINT('',(25.,-7.875951291609E-16));
#1531 = VECTOR('',#1532,1.);
#1532 = DIRECTION('',(-1.020919404187E-16,-1.));
#1533 = ( GEOMETRIC_REPRESENTATION_CONTEXT(2) 
PARAMETRIC_REPRESENTATION_CONTEXT() REPRESENTATION_CONTEXT('2D SPACE',''
  ) );
#1534 = ORIENTED_EDGE('',*,*,#932,.T.);
#1535 = ORIENTED_EDGE('',*,*,#1487,.F.);
#1536 = ORIENTED_EDGE('',*,*,#1174,.F.);
#1537 = ADVANCED_FACE('',(#1538),#920,.T.);
#1538 = FACE_BOUND('',#1539,.T.);
#1539 = EDGE_LOOP('',(#1540,#1541,#1542,#1543));
#1540 = ORIENTED_EDGE('',*,*,#1151,.F.);
#1541 = ORIENTED_EDGE('',*,*,#1338,.T.);
#1542 = ORIENTED_EDGE('',*,*,#904,.T.);
#1543 = ORIENTED_EDGE('',*,*,#1514,.F.);
#1544 = ADVANCED_FACE('',(#1545),#1324,.T.);
#1545 = FACE_BOUND('',#1546,.T.);
#1546 = EDGE_LOOP('',(#1547));
#1547 = ORIENTED_EDGE('',*,*,#1309,.T.);
#1548 = ( GEOMETRIC_REPRESENTATION_CONTEXT(3) 
GLOBAL_UNCERTAINTY_ASSIGNED_CONTEXT((#1552)) 
GLOBAL_UNIT_ASSIGNED_CONTEXT((#1549,#1550,#1551)) REPRESENTATION_CONTEXT
('Context #1','3D Context with UNIT and UNCERTAINTY') );
#1549 = ( LENGTH_UNIT() NAMED_UNIT(*) SI_UNIT(.MILLI.,.METRE.) );
#1550 = ( NAMED_UNIT(*) PLANE_ANGLE_UNIT() SI_UNIT($,.RADIAN.) );
#1551 = ( NAMED_UNIT(*) SI_UNIT($,.STERADIAN.) SOLID_ANGLE_UNIT() );
#1552 = UNCERTAINTY_MEASURE_WITH_UNIT(LENGTH_MEASURE(2.E-07),#1549,
  'distance_accuracy_value','confusion accuracy');
#1553 = PRODUCT_RELATED_PRODUCT_CATEGORY('part',$,(#7));
ENDSEC;
END-ISO-10303-21;
