<svg enable-background="new 0 0 128 128" viewBox="0 0 128 128" xmlns="http://www.w3.org/2000/svg" xmlns:xlink="http://www.w3.org/1999/xlink"><radialGradient id="a" cx="84.5307" cy="95.7185" gradientTransform="matrix(.0866 -.9962 -.8303 -.0722 156.8835 120.9469)" gradientUnits="userSpaceOnUse" r="51.6667"><stop offset=".7247" stop-color="#6d4c41" stop-opacity="0"/><stop offset="1" stop-color="#6d4c41"/></radialGradient><radialGradient id="b" cx="92.3729" cy="56.5141" gradientTransform="matrix(-.9999 -.012 -.0059 .4912 184.799 42.4647)" gradientUnits="userSpaceOnUse" r="39.8031"><stop offset=".7275" stop-color="#6d4c41" stop-opacity="0"/><stop offset="1" stop-color="#6d4c41"/></radialGradient><radialGradient id="c" cx="53.1711" cy="62.4319" gradientTransform="matrix(.9006 .4347 .3225 -.6681 -15.0513 81.3287)" gradientUnits="userSpaceOnUse" r="11.7628"><stop offset=".6628" stop-color="#6d4c41"/><stop offset="1" stop-color="#6d4c41" stop-opacity="0"/></radialGradient><radialGradient id="d" cx="123.3921" cy="3.6958" gradientTransform="matrix(1 0 0 -.433 0 125.907)" gradientUnits="userSpaceOnUse" r="57.183"><stop offset=".388" stop-color="#ed6d23"/><stop offset="1" stop-color="#f78c1f"/></radialGradient><radialGradient id="e" cx="63.1554" cy="115.3792" gradientTransform="matrix(.9907 .1363 .1079 -.7844 -11.8597 94.5157)" gradientUnits="userSpaceOnUse" r="19.0775"><stop offset=".5981" stop-color="#6d4c41" stop-opacity="0"/><stop offset="1" stop-color="#6d4c41"/></radialGradient><linearGradient id="f" gradientTransform="matrix(1 0 0 -1 0 128)" gradientUnits="userSpaceOnUse" x1="75.2228" x2="88.2075" y1="16.3885" y2="10.3533"><stop offset=".1968" stop-color="#262626"/><stop offset="1" stop-color="#262626" stop-opacity="0"/></linearGradient><linearGradient id="g" gradientTransform="matrix(1 0 0 -1 0 128)" gradientUnits="userSpaceOnUse" x1="90.5907" x2="97.3638" y1="52.2087" y2="54.662"><stop offset=".1968" stop-color="#262626"/><stop offset="1" stop-color="#262626" stop-opacity="0"/></linearGradient><linearGradient id="h" gradientTransform="matrix(1 0 0 -1 0 128)" gradientUnits="userSpaceOnUse" x1="25.382" x2="59.0484" y1="12.4835" y2="12.4835"><stop offset=".388" stop-color="#ed6d23"/><stop offset="1" stop-color="#f78c1f"/></linearGradient><linearGradient id="i" gradientTransform="matrix(1 0 0 -1 0 128)" gradientUnits="userSpaceOnUse" x1="90.2359" x2="44.4685" y1="58.1968" y2="14.941"><stop offset=".5" stop-color="#ffca28"/><stop offset="1" stop-color="#ffb300"/></linearGradient><linearGradient id="j" gradientTransform="matrix(1 0 0 -1 0 128)" gradientUnits="userSpaceOnUse" x1="64.6205" x2="79.0941" y1="25.6018" y2="25.6018"><stop offset=".5" stop-color="#ffca28"/><stop offset="1" stop-color="#ffb300"/></linearGradient><path d="m 124.00 5.53 c -2.12 -0.03 -4.25 -0.05 -6.39 -0.08 -33.49 -0.40 -66.95 -0.73 -67.93 -0.61 0 0 -4.55 3.26 -4.51 3.36 -7.62 18.08 0.14 36.06 7.36 43.87 4.55 4.92 7.21 8.88 5.04 12.71 -2.10 3.73 -8.23 4.20 -8.23 4.20 s 1.37 3.86 4.74 5.97 c 3.13 1.95 6.99 2.45 9.66 2.54 0 0 10.28 14.59 37.60 14.92 l 15.20 0.18 7.43 0.09 v -87.15 z" fill="#543930"/><path d="m 45.18 8.21 c -7.43 17.51 -0.05 35.72 6.97 43.44 0.97 1.06 5.06 5.18 5.96 8.44 0 0 16.49 -22.42 21.49 -35.65 1.01 -2.67 1.93 -5.42 2.09 -8.27 0.11 -2.14 -0.19 -4.69 -1.40 -6.52 -1.48 -2.25 -3.26 -1.68 -5.82 -1.71 -4.90 -0.06 -26.30 -1.57 -27.97 -1.59 0.01 0.02 -1.32 1.86 -1.32 1.86 z" fill="url(#a)"/><path d="m 116.62 92.60 0.19 -16.05 -48.51 -4.43 -4.48 5.38 s 10.28 14.59 37.60 14.92 z" fill="url(#b)"/><path d="m 64.01 70.50 c 7.41 -10.96 -8.68 -15.28 -8.68 -15.28 s -0.01 0.01 -0.01 0.01 c 2.77 3.52 4.00 6.58 2.32 9.56 -2.10 3.73 -8.23 4.20 -8.23 4.20 s 8.25 7.51 14.60 1.51 z" fill="url(#c)"/><path d="m 121.39 95.11 c -19.84 0 -59.38 10.01 -74.61 28.89 h 1.90 2.12 73.20 v -25.86 -1.51 -1.50 c -0.87 -0.01 -1.74 -0.02 -2.61 -0.02 z" fill="url(#d)"/><path d="m 104.38 75.85 v 18.58 c 0 8.24 6.67 14.94 14.86 14.94 0 0 4.27 -0.03 4.75 -0.08 v -33.44 z" fill="#e59600"/><path d="m 120.88 11.10 h -36.94 -13.12 c -10.49 0 -19.08 9.15 -19.08 20.32 s 8.59 20.32 19.08 20.32 h 13.12 36.94 z" fill="#e59600"/><path d="m 61.29 11.85 c 0.66 22.24 7.37 42.68 18.90 57.54 10.77 13.89 25.09 21.85 39.30 21.85 1.51 0 3.01 -0.10 4.51 -0.27 v -86.97 h -62.64 c -0.13 2.56 -0.15 5.18 -0.07 7.85 z" fill="#ffca28"/><path d="m 104.54 59.65 c -3.26 -1.94 -6.59 1.03 -5.24 3.99 1.33 2.91 11.48 9.66 20.25 9.66 1.46 0 2.96 -0.20 4.45 -0.53 v -10.75 c -7.33 0.53 -15.92 -0.26 -19.46 -2.37 z" fill="#795548"/><path d="m 113.19 45.10 c -0.19 0.02 -0.39 0.07 -0.57 0.15 -1.14 0.46 -1.77 1.65 -1.23 2.91 s 3.05 4.80 8.10 4.80 c 1.83 0 3.32 -0.47 4.51 -1.12 v -6.74 z" fill="#e59600"/><ellipse cx="90.21" cy="28.78" fill="#404040" rx="8.78" ry="9.09"/><path d="m 103.43 12.77 c -1.65 -2.19 -5.47 -5.37 -12.88 -5.37 s -11.23 3.18 -12.88 5.37 c -0.73 0.97 -0.54 2.08 -0.04 2.76 0.47 0.63 1.85 1.21 3.39 0.69 1.53 -0.52 4.52 -2.07 9.53 -2.10 5.01 0.04 8.00 1.58 9.53 2.10 s 2.92 -0.06 3.39 -0.69 c 0.50 -0.68 0.69 -1.80 -0.04 -2.76 z" fill="#6d4c41"/><path d="m 42.12 4.00 c -0.06 2.09 0.28 4.35 1.16 6.75 3.30 8.94 15.55 10.25 15.55 10.25 1.71 13.08 4.62 18.08 7.27 22.25 0.25 0.39 0.82 0.33 0.94 -0.11 1.61 -6.06 1.89 -27.32 1.35 -31.24 0 0 9.52 -1.64 21.64 -7.91 z" fill="#543930"/><path d="m 43.28 10.75 c 3.30 8.94 15.55 10.25 15.55 10.25 0.01 0.04 0.01 0.08 0.02 0.12 1.79 -0.05 4.01 -0.12 4.61 -0.12 l -0.80 -17.00 h -20.54 c -0.06 2.09 0.27 4.35 1.16 6.75 z" fill="url(#e)"/><path d="m 95.92 98.57 c -14.56 4.01 -28.72 7.54 -39.97 16.58 -1.02 3.15 -2.06 6.36 -2.85 8.85 h 29.32 z" fill="url(#f)" opacity=".35"/><path d="m 94.94 69.13 c -3.31 -5.56 -7.46 -3.80 -9.82 -2.62 -2.35 1.18 -1.84 6.85 -1.84 6.85 4.25 4.67 8.92 8.53 13.85 11.46 -2.70 -8.32 0.18 -11.72 -2.19 -15.69 z" fill="url(#g)" opacity=".35"/><path d="m 66.76 116.69 c -3.40 -3.06 -25.54 -9.18 -25.54 -9.18 -0.83 -0.33 -1.62 -0.48 -2.36 -0.48 -3.24 0 -5.57 2.82 -7.18 5.07 l -6.30 11.90 h 1.70 1.70 35.78 1.60 1.57 c 0.83 -2.78 1.34 -5.23 -0.97 -7.31 z" fill="url(#h)"/><path d="m 56.12 119.35 c 14.59 0.56 19.90 -10.00 20.99 -19.97 0.63 -5.76 -0.32 -11.23 -0.32 -11.23 s 7.37 -3.97 12.69 -13.62 c 1.19 -2.17 1.70 -5.73 -0.40 -7.87 -2.20 -2.24 -6.29 -2.95 -9.98 1.20 -4.42 4.64 -6.63 6.89 -14.72 10.97 -6.59 3.33 -15.88 4.24 -22.13 10.24 -12.27 11.77 -1.68 29.69 13.87 30.28 z" fill="url(#i)"/><g fill="#eda600"><path d="m 58.60 96.60 c -1.12 -4.98 -3.83 -7.91 -7.89 -9.08 -3.00 -0.86 -4.99 -0.82 -1.44 0.92 3.84 1.88 6.05 4.97 6.89 8.71 0.99 4.39 -1.10 7.37 -3.60 8.37 -1.42 0.57 -3.50 0.63 -4.53 -1.17 -1.82 -3.17 1.59 -4.96 1.60 -4.96 0.63 -0.28 0.92 -1.02 0.64 -1.65 s -1.01 -0.92 -1.65 -0.64 c -0.11 0.05 -2.49 1.31 -3.52 3.74 -1.02 2.40 0.17 7.54 5.71 7.54 0.87 0 1.80 -0.12 2.68 -0.54 6.56 -3.06 5.58 -9.20 5.11 -11.24 z"/><path d="m 68.86 94.03 c -1.12 -4.98 -3.83 -7.91 -7.89 -9.08 -3.00 -0.86 -4.99 -0.82 -1.44 0.92 3.84 1.88 6.05 4.97 6.89 8.71 0.99 4.39 -1.10 7.37 -3.60 8.37 -1.42 0.57 -3.50 0.63 -4.53 -1.17 -0.03 -0.05 -0.05 -0.10 -0.08 -0.15 l -1.60 2.48 c 0.97 1.00 2.41 1.70 4.45 1.70 0.87 0 1.80 -0.12 2.68 -0.54 6.56 -3.06 5.58 -9.20 5.12 -11.24 z"/><path d="m 77.52 90.72 c -1.12 -4.98 -3.83 -7.91 -7.89 -9.08 -3.00 -0.86 -5.00 -0.82 -1.44 0.92 3.84 1.88 6.05 4.97 6.89 8.71 0.99 4.39 -1.10 7.37 -3.60 8.37 -1.14 0.46 -2.69 0.57 -3.80 -0.33 -0.33 0.64 -0.81 1.57 -1.22 2.40 0.86 0.49 1.94 0.79 3.27 0.79 0.87 0 1.80 -0.12 2.68 -0.54 6.56 -3.06 5.57 -9.20 5.11 -11.24 z"/></g><path d="m 78.22 98.50 c 1.88 2.95 0.79 7.36 -3.92 9.35 -4.03 1.71 -7.22 0.86 -8.68 -1.27 -1.97 -2.89 -1.04 -7.18 2.80 -9.27 3.85 -2.09 8.04 -1.57 9.80 1.19 z" fill="url(#j)"/><path d="m 78.89 102.80 c -0.48 2.07 -1.74 4.07 -3.63 5.39 -0.94 0.66 -2.02 1.13 -3.16 1.42 -1.14 0.26 -2.34 0.31 -3.55 0.13 -1.19 -0.22 -2.44 -0.67 -3.44 -1.74 -0.24 -0.26 -0.48 -0.61 -0.63 -0.91 -0.12 -0.26 -0.25 -0.52 -0.36 -0.79 -0.21 -0.55 -0.41 -1.11 -0.50 -1.71 -0.22 -1.18 -0.11 -2.50 0.42 -3.60 0.52 -1.11 1.41 -1.93 2.40 -2.41 -0.45 1.02 -0.80 1.97 -0.88 2.88 -0.09 0.90 0.04 1.76 0.32 2.60 0.14 0.42 0.31 0.84 0.50 1.26 0.09 0.21 0.21 0.42 0.31 0.63 0.08 0.17 0.15 0.25 0.25 0.39 0.43 0.48 1.22 0.88 2.06 1.07 0.85 0.21 1.79 0.26 2.70 0.13 0.93 -0.09 1.84 -0.36 2.70 -0.77 1.78 -0.80 3.28 -2.22 4.49 -3.97 z" fill="#eda600"/><path d="m 19.20 33.14 c 0 32.01 19.62 42.40 19.62 42.40" fill="none" stroke="#b0bec5" stroke-linejoin="round" stroke-miterlimit="10" stroke-width="4"/><path d="m 41.14 66.27 -10.23 11.59 13.54 2.97 z" fill="#b0bec5"/></svg>