<svg enable-background="new 0 0 128 128" viewBox="0 0 128 128" xmlns="http://www.w3.org/2000/svg" xmlns:xlink="http://www.w3.org/1999/xlink"><radialGradient id="a" cx="79.0584" cy="16.9087" gradientUnits="userSpaceOnUse" r="88.8088"><stop offset=".7185" stop-color="#fe622b"/><stop offset=".7805" stop-color="#fb582c"/><stop offset=".8861" stop-color="#f23d2f"/><stop offset="1" stop-color="#e71932"/></radialGradient><radialGradient id="b" cx="102.9602" cy="33.8205" gradientTransform="matrix(-.8071 .5904 -1.2855 -1.7574 229.5386 32.4711)" gradientUnits="userSpaceOnUse" r="28.3499"><stop offset=".3709" stop-color="#ff9759"/><stop offset=".7473" stop-color="#ff9759" stop-opacity="0"/></radialGradient><radialGradient id="c" cx="53.5314" cy="15.4818" gradientUnits="userSpaceOnUse" r="50.6988"><stop offset=".4809" stop-color="#ff9759"/><stop offset="1" stop-color="#ff9759" stop-opacity="0"/></radialGradient><radialGradient id="d" cx="55.211" cy="29.0839" gradientUnits="userSpaceOnUse" r="76.8712"><stop offset=".7006" stop-color="#fe622b"/><stop offset=".7658" stop-color="#fd5d2b"/><stop offset=".8396" stop-color="#f8502d"/><stop offset=".9175" stop-color="#f1392f"/><stop offset=".9978" stop-color="#e71a32"/><stop offset=".9992" stop-color="#e71932"/></radialGradient><radialGradient id="e" cx="44.6817" cy="18.368" gradientTransform="matrix(.0177 .9998 -.7963 .0141 58.5166 -26.5656)" gradientUnits="userSpaceOnUse" r="73.0825"><stop offset=".6381" stop-color="#ff9759"/><stop offset="1" stop-color="#ff9759" stop-opacity="0"/></radialGradient><radialGradient id="f" cx="77.9481" cy="17.4221" gradientUnits="userSpaceOnUse" r="85.7445"><stop offset=".4987" stop-color="#f34124"/><stop offset=".9992" stop-color="#d10d22"/></radialGradient><radialGradient id="g" cx="33.4356" cy="35.616" gradientTransform="matrix(.8812 -.4727 .2402 .4479 -4.585 35.4681)" gradientUnits="userSpaceOnUse" r="23.3297"><stop offset=".3454" stop-color="#febd92"/><stop offset="1" stop-color="#febd92" stop-opacity="0"/></radialGradient><radialGradient id="h" cx="40.6255" cy="50.6859" gradientTransform="matrix(.9695 -.5798 .4027 .6582 -16.1877 41.227)" gradientUnits="userSpaceOnUse" r="19.8105"><stop offset=".7993" stop-color="#ff9759"/><stop offset="1" stop-color="#ff9759" stop-opacity="0"/></radialGradient><radialGradient id="i" cx="35.5981" cy="39.5809" gradientTransform="matrix(.8689 -.4949 .2885 .5066 -6.7544 37.1489)" gradientUnits="userSpaceOnUse" r="22.2771"><stop offset=".7449" stop-color="#ff9759" stop-opacity="0"/><stop offset=".9737" stop-color="#ff9759"/></radialGradient><path d="m 101.98 24.25 s 6.37 -4.95 9.91 -8.49 c 4.36 -4.36 5.66 -8.93 4.14 -9.47 s -7.41 0.54 -7.41 0.54 l -17.64 8.60 -4.47 6.64 z" fill="#69a246"/><path d="m 28.36 21.96 s -3.70 -1.31 -7.84 -5.77 c -4.04 -4.36 -5.23 -7.30 -4.68 -8.93 0.54 -1.63 20.69 4.36 20.69 4.36 l 13.40 5.99 3.48 7.19 z" fill="#69a246"/><path d="m 67.02 22.29 s 4.25 -8.49 11.11 -12.09 14.05 -4.36 25.05 -4.79 12.85 0.87 12.85 0.87 -8.28 3.92 -16.23 7.62 -14.38 8.60 -14.38 8.60 l -16.98 12.86 -23.09 -17.21 s -8.06 -4.03 -14.70 -6.53 -14.81 -4.36 -14.81 -4.36 1.61 -2.06 16.77 -1.31 c 15.25 0.76 20.91 4.57 25.48 7.30 s 8.93 9.04 8.93 9.04 z" fill="#82b032"/><path d="m 68.22 24.69 c 2.50 -0.22 7.98 -7.82 22.95 -6.61 14.97 1.20 37.81 18.20 31.66 50.08 -3.34 17.34 -12.36 28.52 -29.03 40.64 -11.78 8.56 -23.77 14.00 -29.31 14.08 -4.99 0.08 -11.87 -10.84 -11.87 -10.84 z" fill="url(#a)"/><path d="m 68.22 24.69 c 2.50 -0.22 7.98 -7.82 22.95 -6.61 14.04 1.13 34.99 16.14 32.49 44.28 -0.17 1.88 -2.09 9.95 -5.88 10.35 -18.48 1.98 -27.32 -20.64 -32.08 -26.60 -9.10 -11.37 -17.48 -21.42 -17.48 -21.42 z" fill="url(#b)"/><path d="m 67.53 24.89 c 2.50 -0.22 8.67 -8.02 23.64 -6.82 11.37 0.91 27.26 10.93 31.58 29.65 1.01 4.40 -4.78 9.44 -8.55 10.09 -11.52 1.99 -25.30 -14.74 -30.07 -20.70 -6.47 -8.09 -11.74 -9.86 -14.47 -10.78 -1.10 -0.38 -2.13 -1.44 -2.13 -1.44 z" fill="url(#c)"/><path d="m 88.38 66.94 -2.19 23.04 -9.53 21.65 -7.95 9.73 s -2.27 1.42 -4.21 1.51 c -1.95 0.08 -16.45 -4.09 -29.36 -12.83 s -23.16 -19.21 -27.61 -30.98 c -5.56 -14.70 -5.76 -36.95 7.55 -49.26 s 26.42 -14.10 37.54 -11.72 14.50 6.16 16.69 7.95 11.52 13.11 11.52 13.11 l 7.35 18.87 z" fill="url(#d)"/><path d="m 56.83 95.20 c -24.20 3.00 -44.92 -11.51 -49.37 -23.28 -3.08 -8.13 -4.44 -11.44 -2.86 -21.24 1.28 -7.90 4.25 -14.99 10.47 -20.88 12.41 -11.75 26.57 -14.39 38.15 -11.71 11.08 2.56 13.89 6.15 16.07 7.94 s 11.52 13.11 11.52 13.11 l 7.35 18.87 c 0.02 0 1.52 33.12 -31.33 37.19 z" fill="url(#e)"/><path d="m 67.91 121.45 c 0.43 0.12 4.58 -1.88 7.19 -5.13 7.01 -8.75 15.91 -20.91 17.49 -43.44 2.37 -33.80 -19.57 -46.25 -20.90 -46.85 -1.33 -0.59 -3.26 -0.59 -1.78 1.04 s 17.94 20.01 15.71 45.07 c -1.99 22.42 -10.82 39.58 -13.94 43.44 -3.10 3.85 -5.02 5.51 -3.77 5.87 z" fill="url(#f)"/><path d="m 28.31 50.94 s -3.16 7.63 -9.52 2.60 c -3.46 -2.74 -3.23 -9.81 0.14 -15.71 4.12 -7.24 11.89 -12.22 22.26 -13.63 9.26 -1.26 15.55 1.37 16.70 6.83 1.40 6.60 -4.47 6.33 -4.47 6.33 -16.47 -0.52 -22.70 8.10 -25.11 13.58 z" fill="url(#g)"/><path d="m 23.62 57.97 c -0.64 -7.23 3.90 -15.39 11.49 -20.01 7.80 -4.75 17.51 -5.37 24.99 -1.66 z" fill="url(#h)"/><path d="m 28.31 50.94 s -3.16 7.63 -9.52 2.60 c -3.46 -2.74 -3.23 -9.81 0.14 -15.71 4.12 -7.24 11.89 -12.22 22.26 -13.63 9.26 -1.26 15.55 1.37 16.70 6.83 1.40 6.60 -4.47 6.33 -4.47 6.33 -16.47 -0.52 -22.70 8.10 -25.11 13.58 z" fill="url(#i)"/></svg>