<svg enable-background="new 0 0 128 128" viewBox="0 0 128 128" xmlns="http://www.w3.org/2000/svg" xmlns:xlink="http://www.w3.org/1999/xlink"><radialGradient id="a" cx="63.9995" cy="8.0164" gradientTransform="matrix(1 0 0 -.305 0 122.4395)" gradientUnits="userSpaceOnUse" r="15.2017"><stop offset=".1396" stop-color="#504f4f" stop-opacity=".8"/><stop offset=".8722" stop-color="#616161" stop-opacity="0"/></radialGradient><radialGradient id="b" cx="108.9787" cy="96.3683" gradientTransform="matrix(1 0 0 .5046 -39.7364 -17.1289)" gradientUnits="userSpaceOnUse" r="8.3693"><stop offset=".7275" stop-color="#6d4c41" stop-opacity="0"/><stop offset="1" stop-color="#6d4c41"/></radialGradient><radialGradient id="c" cx="100.7358" cy="97.6126" gradientTransform="matrix(-.9057 .4354 -.3144 -.6903 199.4155 53.7455)" gradientUnits="userSpaceOnUse" r="2.4733"><stop offset=".6628" stop-color="#6d4c41"/><stop offset="1" stop-color="#6d4c41" stop-opacity="0"/></radialGradient><radialGradient id="d" cx="107.1457" cy="104.6095" gradientTransform="matrix(-.0746 -1.0244 .8311 -.0639 -7.87 139.4793)" gradientUnits="userSpaceOnUse" r="10.8638"><stop offset=".7247" stop-color="#6d4c41" stop-opacity="0"/><stop offset="1" stop-color="#6d4c41"/></radialGradient><radialGradient id="e" cx="56.9942" cy="104.6095" gradientTransform="matrix(.0746 -1.0244 -.8311 -.0639 139.6818 88.1033)" gradientUnits="userSpaceOnUse" r="10.8638"><stop offset=".7247" stop-color="#6d4c41" stop-opacity="0"/><stop offset="1" stop-color="#6d4c41"/></radialGradient><radialGradient id="f" cx="58.8271" cy="96.3683" gradientTransform="matrix(-1 0 0 .5046 117.6543 -17.1289)" gradientUnits="userSpaceOnUse" r="8.3693"><stop offset=".7275" stop-color="#6d4c41" stop-opacity="0"/><stop offset="1" stop-color="#6d4c41"/></radialGradient><radialGradient id="g" cx="50.5843" cy="97.6126" gradientTransform="matrix(.9057 .4354 .3144 -.6903 -25.9215 75.5805)" gradientUnits="userSpaceOnUse" r="2.4733"><stop offset=".6628" stop-color="#6d4c41"/><stop offset="1" stop-color="#6d4c41" stop-opacity="0"/></radialGradient><linearGradient id="h" gradientTransform="matrix(1 0 0 -1 0 128)" gradientUnits="userSpaceOnUse" x1="51.9339" x2="51.9339" y1="58.6039" y2="47.9567"><stop offset="0" stop-color="#ffb300"/><stop offset=".5" stop-color="#ffca28"/></linearGradient><linearGradient id="i" gradientTransform="matrix(1 0 0 -1 0 128)" gradientUnits="userSpaceOnUse" x1="76.0661" x2="76.0661" y1="58.9473" y2="48.3001"><stop offset="0" stop-color="#ffb300"/><stop offset=".5" stop-color="#ffca28"/></linearGradient><linearGradient id="j" gradientTransform="matrix(1 0 0 -1 0 128)" gradientUnits="userSpaceOnUse" x1="60.598" x2="60.598" y1="27.5719" y2="16.2062"><stop offset="0" stop-color="#212121"/><stop offset=".7876" stop-color="#616161"/></linearGradient><linearGradient id="k" gradientTransform="matrix(1 0 0 -1 0 128)" gradientUnits="userSpaceOnUse" x1="60.692" x2="60.692" y1="27.3278" y2="20.4764"><stop offset=".1222" stop-color="#bdbdbd"/><stop offset=".7213" stop-color="#eeeeee"/></linearGradient><linearGradient id="l" gradientTransform="matrix(1 0 0 -1 0 128)" gradientUnits="userSpaceOnUse" x1="67.246" x2="67.246" y1="27.5719" y2="16.2062"><stop offset="0" stop-color="#212121"/><stop offset=".7876" stop-color="#616161"/></linearGradient><linearGradient id="m" gradientTransform="matrix(1 0 0 -1 0 128)" gradientUnits="userSpaceOnUse" x1="67.153" x2="67.153" y1="27.3278" y2="20.4764"><stop offset=".1222" stop-color="#bdbdbd"/><stop offset=".7213" stop-color="#eeeeee"/></linearGradient><linearGradient id="n" gradientTransform="matrix(1 0 0 -1 0 128)" gradientUnits="userSpaceOnUse" x1="63.9835" x2="63.9835" y1="63.3647" y2="29.3608"><stop offset="0" stop-color="#212121"/><stop offset=".8778" stop-color="#616161"/></linearGradient><linearGradient id="o" gradientTransform="matrix(1 0 0 -1 0 128)" gradientUnits="userSpaceOnUse" x1="63.9129" x2="63.9129" y1="27.046" y2="56.135"><stop offset="0" stop-color="#616161" stop-opacity=".2"/><stop offset=".7537" stop-color="#212121"/></linearGradient><linearGradient id="p" gradientTransform="matrix(1 0 0 -1 0 128)" gradientUnits="userSpaceOnUse" x1="63.9998" x2="63.9998" y1="88.5733" y2="50.6631"><stop offset=".3285" stop-color="#5f5f5f"/><stop offset="1" stop-color="#212121"/></linearGradient><linearGradient id="q" gradientTransform="matrix(1 0 0 -1 0 128)" gradientUnits="userSpaceOnUse" x1="57.675" x2="57.675" y1="98.8959" y2="72.5297"><stop offset=".1709" stop-color="#616161"/><stop offset=".8364" stop-color="#212121"/></linearGradient><linearGradient id="r" gradientTransform="matrix(1 0 0 -1 0 128)" gradientUnits="userSpaceOnUse" x1="70.3715" x2="70.3715" y1="98.9031" y2="72.5077"><stop offset=".1709" stop-color="#616161"/><stop offset=".8364" stop-color="#212121"/></linearGradient><linearGradient id="s" gradientTransform="matrix(1 0 0 -1 0 128)" gradientUnits="userSpaceOnUse" x1="52.771" x2="52.771" y1="63.481" y2="81.3946"><stop offset="0" stop-color="#616161" stop-opacity=".2"/><stop offset=".7537" stop-color="#212121"/></linearGradient><linearGradient id="t" gradientTransform="matrix(1 0 0 -1 0 128)" gradientUnits="userSpaceOnUse" x1="75.3149" x2="75.3149" y1="63.493" y2="81.3936"><stop offset="0" stop-color="#616161" stop-opacity=".2"/><stop offset=".7537" stop-color="#212121"/></linearGradient><linearGradient id="u" gradientTransform="matrix(1 0 0 -1 0 128)" gradientUnits="userSpaceOnUse" x1="64.0003" x2="64.0003" y1="125.3382" y2="106.0796"><stop offset=".4429" stop-color="#5f5f5f"/><stop offset="1" stop-color="#212121"/></linearGradient><linearGradient id="v" gradientTransform="matrix(1 0 0 -1 0 128)" gradientUnits="userSpaceOnUse" x1="64.002" x2="64.002" y1="106.7357" y2="97.7143"><stop offset=".005" stop-color="#616161"/><stop offset=".4" stop-color="#212121"/></linearGradient><path d="m 79.30 120.00 c 0 2.21 -6.85 4.00 -15.30 4.00 s -15.30 -1.79 -15.30 -4.00 6.85 -4.01 15.30 -4.01 15.30 1.79 15.30 4.01 z" fill="url(#a)"/><path d="m 76.50 30.65 c -0.44 -0.83 0.12 -1.68 1.09 -2.73 1.54 -1.67 3.21 -5.53 1.66 -9.46 0.01 -0.02 -0.31 -0.68 -0.30 -0.70 l -0.64 -0.03 c -0.21 -0.03 -7.24 -0.05 -14.28 -0.05 s -14.08 0.01 -14.28 0.05 c 0 0 -0.95 0.72 -0.94 0.74 -1.56 3.92 0.12 7.79 1.66 9.46 0.97 1.05 1.54 1.90 1.09 2.73 -0.43 0.81 -1.72 0.93 -1.72 0.93 s 0.30 0.83 1.01 1.28 c 0.66 0.41 1.48 0.51 2.04 0.52 0 0 2.20 3.12 7.94 3.12 h 3.20 3.20 c 5.75 0 7.94 -3.12 7.94 -3.12 0.56 -0.01 1.38 -0.11 2.04 -0.52 0.72 -0.45 1.01 -1.28 1.01 -1.28 s -1.29 -0.13 -1.72 -0.94 z" fill="#543930"/><path d="m 64.03 36.51 v -3.47 l 10.21 -0.83 0.93 1.17 s -2.20 3.12 -7.94 3.12 z" fill="url(#b)"/><path d="m 75.14 31.87 c -1.53 -2.39 1.86 -3.28 1.86 -3.28 -0.59 0.75 -0.86 1.41 -0.51 2.06 0.43 0.81 1.72 0.93 1.72 0.93 s -1.75 1.60 -3.07 0.29 z" fill="url(#c)"/><path d="m 79.26 18.46 c 1.52 3.80 -0.08 7.71 -1.58 9.36 -0.21 0.23 -1.08 1.10 -1.27 1.81 0 0 -3.41 -4.89 -4.43 -7.76 -0.21 -0.58 -0.39 -1.18 -0.42 -1.79 -0.02 -0.46 0.05 -1.01 0.31 -1.40 0.32 -0.48 7.21 -0.62 7.21 -0.62 s 0.18 0.40 0.18 0.40 z" fill="url(#d)"/><path d="m 48.81 18.46 c -1.52 3.80 0.08 7.71 1.58 9.36 0.21 0.23 1.08 1.10 1.27 1.81 0 0 3.41 -4.89 4.43 -7.76 0.21 -0.58 0.39 -1.18 0.42 -1.79 0.02 -0.46 -0.05 -1.01 -0.31 -1.40 -0.32 -0.48 -0.69 -0.35 -1.23 -0.35 -1.03 0 -5.53 -0.27 -5.88 -0.27 -0.01 0 -0.28 0.40 -0.28 0.40 z" fill="url(#e)"/><path d="m 64.04 36.51 v -3.47 l -10.21 -0.83 -0.93 1.17 s 2.20 3.12 7.94 3.12 z" fill="url(#f)"/><path d="m 52.93 31.87 c 1.53 -2.39 -1.86 -3.28 -1.86 -3.28 0.59 0.75 0.86 1.41 0.51 2.06 -0.43 0.81 -1.72 0.93 -1.72 0.93 s 1.74 1.60 3.07 0.29 z" fill="url(#g)"/><path d="m 64.00 35.85 h -4.04 v 4.28 c 0 1.94 1.65 3.51 3.67 3.51 h 0.73 c 2.03 0 3.68 -1.57 3.68 -3.51 v -4.28 z" fill="#e59600"/><path d="m 48.70 70.12 c 0.23 1.21 0.74 2.34 1.48 3.32 1.26 1.67 3.59 1.54 4.45 1.56 1.59 0.04 0.90 -4.07 0.88 -4.20 0 0 -0.34 -6.45 -4.58 -6.45 -1.73 0.04 -3.01 1.62 -2.69 3.32 z" fill="url(#h)"/><path d="m 79.30 70.12 c -0.23 1.21 -0.74 2.34 -1.48 3.32 -1.26 1.67 -3.59 1.54 -4.45 1.56 -1.59 0.04 -0.90 -4.07 -0.88 -4.20 0 0 0.34 -6.45 4.58 -6.45 1.73 0.04 3.01 1.62 2.69 3.32 z" fill="url(#i)"/><path d="m 63.93 108.48 c -0.01 1.54 -0.07 3.64 -2.34 3.64 -2.66 0 -4.01 -5.86 -4.19 -7.31 -0.18 -1.44 -0.18 -4.14 -0.18 -4.14 l 6.77 -0.01 z" fill="url(#j)"/><path d="m 63.04 105.25 c -0.01 1.09 -0.79 2.57 -1.65 2.57 -1.87 0 -2.83 -4.13 -2.95 -5.14 s -0.13 -2.20 -0.13 -2.20 l 4.77 -0.01 z" fill="url(#k)"/><path d="m 63.92 108.48 c 0.01 1.54 0.19 3.64 2.34 3.64 2.66 0 4.01 -5.86 4.19 -7.31 s 0.18 -4.14 0.18 -4.14 l -6.77 -0.01 z" fill="url(#l)"/><path d="m 64.81 105.25 c 0.01 1.09 0.79 2.57 1.65 2.57 1.87 0 2.82 -4.13 2.95 -5.14 s 0.13 -2.20 0.13 -2.20 l -4.77 -0.01 z" fill="url(#m)"/><path d="m 69.66 101.96 h -11.37 c -1.04 0 -1.91 -0.79 -2.01 -1.83 l -3.06 -32.41 h 21.52 l -3.07 32.41 c -0.09 1.04 -0.96 1.83 -2.01 1.83 z" fill="url(#n)"/><path d="m 63.16 72.07 c -0.45 0.27 -0.72 0.77 -0.71 1.29 l 0.95 27.58 h 1.19 l 0.78 -27.59 c 0.01 -0.53 -0.26 -1.02 -0.71 -1.29 h -0.01 c -0.45 -0.26 -1.03 -0.26 -1.49 0.01 z" fill="url(#o)" opacity=".5"/><path d="m 73.41 68.86 h 5.56 c 1.05 0 1.92 -0.80 2.01 -1.84 l 0.26 -2.88 h -7.83 z" fill="#e5e5e5"/><path d="m 54.88 68.86 h -5.56 c -1.05 0 -1.92 -0.80 -2.01 -1.84 l -0.26 -2.88 h 7.83 z" fill="#e5e5e5"/><path d="m 79.50 37.80 s -5.95 -1.74 -11.75 -2.33 l -3.69 4.94 -3.77 -4.89 c -5.79 0.63 -11.80 2.29 -11.80 2.29 -2.73 0.74 -3.82 3.37 -3.49 7.42 l 1.87 20.27 h 6.12 l 0.70 7.29 h 20.63 l 0.70 -7.29 h 6.12 l 1.86 -20.28 c 0.32 -4.05 -0.76 -6.68 -3.50 -7.42 z" fill="url(#p)"/><path d="m 68.62 50.48 -4.59 6.07 -4.11 -6.07 v -9.00 h 8.70 z" fill="#e5e5e5"/><path d="m 64.10 57.10 -2.34 -3.89 1.25 -9.41 h 2.19 l 1.25 9.40 z" fill="#d32f2f"/><path d="m 65.20 43.88 h -2.19 l -0.97 -2.21 0.41 -1.28 h 3.30 l 0.41 1.28 z" fill="#d32f2f"/><path d="m 60.30 35.51 3.77 4.89 -3.73 3.25 -2.49 -7.82 z" fill="#ffffff"/><path d="m 67.72 35.46 -3.65 4.94 3.67 3.22 2.56 -7.83 c -0.92 -0.16 -2.58 -0.33 -2.58 -0.33 z" fill="#ffffff"/><path d="m 74.39 50.92 h -5.15 v -0.63 l 2.58 -2.02 2.57 2.02 z" fill="#d32f2f"/><path d="m 52.74 36.85 2.01 3.65 -3.40 0.44 12.65 18.15 -0.01 -4.00 -6.21 -19.46 z" fill="url(#q)"/><path d="m 75.36 36.85 -2.00 3.65 3.40 0.44 -12.77 18.18 v -4.00 l 6.33 -19.49 z" fill="url(#r)"/><path d="m 51.67 47.58 1.01 16.94 h 1.20 l -0.31 -17.14 c -0.02 -0.33 -0.36 -0.83 -1.06 -0.76 -0.70 0.06 -0.89 0.63 -0.84 0.96 z" fill="url(#s)" opacity=".5"/><path d="m 76.38 47.58 -1.04 16.89 -1.10 0.04 0.24 -17.13 c 0.02 -0.33 0.36 -0.83 1.06 -0.76 0.70 0.06 0.89 0.63 0.84 0.96 z" fill="url(#t)" opacity=".5"/><circle cx="64.23" cy="63.24" fill="#212121" r="2.02"/><path d="m 73.68 21.30 h -2.61 -14.14 -2.61 c -2.09 0 -3.79 1.82 -3.79 4.04 s 1.71 4.04 3.79 4.04 h 2.61 14.14 2.61 c 2.09 0 3.79 -1.82 3.79 -4.04 s -1.70 -4.04 -3.79 -4.04 z" fill="#e59600"/><path d="m 64.00 7.00 c -6.17 0 -11.88 6.59 -11.88 16.08 0 9.44 5.88 14.10 11.88 14.10 s 11.88 -4.67 11.88 -14.10 c 0 -9.49 -5.71 -16.08 -11.88 -16.08 z" fill="#ffca28"/><path d="m 55.53 21.40 c 0.70 -1.06 2.20 -1.42 3.38 -1.18 0.63 0.12 1.27 0.42 1.72 0.90 0.38 0.41 0.57 1.16 -0.25 1.17 -0.30 0.01 -0.64 -0.22 -0.92 -0.31 -0.64 -0.19 -1.33 -0.24 -1.99 -0.13 -0.32 0.05 -0.64 0.16 -0.95 0.26 -0.23 0.08 -0.38 0.23 -0.64 0.17 -0.36 -0.09 -0.58 -0.53 -0.35 -0.88 z" fill="#6d4c41"/><path d="m 71.85 22.25 c -0.87 -0.46 -1.95 -0.58 -2.90 -0.37 -0.46 0.10 -2.46 0.93 -1.74 -0.49 0.58 -1.14 2.45 -1.41 3.52 -1.15 0.57 0.14 1.21 0.43 1.60 0.89 0.38 0.42 0.36 1.46 -0.48 1.12 z" fill="#6d4c41"/><path d="m 66.98 31.15 c -1.13 0.67 -4.83 0.67 -5.96 0 -0.65 -0.39 -1.31 0.20 -1.04 0.79 0.26 0.58 2.28 1.92 4.03 1.92 s 3.74 -1.34 4.00 -1.92 c 0.27 -0.58 -0.38 -1.17 -1.03 -0.79 z" fill="#795548"/><path d="m 65.37 27.81 c -0.04 -0.01 -0.08 -0.02 -0.11 -0.03 h -2.51 c -0.04 0 -0.08 0.01 -0.11 0.03 -0.23 0.09 -0.35 0.33 -0.24 0.58 s 0.61 0.95 1.61 0.95 c 1.01 0 1.50 -0.70 1.61 -0.95 0.10 -0.25 -0.03 -0.48 -0.25 -0.58 z" fill="#e59600"/><path d="m 75.36 27.16 c -0.02 -0.17 1.25 -2.29 1.47 -4.44 0.08 -0.75 0.61 -3.26 0.07 -4.84 -1.62 -6.48 -5.96 -10.38 -12.95 -10.38 -7.34 0 -11.85 3.90 -13.09 10.88 0 1.29 0.55 3.27 0.55 3.27 -0.22 3.85 0.99 5.71 0.99 5.71 s 1.51 -6.61 1.37 -7.62 c 0 0 2.78 -0.55 5.93 -2.36 2.13 -1.22 3.59 -2.65 5.98 -3.19 3.64 -0.82 4.46 1.82 4.46 1.82 s 3.37 -0.65 4.39 4.04 c 0.42 1.93 0.60 5.15 0.83 7.11 z" fill="#543930"/><path d="m 77.09 14.88 s -1.24 -7.34 -2.68 -8.99 c -1.43 -1.63 -7.04 -1.88 -10.41 -1.89 -3.37 0.01 -8.98 0.26 -10.41 1.89 -1.45 1.65 -2.68 8.99 -2.68 8.99 s -5.50 1.63 -3.11 3.03 c 1.17 0.68 6.28 1.11 16.20 1.12 9.92 -0.01 15.03 -0.43 16.20 -1.12 2.40 -1.40 -3.11 -3.03 -3.11 -3.03 z" fill="url(#u)"/><path d="m 75.65 22.12 -0.26 -0.06 c -1.66 -0.39 -3.35 -0.58 -5.04 -0.58 -0.63 0 -1.67 0.15 -2.72 0.33 -2.38 0.42 -4.82 0.42 -7.19 0 -1.07 -0.19 -2.12 -0.34 -2.76 -0.34 -1.70 0 -3.39 0.20 -5.05 0.58 l -0.26 0.06 c -0.21 0.05 -0.38 0.23 -0.38 0.43 v 1.08 c 0 0.27 0.27 0.48 0.56 0.44 l 0.44 2.77 c 0.29 1.89 1.94 3.58 4.75 3.58 2.91 0 4.36 -2.67 5.05 -4.90 0.17 -0.53 0.66 -0.90 1.22 -0.90 h 0.02 c 0.56 0 1.05 0.37 1.22 0.90 0.70 2.23 2.14 4.90 5.05 4.90 2.81 0 4.46 -1.69 4.75 -3.58 l 0.42 -2.77 c 0.28 0.03 0.54 -0.17 0.54 -0.44 v -1.08 c 0.01 -0.19 -0.14 -0.37 -0.36 -0.42 z" fill="url(#v)"/></svg>