<svg enable-background="new 0 0 128 128" viewBox="0 0 128 128" xmlns="http://www.w3.org/2000/svg" xmlns:xlink="http://www.w3.org/1999/xlink"><radialGradient id="a" cx="80.1208" cy="37.2464" gradientTransform="matrix(.9381 .3463 -.4988 1.351 23.5349 -40.8215)" gradientUnits="userSpaceOnUse" r="14.1914"><stop offset=".45" stop-color="#554138" stop-opacity="0"/><stop offset="1" stop-color="#554138"/></radialGradient><radialGradient id="b" cx="-2433.5916" cy="-209.6837" gradientTransform="matrix(.9632 -.2642 .3327 1.1275 2494.7117 -381.3732)" gradientUnits="userSpaceOnUse" r="14.7647"><stop offset=".45" stop-color="#554138" stop-opacity="0"/><stop offset="1" stop-color="#554138"/></radialGradient><radialGradient id="c" cx="-2448.002" cy="-213.1591" gradientTransform="matrix(.9565 -.2919 .2194 .7189 2454.2751 -537.6951)" gradientUnits="userSpaceOnUse" r="27.42"><stop offset=".45" stop-color="#554138" stop-opacity="0"/><stop offset="1" stop-color="#554138"/></radialGradient><radialGradient id="d" cx="-2432.1213" cy="-194.4167" gradientTransform="matrix(.9943 .1064 -.0684 .6393 2489.4797 423.0317)" gradientUnits="userSpaceOnUse" r="15.7121"><stop offset=".45" stop-color="#554138" stop-opacity="0"/><stop offset="1" stop-color="#554138"/></radialGradient><radialGradient id="e" cx="48.9355" cy="97.5801" gradientUnits="userSpaceOnUse" r="45.2448"><stop offset="0" stop-color="#f78c1f"/><stop offset=".482" stop-color="#f47f12"/><stop offset="1" stop-color="#ef6c00"/></radialGradient><linearGradient id="f" gradientUnits="userSpaceOnUse" x1="62.5035" x2="62.5035" y1="80.9835" y2="124.6199"><stop offset="0" stop-color="#8d5738"/><stop offset=".5056" stop-color="#a56c43"/></linearGradient><path d="m 90.30 33.53 c 2.46 -10.18 -3.27 -21.55 -11.55 -25.01 -6.10 -2.53 -13.15 -2.03 -19.26 0.20 -9.44 3.28 -13.51 11.67 -12.77 20.79 0.30 4.70 1.58 7.34 3.32 10.98 0.81 2.45 -3.08 5.51 -2.99 8.20 0.04 2.00 4.32 2.30 4.71 2.58 0.43 0.27 0.82 1.13 1.08 1.79 1.88 4.62 3.51 7.63 11.43 6.61 2.68 -0.43 5.24 -1.64 5.77 -0.85 0.43 0.65 0.74 3.29 0.82 3.95 0.11 0.86 -2.72 5.59 -2.72 5.59 l 19.88 -2.28 1.53 0.31 -0.24 -3.61 s -5.45 -9.20 -1.92 -20.56 c 0.47 -1.51 2.59 -7.52 2.91 -8.69 z" fill="#a56c43"/><path d="m 59.41 42.81 c 1.77 0.04 -0.76 2.27 -3.16 2.40 -1.74 0.10 -3.79 -0.71 -3.06 -3.34 0.31 -1.12 1.03 0.87 2.55 1.10 1.53 0.22 3.67 -0.16 3.67 -0.16 z" fill="#42312c"/><path d="m 53.59 37.51 c -2.08 0.43 -2.56 -0.58 -1.95 -1.71 0.45 -0.83 2.05 -1.31 4.43 -0.84 2.45 0.48 3.39 1.45 4.04 2.19 0.65 0.75 0.63 1.53 0.12 1.63 -0.70 0.15 -3.12 -1.99 -6.64 -1.27 z" fill="#42312c"/><path d="m 92.95 26.45 s -0.01 0.01 -0.03 0.03 c 2.54 -3.34 2.05 -9.40 -0.85 -12.40 -4.10 -4.25 -9.07 -4.02 -9.86 -4.03 -3.34 -6.17 -11.81 -7.30 -18.77 -4.84 -2.84 0.93 -5.49 3.01 -7.63 4.91 -0.56 0.43 -1.11 0.80 -1.70 1.07 -0.05 0.02 -0.11 0.05 -0.16 0.07 -0.08 0.03 -0.15 0.06 -0.23 0.08 -3.70 1.05 -5.62 -0.86 -5.49 -3.91 0 0 -7.97 3.03 -3.26 10.52 -2.60 1.62 -3.97 4.46 -4.06 7.30 -0.13 3.88 2.65 7.31 6.52 8.41 -0.33 -0.97 -1.29 -6.07 7.60 -6.53 3.08 -0.15 6.20 -1.77 8.44 -3.67 0.19 -0.03 0.31 -0.05 0.31 -0.05 3.58 1.30 -0.10 9.01 4.26 13.07 0.86 0.80 1.42 0.38 1.42 0.38 l 1.17 -2.39 c 0.91 -1.66 1.75 -3.09 3.19 -2.99 4.27 0.31 4.58 7.81 -0.09 10.14 -0.46 0.23 2.89 8.61 13.06 7.15 5.26 -0.75 6.49 -5.38 6.49 -5.38 -0.38 0.15 -1.22 0.30 -2.03 0.02 -0.10 -0.04 -0.19 -0.10 -0.28 -0.17 -0.25 -0.20 -0.43 -0.46 -0.52 -0.63 -0.59 -1.09 0.18 -2.49 1.66 -4.29 4.14 -4.91 1.76 -10.47 0.84 -11.87 z" fill="#3c2c23"/><path d="m 92.95 26.45 s -0.01 0.01 -0.03 0.03 c -2.24 3.37 -6.11 4.25 -7.09 4.45 0 0 -1.13 0.10 -1.72 0.28 -4.28 0.61 -5.82 7.06 0.10 11.90 4.13 3.37 9.08 0.27 9.08 0.27 s -0.69 0.32 -1.81 0.10 c -0.72 -0.14 -1.10 -1.01 -1.11 -1.05 -0.40 -0.95 0.32 -2.42 1.75 -4.11 4.13 -4.91 1.75 -10.47 0.83 -11.87 z" fill="url(#a)"/><path d="m 92.70 14.83 c -2.99 -3.69 -6.89 -4.76 -10.49 -4.78 0.56 1.29 0.39 5.88 -2.48 9.07 1.75 1.69 3.95 3.66 4.97 5.83 0.89 1.89 1.80 3.99 1.13 5.98 1.28 -0.26 7.46 -1.66 8.56 -8.22 0.39 -2.35 -0.08 -5.90 -1.69 -7.88 z" fill="url(#b)"/><path d="m 82.21 14.00 c 0.39 -1.70 0.35 -3.05 -0.08 -4.18 0 0 -0.57 -0.99 -1.53 -1.99 -0.85 -0.88 -2.02 -1.74 -3.13 -2.33 -4.49 -2.41 -11.54 -1.57 -15.46 0.29 -3.16 1.50 -4.09 2.71 -6.20 4.33 -1.53 1.18 -3.01 1.94 -5.44 1.26 -2.32 -0.65 -2.14 -3.95 -2.14 -3.95 s -7.97 3.03 -3.26 10.52 c -2.60 1.62 -3.97 4.46 -4.06 7.30 -0.13 3.88 2.65 7.31 6.52 8.41 0 0 -1.74 -5.74 6.54 -6.49 2.74 -0.25 4.50 -0.46 6.88 -1.84 2.11 -1.22 3.24 -3.09 5.77 -3.31 2.72 -0.23 6.53 0.37 9.25 -0.45 5.49 -1.68 6.32 -7.49 6.34 -7.57 z" fill="url(#c)"/><path d="m 84.20 43.11 c -2.09 -1.66 -4.06 -5.06 -7.14 -6.34 -0.26 1.92 -1.34 3.85 -3.33 4.85 -0.46 0.23 2.89 8.61 13.06 7.15 5.26 -0.75 6.49 -5.38 6.49 -5.38 s -4.88 3.06 -9.08 -0.28 z" fill="url(#d)"/><path d="m 52.88 53.20 c 0.39 0 0.78 -0.03 1.16 -0.10 0.92 -0.13 1.77 -0.42 2.42 -0.90 1.44 -1.05 2.66 -0.11 1.50 1.24 -0.80 0.93 -1.80 1.56 -2.90 1.92 -0.37 0.12 -0.73 0.22 -1.11 0.28 z" fill="#473530"/><path d="m 36.16 124.00 h 57.51 s -2.29 -7.91 -1.67 -14.68 c 0.95 -10.22 4.33 -13.44 4.33 -29.56 0 -11.58 -6.34 -21.93 -14.61 -21.59 -10.51 0.44 -14.05 5.53 -21.82 10.33 -10.51 6.50 -11.60 11.33 -10.77 16.89 0.26 1.78 -0.75 2.25 -2.08 3.09 -9.18 5.88 -16.01 11.97 -15.34 24.53 0.36 6.82 4.45 10.99 4.45 10.99 z" fill="url(#e)"/><path d="m 88.24 70.96 c -2.65 -5.96 -12.42 -2.80 -13.47 4.75 -0.88 6.33 1.97 28.11 1.97 28.11 s -7.27 3.99 -15.61 5.00 c -1.99 0.24 -5.81 0.43 -6.40 0.14 -1.06 -0.52 -1.45 -1.65 -1.95 -2.31 -0.62 -0.81 -1.26 -1.63 -2.08 -2.26 -0.62 -0.47 -1.34 -0.82 -2.04 -1.16 -1.17 -0.56 -2.35 -1.12 -3.52 -1.69 -0.29 -0.14 -0.63 -0.28 -0.92 -0.16 -0.15 0.07 -0.27 0.20 -0.36 0.34 -0.38 0.66 -0.04 1.53 0.51 2.06 s 1.27 0.84 1.89 1.28 1.17 1.13 1.10 1.89 c -1.72 0.26 -4.26 0.30 -5.92 0.09 -1.61 -0.21 -2.26 -0.45 -3.45 -0.69 -0.61 -0.13 -1.78 -0.51 -2.14 0.37 -0.29 0.69 0.08 1.14 0.46 1.49 0.03 0.03 0.06 0.05 0.09 0.08 -0.16 -0.11 -0.38 -0.25 -0.64 -0.40 -0.14 -0.08 -0.32 -0.21 -0.93 -0.14 -0.58 0.07 -0.77 0.54 -0.81 0.89 -0.13 1.18 1.03 1.85 1.09 1.84 0 0 -0.72 -0.06 -0.90 0.86 -0.10 0.53 0.23 1.09 0.62 1.62 s 1.26 1.19 1.26 1.19 -0.60 0.05 -0.73 0.55 c -0.20 0.76 0.37 1.41 1.37 1.99 0 0 1.53 1.06 3.11 1.64 3.66 1.33 6.90 1.31 8.33 1.17 3.65 -0.37 31.92 -2.68 37.30 -4.55 5.02 -1.75 5.13 -5.71 5.42 -8.97 0.34 -3.96 0 -29.06 -2.65 -35.02 z" fill="url(#f)"/><g fill="#875334"><path d="m 43.36 109.88 c 0.56 -0.01 1.02 0.21 0.54 0.71 -0.26 0.27 -2.43 -0.14 -3.73 -0.45 -1.56 -0.37 -3.17 -1.01 -3.94 -1.90 -0.26 -0.31 -0.17 -0.29 -0.17 -0.29 1.21 0.52 2.54 1.14 3.91 1.38 1.38 0.24 2.83 0.56 3.39 0.55 z"/><path d="m 43.56 113.85 c -0.02 0.49 -0.68 0.37 -0.94 0.35 -1.73 -0.11 -3.31 -0.68 -4.70 -1.32 -2.88 -1.32 -3.15 -2.60 -3.15 -2.60 s 2.12 1.35 3.39 1.84 2.97 0.95 4.68 1.18 c 0.21 0.03 0.74 0.06 0.72 0.55 z"/><path d="m 43.63 116.86 c -0.01 0.51 -0.69 0.43 -1.21 0.38 0 0 -1.97 -0.35 -3.94 -1.25 -2.03 -0.93 -3.10 -2.35 -3.10 -2.35 s 2.27 1.24 3.21 1.57 c 0.84 0.29 2.66 0.80 4.07 1.05 0.23 0.05 0.98 0.15 0.97 0.60 z"/></g><path d="m 77.08 91.31 l 12.60 -0.79 c 2.55 -0.16 4.44 -1.03 4.40 -3.32 l -1.40 -14.70 c -0.99 -6.96 -5.19 -8.47 -11.22 -8.09 -6.03 0.37 -9.42 4.94 -9.32 10.37 l 0.45 13.93 c 0.05 2.29 1.94 2.76 4.49 2.60 z" fill="#ed6d23"/></svg>