<svg enable-background="new 0 0 128 128" viewBox="0 0 128 128" xmlns="http://www.w3.org/2000/svg"><circle cx="64.46" cy="63.96" fill="#f2a600" r="60"/><circle cx="60.56" cy="63.06" fill="#ffcc32" r="56.1"/><path d="m 76.96 64.36 h 32.70 c 1.01 -0.04 1.81 -0.88 1.80 -1.90 -0.61 -15.42 -8.76 -29.55 -21.80 -37.80 -0.83 -0.53 -1.94 -0.28 -2.47 0.55 -0.01 0.02 -0.02 0.03 -0.03 0.05 l -16.50 28.30 c -0.46 0.78 -0.24 1.78 0.50 2.30 2.16 1.75 3.59 4.25 4.00 7.00 0.15 0.87 0.91 1.51 1.80 1.50 z"/><path d="m 64.46 75.16 c -1.40 -0.01 -2.79 -0.29 -4.10 -0.80 -0.83 -0.32 -1.77 0.02 -2.20 0.80 l -16.30 28.30 c -0.50 0.87 -0.20 1.98 0.67 2.48 0.01 0.01 0.02 0.01 0.03 0.02 6.76 3.54 14.27 5.39 21.90 5.40 7.60 0.04 15.10 -1.82 21.80 -5.40 0.88 -0.49 1.20 -1.59 0.72 -2.47 -0.01 -0.01 -0.01 -0.02 -0.02 -0.03 l -16.30 -28.30 c -0.43 -0.78 -1.37 -1.12 -2.20 -0.80 -1.27 0.53 -2.63 0.80 -4.00 0.80 z"/><circle cx="64.46" cy="64.36" r="7.2"/><path d="m 24.46 29.66 c 4.50 -7.10 14.10 -13.00 24.10 -14.80 2.50 -0.40 5.00 -0.60 7.10 0.20 1.60 0.60 2.90 2.10 2.00 3.80 -0.70 1.40 -2.60 2.00 -4.10 2.50 -9.38 3.10 -17.47 9.21 -23.00 17.40 -2.00 3.00 -5.00 11.30 -8.70 9.20 -3.90 -2.30 -3.10 -9.50 2.60 -18.30 z" fill="#fff170" opacity=".65"/><path d="m 58.26 53.46 -16.40 -28.20 c -0.52 -0.85 -1.63 -1.13 -2.49 -0.61 0 0 -0.01 0.01 -0.01 0.01 -13.03 8.27 -21.21 22.38 -21.90 37.80 -0.01 1.02 0.79 1.86 1.80 1.90 h 32.70 c 0.88 0 1.64 -0.63 1.80 -1.50 0.41 -2.75 1.84 -5.25 4.00 -7.00 0.69 -0.59 0.90 -1.58 0.50 -2.40 z"/><path d="m 24.46 29.66 c 4.50 -7.10 14.10 -13.00 24.10 -14.80 2.50 -0.40 5.00 -0.60 7.10 0.20 1.60 0.60 2.90 2.10 2.00 3.80 -0.70 1.40 -2.60 2.00 -4.10 2.50 -9.38 3.10 -17.47 9.21 -23.00 17.40 -2.00 3.00 -5.00 11.30 -8.70 9.20 -3.90 -2.30 -3.10 -9.50 2.60 -18.30 z" fill="#ffffff" opacity=".3"/></svg>