<svg enable-background="new 0 0 128 128" viewBox="0 0 128 128" xmlns="http://www.w3.org/2000/svg"><path d="m 118.00 60.50 3.48 53.01 c 0.28 4.33 -3.15 7.99 -7.49 7.99 h -99.98 c -4.34 0 -7.77 -3.67 -7.49 -7.99 l 3.48 -53.01 c 3.00 -34.00 24.18 -54.00 54.00 -54.00 s 50.00 24.00 54.00 54.00 z" fill="#b9e4ea"/><circle cx="64" cy="60.5" fill="#ffffff" r="40"/><circle cx="64" cy="60.5" fill="#ffffff" r="40"/><path d="m 64.00 20.50 c 22.09 0 40.00 17.91 40.00 40.00 s -17.91 40.00 -40.00 40.00 -40.00 -17.91 -40.00 -40.00 17.91 -40.00 40.00 -40.00 m 0 -3.00 c -23.71 0 -43.00 19.29 -43.00 43.00 s 19.29 43.00 43.00 43.00 43.00 -19.29 43.00 -43.00 -19.29 -43.00 -43.00 -43.00 z" fill="#78909c"/><g fill="none" stroke="#78909c" stroke-miterlimit="10" stroke-width="3"><path d="m 64.00 18.50 v 8.23"/><path d="m 64.00 94.27 v 8.23"/><path d="m 106.00 60.50 h -8.23"/><path d="m 30.23 60.50 h -8.23"/><path d="m 64.00 18.50 v 8.23"/><path d="m 64.00 94.27 v 8.23"/><path d="m 43.00 24.13 4.11 7.12"/><path d="m 80.89 89.75 4.11 7.12"/><path d="m 43.00 24.13 4.11 7.12"/><path d="m 80.89 89.75 4.11 7.12"/><path d="m 27.63 39.50 7.12 4.11"/><path d="m 93.25 77.39 7.12 4.11"/><path d="m 85.00 24.13 -4.11 7.12"/><path d="m 47.11 89.75 -4.11 7.12"/><path d="m 100.37 39.50 -7.12 4.11"/><path d="m 34.75 77.39 -7.12 4.11"/></g><path d="m 64.00 91.50 c -7.18 0 -13.00 -5.82 -13.00 -13.00 v -35.00 c 0 -7.18 5.82 -13.00 13.00 -13.00 s 13.00 5.82 13.00 13.00 v 35.00 c 0 7.18 -5.82 13.00 -13.00 13.00 z" fill="#e0e0e0"/><path d="m 76.88 42.67 c -0.55 -5.58 -3.31 -8.85 -8.11 -11.41 -0.50 -0.27 -1.05 -0.54 -1.61 -0.45 0 0 -1.17 42.34 -1.17 46.53 0 4.54 -0.38 9.74 -5.56 11.32 -0.93 0.28 -1.93 0.41 -2.71 0.98 3.56 3.10 9.27 2.63 13.12 -0.09 2.12 -1.49 6.16 -4.05 6.16 -15.05" fill="#78909c" opacity=".52"/><path d="m 31.58 97.55 c 0.10 0.10 0.20 0.20 0.30 0.31 5.02 5.19 11.56 8.68 16.82 13.62 -2.88 0.99 -6.05 0.33 -8.96 -0.55 -10.89 -3.31 -21.21 -10.15 -26.19 -20.39 -1.19 -2.44 -2.07 -5.12 -1.83 -7.82 0.13 -1.50 0.73 -3.13 2.10 -3.78 1.19 -0.57 2.67 -0.21 3.74 0.56 2.62 1.88 3.91 5.96 5.84 8.55 2.49 3.35 5.28 6.48 8.18 9.50 z" fill="#f5f5f5"/><path d="m 109.30 84.90 c -7.63 13.26 -20.53 23.52 -35.33 27.52 3.37 4.12 18.90 3.22 29.97 -5.10 s 14.84 -30.31 12.47 -37.07 c -1.16 0.33 -1.64 1.67 -1.99 2.82 -1.24 4.13 -2.97 8.10 -5.12 11.83 z" fill="#82aec0" opacity=".5"/><path d="m 63.50 16.50 -5.00 -10.00 h 11.00 z" fill="#ff4638"/></svg>