ISO-10303-21;
HEADER;
FILE_DESCRIPTION(('Open CASCADE Model'),'2;1');
FILE_NAME('Open CASCADE Shape Model','2026-10-02T01:29:23',('Author'),(
    'Open CASCADE'),'Open CASCADE STEP processor 7.9','Open CASCADE 7.9'
  ,'Unknown');
FILE_SCHEMA(('AUTOMOTIVE_DESIGN { 1 0 10303 214 1 1 1 1 }'));
ENDSEC;
DATA;
#1 = APPLICATION_PROTOCOL_DEFINITION('international standard',
  'automotive_design',2000,#2);
#2 = APPLICATION_CONTEXT(
  'core data for automotive mechanical design processes');
#3 = SHAPE_DEFINITION_REPRESENTATION(#4,#10);
#4 = PRODUCT_DEFINITION_SHAPE('','',#5);
#5 = PRODUCT_DEFINITION('design','',#6,#9);
#6 = PRODUCT_DEFINITION_FORMATION('','',#7);
#7 = PRODUCT('Open CASCADE STEP translator 7.9 1',
  'Open CASCADE STEP translator 7.9 1','',(#8));
#8 = PRODUCT_CONTEXT('',#2,'mechanical');
#9 = PRODUCT_DEFINITION_CONTEXT('part definition',#2,'design');
#10 = ADVANCED_BREP_SHAPE_REPRESENTATION('',(#11,#15),#437);
#11 = AXIS2_PLACEMENT_3D('',#12,#13,#14);
#12 = CARTESIAN_POINT('',(0.,0.,0.));
#13 = DIRECTION('',(0.,0.,1.));
#14 = DIRECTION('',(1.,0.,-0.));
#15 = MANIFOLD_SOLID_BREP('',#16);
#16 = CLOSED_SHELL('',(#17,#54,#107,#162,#215,#319,#408));
#17 = ADVANCED_FACE('',(#18),#31,.F.);
#18 = FACE_BOUND('',#19,.T.);
#19 = EDGE_LOOP('',(#20));
#20 = ORIENTED_EDGE('',*,*,#21,.F.);
#21 = EDGE_CURVE('',#22,#22,#24,.T.);
#22 = VERTEX_POINT('',#23);
#23 = CARTESIAN_POINT('',(3.2,0.,0.));
#24 = SURFACE_CURVE('',#25,(#30,#42),.PCURVE_S1.);
#25 = CIRCLE('',#26,3.2);
#26 = AXIS2_PLACEMENT_3D('',#27,#28,#29);
#27 = CARTESIAN_POINT('',(0.,0.,0.));
#28 = DIRECTION('',(-0.,1.,0.));
#29 = DIRECTION('',(1.,0.,0.));
#30 = PCURVE('',#31,#36);
#31 = PLANE('',#32);
#32 = AXIS2_PLACEMENT_3D('',#33,#34,#35);
#33 = CARTESIAN_POINT('',(0.,0.,0.));
#34 = DIRECTION('',(0.,1.,0.));
#35 = DIRECTION('',(1.,-0.,0.));
#36 = DEFINITIONAL_REPRESENTATION('',(#37),#41);
#37 = CIRCLE('',#38,3.2);
#38 = AXIS2_PLACEMENT_2D('',#39,#40);
#39 = CARTESIAN_POINT('',(0.,0.));
#40 = DIRECTION('',(1.,-0.));
#41 = ( GEOMETRIC_REPRESENTATION_CONTEXT(2) 
PARAMETRIC_REPRESENTATION_CONTEXT() REPRESENTATION_CONTEXT('2D SPACE',''
  ) );
#42 = PCURVE('',#43,#48);
#43 = CONICAL_SURFACE('',#44,4.,0.785398163397);
#44 = AXIS2_PLACEMENT_3D('',#45,#46,#47);
#45 = CARTESIAN_POINT('',(0.,0.8,0.));
#46 = DIRECTION('',(-0.,1.,0.));
#47 = DIRECTION('',(1.,0.,0.));
#48 = DEFINITIONAL_REPRESENTATION('',(#49),#53);
#49 = LINE('',#50,#51);
#50 = CARTESIAN_POINT('',(0.,-0.8));
#51 = VECTOR('',#52,1.);
#52 = DIRECTION('',(1.,0.));
#53 = ( GEOMETRIC_REPRESENTATION_CONTEXT(2) 
PARAMETRIC_REPRESENTATION_CONTEXT() REPRESENTATION_CONTEXT('2D SPACE',''
  ) );
#54 = ADVANCED_FACE('',(#55),#43,.T.);
#55 = FACE_BOUND('',#56,.T.);
#56 = EDGE_LOOP('',(#57,#78,#79,#80));
#57 = ORIENTED_EDGE('',*,*,#58,.F.);
#58 = EDGE_CURVE('',#22,#59,#61,.T.);
#59 = VERTEX_POINT('',#60);
#60 = CARTESIAN_POINT('',(4.,0.8,0.));
#61 = SEAM_CURVE('',#62,(#66,#72),.PCURVE_S1.);
#62 = LINE('',#63,#64);
#63 = CARTESIAN_POINT('',(4.,0.8,0.));
#64 = VECTOR('',#65,1.);
#65 = DIRECTION('',(0.707106781187,0.707106781187,0.));
#66 = PCURVE('',#43,#67);
#67 = DEFINITIONAL_REPRESENTATION('',(#68),#71);
#68 = B_SPLINE_CURVE_WITH_KNOTS('',1,(#69,#70),.UNSPECIFIED.,.F.,.F.,(2,
    2),(-1.131370849898,0.),.PIECEWISE_BEZIER_KNOTS.);
#69 = CARTESIAN_POINT('',(0.,-0.8));
#70 = CARTESIAN_POINT('',(0.,0.));
#71 = ( GEOMETRIC_REPRESENTATION_CONTEXT(2) 
PARAMETRIC_REPRESENTATION_CONTEXT() REPRESENTATION_CONTEXT('2D SPACE',''
  ) );
#72 = PCURVE('',#43,#73);
#73 = DEFINITIONAL_REPRESENTATION('',(#74),#77);
#74 = B_SPLINE_CURVE_WITH_KNOTS('',1,(#75,#76),.UNSPECIFIED.,.F.,.F.,(2,
    2),(-1.131370849898,0.),.PIECEWISE_BEZIER_KNOTS.);
#75 = CARTESIAN_POINT('',(6.28318530718,-0.8));
#76 = CARTESIAN_POINT('',(6.28318530718,0.));
#77 = ( GEOMETRIC_REPRESENTATION_CONTEXT(2) 
PARAMETRIC_REPRESENTATION_CONTEXT() REPRESENTATION_CONTEXT('2D SPACE',''
  ) );
#78 = ORIENTED_EDGE('',*,*,#21,.T.);
#79 = ORIENTED_EDGE('',*,*,#58,.T.);
#80 = ORIENTED_EDGE('',*,*,#81,.F.);
#81 = EDGE_CURVE('',#59,#59,#82,.T.);
#82 = SURFACE_CURVE('',#83,(#88,#95),.PCURVE_S1.);
#83 = CIRCLE('',#84,4.);
#84 = AXIS2_PLACEMENT_3D('',#85,#86,#87);
#85 = CARTESIAN_POINT('',(0.,0.8,0.));
#86 = DIRECTION('',(-0.,1.,0.));
#87 = DIRECTION('',(1.,0.,0.));
#88 = PCURVE('',#43,#89);
#89 = DEFINITIONAL_REPRESENTATION('',(#90),#94);
#90 = LINE('',#91,#92);
#91 = CARTESIAN_POINT('',(0.,0.));
#92 = VECTOR('',#93,1.);
#93 = DIRECTION('',(1.,0.));
#94 = ( GEOMETRIC_REPRESENTATION_CONTEXT(2) 
PARAMETRIC_REPRESENTATION_CONTEXT() REPRESENTATION_CONTEXT('2D SPACE',''
  ) );
#95 = PCURVE('',#96,#101);
#96 = CYLINDRICAL_SURFACE('',#97,4.);
#97 = AXIS2_PLACEMENT_3D('',#98,#99,#100);
#98 = CARTESIAN_POINT('',(0.,0.,0.));
#99 = DIRECTION('',(0.,1.,0.));
#100 = DIRECTION('',(1.,0.,0.));
#101 = DEFINITIONAL_REPRESENTATION('',(#102),#106);
#102 = LINE('',#103,#104);
#103 = CARTESIAN_POINT('',(0.,0.8));
#104 = VECTOR('',#105,1.);
#105 = DIRECTION('',(1.,0.));
#106 = ( GEOMETRIC_REPRESENTATION_CONTEXT(2) 
PARAMETRIC_REPRESENTATION_CONTEXT() REPRESENTATION_CONTEXT('2D SPACE',''
  ) );
#107 = ADVANCED_FACE('',(#108),#96,.T.);
#108 = FACE_BOUND('',#109,.T.);
#109 = EDGE_LOOP('',(#110,#133,#134,#135));
#110 = ORIENTED_EDGE('',*,*,#111,.F.);
#111 = EDGE_CURVE('',#59,#112,#114,.T.);
#112 = VERTEX_POINT('',#113);
#113 = CARTESIAN_POINT('',(4.,35.38,0.));
#114 = SEAM_CURVE('',#115,(#119,#126),.PCURVE_S1.);
#115 = LINE('',#116,#117);
#116 = CARTESIAN_POINT('',(4.,0.,0.));
#117 = VECTOR('',#118,1.);
#118 = DIRECTION('',(0.,1.,0.));
#119 = PCURVE('',#96,#120);
#120 = DEFINITIONAL_REPRESENTATION('',(#121),#125);
#121 = LINE('',#122,#123);
#122 = CARTESIAN_POINT('',(0.,0.));
#123 = VECTOR('',#124,1.);
#124 = DIRECTION('',(0.,1.));
#125 = ( GEOMETRIC_REPRESENTATION_CONTEXT(2) 
PARAMETRIC_REPRESENTATION_CONTEXT() REPRESENTATION_CONTEXT('2D SPACE',''
  ) );
#126 = PCURVE('',#96,#127);
#127 = DEFINITIONAL_REPRESENTATION('',(#128),#132);
#128 = LINE('',#129,#130);
#129 = CARTESIAN_POINT('',(6.28318530718,0.));
#130 = VECTOR('',#131,1.);
#131 = DIRECTION('',(0.,1.));
#132 = ( GEOMETRIC_REPRESENTATION_CONTEXT(2) 
PARAMETRIC_REPRESENTATION_CONTEXT() REPRESENTATION_CONTEXT('2D SPACE',''
  ) );
#133 = ORIENTED_EDGE('',*,*,#81,.T.);
#134 = ORIENTED_EDGE('',*,*,#111,.T.);
#135 = ORIENTED_EDGE('',*,*,#136,.F.);
#136 = EDGE_CURVE('',#112,#112,#137,.T.);
#137 = SURFACE_CURVE('',#138,(#143,#150),.PCURVE_S1.);
#138 = CIRCLE('',#139,4.);
#139 = AXIS2_PLACEMENT_3D('',#140,#141,#142);
#140 = CARTESIAN_POINT('',(0.,35.38,0.));
#141 = DIRECTION('',(-0.,1.,0.));
#142 = DIRECTION('',(1.,0.,0.));
#143 = PCURVE('',#96,#144);
#144 = DEFINITIONAL_REPRESENTATION('',(#145),#149);
#145 = LINE('',#146,#147);
#146 = CARTESIAN_POINT('',(0.,35.38));
#147 = VECTOR('',#148,1.);
#148 = DIRECTION('',(1.,0.));
#149 = ( GEOMETRIC_REPRESENTATION_CONTEXT(2) 
PARAMETRIC_REPRESENTATION_CONTEXT() REPRESENTATION_CONTEXT('2D SPACE',''
  ) );
#150 = PCURVE('',#151,#156);
#151 = CONICAL_SURFACE('',#152,4.,0.785398163397);
#152 = AXIS2_PLACEMENT_3D('',#153,#154,#155);
#153 = CARTESIAN_POINT('',(0.,35.38,0.));
#154 = DIRECTION('',(-0.,1.,-0.));
#155 = DIRECTION('',(1.,0.,0.));
#156 = DEFINITIONAL_REPRESENTATION('',(#157),#161);
#157 = LINE('',#158,#159);
#158 = CARTESIAN_POINT('',(0.,0.));
#159 = VECTOR('',#160,1.);
#160 = DIRECTION('',(1.,0.));
#161 = ( GEOMETRIC_REPRESENTATION_CONTEXT(2) 
PARAMETRIC_REPRESENTATION_CONTEXT() REPRESENTATION_CONTEXT('2D SPACE',''
  ) );
#162 = ADVANCED_FACE('',(#163),#151,.T.);
#163 = FACE_BOUND('',#164,.T.);
#164 = EDGE_LOOP('',(#165,#186,#187,#188));
#165 = ORIENTED_EDGE('',*,*,#166,.F.);
#166 = EDGE_CURVE('',#112,#167,#169,.T.);
#167 = VERTEX_POINT('',#168);
#168 = CARTESIAN_POINT('',(4.8,36.18,0.));
#169 = SEAM_CURVE('',#170,(#174,#180),.PCURVE_S1.);
#170 = LINE('',#171,#172);
#171 = CARTESIAN_POINT('',(4.,35.38,0.));
#172 = VECTOR('',#173,1.);
#173 = DIRECTION('',(0.707106781187,0.707106781187,0.));
#174 = PCURVE('',#151,#175);
#175 = DEFINITIONAL_REPRESENTATION('',(#176),#179);
#176 = B_SPLINE_CURVE_WITH_KNOTS('',1,(#177,#178),.UNSPECIFIED.,.F.,.F.,
  (2,2),(0.,1.131370849898),.PIECEWISE_BEZIER_KNOTS.);
#177 = CARTESIAN_POINT('',(0.,0.));
#178 = CARTESIAN_POINT('',(0.,0.8));
#179 = ( GEOMETRIC_REPRESENTATION_CONTEXT(2) 
PARAMETRIC_REPRESENTATION_CONTEXT() REPRESENTATION_CONTEXT('2D SPACE',''
  ) );
#180 = PCURVE('',#151,#181);
#181 = DEFINITIONAL_REPRESENTATION('',(#182),#185);
#182 = B_SPLINE_CURVE_WITH_KNOTS('',1,(#183,#184),.UNSPECIFIED.,.F.,.F.,
  (2,2),(0.,1.131370849898),.PIECEWISE_BEZIER_KNOTS.);
#183 = CARTESIAN_POINT('',(6.28318530718,0.));
#184 = CARTESIAN_POINT('',(6.28318530718,0.8));
#185 = ( GEOMETRIC_REPRESENTATION_CONTEXT(2) 
PARAMETRIC_REPRESENTATION_CONTEXT() REPRESENTATION_CONTEXT('2D SPACE',''
  ) );
#186 = ORIENTED_EDGE('',*,*,#136,.T.);
#187 = ORIENTED_EDGE('',*,*,#166,.T.);
#188 = ORIENTED_EDGE('',*,*,#189,.F.);
#189 = EDGE_CURVE('',#167,#167,#190,.T.);
#190 = SURFACE_CURVE('',#191,(#196,#203),.PCURVE_S1.);
#191 = CIRCLE('',#192,4.8);
#192 = AXIS2_PLACEMENT_3D('',#193,#194,#195);
#193 = CARTESIAN_POINT('',(0.,36.18,0.));
#194 = DIRECTION('',(-0.,1.,0.));
#195 = DIRECTION('',(1.,0.,0.));
#196 = PCURVE('',#151,#197);
#197 = DEFINITIONAL_REPRESENTATION('',(#198),#202);
#198 = LINE('',#199,#200);
#199 = CARTESIAN_POINT('',(0.,0.8));
#200 = VECTOR('',#201,1.);
#201 = DIRECTION('',(1.,0.));
#202 = ( GEOMETRIC_REPRESENTATION_CONTEXT(2) 
PARAMETRIC_REPRESENTATION_CONTEXT() REPRESENTATION_CONTEXT('2D SPACE',''
  ) );
#203 = PCURVE('',#204,#209);
#204 = PLANE('',#205);
#205 = AXIS2_PLACEMENT_3D('',#206,#207,#208);
#206 = CARTESIAN_POINT('',(0.,36.18,0.));
#207 = DIRECTION('',(0.,1.,0.));
#208 = DIRECTION('',(1.,0.,0.));
#209 = DEFINITIONAL_REPRESENTATION('',(#210),#214);
#210 = CIRCLE('',#211,4.8);
#211 = AXIS2_PLACEMENT_2D('',#212,#213);
#212 = CARTESIAN_POINT('',(0.,0.));
#213 = DIRECTION('',(1.,-0.));
#214 = ( GEOMETRIC_REPRESENTATION_CONTEXT(2) 
PARAMETRIC_REPRESENTATION_CONTEXT() REPRESENTATION_CONTEXT('2D SPACE',''
  ) );
#215 = ADVANCED_FACE('',(#216,#316),#204,.F.);
#216 = FACE_BOUND('',#217,.T.);
#217 = EDGE_LOOP('',(#218));
#218 = ORIENTED_EDGE('',*,*,#219,.F.);
#219 = EDGE_CURVE('',#220,#220,#222,.T.);
#220 = VERTEX_POINT('',#221);
#221 = CARTESIAN_POINT('',(5.6,36.18,0.));
#222 = SURFACE_CURVE('',#223,(#244,#268),.PCURVE_S1.);
#223 = B_SPLINE_CURVE_WITH_KNOTS('',10,(#224,#225,#226,#227,#228,#229,
    #230,#231,#232,#233,#234,#235,#236,#237,#238,#239,#240,#241,#242,
    #243),.UNSPECIFIED.,.T.,.F.,(11,9,11),(1.024897647104E-15,
    20.106192982975,40.212385965949),.UNSPECIFIED.);
#224 = CARTESIAN_POINT('',(5.6,36.18,0.));
#225 = CARTESIAN_POINT('',(5.6,36.180000000001,-1.733842491129));
#226 = CARTESIAN_POINT('',(5.003444432402,36.179999999995,
    -3.493973653987));
#227 = CARTESIAN_POINT('',(3.780579767423,36.18000000001,-5.03347540064)
  );
#228 = CARTESIAN_POINT('',(2.027420056257,36.179999999986,
    -6.082248582791));
#229 = CARTESIAN_POINT('',(-1.448936624009E-03,36.180000000014,
    -6.439586536526));
#230 = CARTESIAN_POINT('',(-2.02272614575,36.179999999991,
    -6.073663306413));
#231 = CARTESIAN_POINT('',(-3.75798458234,36.180000000004,
    -5.036379292141));
#232 = CARTESIAN_POINT('',(-4.985835793899,36.179999999999,
    -3.518636710114));
#233 = CARTESIAN_POINT('',(-5.6,36.18,-1.75929188601));
#234 = CARTESIAN_POINT('',(-5.6,36.18,1.75929188601));
#235 = CARTESIAN_POINT('',(-4.985835793899,36.179999999999,
    3.518636710114));
#236 = CARTESIAN_POINT('',(-3.75798458234,36.180000000002,5.03637929214)
  );
#237 = CARTESIAN_POINT('',(-2.022726145751,36.179999999996,
    6.073663306416));
#238 = CARTESIAN_POINT('',(-1.448936622725E-03,36.180000000004,
    6.439586536522));
#239 = CARTESIAN_POINT('',(2.027420056256,36.179999999997,6.082248582795
    ));
#240 = CARTESIAN_POINT('',(3.780579767424,36.180000000001,5.033475400637
    ));
#241 = CARTESIAN_POINT('',(5.003444432401,36.18,3.493973653988));
#242 = CARTESIAN_POINT('',(5.6,36.18,1.733842491129));
#243 = CARTESIAN_POINT('',(5.6,36.18,0.));
#244 = PCURVE('',#204,#245);
#245 = DEFINITIONAL_REPRESENTATION('',(#246),#267);
#246 = B_SPLINE_CURVE_WITH_KNOTS('',10,(#247,#248,#249,#250,#251,#252,
    #253,#254,#255,#256,#257,#258,#259,#260,#261,#262,#263,#264,#265,
    #266),.UNSPECIFIED.,.F.,.F.,(11,9,11),(1.024897647104E-15,
    20.106192982975,40.212385965949),.UNSPECIFIED.);
#247 = CARTESIAN_POINT('',(5.6,-8.881784197001E-16));
#248 = CARTESIAN_POINT('',(5.6,1.733842491129));
#249 = CARTESIAN_POINT('',(5.003444432402,3.493973653987));
#250 = CARTESIAN_POINT('',(3.780579767423,5.03347540064));
#251 = CARTESIAN_POINT('',(2.027420056257,6.082248582791));
#252 = CARTESIAN_POINT('',(-1.448936624009E-03,6.439586536526));
#253 = CARTESIAN_POINT('',(-2.02272614575,6.073663306413));
#254 = CARTESIAN_POINT('',(-3.75798458234,5.036379292141));
#255 = CARTESIAN_POINT('',(-4.985835793899,3.518636710114));
#256 = CARTESIAN_POINT('',(-5.6,1.75929188601));
#257 = CARTESIAN_POINT('',(-5.6,-1.75929188601));
#258 = CARTESIAN_POINT('',(-4.985835793899,-3.518636710114));
#259 = CARTESIAN_POINT('',(-3.75798458234,-5.03637929214));
#260 = CARTESIAN_POINT('',(-2.022726145751,-6.073663306416));
#261 = CARTESIAN_POINT('',(-1.448936622725E-03,-6.439586536522));
#262 = CARTESIAN_POINT('',(2.027420056256,-6.082248582795));
#263 = CARTESIAN_POINT('',(3.780579767424,-5.033475400637));
#264 = CARTESIAN_POINT('',(5.003444432401,-3.493973653988));
#265 = CARTESIAN_POINT('',(5.6,-1.733842491129));
#266 = CARTESIAN_POINT('',(5.6,-1.42108547152E-14));
#267 = ( GEOMETRIC_REPRESENTATION_CONTEXT(2) 
PARAMETRIC_REPRESENTATION_CONTEXT() REPRESENTATION_CONTEXT('2D SPACE',''
  ) );
#268 = PCURVE('',#269,#310);
#269 = B_SPLINE_SURFACE_WITH_KNOTS('',1,10,(
    (#270,#271,#272,#273,#274,#275,#276,#277,#278,#279,#280,#281,#282
      ,#283,#284,#285,#286,#287,#288,#289)
    ,(#290,#291,#292,#293,#294,#295,#296,#297,#298,#299,#300,#301,#302
      ,#303,#304,#305,#306,#307,#308,#309
    )),.UNSPECIFIED.,.F.,.T.,.F.,(2,2),(11,9,11),(0.,40.212385965949),(
    1.024897647104E-15,20.106192982975,40.212385965949),.UNSPECIFIED.);
#270 = CARTESIAN_POINT('',(5.6,36.18,0.));
#271 = CARTESIAN_POINT('',(5.6,36.180000000001,-1.733842491129));
#272 = CARTESIAN_POINT('',(5.003444432402,36.179999999995,
    -3.493973653987));
#273 = CARTESIAN_POINT('',(3.780579767423,36.18000000001,-5.03347540064)
  );
#274 = CARTESIAN_POINT('',(2.027420056257,36.179999999986,
    -6.082248582791));
#275 = CARTESIAN_POINT('',(-1.448936624009E-03,36.180000000014,
    -6.439586536526));
#276 = CARTESIAN_POINT('',(-2.02272614575,36.179999999991,
    -6.073663306413));
#277 = CARTESIAN_POINT('',(-3.75798458234,36.180000000004,
    -5.036379292141));
#278 = CARTESIAN_POINT('',(-4.985835793899,36.179999999999,
    -3.518636710114));
#279 = CARTESIAN_POINT('',(-5.6,36.18,-1.75929188601));
#280 = CARTESIAN_POINT('',(-5.6,36.18,1.75929188601));
#281 = CARTESIAN_POINT('',(-4.985835793899,36.179999999999,
    3.518636710114));
#282 = CARTESIAN_POINT('',(-3.75798458234,36.180000000002,5.03637929214)
  );
#283 = CARTESIAN_POINT('',(-2.022726145751,36.179999999996,
    6.073663306416));
#284 = CARTESIAN_POINT('',(-1.448936622725E-03,36.180000000004,
    6.439586536522));
#285 = CARTESIAN_POINT('',(2.027420056256,36.179999999997,6.082248582795
    ));
#286 = CARTESIAN_POINT('',(3.780579767424,36.180000000001,5.033475400637
    ));
#287 = CARTESIAN_POINT('',(5.003444432401,36.18,3.493973653988));
#288 = CARTESIAN_POINT('',(5.6,36.18,1.733842491129));
#289 = CARTESIAN_POINT('',(5.6,36.18,0.));
#290 = CARTESIAN_POINT('',(6.284020788396,36.971548370269,0.));
#291 = CARTESIAN_POINT('',(6.284020788396,36.971548370271,
    -1.945625403225));
#292 = CARTESIAN_POINT('',(5.614598004785,36.971548370261,
    -3.920750549244));
#293 = CARTESIAN_POINT('',(4.242364616193,36.971548370287,
    -5.648297152768));
#294 = CARTESIAN_POINT('',(2.275062460774,36.971548370244,
    -6.825174381153));
#295 = CARTESIAN_POINT('',(-1.625919261882E-03,36.971548370296,
    -7.226159940037));
#296 = CARTESIAN_POINT('',(-2.269795205201,36.971548370248,
    -6.815540442718));
#297 = CARTESIAN_POINT('',(-4.217009506768,36.971548370281,
    -5.651555744654));
#298 = CARTESIAN_POINT('',(-5.594838531499,36.971548370265,
    -3.948426113066));
#299 = CARTESIAN_POINT('',(-6.284020788396,36.97154837027,
    -1.974183354383));
#300 = CARTESIAN_POINT('',(-6.284020788396,36.971548370269,
    1.974183354383));
#301 = CARTESIAN_POINT('',(-5.594838531499,36.971548370268,
    3.948426113066));
#302 = CARTESIAN_POINT('',(-4.217009506768,36.971548370272,
    5.651555744653));
#303 = CARTESIAN_POINT('',(-2.269795205201,36.971548370263,
    6.815540442721));
#304 = CARTESIAN_POINT('',(-1.625919262579E-03,36.971548370276,
    7.226159940033));
#305 = CARTESIAN_POINT('',(2.275062460774,36.971548370263,6.825174381156
    ));
#306 = CARTESIAN_POINT('',(4.242364616192,36.971548370273,5.648297152765
    ));
#307 = CARTESIAN_POINT('',(5.614598004786,36.971548370268,3.920750549245
    ));
#308 = CARTESIAN_POINT('',(6.284020788396,36.971548370269,1.945625403225
    ));
#309 = CARTESIAN_POINT('',(6.284020788396,36.971548370269,
    1.539141188857E-15));
#310 = DEFINITIONAL_REPRESENTATION('',(#311),#315);
#311 = LINE('',#312,#313);
#312 = CARTESIAN_POINT('',(0.,0.));
#313 = VECTOR('',#314,1.);
#314 = DIRECTION('',(0.,1.));
#315 = ( GEOMETRIC_REPRESENTATION_CONTEXT(2) 
PARAMETRIC_REPRESENTATION_CONTEXT() REPRESENTATION_CONTEXT('2D SPACE',''
  ) );
#316 = FACE_BOUND('',#317,.T.);
#317 = EDGE_LOOP('',(#318));
#318 = ORIENTED_EDGE('',*,*,#189,.T.);
#319 = ADVANCED_FACE('',(#320),#269,.F.);
#320 = FACE_BOUND('',#321,.F.);
#321 = EDGE_LOOP('',(#322,#342,#406,#407));
#322 = ORIENTED_EDGE('',*,*,#323,.T.);
#323 = EDGE_CURVE('',#220,#324,#326,.T.);
#324 = VERTEX_POINT('',#325);
#325 = CARTESIAN_POINT('',(6.284020788396,36.971548370269,0.));
#326 = SEAM_CURVE('',#327,(#330,#336),.PCURVE_S1.);
#327 = B_SPLINE_CURVE_WITH_KNOTS('',1,(#328,#329),.UNSPECIFIED.,.F.,.F.,
  (2,2),(0.,40.212385965949),.PIECEWISE_BEZIER_KNOTS.);
#328 = CARTESIAN_POINT('',(5.6,36.18,0.));
#329 = CARTESIAN_POINT('',(6.284020788396,36.971548370269,0.));
#330 = PCURVE('',#269,#331);
#331 = DEFINITIONAL_REPRESENTATION('',(#332),#335);
#332 = B_SPLINE_CURVE_WITH_KNOTS('',1,(#333,#334),.UNSPECIFIED.,.F.,.F.,
  (2,2),(0.,40.212385965949),.PIECEWISE_BEZIER_KNOTS.);
#333 = CARTESIAN_POINT('',(0.,1.024897647104E-15));
#334 = CARTESIAN_POINT('',(40.212385965949,1.024897647104E-15));
#335 = ( GEOMETRIC_REPRESENTATION_CONTEXT(2) 
PARAMETRIC_REPRESENTATION_CONTEXT() REPRESENTATION_CONTEXT('2D SPACE',''
  ) );
#336 = PCURVE('',#269,#337);
#337 = DEFINITIONAL_REPRESENTATION('',(#338),#341);
#338 = B_SPLINE_CURVE_WITH_KNOTS('',1,(#339,#340),.UNSPECIFIED.,.F.,.F.,
  (2,2),(0.,40.212385965949),.PIECEWISE_BEZIER_KNOTS.);
#339 = CARTESIAN_POINT('',(0.,40.212385965949));
#340 = CARTESIAN_POINT('',(40.212385965949,40.212385965949));
#341 = ( GEOMETRIC_REPRESENTATION_CONTEXT(2) 
PARAMETRIC_REPRESENTATION_CONTEXT() REPRESENTATION_CONTEXT('2D SPACE',''
  ) );
#342 = ORIENTED_EDGE('',*,*,#343,.T.);
#343 = EDGE_CURVE('',#324,#324,#344,.T.);
#344 = SURFACE_CURVE('',#345,(#366,#373),.PCURVE_S1.);
#345 = B_SPLINE_CURVE_WITH_KNOTS('',10,(#346,#347,#348,#349,#350,#351,
    #352,#353,#354,#355,#356,#357,#358,#359,#360,#361,#362,#363,#364,
    #365),.UNSPECIFIED.,.T.,.F.,(11,9,11),(1.024897647104E-15,
    20.106192982975,40.212385965949),.UNSPECIFIED.);
#346 = CARTESIAN_POINT('',(6.284020788396,36.971548370269,0.));
#347 = CARTESIAN_POINT('',(6.284020788396,36.971548370271,
    -1.945625403225));
#348 = CARTESIAN_POINT('',(5.614598004785,36.971548370261,
    -3.920750549244));
#349 = CARTESIAN_POINT('',(4.242364616193,36.971548370287,
    -5.648297152768));
#350 = CARTESIAN_POINT('',(2.275062460774,36.971548370244,
    -6.825174381153));
#351 = CARTESIAN_POINT('',(-1.625919261882E-03,36.971548370296,
    -7.226159940037));
#352 = CARTESIAN_POINT('',(-2.269795205201,36.971548370248,
    -6.815540442718));
#353 = CARTESIAN_POINT('',(-4.217009506768,36.971548370281,
    -5.651555744654));
#354 = CARTESIAN_POINT('',(-5.594838531499,36.971548370265,
    -3.948426113066));
#355 = CARTESIAN_POINT('',(-6.284020788396,36.97154837027,
    -1.974183354383));
#356 = CARTESIAN_POINT('',(-6.284020788396,36.971548370269,
    1.974183354383));
#357 = CARTESIAN_POINT('',(-5.594838531499,36.971548370268,
    3.948426113066));
#358 = CARTESIAN_POINT('',(-4.217009506768,36.971548370272,
    5.651555744653));
#359 = CARTESIAN_POINT('',(-2.269795205201,36.971548370263,
    6.815540442721));
#360 = CARTESIAN_POINT('',(-1.625919262579E-03,36.971548370276,
    7.226159940033));
#361 = CARTESIAN_POINT('',(2.275062460774,36.971548370263,6.825174381156
    ));
#362 = CARTESIAN_POINT('',(4.242364616192,36.971548370273,5.648297152765
    ));
#363 = CARTESIAN_POINT('',(5.614598004786,36.971548370268,3.920750549245
    ));
#364 = CARTESIAN_POINT('',(6.284020788396,36.971548370269,1.945625403225
    ));
#365 = CARTESIAN_POINT('',(6.284020788396,36.971548370269,
    1.539141188857E-15));
#366 = PCURVE('',#269,#367);
#367 = DEFINITIONAL_REPRESENTATION('',(#368),#372);
#368 = LINE('',#369,#370);
#369 = CARTESIAN_POINT('',(40.212385965949,0.));
#370 = VECTOR('',#371,1.);
#371 = DIRECTION('',(0.,1.));
#372 = ( GEOMETRIC_REPRESENTATION_CONTEXT(2) 
PARAMETRIC_REPRESENTATION_CONTEXT() REPRESENTATION_CONTEXT('2D SPACE',''
  ) );
#373 = PCURVE('',#374,#383);
#374 = SURFACE_OF_REVOLUTION('',#375,#380);
#375 = CIRCLE('',#376,5.673473972882);
#376 = AXIS2_PLACEMENT_3D('',#377,#378,#379);
#377 = CARTESIAN_POINT('',(0.742443169399,35.755314670029,0.));
#378 = DIRECTION('',(0.,0.,1.));
#379 = DIRECTION('',(0.997194462801,7.48545480248E-02,-0.));
#380 = AXIS1_PLACEMENT('',#381,#382);
#381 = CARTESIAN_POINT('',(0.,0.,0.));
#382 = DIRECTION('',(0.,1.,0.));
#383 = DEFINITIONAL_REPRESENTATION('',(#384),#405);
#384 = B_SPLINE_CURVE_WITH_KNOTS('',10,(#385,#386,#387,#388,#389,#390,
    #391,#392,#393,#394,#395,#396,#397,#398,#399,#400,#401,#402,#403,
    #404),.UNSPECIFIED.,.F.,.F.,(11,9,11),(1.024897647104E-15,
    20.106192982975,40.212385965949),.UNSPECIFIED.);
#385 = CARTESIAN_POINT('',(-2.22044604925E-16,0.141124160838));
#386 = CARTESIAN_POINT('',(0.309614730559,0.141124160838));
#387 = CARTESIAN_POINT('',(0.623927920448,0.141124160838));
#388 = CARTESIAN_POINT('',(0.940039634481,0.141124160838));
#389 = CARTESIAN_POINT('',(1.255847197981,0.141124160838));
#390 = CARTESIAN_POINT('',(1.570654404398,0.141124160838));
#391 = CARTESIAN_POINT('',(1.884959666761,0.141124160838));
#392 = CARTESIAN_POINT('',(2.199113516778,0.141124160838));
#393 = CARTESIAN_POINT('',(2.513274349252,0.141124160838));
#394 = CARTESIAN_POINT('',(2.827433388231,0.141124160838));
#395 = CARTESIAN_POINT('',(3.455751918949,0.141124160838));
#396 = CARTESIAN_POINT('',(3.769910957927,0.141124160838));
#397 = CARTESIAN_POINT('',(4.084071790401,0.141124160838));
#398 = CARTESIAN_POINT('',(4.398225640419,0.141124160837));
#399 = CARTESIAN_POINT('',(4.712530902781,0.141124160838));
#400 = CARTESIAN_POINT('',(5.027338109199,0.141124160837));
#401 = CARTESIAN_POINT('',(5.343145672699,0.141124160838));
#402 = CARTESIAN_POINT('',(5.659257386732,0.141124160838));
#403 = CARTESIAN_POINT('',(5.973570576621,0.141124160838));
#404 = CARTESIAN_POINT('',(6.28318530718,0.141124160838));
#405 = ( GEOMETRIC_REPRESENTATION_CONTEXT(2) 
PARAMETRIC_REPRESENTATION_CONTEXT() REPRESENTATION_CONTEXT('2D SPACE',''
  ) );
#406 = ORIENTED_EDGE('',*,*,#323,.F.);
#407 = ORIENTED_EDGE('',*,*,#219,.F.);
#408 = ADVANCED_FACE('',(#409),#374,.T.);
#409 = FACE_BOUND('',#410,.T.);
#410 = EDGE_LOOP('',(#411,#435,#436));
#411 = ORIENTED_EDGE('',*,*,#412,.F.);
#412 = EDGE_CURVE('',#324,#413,#415,.T.);
#413 = VERTEX_POINT('',#414);
#414 = CARTESIAN_POINT('',(7.771561172376E-16,41.38,0.));
#415 = SEAM_CURVE('',#416,(#421,#428),.PCURVE_S1.);
#416 = CIRCLE('',#417,5.673473972882);
#417 = AXIS2_PLACEMENT_3D('',#418,#419,#420);
#418 = CARTESIAN_POINT('',(0.742443169399,35.755314670029,0.));
#419 = DIRECTION('',(0.,0.,1.));
#420 = DIRECTION('',(0.997194462801,7.48545480248E-02,-0.));
#421 = PCURVE('',#374,#422);
#422 = DEFINITIONAL_REPRESENTATION('',(#423),#427);
#423 = LINE('',#424,#425);
#424 = CARTESIAN_POINT('',(0.,0.));
#425 = VECTOR('',#426,1.);
#426 = DIRECTION('',(0.,1.));
#427 = ( GEOMETRIC_REPRESENTATION_CONTEXT(2) 
PARAMETRIC_REPRESENTATION_CONTEXT() REPRESENTATION_CONTEXT('2D SPACE',''
  ) );
#428 = PCURVE('',#374,#429);
#429 = DEFINITIONAL_REPRESENTATION('',(#430),#434);
#430 = LINE('',#431,#432);
#431 = CARTESIAN_POINT('',(6.28318530718,0.));
#432 = VECTOR('',#433,1.);
#433 = DIRECTION('',(0.,1.));
#434 = ( GEOMETRIC_REPRESENTATION_CONTEXT(2) 
PARAMETRIC_REPRESENTATION_CONTEXT() REPRESENTATION_CONTEXT('2D SPACE',''
  ) );
#435 = ORIENTED_EDGE('',*,*,#343,.T.);
#436 = ORIENTED_EDGE('',*,*,#412,.T.);
#437 = ( GEOMETRIC_REPRESENTATION_CONTEXT(3) 
GLOBAL_UNCERTAINTY_ASSIGNED_CONTEXT((#441)) GLOBAL_UNIT_ASSIGNED_CONTEXT
((#438,#439,#440)) REPRESENTATION_CONTEXT('Context #1',
  '3D Context with UNIT and UNCERTAINTY') );
#438 = ( LENGTH_UNIT() NAMED_UNIT(*) SI_UNIT(.MILLI.,.METRE.) );
#439 = ( NAMED_UNIT(*) PLANE_ANGLE_UNIT() SI_UNIT($,.RADIAN.) );
#440 = ( NAMED_UNIT(*) SI_UNIT($,.STERADIAN.) SOLID_ANGLE_UNIT() );
#441 = UNCERTAINTY_MEASURE_WITH_UNIT(LENGTH_MEASURE(2.E-06),#438,
  'distance_accuracy_value','confusion accuracy');
#442 = PRODUCT_RELATED_PRODUCT_CATEGORY('part',$,(#7));
ENDSEC;
END-ISO-10303-21;
