$MeshFormat
4.1 0 8
$EndMeshFormat
$Entities
20 30 12 1
1 5.64 9.354759354815 17.449948933049 0 
2 5.64 9.969799110315 17.915099846816 0 
3 5.64 1.439356543202 20.42815061436 0 
4 5.64 5.656861997937 23.617824937916 0 
5 16.246288692278 4.726997326757 13.95 0 
6 52.152 7.12880515584 15.766472994467 0 
7 70.23999999999999 0 10.375 0 
8 52.152 -7.12880515584 4.983527005533 0 
9 16.328969213402 -9.316907449779 3.32867823789 0 
10 18.8 -4.604671964794e-15 10.375 0 
11 18.196029684325 4.726997326757 13.95 0 
12 52.152 2.815868043461 21.469198085568 0 
13 7.685863538058 0 19.339573810472 0 
14 70.23999999999999 -4.312937112379 16.0777250911 0 
15 52.152 -11.44174226821 10.686252096633 0 
16 12.712049074776 -13.85076923208 8.86431931341 0 
17 17.397009342039 -7.126293984464 13.95 0 
18 15.346085300395 -7.126293984464 13.95 0 
19 1.5 0 22.95 0 
20 18.8 -4.604671964794e-15 -13.95 0 
1 5.639999899999999 9.354759254816251 17.44994883304734 5.6400001 9.969799210316548 17.91509994681395 0 2 1 -2 
2 5.639999899999999 1.439356443202088 17.44994883304992 5.6400001 9.354759454815463 20.4281507143606 0 2 1 -3 
3 5.639999899999999 1.439356443204788 20.42815051435631 5.6400001 5.656862097939642 23.61782503791251 0 2 3 -4 
4 5.639999899999999 5.656861897937191 17.915099746816 5.6400001 9.969799210314999 23.61782503791615 0 2 2 -4 
5 5.639999900000041 4.726997226754151 13.94999990000316 16.24628879227773 9.354759454812877 17.44994903305208 0 2 5 -1 
6 5.639999899999999 7.128805055839883 15.76647289446756 52.15200010000003 9.969799210314999 17.915099946816 0 2 2 -6 
7 52.1519999 -1.000000877660057e-07 10.37499990000649 70.24000010000189 7.128805255840001 15.766473094467 0 2 6 -7 
8 52.1519998999981 -7.128805255840089 4.983526905539495 70.24000009999999 9.999999983634211e-08 10.3750001 0 2 7 -8 
9 16.32896911340198 -9.316907549779218 3.328678137890468 52.1520001 -7.12880505584 4.983527105533001 0 2 8 -9 
10 16.32896911340248 -9.316907549779899 3.328678137890826 18.8000001 1.000000011686097e-07 10.3750001 0 2 10 -9 
11 18.19602958432491 -9.999999894816369e-08 10.3749999 18.8000001 4.726997426757164 13.95000009999976 0 2 11 -10 
12 16.246288592278 4.726997226757 13.9499999 18.196029784325 4.726997426757 13.9500001 0 2 11 -5 
13 5.639999899999999 2.815867943461882 21.46919798556755 52.15200010000005 5.656862097937 23.617825037916 0 2 4 -12 
14 52.1519999 2.815867943461349 15.766472894467 52.1520001 7.128805255840001 21.46919818556826 0 2 6 -12 
15 5.639999899999928 -1.00001630642943e-07 19.33957371047352 7.685863638057637 1.439356643200768 20.42815071436148 0 2 13 -3 
16 52.1519999 -4.312937212379183 16.07772499110742 70.24000010000213 2.815868143461 21.469198185568 0 2 12 -14 
17 52.15199990000094 -11.44174236821796 10.68625199664035 70.24000009999999 -4.312937012379 16.0777251911 0 2 14 -15 
18 12.71204897477575 -13.85076933207647 8.864319213410571 52.1520001 -11.44174216821 10.686252196633 0 2 15 -16 
19 12.712048974778 -13.85076933208448 8.86431921341304 17.39700944203898 -7.126293884464456 13.9500001000006 0 2 17 -16 
20 15.346085200395 -7.126294084464 13.9499999 17.397009442039 -7.126293884463999 13.9500001 0 2 17 -18 
21 7.685863438057637 -7.126294084466207 13.94999990000204 15.3460854003943 9.999836914076354e-08 19.33957391047353 0 2 18 -13 
22 -16.9200001 -16.9200001 13.9499999 16.24628879227778 16.9200001 13.9500001 0 2 5 -18 
23 1.4999999 -1e-07 19.33957371047198 7.685863638057994 1e-07 22.9500001 0 2 13 -19 
24 -1.5000001 -1.5000001 22.9499999 1.5000001 1.5000001 22.9500001 0 2 19 -19 
25 -18.8000001 -18.8000001 13.9499999 18.19602978432489 18.8000001 13.9500001 0 2 11 -17 
26 18.7999999 -1.00000004604672e-07 -13.9500001 18.8000001 9.999999539532803e-08 10.3750001 0 2 20 -10 
27 -18.8000001 -18.8000001 -13.9500001 18.8000001 18.8000001 -13.9499999 0 2 20 -20 
28 12.71204897477979 -13.85076933208027 3.328678137893586 16.32896931340366 -9.316907349775441 8.86431941341324 0 2 9 -16 
29 52.1519999 -11.44174236821489 4.983526905533 52.1520001 -7.12880505584 10.6862521966293 0 2 8 -15 
30 70.2399999 -4.31293721237817 10.3749999 70.24000009999999 9.999999983634211e-08 16.07772519110063 0 2 7 -14 
1 5.639999899999999 1.439356443202088 17.44994883304734 5.6400001 9.969799210316548 23.61782503791615 0 4 -1 2 3 -4 
2 5.639999899999999 -9.316907549779899 3.328678137890469 70.24000010000189 9.969799210316548 17.915099946816 0 9 5 1 6 7 8 9 -10 -11 12 
3 5.639999899999999 2.815867943461349 15.766472894467 52.15200010000005 9.969799210314999 23.61782503791615 0 4 4 13 -14 -6 
4 5.639999899999928 -13.85076933208448 8.864319213410571 70.24000010000213 5.656862097939642 23.617825037916 0 9 15 3 13 16 17 18 -19 20 21 
5 -16.9200001 -16.9200001 13.9499999 16.9200001 16.9200001 22.9500001 0 8 -5 22 21 23 -24 -23 15 -2 
6 -18.8000001 -18.8000001 13.9499999 18.196029784325 18.8000001 13.9500001 0 4 -12 25 20 -22 
7 -18.8000001 -18.8000001 -13.9500001 18.8000001 18.8000001 13.95000010000222 0 8 -25 11 -26 27 26 10 28 -19 
8 12.71204897477575 -13.85076933208027 3.328678137890468 52.1520001 -7.12880505584 10.686252196633 0 4 -9 29 18 -28 
9 52.1519998999981 -11.44174236821796 4.983526905533 70.24000009999999 1.000000002804313e-07 16.07772519110063 0 4 30 17 -29 -8 
10 52.1519999 -4.312937212379183 10.3749999 70.24000010000213 7.128805255840001 21.46919818556826 0 4 14 16 -30 -7 
11 -1.5000001 -1.5000001 22.9499999 1.5000001 1.5000001 22.9500001 0 1 24 
12 -18.8000001 -18.8000001 -13.9500001 18.8000001 18.8000001 -13.9499999 0 1 27 
1 -18.80000010000001 -18.8000001 -13.9500001 70.24000010000213 18.8000001 23.61782503791615 0 12 1 2 3 -4 5 6 7 8 9 10 11 -12 
$EndEntities
$Nodes
63 410 1 410
0 1 0 1
1
5.64 9.354759354815 17.449948933049
0 2 0 1
2
5.64 9.969799110315 17.915099846816
0 3 0 1
3
5.64 1.439356543202 20.42815061436
0 4 0 1
4
5.64 5.656861997937 23.617824937916
0 5 0 1
5
16.246288692278 4.726997326757 13.95
0 6 0 1
6
52.152 7.12880515584 15.766472994467
0 7 0 1
7
70.23999999999999 0 10.375
0 8 0 1
8
52.152 -7.12880515584 4.983527005533
0 9 0 1
9
16.328969213402 -9.316907449779 3.32867823789
0 10 0 1
10
18.8 -4.604671964794e-15 10.375
0 11 0 1
11
18.196029684325 4.726997326757 13.95
0 12 0 1
12
52.152 2.815868043461 21.469198085568
0 13 0 1
13
7.685863538058 0 19.339573810472
0 14 0 1
14
70.23999999999999 -4.312937112379 16.0777250911
0 15 0 1
15
52.152 -11.44174226821 10.686252096633
0 16 0 1
16
12.712049074776 -13.85076923208 8.86431931341
0 17 0 1
17
17.397009342039 -7.126293984464 13.95
0 18 0 1
18
15.346085300395 -7.126293984464 13.95
0 19 0 1
19
1.5 0 22.95
0 20 0 1
20
18.8 -4.604671964794e-15 -13.95
1 1 0 0
1 2 0 1
21
5.64 4.995354351218036 19.42813229534116
1 3 0 0
1 4 0 0
1 5 0 1
22
11.66228451852969 7.205340190338759 15.82435598644765
1 6 0 4
23
24
25
26
14.94240000000001 9.401600319419977 17.48537447634631
24.24480000000001 8.833401528524954 17.05564910587662
33.54720000000002 8.265202737629929 16.62592373540693
42.84960000000002 7.697003946734906 16.19619836493724
1 7 0 1
27
61.19600000000094 3.564402577919962 13.07073649723675
1 8 0 1
28
61.19599999999906 -3.564402577920038 7.679263502769752
1 9 0 3
29
30
31
42.80500083615418 -7.699728102971276 4.551741371883242
33.45800167230838 -8.270651050102552 4.119955738233484
24.12565266479672 -8.840679152772669 3.688846870134351
1 10 0 1
32
18.18636708978894 -4.764037371331609 6.771986834305376
1 11 0 0
1 12 0 0
1 13 0 4
33
34
35
36
14.94240000000001 5.088663207041976 23.18809956744631
24.24480000000002 4.520464416146952 22.75837419697663
33.54720000000003 3.952265625251929 22.32864882650694
42.84960000000004 3.384066834356905 21.89892345603725
1 14 0 0
1 15 0 1
37
6.63564661162332 0.7756235131831453 19.92617326631405
1 16 0 1
38
61.19600000000107 -0.748534534459091 18.77346158833771
1 17 0 1
39
61.19600000000048 -7.87733969029848 13.38198859387017
1 18 0 3
40
41
42
41.90072111446662 -12.06789941775074 10.21269316379052
31.64944222893326 -12.69405656729147 9.739134230948032
21.39853561999047 -13.32019097784994 9.265592495462769
1 19 0 1
43
15.47478519095297 -10.67572120720075 11.26558927493965
1 20 0 0
1 21 0 1
44
11.48891598423251 -3.2916759695577 16.85009882715782
1 22 0 14
45
46
47
48
49
50
51
52
53
54
55
56
57
58
13.42700760467308 10.29572079963571 13.95
8.780524277023964 14.46336037788566 13.95
2.93915120922466 16.66276658209294 13.95
-3.30219360443524 16.59463519932954 13.95
-9.094162374770018 14.26823782747251 13.95
-13.64856024682631 10.0001601581551 13.95
-16.34560608701939 4.371219697978436 13.95
-16.81827484063878 -1.852574258899364 13.95
-15.00224380594477 -7.824262315834758 13.95
-11.14464593111772 -12.73119268057872 13.95
-5.770438949526393 -15.90561015270363 13.95
0.3890330207392979 -16.91552698879862 13.95
6.495563782667645 -15.62350956556485 13.95
11.71815159591464 -12.20538091069521 13.95
1 23 0 2
59
60
5.105386102007342 0 20.84568904552101
3.153145939987189 0 21.98512882880125
1 24 0 6
61
62
63
64
65
66
0.9352347027881024 1.172747223702043 22.95
-0.3337814009344663 1.462391868272737 22.95
-1.351453301853625 0.6508256086763451 22.95
-1.351453301853633 -0.6508256086763292 22.95
-0.3337814009344771 -1.462391868272734 22.95
0.9352347027880991 -1.172747223702046 22.95
1 25 0 14
67
68
69
70
71
72
73
74
75
76
77
78
79
80
15.18892452282297 11.07865388212787 13.95
10.05946873531352 15.88228852411547 13.95
3.524401922769633 18.46668868765534 13.95
-3.503130081490286 18.47073576315134 13.95
-10.04116921150061 15.89386425215757 13.95
-15.17615431159235 11.09614078455826 13.95
-18.19057316914352 4.747951956163392 13.95
-18.66322060008995 -2.263668887531541 13.95
-16.52805351037036 -8.958986949333843 13.95
-12.08341910703601 -14.40246446562938 13.95
-5.950366799748439 -17.83348353374773 13.95
1.014131123286628 -18.77262736179413 13.95
7.836924357413223 -17.08866924649732 13.95
13.56466301470408 -13.01690889948606 13.95
1 26 0 3
81
82
83
18.8 -4.604671964794e-15 -7.868749999999983
18.8 -4.604671964794e-15 -1.787499999999966
18.8 -4.604671964794e-15 4.293750000000031
1 27 0 15
84
85
86
87
88
89
90
91
92
93
94
95
96
97
98
17.36893521121219 7.194448528463696 -13.95
13.29360748630708 13.29360748630711 -13.95
7.194448528463658 17.3689352112122 -13.95
-4.894209487988856e-14 18.8 -13.95
-7.194448528463741 17.36893521121217 -13.95
-13.29360748630712 13.29360748630707 -13.95
-17.3689352112122 7.194448528463659 -13.95
-18.8 -2.274429545314651e-14 -13.95
-17.36893521121218 -7.194448528463724 -13.95
-13.29360748630706 -13.29360748630713 -13.95
-7.194448528463653 -17.36893521121221 -13.95
2.994200460712918e-14 -18.8 -13.95
7.194448528463723 -17.36893521121218 -13.95
13.2936074863071 -13.29360748630708 -13.95
17.36893521121219 -7.194448528463684 -13.95
1 28 0 1
99
14.76054456614703 -11.64329524278867 6.205589431589974
1 29 0 0
1 30 0 0
2 1 0 0
2 2 0 11
100
101
102
103
104
105
106
107
108
109
110
22.34748411490304 2.676383044171888 12.39913259866973
37.88871326001379 2.144767673576942 11.99707505166862
23.7103785272825 -2.375762610793076 8.57822484941803
46.06826576882217 -0.4583411022870846 10.0283593468731
29.8526877778673 0.9830081872580525 11.11844325298321
16.98191165853138 6.664174207837635 15.41507536838657
54.64207604775616 -0.0238619899127101 10.35695331876854
20.46332649455963 6.580133015044609 15.35151551347944
29.75659718462171 -4.290432292168804 7.130171542475805
37.17990757974325 -3.431192841968451 7.780009234804981
26.21024117268587 4.671969011500007 13.90838241203736
2 3 0 5
111
112
113
114
115
38.1984 5.824634785993126 19.26242359572187
19.5936 6.961032367783323 20.12187433666136
28.896 6.392833576888227 19.69214896619161
10.29119999999999 7.529231158678416 20.55159970713111
47.50079999999999 5.256435995098025 18.83269822525213
2 4 0 15
116
117
118
119
120
121
122
123
124
125
126
127
128
129
130
27.66934786371425 -2.284825064110315 17.61157418627901
16.63210782366482 -2.874018747304792 17.16597050347237
8.733200528983126 1.774475490405403 20.68159908353197
46.84844869351696 -4.461108676025934 15.9656638176486
38.16262010846778 -5.497363001130924 15.18195082689226
26.06598905330022 -8.237184504207772 13.10984009857531
19.61643476938685 -9.73152915136315 11.97967611829545
21.87811123578968 -6.953927354752412 14.08035985819824
21.95590851226513 -2.095097659245897 17.7550638956027
54.7088897387039 -4.342571425106569 16.05531283641109
18.12393537944645 1.064658518026206 20.14476872361377
18.64184444283072 -5.235126346046247 15.3802788514547
31.50730202457325 -6.222125466774955 14.63381727919366
12.93440387573077 0.2936837497688796 19.56168508594846
34.22020658931655 -0.9230547132923923 18.64147301372631
2 5 0 79
131
132
133
134
135
136
137
138
139
140
141
142
143
144
145
146
147
148
149
150
151
152
153
154
155
156
157
158
159
160
161
162
163
164
165
166
167
168
169
170
171
172
173
174
175
176
177
178
179
180
181
182
183
184
185
186
187
188
189
190
191
192
193
194
195
196
197
198
199
200
201
202
203
204
205
206
207
208
209
4.03208756247576 -1.79732702583311 21.24890984489422
2.079080471914743 7.546213985326628 19.25697503349907
-9.603842207088737 -7.770057116652055 16.61530519836737
0.2140197137259093 -2.562049720934104 22.32491836402284
-1.471820527705243 -1.845604565900148 22.44769444961094
-2.614503838783704 -0.8124899655241287 22.22752503585057
-3.122263735638301 -2.106012014037627 21.62734965690045
-12.00212139517252 0.9115063576897001 16.80018443316161
0.6041213069711271 2.487556576317073 22.33140272503732
-0.8487938266484185 2.667135846339438 22.19186386959518
2.491559017822752 -11.77598808955209 16.80018443316161
2.54720937005734 -1.689344261503401 22.04154008150346
-0.624839869209846 -2.763402103221793 22.17188894304137
-1.88191319481533 -3.865342430596495 21.31626988881018
1.422027615787754 -3.233761274394971 21.76364835506556
-3.843687242033168 -3.831026556120516 20.65806446229448
-4.841015265882113 -2.076135881963226 20.75111365398769
-4.416655961934181 0.442615684163472 21.23475937013636
-2.433346896527929 -5.77543765073422 20.16763125726547
-9.117077989173904 8.902478765000241 16.3881394995876
-6.249798722810815 0.1185275603459614 20.17708799966809
-5.564593048846628 2.217031425491494 20.32938599965455
-3.539839005577446 2.691310319500299 21.23010530684683
7.333287186951902 -4.953738742186222 18.66031034814603
10.06700421016639 -7.784156333028685 16.3981674980131
0.5777622785619313 3.975284891343948 21.48090405063866
-1.878930262394155 4.124079077112444 21.18038991465357
2.04134483968114 3.266406861404808 21.57734353176144
-4.063388509673019 4.421019434086682 20.32079198270837
-5.816673909119565 -4.123467817778854 19.66401669621939
1.826077300625767 11.26598477632606 17.16419204818375
-1.689858795556927 9.234617454255726 18.3461326279055
-2.149634766967185 13.00799888908 16.13029885847538
-0.4210514141505028 -5.723911258413422 20.47565564885263
-0.8534929761984084 -7.698441405945572 19.30470323626648
1.961382400556936 -7.242336311056131 19.44616942674659
-4.092015955213655 -7.865752316330932 18.65049191642578
-8.326659178335969 -2.16259760254709 18.80433197264305
-7.995479397677722 1.626424628990792 19.06329297066616
-6.763093702522675 4.397167845317871 19.11719179905212
-9.281016545438669 4.666570378197237 17.76235013814258
-12.51783201119079 5.891738710185618 15.75055247532447
-0.1213833971741357 -3.858688868950243 21.57221930812574
5.919855883891631 -2.188066461254165 20.14185653346711
4.654720849616048 -4.231887901334606 20.15376049603441
-1.458993677127693 -10.77081098744812 17.48160813142739
-5.965683820541845 -10.57538599504979 16.73871575163296
-11.77439172528239 -3.488826693377225 16.65793802748077
0.5313779323000168 5.536095649846105 20.57945186667589
3.988230217733963 3.393093861097891 20.76926741927074
4.060082732639509 1.511629011349355 21.29687490310819
2.305501100568764 1.258932913672545 22.29231583669755
-4.520156705340043 7.015823083002132 18.95435448853333
-1.943716215018625 6.442453680262632 19.89788962691097
2.521991437364736 4.98984687824819 20.56227081472247
5.3814310400761 -8.996866077297245 17.7067224453987
2.834149735295362 -3.343606209100372 21.26722075004259
-2.829349278909205 0.8498302281271412 22.10123218375557
-7.194865301550883 6.954349545301644 17.98514525227878
-2.314016185487023 -13.70423265643096 15.71368179201703
1.379254404532734 -5.011043766418074 20.79198805283978
-4.640991420015274 -5.656101038522595 19.55519121809582
1.74913910187073 2.129145407514184 22.21722133935095
-5.193093824955243 9.764350493007532 17.37057216152919
9.156980218030492 10.20907761235866 15.82116885005024
4.692941122416636 -6.410720278594845 19.18840009550857
3.257248701947774 -5.304348242441286 20.19244506905645
7.566645209059953 -11.48154616745585 15.79982267330901
-7.249461221548091 -5.965959783855637 18.34571044584744
1.369574010936246 -9.659451125078624 18.13128727112275
-3.74528623025861 -1.006688772050038 21.56193378727999
5.351700899472171 12.99775652774182 15.62136194427442
-1.784651830421205 1.6518134625428 22.40616962533855
2.291954436155271 -0.8019232955252988 22.40825132642429
-2.010062295656509 -0.1281468925693575 22.64991653203092
2.824209253873672 2.245754089230264 21.7194957000069
-2.1966177868139 2.718807444724747 21.78543456693618
7.754067143596709 -2.125868413051565 19.13276055027928
-5.957481416782525 12.60701107961494 15.68710777379253
2 6 0 0
2 7 0 65
210
211
212
213
214
215
216
217
218
219
220
221
222
223
224
225
226
227
228
229
230
231
232
233
234
235
236
237
238
239
240
241
242
243
244
245
246
247
248
249
250
251
252
253
254
255
256
257
258
259
260
261
262
263
264
265
266
267
268
269
270
271
272
273
274
12.11108249720732 -14.37921001814212 4.927606308334326
-3.43230128206676 -18.48402845456376 7.881350532316109
-14.43361751925194 -12.04618965930487 7.869271402085293
-18.76173405436505 1.198889183068628 7.928060856252085
-12.83681770202066 13.73521427881957 7.887923133261534
12.85064461312365 13.72227871117607 7.873000964550521
0.007076595873387432 18.79999866813269 7.886623316672932
3.981031452517354 -18.37366018446155 -7.706695486681498
-10.1908500650302 -15.79830924346255 -7.592147535882638
-18.43876327158073 -3.667698053903246 -7.607639629455202
-15.58099846518657 10.5200991833658 -7.635702977880218
-3.662744802568923 18.43974784294119 -7.624105997343599
10.4447203807685 15.63162871128787 -7.60763962945519
18.06233507521609 -5.214599853355814 -4.828124999999975
18.00157607425168 5.420632697658948 8.036374493158519
18.00149108770737 5.420914924548464 -4.665382171837152
9.155270216400838 -16.42014090270494 7.472826618585426
8.309605430079495 -16.86388026512266 2.882734769634919
11.41850295178308 -14.93511936142866 -0.2957787981655642
18.15585795384461 -4.879018544729807 1.707874507522279
-3.363189567088464 -18.49672824949935 -7.780431152086568
-6.922539464456923 -17.47908599907434 -1.575999727098786
-12.99039431432266 -13.5900572316092 -1.168626482139658
3.708682911907742 -18.4305635035645 6.749269286144131
3.32245142979925 -18.50408918311369 0.8166318208269487
10.44472038076854 -15.63162871128784 -7.607639629455223
15.39478207719625 -10.79076849884368 -7.841593091587224
17.94927040259986 5.591394460628996 1.564003523931154
15.62510795135926 10.45447279915967 -2.388129690105172
-15.51648057019275 -10.61502853104178 -7.56653991194305
-17.47560722021442 -6.931316778563055 -1.132802740425461
-18.79904490377594 0.1895012026761676 -1.478275974073755
-18.41098889975693 3.804666573173932 -7.685439926315554
16.68088435200497 -8.671107036303715 -1.397517344811369
3.69393624290601 18.43352475880143 -7.622520863563227
7.194992056529822 17.36871006455208 -1.333219996829373
0.06334747939383195 18.79989327354957 -1.389778639778877
-7.105404774018321 17.40555149937392 -1.383469168188608
-10.39858371439382 15.66235795577229 -7.630633612253662
-13.29146678463999 13.29574784330735 -1.352207693995199
-17.16229108563425 7.674357607771429 -1.461013038699079
-9.156284874471485 -16.4195751253656 7.8587236245572
-16.99417251475231 8.03978236887275 7.941567682742789
6.993991080266004 17.45061857841032 7.64414308381847
-17.83648187659875 -5.94137309599089 7.91776049443261
-6.895834941707149 17.48963865998182 7.924872496651293
15.49559440619941 10.6454945398775 -8.407919003118195
6.681496726351259 -17.57263786389959 -2.604244698180663
14.19444349032983 -12.3271153965489 2.52923188615754
14.40269307487325 -12.08314661795503 -3.277684073441574
-3.538874302176942 -18.46392072863702 2.184130917895775
15.8943674568062 10.04037265981797 3.776023397446576
11.974683825957 14.49299649031779 0.9834742681643505
0.04848981600955096 -18.79993746632534 -3.539300565380968
-3.50313008149029 18.47073576315134 3.275794498862442
2.087805344776192 18.68371132410057 3.280949625918495
-10.06143408327257 15.88104354845616 3.363987921342943
-14.9958575240879 11.33861795446237 3.4085776278129
18.10292482523817 -5.071894396749168 -9.483642292113725
-18.41483195211571 -3.786022210095759 2.867919890328626
-18.42911351043867 3.715881486184259 2.83470643291038
-15.58325967316698 -10.51674940077245 2.591699249077458
18.23592485977016 4.570672216295637 -9.783230199729246
-10.49113030292768 -15.60051874031734 2.541523416801663
16.07735900836346 9.744666608776019 9.028875288830676
2 8 0 2
275
276
47.25243048765545 -9.584543736195602 7.608553409457974
38.13150125423128 -9.817724655336105 6.758894266574852
2 9 0 2
277
278
56.67400000000255 -7.503072423073597 9.182757799700671
65.7180000000013 -3.938669845151666 11.87849429693325
2 10 0 2
279
280
65.71799999999838 -0.3742672672346412 14.57423079416828
56.67399999999893 3.190135310688007 17.2699672914005
2 11 0 1
281
0 2.252166707096746e-15 22.95
2 12 0 25
282
283
284
285
286
287
288
289
290
291
292
293
294
295
296
297
298
299
300
301
302
303
304
305
306
11.85389241373698 -2.357885802680188 -13.95
-11.92163525846864 2.685932752989182 -13.95
-2.46180730599398 -12.57643953399906 -13.95
1.244373982616205 11.21995739110893 -13.95
7.306548540491269 -10.97512820231875 -13.95
-6.578136028965108 10.74747425386539 -13.95
-10.28081638396174 -7.107456217057707 -13.95
10.04924474954782 6.714690668870539 -13.95
-13.98261947623212 -2.781315942186268 -13.95
-6.118078220667948 -1.241234979430291 -13.95
-3.881155758629348 -7.463651763715939 -13.95
1.376662895082656 -3.136019263055194 -13.95
0.7774545237431663 3.77358650094096 -13.95
6.92235013319243 1.308485145347014 -13.95
-5.047613348501569 5.015165963304083 -13.95
2.759063075705671 -13.75580516161824 -13.95
13.98261947623212 2.781315942186247 -13.95
-3.132052643703173 14.53409171404662 -13.95
7.488774441345678 11.35525058194512 -13.95
11.85389241373698 -7.920517687052682 -13.95
-7.920517687052654 -11.85389241373699 -13.95
-10.84198546669093 7.787325796985876 -13.95
7.004406989647423 -4.680195121775033 -13.95
5.29643956608906 6.874394057642514 -13.95
2.017286406050615 -8.764539841080369 -13.95
3 1 0 104
307
308
309
310
311
312
313
314
315
316
317
318
319
320
321
322
323
324
325
326
327
328
329
330
331
332
333
334
335
336
337
338
339
340
341
342
343
344
345
346
347
348
349
350
351
352
353
354
355
356
357
358
359
360
361
362
363
364
365
366
367
368
369
370
371
372
373
374
375
376
377
378
379
380
381
382
383
384
385
386
387
388
389
390
391
392
393
394
395
396
397
398
399
400
401
402
403
404
405
406
407
408
409
410
2.059124696248921 -2.430420106596407 0.5842184629442374
0.3275999675283298 0.4684191705356098 14.64435819176058
0.04663839510722119 -0.07621275458289103 18.51446870724117
-2.523236503105125 3.805180536218737 8.358126729465534
6.306969958443204 10.40224266714454 5.810518089674543
5.275230318687524 -7.713214078791021 8.27497104877823
5.405828899440801 -9.725936315439204 -5.651849957679912
-8.989768348132245 -6.154137127110586 6.157103978340862
-0.6511186661049186 -6.797079010113142 14.17097760456239
10.14748048181117 4.738914650819771 -2.527391374294053
-5.54996285198147 -6.884952840350956 -6.17942890598587
2.262696065810535 -3.573575235351494 18.38898452708044
-0.440006824654556 9.528034851342833 0.5804859686557864
-4.481041264725041 4.752409330280345 16.19164508749843
-2.603787712468235 -3.382334975599064 18.25402256237312
7.474418024695308 -1.337390845499134 13.90424827254654
-2.014894611183529 -11.55546897383346 3.091143693749572
-10.50392086429794 2.523323267696847 1.187248067211319
2.60435815688224 2.202044718318447 19.24743706356176
4.785724795947868 5.901004570023396 13.78079354273978
5.791641903355177 10.19044333097208 -6.483789113146633
-2.213283558417147 2.889069809436594 -6.219018138812284
12.98820127930127 -1.863743446906412 2.711983479302869
8.742749039733328 -10.59168261192609 3.196610401574862
-4.07164926268483 1.098412584207185 18.31980796685071
0.5697962545426438 1.321755230538707 21.24796392015222
-11.9119719160888 1.48878743783068 8.828093372897918
4.386694232685012 -5.998848188666867 14.93672193185762
-6.285176752244085 -0.01429319908666177 13.92495158586727
0.8838398195487401 -2.367550467573151 9.275622930370515
1.945977429372935 -0.4089408624912022 20.75223559256317
-0.2162117455965478 -13.36046614019533 -7.205719131183682
-11.24184076128161 -0.8304393784578252 -7.157951653155274
-0.1535892455888365 -2.083900531162428 20.6828252729592
-0.089481866509017 4.381868890966421 18.01948209735128
-8.955502089387057 7.563650735382934 -6.495201129864967
-0.2967361377713694 12.40530813419147 9.01550258950412
11.37433862431309 -3.234049478385852 -7.143865576941815
-1.744260953818097 -0.3754608359625741 20.95083845879176
4.883312860507214 -0.2134260267390793 17.78513297935853
2.412587574550447 -12.01094240970912 10.47693114779605
-1.661541279779974 8.103305749217453 13.85338430627688
10.99946987406551 6.078469175109281 9.142942793961177
-1.638902237601387 2.055182988114501 20.25069196513226
-7.091604253579018 9.807985007628247 6.63387565173041
-5.186351298998583 -11.1648960158672 10.50616240264357
-8.073545057034213 6.824063825128145 13.10559212437635
5.027832343195374 0.7799568860328606 -8.299531404650491
6.45675468635931 1.151676241084922 6.752956459417711
-5.83563197668816 -5.15098354361302 15.71980470825492
-2.584522638151936 12.5336941351368 -8.209623420318575
11.90643541724983 -6.436418839335706 8.246676048722041
8.213156469677616 5.95157012682894 19.0685360255427
9.996733864468391 -10.59624239913246 -9.453714340836834
53.43385436400478 0.1437005663842424 15.00444196223704
-13.78130869745544 6.595787746801987 -10.45322746646594
62.84818573062492 -2.156610120286124 13.22622391602209
11.43635231438809 9.777324632932812 -10.61738146399512
16.90068246661467 -9.608903534008252 7.982412947218887
-5.699825442836086 -13.59127920370604 -9.50884255656686
14.28620295275375 0.7741298232730993 10.98144618292287
-12.60108830679701 -8.015020696092982 -10.49481405314194
15.28937383103278 -2.626924320458263 -11.01566827441946
5.932095579088833 14.21427402956396 -10.38720159715334
19.37285761275202 5.439507762439861 17.677608514891
35.20770937138409 3.069785020545545 17.54405873193754
45.38944240727641 -5.978482701988473 10.36779951754145
29.29277246954468 3.237727446606612 17.44851995372404
33.32185445274659 -7.606795045415726 9.092944405102822
4.225200173094875 -16.04625065488086 10.69115650244079
-11.57674475422807 11.35855886578125 10.03475642536019
-14.96943081668503 6.433675481525359 10.74592679050219
24.96467806619687 -8.049012152798189 8.625872234129204
10.52108331621178 11.75132456378756 10.49382757924202
-0.6376438305951952 16.69192883201526 10.52466683027618
-11.86796695067741 -10.58029541344322 10.32830228841299
9.514772838707952 -12.30704761607597 10.42974403265342
-15.64140370612104 -0.4352607916312103 -10.4650289839983
14.04142022250963 -7.701263263132072 -10.64587498611088
5.013574725237571 -14.03001288783957 -10.11491655431927
53.44058138046011 -4.563575427027512 11.41648904497698
45.74045141989324 1.672521728192692 15.83004974100825
14.55377464193212 3.39911024044913 -8.635984155712386
11.02597290340521 6.641386150914554 18.50842244301532
-9.993045806077047 11.74179646175997 -10.43238626521282
39.74866036129759 5.005886721740969 16.45453616711939
16.74734036766325 5.128967066234595 18.65298756284961
-6.446286117119271 15.04892443161655 10.26899833959588
-1.705376050461616 -15.88548500981001 10.47257189547919
39.09917299594308 -7.702167605112799 10.14422615187341
-14.76415678122986 -5.308614376493241 10.49752466225057
5.356072207819229 15.29495553436822 10.51227326521345
15.12546287337413 6.951438727843416 10.61048909620002
19.45486644374971 4.28628710049624 20.23712240800486
10.15822770833423 4.805249080311793 20.35711877677564
13.77081999960503 -8.959853950804034 11.67445464860786
-16.64372779349222 0.6311851367496222 10.51453241295422
-7.664957389790808 -14.87070348197383 10.91917846343612
58.27818177530393 -2.175256647166204 13.20775656356415
13.45110441314869 4.634128570869207 18.67366544389493
20.54693605910189 -8.920562631365391 7.274666556129992
37.23952780884111 -7.015267052435387 7.365025130509434
22.72681267256214 3.565632992495223 17.61749759632418
8.509517595106276 2.718998152103855 17.17483982818754
$EndNodes
$Elements
63 2101 1 2101
0 1 15 1
1 1 
0 2 15 1
2 2 
0 3 15 1
3 3 
0 4 15 1
4 4 
0 5 15 1
5 5 
0 6 15 1
6 6 
0 7 15 1
7 7 
0 8 15 1
8 8 
0 9 15 1
9 9 
0 10 15 1
10 10 
0 11 15 1
11 11 
0 12 15 1
12 12 
0 13 15 1
13 13 
0 14 15 1
14 14 
0 15 15 1
15 15 
0 16 15 1
16 16 
0 17 15 1
17 17 
0 18 15 1
18 18 
0 19 15 1
19 19 
0 20 15 1
20 20 
1 1 1 1
21 1 2 
1 2 1 2
22 1 21 
23 21 3 
1 3 1 1
24 3 4 
1 4 1 1
25 2 4 
1 5 1 2
26 5 22 
27 22 1 
1 6 1 5
28 2 23 
29 23 24 
30 24 25 
31 25 26 
32 26 6 
1 7 1 2
33 6 27 
34 27 7 
1 8 1 2
35 7 28 
36 28 8 
1 9 1 4
37 8 29 
38 29 30 
39 30 31 
40 31 9 
1 10 1 2
41 10 32 
42 32 9 
1 11 1 1
43 11 10 
1 12 1 1
44 11 5 
1 13 1 5
45 4 33 
46 33 34 
47 34 35 
48 35 36 
49 36 12 
1 14 1 1
50 6 12 
1 15 1 2
51 13 37 
52 37 3 
1 16 1 2
53 12 38 
54 38 14 
1 17 1 2
55 14 39 
56 39 15 
1 18 1 4
57 15 40 
58 40 41 
59 41 42 
60 42 16 
1 19 1 2
61 17 43 
62 43 16 
1 20 1 1
63 17 18 
1 21 1 2
64 18 44 
65 44 13 
1 22 1 15
66 5 45 
67 45 46 
68 46 47 
69 47 48 
70 48 49 
71 49 50 
72 50 51 
73 51 52 
74 52 53 
75 53 54 
76 54 55 
77 55 56 
78 56 57 
79 57 58 
80 58 18 
1 23 1 3
81 13 59 
82 59 60 
83 60 19 
1 24 1 7
84 19 61 
85 61 62 
86 62 63 
87 63 64 
88 64 65 
89 65 66 
90 66 19 
1 25 1 15
91 11 67 
92 67 68 
93 68 69 
94 69 70 
95 70 71 
96 71 72 
97 72 73 
98 73 74 
99 74 75 
100 75 76 
101 76 77 
102 77 78 
103 78 79 
104 79 80 
105 80 17 
1 26 1 4
106 20 81 
107 81 82 
108 82 83 
109 83 10 
1 27 1 16
110 20 84 
111 84 85 
112 85 86 
113 86 87 
114 87 88 
115 88 89 
116 89 90 
117 90 91 
118 91 92 
119 92 93 
120 93 94 
121 94 95 
122 95 96 
123 96 97 
124 97 98 
125 98 20 
1 28 1 2
126 9 99 
127 99 16 
1 29 1 1
128 8 15 
1 30 1 1
129 7 14 
2 1 2 3
130 2 1 21 
131 2 21 4 
132 4 21 3 
2 2 2 40
133 22 1 2 
134 23 22 2 
135 5 105 11 
136 22 105 5 
137 6 103 26 
138 27 106 6 
139 6 106 103 
140 28 27 7 
141 8 106 28 
142 29 103 8 
143 103 106 8 
144 32 31 9 
145 11 100 10 
146 10 102 32 
147 100 102 10 
148 11 107 100 
149 105 107 11 
150 23 105 22 
151 24 107 23 
152 23 107 105 
153 25 110 24 
154 24 110 107 
155 26 101 25 
156 101 104 25 
157 104 110 25 
158 26 103 101 
159 28 106 27 
160 30 109 29 
161 29 109 103 
162 31 108 30 
163 108 109 30 
164 32 102 31 
165 102 108 31 
166 100 104 102 
167 100 110 104 
168 107 110 100 
169 103 109 101 
170 101 109 104 
171 104 108 102 
172 104 109 108 
2 3 2 20
173 4 114 2 
174 2 114 23 
175 33 114 4 
176 6 115 12 
177 26 115 6 
178 12 115 36 
179 23 112 24 
180 33 112 23 
181 23 114 33 
182 24 113 25 
183 24 112 34 
184 34 113 24 
185 25 111 26 
186 35 111 25 
187 25 113 35 
188 26 111 36 
189 36 115 26 
190 34 112 33 
191 35 113 34 
192 36 111 35 
2 4 2 49
193 4 3 118 
194 3 37 118 
195 33 4 118 
196 38 12 125 
197 12 36 119 
198 12 119 125 
199 13 44 129 
200 37 13 118 
201 118 13 129 
202 38 39 14 
203 15 39 125 
204 40 15 119 
205 119 15 125 
206 16 42 43 
207 18 17 127 
208 17 43 122 
209 17 122 123 
210 17 123 127 
211 44 18 117 
212 117 18 127 
213 39 38 125 
214 41 40 120 
215 40 119 120 
216 42 41 121 
217 41 120 128 
218 121 41 128 
219 43 42 122 
220 42 121 122 
221 44 117 129 
222 34 33 126 
223 33 118 129 
224 126 33 129 
225 35 34 116 
226 116 34 124 
227 124 34 126 
228 36 35 130 
229 35 116 130 
230 119 36 120 
231 120 36 130 
232 121 116 123 
233 116 121 128 
234 123 116 124 
235 116 128 130 
236 117 124 126 
237 124 117 127 
238 117 126 129 
239 128 120 130 
240 122 121 123 
241 123 124 127 
2 5 2 192
242 1 132 21 
243 22 195 1 
244 1 161 132 
245 1 202 161 
246 195 202 1 
247 21 180 3 
248 3 59 37 
249 3 181 59 
250 180 181 3 
251 45 22 5 
252 13 208 44 
253 37 59 13 
254 59 174 13 
255 174 208 13 
256 44 155 18 
257 18 155 58 
258 60 182 19 
259 19 204 60 
260 19 182 61 
261 66 204 19 
262 132 185 21 
263 21 185 180 
264 45 195 22 
265 154 155 44 
266 44 208 154 
267 46 195 45 
268 47 202 46 
269 46 202 195 
270 48 163 47 
271 47 163 161 
272 161 202 47 
273 49 209 48 
274 48 209 163 
275 50 150 49 
276 150 209 49 
277 51 172 50 
278 50 172 150 
279 52 138 51 
280 138 172 51 
281 53 178 52 
282 52 178 138 
283 54 133 53 
284 133 178 53 
285 55 177 54 
286 54 177 133 
287 56 190 55 
288 55 190 177 
289 57 141 56 
290 141 190 56 
291 58 198 57 
292 57 198 141 
293 155 198 58 
294 60 131 59 
295 59 181 60 
296 131 174 59 
297 60 142 131 
298 60 204 142 
299 181 182 60 
300 61 139 62 
301 61 193 139 
302 182 193 61 
303 62 203 63 
304 139 140 62 
305 140 203 62 
306 63 205 64 
307 63 203 188 
308 188 205 63 
309 64 135 65 
310 64 137 135 
311 136 137 64 
312 64 205 136 
313 65 134 66 
314 65 143 134 
315 135 143 65 
316 134 145 66 
317 66 145 142 
318 142 204 66 
319 142 187 131 
320 131 175 174 
321 131 187 175 
322 161 162 132 
323 162 184 132 
324 132 184 179 
325 179 185 132 
326 177 199 133 
327 133 199 178 
328 143 173 134 
329 134 173 145 
330 137 144 135 
331 135 144 143 
332 136 201 137 
333 188 201 136 
334 136 205 188 
335 137 146 144 
336 137 147 146 
337 137 201 147 
338 168 169 138 
339 138 178 168 
340 169 171 138 
341 171 172 138 
342 139 156 140 
343 139 158 156 
344 139 193 158 
345 156 157 140 
346 157 207 140 
347 140 207 203 
348 176 190 141 
349 141 200 176 
350 141 198 186 
351 186 200 141 
352 145 187 142 
353 144 173 143 
354 146 149 144 
355 149 164 144 
356 164 173 144 
357 173 191 145 
358 145 191 187 
359 147 160 146 
360 146 192 149 
361 160 192 146 
362 148 151 147 
363 147 201 148 
364 151 168 147 
365 147 168 160 
366 148 152 151 
367 148 153 152 
368 148 188 153 
369 148 201 188 
370 149 165 164 
371 149 167 165 
372 149 192 167 
373 150 172 171 
374 171 189 150 
375 189 194 150 
376 194 209 150 
377 152 169 151 
378 151 169 168 
379 153 159 152 
380 159 170 152 
381 152 170 169 
382 157 159 153 
383 153 207 157 
384 188 207 153 
385 154 186 155 
386 174 175 154 
387 154 208 174 
388 175 196 154 
389 154 196 186 
390 186 198 155 
391 156 179 157 
392 158 185 156 
393 156 185 179 
394 157 184 159 
395 179 184 157 
396 180 185 158 
397 158 206 180 
398 193 206 158 
399 159 183 170 
400 159 184 183 
401 168 199 160 
402 160 199 192 
403 161 163 162 
404 163 194 162 
405 183 184 162 
406 162 194 183 
407 163 209 194 
408 165 166 164 
409 166 191 164 
410 164 191 173 
411 165 200 166 
412 167 176 165 
413 176 200 165 
414 186 196 166 
415 166 200 186 
416 166 197 191 
417 196 197 166 
418 167 177 176 
419 167 199 177 
420 192 199 167 
421 178 199 168 
422 170 171 169 
423 170 189 171 
424 183 189 170 
425 187 197 175 
426 175 197 196 
427 177 190 176 
428 180 206 181 
429 181 206 182 
430 182 206 193 
431 183 194 189 
432 191 197 187 
433 203 207 188 
2 6 2 30
434 67 5 11 
435 45 5 67 
436 80 17 18 
437 80 18 58 
438 45 68 46 
439 45 67 68 
440 46 69 47 
441 46 68 69 
442 47 70 48 
443 69 70 47 
444 49 48 71 
445 48 70 71 
446 50 49 72 
447 72 49 71 
448 50 72 51 
449 51 73 52 
450 51 72 73 
451 52 74 53 
452 52 73 74 
453 53 75 54 
454 53 74 75 
455 54 76 55 
456 54 75 76 
457 55 77 56 
458 55 76 77 
459 56 78 57 
460 77 78 56 
461 57 79 58 
462 57 78 79 
463 58 79 80 
2 7 2 174
464 9 229 32 
465 99 258 9 
466 9 243 229 
467 9 258 243 
468 10 224 11 
469 32 83 10 
470 83 224 10 
471 11 274 67 
472 224 274 11 
473 43 80 16 
474 16 80 79 
475 79 226 16 
476 16 210 99 
477 16 226 210 
478 80 43 17 
479 81 268 20 
480 20 272 81 
481 84 272 20 
482 20 268 98 
483 32 229 83 
484 67 215 68 
485 67 274 215 
486 68 253 69 
487 215 253 68 
488 69 216 70 
489 69 253 216 
490 70 255 71 
491 216 255 70 
492 71 214 72 
493 71 255 214 
494 72 252 73 
495 214 252 72 
496 73 213 74 
497 73 252 213 
498 74 254 75 
499 213 254 74 
500 75 212 76 
501 75 254 212 
502 76 251 77 
503 212 251 76 
504 77 211 78 
505 77 251 211 
506 78 233 79 
507 211 233 78 
508 79 233 226 
509 82 223 81 
510 81 225 82 
511 223 268 81 
512 81 272 225 
513 83 229 82 
514 82 237 83 
515 82 229 223 
516 225 237 82 
517 83 237 224 
518 85 256 84 
519 256 272 84 
520 86 222 85 
521 222 256 85 
522 87 244 86 
523 86 244 222 
524 88 221 87 
525 221 244 87 
526 89 248 88 
527 88 248 221 
528 90 220 89 
529 220 248 89 
530 91 242 90 
531 90 242 220 
532 92 219 91 
533 219 242 91 
534 93 239 92 
535 92 239 219 
536 94 218 93 
537 218 239 93 
538 95 230 94 
539 94 230 218 
540 96 217 95 
541 217 230 95 
542 97 235 96 
543 96 235 217 
544 98 236 97 
545 97 236 235 
546 98 268 236 
547 210 258 99 
548 226 227 210 
549 227 228 210 
550 228 258 210 
551 211 260 233 
552 251 260 211 
553 212 273 251 
554 254 271 212 
555 271 273 212 
556 252 270 213 
557 213 269 254 
558 213 270 269 
559 214 267 252 
560 255 266 214 
561 266 267 214 
562 215 262 253 
563 261 262 215 
564 215 274 261 
565 253 265 216 
566 216 264 255 
567 216 265 264 
568 217 263 230 
569 235 257 217 
570 257 263 217 
571 230 231 218 
572 231 232 218 
573 232 239 218 
574 239 240 219 
575 240 241 219 
576 241 242 219 
577 242 250 220 
578 220 249 248 
579 220 250 249 
580 221 246 244 
581 221 247 246 
582 221 248 247 
583 238 256 222 
584 222 262 238 
585 244 245 222 
586 245 262 222 
587 229 243 223 
588 223 243 236 
589 236 268 223 
590 237 261 224 
591 261 274 224 
592 225 238 237 
593 225 256 238 
594 225 272 256 
595 226 233 227 
596 227 257 228 
597 233 234 227 
598 234 257 227 
599 228 257 235 
600 235 259 228 
601 228 259 258 
602 230 263 231 
603 231 273 232 
604 231 263 260 
605 260 273 231 
606 232 240 239 
607 232 271 240 
608 232 273 271 
609 233 260 234 
610 234 263 257 
611 260 263 234 
612 236 259 235 
613 243 259 236 
614 238 261 237 
615 238 262 261 
616 240 269 241 
617 240 271 269 
618 241 250 242 
619 241 270 250 
620 269 270 241 
621 258 259 243 
622 244 246 245 
623 246 265 245 
624 253 262 245 
625 245 265 253 
626 247 264 246 
627 264 265 246 
628 248 249 247 
629 249 266 247 
630 247 266 264 
631 250 267 249 
632 249 267 266 
633 250 270 267 
634 251 273 260 
635 267 270 252 
636 269 271 254 
637 264 266 255 
2 8 2 13
638 15 275 8 
639 8 275 29 
640 9 31 42 
641 99 9 42 
642 40 275 15 
643 42 16 99 
644 41 276 40 
645 29 275 40 
646 40 276 29 
647 42 31 41 
648 41 31 30 
649 30 276 41 
650 29 276 30 
2 9 2 8
651 14 278 7 
652 7 278 28 
653 8 277 15 
654 28 277 8 
655 39 278 14 
656 15 277 39 
657 39 277 28 
658 28 278 39 
2 10 2 8
659 12 280 6 
660 6 280 27 
661 7 279 14 
662 27 279 7 
663 38 280 12 
664 14 279 38 
665 38 279 27 
666 27 280 38 
2 11 2 7
667 61 281 19 
668 19 281 66 
669 62 281 61 
670 63 281 62 
671 64 281 63 
672 65 281 64 
673 66 281 65 
2 12 2 64
674 84 20 298 
675 20 98 282 
676 20 282 298 
677 85 84 289 
678 289 84 298 
679 86 85 300 
680 85 289 300 
681 87 86 285 
682 285 86 300 
683 88 87 299 
684 87 285 299 
685 89 88 287 
686 287 88 299 
687 90 89 303 
688 89 287 303 
689 91 90 283 
690 283 90 303 
691 92 91 290 
692 91 283 290 
693 93 92 288 
694 288 92 290 
695 94 93 302 
696 93 288 302 
697 95 94 284 
698 284 94 302 
699 96 95 297 
700 95 284 297 
701 97 96 286 
702 286 96 297 
703 98 97 301 
704 97 286 301 
705 282 98 301 
706 282 295 298 
707 295 282 304 
708 282 301 304 
709 290 283 291 
710 291 283 296 
711 296 283 303 
712 292 284 302 
713 284 292 306 
714 297 284 306 
715 287 285 296 
716 285 287 299 
717 285 294 296 
718 294 285 305 
719 285 300 305 
720 286 297 306 
721 301 286 304 
722 304 286 306 
723 287 296 303 
724 288 290 291 
725 288 291 292 
726 288 292 302 
727 295 289 298 
728 289 295 305 
729 300 289 305 
730 292 291 293 
731 293 291 294 
732 294 291 296 
733 292 293 306 
734 293 294 295 
735 293 295 304 
736 293 304 306 
737 295 294 305 
3 1 4 1364
738 234 313 323 330 
739 243 329 344 330 
740 234 323 313 338 
741 243 329 330 9 
742 355 319 311 316 
743 329 344 330 307 
744 137 340 321 345 
745 193 158 206 332 
746 410 401 390 359 
747 82 389 344 316 
748 256 389 316 364 
749 348 308 310 326 
750 307 317 313 323 
751 245 311 319 327 
752 137 144 321 340 
753 326 336 310 355 
754 311 316 261 349 
755 305 289 327 354 
756 321 340 309 345 
757 405 387 39 125 
758 310 326 308 336 
759 256 316 389 225 
760 165 164 318 321 
761 259 360 313 344 
762 317 323 231 338 
763 310 308 320 335 
764 316 319 311 327 
765 82 389 316 225 
766 245 311 265 319 
767 118 406 401 33 
768 383 198 312 347 
769 364 316 256 327 
770 231 366 317 338 
771 257 313 234 330 
772 366 292 317 338 
773 307 319 316 328 
774 262 316 311 327 
775 137 321 144 146 
776 380 326 202 311 
777 223 329 82 344 
778 263 323 234 338 
779 265 319 311 343 
780 317 307 354 328 
781 313 323 317 338 
782 32 43 402 358 
783 289 344 389 316 
784 307 310 336 355 
785 234 313 257 338 
786 305 295 289 354 
787 355 319 316 307 
788 165 164 166 318 
789 397 133 382 314 
790 383 155 358 312 
791 306 317 292 338 
792 360 304 313 344 
793 261 311 262 316 
794 368 302 288 317 
795 308 335 310 336 
796 133 352 314 356 
797 358 367 322 44 
798 355 319 307 310 
799 360 304 344 301 
800 316 327 289 354 
801 311 326 310 355 
802 377 353 333 351 
803 237 261 316 349 
804 319 327 316 328 
805 164 191 318 340 
806 304 306 286 313 
807 239 317 368 339 
808 293 313 354 317 
809 178 397 333 314 
810 306 313 317 338 
811 144 164 321 340 
812 380 326 311 349 
813 237 316 329 349 
814 235 386 313 360 
815 382 133 53 54 
816 313 330 259 344 
817 82 329 316 344 
818 383 198 347 57 
819 382 133 54 352 
820 312 307 323 336 
821 380 202 195 46 
822 164 318 321 340 
823 206 182 193 332 
824 310 314 307 336 
825 387 39 277 28 
826 231 366 338 230 
827 106 405 28 27 
828 263 323 338 231 
829 355 367 322 358 
830 129 367 117 44 
831 382 133 352 314 
832 380 311 215 349 
833 340 281 332 345 
834 245 262 311 327 
835 405 387 28 39 
836 222 364 327 370 
837 324 342 249 351 
838 263 323 231 260 
839 348 351 310 353 
840 410 401 359 118 
841 401 406 114 33 
842 195 1 202 326 
843 232 323 231 317 
844 317 323 307 314 
845 355 319 310 311 
846 340 281 345 65 
847 288 302 292 317 
848 380 45 195 349 
849 232 323 317 314 
850 165 318 315 321 
851 243 259 330 344 
852 386 306 338 313 
853 298 289 295 344 
854 397 133 314 178 
855 314 323 307 336 
856 263 323 260 234 
857 308 318 315 334 
858 348 351 353 209 
859 158 193 139 332 
860 343 326 161 348 
861 225 81 389 272 
862 323 330 313 307 
863 310 319 307 324 
864 317 354 307 313 
865 348 351 209 343 
866 293 328 317 354 
867 363 39 28 278 
868 366 292 338 284 
869 366 292 284 302 
870 215 311 261 349 
871 18 367 358 44 
872 309 331 321 345 
873 278 363 7 28 
874 12 6 361 388 
875 165 166 315 318 
876 377 353 351 49 
877 308 326 322 336 
878 201 137 147 345 
879 82 83 237 329 
880 307 314 310 324 
881 308 326 325 346 
882 257 234 227 330 
883 380 45 46 195 
884 368 239 218 317 
885 234 233 227 330 
886 308 334 315 336 
887 183 189 194 320 
888 252 333 324 351 
889 330 344 313 307 
890 209 49 351 353 
891 322 367 410 44 
892 402 383 358 43 
893 82 237 316 329 
894 256 316 238 327 
895 312 330 323 307 
896 267 324 249 351 
897 169 320 331 335 
898 329 316 344 307 
899 164 191 166 318 
900 217 313 338 257 
901 319 342 324 351 
902 292 293 291 317 
903 166 197 196 318 
904 383 155 312 198 
905 380 326 349 195 
906 126 409 400 34 
907 4 118 359 401 
908 293 313 317 306 
909 144 321 164 149 
910 311 316 349 355 
911 397 133 178 53 
912 311 319 310 343 
913 307 317 324 328 
914 343 326 348 310 
915 308 322 334 336 
916 377 353 49 50 
917 334 308 346 322 
918 307 324 319 328 
919 228 313 257 330 
920 330 347 383 312 
921 234 323 233 330 
922 261 215 262 311 
923 233 330 323 347 
924 291 317 293 328 
925 307 324 317 314 
926 348 351 343 310 
927 348 308 326 341 
928 246 245 319 327 
929 400 409 126 371 
930 377 252 214 351 
931 324 333 269 314 
932 49 150 50 353 
933 355 367 358 329 
934 246 245 265 319 
935 398 311 343 253 
936 329 349 316 355 
937 146 147 137 321 
938 18 367 44 117 
939 114 406 401 390 
940 330 383 347 226 
941 265 245 253 311 
942 156 325 158 332 
943 4 359 118 3 
944 254 269 333 314 
945 259 313 228 330 
946 310 335 314 336 
947 249 324 250 342 
948 222 364 370 85 
949 228 235 257 313 
950 228 259 235 313 
951 246 327 319 357 
952 333 269 270 324 
953 232 323 314 273 
954 202 326 343 311 
955 251 323 314 352 
956 114 406 23 33 
957 317 240 324 339 
958 386 313 360 286 
959 21 410 326 359 
960 237 329 224 349 
961 330 383 358 312 
962 232 323 273 231 
963 348 308 341 320 
964 213 254 269 333 
965 310 351 333 353 
966 206 182 332 337 
967 317 324 240 314 
968 231 366 230 218 
969 152 170 159 331 
970 398 202 47 343 
971 209 150 49 353 
972 178 314 333 335 
973 21 325 326 346 
974 82 389 225 81 
975 156 158 139 332 
976 410 367 322 349 
977 330 383 226 16 
978 82 229 83 329 
979 23 406 114 390 
980 389 256 84 364 
981 300 305 289 327 
982 319 324 310 351 
983 340 281 65 66 
984 223 329 344 243 
985 325 326 308 341 
986 315 323 314 336 
987 351 249 247 342 
988 377 252 378 72 
989 231 366 218 317 
990 198 334 312 347 
991 293 313 306 304 
992 309 321 318 340 
993 251 314 382 352 
994 171 335 353 320 
995 82 389 81 344 
996 312 323 315 336 
997 240 324 339 241 
998 171 335 320 169 
999 265 311 253 343 
1000 178 333 138 335 
1001 243 329 9 229 
1002 321 168 147 331 
1003 234 257 263 338 
1004 225 238 256 316 
1005 223 329 243 229 
1006 197 175 196 318 
1007 168 178 335 356 
1008 218 232 231 317 
1009 306 317 293 292 
1010 246 319 247 357 
1011 316 307 328 354 
1012 237 224 261 349 
1013 226 227 233 330 
1014 65 66 134 340 
1015 337 281 332 340 
1016 165 149 164 321 
1017 237 83 224 329 
1018 144 149 146 321 
1019 377 378 252 333 
1020 251 323 273 314 
1021 341 21 325 326 
1022 252 324 267 351 
1023 165 315 167 321 
1024 356 160 321 168 
1025 143 65 134 340 
1026 314 335 178 356 
1027 223 329 229 82 
1028 400 409 112 34 
1029 291 288 317 339 
1030 194 209 348 353 
1031 156 139 140 332 
1032 132 341 162 348 
1033 191 197 166 318 
1034 402 17 43 32 
1035 195 22 326 349 
1036 169 168 138 335 
1037 166 315 318 334 
1038 155 312 198 334 
1039 21 410 359 3 
1040 324 339 250 342 
1041 168 331 321 335 
1042 264 319 265 343 
1043 145 318 191 340 
1044 315 318 308 321 
1045 226 330 233 347 
1046 329 330 9 358 
1047 310 324 314 333 
1048 267 250 249 324 
1049 319 328 324 342 
1050 178 138 168 335 
1051 197 191 187 318 
1052 345 147 148 331 
1053 305 327 294 354 
1054 242 342 339 362 
1055 156 325 332 350 
1056 225 82 237 316 
1057 242 362 339 384 
1058 169 331 168 335 
1059 165 166 200 315 
1060 166 318 196 334 
1061 148 350 188 345 
1062 196 318 154 334 
1063 334 346 308 318 
1064 304 313 344 354 
1065 238 316 262 327 
1066 187 131 318 337 
1067 181 182 206 337 
1068 64 281 65 345 
1069 129 367 44 410 
1070 394 209 351 343 
1071 323 330 312 347 
1072 18 367 117 10 
1073 315 321 308 335 
1074 198 141 186 334 
1075 232 218 239 317 
1076 331 341 159 350 
1077 343 326 310 311 
1078 158 325 206 332 
1079 319 342 247 357 
1080 322 336 326 355 
1081 262 253 245 311 
1082 312 307 336 355 
1083 43 17 402 80 
1084 217 313 257 235 
1085 165 176 167 315 
1086 228 257 227 330 
1087 324 333 310 351 
1088 238 261 262 316 
1089 127 10 18 117 
1090 251 273 212 314 
1091 292 291 288 317 
1092 168 335 321 356 
1093 133 314 178 356 
1094 240 324 241 269 
1095 258 243 259 330 
1096 327 328 319 357 
1097 351 247 249 266 
1098 145 318 340 337 
1099 367 329 349 224 
1100 83 10 224 329 
1101 138 335 333 353 
1102 165 167 149 321 
1103 240 232 239 317 
1104 153 331 159 350 
1105 232 317 240 314 
1106 65 340 135 345 
1107 294 328 327 357 
1108 316 328 327 354 
1109 132 326 341 348 
1110 238 237 261 316 
1111 189 194 320 353 
1112 321 147 168 160 
1113 200 315 166 334 
1114 324 328 317 339 
1115 164 144 173 340 
1116 169 320 170 331 
1117 326 349 410 322 
1118 377 333 252 351 
1119 99 9 330 358 
1120 317 328 291 339 
1121 394 209 343 48 
1122 345 148 147 201 
1123 156 185 158 325 
1124 242 362 384 90 
1125 346 309 337 325 
1126 112 409 400 371 
1127 314 310 333 335 
1128 319 343 264 351 
1129 175 187 131 318 
1130 235 386 360 96 
1131 320 194 162 348 
1132 320 162 341 348 
1133 308 322 326 346 
1134 256 238 222 327 
1135 308 318 309 321 
1136 155 312 334 358 
1137 346 309 325 308 
1138 241 250 324 339 
1139 171 335 169 138 
1140 145 318 337 187 
1141 293 313 304 354 
1142 200 141 315 334 
1143 244 327 246 357 
1144 328 342 319 357 
1145 294 327 328 354 
1146 398 46 47 202 
1147 215 253 262 311 
1148 314 323 315 352 
1149 399 11 224 274 
1150 179 132 185 341 
1151 170 320 159 331 
1152 27 38 361 405 
1153 159 153 152 331 
1154 312 330 329 358 
1155 219 241 240 339 
1156 240 324 269 314 
1157 341 21 326 132 
1158 247 319 264 351 
1159 1 195 22 326 
1160 148 188 350 153 
1161 328 339 324 342 
1162 242 342 362 220 
1163 230 231 263 338 
1164 200 176 165 315 
1165 134 66 145 340 
1166 184 320 341 159 
1167 315 335 308 336 
1168 399 380 67 274 
1169 246 265 264 319 
1170 149 167 192 321 
1171 309 308 331 341 
1172 184 162 132 341 
1173 112 409 24 34 
1174 24 409 112 371 
1175 310 343 319 351 
1176 10 329 32 358 
1177 181 60 182 337 
1178 27 361 38 280 
1179 326 355 349 322 
1180 315 323 312 347 
1181 21 1 359 326 
1182 189 183 170 320 
1183 391 220 362 342 
1184 203 62 63 332 
1185 320 162 194 183 
1186 298 295 282 344 
1187 380 202 46 398 
1188 291 290 288 339 
1189 236 360 385 97 
1190 198 141 334 347 
1191 143 135 65 340 
1192 312 334 322 336 
1193 356 160 168 199 
1194 156 179 185 341 
1195 164 173 191 340 
1196 197 187 175 318 
1197 174 318 346 154 
1198 252 270 324 333 
1199 184 320 159 183 
1200 315 334 312 336 
1201 206 332 325 337 
1202 337 281 340 66 
1203 283 342 339 296 
1204 170 183 159 320 
1205 309 308 321 331 
1206 266 247 264 351 
1207 66 19 204 337 
1208 333 270 269 213 
1209 361 38 280 12 
1210 369 298 282 344 
1211 308 309 325 341 
1212 146 149 192 321 
1213 161 47 202 343 
1214 246 264 247 319 
1215 215 261 274 349 
1216 160 146 192 321 
1217 155 322 334 154 
1218 146 160 147 321 
1219 16 99 330 358 
1220 222 370 327 244 
1221 141 176 200 315 
1222 268 385 344 369 
1223 394 209 48 49 
1224 348 308 320 310 
1225 326 349 355 311 
1226 313 307 344 354 
1227 377 378 353 50 
1228 10 32 18 358 
1229 143 144 135 340 
1230 226 210 227 330 
1231 386 306 313 286 
1232 194 150 209 353 
1233 226 16 210 330 
1234 32 329 9 358 
1235 356 160 199 192 
1236 1 161 202 326 
1237 204 142 66 337 
1238 206 325 181 337 
1239 391 303 342 362 
1240 181 325 59 337 
1241 333 335 310 353 
1242 312 329 330 307 
1243 156 341 325 350 
1244 34 24 374 409 
1245 137 135 340 345 
1246 176 315 347 352 
1247 169 170 152 331 
1248 63 332 281 345 
1249 62 281 63 332 
1250 315 334 141 347 
1251 156 185 325 341 
1252 297 284 95 338 
1253 159 331 320 341 
1254 318 337 309 340 
1255 258 259 228 330 
1256 225 237 238 316 
1257 374 409 116 34 
1258 322 154 44 208 
1259 176 347 190 352 
1260 148 345 331 350 
1261 296 342 328 357 
1262 168 199 178 356 
1263 355 367 329 349 
1264 176 315 141 347 
1265 179 184 132 341 
1266 273 260 231 323 
1267 242 342 220 250 
1268 196 154 318 175 
1269 26 101 388 392 
1270 246 247 221 357 
1271 116 409 374 110 
1272 236 360 97 235 
1273 394 209 49 351 
1274 194 348 320 353 
1275 156 157 341 350 
1276 200 186 141 334 
1277 296 339 328 342 
1278 156 332 140 350 
1279 337 281 66 19 
1280 116 409 124 34 
1281 103 361 6 388 
1282 252 270 267 324 
1283 153 148 331 350 
1284 250 270 241 324 
1285 13 410 118 129 
1286 268 81 369 344 
1287 100 409 124 116 
1288 223 82 81 344 
1289 214 252 267 351 
1290 186 166 196 334 
1291 283 342 296 303 
1292 264 265 216 343 
1293 268 385 369 98 
1294 247 342 248 357 
1295 5 406 129 126 
1296 103 388 6 26 
1297 4 359 114 401 
1298 222 238 262 327 
1299 322 154 208 346 
1300 384 219 339 242 
1301 285 294 305 327 
1302 353 378 377 333 
1303 95 217 386 338 
1304 296 328 294 357 
1305 271 212 273 314 
1306 259 243 236 344 
1307 180 185 21 325 
1308 171 320 353 189 
1309 19 281 61 332 
1310 316 344 307 354 
1311 186 200 166 334 
1312 370 327 244 357 
1313 140 62 203 332 
1314 147 168 151 331 
1315 294 327 285 357 
1316 67 11 399 274 
1317 174 318 154 175 
1318 399 367 349 224 
1319 357 88 248 221 
1320 6 388 115 26 
1321 167 321 315 356 
1322 314 335 315 336 
1323 255 264 343 351 
1324 391 220 342 248 
1325 176 141 190 347 
1326 2 4 359 114 
1327 224 399 274 349 
1328 168 169 151 331 
1329 258 9 243 330 
1330 182 61 193 332 
1331 399 380 45 67 
1332 309 341 331 350 
1333 294 328 293 354 
1334 178 52 138 333 
1335 361 387 125 119 
1336 241 270 269 324 
1337 63 203 332 345 
1338 221 247 248 357 
1339 395 190 352 55 
1340 236 243 223 344 
1341 361 405 106 27 
1342 182 19 61 332 
1343 320 331 308 341 
1344 346 309 308 318 
1345 60 181 59 337 
1346 312 355 322 358 
1347 291 293 294 328 
1348 64 65 135 345 
1349 252 213 270 333 
1350 265 253 216 343 
1351 246 244 245 327 
1352 135 144 137 340 
1353 321 335 315 356 
1354 249 250 220 342 
1355 139 193 61 332 
1356 337 281 19 332 
1357 203 140 332 350 
1358 177 315 356 167 
1359 22 195 45 349 
1360 19 332 182 337 
1361 10 83 32 329 
1362 312 334 315 347 
1363 69 68 398 253 
1364 68 380 398 253 
1365 395 190 55 56 
1366 267 270 250 324 
1367 253 380 398 311 
1368 61 281 62 332 
1369 282 304 301 344 
1370 267 249 266 351 
1371 241 242 250 339 
1372 300 285 305 327 
1373 398 216 253 343 
1374 222 364 85 256 
1375 309 332 325 350 
1376 32 9 365 358 
1377 320 310 335 353 
1378 12 6 388 115 
1379 393 5 126 406 
1380 271 232 240 314 
1381 322 154 346 334 
1382 153 207 188 350 
1383 159 341 157 350 
1384 234 260 233 323 
1385 32 365 43 358 
1386 296 291 328 339 
1387 248 342 391 357 
1388 209 343 163 348 
1389 399 380 274 349 
1390 148 152 153 331 
1391 355 367 349 322 
1392 154 334 318 346 
1393 224 274 261 349 
1394 312 329 355 358 
1395 316 307 329 355 
1396 304 344 295 354 
1397 366 230 95 338 
1398 305 294 295 354 
1399 263 257 217 338 
1400 133 177 352 356 
1401 206 158 180 325 
1402 395 190 56 347 
1403 395 323 347 233 
1404 119 387 125 15 
1405 299 285 87 357 
1406 391 303 362 89 
1407 332 345 203 350 
1408 172 50 150 353 
1409 221 244 246 357 
1410 323 347 315 352 
1411 395 323 233 211 
1412 398 216 69 253 
1413 44 208 13 322 
1414 282 295 304 344 
1415 32 402 18 358 
1416 314 315 335 356 
1417 389 256 225 272 
1418 318 337 131 346 
1419 171 138 172 353 
1420 312 329 307 355 
1421 245 222 262 327 
1422 395 190 347 352 
1423 242 241 219 339 
1424 156 341 157 179 
1425 210 16 99 330 
1426 63 281 64 345 
1427 230 217 95 338 
1428 103 361 388 119 
1429 177 315 167 176 
1430 289 84 364 389 
1431 133 177 54 352 
1432 9 32 229 329 
1433 203 207 140 350 
1434 367 11 5 117 
1435 132 161 326 348 
1436 219 368 92 384 
1437 132 162 161 348 
1438 312 336 322 355 
1439 206 180 181 325 
1440 321 331 308 335 
1441 155 322 154 44 
1442 273 251 260 323 
1443 232 271 273 314 
1444 381 398 47 343 
1445 115 388 36 26 
1446 314 352 315 356 
1447 291 283 290 339 
1448 384 219 242 91 
1449 369 268 20 81 
1450 222 370 244 86 
1451 208 13 322 346 
1452 161 163 343 348 
1453 212 271 254 314 
1454 192 321 167 356 
1455 244 221 87 357 
1456 219 368 384 339 
1457 380 202 398 311 
1458 296 287 342 357 
1459 199 133 178 356 
1460 43 16 383 358 
1461 163 47 161 343 
1462 320 308 331 335 
1463 61 62 139 332 
1464 361 38 12 125 
1465 287 303 296 342 
1466 138 333 172 353 
1467 222 364 256 327 
1468 187 142 131 337 
1469 63 64 205 345 
1470 251 211 323 352 
1471 5 406 105 22 
1472 216 255 264 343 
1473 229 32 83 329 
1474 389 369 344 298 
1475 260 211 233 323 
1476 228 227 210 330 
1477 247 249 248 342 
1478 49 377 394 351 
1479 409 107 24 110 
1480 145 191 173 340 
1481 180 158 185 325 
1482 236 223 268 344 
1483 87 370 244 357 
1484 353 378 172 50 
1485 280 361 12 6 
1486 10 127 124 117 
1487 373 15 275 8 
1488 171 320 189 170 
1489 398 311 202 343 
1490 124 11 10 117 
1491 284 306 292 338 
1492 371 107 24 409 
1493 260 251 211 323 
1494 163 209 48 343 
1495 155 322 44 358 
1496 129 367 5 117 
1497 62 140 139 332 
1498 5 126 129 117 
1499 403 51 333 378 
1500 223 81 268 344 
1501 309 331 345 350 
1502 100 409 116 110 
1503 3 325 21 346 
1504 99 258 210 330 
1505 296 283 291 339 
1506 383 376 57 347 
1507 153 159 157 350 
1508 228 210 258 330 
1509 248 249 220 342 
1510 356 160 192 321 
1511 410 406 129 5 
1512 57 141 198 347 
1513 392 36 372 101 
1514 266 264 255 351 
1515 381 255 216 343 
1516 24 23 107 371 
1517 309 325 341 350 
1518 126 409 11 371 
1519 294 296 291 328 
1520 395 233 347 376 
1521 155 322 358 334 
1522 56 57 376 347 
1523 127 123 10 124 
1524 269 254 271 314 
1525 402 155 18 358 
1526 198 186 155 334 
1527 109 373 103 120 
1528 346 309 318 337 
1529 126 11 409 124 
1530 325 332 309 337 
1531 138 52 51 333 
1532 326 410 349 22 
1533 136 137 201 345 
1534 129 367 410 5 
1535 309 340 332 345 
1536 48 381 47 343 
1537 23 2 22 390 
1538 379 123 122 121 
1539 296 294 285 357 
1540 174 208 154 346 
1541 143 173 144 340 
1542 373 387 15 8 
1543 363 27 7 28 
1544 38 14 39 363 
1545 184 157 159 341 
1546 322 334 312 358 
1547 64 136 205 345 
1548 402 155 358 383 
1549 404 54 352 382 
1550 180 21 3 325 
1551 59 131 337 346 
1552 35 374 34 113 
1553 189 150 194 353 
1554 21 132 1 326 
1555 222 245 244 327 
1556 136 201 188 345 
1557 138 51 172 333 
1558 157 156 140 350 
1559 177 315 176 352 
1560 268 385 98 236 
1561 60 59 131 337 
1562 268 385 236 344 
1563 91 384 90 242 
1564 177 176 190 352 
1565 48 47 163 343 
1566 120 373 103 119 
1567 100 409 110 107 
1568 23 406 393 33 
1569 320 348 310 353 
1570 379 123 121 102 
1571 151 169 152 331 
1572 34 126 409 124 
1573 408 276 375 30 
1574 190 141 56 347 
1575 276 375 396 408 
1576 396 29 276 408 
1577 402 383 43 80 
1578 404 54 55 352 
1579 126 5 11 117 
1580 30 408 276 29 
1581 209 163 194 348 
1582 297 306 284 338 
1583 103 387 373 8 
1584 45 399 5 349 
1585 59 337 325 346 
1586 132 161 1 326 
1587 5 367 410 349 
1588 309 337 332 340 
1589 141 57 56 347 
1590 96 235 97 360 
1591 87 86 244 370 
1592 366 94 95 230 
1593 92 239 93 368 
1594 85 364 84 256 
1595 99 9 258 330 
1596 410 406 5 22 
1597 55 54 177 352 
1598 32 379 122 407 
1599 9 42 31 407 
1600 387 28 8 106 
1601 296 285 287 357 
1602 188 201 148 345 
1603 124 126 11 117 
1604 410 401 118 406 
1605 35 25 372 374 
1606 177 315 352 356 
1607 395 404 352 211 
1608 88 89 391 248 
1609 361 38 125 405 
1610 89 90 362 220 
1611 399 367 224 11 
1612 263 217 230 338 
1613 102 100 10 124 
1614 148 147 151 331 
1615 100 11 10 124 
1616 22 45 5 349 
1617 42 365 407 9 
1618 365 32 43 122 
1619 103 8 373 29 
1620 240 269 271 314 
1621 387 405 361 125 
1622 36 26 388 392 
1623 12 388 36 115 
1624 407 379 42 31 
1625 42 365 122 407 
1626 103 387 8 106 
1627 120 388 36 119 
1628 386 95 96 217 
1629 101 36 388 392 
1630 186 196 154 334 
1631 10 123 102 124 
1632 107 105 11 371 
1633 407 365 122 32 
1634 376 56 78 57 
1635 404 54 76 55 
1636 407 379 122 42 
1637 287 285 299 357 
1638 393 406 23 105 
1639 148 151 152 331 
1640 60 142 204 337 
1641 268 20 98 369 
1642 184 179 157 341 
1643 128 109 104 101 
1644 44 410 13 129 
1645 88 357 87 221 
1646 173 143 134 340 
1647 304 295 293 354 
1648 94 366 93 218 
1649 13 410 44 322 
1650 400 112 33 34 
1651 4 114 33 401 
1652 121 108 102 104 
1653 98 97 236 385 
1654 126 406 129 33 
1655 27 405 28 363 
1656 254 213 403 333 
1657 194 163 162 348 
1658 387 39 125 15 
1659 157 207 153 350 
1660 267 266 214 351 
1661 25 26 392 101 
1662 21 410 3 346 
1663 128 108 121 104 
1664 102 123 10 32 
1665 18 17 402 32 
1666 155 186 154 334 
1667 120 388 119 103 
1668 379 123 102 32 
1669 389 81 20 272 
1670 72 50 377 49 
1671 3 59 181 325 
1672 396 29 109 373 
1673 79 383 16 226 
1674 393 5 406 105 
1675 373 396 120 109 
1676 199 192 167 356 
1677 266 255 214 351 
1678 396 29 373 40 
1679 123 102 116 121 
1680 124 102 100 116 
1681 173 134 145 340 
1682 50 378 51 72 
1683 375 276 41 30 
1684 104 130 128 101 
1685 60 131 142 337 
1686 30 379 41 375 
1687 188 205 136 345 
1688 18 155 44 358 
1689 108 102 31 379 
1690 295 294 293 354 
1691 392 372 25 101 
1692 157 140 207 350 
1693 381 394 343 48 
1694 394 377 49 71 
1695 79 383 57 58 
1696 3 181 180 325 
1697 67 380 45 68 
1698 375 128 120 109 
1699 57 78 376 79 
1700 118 406 33 129 
1701 393 5 105 11 
1702 121 102 116 104 
1703 123 102 124 116 
1704 374 24 25 110 
1705 46 45 380 68 
1706 120 373 119 40 
1707 377 72 49 71 
1708 77 55 56 395 
1709 70 71 394 48 
1710 23 22 105 406 
1711 70 381 47 48 
1712 395 233 376 78 
1713 109 108 128 104 
1714 71 49 394 48 
1715 32 379 407 31 
1716 128 120 41 375 
1717 55 177 190 352 
1718 36 120 130 101 
1719 378 73 51 72 
1720 407 365 32 9 
1721 381 47 69 70 
1722 32 17 43 122 
1723 403 51 378 73 
1724 40 41 120 396 
1725 77 56 78 395 
1726 30 109 408 29 
1727 74 403 73 52 
1728 382 76 54 75 
1729 116 128 121 104 
1730 53 382 54 75 
1731 23 105 107 371 
1732 378 73 213 403 
1733 172 378 353 333 
1734 59 174 131 346 
1735 42 365 9 99 
1736 52 74 397 53 
1737 53 74 397 75 
1738 32 123 17 122 
1739 116 102 100 104 
1740 410 326 359 22 
1741 410 390 406 22 
1742 372 104 130 374 
1743 395 404 77 55 
1744 109 128 120 101 
1745 55 77 76 404 
1746 42 41 31 379 
1747 393 5 11 126 
1748 57 376 383 79 
1749 109 373 29 103 
1750 161 162 163 348 
1751 85 370 222 86 
1752 404 54 382 76 
1753 309 345 332 350 
1754 384 92 219 91 
1755 402 17 18 80 
1756 35 36 372 111 
1757 41 128 375 121 
1758 374 35 25 113 
1759 398 47 69 381 
1760 172 150 171 353 
1761 383 198 57 58 
1762 32 379 31 102 
1763 378 403 213 333 
1764 30 379 375 108 
1765 68 380 46 398 
1766 130 120 128 101 
1767 67 11 5 399 
1768 120 388 103 101 
1769 69 46 47 398 
1770 69 68 46 398 
1771 171 150 189 353 
1772 373 396 40 120 
1773 393 406 126 33 
1774 24 110 374 409 
1775 402 383 80 58 
1776 399 367 11 5 
1777 67 5 45 399 
1778 22 23 390 406 
1779 16 79 80 383 
1780 9 407 31 32 
1781 120 103 109 101 
1782 399 367 5 349 
1783 35 372 25 111 
1784 395 404 211 77 
1785 22 2 359 390 
1786 110 116 100 104 
1787 43 42 365 122 
1788 74 213 73 403 
1789 272 20 389 84 
1790 409 11 100 124 
1791 167 177 199 356 
1792 59 325 3 346 
1793 399 380 349 45 
1794 2 4 21 359 
1795 128 116 130 104 
1796 133 199 177 356 
1797 2 21 1 359 
1798 172 378 51 50 
1799 80 18 402 58 
1800 278 14 7 363 
1801 363 38 405 39 
1802 59 3 37 346 
1803 174 13 208 346 
1804 405 39 28 363 
1805 80 43 16 383 
1806 13 59 346 174 
1807 13 346 59 37 
1808 405 387 106 28 
1809 410 118 37 13 
1810 109 408 375 30 
1811 322 410 346 13 
1812 21 410 346 326 
1813 346 410 37 13 
1814 178 397 53 52 
1815 178 397 52 333 
1816 259 360 344 236 
1817 259 360 236 235 
1818 354 289 344 295 
1819 354 344 289 316 
1820 339 239 240 219 
1821 339 240 239 317 
1822 368 366 317 218 
1823 368 93 218 239 
1824 345 147 321 137 
1825 345 321 147 331 
1826 410 5 349 22 
1827 126 400 33 34 
1828 410 406 118 129 
1829 51 378 172 333 
1830 341 21 132 185 
1831 341 21 185 325 
1832 366 218 94 230 
1833 366 302 284 94 
1834 219 368 339 239 
1835 219 368 239 92 
1836 202 343 326 161 
1837 103 387 119 373 
1838 386 286 360 96 
1839 235 386 96 217 
1840 242 362 90 220 
1841 242 342 250 339 
1842 171 320 170 169 
1843 171 335 138 353 
1844 259 360 235 313 
1845 236 360 344 385 
1846 361 387 119 103 
1847 351 342 247 319 
1848 184 320 183 162 
1849 184 320 162 341 
1850 350 188 203 207 
1851 350 203 188 345 
1852 145 318 187 191 
1853 145 337 340 66 
1854 174 318 175 131 
1855 174 318 131 346 
1856 188 63 345 203 
1857 345 63 188 205 
1858 372 104 374 25 
1859 374 25 104 110 
1860 409 11 371 107 
1861 409 11 107 100 
1862 60 19 337 204 
1863 60 337 19 182 
1864 137 64 345 136 
1865 137 345 64 135 
1866 405 39 38 125 
1867 330 383 16 358 
1868 26 103 388 101 
1869 120 388 101 36 
1870 32 127 17 123 
1871 32 127 123 10 
1872 32 127 10 18 
1873 32 127 18 17 
1874 383 376 226 79 
1875 145 337 66 142 
1876 145 337 142 187 
1877 226 376 383 347 
1878 40 41 396 276 
1879 359 1 22 326 
1880 410 390 22 359 
1881 22 359 2 1 
1882 3 410 359 118 
1883 410 326 322 346 
1884 410 401 406 390 
1885 360 304 301 286 
1886 386 306 286 297 
1887 235 386 217 313 
1888 360 97 286 301 
1889 96 360 97 286 
1890 386 313 338 217 
1891 360 304 286 313 
1892 119 387 15 373 
1893 361 387 103 106 
1894 125 119 12 361 
1895 357 391 248 88 
1896 357 287 88 299 
1897 6 361 106 27 
1898 88 299 87 357 
1899 283 342 303 362 
1900 283 342 362 339 
1901 391 220 248 89 
1902 391 220 89 362 
1903 89 90 303 362 
1904 362 283 90 303 
1905 38 14 363 279 
1906 279 363 38 27 
1907 279 363 27 7 
1908 363 14 7 279 
1909 389 256 272 84 
1910 316 364 389 289 
1911 289 316 364 327 
1912 364 300 289 327 
1913 300 289 85 364 
1914 6 361 103 106 
1915 85 289 84 364 
1916 365 9 99 358 
1917 365 16 43 358 
1918 43 365 42 16 
1919 383 79 80 58 
1920 387 361 405 106 
1921 284 366 95 338 
1922 284 94 95 366 
1923 396 29 40 276 
1924 18 367 10 358 
1925 367 329 224 10 
1926 400 33 393 126 
1927 367 329 10 358 
1928 10 11 367 117 
1929 367 11 10 224 
1930 368 317 288 339 
1931 368 366 218 93 
1932 288 92 368 290 
1933 92 368 93 288 
1934 368 302 93 288 
1935 368 290 339 288 
1936 389 369 298 20 
1937 301 369 282 344 
1938 369 298 20 282 
1939 301 369 98 282 
1940 369 20 98 282 
1941 370 285 300 327 
1942 285 327 370 357 
1943 300 370 86 285 
1944 87 285 370 357 
1945 87 86 370 285 
1946 395 323 352 347 
1947 24 23 371 112 
1948 371 105 11 393 
1949 23 105 371 393 
1950 395 233 78 211 
1951 400 371 393 112 
1952 372 36 130 101 
1953 372 104 25 101 
1954 35 36 130 372 
1955 130 35 372 374 
1956 275 40 373 29 
1957 373 15 119 40 
1958 373 15 40 275 
1959 373 8 275 29 
1960 35 116 34 374 
1961 371 126 393 11 
1962 130 116 35 374 
1963 374 104 116 110 
1964 116 104 374 130 
1965 397 74 254 75 
1966 396 375 120 109 
1967 375 120 41 396 
1968 226 233 376 347 
1969 376 395 78 56 
1970 376 395 56 347 
1971 376 78 233 79 
1972 376 233 226 79 
1973 52 74 403 397 
1974 394 214 351 377 
1975 377 252 72 214 
1976 394 214 377 71 
1977 214 72 377 71 
1978 77 395 78 211 
1979 213 252 378 333 
1980 50 377 378 72 
1981 213 252 73 378 
1982 252 73 378 72 
1983 379 123 32 122 
1984 375 379 41 121 
1985 108 102 379 121 
1986 122 42 379 121 
1987 42 41 379 121 
1988 380 326 195 202 
1989 397 254 212 75 
1990 380 215 274 349 
1991 67 215 380 68 
1992 254 397 212 314 
1993 67 380 215 274 
1994 398 216 343 381 
1995 381 394 48 70 
1996 381 255 70 216 
1997 216 381 69 70 
1998 398 216 381 69 
1999 397 133 53 382 
2000 251 382 314 212 
2001 4 401 33 118 
2002 212 76 382 75 
2003 53 397 382 75 
2004 251 76 382 212 
2005 383 155 198 58 
2006 402 155 383 58 
2007 402 155 58 18 
2008 372 104 101 130 
2009 370 364 327 300 
2010 370 364 300 85 
2011 52 397 403 333 
2012 68 215 380 253 
2013 85 300 370 86 
2014 384 362 339 283 
2015 384 362 283 90 
2016 283 384 290 339 
2017 283 91 290 384 
2018 91 283 90 384 
2019 385 360 301 97 
2020 369 385 344 301 
2021 369 385 301 98 
2022 98 97 385 301 
2023 385 360 344 301 
2024 95 386 297 338 
2025 297 95 96 386 
2026 386 286 96 297 
2027 386 306 297 338 
2028 253 215 380 311 
2029 363 38 27 405 
2030 363 14 39 278 
2031 74 254 213 403 
2032 382 404 76 251 
2033 404 251 382 352 
2034 3 410 118 37 
2035 3 410 37 346 
2036 404 77 251 211 
2037 277 8 15 387 
2038 277 28 8 387 
2039 387 39 15 277 
2040 395 404 55 352 
2041 361 119 12 388 
2042 290 92 384 91 
2043 397 314 254 333 
2044 12 119 36 388 
2045 289 389 344 298 
2046 359 3 4 21 
2047 389 369 20 81 
2048 84 298 389 289 
2049 389 369 81 344 
2050 389 20 298 84 
2051 404 77 76 251 
2052 251 404 211 352 
2053 365 99 16 358 
2054 16 365 42 99 
2055 23 2 390 114 
2056 384 368 290 339 
2057 384 368 92 290 
2058 359 2 114 390 
2059 114 359 390 401 
2060 375 396 41 276 
2061 408 375 396 109 
2062 396 29 408 109 
2063 113 24 25 374 
2064 113 34 24 374 
2065 397 212 382 75 
2066 391 342 287 357 
2067 88 89 287 391 
2068 357 287 391 88 
2069 391 303 89 287 
2070 391 303 287 342 
2071 111 36 372 392 
2072 111 26 36 392 
2073 25 26 111 392 
2074 111 372 25 392 
2075 112 33 393 400 
2076 371 393 126 400 
2077 393 23 33 112 
2078 280 361 6 27 
2079 23 393 371 112 
2080 109 108 375 128 
2081 109 375 108 30 
2082 30 379 108 31 
2083 375 128 108 121 
2084 30 379 31 41 
2085 108 379 375 121 
2086 366 292 302 317 
2087 94 302 93 366 
2088 368 302 317 366 
2089 212 397 382 314 
2090 381 255 394 70 
2091 368 302 366 93 
2092 394 255 343 351 
2093 70 71 255 394 
2094 394 214 71 255 
2095 394 214 255 351 
2096 381 255 343 394 
2097 403 74 254 397 
2098 403 51 73 52 
2099 403 397 254 333 
2100 403 51 52 333 
2101 395 323 211 352 
$EndElements
