<?xml version="1.0" encoding="UTF-8" standalone="no"?>
<svg
   xmlns:svg="http://www.w3.org/2000/svg"
   xmlns="http://www.w3.org/2000/svg"
   width="600.0"
   height="400.0"

>
    <g transform="scale(6.488433981419366, -6.488433981419366)   translate(54.037883406116784,-26.200466936524485)" stroke-width="0.15412039374426165"  fill="none">
       <!-- hidden lines -->
       <g  stroke="rgb(160,160,160)" fill="none" stroke-dasharray="0.15412039374426165,0.15412039374426165" >

       </g>

       <!-- solid lines -->
       <g  stroke="rgb(0,0,0)" fill="none">
			<path d="M6.045762979144987,20.103426620127323 L5.842772334588321,20.197821952595632 L5.63895111160808,20.2900182109172 L5.434320951086661,20.38000560608009 L5.228903579796047,20.4677745836002 L5.022720808090966,20.553315824535705 L4.815794527593141,20.636620246476493 L4.6081467088669354,20.717679004508536 L4.399799399086655,20.79648349215294 L4.190774719695588,20.87302534227981 L3.981094864057278,20.947296427996623 L3.7707820950991886,21.019288863511047 L3.55985874294882,21.088995004968318 L3.3483472025628407,21.15640745126276 L3.136269931349286,21.221519044823626 L2.923649446783111,21.284322872375085 L2.710508324015394,21.344812265670175 L2.4968691934763863,21.402980802198904 L2.2827547384727147,21.45882230587007 L2.0681876927789515,21.512330847667087 L1.8531908382239022,21.56350074627746 L1.6377870022716132,21.61232656869602 L1.4219990555977178,21.658803130801786 L1.2058499096611628,21.70292549790835 L0.9893625142714633,21.74468898528789 L0.7725598551520647,21.784089158668515 L0.5554649514997851,21.821121834705103 L0.3381008535407506,21.855783081423475 L0.1204906400830017,21.888069218637863 L-0.09734258393390705,21.917976818341664 L-0.3153756898920934,21.945502705071405 L-0.5335855279510728,21.970643956243915 L-0.7519489295056296,21.99339790246661 L-0.9704427096458714,22.013762127820943 L-1.1890436696188618,22.031734470118888 L-1.4077285992917006,22.047313021132542 L-1.626474279615991,22.060496126796714 L-1.845257485093071,22.07128238738455 L-2.0640549862400155,22.079670657656145 L-2.2828435520560424,22.085660046980163 L-2.5015999524890873,22.089249919428358 L-2.7203009609022724,22.090439893843143 L-2.938923356540011,22.089229843878027 L-3.1574439269935075,22.085619898011036 L-3.3758394706652863,22.079610439531077 L-3.594086799232742,22.071202106497243 L-3.812162740110132,22.060395791671063 L-4.030044138908877,22.047192642421706 L-4.24770786189612,22.031594060604167 L-4.465130798450892,22.013601702410437 L-4.682289863517913,21.993217478193625 L-4.899162000058672,21.97044355226513 L-5.115724181499525,21.94528234266488 L-5.33195341417656,21.91773652090455 L-5.547826739776968,21.887809011683938 L-5.763321237776682,21.855502992580416 L-5.978414027873899,21.820821893711575 L-6.193082272418537,21.78376939737099 L-6.407303178836974,21.74434943763728 L-6.621054002052025,21.702566199956404 L-6.834312046898017,21.658424120697244 L-7.047054670530402,21.611927886680608 L-7.2592592848298905,21.563082434681544 L-7.470903358800772,21.511892950905242 L-7.68196442096297,21.458364870436384 " />
			<path d="M-7.681964420963157,21.458364870436334 L-7.932536835175333,21.39157217794422 L-8.182212804023148,21.321480615534682 L-8.43095472722407,21.248100738739197 L-8.67872514515941,21.171443598297298 L-8.925486744515599,21.091520738492374 L-9.171202363903435,21.00834419541313 L-9.41583499945445,20.921926495141005 L-9.65934781039356,20.832280651863794 L-9.90170412458715,20.739420165915746 L-10.142867444065754,20.643359021744477 L-10.382801450520532,20.544111685804967 L-10.621470010772656,20.44169310438094 L-10.858837182214847,20.336118701334033 L-11.094867218224186,20.227404375781013 L-11.32952457354544,20.11556649969943 L-11.562773909644035,20.000621915462045 L-11.794580100027913,19.88258793330045 L-12.02490823553745,19.761482328698193 L-12.253723629602655,19.637323339713856 L-12.48099182346683,19.510129664234505 L-12.706678591375937,19.379920457159795 L-12.930749945732867,19.246715327517375 L-13.153172142215858,19.1105343355098 L-13.37391168486025,18.971397989493553 L-13.592935331102868,18.829327242890564 L-13.810210096788218,18.684343491032685 L-14.025703261135781,18.53646856793966 L-14.239382371667663,18.38572474303098 L-14.451215249095783,18.232134717772194 L-14.661169992167988,18.07572162225616 L-14.869214982472245,17.916509011719732 L-15.075318889198261,17.754520862996422 L-15.279450673855795,17.58978157090559 L-15.481579594948933,17.42231594457867 L-15.681675212605647,17.252149203722993 L-15.879707393161928,17.07930697482381 L-16.075646313699803,16.903815287285042 L-16.269462466538556,16.72570056950931 L-16.46112666367849,16.54498964491796 L-16.6506100411965,16.36170972791152 L-16.837884063592917,16.175888419771344 L-17.02292052808881,15.987553704502924 L-17.205691568873245,15.796733944621645 L-17.386169661299764,15.603457876881437 L-17.564327626031503,15.407754607947194 L-17.740138633134286,15.20965361001135 L-17.913576206117128,15.009184716355527 L-18.084614225919484,14.80637811685773 L-18.253226934844708,14.601264353445856 L-18.419388940439045,14.393874315498207 L-18.583075219315635,14.184239235191665 L-18.744261120922967,13.97239068279822 L-18.90292237125715,13.758360561930626 L-19.059035076517485,13.542181104737821 L-19.212575726704788,13.323884867050873 L-19.36352119916191,13.103504723480246 L-19.51184876205591,12.881073862464918 L-19.657536077801417,12.656625781274405 L-19.800561206424558,12.430194280964148 L-19.94090260886705,12.20181346128521 L-20.078539150229897,11.971517715548991 L-20.213450102956248,11.73934172544769 L-20.345615149952852,11.505320455831415 L-20.475014387649775,11.269489149442578 L-20.60162832899779,11.031883321608458 L-20.72543790640306,10.792538754892744 L-20.84642447459862,10.551491493706804 L-20.964569813452332,10.308777838881538 L-21.079856130710738,10.06443434220059 L-21.19226606467851,9.818497800895784 L-21.301782686833075,9.571005252105627 L-21.40838950437397,9.321993967297606 L-21.5120704627066,9.071501446655292 L-21.61280994786001,8.8195654134309 L-21.710592788838284,8.566223808264342 L-21.80540425990524,8.311514783469493 L-21.897230082802096,8.055476697288595 L-21.986056428897665,7.7981481081156385 L-22.07186992127097,7.539567768689629 L-22.154657636725695,7.279774620258554 L-22.234407107736416,7.018807786714963 L-22.311106324326136,6.756706568704087 L-22.384743735874967,6.493510437705269 L-22.45530825285958,6.2292590300877295 L-22.522789248523274,5.963992141141459 L-22.587176560476326,5.697749719084206 L-22.648460492226384,5.430571859045415 L-22.706631814638744,5.162498797028052 L-22.761681767326227,4.893570903849203 L-22.813602059968453,4.62382867906039 L-22.862384873560313,4.3533127448484725 L-22.908022861589526,4.082063839918108 L-22.950509151142967,3.810122813356646 L-22.9898373439417,3.5375306184824167 L-23.026001517304554,3.264328306677289 L-23.058996225040044,2.9905570212045074 L-23.088816498266542,2.7162579910126485 L-23.115457846160595,2.4414725245267137 L-23.138916256633202,2.16624200342721 L-23.159188196934036,1.890607876418237 L-23.176270614183448,1.6146116529854615 L-23.190160935832235,1.3382948971449482 L-23.200857070049054,1.0616992211837453 L-23.208357406035436,0.7848662793932537 L-23.21266081426836,0.5078377617962355 L-23.21376664667039,0.23065538786845274 L-23.211674736707216,-0.046639099744142376 L-23.2063853994128,-0.3240039415116802 L-23.197899431341874,-0.6013973673092214 L-23.18621811045002,-0.8787776027071732 L-23.171343195901198,-1.1561028752623705 L-23.153276927802818,-1.4333314208088532 L-23.132022026868402,-1.7104214897473822 L-23.10758169400786,-1.98733135333279 L-23.079959609845417,-2.264019309958182 L-23.04915993416534,-2.540443691435022 L-23.0151873052855,-2.8165628692682336 L-22.97804683935885,-3.0923352609252808 L-22.93774412960294,-3.367719336098351 L-22.894285245457617,-3.642673622958662 L-22.847676731670973,-3.917156714401977 L-22.797925607313754,-4.191127274284352 L-22.745039364722285,-4.464544043647213 L-22.689025968370167,-4.737365846930802 L-22.629893853668854,-5.009551598175061 L-22.567651925697323,-5.28106030720702 L-22.50230955786098,-5.551851085813795 L-22.433876590480075,-5.821883153900175 L-22.362363329307772,-6.091115845629961 L-22.28778054397817,-6.359508615550094 L-22.21013946638439,-6.627021044696651 L-22.129451788987133,-6.893612846681794 L-22.045729663053827,-7.159243873760742 L-21.95898569682868,-7.42387412287788 L-21.86923295363394,-7.687463741691081 L-21.7764849499026,-7.949973034573313 L-21.680755653142853,-8.211362468590652 L-21.58205947983468,-8.471592679455798 L-21.480411293258747,-8.730624477456201 L-21.375826401258067,-8.988418853355874 L-21.268320553932675,-9.24493698427005 L-21.15790994126774,-9.500140239511756 L-21.04461119069541,-9.75399018640947 L-20.92844136459077,-10.006448596094925 L-20.809417957702337,-10.257477449260234 L-20.687558894517377,-10.50703894188346 L-20.56288252656257,-10.75509549092178 L-20.43540762964034,-11.00160973997133 L-20.305153401001277,-11.24654456489296 L-20.1721394564531,-11.489863079402971 L-20.036385827406583,-11.731528640628072 L-19.89791295785893,-11.971504854623669 L-19.75674170131495,-12.209755581854626 L-19.612893317646613,-12.446244942637781 L-19.46638946989138,-12.680937322545278 L-19.317252220989833,-12.913797377767969 L-19.16550403046309,-13.144790040438062 L-19.011167751030477,-13.373880523910215 L-18.854266625167988,-13.601034328000276 L-18.69482428160803,-13.826217244180896 L-18.532864731781086,-14.049395360733177 L-18.368412366199617,-14.270535067853688 L-18.20149195078498,-14.489603062715949 L-18.032128623137755,-14.706566354485721 L-17.860347888752116,-14.92139226928933 L-17.686175617174808,-15.134048455134186 L-17.509638038109266,-15.344502886780921 L-17.330761737465544,-15.552723870566242 L-17.149573653356562,-15.758680049175878 L-16.966101072041326,-15.962340406366906 L-16.78037162381571,-16.16367427163865 L-16.59241327885146,-16.36265132485157 L-16.402254342983955,-16.55924160079334 L-16.209923453449484,-16.753415493691524 L-16.015449574572553,-16.945143761672075 L-15.818861993404,-17.134397531163074 L-15.620190315310431,-17.32114830124296 L-15.419464459515806,-17.505367947932683 L-15.21671465459567,-17.687028728431063 L-15.011971433924883,-17.866103285292763 L-14.805265631079369,-18.042564650548208 L-14.596628375192708,-18.216386249764856 L-14.386091086268204,-18.38754190604925 L-14.173685470447165,-18.556005843989094 L-13.959443515234044,-18.721752693535002 L-13.743397484679237,-18.884757493821102 L-13.525579914520282,-19.04499569692404 L-13.306023607282047,-19.202443171559832 L-13.084761627336805,-19.357076206717938 L-12.86182729592487,-19.50887151523205 L-12.63725418613654,-19.65780623728705 L-12.411076117856101,-19.803857943861626 L-12.183327152668689,-19.947004640105984 L-11.954041588730732,-20.087224768654206 L-11.723253955604788,-20.224497212870702 L-11.49099900905949,-20.358801300030297 L-11.2573117258355,-20.490116804431487 L-11.022227298378091,-20.61842395044231 L-10.78578112953733,-20.743703415478542 L-10.548008827236536,-20.865936332913552 L-10.30894619910984,-20.985104294919577 L-10.068629247109683,-21.101189355239892 L-9.827094162085094,-21.214174031891393 L-9.584377318331443,-21.324041309797366 L-9.340515268112611,-21.430774643349892 L-9.095544736156365,-21.534357958901523 L-8.849502614123747,-21.63477565718596 L-8.602425955053324,-21.73201261566719 L-8.354351967781124,-21.826054190816937 L-8.105318011337152,-21.916886220319903 L-7.855361589319221,-22.00449502520655 L-7.604520344245082,-22.088867411913096 L-7.352832051883573,-22.169990674268476 L-7.1003346155657425,-22.247852595407753 L-6.8470660604767435,-22.322441449612008 L-6.593064527929371,-22.393746004074167 L-6.338368269620141,-22.46175552059059 L-6.083015641868707,-22.526459757178255 L-5.827045099841546,-22.587848969617138 L-5.570495191760757,-22.64591391291765 L-5.313404553098831,-22.70064584271291 L-5.055811900760296,-22.752036516575604 L-4.797756027251081,-22.800078195259292 L-4.53927579483656,-22.84476364386386 L-4.280410129688954,-22.88608613292512 L-4.021198016025241,-22.92403943942822 L-3.7616784902363047,-22.9586178477448 L-3.5018906350081282,-22.989816150493755 L-3.241873573436135,-23.017629649325457 L-2.981666463133382,-23.042054155629273 L-2.721308490333562,-23.063085991164407 L-2.460838863989708,-23.080721988613774 L-2.200296809869461,-23.094959492061047 L-1.939721564647827,-23.105796357390563 L-1.6791523699982627,-23.11323095261027 L-1.4186284666830355,-23.117262158097475 L-1.1581890886437016,-23.117889366767454 L-0.8978734570926215,-23.115112484164893 L-0.6377207746063907,-23.108931928478096 L-0.37777021922207576,-23.09934863047602 L-0.11806093853714539,-23.08636403336809 L0.14136795618601883,-23.069980092586867 L0.4004773959101222,-23.050199275493572 L0.6592283597066231,-23.0270245610065 L0.9175818806321347,-23.000459439152404 L1.175499051596706,-22.970507910540928 L1.432941031223092,-22.937174485762107 L1.6898690496960855,-22.900464184707097 L1.9462444146011728,-22.860382535812217 L2.2020285167514295,-22.816935575226353 L2.457182836001903,-22.77012984590196 L2.7116689470506525,-22.71997239660971 L2.9654485252254297,-22.66647078087697 L3.218483352255234,-22.609633055850274 L3.47073532202585,-22.549467781081944 L3.722166446318398,-22.48598401724109 " />
			<path d="M3.7221664463184885,-22.485984017241066 L3.9202128692585347,-22.433486060136723 L4.117704636366028,-22.378927485080318 L4.314623181897959,-22.322313420996963 L4.510949993998551,-22.26364919004353 L4.706666616439495,-22.202940307108314 L4.901754650354997,-22.140192479292622 L5.096195755971433,-22.075411605374217 L5.289971654331405,-22.008603775252823 L5.483064129012088,-21.939775269377613 L5.675455027837737,-21.86893255815681 L5.867126264586137,-21.79608230134939 L6.058059820688843,-21.72123134743906 L6.248237746925033,-21.644386732990395 L6.437642165108903,-21.565555681987398 L6.626255269770354,-21.484745605154348 L6.814059329828849,-21.401964099259164 L7.001036690260232,-21.31721894639923 L7.187169773756462,-21.23051811326984 L7.372441082378039,-21.14186975041524 L7.556833199198909,-21.051282191462434 L7.740328789943792,-20.958763952337755 L7.922910604617744,-20.864323730466314 L8.104561479127806,-20.767970403954337 L8.285264336896542,-20.66971303075459 L8.46500219046736,-20.569560847814866 L8.643758143101472,-20.46752327020963 L8.821515390366333,-20.363609890254896 L8.998257221715381,-20.25783047660652 L9.173967022058925,-20.15019497334188 L9.348628273326122,-20.040713499025017 L9.522224556017811,-19.929396345755425 L9.69473955075005,-19.816253978200518 L9.86615703978827,-19.701297032611887 L10.036460908571847,-19.584536315825392 L10.205635147229044,-19.465982804245225 L10.37366385208203,-19.345647642812075 L10.54053122714193,-19.223542143955388 L10.7062215855938,-19.099677786529952 L10.870719351271298,-18.974066214736737 L11.034009060120976,-18.846719237028292 L11.196075361655986,-18.717648824998673 L11.356903020399166,-18.586867112257984 L11.516476917315298,-18.454386393291735 L11.674782051232423,-18.320219122305073 L11.831803540252013,-18.184377912051993 L11.987526623148037,-18.046875532649647 L12.141936660754617,-17.907724910377844 L12.295019137342223,-17.766939126463853 L12.446759661982238,-17.62453141585273 L12.59714396989984,-17.480515165963098 L12.746157923815012,-17.334903915428608 L12.89378751527153,-17.187711352825232 L13.040018865953872,-17.038951315384427 L13.184838228991875,-16.888637787692318 L13.328231990253087,-16.73678490037505 L13.470186669622564,-16.58340692877038 L13.6106889222701,-16.428518291585732 L13.74972553990476,-16.272133549542684 L13.887283452016577,-16.114267404008153 L14.023349727105245,-15.95493469561236 L14.157911573895792,-15.794150402853717 L14.290956342541069,-15.631929640690705 L14.422471525810924,-15.468287659120973 L14.55244476026797,-15.303239841747704 L14.680863827429867,-15.136801704333438 L14.807716654917936,-14.968988893341473 L14.932991317592045,-14.799817184464994 L15.05667603867169,-14.629302481144034 L15.178759190843074,-14.4574608130704 L15.299229297352188,-14.284308334680789 L15.418075033083706,-14.109861323638137 L15.535285225625639,-13.934136179301367 L15.650848856319605,-13.757149421183785 L15.764755061296679,-13.578917687400075 L15.876993132498704,-13.399457733102173 L15.9875525186849,-13.218786428904197 L16.096422826423776,-13.036920759296455 L16.203593821070175,-12.853877821048789 L16.309055427727436,-12.669674821603316 L16.412797732194505,-12.484329077456808 L16.514810981897924,-12.297858012532854 L16.61508558680866,-12.110279156543818 L16.713612120343672,-11.921610143342928 L16.81038132025203,-11.731868709266557 L16.905384089485672,-11.541072691466898 L16.99861149705458,-11.34924002623511 L17.090054778866374,-11.156388747315168 L17.17970533855021,-10.962536984208537 L17.267554748264867,-10.767702960469938 L17.353594749491094,-10.571904991994051 L17.437817253807896,-10.375161485293843 L17.520214343652967,-10.177490935770093 L17.600778273066982,-9.978911925972753 L17.67950146842178,-9.779443123853993 L17.756376529132325,-9.57910328101331 L17.831396228352435,-9.37791123093474 L17.904553513654182,-9.1758858872163 L17.975841507690834,-8.973046241792012 L18.0452535088434,-8.76941136314655 L18.112782991850615,-8.5650003945226 L18.178423608422396,-8.359832552121272 L18.242169187836613,-8.153927123295615 L18.304013737519178,-7.947303464737479 L18.363951443607384,-7.739981000657835 L18.421976671496502,-7.531979220960702 L18.47808396636942,-7.323317679410993 L18.53226805370948,-7.114015991796334 L18.584523839796276,-6.90409383408298 L18.634846412184547,-6.693570940566144 L18.683231040165968,-6.482467102014818 L18.729673175213875,-6.270802163811285 L18.77416845141085,-6.058596024085531 L18.816712685859176,-5.845868631844595 L18.85730187907404,-5.632639985097264 L18.89593221535952,-5.418930128974135 L18.932600063167275,-5.204759153843162 L18.967301975437987,-4.990147193421025 L19.000034689925346,-4.775114422880417 L19.030795129502792,-4.559681056953402 L19.05958040245272,-4.343867348031122 L19.086387802738386,-4.127693584259826 L19.111214810258264,-3.9111800876336966 L19.134059091082946,-3.694347212084449 L19.154918497674572,-3.4772153415678524 L19.173791069088697,-3.259804888147497 L19.190675031158666,-3.0421362900759057 L19.205568796662348,-2.824230009873186 L19.218470965471397,-2.6061065324034045 L19.238295848733113,-2.1692900252821836 L19.250142226353823,-1.7318510212790945 L19.25400564383627,-1.2939540070334787 L19.249884648450916,-0.8557636414065308 L19.23778078978224,-0.41744469356598723 L19.217698619145985,0.020838018970670946 L19.189645687877846,0.45891969231126883 L19.153632544493938,0.8966355981587697 L19.109672730724355,1.3338211457526759 L19.057782776421195,1.7703119437588082 L18.997982193342946,2.2059438620840712 L18.93029346781762,2.640553093592928 L18.85474205228747,3.0739762157024275 L18.771356355738263,3.5060502518327166 L18.680167733016876,3.93661273268983 L18.581210473041217,4.36550175735767 L18.474521785906813,4.792556054176251 L18.360141788895035,5.217615041383416 L18.23811349138808,5.6405188874971275 L18.10848277869652,6.061108571415567 L17.971298394805448,6.479225942212514 L17.826611924045622,6.8947137786055865 L17.674477771696676,7.30741584807493 L17.51495314352949,7.717176965610019 L17.34809802429563,8.12384305206259 L17.17397515517174,8.527261192083795 L16.992650010167466,8.927279691623776 L16.80419077150581,9.323748134971895 L16.608668303985155,9.716517441316304 L16.406156128332505,10.105439920801624 L16.19673039355809,10.490369330063611 L15.980469848321686,10.87116092721981 L15.757455811321396,11.247671526295644 L15.52777214071605,11.619759551065515 L15.410456085129333,11.804101308794673 L15.291505202592646,11.987285088288582 L15.170930675402591,12.169293668864938 L15.048743838490854,12.350109940319184 L14.924956178358613,12.529716904532973 L14.799579331996696,12.708097677072132 L14.672625085791683,12.88523548877392 L14.544105374417843,13.061113687323452 L14.414032279715176,13.235715738819177 L14.282418029553646,13.409025229327176 L14.149274996683701,13.581025866424154 L14.014615697573076,13.751701480729112 L13.878452791230194,13.921036027423368 L13.740799078014103,14.08901358775889 L13.60166749843114,14.255618370554798 L13.461071131918459,14.420834713681813 L13.319023195614394,14.5846470855347 L13.175537043116003,14.7470400864923 L13.030626163223735,14.907998450365175 L12.88430417867334,15.06750704583083 L12.736584844855244,15.225550877856122 L12.587482048521437,15.382115089106923 L12.437009806480022,15.537184961344833 L12.28518226427752,15.690745916810767 L12.132013694869055,15.842783519595445 L11.977518497276604,15.99328347699644 L11.821711195235414,16.142231640861773 L11.66460643582861,16.28961400891998 L11.506218988110282,16.435416726096438 L11.346563741717063,16.579626085815853 L11.185655705468417,16.722228531290742 L11.023510005955679,16.863210656795914 L10.860141886120001,17.00255920892872 L10.695566703819448,17.140261087854945 L10.529799930385252,17.276303348540292 L10.362857149167354,17.41067320196733 L10.194754054069447,17.543358016337766 L10.025506448073656,17.674345318259906 L9.85513024175491,17.803622793921274 L9.683641451785261,17.93117829024618 L9.511056199428133,18.05699981603825 L9.337390709022834,18.181075543107646 L9.162661306459388,18.303393807383 L8.986884417643704,18.423943110007965 L8.810076566953459,18.542712118422163 L8.632254375684646,18.65968966742656 L8.453434560489082,18.774864760233054 L8.273633931802904,18.88822656949827 L8.092869392266216,18.999764438341426 L7.911157935134149,19.109467881346152 L7.728516642679395,19.217326585546182 L7.544962684586286,19.323330411394867 L7.360513316336743,19.427469393718376 L7.175185877588106,19.52973374265249 L6.988997790543104,19.630113844562935 L6.801966558312017,19.728600262949104 L6.6141097632672246,19.825183739331237 L6.425445065390345,19.919855194120696 L6.235990200612109,20.012605727473574 L6.045762979145163,20.10342662012724 " />
			<path d="M10.005560953789653,21.131045766932054 L9.802570309232987,21.225441099400363 L9.598749086252745,21.31763735772193 L9.394118925731327,21.40762475288482 L9.188701554440712,21.49539373040493 L8.982518782735632,21.580934971340437 L8.775592502237807,21.664239393281225 L8.567944683511602,21.745298151313268 L8.35959737373132,21.824102638957672 L8.150572694340253,21.90064448908454 L7.940892838701943,21.974915574801354 L7.730580069743854,22.04690801031578 L7.519656717593485,22.11661415177305 L7.308145177207506,22.18402659806749 L7.0960679059939515,22.249138191628358 L6.8834474214277765,22.311942019179817 L6.670306298660059,22.372431412474906 L6.456667168121052,22.430599949003636 L6.24255271311738,22.4864414526748 L6.027985667423617,22.53994999447182 L5.812988812868568,22.59111989308219 L5.597584976916279,22.63994571550075 L5.381797030242383,22.686422277606518 L5.165647884305828,22.73054464471308 L4.949160488916129,22.772308132092622 L4.73235782979673,22.811708305473246 L4.515262926144451,22.848740981509835 L4.297898828185416,22.883402228228206 L4.080288614727667,22.915688365442595 L3.8624553907107586,22.945595965146396 L3.6444222847525722,22.973121851876137 L3.426212446693593,22.998263103048647 L3.207849045139036,23.021017049271343 L2.9893552649987942,23.041381274625675 L2.770754305025804,23.05935361692362 L2.552069375352965,23.074932167937273 L2.3333236950286746,23.088115273601446 L2.1145404895515947,23.09890153418928 L1.8957429884046502,23.107289804460876 L1.6769544225886233,23.113279193784894 L1.4581980221555784,23.11686906623309 L1.2394970137423933,23.118059040647875 L1.0208746181046549,23.116848990682758 L0.8023540476511581,23.113239044815767 L0.5839585039793793,23.10722958633581 L0.36571117541192355,23.098821253301974 L0.14763523453453398,23.088014938475794 L-0.07024616426421093,23.074811789226437 L-0.28790988725145383,23.0592132074089 L-0.5053328238062267,23.04122084921517 L-0.7224918888732474,23.020836624998356 L-0.9393640254140057,22.998062699069862 L-1.1559262068548588,22.97290148946961 L-1.372155439531894,22.945355667709283 L-1.5880287651323026,22.91542815848867 L-1.8035232631320162,22.883122139385147 L-2.018616053229233,22.848441040516306 L-2.2332842977738716,22.81138854417572 L-2.447505204192309,22.77196858444201 L-2.66125602740736,22.730185346761136 L-2.8745140722533513,22.686043267501976 L-3.0872566958857366,22.63954703348534 L-3.299461310185225,22.590701581486275 L-3.5111053841561066,22.539512097709974 L-3.7221664463183046,22.485984017241115 " />
			<path d="M7.681964420963154,-21.458364870436334 L7.8800108439032,-21.40586691333199 L8.077502611010694,-21.351308338275587 L8.274421156542624,-21.29469427419223 L8.470747968643217,-21.2360300432388 L8.66646459108416,-21.175321160303582 L8.861552624999662,-21.11257333248789 L9.055993730616098,-21.047792458569486 L9.24976962897607,-20.98098462844809 L9.442862103656754,-20.91215612257288 L9.635253002482402,-20.84131341135208 L9.826924239230802,-20.76846315454466 L10.017857795333509,-20.693612200634327 L10.208035721569699,-20.616767586185663 L10.397440139753568,-20.537936535182666 L10.58605324441502,-20.457126458349617 L10.773857304473514,-20.374344952454432 L10.960834664904898,-20.289599799594498 L11.146967748401128,-20.20289896646511 L11.332239057022704,-20.114250603610508 L11.516631173843574,-20.023663044657702 L11.700126764588457,-19.931144805533023 L11.88270857926241,-19.836704583661582 L12.064359453772472,-19.740351257149605 L12.245062311541208,-19.64209388394986 L12.424800165112025,-19.541941701010135 L12.603556117746137,-19.439904123404897 L12.781313365010998,-19.335990743450164 L12.958055196360046,-19.23021132980179 L13.13376499670359,-19.122575826537147 L13.308426247970788,-19.013094352220286 L13.482022530662476,-18.901777198950693 L13.654537525394716,-18.788634831395786 L13.825955014432935,-18.673677885807155 L13.996258883216512,-18.55691716902066 L14.16543312187371,-18.438363657440494 L14.333461826726696,-18.318028496007344 L14.500329201786595,-18.195922997150657 L14.666019560238466,-18.07205863972522 L14.830517325915963,-17.946447067932006 L14.993807034765641,-17.81910009022356 L15.155873336300651,-17.69002967819394 L15.316700995043831,-17.559247965453253 L15.476274891959964,-17.426767246487003 L15.634580025877089,-17.29259997550034 L15.791601514896678,-17.15675876524726 L15.947324597792703,-17.019256385844916 L16.101734635399282,-16.880105763573113 L16.25481711198689,-16.739319979659122 L16.406557636626903,-16.596912269047998 L16.556941944544505,-16.452896019158366 L16.705955898459678,-16.307284768623877 L16.853585489916195,-16.1600922060205 L16.999816840598537,-16.011332168579695 L17.14463620363654,-15.861018640887584 L17.288029964897753,-15.709165753570316 L17.42998464426723,-15.555787781965646 L17.570486896914765,-15.400899144780999 L17.709523514549428,-15.24451440273795 L17.847081426661244,-15.086648257203418 L17.98314770174991,-14.927315548807625 L18.117709548540457,-14.766531256048982 L18.250754317185734,-14.60431049388597 L18.38226950045559,-14.440668512316238 L18.512242734912636,-14.275620694942969 L18.640661802074533,-14.109182557528703 L18.7675146295626,-13.941369746536738 L18.89278929223671,-13.772198037660258 L19.016474013316355,-13.601683334339299 L19.13855716548774,-13.429841666265665 L19.259027271996853,-13.256689187876054 L19.377873007728372,-13.082242176833402 L19.495083200270305,-12.906517032496632 L19.61064683096427,-12.72953027437905 L19.724553035941344,-12.55129854059534 L19.83679110714337,-12.371838586297438 L19.947350493329566,-12.191167282099462 L20.05622080106844,-12.00930161249172 L20.16339179571484,-11.826258674244054 L20.268853402372102,-11.64205567479858 L20.37259570683917,-11.456709930652073 L20.47460895654259,-11.27023886572812 L20.574883561453326,-11.082660009739083 L20.673410094988338,-10.893990996538193 L20.770179294896696,-10.704249562461822 L20.865182064130337,-10.513453544662163 L20.958409471699245,-10.321620879430375 L21.04985275351104,-10.128769600510433 L21.139503313194876,-9.934917837403802 L21.227352722909533,-9.740083813665203 L21.31339272413576,-9.544285845189316 L21.397615228452562,-9.347542338489108 L21.480012318297632,-9.149871788965358 L21.560576247711648,-8.951292779168018 L21.639299443066445,-8.751823977049257 L21.71617450377699,-8.551484134208575 L21.7911942029971,-8.350292084130006 L21.864351488298848,-8.148266740411565 L21.9356394823355,-7.945427094987277 L22.005051483488064,-7.741792216341814 L22.07258096649528,-7.537381247717866 L22.13822158306706,-7.332213405316537 L22.201967162481278,-7.12630797649088 L22.263811712163843,-6.919684317932744 L22.32374941825205,-6.7123618538531 L22.381774646141167,-6.504360074155967 L22.437881941014087,-6.295698532606258 L22.492066028354145,-6.086396844991599 L22.54432181444094,-5.876474687278245 L22.594644386829213,-5.665951793761409 L22.643029014810633,-5.454847955210083 L22.68947114985854,-5.24318301700655 L22.733966426055517,-5.030976877280796 L22.776510660503842,-4.81824948503986 L22.817099853718705,-4.605020838292529 L22.855730190004184,-4.3913109821694 L22.89239803781194,-4.177140007038427 L22.927099950082653,-3.96252804661629 L22.959832664570012,-3.747495276075682 L22.990593104147457,-3.532061910148667 L23.019378377097386,-3.3162482012263865 L23.04618577738305,-3.100074437455091 L23.07101278490293,-2.8835609408289615 L23.09385706572761,-2.666728065279714 L23.114716472319238,-2.4495961947631173 L23.133589043733362,-2.2321857413427617 L23.15047300580333,-2.0145171432711706 L23.165366771307013,-1.796610863068451 L23.178268940116062,-1.5784873855986696 L23.19809382337778,-1.1416708784774487 L23.20994020099849,-0.7042318744743599 L23.213803618480934,-0.2663348602287441 L23.20968262309558,0.17185550539820382 L23.197578764426904,0.6101744532387474 L23.17749659379065,1.0484571657754056 L23.14944366252251,1.4865388391160035 L23.113430519138603,1.9242547449635043 L23.06947070536902,2.3614402925574103 L23.01758075106586,2.7979310905635426 L22.95778016798761,3.2335630088888054 L22.890091442462285,3.668172240397662 L22.814540026932136,4.101595362507163 L22.731154330382928,4.533669398637452 L22.639965707661542,4.964231879494565 L22.541008447685883,5.393120904162405 L22.434319760551478,5.820175200980986 L22.3199397635397,6.245234188188151 L22.197911466032746,6.668138034301863 L22.068280753341185,7.088727718220302 L21.931096369450113,7.506845089017249 L21.786409898690287,7.922332925410322 L21.63427574634134,8.335034994879665 L21.474751118174154,8.744796112414754 L21.307895998940296,9.151462198867325 L21.133773129816404,9.55488033888853 L20.95244798481213,9.95489883842851 L20.763988746150474,10.35136728177663 L20.56846627862982,10.744136588121039 L20.36595410297717,11.133059067606359 L20.156528368202757,11.517988476868346 L19.94026782296635,11.898780074024545 L19.71725378596606,12.275290673100379 L19.487570115360715,12.64737869787025 L19.370254059774,12.831720455599408 L19.25130317723731,13.014904235093317 L19.130728650047256,13.196912815669673 L19.00854181313552,13.37772908712392 L18.88475415300328,13.557336051337709 L18.759377306641362,13.735716823876867 L18.63242306043635,13.912854635578656 L18.503903349062508,14.088732834128187 L18.37383025435984,14.263334885623912 L18.242216004198312,14.43664437613191 L18.109072971328366,14.60864501322889 L17.974413672217743,14.779320627533847 L17.83825076587486,14.948655174228103 L17.700597052658768,15.116632734563625 L17.561465473075806,15.283237517359533 L17.420869106563124,15.448453860486548 L17.27882117025906,15.612266232339435 L17.13533501776067,15.774659233297035 L16.990424137868402,15.93561759716991 L16.844102153318005,16.095126192635565 L16.69638281949991,16.253170024660857 L16.547280023166103,16.409734235911657 L16.39680778112469,16.564804108149566 L16.244980238922185,16.7183650636155 L16.09181166951372,16.870402666400178 L15.93731647192127,17.020902623801174 L15.78150916988008,17.169850787666505 L15.624404410473275,17.31723315572471 L15.466016962754948,17.46303587290117 L15.306361716361728,17.607245232620585 L15.145453680113082,17.749847678095474 L14.983307980600344,17.890829803600646 L14.819939860764666,18.03017835573345 L14.655364678464114,18.167880234659677 L14.489597905029918,18.303922495345024 L14.32265512381202,18.438292348772062 L14.154552028714113,18.570977163142498 L13.985304422718322,18.701964465064638 L13.814928216399576,18.831241940726006 L13.643439426429927,18.95879743705091 L13.470854174072798,19.08461896284298 L13.2971886836675,19.208694689912377 L13.122459281104053,19.33101295418773 L12.94668239228837,19.451562256812696 L12.769874541598124,19.570331265226894 L12.592052350329311,19.68730881423129 L12.413232535133748,19.802483907037786 L12.233431906447569,19.915845716303 L12.052667366910882,20.027383585146158 L11.870955909778814,20.137087028150884 L11.68831461732406,20.244945732350914 L11.504760659230952,20.3509495581996 L11.320311290981408,20.455088540523107 L11.134983852232772,20.55735288945722 L10.94879576518777,20.657732991367666 L10.761764532956683,20.756219409753836 L10.57390773791189,20.85280288613597 L10.38524304003501,20.947474340925428 L10.195788175256775,21.040224874278305 L10.005560953789828,21.131045766931972 " />
			<path d="M1.272792206135787,7.842074698865171 L1.1079169118036494,7.917697722445211 L0.9417302469282878,7.9897399527836965 L0.7743027896478156,8.058170794125628 L0.6057056450548788,8.122961184443836 L0.4360104149989179,8.184083607781362 L0.2652891676774298,8.241512105937291 L0.09361440702916024,8.295222289490987 L-0.07894095805770363,8.345191348160073 L-0.25230364470936184,8.391398060487782 L-0.42640002718905734,8.433822802855536 L-0.6011561681653079,8.472447557816935 L-0.7764978501125124,8.507255921749628 L-0.9523506068305494,8.538233111821805 L-1.1286397550699507,8.565365972270325 L-1.3052904262492842,8.588642979987883 L-1.4822275982512458,8.608054249416776 L-1.659376127283922,8.623591536747215 L-1.836660779793771,8.635248243418404 L-2.0140062644167243,8.643019418920906 L-2.191337263953793,8.64690176289907 L-2.3685784673576915,8.646893626552682 L-2.545654601716834,8.642995013337178 L-2.7224904642231147,8.635207578962191 L-2.899010954109947,8.623534630688386 L-3.075141104546973,8.607981125922878 L-3.2508061144778466,8.588553670113873 L-3.425931380387648,8.565260513945386 L-3.600442527986404,8.538111549833237 L-3.774265443795228,8.507118307723832 L-3.9473263066217297,8.472293950197475 L-4.119551618911299,8.433653266878336 L-4.290868237960829,8.391212668153425 " />
			<path d="M0.3310702633162377,-9.418831814958141 L0.49137649011964557,-9.375443264478895 L0.6507534632570553,-9.328722545785569 L0.809141253498435,-9.278687226890929 L0.9664803035681682,-9.225356122169954 L1.1227114505398972,-9.168749285285223 L1.2777759480830775,-9.108888001646314 L1.4316154885528802,-9.045794780405991 L1.5841722249151502,-8.979493345996312 L1.735388792498148,-8.910008629207688 L1.8852083305629272,-8.837366757814378 L2.033574503684218,-8.761595046749868 L2.1804315229337754,-8.682721987835867 L2.32572416685824,-8.600777239068746 L2.4693978022436123,-8.515791613467487 L2.6113984046585386,-8.427797067487317 L2.751672578768677,-8.336826689003379 L2.890167578414515,-8.242914684868968 L3.026831326445073,-8.146096368052998 L3.161612434300064,-8.046408144361564 L3.294460221333105,-7.943887498748557 L3.425324733868758,-7.838572981220501 L3.5541567639862026,-7.7305041923409075 L3.6809078680224867,-7.619721768339594 L3.8055303847884114,-7.5062673658325725 L3.9279774534901777,-7.390183646158257 L4.04820303135007,-7.271514259335862 L4.16616191091955,-7.150303827652039 L4.281809737078243,-7.026597928881914 L4.395103023712437,-6.9004430791508655 L4.505999170066817,-6.77188671544342 L4.614456476763275,-6.640977177765922 L4.720434161480785,-6.5077636909696395 L4.8238923742904625,-6.3722963462411215 L4.924792212640002,-6.23462608226683 L5.023095735981878,-6.094804666079083 L5.118765980039841,-5.952884673590507 L5.211766970708279,-5.808919469824345 L5.302063737579276,-5.662963188848042 L5.389622327092251,-5.515070713417656 L5.474409815301232,-5.365297654340731 L5.556394320254986,-5.213700329565422 L5.635545013985338,-5.060335743003711 L5.711832134099145,-4.905261563096694 L5.785226994969623,-4.748536101129978 L5.855701998522756,-4.590218289307366 L5.923230644614794,-4.430367658591048 L5.987787540996866,-4.269044316316681 L6.049348412863036,-4.106308923591698 L6.107890111978158,-3.9422226724853937 L6.163390625382123,-3.776847263019378 L6.215829083667195,-3.6102448799670306 L6.265185768825393,-3.442478169470661 L6.311442121662873,-3.2736102154851574 L6.3545807487786,-3.103704516057065 L6.3945854291046444,-2.9328249594479407 L6.431441120005655,-2.761035800110962 L6.46513396293523,-2.5884016345298146 L6.495651288647025,-2.4149873769290324 L6.522981621958666,-2.240858234864836 L6.547114686066676,-2.06607968470565 L6.568041406410773,-1.8907174470115398 L6.585753914086103,-1.7148374618218576 L6.6002455488021265,-1.5385058638603646 L6.6115108613870195,-1.3617889576671043 L6.619545615836701,-1.1847531926664334 L6.624346790907651,-1.0074651381806004 L6.62591258125296,-0.8299914583982357 L6.624242398101188,-0.652398887307138 L6.619336869477756,-0.47475420360083853 L6.611197839968794,-0.29712420556835983 L6.599828370027518,-0.11957568597657597 L6.585232734823467,0.057824593045318506 L6.567416422634917,0.23500992510980967 L6.5463861327851784,0.4119136846541449 L6.522149773123505,0.5884693519930178 L6.4947164570515685,0.7646105383314092 L6.464096500096618,0.9402710107282106 L6.4303014160326235,1.1153847170012798 L6.393343912550828,1.289885810564515 L6.353237886481397,1.4637086751876043 L6.3099984185678935,1.6367879496691435 L6.263641767796601,1.8090585524138973 L6.21418536528277,1.980455705904917 L6.161647807716147,2.1509149610612894 L6.10604885036822,2.320372221472387 L6.047409399663799,2.4887637674995355 L5.985751505319731,2.6560262802360084 L5.921098352053736,2.8220968653163103 L5.853474250866444,2.986913076565809 L5.782904629899935,3.1504129394818934 L5.709416024876175,3.312534974537744 L5.633036069119029,3.4732182202999775 L5.5537934831635205,3.6324022563514564 L5.4717180639562795,3.7900272260107046 L5.38684067365123,3.9460338588393506 L5.299193228004759,4.100363492929088 L5.208808684374686,4.252958096959823 L5.115721029327583,4.403760292020739 L5.019965265859067,4.5527133731860365 L4.921577400231911,4.699761330837204 L4.820594428436921,4.844848871723862 L4.717054322281614,4.987921439755234 L4.610996015111985,5.128925236514452 L4.502459387172722,5.267807241487925 L4.391485250611376,5.404515232002196 L4.278115334132085,5.538997802860826 L4.162392267304659,5.671204385673885 L4.044359564534945,5.801085267872762 L3.924061608702455,5.928591611403162 L3.801543634471441,6.053675471089299 L3.6768517112816403,6.176289812662349 L3.550032726025186,6.296388530446337 L3.4211343654161017,6.413926464694884 L3.290205098059064,6.528859418572267 L3.157294156224116,6.6411441747724025 L3.02245151733428,6.750738511769494 L2.8857278851729578,6.857601219694236 L2.7471746708181892,6.961692115829643 L2.606843973310951,7.062972059720633 L2.464788560064784,7.161402967891687 L2.3210618470241076,7.256947828167065 L2.1757178785786437,7.349570713588198 L2.028811307241528,7.439236795923024 L1.8803973730987815,7.52591235876215 L1.730531883037846,7.609564810196956 L1.5792711897629546,7.690162695074881 L1.4266721706052725,7.7676757068272435 L1.272792206135858,7.842074698865139 " />
			<path d="M-7.247844507162109,5.630858499044269 L-7.412719801494247,5.706481522624308 L-7.578906466369609,5.778523752962794 L-7.746333923650081,5.8469545943047265 L-7.914931068243018,5.911744984622935 L-8.084626298298978,5.972867407960461 L-8.255347545620467,6.03029590611639 L-8.427022306268736,6.084006089670085 L-8.5995776713556,6.133975148339172 L-8.772940358007258,6.180181860666881 L-8.947036740486954,6.2226066030346345 L-9.121792881463204,6.261231357996033 L-9.29713456341041,6.296039721928727 L-9.472987320128446,6.327016912000904 L-9.649276468367848,6.354149772449423 L-9.825927139547181,6.3774267801669815 L-10.002864311549143,6.396838049595875 L-10.180012840581819,6.4123753369263135 L-10.357297493091668,6.424032043597503 L-10.53464297771462,6.431803219100004 L-10.71197397725169,6.435685563078168 L-10.889215180655588,6.435677426731781 L-11.06629131501473,6.431778813516276 L-11.24312717752101,6.42399137914129 L-11.419647667407844,6.412318430867485 L-11.59577781784487,6.396764926101977 L-11.771442827775743,6.3773374702929715 L-11.946568093685544,6.354044314124485 L-12.121079241284301,6.326895350012336 L-12.294902157093125,6.295902107902931 L-12.467963019919626,6.2610777503765735 L-12.640188332209195,6.2224370670574345 L-12.811504951258726,6.179996468332524 " />
			<path d="M-12.8115049512588,6.179996468332504 L-13.014248789327167,6.124519149165314 L-13.215478460624684,6.063711195042675 L-13.415072751921821,5.997609234402395 L-13.612911435080814,5.926253084593853 L-13.808875339476593,5.8496857278935135 L-14.002846423780714,5.767953285614016 L-14.194707847065033,5.681104990322419 L-14.384344039182329,5.589193156184335 L-14.571640770381423,5.492273147451847 L-14.756485220114916,5.390403345114139 L-14.938766044998069,5.283645111730987 L-15.11837344587789,5.172062754470232 L-15.295199233972042,5.0557234863715514 L-15.469136896037721,4.934697385859849 L-15.640081658531244,4.80905735453261 L-15.807930550719725,4.678879073246722 L-15.972582466706783,4.5442409565311594 L-16.133938226334955,4.40522410535298 L-16.291900634928126,4.261912258265163 L-16.446374541837955,4.114391740965617 L-16.597266897759066,3.962751414297819 L-16.744486810778483,3.807082620724353 L-16.887945601125516,3.647479129305638 L-17.02755685458912,3.484037079216945 L-17.163236474570617,3.3168549218377574 L-17.29490273274031,3.1460333614483353 L-17.422476318267606,2.971675294569229 L-17.54588038559486,2.793885747980257 L-17.66504060072629,2.6127718154563038 L-17.77988518600399,2.4284425932580396 L-17.890344963344106,2.2410091144164017 L-17.99635339590712,2.050584281850454 L-18.097846628177173,1.85728280035889 L-18.19476352442622,1.6612211075261545 L-18.287045705539914,1.4625173035847912 L-18.374637584183006,1.2612910802762807 L-18.457486398283073,1.0576636487532083 L-18.535542242812422,0.8517576665662077 L-18.608758099849,0.6436971637796232 L-18.677089866898243,0.4336074682604525 L-18.740496383458776,0.22161513018551382 L-18.79893945581594,0.007847845812364085 L-18.85238388004828,-0.20756561944016427 L-18.900797463233047,-0.4244955085554336 L-18.944151042838037,-0.6428111510797723 L-18.982418504287992,-0.862381041833473 L-19.01557679669504,-1.0830729201245899 L-19.043605946743707,-1.3047538494178395 L-19.06648907072208,-1.5272902974106022 L-19.08421238469193,-1.7505482164677821 L-19.096765212791645,-1.9743931243670882 L-19.104139993666948,-2.198690185306101 L-19.10633228502561,-2.42330429112232 L-19.103340766313284,-2.6481001426772637 L-19.095167239508985,-2.8729423313556133 L-19.081816628039633,-3.097695420630303 L-19.063296973814364,-3.3222240276444097 L-19.03961943238039,-3.546392904760733 L-19.01079826620331,-3.770067021029913 L-18.97685083607594,-3.9931116435280227 L-18.937797590660807,-4.2153924185146465 L-18.893662054172655,-4.4367754523625464 L-18.844470812208332,-4.657127392210176 L-18.79025349573262,-4.87631550628846 L-18.731042763229645,-5.094207763873449 L-18.666874281030633,-5.310672914816693 L-18.597786701829854,-5.525580568605415 L-18.52382164140166,-5.738801272904886 L-18.445023653532722,-5.9502065915356726 L-18.361440203184493,-6.159669181838787 L-18.273121637902072,-6.36706287138214 L-18.180121157486735,-6.572262733962103 L-18.08249478195038,-6.775145164854373 L-17.98030131777114,-6.975587955268841 L-17.873602322470582,-7.173470365963601 L-17.76246206753374,-7.3686731999737525 L-17.646947499694388,-7.561078874411191 L-17.52712820060882,-7.750571491292147 L-17.403076344942477,-7.937036907349798 L-17.27486665689461,-8.120362802789897 L-17.142576365187235,-8.300438748948032 L-17.006285156545424,-8.477156274807712 L-16.866075127697002,-8.650408932339248 L-16.722030735920562,-8.82009236062008 L-16.57423874817154,-8.986104348697884 L-16.42278818881706,-9.148344897158628 L-16.26777028601097,-9.306716278362487 L-16.109278416741432,-9.461123095311308 L-15.947408050584103,-9.611472339112208 L-15.782256692194832,-9.757673445002638 L-15.613923822576504,-9.89963834690322 L-15.442510839155403,-10.037281530465467 L-15.268120994703203,-10.170520084582405 L-15.090859335141346,-10.299273751331139 L-14.910832636265312,-10.423464974317238 L-14.728149339426867,-10.543018945391779 L-14.542919486213062,-10.657863649713 L-14.355254652161282,-10.767929909125339 L-14.165267879550317,-10.873151423829766 L-13.973073609307924,-10.973464812320312 L-13.778787612075895,-11.068809649562706 L-13.582526918474143,-11.159128503392168 L-13.38440974860583,-11.24436696910839 L-13.184555440846005,-11.324473702246896 L-12.983084379956631,-11.399400449507027 L-12.7801179245713,-11.469102077817928 L-12.57577833409333,-11.533536601525011 L-12.370188695051276,-11.592665207680561 L-12.163472846956205,-11.64645227942319 L-11.955755307705406,-11.694865417432107 L-11.747161198577466,-11.73787545944326 L-11.53781616886388,-11.77545649781559 L-11.327846320182642,-11.80758589513683 L-11.117378130519318,-11.834244297859428 L-10.906538378041448,-11.855415647958402 L-10.695454064732118,-11.871087192604104 L-10.484252339888712,-11.881249491844034 L-10.273060423532938,-11.885896424289127 L-10.062005529778233,-11.885025190801032 L-9.851214790200743,-11.87863631617823 L-9.640815177260016,-11.866733648839897 L-9.430933427815543,-11.849324358507763 L-9.2216959667852,-11.826418931887357 L-9.01322883099162,-11.798031166351178 L-8.805657593242316,-11.764178161627704 L-8.599107286689328,-11.724880309501135 L-8.393702329513903,-11.680161281528148 L-8.189566449981696,-11.630048014779053 " />
			<path d="M-8.189566449981658,-11.630048014779042 L-8.029260223178252,-11.586659464299796 L-7.869883250040841,-11.53993874560647 L-7.711495459799462,-11.48990342671183 L-7.554156409729728,-11.436572321990855 L-7.397925262757999,-11.379965485106124 L-7.242860765214819,-11.320104201467215 L-7.089021224745016,-11.257010980226893 L-6.936464488382747,-11.190709545817214 L-6.7852479207997485,-11.12122482902859 L-6.635428382734969,-11.04858295763528 L-6.487062209613678,-10.97281124657077 L-6.340205190364121,-10.893938187656769 L-6.194912546439657,-10.811993438889647 L-6.051238911054284,-10.727007813288388 L-5.909238308639358,-10.639013267308219 L-5.768964134529219,-10.54804288882428 L-5.6304691348833815,-10.454130884689869 L-5.493805386852824,-10.3573125678739 L-5.359024278997833,-10.257624344182465 L-5.226176491964791,-10.155103698569459 L-5.095311979429138,-10.049789181041405 L-4.966479949311694,-9.941720392161809 L-4.83972884527541,-9.830937968160496 L-4.715106328509485,-9.717483565653474 L-4.592659259807719,-9.60139984597916 L-4.472433681947827,-9.482730459156764 L-4.354474802378347,-9.361520027472942 L-4.238826976219654,-9.237814128702816 L-4.12553368958546,-9.111659278971768 L-4.01463754323108,-8.983102915264322 L-3.906180236534622,-8.852193377586826 L-3.8002025518171116,-8.718979890790543 L-3.6967443390074335,-8.583512546062025 L-3.5958445006578943,-8.445842282087732 L-3.497540977316019,-8.306020865899985 L-3.401870733258056,-8.16410087341141 L-3.308869742589617,-8.020135669645247 L-3.2185729757186206,-7.874179388668944 L-3.1310143862056456,-7.7262869132385585 L-3.0462268979966645,-7.576513854161633 L-2.9642423930429107,-7.424916529386325 L-2.885091699312558,-7.271551942824614 L-2.8088045791987506,-7.116477762917596 L-2.735409718328273,-6.95975230095088 L-2.66493471477514,-6.801434489128268 L-2.597406068683102,-6.64158385841195 L-2.53284917230103,-6.480260516137584 L-2.4712883004348605,-6.3175251234126 L-2.412746601319739,-6.153438872306296 L-2.357246087915774,-5.98806346284028 L-2.3048076296307016,-5.821461079787933 L-2.2554509444725035,-5.653694369291563 L-2.2091945916350237,-5.48482641530606 L-2.1660559645192965,-5.314920715877967 L-2.1260512841932524,-5.144041159268843 L-2.089195593292242,-4.9722519999318635 L-2.055502750362667,-4.799617834350716 L-2.024985424650872,-4.626203576749934 L-1.9976550913392312,-4.452074434685738 L-1.9735220272312208,-4.277295884526552 L-1.9525953068871242,-4.101933646832442 L-1.9348827992117936,-3.9260536616427597 L-1.9203911644957703,-3.7497220636812667 L-1.9091258519108774,-3.5730051574880064 L-1.9010910974611956,-3.3959693924873355 L-1.8962899223902454,-3.2186813380015025 L-1.8947241320449368,-3.041207658219138 L-1.8963943151967086,-2.86361508712804 L-1.9012998438201407,-2.6859704034217406 L-1.909438873329103,-2.508340405389262 L-1.9208083432703784,-2.330791885797478 L-1.9354039784744295,-2.1533916067755836 L-1.9532202906629799,-1.9762062747110924 L-1.9742505805127184,-1.7993025151667572 L-1.9984869401743914,-1.6227468478278844 L-2.0259202562463283,-1.4466056614894929 L-2.056540213201279,-1.2709451890926915 L-2.0903352972652733,-1.0958314828196223 L-2.1272928007470693,-0.9213303892563871 L-2.1673988268165,-0.7475075246332978 L-2.2106382947300034,-0.5744282501517586 L-2.2569949455012956,-0.40215764740700477 L-2.306451348015127,-0.23076049391598508 L-2.35898890558175,-0.06030123875961246 L-2.414587862929677,0.10915602165148464 L-2.473227313634098,0.2775475676786332 L-2.5348852079781654,0.4448100804151065 L-2.59953836124416,0.610880665495408 L-2.6671624624314516,0.7756968767449073 L-2.7377320833979617,0.939196739660991 L-2.811220688421721,1.1013187747168423 L-2.8876006441788675,1.2620020204790752 L-2.9668432301343755,1.421186056530554 L-3.0489186493416174,1.5788110261898023 L-3.1337960396466666,1.7348176590184483 L-3.221443485293138,1.889147293108186 L-3.3118280289232107,2.0417418971389205 L-3.404915683970314,2.192544092199837 L-3.5006714474388296,2.341497173365134 L-3.599059313065985,2.488545131016302 L-3.7000422848609746,2.6336326719029595 L-3.803582391016282,2.7767052399343317 L-3.909640698185912,2.91770903669355 L-4.018177326125174,3.056591041667023 L-4.1291514626865204,3.1932990321812937 L-4.242521379165812,3.3277816030399237 L-4.358244445993238,3.459988185852983 L-4.476277148762952,3.5898690680518595 L-4.596575104595441,3.7173754115822595 L-4.719093078826456,3.842459271268397 L-4.843785002016256,3.9650736128414463 L-4.97060398727271,4.085172330625435 L-5.099502347881795,4.202710264873982 L-5.230431615238833,4.317643218751365 L-5.36334255707378,4.4299279749515 L-5.498185195963616,4.539522311948591 L-5.634908828124939,4.646385019873334 L-5.773462042479707,4.750475916008741 L-5.913792739986945,4.851755859899731 L-6.0558481532331125,4.950186768070784 L-6.199574866273789,5.045731628346163 L-6.344918834719253,5.138354513767296 L-6.4918254060563685,5.228020596102121 L-6.640239340199114,5.314696158941247 L-6.79010483026005,5.398348610376054 L-6.941365523534942,5.478946495253979 L-7.093964542692624,5.556459507006341 L-7.247844507162038,5.630858499044237 " />
			<path d="M-3.7221664463184965,22.48598401724107 L-7.681964420963164,21.458364870436334 " />
			<path d="M7.681964420963162,-21.458364870436338 L3.722166446318495,-22.485984017241073 " />
			<path d="M-8.18956644998166,-11.630048014779042 L0.3310702633162408,-9.41883181495814 " />
			<path d="M-12.811504951258806,6.179996468332503 L-4.290868237960906,8.391212668153406 " />

       </g>
    </g>
    
</svg>
