<svg xmlns="http://www.w3.org/2000/svg" viewBox="0 0 200 200"><path fill="#4ec9ff" d="M 194 138 C 194 138 194 137 194 137 C 194 137 194 137 194 137 C 193 136 193 136 193 136 C 193 136 193 136 193 136 C 193 136 193 136 193 136 C 193 136 193 136 193 136 C 193 136 193 136 193 136 C 193 136 193 136 193 136 C 193 136 193 136 193 136 C 193 136 193 136 193 136 C 193 136 193 136 193 136 C 193 136 193 136 193 136 C 193 136 193 136 193 136 C 193 136 193 136 193 136 C 193 136 193 136 193 136 C 193 136 193 136 193 136 C 193 136 193 136 193 136 C 193 136 193 136 193 136 C 193 136 193 136 193 136 C 193 136 193 136 193 136 C 193 136 193 136 193 136 C 193 136 193 136 193 136 C 193 136 193 136 193 136 C 193 136 193 136 193 136 C 193 136 193 136 193 136 C 193 136 193 136 193 136 C 193 136 193 136 193 136 C 193 136 193 136 193 136 C 193 136 193 136 193 136 C 193 136 193 136 193 136 C 193 136 193 136 193 136 C 193 136 193 136 193 136 C 193 136 193 136 193 136 C 193 136 193 136 193 136 C 193 136 193 136 193 136 C 193 136 193 136 193 136 C 193 136 193 136 193 136 C 193 136 193 136 193 136 C 193 136 193 136 193 136 C 193 136 193 136 193 136 C 193 136 193 136 193 136 C 193 136 193 136 193 136 C 193 136 193 136 193 136 C 193 136 193 136 193 136 C 193 136 193 136 193 136 C 193 136 193 136 193 136 C 193 136 193 136 193 136 C 193 136 193 136 193 136 C 193 136 193 136 193 136 C 193 136 193 136 193 136 C 193 136 193 136 193 136 C 193 136 193 136 193 136 C 193 136 193 136 193 136 C 193 136 193 136 193 136 C 193 136 193 136 193 136 C 193 136 193 136 193 136 C 193 136 193 136 193 136 C 193 136 193 136 193 136 C 193 136 193 136 193 136 C 193 136 193 136 193 136 C 193 136 193 136 193 136 C 193 136 193 136 193 136 C 193 136 193 136 193 136 C 193 136 193 136 193 136 C 193 136 193 136 193 136 C 193 136 193 136 193 136 C 193 136 193 136 193 136 C 193 136 193 136 193 136 C 193 136 193 136 193 136 C 193 136 193 136 193 136 C 193 136 193 136 193 136 C 193 136 193 136 193 136 C 193 136 193 136 193 136 C 193 136 193 136 193 136 C 193 136 193 136 193 136 C 193 136 193 136 193 136 C 193 136 193 136 193 136 C 193 136 193 136 193 136 C 193 136 193 136 193 136 C 193 136 193 136 193 136 C 193 136 193 136 193 136 C 193 136 193 136 193 136 C 193 136 193 136 193 136 C 193 136 193 136 193 136 C 193 136 193 136 193 136 C 193 136 193 136 193 136 C 193 136 193 136 193 136 C 193 136 193 136 193 136 C 193 136 193 136 193 136 C 193 136 193 136 193 136 C 193 136 193 136 193 136 C 193 136 193 136 193 136 C 193 136 193 136 193 136 C 193 136 193 136 193 136 C 193 136 193 136 193 136 C 193 136 193 136 193 136 C 193 136 193 136 193 136 C 193 136 193 136 193 136 C 193 136 193 136 193 136 C 193 136 193 136 193 136 C 193 136 193 136 193 136 C 193 136 193 136 193 136 C 193 136 193 136 193 136 C 193 136 193 136 193 136 C 193 136 193 136 193 136 C 193 136 193 136 193 136 C 193 136 193 136 193 136 C 193 136 193 136 193 136 C 193 136 193 136 193 136 C 193 136 193 136 193 136 C 193 136 193 136 193 136 C 193 136 193 136 193 136 C 193 136 193 136 193 136 C 193 136 193 136 193 136 C 193 136 193 136 193 136 C 193 136 193 136 193 136 C 193 136 193 136 193 136 C 193 136 193 136 193 136 C 193 136 193 136 193 136 C 193 136 193 136 193 136 C 193 136 193 136 193 136 C 193 136 193 136 193 136 C 193 136 193 136 193 136 C 193 136 193 136 193 136 C 193 136 193 136 193 136 C 193 136 193 136 193 136 C 193 136 193 136 193 136 C 193 136 193 136 193 136 C 193 136 193 136 193 136 C 193 136 193 136 193 136 C 193 136 193 136 193 136 C 193 136 193 136 193 136 C 193 136 193 136 193 136 C 193 136 193 136 193 136 C 193 136 193 136 193 136 C 193 136 193 136 193 136 C 193 136 193 136 193 136 C 193 136 193 136 193 136 C 193 136 193 136 193 136 C 193 136 193 136 193 136 C 193 136 193 136 193 136 C 193 136 193 136 193 136 C 193 136 193 136 193 136 C 193 136 193 136 193 136 C 193 136 193 136 193 136 C 193 136 193 136 193 136 C 193 136 193 136 193 136 C 193 136 193 136 193 136 C 193 136 193 136 193 136 C 193 136 193 136 193 136 C 193 136 193 136 193 136 C 193 136 193 136 193 136 C 193 136 193 136 193 136 C 193 136 193 136 193 136 C 193 136 193 136 193 136 C 193 136 193 136 193 136 C 193 136 193 136 193 136 C 193 136 193 136 193 136 C 193 136 193 136 193 136 C 193 136 193 136 193 136 C 193 136 193 136 193 136 C 193 136 193 136 193"/>
</svg>