<svg xmlns="http://www.w3.org/2000/svg" viewBox="0 0 200 200"><path fill="#e1d3ce" d="M 100 165 C 75 165 51 154 33 135 C 15 116 3 92 3 69 C 3 45 15 22 33 3 C 51 -11 75 -13 100 -13 C 125 -13 149 -11 167 3 C 185 22 197 45 197 69 C 197 92 185 116 167 135 C 149 154 125 165 100 165 L 100 165 M 100 12 C 77 12 55 21 40 37 C 24 53 16 75 17 97 C 19 119 30 139 48 151 C 66 163 89 169 111 165 C 133 161 153 149 166 131 C 179 113 185 91 183 69 C 183 32 145 12 100 12 L 100 12" /><path fill="#ff7878" d="M 100 162 C 107 162 113 161 119 159 L 119 143 L 81 143 L 81 159 C 87 161 93 162 100 162 L 100 162" /><path fill="#ffffff" d="M 100 165 C 75 165 51 154 33 135 C 15 116 3 92 3 69 C 3 45 15 22 33 3 C 51 -11 75 -13 100 -13 C 125 -13 149 -11 167 3 C 185 22 197 45 197 69 C 197 92 185 116 167 135 C 149 154 125 165 100 165 L 100 165 M 100 12 C 77 12 55 21 40 37 C 24 53 16 75 17 97 C 19 119 30 139 48 151 C 66 163 89 169 111 165 C 133 161 153 149 166 131 C 179 113 185 91 183 69 C 183 32 145 12 100 12 L 100 12" /><path fill="#ff4785" d="M 100 143 C 94 143 89 141 84 137 C 80 132 78 127 78 121 C 78 115 80 110 84 105 C 89 101 94 99 100 99 C 106 99 111 101 116 105 C 120 110 122 115 122 121 C 122 133 112 143 100 143 L 100 143" /></svg>