<svg xmlns="http://www.w3.org/2000/svg" viewBox="0 0 200 200"><path fill="#e8d4c0" d="M 157 96 L 157 96 C 157 96 157 96 157 96 L 157 96" /><path fill="#e8d4c0" d="M 144 180 L 56 180 C 51 180 47 176 47 171 L 47 167 C 47 162 51 158 56 158 L 144 158 C 149 158 153 162 153 167 L 153 171 C 153 176 149 180 144 180 L 144 180" /><path fill="#f7b030" d="M 144 162 C 144 162 144 162 144 162 L 144 162 C 146 162 147 164 147 165 L 147 170 C 147 171 146 173 144 173 L 56 173 C 54 173 53 171 53 170 L 53 165 C 53 164 54 162 56 162 L 56 162 C 56 162 56 162 56 162 L 144 162" /><path fill="#ffc4a4" d="M 144 162 L 56 162 C 54 162 53 164 53 165 L 53 167 C 53 169 54 170 56 170 L 144 170 C 146 170 147 169 147 167 L 147 165 C 147 164 146 162 144 162 L 144 162" /><path fill="#e8d4c0" d="M 181 50 L 19 50 C 15 50 12 47 12 43 L 12 39 C 12 35 15 32 19 32 L 181 32 C 185 32 188 35 188 39 L 188 43 C 188 47 185 50 181 50 L 181 50" /><path fill="#efcfa4" d="M 181 46 L 19 46 C 15 46 12 43 12 39 L 12 35 C 12 31 15 28 19 28 L 181 28 C 185 28 188 31 188 35 L 188 39 C 188 43 185 46 181 46 L 181 46" /><path fill="#efcfa4" d="M 147 162 L 53 162 C 52 162 51 162 50 161 C 49 160 49 159 49 158 C 49 157 49 156 50 155 C 51 154 52 154 53 154 L 147 154 C 148 154 149 154 150 155 C 151 156 151 157 151 158 C 151 159 151 160 150 161 C 149 162 148 162 147 162 L 147 162" /><path fill="#efcfa4" d="M 147 176 L 53 176 C 52 176 51 175 50 174 C 49 174 49 173 49 172 C 49 171 49 170 50 169 C 51 168 52 168 53 168 L 147 168 C 148 168 149 168 150 169 C 151 170 151 171 151 172 C 151 173 151 174 150 174 C 149 175 148 176 147 176 L 147 176" /><path fill="#efcfa4" d="M 147 184 L 53 184 C 52 184 51 184 50 183 C 49 182 49 181 49 180 C 49 179 49 178 50 177 C 51 176 52 176 53 176 L 147 176 C 148 176 149 176 150 177 C 151 178 151 179 151 180 C 151 181 151 182 150 183 C 149 184 148 184 147 184 L 147 184" /><path fill="#efcfa4" d="M 147 192 L 53 192 C 52 192 51 192 50 191 C 49 190 49 189 49 188 C 49 187 49 186 50 185 C 51 184 52 184 53 184 L 147 184 C 148 184 149 184 150 185 C 151 186 151 187 151 188 C 151 189 151 190 150 191 C 149 192 148 192 147 192 L 147 192" /><path fill="#efcfa4" d="M 147 192 L 53 192 C 52 192 51 192 50 191 C 49 190 49 189 49 188 C 49 187 49 186 50 185 C 51 184 52 184 53 184 L 147 184 C 148 184 149 184 150 185 C 151 186 151 187 151 188 C 151 189 151 190 150 191 C 149 192 148 192 147 192 L 147 192" /><path fill="#efcfa4" d="M 147 192 L 53 192 C 52 192 51 192 50 191 C 49 190 49 189 49 188 C 49 187 49 186 50 185 C 51 184 52 184 53 184 L 147 184 C 148 184 149 184 150 185 C 151 186 151 187 151 188 C 151 189 151 190 150 191 C 149 192 148 192 147 192 L 147 192" /><path fill="#efcfa4" d="M 147 192 L 53 192 C 52 192 51 192 50 191 C 49 190 49 189 49 188 C 49 187 49 186 50 185 C 51 184 52 184 53 184 L 147 184 C 148 184 149 184 150 185 C 151 186 151 187 151 188 C 151 189 151 190 150 191 C 149 192 148 192 147 192 L 147 192" /><path fill="#efcfa4" d="M 147 192 L 53 192 C 52 192 51 192 50 191 C 49 190 49 189 49 188 C 49 187 49 186 50 185 C 51 184 52 184 53 184 L 147 184 C 148 184 149 184 150 185 C 151 186 151 187 151 188 C 151 189 151 190 150 191 C 149 192 148 192 147 192 L 147 192" /><path fill="#efcfa4" d="M 147 192 L 53 192 C 52 192 51 192 50 191 C 49 190 49 189 49 188 C 49 187 49 186 50 185 C 51 184 52 184 53 184 L 147 184 C 148 184 149 184 150 185 C 151 186 151 187 151 188 C 151 189 151 190 150 191 C 149 192 148 192 147 192 L 147 192" /><path fill="#efcfa4" d="M 147 192 L 53 192 C 52 192 51 192 50 191 C 49 190 49 189 49 188 C 49 187 49 186 50 185 C 51 184 52 184 53 184 L 147 184 C 148 184 149 184 150 185 C 151 186 151 187 151 188 C 151 189 151 190 150 191 C 149 192 148 192 147 192 L 147 192" /><path fill="#efcfa4" d="M 147 192 L 53 192 C 52 192 51 192 50 191 C 49 190 49 189 49 188 C 49 187 49 186 50 185 C 51 184 52 184 53 184 L 147 184 C 148 184 149 184 150 185 C 151 186 151 187 151 188 C 151 189 151 190 150 191 C 149 192 148 192 147 192 L 147 192" /><path fill="#efcfa4" d="M 147 192 L 53 192 C 52 192 51 192 50 191 C 49 190 49 189 49 188 C 49 187 49 186 50 185 C 51 184 52 184 53 184 L 147 184 C 148 184 149 184 150 185 C 151 186 151 187 151 188 C 151 189 151 190 150 191 C 149 192 148 192 147 192 L 147 192" /><path fill="#efcfa4" d="M 147 192 L 53 192 C 52 192 51 192 50 191 C 49 190 49 189 49 188 C 49 187 49 186 50 185 C 51 184 52 184 53 184 L 147 184 C 148 184 149 184 150 185 C 151 186 151 187 151 188 C 151 189 151 190 150 191 C 149 192 148 192 147 192 L 147 192" /><path fill="#efcfa4" d="M 147 192 L 53 192 C 52 192 51 192 50 191 C 49 190 49 189 49 188 C 49 187 49 186 50 185 C 51 184 52 184 53 184 L 147 184 C 148 184 1"/>
</svg>