<svg xmlns="http://www.w3.org/2000/svg" viewBox="0 0 200 200"><path fill="#fcd53f" d="M 197 114 C 181 114 165 108 153 97 L 153 97 C 141 85 134 70 134 53 C 134 37 141 22 153 10 C 155 8 157 6 159 4 C 16" /><path fill="#e39d89" d="M 153 10 C 141 22 134 37 134 53 C 134 70 141 85 153 97 L 153 97 C 165 108 181 114 197 114 C 199 114 200 114 200 114 C 175 113 155 93 155 68 C 155 43 175 23 200 22 C 200 22 199 22 199 22 C 187 22 175 27 166 36 C 157 45 152 57 153 69 C 153 81 158 92 167 100 C 176 108 187 113 199 113 C 199 113 200 113 200 113 C 200 113 199 113 197 113 C 181 113 165 107 153 96 L 153 96 C 141 85 135 69 135 53 C 135 37 141 22 153 10 L 153 10" /></svg>