<svg xmlns="http://www.w3.org/2000/svg" viewBox="0 0 200 200"><path fill="#ffde76" d="M 196 171 L 4 171 C 2 171 0 173 0 175 L 0 183 C 0 185 2 187 4 187 L 196 187 C 198 187 200 185 200 183 L 200 175 C 200 173 198 171 196 171" /><path fill="#98d3bc" d="M 196 171 L 4 171 C 2 171 0 173 0 175 L 0 183 C 0 185 2 187 4 187 L 196 187 C 198 187 200 185 200 183 L 200 175 C 200 173 198 171 196 171" /><path fill="#ffba55" d="M 196 188 L 4 188 C 3 188 2 187 1 186 C 0 185 0 184 0 183 C 0 182 0 181 1 180 C 2 179 3 179 4 179 L 196 179 C 197 179 198 179 199 180 C 200 181 200 182 200 183 C 200 184 200 185 199 186 C 198 187 197 188 196 188" /><path fill="#ffcc66" d="M 196 179 L 4 179 C 3 179 2 179 1 180 C 0 181 0 182 0 183 L 0 188 C 0 190 2 192 4 192 L 196 192 C 198 192 200 190 200 188 L 200 183 C 200 182 200 181 199 180 C 198 179 197 179 196 179" /><path fill="#98d3bc" d="M 196 179 L 4 179 C 3 179 2 179 1 180 C 0 181 0 182 0 183 L 0 188 C 0 190 2 192 4 192 L 196 192 C 198 192 200 190 200 188 L 200 183 C 200 182 200 181 199 180 C 198 179 197 179 196 179" /><path fill="#ffba55" d="M 196 188 L 4 188 C 3 187 2 187 1 186 C 0 185 0 184 0 183 C 0 182 0 181 1 180 C 2 179 3 179 4 179 L 196 179 C 197 179 198 179 199 180 C 200 181 200 182 200 183 C 200 184 200 185 199 186 C 198 187 197 187 196 188" /><path fill="#ffde76" d="M 196 179 L 4 179 C 3 179 2 179 1 180 C 0 181 0 182 0 183 L 0 185 C 0 187 2 188 4 188 L 196 188 C 198 188 200 187 200 185 L 200 183 C 200 182 200 181 199 180 C 198 179 197 179 196 179" /><path fill="#c6c5ca" d="M 138 131 L 138 196 L 62 196 L 62 131 C 62 128 65 125 69 125 L 131 125 C 135 125 138 128 138 131 L 138 131" /><path fill="#dad7e5" d="M 138 131 L 138 188 L 75 188 C 72 188 69 185 69 181 L 69 125 L 131 125 C 135 125 138 128 138 131" /><path fill="#edebf2" d="M 138 131 L 138 181 L 88 181 C 84 181 81 178 81 175 L 81 125 L 131 125 C 135 125 138 128 138 131" /><path fill="#ffba55" d="M 19 69 L 25 69 L 25 12 C 25 9 22 6 19 6 C 15 6 12 9 12 12 L 12 69 C 12 72 15 75 19 75 L 25 75 C 22 75 19 72 19 69 L 19 69" /><path fill="#ffba55" d="M 50 69 L 56 69 L 56 12 C 56 9 53 6 50 6 C 47 6 44 9 44 12 L 44 69 C 44 72 47 75 50 75 L 56 75 C 53 75 50 72 50 69 L 50 69" /><path fill="#ffba55" d="M 81 69 L 88 69 L 88 12 C 88 9 85 6 81 6 C 78 6 75 9 75 12 L 75 69 C 75 72 78 75 81 75 L 88 75 C 85 75 81 72 81 69 L 81 69" /><path fill="#ffba55" d="M 112 69 L 119 69 L 119 12 C 119 9 116 6 112 6 C 109 6 106 9 106 12 L 106 69 C 106 72 109 75 112 75 L 119 75 C 115 75 112 72 112 69 L 112 69" /><path fill="#ffba55" d="M 144 69 L 150 69 L 150 12 C 150 9 147 6 144 6 C 140 6 138 9 138 12 L 138 69 C 138 72 140 75 144 75 L 150 75 C 147 75 144 72 144 69 L 144 69" /><path fill="#ffba55" d="M 175 69 L 181 69 L 181 12 C 181 9 178 6 175 6 C 172 6 169 9 169 12 L 169 69 C 169 72 172 75 175 75 L 181 75 C 178 75 175 72 175 69 L 175 69" /></svg>