<svg xmlns="http://www.w3.org/2000/svg" viewBox="0 0 200 200"><path fill="#ffac33" d="M 100 103 C 100 102 100 101 100 100 C 100 99 100 98 100 97 C 100 96 100 95 100 94 C 100 93 100 92 100 91 C 100 90 100 89 100 88 C 100 87 100 86 100 85 C 100 84 100 83 100 82 C 100 81 100 80 100 79 C 100 78 100 77 100 76 C 100 75 100 74 100 73 C 100 72 100 71 100 69 C 100 69 100 68 100 67 C 100 66 100 65 100 64 C 100 63 100 62 100 61 C 100 60 100 59 100 58 C 100 57 100 56 100 55 C 100 54 100 53 100 52 C 100 51 100 50 100 49 C 100 48 100 47 100 46 C 100 45 100 44 100 43 C 100 42 100 41 100 40 C 100 39 100 38 100 37 C 100 36 100 35 100 34 C 100 33 100 32 100 31 C 100 30 100 29 100 28 C 100 27 100 26 100 25 C 100 24 100 23 100 22 C 100 21 100 20 100 19 C 100 18 100 17 100 17 C 100 16 100 15 100 14 C 100 13 100 13 100 12 C 100 11 100 11 100 10 C 100 10 100 9 100 9 C 100 8 100 8 100 8 C 100 7 100 7 100 6 C 100 5 100 5 100 4 C 100 3 100 3 100 2 C 100 2 100 1 100 1 C 100 1 100 0 100 0 C 100 0 100 0 100 0 C 100 0 100 0 100 0 C 100 0 100 0 100 0 C 100 0 100 0 100 0 C 100 0 100 0 100 0 C 100 0 100 0 100 0 C 100 0 100 0 100 0 C 100 0 100 0 100 0 C 100 0 100 0 100 0 C 100 0 100 0 100 0 C 100 0 100 0 100 0 C 100 0 100 0 100 0 C 100 0 100 0 100 0 C 100 0 100 0 100 0 C 100 0 100 0 100 0 C 100 0 100 0 100 0 C 100 0 100 0 100 0 C 100 0 100 0 100 0 C 100 0 100 0 100 0 C 100 0 100 0 100 0 C 100 0 100 0 100 0 C 100 0 100 0 100 0 C 100 0 100 0 100 0 C 100 0 100 0 100 0 C 100 0 100 0 100 0 C 100 0 100 0 100 0 C 100 0 100 0 100 0 C 100 0 100 0 100 0 C 100 0 100 0 100 0 C 100 0 100 0 100 0 C 100 0 100 0 100 0 C 100 0 100 0 100 0 C 100 0 100 0 100 0 C 100 0 100 0 100 0 C 100 0 100 0 100 0 C 100 0 100 0 100 0 C 100 0 100 0 100 0 C 100 0 100 0 100 0 C 100 0 100 0 100 0 C 100 0 100 0 100 0 C 100 0 100 0 100 0 C 100 0 100 0 100 0 C 100 0 100 0 100 0 C 100 0 100 0 100 0 C 100 0 100 0 100 0 C 100 0 100 0 100 0 C 100 0 100 0 100 0 C 100 0 100 0 100 0 C 100 0 100 0 100 0 C 100 0 100 0 100 0 C 100 0 100 0 100 0 C 100 0 100 0 100 0 C 100 0 100 0 100 0 C 100 0 100 0 100 0 C 100 0 100 0 100 0 C 100 0 100 0 100 0 C 100 0 100 0 100 0 C 100 0 100 0 100 0 C 100 0 100 0 100 0 C 100 0 100 0 100 0 C 100 0 100 0 100 0 C 100 0 100 0 100 0 C 100 0 100 0 100 0 C 100 0 100 0 100 0 C 100 0 100 0 100 0 C 100 0 100 0 100 0 C 100 0 100 0 100 0 C 100 0 100 0 100 0 C 100 0 100 0 100 0 C 100 0 100 0 100 0 C 100 0 100 0 100 0 C 100 0 100 0 100 0 C 100 0 100 0 100 0 C 100 0 100 0 100 0 C 100 0 100 0 100 0 C 100 0 100 0 100 0 C 100 0 100 0 100 0 C 100 0 100 0 100 0 C 100 0 100 0 100 0 C 100 0 100 0 100 0 C 100 0 100 0 100 0 C 100 0 100 0 100 0 C 100 0 100 0 100 0 C 100 0 100 0 100 0 C 100 0 100 0 100 0 C 100 0 100 0 100 0 C 100 0 100 0 100 0 C 100 0 100 0 100 0 C 100 0 100 0 100 0 C 100 0 100 0 100 0 C 100 0 100 0 100 0 C 100 0 100 0 100 0 C 100 0 100 0 100 0 C 100 0 100 0 100 0 C 100 0 100 0 100 0 C 100 0 100 0 100 0 C 100 0 100 0 100 0 C 100 0 100 0 100 0 C 100 0 100 0 100 0 C 100 0 100 0 100 0 C 100 0 100 0 100 0 C 100 0 100 0 100 0 C 100 0 100 0 100 0 C 100 0 100 0 100 0 C 100 0 100 0 100 0 C 100 0 100 0 100 0 C 100 0 100 0 100 0 C 100 0 100 0 100 0 C 100 0 100 0 100 0 C 100 0 100 0 100 0 C 100 0 100 0 100 0 C 100 0 100 0 100 0 C 100 0 100 0 100 0 C 100 0 100 0 100 0 C 100 0 100 0 100 0 C 100 0 100 0 100 0 C 100 0 100 0 100 0 C 100 0 100 0 100 0 C 100 0 100 0 100 0 C 100 0 100 0 100 0 C 100 0 100 0 100 0 C 100 0 100 0 100 0 C 100 0 100 0 100 0 C 100 0 100 0 100 0 C 100 0 100 0 100 0 C 100 0 100 0 100 0 C 100 0 100 0 100 0 C 100 0 100 0 100 0 C 100 0 100 0 100 0 C 100 0 100 0 100 0 C 100 0 100 0 100 0 C 100 0 100 0 100 0 C 100 0 100 0 100 0 C 100 0 100 0 100 0 C 100 0 100 0 100 0 C 100 0 100 0 100 0 C 100 0 100 0 100 0 C 100 0 100 0 100 0 C 100 0 100 0 100 0 C 100 0 100 0 100 0 C 100 0 100 0 100 0 C 100 0 100 0 100 0 C 100 0 100 0 100 0 C 100 0 100 0 100 0 C 100 0 100 0 100 0 C 100 0 100 0 100 0 C 100 0 100 0 100 0 C 100 0 100 0 100 0 C 100 0 100 0 100 0 C 100 0 100 0 100 0 C 100 0 100 0 100 0 C 100 0 100 0 100 0 C 100 0 100 0 100 0 C 100 0 100 0 100 0 C 100 0 100 0 100 0 C 100 0 100 0 100 0 C 100 0 100 0 100 0 C 100 0 100 0 100 0 C 100 0 100 0 100 0 C 100 0 100 0 100 0 C 100 0 100 0 100 0 C 100 0 100 0 100 0 C 100 0 100 0 100 0 C 100 0 100 0 100 0 C 100 0 100 0 100 0 C 100 0 100 0 100 0 C 100 0 100 0 100 0 C 100 0 100 0 100 0 C 100 0 100 0"/>
</svg>