<svg xmlns="http://www.w3.org/2000/svg" viewBox="0 0 200 200"><path fill="#f4ecce" d="M 100 25 L 19 84 L 38 84 L 38 175 L 100 175 L 100 25" /><path fill="#c0bdba" d="M 100 175 L 162 175 L 162 84 L 181 84 L 100 25 L 100 175" /><path fill="#ffe45c" d="M 100 84 L 38 84 L 19 84 L 100 25 L 100 84" /><path fill="#fffae3" d="M 100 25 L 19 84 L 38 84 L 100 25" /><path fill="#c0bdba" d="M 100 175 L 162 175 L 162 84 L 181 84 L 100 25 L 100 175" /><path fill="#ffe45c" d="M 100 84 L 162 84 L 181 84 L 100 25 L 100 84" /><path fill="#d81e06" d="M 162 84 L 181 84 L 141 19 L 100 25 L 162 84" /><path fill="#c0bdba" d="M 162 84 L 181 84 L 141 19 L 100 25 L 162 84" /><path fill="#f4ecce" d="M 162 84 L 181 84 L 141 19 L 100 25 L 162 84" /><path fill="#fffae3" d="M 162 84 L 181 84 L 141 19 L 100 25 L 162 84" /><path fill="#c0bdba" d="M 162 84 L 181 84 L 141 19 L 100 25 L 162 84" /><path fill="#ffe45c" d="M 162 84 L 181 84 L 141 19 L 100 25 L 162 84" /><path fill="#d81e06" d="M 19 84 L 38 84 L 38 175 L 100 175 L 100 25 L 19 84" /><path fill="#c0bdba" d="M 19 84 L 38 84 L 38 175 L 100 175 L 100 25 L 19 84" /><path fill="#f4ecce" d="M 19 84 L 38 84 L 38 175 L 100 175 L 100 25 L 19 84" /><path fill="#fffae3" d="M 19 84 L 38 84 L 38 175 L 100 175 L 100 25 L 19 84" /><path fill="#c0bdba" d="M 19 84 L 38 84 L 38 175 L 100 175 L 100 25 L 19 84" /><path fill="#ffe45c" d="M 19 84 L 38 84 L 38 175 L 100 175 L 100 25 L 19 84" /><path fill="#d81e06" d="M 19 84 L 38 84 L 38 175 L 100 175 L 100 25 L 19 84" /><path fill="#c0bdba" d="M 19 84 L 38 84 L 38 175 L 100 175 L 100 25 L 19 84" /><path fill="#f4ecce" d="M 19 84 L 38 84 L 38 175 L 100 175 L 100 25 L 19 84" /><path fill="#fffae3" d="M 19 84 L 38 84 L 38 175 L 100 175 L 100 25 L 19 84" /><path fill="#c0bdba" d="M 19 84 L 38 84 L 38 175 L 100 175 L 100 25 L 19 84" /><path fill="#ffe45c" d="M 19 84 L 38 84 L 38 175 L 100 175 L 100 25 L 19 84" /></svg>