<svg xmlns="http://www.w3.org/2000/svg" viewBox="0 0 200 200"><path fill="#ff473e" d="M 186 100 C 186 151 147 193 97 193 C 47 193 8 151 8 100 C 8 49 47 7 97 7 C 147 7 186 49 186 100 L 186 100" /><path fill="#44504f" d="M 104 54 C 104 54 104 54 104 54 C 104 54 104 54 104 54 C 104 54 104 54 104 54 C 104 54 104 54 104 54 C 104 54 104 54 104 54 C 104 54 104 54 104 54 C 104 54 104 54 104 54 C 104 54 104 54 104 54 C 104 54 104 54 104 54 C 104 54 104 54 104 54 C 104 54 104 54 104 54 C 104 54 104 54 104 54 C 104 54 104 54 104 54 C 104 54 104 54 104 54 C 104 54 104 54 104 54 C 104 54 104 54 104 54 C 104 54 104 54 104 54 C 104 54 104 54 104 54 C 104 54 104 54 104 54 C 104 54 104 54 104 54 C 104 54 104 54 104 54 C 104 54 104 54 104 54 C 104 54 104 54 104 54 C 104 54 104 54 104 54 C 104 54 104 54 104 54 C 104 54 104 54 104 54 C 104 54 104 54 104 54 C 104 54 104 54 104 54 C 104 54 104 54 104 54 C 104 54 104 54 104 54 C 104 54 104 54 104 54 C 104 54 104 54 104 54 C 104 54 104 54 104 54 C 104 54 104 54 104 54 C 104 54 104 54 104 54 C 104 54 104 54 104 54 C 104 54 104 54 104 54 C 104 54 104 54 104 54 C 104 54 104 54 104 54 C 104 54 104 54 104 54 C 104 54 104 54 104 54 C 104 54 104 54 104 54 C 104 54 104 54 104 54 C 104 54 104 54 104 54 C 104 54 104 54 104 54 C 104 54 104 54 104 54 C 104 54 104 54 104 54 C 104 54 104 54 104 54 C 104 54 104 54 104 54 C 104 54 104 54 104 54 C 104 54 104 54 104 54 C 104 54 104 54 104 54 C 104 54 104 54 104 54 C 104 54 104 54 104 54 C 104 54 104 54 104 54 C 104 54 104 54 104 54 C 104 54 104 54 104 54 C 104 54 104 54 104 54 C 104 54 104 54 104 54 C 104 54 104 54 104 54 C 104 54 104 54 104 54 C 104 54 104 54 104 54 C 104 54 104 54 104 54 C 104 54 104 54 104 54 C 104 54 104 54 104 54 C 104 54 104 54 104 54 C 104 54 104 54 104 54 C 104 54 104 54 104 54 C 104 54 104 54 104 54 C 104 54 104 54 104 54 C 104 54 104 54 104 54 C 104 54 104 54 104 54 C 104 54 104 54 104 54 C 104 54 104 54 104 54 C 104 54 104 54 104 54 C 104 54 104 54 104 54 C 104 54 104 54 104 54 C 104 54 104 54 104 54 C 104 54 104 54 104 54 C 104 54 104 54 104 54 C 104 54 104 54 104 54 C 104 54 104 54 104 54 C 104 54 104 54 104 54 C 104 54 104 54 104 54 C 104 54 104 54 104 54 C 104 54 104 54 104 54 C 104 54 104 54 104 54 C 104 54 104 54 104 54 C 104 54 104 54 104 54 C 104 54 104 54 104 54 C 104 54 104 54 104 54 C 104 54 104 54 104 54 C 104 54 104 54 104 54 C 104 54 104 54 104 54 C 104 54 104 54 104 54 C 104 54 104 54 104 54 C 104 54 104 54 104 54 C 104 54 104 54 104 54 C 104 54 104 54 104 54 C 104 54 104 54 104 54 C 104 54 104 54 104 54 C 104 54 104 54 104 54 C 104 54 104 54 104 54 C 104 54 104 54 104 54 C 104 54 104 54 104 54 C 104 54 104 54 104 54 C 104 54 104 54 104 54 C 104 54 104 54 104 54 C 104 54 104 54 104 54 C 104 54 104 54 104 54 C 104 54 104 54 104 54 C 104 54 104 54 104 54 C 104 54 104 54 104 54 C 104 54 104 54 104 54 C 104 54 104 54 104 54 C 104 54 104 54 104 54 C 104 54 104 54 104 54 C 104 54 104 54 104 54 C 104 54 104 54 104 54 C 104 54 104 54 104 54 C 104 54 104 54 104 54 C 104 54 104 54 104 54 C 104 54 104 54 104 54 C 104 54 104 54 104 54 C 104 54 104 54 104 54 C 104 54 104 54 104 54 C 104 54 104 54 104 54 C 104 54 104 54 104 54 C 104 54 104 54 104 54 C 104 54 104 54 104 54 C 104 54 104 54 104 54 C 104 54 104 54 104 54 C 104 54 104 54 104 54 C 104 54 104 54 104 54 C 104 54 104 54 104 54 C 104 54 104 54 104 54 C 104 54 104 54 104 54 C 104 54 104 54 104 54 C 104 54 104 54 104 54 C 104 54 104 54 104 54 C 104 54 104 54 104 54 C 104 54 104 54 104 54 C 104 54 104 54 104 54 C 104 54 104 54 104 54 C 104 54 104 54 104 54 C 104 54 104 54 104 54 C 104 54 104 54 104 54 C 104 54 104 54 104 54 C 104 54 104 54 104 54 C 104 54 104 54 104 54 C 104 54 104 54 104 54 C 104 54 104 54 104 54 C 104 54 104 54 104 54 C 104 54 104 54 104 54 C 104 54 104 54 104 54 C 104 54 104 54 104 54 C 104 54 104 54 104 54 C 104 54 104 54 104 54 C 104 54 104 54 104 54 C 104 54 104 54 104 54 C 104 54 104 54 104 54 C 104 54 104 54 104 54 C 104 54 104 54 104 54 C 104 54 104 54 104 54 C 104 54 104 54 104 54 C 104 54 104 54 104 54 C 104 54 104 54 104 54 C 104 54 104 54 104 54 C 104 54 104 54 104 54 C 104 54 104 54 104 54 C 104 54 104 54 104 54 C 104 54 104 54 104 54 C 104 54 104 54 104 54 C 104 54 104 54 104 54 C 104 54 104 54 104 54 C 104 54 104 54 104 54 C 104 54 104 54 104 54 C 104 54 104 54 104 54 C 104 54 104 54"/>
</svg>