<svg xmlns="http://www.w3.org/2000/svg" viewBox="0 0 200 200"><path fill="#f1f2f2" d="M 197 19 L 197 18 C 197 10 190 3 182 3 L 18 3 C 10 3 3 10 3 18 L 3 19 C 3 27 10 34 18 34 L 182 34 C 190 34 197 27 197 19 L 197 19" /><path fill="#e0e0e0" d="M 182 3 L 18 3 C 10 3 3 10 3 18 L 3 19 C 3 27 10 34 18 34 L 182 34 C 190 34 197 27 197 19 L 197 18 C 197 10 190 3 182 3 L 182 3 M 182 30 L 18 30 C 12 30 7 25 7 19 L 7 18 C 7 12 12 7 18 7 L 182 7 C 188 7 193 12 193 18 L 193 19 C 193 25 188 30 182 30 L 182 30" /><path fill="#44e1b7" d="M 149 182 L 149 82 C 149 47 128 3 100 3 C 72 3 51 47 51 82 L 51 182 L 149 182" /><path fill="#36d7b7" d="M 100 3 C 72 3 51 47 51 82 L 51 182 L 149 182 L 149 82 C 149 47 128 3 100 3 L 100 3 M 139 137 L 139 157 L 61 157 L 61 137 L 139 137 M 139 124 L 61 124 L 61 103 L 139 103 L 139 124 M 139 90 L 61 90 L 61 69 L 139 69 L 139 90 M 139 55 L 61 55 L 61 41 C 73 21 86 15 100 15 C 114 15 127 21 139 41 L 139 55" /><g fill="#e0e0e0"><path d="M 149 157 L 149 157 C 149 157 149 157 149 157 C 149 157 149 157 149 157 C 149 157 149 157 149 157 C 149 157 149 157 149 157 C 149 157 149 157 149 157 C 149 157 149 157 149 157 C 149 157 149 157 149 157 L 149 157" /><path d="M 149 157 L 149 157 C 149 157 149 157 149 157 C 149 157 149 157 149 157 C 149 157 149 157 149 157 C 149 157 149 157 149 157 C 149 157 149 157 149 157 C 149 157 149 157 149 157 C 149 157 149 157 149 157 L 149 157" /><path d="M 149 157 L 149 157 C 149 157 149 157 149 157 C 149 157 149 157 149 157 C 149 157 149 157 149 157 C 149 157 149 157 149 157 C 149 157 149 157 149 157 C 149 157 149 157 149 157 C 149 157 149 157 149 157 L 149 157" /></g><path fill="#44e1b7" d="M 100 41 C 99 41 99 41 98 40 C 98 40 97 39 97 38 L 97 18 C 97 17 98 16 98 16 C 99 15 99 15 100 15 C 101 15 101 15 102 16 C 102 16 103 17 103 18 L 103 38 C 103 39 102 40 102 40 C 101 41 101 41 100 41" /></svg>