<svg xmlns="http://www.w3.org/2000/svg" viewBox="0 0 200 200"><path fill="#83bf4f" d="M 100 188 C 148 188 188 148 188 100 C 188 52 148 12 100 12 C 52 12 12 52 12 100 C 12 148 52 188 100 188 L 100 188 M 100 194 C 48 194 6 152 6 100 C 6 48 48 6 100 6 C 152 6 194 48 194 100 C 194 152 152 194 100 194 L 100 194" /><path fill="#ffcc4d" d="M 100 188 C 145 188 182 155 188 112 C 182 151 145 181 100 181 C 55 181 18 151 12 112 C 18 155 55 188 100 188 L 100 188 M 100 194 C 48 194 6 152 6 100 C 6 48 48 6 100 6 C 152 6 194 48 194 100 C 194 152 152 194 100 194 L 100 194" /><path fill="#83bf4f" d="M 100 181 C 145 181 182 151 188 112 C 182 155 145 188 100 188 C 55 188 18 155 12 112 C 18 151 55 181 100 181 L 100 181 M 100 194 C 48 194 6 152 6 100 C 6 48 48 6 100 6 C 152 6 194 48 194 100 C 194 152 152 194 100 194 L 100 194" /><path fill="#ffcc4d" d="M 100 188 C 145 188 182 155 188 112 C 182 151 145 181 100 181 C 55 181 18 151 12 112 C 18 155 55 188 100 188 L 100 188 M 100 194 C 48 194 6 152 6 100 C 6 48 48 6 100 6 C 152 6 194 48 194 100 C 194 152 152 194 100 194 L 100 194" /><path fill="#83bf4f" d="M 100 181 C 145 181 182 151 188 112 C 182 155 145 188 100 188 C 55 188 18 155 12 112 C 18 151 55 181 100 181 L 100 181 M 100 194 C 48 194 6 152 6 100 C 6 48 48 6 100 6 C 152 6 194 48 194 100 C 194 152 152 194 100 194 L 100 194" /><path fill="#ffcc4d" d="M 100 188 C 145 188 182 155 188 112 C 182 151 145 181 100 181 C 55 181 18 151 12 112 C 18 155 55 188 100 188 L 100 188 M 100 194 C 48 194 6 152 6 100 C 6 48 48 6 100 6 C 152 6 194 48 194 100 C 194 152 152 194 100 194 L 100 194" /><path fill="#83bf4f" d="M 100 181 C 145 181 182 151 188 112 C 182 155 145 188 100 188 C 55 188 18 155 12 112 C 18 151 55 181 100 181 L 100 181 M 100 194 C 48 194 6 152 6 100 C 6 48 48 6 100 6 C 152 6 194 48 194 100 C 194 152 152 194 100 194 L 100 194" /><path fill="#ffcc4d" d="M 100 188 C 145 188 182 155 188 112 C 182 151 145 181 100 181 C 55 181 18 151 12 112 C 18 155 55 188 100 188 L 100 188 M 100 194 C 48 194 6 152 6 100 C 6 48 48 6 100 6 C 152 6 194 48 194 100 C 194 152 152 194 100 194 L 100 194" /></svg>